ISO-10303-21;
HEADER;
FILE_DESCRIPTION(('Open CASCADE Model'),'2;1');
FILE_NAME('Open CASCADE Shape Model','2026-08-13T22:16:56',('Author'),(
    'Open CASCADE'),'Open CASCADE STEP processor 7.9','Open CASCADE 7.9'
  ,'Unknown');
FILE_SCHEMA(('AUTOMOTIVE_DESIGN { 1 0 10303 214 1 1 1 1 }'));
ENDSEC;
DATA;
#1 = APPLICATION_PROTOCOL_DEFINITION('international standard',
  'automotive_design',2000,#2);
#2 = APPLICATION_CONTEXT(
  'core data for automotive mechanical design processes');
#3 = SHAPE_DEFINITION_REPRESENTATION(#4,#10);
#4 = PRODUCT_DEFINITION_SHAPE('','',#5);
#5 = PRODUCT_DEFINITION('design','',#6,#9);
#6 = PRODUCT_DEFINITION_FORMATION('','',#7);
#7 = PRODUCT('Open CASCADE STEP translator 7.9 262',
  'Open CASCADE STEP translator 7.9 262','',(#8));
#8 = PRODUCT_CONTEXT('',#2,'mechanical');
#9 = PRODUCT_DEFINITION_CONTEXT('part definition',#2,'design');
#10 = ADVANCED_BREP_SHAPE_REPRESENTATION('',(#11,#15),#1462);
#11 = AXIS2_PLACEMENT_3D('',#12,#13,#14);
#12 = CARTESIAN_POINT('',(0.,0.,0.));
#13 = DIRECTION('',(0.,0.,1.));
#14 = DIRECTION('',(1.,0.,-0.));
#15 = MANIFOLD_SOLID_BREP('',#16);
#16 = CLOSED_SHELL('',(#17,#532,#637,#736,#787,#864,#960,#1015,#1067,
    #1106,#1162,#1234,#1261,#1311,#1360,#1388,#1442));
#17 = ADVANCED_FACE('',(#18),#39,.T.);
#18 = FACE_BOUND('',#19,.T.);
#19 = EDGE_LOOP('',(#20,#83,#116,#145,#174,#198,#225,#226,#250,#279,#312
    ,#391,#419,#448,#477,#506));
#20 = ORIENTED_EDGE('',*,*,#21,.T.);
#21 = EDGE_CURVE('',#22,#24,#26,.T.);
#22 = VERTEX_POINT('',#23);
#23 = CARTESIAN_POINT('',(44.88885130227,201.0699980513,52.196734513627)
  );
#24 = VERTEX_POINT('',#25);
#25 = CARTESIAN_POINT('',(46.337854391903,201.0699980513,52.196734513627
    ));
#26 = SURFACE_CURVE('',#27,(#38,#72),.PCURVE_S1.);
#27 = B_SPLINE_CURVE_WITH_KNOTS('',3,(#28,#29,#30,#31,#32,#33,#34,#35,
    #36,#37),.UNSPECIFIED.,.F.,.F.,(4,2,2,2,4),(0.938924668966,
    0.955996555302,1.009794977555,1.047843126691,1.090556255626),
  .UNSPECIFIED.);
#28 = CARTESIAN_POINT('',(44.88885130227,201.0699980513,52.196734513627)
  );
#29 = CARTESIAN_POINT('',(44.93828122545,201.09726411387,52.196734513627
    ));
#30 = CARTESIAN_POINT('',(44.989329632132,201.12178366667,52.1961638127)
  );
#31 = CARTESIAN_POINT('',(45.207046430491,201.21151492076,
    52.192692604454));
#32 = CARTESIAN_POINT('',(45.383218110202,201.2496361836,52.188083910614
    ));
#33 = CARTESIAN_POINT('',(45.689459173313,201.26000458194,
    52.187022580848));
#34 = CARTESIAN_POINT('',(45.816318623667,201.24818614057,
    52.188437926359));
#35 = CARTESIAN_POINT('',(46.079326956906,201.18946112346,
    52.193239771815));
#36 = CARTESIAN_POINT('',(46.213186189545,201.13876633552,
    52.196734513627));
#37 = CARTESIAN_POINT('',(46.337854391903,201.0699980513,52.196734513627
    ));
#38 = PCURVE('',#39,#44);
#39 = TOROIDAL_SURFACE('',#40,5.25,3.);
#40 = AXIS2_PLACEMENT_3D('',#41,#42,#43);
#41 = CARTESIAN_POINT('',(45.613352847084,206.26976703767,
    49.196734513627));
#42 = DIRECTION('',(-9.966702304196E-15,-1.021607975682E-14,-1.));
#43 = DIRECTION('',(-1.,5.034475530094E-30,9.966702304196E-15));
#44 = DEFINITIONAL_REPRESENTATION('',(#45),#71);
#45 = B_SPLINE_CURVE_WITH_KNOTS('',3,(#46,#47,#48,#49,#50,#51,#52,#53,
    #54,#55,#56,#57,#58,#59,#60,#61,#62,#63,#64,#65,#66,#67,#68,#69,#70)
  ,.UNSPECIFIED.,.F.,.F.,(4,1,1,1,1,1,1,1,1,1,1,1,1,1,1,1,1,1,1,1,1,1,4)
  ,(0.938924668966,0.945817013815,0.952709358663,0.959601703511,
    0.966494048359,0.973386393207,0.980278738055,0.987171082904,
    0.994063427752,1.0009557726,1.007848117448,1.014740462296,
    1.021632807144,1.028525151993,1.035417496841,1.042309841689,
    1.049202186537,1.056094531385,1.062986876233,1.069879221082,
    1.07677156593,1.083663910778,1.090556255626),.QUASI_UNIFORM_KNOTS.);
#46 = CARTESIAN_POINT('',(4.850831086263,4.712388980385));
#47 = CARTESIAN_POINT('',(4.847356768048,4.707837520792));
#48 = CARTESIAN_POINT('',(4.840226634351,4.699066611031));
#49 = CARTESIAN_POINT('',(4.829024497001,4.686964289544));
#50 = CARTESIAN_POINT('',(4.81732994517,4.675957760555));
#51 = CARTESIAN_POINT('',(4.805238115547,4.666145702794));
#52 = CARTESIAN_POINT('',(4.792777509615,4.657551523202));
#53 = CARTESIAN_POINT('',(4.779988528915,4.650207401671));
#54 = CARTESIAN_POINT('',(4.766912004369,4.644140962552));
#55 = CARTESIAN_POINT('',(4.753591752871,4.639378516415));
#56 = CARTESIAN_POINT('',(4.740074352019,4.635944194117));
#57 = CARTESIAN_POINT('',(4.726405686554,4.633858793824));
#58 = CARTESIAN_POINT('',(4.712642885957,4.633143704702));
#59 = CARTESIAN_POINT('',(4.698905745994,4.633806570826));
#60 = CARTESIAN_POINT('',(4.685232472811,4.635838023672));
#61 = CARTESIAN_POINT('',(4.671677483824,4.639229205182));
#62 = CARTESIAN_POINT('',(4.65829288466,4.643965364864));
#63 = CARTESIAN_POINT('',(4.645117037431,4.650036535158));
#64 = CARTESIAN_POINT('',(4.63224157448,4.657399014833));
#65 = CARTESIAN_POINT('',(4.619719638736,4.666010374548));
#66 = CARTESIAN_POINT('',(4.607586633323,4.675835787017));
#67 = CARTESIAN_POINT('',(4.595878609922,4.686836941179));
#68 = CARTESIAN_POINT('',(4.584627587689,4.698975469766));
#69 = CARTESIAN_POINT('',(4.577450041356,4.707800079589));
#70 = CARTESIAN_POINT('',(4.573946874506,4.712388980385));
#71 = ( GEOMETRIC_REPRESENTATION_CONTEXT(2) 
PARAMETRIC_REPRESENTATION_CONTEXT() REPRESENTATION_CONTEXT('2D SPACE',''
  ) );
#72 = PCURVE('',#73,#78);
#73 = CYLINDRICAL_SURFACE('',#74,1.5);
#74 = AXIS2_PLACEMENT_3D('',#75,#76,#77);
#75 = CARTESIAN_POINT('',(45.613352847087,199.75656837616,
    52.196734513627));
#76 = DIRECTION('',(0.,0.,-1.));
#77 = DIRECTION('',(-1.,0.,0.));
#78 = DEFINITIONAL_REPRESENTATION('',(#79),#82);
#79 = B_SPLINE_CURVE_WITH_KNOTS('',1,(#80,#81),.UNSPECIFIED.,.F.,.F.,(2,
    2),(0.938924668966,1.090556255626),.PIECEWISE_BEZIER_KNOTS.);
#80 = CARTESIAN_POINT('',(1.066717520573,-9.947598300641E-14));
#81 = CARTESIAN_POINT('',(2.074875133016,-9.947598300641E-14));
#82 = ( GEOMETRIC_REPRESENTATION_CONTEXT(2) 
PARAMETRIC_REPRESENTATION_CONTEXT() REPRESENTATION_CONTEXT('2D SPACE',''
  ) );
#83 = ORIENTED_EDGE('',*,*,#84,.T.);
#84 = EDGE_CURVE('',#24,#85,#87,.T.);
#85 = VERTEX_POINT('',#86);
#86 = CARTESIAN_POINT('',(48.613352847087,201.96134505277,
    52.196734513627));
#87 = SURFACE_CURVE('',#88,(#93,#100),.PCURVE_S1.);
#88 = CIRCLE('',#89,5.25);
#89 = AXIS2_PLACEMENT_3D('',#90,#91,#92);
#90 = CARTESIAN_POINT('',(45.613352847084,206.26976703767,
    52.196734513627));
#91 = DIRECTION('',(9.966702304196E-15,1.021607975682E-14,1.));
#92 = DIRECTION('',(-1.,-1.362143967576E-14,9.966702304196E-15));
#93 = PCURVE('',#39,#94);
#94 = DEFINITIONAL_REPRESENTATION('',(#95),#99);
#95 = LINE('',#96,#97);
#96 = CARTESIAN_POINT('',(6.28318530718,4.712388980385));
#97 = VECTOR('',#98,1.);
#98 = DIRECTION('',(-1.,-1.70147864717E-14));
#99 = ( GEOMETRIC_REPRESENTATION_CONTEXT(2) 
PARAMETRIC_REPRESENTATION_CONTEXT() REPRESENTATION_CONTEXT('2D SPACE',''
  ) );
#100 = PCURVE('',#101,#106);
#101 = PLANE('',#102);
#102 = AXIS2_PLACEMENT_3D('',#103,#104,#105);
#103 = CARTESIAN_POINT('',(45.613352847087,206.26976703767,
    52.196734513627));
#104 = DIRECTION('',(-9.966702304196E-15,-1.021607975682E-14,-1.));
#105 = DIRECTION('',(1.,1.018746794083E-22,-9.966702304196E-15));
#106 = DEFINITIONAL_REPRESENTATION('',(#107),#115);
#107 = ( BOUNDED_CURVE() B_SPLINE_CURVE(2,(#108,#109,#110,#111,#112,#113
,#114),.UNSPECIFIED.,.T.,.F.) B_SPLINE_CURVE_WITH_KNOTS((1,2,2,2,2,1),(
    -2.094395102393,0.,2.094395102393,4.188790204786,6.28318530718,
8.377580409573),.UNSPECIFIED.) CURVE() GEOMETRIC_REPRESENTATION_ITEM() 
RATIONAL_B_SPLINE_CURVE((1.,0.5,1.,0.5,1.,0.5,1.)) REPRESENTATION_ITEM(
  '') );
#108 = CARTESIAN_POINT('',(-5.250000000003,3.055792047955E-12));
#109 = CARTESIAN_POINT('',(-5.250000000003,9.09326673974));
#110 = CARTESIAN_POINT('',(2.624999999997,4.546633369871));
#111 = CARTESIAN_POINT('',(10.499999999997,2.842540253806E-12));
#112 = CARTESIAN_POINT('',(2.624999999997,-4.546633369865));
#113 = CARTESIAN_POINT('',(-5.250000000003,-9.093266739734));
#114 = CARTESIAN_POINT('',(-5.250000000003,3.055792047955E-12));
#115 = ( GEOMETRIC_REPRESENTATION_CONTEXT(2) 
PARAMETRIC_REPRESENTATION_CONTEXT() REPRESENTATION_CONTEXT('2D SPACE',''
  ) );
#116 = ORIENTED_EDGE('',*,*,#117,.T.);
#117 = EDGE_CURVE('',#85,#118,#120,.T.);
#118 = VERTEX_POINT('',#119);
#119 = CARTESIAN_POINT('',(48.613352847087,202.26976703767,
    52.186299699402));
#120 = SURFACE_CURVE('',#121,(#126,#132),.PCURVE_S1.);
#121 = B_SPLINE_CURVE_WITH_KNOTS('',3,(#122,#123,#124,#125),
  .UNSPECIFIED.,.F.,.F.,(4,4),(3.16418096461,3.194130022503),
  .PIECEWISE_BEZIER_KNOTS.);
#122 = CARTESIAN_POINT('',(48.613352847087,201.96134505277,
    52.196734513627));
#123 = CARTESIAN_POINT('',(48.613352847087,202.06117524574,
    52.196734513627));
#124 = CARTESIAN_POINT('',(48.613352847087,202.16449373839,
    52.193342415833));
#125 = CARTESIAN_POINT('',(48.613352847087,202.26976703767,
    52.186299699402));
#126 = PCURVE('',#39,#127);
#127 = DEFINITIONAL_REPRESENTATION('',(#128),#131);
#128 = B_SPLINE_CURVE_WITH_KNOTS('',1,(#129,#130),.UNSPECIFIED.,.F.,.F.,
  (2,2),(3.16418096461,3.194130022503),.PIECEWISE_BEZIER_KNOTS.);
#129 = CARTESIAN_POINT('',(4.104143401474,4.712388980385));
#130 = CARTESIAN_POINT('',(4.068887871591,4.628958893774));
#131 = ( GEOMETRIC_REPRESENTATION_CONTEXT(2) 
PARAMETRIC_REPRESENTATION_CONTEXT() REPRESENTATION_CONTEXT('2D SPACE',''
  ) );
#132 = PCURVE('',#133,#138);
#133 = PLANE('',#134);
#134 = AXIS2_PLACEMENT_3D('',#135,#136,#137);
#135 = CARTESIAN_POINT('',(48.613352847087,202.26976703767,
    52.196734513627));
#136 = DIRECTION('',(1.,0.,0.));
#137 = DIRECTION('',(0.,-1.,0.));
#138 = DEFINITIONAL_REPRESENTATION('',(#139),#144);
#139 = B_SPLINE_CURVE_WITH_KNOTS('',3,(#140,#141,#142,#143),
  .UNSPECIFIED.,.F.,.F.,(4,4),(3.16418096461,3.194130022503),
  .PIECEWISE_BEZIER_KNOTS.);
#140 = CARTESIAN_POINT('',(0.308421984904,-9.947598300641E-14));
#141 = CARTESIAN_POINT('',(0.208591791928,-9.947598300641E-14));
#142 = CARTESIAN_POINT('',(0.105273299279,3.392097793501E-03));
#143 = CARTESIAN_POINT('',(-9.947598300641E-13,1.04348142247E-02));
#144 = ( GEOMETRIC_REPRESENTATION_CONTEXT(2) 
PARAMETRIC_REPRESENTATION_CONTEXT() REPRESENTATION_CONTEXT('2D SPACE',''
  ) );
#145 = ORIENTED_EDGE('',*,*,#146,.T.);
#146 = EDGE_CURVE('',#118,#147,#149,.T.);
#147 = VERTEX_POINT('',#148);
#148 = CARTESIAN_POINT('',(50.613352847084,206.26976703767,
    52.186299699402));
#149 = SURFACE_CURVE('',#150,(#155,#162),.PCURVE_S1.);
#150 = CIRCLE('',#151,5.);
#151 = AXIS2_PLACEMENT_3D('',#152,#153,#154);
#152 = CARTESIAN_POINT('',(45.613352847084,206.26976703767,
    52.186299699402));
#153 = DIRECTION('',(8.759319517087E-15,1.7763568394E-14,1.));
#154 = DIRECTION('',(1.,1.018747008557E-22,-8.759319517087E-15));
#155 = PCURVE('',#39,#156);
#156 = DEFINITIONAL_REPRESENTATION('',(#157),#161);
#157 = LINE('',#158,#159);
#158 = CARTESIAN_POINT('',(9.424777960769,4.628958893774));
#159 = VECTOR('',#160,1.);
#160 = DIRECTION('',(-1.,-1.628287609145E-14));
#161 = ( GEOMETRIC_REPRESENTATION_CONTEXT(2) 
PARAMETRIC_REPRESENTATION_CONTEXT() REPRESENTATION_CONTEXT('2D SPACE',''
  ) );
#162 = PCURVE('',#163,#168);
#163 = CYLINDRICAL_SURFACE('',#164,5.);
#164 = AXIS2_PLACEMENT_3D('',#165,#166,#167);
#165 = CARTESIAN_POINT('',(45.613352847087,206.26976703767,
    52.196734513627));
#166 = DIRECTION('',(-8.759319517087E-15,-1.7763568394E-14,-1.));
#167 = DIRECTION('',(1.,1.018747008557E-22,-8.759319517087E-15));
#168 = DEFINITIONAL_REPRESENTATION('',(#169),#173);
#169 = LINE('',#170,#171);
#170 = CARTESIAN_POINT('',(6.28318530718,1.04348142247E-02));
#171 = VECTOR('',#172,1.);
#172 = DIRECTION('',(-1.,0.));
#173 = ( GEOMETRIC_REPRESENTATION_CONTEXT(2) 
PARAMETRIC_REPRESENTATION_CONTEXT() REPRESENTATION_CONTEXT('2D SPACE',''
  ) );
#174 = ORIENTED_EDGE('',*,*,#175,.T.);
#175 = EDGE_CURVE('',#147,#176,#178,.T.);
#176 = VERTEX_POINT('',#177);
#177 = CARTESIAN_POINT('',(47.863352847084,206.26976703767,
    49.196734513627));
#178 = SEAM_CURVE('',#179,(#184,#191),.PCURVE_S1.);
#179 = CIRCLE('',#180,3.);
#180 = AXIS2_PLACEMENT_3D('',#181,#182,#183);
#181 = CARTESIAN_POINT('',(50.863352847084,206.26976703767,
    49.196734513627));
#182 = DIRECTION('',(9.898583535213E-29,-1.,1.021607975682E-14));
#183 = DIRECTION('',(1.,3.36311631438E-44,-9.689219124001E-15));
#184 = PCURVE('',#39,#185);
#185 = DEFINITIONAL_REPRESENTATION('',(#186),#190);
#186 = LINE('',#187,#188);
#187 = CARTESIAN_POINT('',(3.14159265359,6.28318530718));
#188 = VECTOR('',#189,1.);
#189 = DIRECTION('',(0.,-1.));
#190 = ( GEOMETRIC_REPRESENTATION_CONTEXT(2) 
PARAMETRIC_REPRESENTATION_CONTEXT() REPRESENTATION_CONTEXT('2D SPACE',''
  ) );
#191 = PCURVE('',#39,#192);
#192 = DEFINITIONAL_REPRESENTATION('',(#193),#197);
#193 = LINE('',#194,#195);
#194 = CARTESIAN_POINT('',(9.424777960769,6.28318530718));
#195 = VECTOR('',#196,1.);
#196 = DIRECTION('',(0.,-1.));
#197 = ( GEOMETRIC_REPRESENTATION_CONTEXT(2) 
PARAMETRIC_REPRESENTATION_CONTEXT() REPRESENTATION_CONTEXT('2D SPACE',''
  ) );
#198 = ORIENTED_EDGE('',*,*,#199,.T.);
#199 = EDGE_CURVE('',#176,#176,#200,.T.);
#200 = SURFACE_CURVE('',#201,(#206,#213),.PCURVE_S1.);
#201 = CIRCLE('',#202,2.25);
#202 = AXIS2_PLACEMENT_3D('',#203,#204,#205);
#203 = CARTESIAN_POINT('',(45.613352847084,206.26976703767,
    49.196734513627));
#204 = DIRECTION('',(-9.966702304196E-15,-1.021607975682E-14,-1.));
#205 = DIRECTION('',(-1.,-1.362143967576E-14,9.966702304196E-15));
#206 = PCURVE('',#39,#207);
#207 = DEFINITIONAL_REPRESENTATION('',(#208),#212);
#208 = LINE('',#209,#210);
#209 = CARTESIAN_POINT('',(-1.24344978758E-14,3.14159265359));
#210 = VECTOR('',#211,1.);
#211 = DIRECTION('',(1.,0.));
#212 = ( GEOMETRIC_REPRESENTATION_CONTEXT(2) 
PARAMETRIC_REPRESENTATION_CONTEXT() REPRESENTATION_CONTEXT('2D SPACE',''
  ) );
#213 = PCURVE('',#214,#219);
#214 = CYLINDRICAL_SURFACE('',#215,2.25);
#215 = AXIS2_PLACEMENT_3D('',#216,#217,#218);
#216 = CARTESIAN_POINT('',(45.613352847084,206.26976703767,
    52.196734513627));
#217 = DIRECTION('',(0.,0.,-1.));
#218 = DIRECTION('',(-1.,0.,0.));
#219 = DEFINITIONAL_REPRESENTATION('',(#220),#224);
#220 = LINE('',#221,#222);
#221 = CARTESIAN_POINT('',(-1.24344978758E-14,3.));
#222 = VECTOR('',#223,1.);
#223 = DIRECTION('',(1.,0.));
#224 = ( GEOMETRIC_REPRESENTATION_CONTEXT(2) 
PARAMETRIC_REPRESENTATION_CONTEXT() REPRESENTATION_CONTEXT('2D SPACE',''
  ) );
#225 = ORIENTED_EDGE('',*,*,#175,.F.);
#226 = ORIENTED_EDGE('',*,*,#227,.T.);
#227 = EDGE_CURVE('',#147,#228,#230,.T.);
#228 = VERTEX_POINT('',#229);
#229 = CARTESIAN_POINT('',(48.613352847087,210.26976703767,
    52.186299699402));
#230 = SURFACE_CURVE('',#231,(#236,#243),.PCURVE_S1.);
#231 = CIRCLE('',#232,5.);
#232 = AXIS2_PLACEMENT_3D('',#233,#234,#235);
#233 = CARTESIAN_POINT('',(45.613352847084,206.26976703767,
    52.186299699402));
#234 = DIRECTION('',(8.759319517087E-15,1.7763568394E-14,1.));
#235 = DIRECTION('',(1.,1.018747008557E-22,-8.759319517087E-15));
#236 = PCURVE('',#39,#237);
#237 = DEFINITIONAL_REPRESENTATION('',(#238),#242);
#238 = LINE('',#239,#240);
#239 = CARTESIAN_POINT('',(9.424777960769,4.628958893774));
#240 = VECTOR('',#241,1.);
#241 = DIRECTION('',(-1.,-6.704713684709E-15));
#242 = ( GEOMETRIC_REPRESENTATION_CONTEXT(2) 
PARAMETRIC_REPRESENTATION_CONTEXT() REPRESENTATION_CONTEXT('2D SPACE',''
  ) );
#243 = PCURVE('',#163,#244);
#244 = DEFINITIONAL_REPRESENTATION('',(#245),#249);
#245 = LINE('',#246,#247);
#246 = CARTESIAN_POINT('',(0.,1.04348142247E-02));
#247 = VECTOR('',#248,1.);
#248 = DIRECTION('',(-1.,0.));
#249 = ( GEOMETRIC_REPRESENTATION_CONTEXT(2) 
PARAMETRIC_REPRESENTATION_CONTEXT() REPRESENTATION_CONTEXT('2D SPACE',''
  ) );
#250 = ORIENTED_EDGE('',*,*,#251,.T.);
#251 = EDGE_CURVE('',#228,#252,#254,.T.);
#252 = VERTEX_POINT('',#253);
#253 = CARTESIAN_POINT('',(48.613352847087,210.57818902257,
    52.196734513627));
#254 = SURFACE_CURVE('',#255,(#260,#266),.PCURVE_S1.);
#255 = B_SPLINE_CURVE_WITH_KNOTS('',3,(#256,#257,#258,#259),
  .UNSPECIFIED.,.F.,.F.,(4,4),(0.392065452714,0.422014510606),
  .PIECEWISE_BEZIER_KNOTS.);
#256 = CARTESIAN_POINT('',(48.613352847087,210.26976703767,
    52.186299699402));
#257 = CARTESIAN_POINT('',(48.613352847087,210.37504033695,
    52.193342415833));
#258 = CARTESIAN_POINT('',(48.613352847087,210.4783588296,
    52.196734513627));
#259 = CARTESIAN_POINT('',(48.613352847087,210.57818902257,
    52.196734513627));
#260 = PCURVE('',#39,#261);
#261 = DEFINITIONAL_REPRESENTATION('',(#262),#265);
#262 = B_SPLINE_CURVE_WITH_KNOTS('',1,(#263,#264),.UNSPECIFIED.,.F.,.F.,
  (2,2),(0.392065452714,0.422014510606),.PIECEWISE_BEZIER_KNOTS.);
#263 = CARTESIAN_POINT('',(8.497482742768,4.628958893775));
#264 = CARTESIAN_POINT('',(8.462227212885,4.712388980385));
#265 = ( GEOMETRIC_REPRESENTATION_CONTEXT(2) 
PARAMETRIC_REPRESENTATION_CONTEXT() REPRESENTATION_CONTEXT('2D SPACE',''
  ) );
#266 = PCURVE('',#267,#272);
#267 = PLANE('',#268);
#268 = AXIS2_PLACEMENT_3D('',#269,#270,#271);
#269 = CARTESIAN_POINT('',(48.613352847087,215.26976703767,
    52.196734513627));
#270 = DIRECTION('',(1.,0.,0.));
#271 = DIRECTION('',(0.,-1.,0.));
#272 = DEFINITIONAL_REPRESENTATION('',(#273),#278);
#273 = B_SPLINE_CURVE_WITH_KNOTS('',3,(#274,#275,#276,#277),
  .UNSPECIFIED.,.F.,.F.,(4,4),(0.392065452714,0.422014510606),
  .PIECEWISE_BEZIER_KNOTS.);
#274 = CARTESIAN_POINT('',(4.999999999999,1.04348142243E-02));
#275 = CARTESIAN_POINT('',(4.894726700721,3.392097793402E-03));
#276 = CARTESIAN_POINT('',(4.791408208074,0.));
#277 = CARTESIAN_POINT('',(4.6915780151,0.));
#278 = ( GEOMETRIC_REPRESENTATION_CONTEXT(2) 
PARAMETRIC_REPRESENTATION_CONTEXT() REPRESENTATION_CONTEXT('2D SPACE',''
  ) );
#279 = ORIENTED_EDGE('',*,*,#280,.T.);
#280 = EDGE_CURVE('',#252,#281,#283,.T.);
#281 = VERTEX_POINT('',#282);
#282 = CARTESIAN_POINT('',(46.348853275917,211.4679916499,
    52.196734513627));
#283 = SURFACE_CURVE('',#284,(#289,#296),.PCURVE_S1.);
#284 = CIRCLE('',#285,5.25);
#285 = AXIS2_PLACEMENT_3D('',#286,#287,#288);
#286 = CARTESIAN_POINT('',(45.613352847084,206.26976703767,
    52.196734513627));
#287 = DIRECTION('',(9.966702304196E-15,1.021607975682E-14,1.));
#288 = DIRECTION('',(-1.,-1.362143967576E-14,9.966702304196E-15));
#289 = PCURVE('',#39,#290);
#290 = DEFINITIONAL_REPRESENTATION('',(#291),#295);
#291 = LINE('',#292,#293);
#292 = CARTESIAN_POINT('',(12.566370614359,4.712388980385));
#293 = VECTOR('',#294,1.);
#294 = DIRECTION('',(-1.,1.709175253676E-14));
#295 = ( GEOMETRIC_REPRESENTATION_CONTEXT(2) 
PARAMETRIC_REPRESENTATION_CONTEXT() REPRESENTATION_CONTEXT('2D SPACE',''
  ) );
#296 = PCURVE('',#297,#302);
#297 = PLANE('',#298);
#298 = AXIS2_PLACEMENT_3D('',#299,#300,#301);
#299 = CARTESIAN_POINT('',(45.613352847087,206.26976703767,
    52.196734513627));
#300 = DIRECTION('',(-9.966702304196E-15,-1.021607975682E-14,-1.));
#301 = DIRECTION('',(1.,1.018746794083E-22,-9.966702304196E-15));
#302 = DEFINITIONAL_REPRESENTATION('',(#303),#311);
#303 = ( BOUNDED_CURVE() B_SPLINE_CURVE(2,(#304,#305,#306,#307,#308,#309
,#310),.UNSPECIFIED.,.T.,.F.) B_SPLINE_CURVE_WITH_KNOTS((1,2,2,2,2,1),(
    -2.094395102393,0.,2.094395102393,4.188790204786,6.28318530718,
8.377580409573),.UNSPECIFIED.) CURVE() GEOMETRIC_REPRESENTATION_ITEM() 
RATIONAL_B_SPLINE_CURVE((1.,0.5,1.,0.5,1.,0.5,1.)) REPRESENTATION_ITEM(
  '') );
#304 = CARTESIAN_POINT('',(-5.250000000003,3.055792047955E-12));
#305 = CARTESIAN_POINT('',(-5.250000000003,9.09326673974));
#306 = CARTESIAN_POINT('',(2.624999999997,4.546633369871));
#307 = CARTESIAN_POINT('',(10.499999999997,2.842540253806E-12));
#308 = CARTESIAN_POINT('',(2.624999999997,-4.546633369865));
#309 = CARTESIAN_POINT('',(-5.250000000003,-9.093266739734));
#310 = CARTESIAN_POINT('',(-5.250000000003,3.055792047955E-12));
#311 = ( GEOMETRIC_REPRESENTATION_CONTEXT(2) 
PARAMETRIC_REPRESENTATION_CONTEXT() REPRESENTATION_CONTEXT('2D SPACE',''
  ) );
#312 = ORIENTED_EDGE('',*,*,#313,.T.);
#313 = EDGE_CURVE('',#281,#314,#316,.T.);
#314 = VERTEX_POINT('',#315);
#315 = CARTESIAN_POINT('',(44.877852418256,211.4679916499,
    52.196734513627));
#316 = SURFACE_CURVE('',#317,(#328,#357),.PCURVE_S1.);
#317 = B_SPLINE_CURVE_WITH_KNOTS('',3,(#318,#319,#320,#321,#322,#323,
    #324,#325,#326,#327),.UNSPECIFIED.,.F.,.F.,(4,2,2,2,4),(
    0.936022152407,0.956827747721,1.010549334572,1.047582760988,
    1.089438677842),.UNSPECIFIED.);
#318 = CARTESIAN_POINT('',(46.348853275917,211.4679916499,
    52.196734513627));
#319 = CARTESIAN_POINT('',(46.288167715287,211.43384938741,
    52.196734513627));
#320 = CARTESIAN_POINT('',(46.225073431258,211.40391519195,
    52.195843617099));
#321 = CARTESIAN_POINT('',(45.99201196672,211.3127060133,52.191523239479
    ));
#322 = CARTESIAN_POINT('',(45.813969529679,211.27789092947,
    52.187032498173));
#323 = CARTESIAN_POINT('',(45.509619492345,211.27373930902,
    52.186591672453));
#324 = CARTESIAN_POINT('',(45.386066814067,211.28747435828,
    52.188244745937));
#325 = CARTESIAN_POINT('',(45.130026691276,211.34844546316,
    52.193266343635));
#326 = CARTESIAN_POINT('',(44.999448714745,211.39958043924,
    52.196734513627));
#327 = CARTESIAN_POINT('',(44.877852418256,211.4679916499,
    52.196734513627));
#328 = PCURVE('',#39,#329);
#329 = DEFINITIONAL_REPRESENTATION('',(#330),#356);
#330 = B_SPLINE_CURVE_WITH_KNOTS('',3,(#331,#332,#333,#334,#335,#336,
    #337,#338,#339,#340,#341,#342,#343,#344,#345,#346,#347,#348,#349,
    #350,#351,#352,#353,#354,#355),.UNSPECIFIED.,.F.,.F.,(4,1,1,1,1,1,1,
    1,1,1,1,1,1,1,1,1,1,1,1,1,1,1,4),(0.936022152407,0.942995630836,
    0.949969109265,0.956942587694,0.963916066123,0.970889544551,
    0.97786302298,0.984836501409,0.991809979838,0.998783458267,
    1.005756936696,1.012730415124,1.019703893553,1.026677371982,
    1.033650850411,1.04062432884,1.047597807269,1.054571285697,
    1.061544764126,1.068518242555,1.075491720984,1.082465199413,
    1.089438677842),.QUASI_UNIFORM_KNOTS.);
#331 = CARTESIAN_POINT('',(7.994539317211,4.712388980385));
#332 = CARTESIAN_POINT('',(7.991008888089,4.707662253931));
#333 = CARTESIAN_POINT('',(7.983761938393,4.698560556009));
#334 = CARTESIAN_POINT('',(7.972364386438,4.686014586355));
#335 = CARTESIAN_POINT('',(7.960455212653,4.674614435351));
#336 = CARTESIAN_POINT('',(7.948104667386,4.66444159242));
#337 = CARTESIAN_POINT('',(7.935385831683,4.655555930513));
#338 = CARTESIAN_POINT('',(7.922331008641,4.647978020272));
#339 = CARTESIAN_POINT('',(7.908987086306,4.641736343095));
#340 = CARTESIAN_POINT('',(7.895400793211,4.636854393554));
#341 = CARTESIAN_POINT('',(7.881620585029,4.633353960162));
#342 = CARTESIAN_POINT('',(7.867701759654,4.631253638837));
#343 = CARTESIAN_POINT('',(7.853681705766,4.630570040025));
#344 = CARTESIAN_POINT('',(7.839691663475,4.631313027403));
#345 = CARTESIAN_POINT('',(7.825792179362,4.63346790065));
#346 = CARTESIAN_POINT('',(7.812034750713,4.637019417329));
#347 = CARTESIAN_POINT('',(7.798473269709,4.641947516523));
#348 = CARTESIAN_POINT('',(7.78515229698,4.648232985718));
#349 = CARTESIAN_POINT('',(7.772139817072,4.655839977506));
#350 = CARTESIAN_POINT('',(7.759498425283,4.664720402563));
#351 = CARTESIAN_POINT('',(7.747262278448,4.674838226807));
#352 = CARTESIAN_POINT('',(7.735468788405,4.686152765036));
#353 = CARTESIAN_POINT('',(7.724150401967,4.698623639382));
#354 = CARTESIAN_POINT('',(7.716940266603,4.707681136303));
#355 = CARTESIAN_POINT('',(7.713423950739,4.712388980385));
#356 = ( GEOMETRIC_REPRESENTATION_CONTEXT(2) 
PARAMETRIC_REPRESENTATION_CONTEXT() REPRESENTATION_CONTEXT('2D SPACE',''
  ) );
#357 = PCURVE('',#358,#363);
#358 = CYLINDRICAL_SURFACE('',#359,1.5);
#359 = AXIS2_PLACEMENT_3D('',#360,#361,#362);
#360 = CARTESIAN_POINT('',(45.613352847087,212.77529387937,
    52.196734513627));
#361 = DIRECTION('',(0.,0.,-1.));
#362 = DIRECTION('',(-1.,0.,0.));
#363 = DEFINITIONAL_REPRESENTATION('',(#364),#390);
#364 = B_SPLINE_CURVE_WITH_KNOTS('',3,(#365,#366,#367,#368,#369,#370,
    #371,#372,#373,#374,#375,#376,#377,#378,#379,#380,#381,#382,#383,
    #384,#385,#386,#387,#388,#389),.UNSPECIFIED.,.F.,.F.,(4,1,1,1,1,1,1,
    1,1,1,1,1,1,1,1,1,1,1,1,1,1,1,4),(0.936022152407,0.942995630836,
    0.949969109265,0.956942587694,0.963916066123,0.970889544551,
    0.97786302298,0.984836501409,0.991809979838,0.998783458267,
    1.005756936696,1.012730415124,1.019703893553,1.026677371982,
    1.033650850411,1.04062432884,1.047597807269,1.054571285697,
    1.061544764126,1.068518242555,1.075491720984,1.082465199413,
    1.089438677842),.QUASI_UNIFORM_KNOTS.);
#365 = CARTESIAN_POINT('',(-2.083268833583,0.));
#366 = CARTESIAN_POINT('',(-2.067709894365,-1.099821857894E-09));
#367 = CARTESIAN_POINT('',(-2.036585309868,2.006587988288E-04));
#368 = CARTESIAN_POINT('',(-1.989866485694,9.691534851212E-04));
#369 = CARTESIAN_POINT('',(-1.943050387074,2.088319703087E-03));
#370 = CARTESIAN_POINT('',(-1.896258929188,3.379555621349E-03));
#371 = CARTESIAN_POINT('',(-1.849591695165,4.726020735044E-03));
#372 = CARTESIAN_POINT('',(-1.802981671621,6.065754447968E-03));
#373 = CARTESIAN_POINT('',(-1.756406840555,7.321992591302E-03));
#374 = CARTESIAN_POINT('',(-1.709834689714,8.422305378121E-03));
#375 = CARTESIAN_POINT('',(-1.663231357714,9.291729066581E-03));
#376 = CARTESIAN_POINT('',(-1.616579283006,9.861101352274E-03));
#377 = CARTESIAN_POINT('',(-1.569796197657,1.004058813649E-02));
#378 = CARTESIAN_POINT('',(-1.523108839946,9.831933311285E-03));
#379 = CARTESIAN_POINT('',(-1.476508391035,9.296025326927E-03));
#380 = CARTESIAN_POINT('',(-1.42996039721,8.473698547149E-03));
#381 = CARTESIAN_POINT('',(-1.383444251072,7.412029571947E-03));
#382 = CARTESIAN_POINT('',(-1.336913788584,6.153180142755E-03));
#383 = CARTESIAN_POINT('',(-1.29041370414,4.752729422521E-03));
#384 = CARTESIAN_POINT('',(-1.243987203431,3.339326174827E-03));
#385 = CARTESIAN_POINT('',(-1.197589300073,2.028802134392E-03));
#386 = CARTESIAN_POINT('',(-1.151199208299,9.404234331238E-04));
#387 = CARTESIAN_POINT('',(-1.104789893223,1.925356428693E-04));
#388 = CARTESIAN_POINT('',(-1.073820400596,2.763258088713E-15));
#389 = CARTESIAN_POINT('',(-1.058323820006,0.));
#390 = ( GEOMETRIC_REPRESENTATION_CONTEXT(2) 
PARAMETRIC_REPRESENTATION_CONTEXT() REPRESENTATION_CONTEXT('2D SPACE',''
  ) );
#391 = ORIENTED_EDGE('',*,*,#392,.T.);
#392 = EDGE_CURVE('',#314,#393,#395,.T.);
#393 = VERTEX_POINT('',#394);
#394 = CARTESIAN_POINT('',(42.613352847087,210.57818902257,
    52.196734513627));
#395 = SURFACE_CURVE('',#396,(#401,#408),.PCURVE_S1.);
#396 = CIRCLE('',#397,5.25);
#397 = AXIS2_PLACEMENT_3D('',#398,#399,#400);
#398 = CARTESIAN_POINT('',(45.613352847084,206.26976703767,
    52.196734513627));
#399 = DIRECTION('',(9.966702304196E-15,1.021607975682E-14,1.));
#400 = DIRECTION('',(-1.,-1.362143967576E-14,9.966702304196E-15));
#401 = PCURVE('',#39,#402);
#402 = DEFINITIONAL_REPRESENTATION('',(#403),#407);
#403 = LINE('',#404,#405);
#404 = CARTESIAN_POINT('',(12.566370614359,4.712388980385));
#405 = VECTOR('',#406,1.);
#406 = DIRECTION('',(-1.,9.495418075984E-15));
#407 = ( GEOMETRIC_REPRESENTATION_CONTEXT(2) 
PARAMETRIC_REPRESENTATION_CONTEXT() REPRESENTATION_CONTEXT('2D SPACE',''
  ) );
#408 = PCURVE('',#297,#409);
#409 = DEFINITIONAL_REPRESENTATION('',(#410),#418);
#410 = ( BOUNDED_CURVE() B_SPLINE_CURVE(2,(#411,#412,#413,#414,#415,#416
,#417),.UNSPECIFIED.,.T.,.F.) B_SPLINE_CURVE_WITH_KNOTS((1,2,2,2,2,1),(
    -2.094395102393,0.,2.094395102393,4.188790204786,6.28318530718,
8.377580409573),.UNSPECIFIED.) CURVE() GEOMETRIC_REPRESENTATION_ITEM() 
RATIONAL_B_SPLINE_CURVE((1.,0.5,1.,0.5,1.,0.5,1.)) REPRESENTATION_ITEM(
  '') );
#411 = CARTESIAN_POINT('',(-5.250000000003,3.055792047955E-12));
#412 = CARTESIAN_POINT('',(-5.250000000003,9.09326673974));
#413 = CARTESIAN_POINT('',(2.624999999997,4.546633369871));
#414 = CARTESIAN_POINT('',(10.499999999997,2.842540253806E-12));
#415 = CARTESIAN_POINT('',(2.624999999997,-4.546633369865));
#416 = CARTESIAN_POINT('',(-5.250000000003,-9.093266739734));
#417 = CARTESIAN_POINT('',(-5.250000000003,3.055792047955E-12));
#418 = ( GEOMETRIC_REPRESENTATION_CONTEXT(2) 
PARAMETRIC_REPRESENTATION_CONTEXT() REPRESENTATION_CONTEXT('2D SPACE',''
  ) );
#419 = ORIENTED_EDGE('',*,*,#420,.T.);
#420 = EDGE_CURVE('',#393,#421,#423,.T.);
#421 = VERTEX_POINT('',#422);
#422 = CARTESIAN_POINT('',(42.613352847087,210.26976703767,
    52.186299699402));
#423 = SURFACE_CURVE('',#424,(#429,#435),.PCURVE_S1.);
#424 = B_SPLINE_CURVE_WITH_KNOTS('',3,(#425,#426,#427,#428),
  .UNSPECIFIED.,.F.,.F.,(4,4),(3.164180964611,3.194130022504),
  .PIECEWISE_BEZIER_KNOTS.);
#425 = CARTESIAN_POINT('',(42.613352847087,210.57818902257,
    52.196734513627));
#426 = CARTESIAN_POINT('',(42.613352847087,210.4783588296,
    52.196734513627));
#427 = CARTESIAN_POINT('',(42.613352847087,210.37504033695,
    52.193342415833));
#428 = CARTESIAN_POINT('',(42.613352847087,210.26976703767,
    52.186299699402));
#429 = PCURVE('',#39,#430);
#430 = DEFINITIONAL_REPRESENTATION('',(#431),#434);
#431 = B_SPLINE_CURVE_WITH_KNOTS('',1,(#432,#433),.UNSPECIFIED.,.F.,.F.,
  (2,2),(3.164180964611,3.194130022504),.PIECEWISE_BEZIER_KNOTS.);
#432 = CARTESIAN_POINT('',(7.245736055065,4.712388980385));
#433 = CARTESIAN_POINT('',(7.210480525182,4.628958893774));
#434 = ( GEOMETRIC_REPRESENTATION_CONTEXT(2) 
PARAMETRIC_REPRESENTATION_CONTEXT() REPRESENTATION_CONTEXT('2D SPACE',''
  ) );
#435 = PCURVE('',#436,#441);
#436 = PLANE('',#437);
#437 = AXIS2_PLACEMENT_3D('',#438,#439,#440);
#438 = CARTESIAN_POINT('',(42.613352847087,210.26976703767,
    52.196734513627));
#439 = DIRECTION('',(-1.,0.,0.));
#440 = DIRECTION('',(0.,1.,0.));
#441 = DEFINITIONAL_REPRESENTATION('',(#442),#447);
#442 = B_SPLINE_CURVE_WITH_KNOTS('',3,(#443,#444,#445,#446),
  .UNSPECIFIED.,.F.,.F.,(4,4),(3.164180964611,3.194130022504),
  .PIECEWISE_BEZIER_KNOTS.);
#443 = CARTESIAN_POINT('',(0.308421984903,0.));
#444 = CARTESIAN_POINT('',(0.208591791928,0.));
#445 = CARTESIAN_POINT('',(0.105273299279,3.392097793501E-03));
#446 = CARTESIAN_POINT('',(9.947598300641E-13,1.04348142246E-02));
#447 = ( GEOMETRIC_REPRESENTATION_CONTEXT(2) 
PARAMETRIC_REPRESENTATION_CONTEXT() REPRESENTATION_CONTEXT('2D SPACE',''
  ) );
#448 = ORIENTED_EDGE('',*,*,#449,.T.);
#449 = EDGE_CURVE('',#421,#450,#452,.T.);
#450 = VERTEX_POINT('',#451);
#451 = CARTESIAN_POINT('',(42.613352847087,202.26976703767,
    52.186299699402));
#452 = SURFACE_CURVE('',#453,(#458,#465),.PCURVE_S1.);
#453 = CIRCLE('',#454,5.);
#454 = AXIS2_PLACEMENT_3D('',#455,#456,#457);
#455 = CARTESIAN_POINT('',(45.613352847084,206.26976703767,
    52.186299699402));
#456 = DIRECTION('',(8.759319517087E-15,1.7763568394E-14,1.));
#457 = DIRECTION('',(1.,1.018747008557E-22,-8.759319517087E-15));
#458 = PCURVE('',#39,#459);
#459 = DEFINITIONAL_REPRESENTATION('',(#460),#464);
#460 = LINE('',#461,#462);
#461 = CARTESIAN_POINT('',(9.424777960769,4.628958893774));
#462 = VECTOR('',#463,1.);
#463 = DIRECTION('',(-1.,1.149379488807E-14));
#464 = ( GEOMETRIC_REPRESENTATION_CONTEXT(2) 
PARAMETRIC_REPRESENTATION_CONTEXT() REPRESENTATION_CONTEXT('2D SPACE',''
  ) );
#465 = PCURVE('',#466,#471);
#466 = CYLINDRICAL_SURFACE('',#467,5.);
#467 = AXIS2_PLACEMENT_3D('',#468,#469,#470);
#468 = CARTESIAN_POINT('',(45.613352847087,206.26976703767,
    52.196734513627));
#469 = DIRECTION('',(-8.759319517087E-15,-1.7763568394E-14,-1.));
#470 = DIRECTION('',(-1.,-6.31831325805E-14,8.759319517088E-15));
#471 = DEFINITIONAL_REPRESENTATION('',(#472),#476);
#472 = LINE('',#473,#474);
#473 = CARTESIAN_POINT('',(3.141592653589,1.04348142247E-02));
#474 = VECTOR('',#475,1.);
#475 = DIRECTION('',(-1.,0.));
#476 = ( GEOMETRIC_REPRESENTATION_CONTEXT(2) 
PARAMETRIC_REPRESENTATION_CONTEXT() REPRESENTATION_CONTEXT('2D SPACE',''
  ) );
#477 = ORIENTED_EDGE('',*,*,#478,.T.);
#478 = EDGE_CURVE('',#450,#479,#481,.T.);
#479 = VERTEX_POINT('',#480);
#480 = CARTESIAN_POINT('',(42.613352847087,201.96134505276,
    52.196734513627));
#481 = SURFACE_CURVE('',#482,(#487,#493),.PCURVE_S1.);
#482 = B_SPLINE_CURVE_WITH_KNOTS('',3,(#483,#484,#485,#486),
  .UNSPECIFIED.,.F.,.F.,(4,4),(0.392065452714,0.422014510607),
  .PIECEWISE_BEZIER_KNOTS.);
#483 = CARTESIAN_POINT('',(42.613352847087,202.26976703767,
    52.186299699402));
#484 = CARTESIAN_POINT('',(42.613352847087,202.16449373839,
    52.193342415833));
#485 = CARTESIAN_POINT('',(42.613352847087,202.06117524574,
    52.196734513627));
#486 = CARTESIAN_POINT('',(42.613352847087,201.96134505276,
    52.196734513627));
#487 = PCURVE('',#39,#488);
#488 = DEFINITIONAL_REPRESENTATION('',(#489),#492);
#489 = B_SPLINE_CURVE_WITH_KNOTS('',1,(#490,#491),.UNSPECIFIED.,.F.,.F.,
  (2,2),(0.392065452714,0.422014510607),.PIECEWISE_BEZIER_KNOTS.);
#490 = CARTESIAN_POINT('',(5.355890089178,4.628958893773));
#491 = CARTESIAN_POINT('',(5.320634559294,4.712388980385));
#492 = ( GEOMETRIC_REPRESENTATION_CONTEXT(2) 
PARAMETRIC_REPRESENTATION_CONTEXT() REPRESENTATION_CONTEXT('2D SPACE',''
  ) );
#493 = PCURVE('',#494,#499);
#494 = PLANE('',#495);
#495 = AXIS2_PLACEMENT_3D('',#496,#497,#498);
#496 = CARTESIAN_POINT('',(42.613352847087,197.26976703767,
    52.196734513627));
#497 = DIRECTION('',(-1.,0.,0.));
#498 = DIRECTION('',(0.,1.,0.));
#499 = DEFINITIONAL_REPRESENTATION('',(#500),#505);
#500 = B_SPLINE_CURVE_WITH_KNOTS('',3,(#501,#502,#503,#504),
  .UNSPECIFIED.,.F.,.F.,(4,4),(0.392065452714,0.422014510607),
  .PIECEWISE_BEZIER_KNOTS.);
#501 = CARTESIAN_POINT('',(5.000000000001,1.04348142249E-02));
#502 = CARTESIAN_POINT('',(4.89472670072,3.392097793501E-03));
#503 = CARTESIAN_POINT('',(4.79140820807,-9.947598300641E-14));
#504 = CARTESIAN_POINT('',(4.691578015093,-9.947598300641E-14));
#505 = ( GEOMETRIC_REPRESENTATION_CONTEXT(2) 
PARAMETRIC_REPRESENTATION_CONTEXT() REPRESENTATION_CONTEXT('2D SPACE',''
  ) );
#506 = ORIENTED_EDGE('',*,*,#507,.T.);
#507 = EDGE_CURVE('',#479,#22,#508,.T.);
#508 = SURFACE_CURVE('',#509,(#514,#521),.PCURVE_S1.);
#509 = CIRCLE('',#510,5.25);
#510 = AXIS2_PLACEMENT_3D('',#511,#512,#513);
#511 = CARTESIAN_POINT('',(45.613352847084,206.26976703767,
    52.196734513627));
#512 = DIRECTION('',(9.966702304196E-15,1.021607975682E-14,1.));
#513 = DIRECTION('',(-1.,-1.362143967576E-14,9.966702304196E-15));
#514 = PCURVE('',#39,#515);
#515 = DEFINITIONAL_REPRESENTATION('',(#516),#520);
#516 = LINE('',#517,#518);
#517 = CARTESIAN_POINT('',(6.28318530718,4.712388980385));
#518 = VECTOR('',#519,1.);
#519 = DIRECTION('',(-1.,-1.89053183019E-15));
#520 = ( GEOMETRIC_REPRESENTATION_CONTEXT(2) 
PARAMETRIC_REPRESENTATION_CONTEXT() REPRESENTATION_CONTEXT('2D SPACE',''
  ) );
#521 = PCURVE('',#101,#522);
#522 = DEFINITIONAL_REPRESENTATION('',(#523),#531);
#523 = ( BOUNDED_CURVE() B_SPLINE_CURVE(2,(#524,#525,#526,#527,#528,#529
,#530),.UNSPECIFIED.,.T.,.F.) B_SPLINE_CURVE_WITH_KNOTS((1,2,2,2,2,1),(
    -2.094395102393,0.,2.094395102393,4.188790204786,6.28318530718,
8.377580409573),.UNSPECIFIED.) CURVE() GEOMETRIC_REPRESENTATION_ITEM() 
RATIONAL_B_SPLINE_CURVE((1.,0.5,1.,0.5,1.,0.5,1.)) REPRESENTATION_ITEM(
  '') );
#524 = CARTESIAN_POINT('',(-5.250000000003,3.055792047955E-12));
#525 = CARTESIAN_POINT('',(-5.250000000003,9.09326673974));
#526 = CARTESIAN_POINT('',(2.624999999997,4.546633369871));
#527 = CARTESIAN_POINT('',(10.499999999997,2.842540253806E-12));
#528 = CARTESIAN_POINT('',(2.624999999997,-4.546633369865));
#529 = CARTESIAN_POINT('',(-5.250000000003,-9.093266739734));
#530 = CARTESIAN_POINT('',(-5.250000000003,3.055792047955E-12));
#531 = ( GEOMETRIC_REPRESENTATION_CONTEXT(2) 
PARAMETRIC_REPRESENTATION_CONTEXT() REPRESENTATION_CONTEXT('2D SPACE',''
  ) );
#532 = ADVANCED_FACE('',(#533),#358,.F.);
#533 = FACE_BOUND('',#534,.F.);
#534 = EDGE_LOOP('',(#535,#560,#582,#583,#605,#606));
#535 = ORIENTED_EDGE('',*,*,#536,.T.);
#536 = EDGE_CURVE('',#537,#539,#541,.T.);
#537 = VERTEX_POINT('',#538);
#538 = CARTESIAN_POINT('',(47.113352847087,212.77529387937,
    50.196734513627));
#539 = VERTEX_POINT('',#540);
#540 = CARTESIAN_POINT('',(47.113352847087,212.77529387937,
    52.196734513627));
#541 = SEAM_CURVE('',#542,(#546,#553),.PCURVE_S1.);
#542 = LINE('',#543,#544);
#543 = CARTESIAN_POINT('',(47.113352847087,212.77529387937,
    52.196734513627));
#544 = VECTOR('',#545,1.);
#545 = DIRECTION('',(0.,0.,1.));
#546 = PCURVE('',#358,#547);
#547 = DEFINITIONAL_REPRESENTATION('',(#548),#552);
#548 = LINE('',#549,#550);
#549 = CARTESIAN_POINT('',(-3.14159265359,0.));
#550 = VECTOR('',#551,1.);
#551 = DIRECTION('',(0.,-1.));
#552 = ( GEOMETRIC_REPRESENTATION_CONTEXT(2) 
PARAMETRIC_REPRESENTATION_CONTEXT() REPRESENTATION_CONTEXT('2D SPACE',''
  ) );
#553 = PCURVE('',#358,#554);
#554 = DEFINITIONAL_REPRESENTATION('',(#555),#559);
#555 = LINE('',#556,#557);
#556 = CARTESIAN_POINT('',(3.14159265359,0.));
#557 = VECTOR('',#558,1.);
#558 = DIRECTION('',(0.,-1.));
#559 = ( GEOMETRIC_REPRESENTATION_CONTEXT(2) 
PARAMETRIC_REPRESENTATION_CONTEXT() REPRESENTATION_CONTEXT('2D SPACE',''
  ) );
#560 = ORIENTED_EDGE('',*,*,#561,.T.);
#561 = EDGE_CURVE('',#539,#281,#562,.T.);
#562 = SURFACE_CURVE('',#563,(#568,#575),.PCURVE_S1.);
#563 = CIRCLE('',#564,1.5);
#564 = AXIS2_PLACEMENT_3D('',#565,#566,#567);
#565 = CARTESIAN_POINT('',(45.613352847087,212.77529387937,
    52.196734513627));
#566 = DIRECTION('',(0.,0.,-1.));
#567 = DIRECTION('',(-1.,0.,0.));
#568 = PCURVE('',#358,#569);
#569 = DEFINITIONAL_REPRESENTATION('',(#570),#574);
#570 = LINE('',#571,#572);
#571 = CARTESIAN_POINT('',(-6.28318530718,0.));
#572 = VECTOR('',#573,1.);
#573 = DIRECTION('',(1.,0.));
#574 = ( GEOMETRIC_REPRESENTATION_CONTEXT(2) 
PARAMETRIC_REPRESENTATION_CONTEXT() REPRESENTATION_CONTEXT('2D SPACE',''
  ) );
#575 = PCURVE('',#297,#576);
#576 = DEFINITIONAL_REPRESENTATION('',(#577),#581);
#577 = CIRCLE('',#578,1.5);
#578 = AXIS2_PLACEMENT_2D('',#579,#580);
#579 = CARTESIAN_POINT('',(-5.968558973757E-13,-6.505526841702));
#580 = DIRECTION('',(-1.,-1.018747812289E-22));
#581 = ( GEOMETRIC_REPRESENTATION_CONTEXT(2) 
PARAMETRIC_REPRESENTATION_CONTEXT() REPRESENTATION_CONTEXT('2D SPACE',''
  ) );
#582 = ORIENTED_EDGE('',*,*,#313,.T.);
#583 = ORIENTED_EDGE('',*,*,#584,.T.);
#584 = EDGE_CURVE('',#314,#539,#585,.T.);
#585 = SURFACE_CURVE('',#586,(#591,#598),.PCURVE_S1.);
#586 = CIRCLE('',#587,1.5);
#587 = AXIS2_PLACEMENT_3D('',#588,#589,#590);
#588 = CARTESIAN_POINT('',(45.613352847087,212.77529387937,
    52.196734513627));
#589 = DIRECTION('',(0.,0.,-1.));
#590 = DIRECTION('',(-1.,0.,0.));
#591 = PCURVE('',#358,#592);
#592 = DEFINITIONAL_REPRESENTATION('',(#593),#597);
#593 = LINE('',#594,#595);
#594 = CARTESIAN_POINT('',(-6.28318530718,0.));
#595 = VECTOR('',#596,1.);
#596 = DIRECTION('',(1.,0.));
#597 = ( GEOMETRIC_REPRESENTATION_CONTEXT(2) 
PARAMETRIC_REPRESENTATION_CONTEXT() REPRESENTATION_CONTEXT('2D SPACE',''
  ) );
#598 = PCURVE('',#297,#599);
#599 = DEFINITIONAL_REPRESENTATION('',(#600),#604);
#600 = CIRCLE('',#601,1.5);
#601 = AXIS2_PLACEMENT_2D('',#602,#603);
#602 = CARTESIAN_POINT('',(-5.968558973757E-13,-6.505526841702));
#603 = DIRECTION('',(-1.,-1.018747812289E-22));
#604 = ( GEOMETRIC_REPRESENTATION_CONTEXT(2) 
PARAMETRIC_REPRESENTATION_CONTEXT() REPRESENTATION_CONTEXT('2D SPACE',''
  ) );
#605 = ORIENTED_EDGE('',*,*,#536,.F.);
#606 = ORIENTED_EDGE('',*,*,#607,.T.);
#607 = EDGE_CURVE('',#537,#537,#608,.T.);
#608 = SURFACE_CURVE('',#609,(#614,#621),.PCURVE_S1.);
#609 = CIRCLE('',#610,1.5);
#610 = AXIS2_PLACEMENT_3D('',#611,#612,#613);
#611 = CARTESIAN_POINT('',(45.613352847087,212.77529387937,
    50.196734513627));
#612 = DIRECTION('',(0.,0.,1.));
#613 = DIRECTION('',(-1.,0.,0.));
#614 = PCURVE('',#358,#615);
#615 = DEFINITIONAL_REPRESENTATION('',(#616),#620);
#616 = LINE('',#617,#618);
#617 = CARTESIAN_POINT('',(6.28318530718,2.));
#618 = VECTOR('',#619,1.);
#619 = DIRECTION('',(-1.,0.));
#620 = ( GEOMETRIC_REPRESENTATION_CONTEXT(2) 
PARAMETRIC_REPRESENTATION_CONTEXT() REPRESENTATION_CONTEXT('2D SPACE',''
  ) );
#621 = PCURVE('',#622,#627);
#622 = PLANE('',#623);
#623 = AXIS2_PLACEMENT_3D('',#624,#625,#626);
#624 = CARTESIAN_POINT('',(45.613352847087,206.26976703767,
    50.196734513627));
#625 = DIRECTION('',(-9.966702304196E-15,-1.021607975682E-14,-1.));
#626 = DIRECTION('',(1.,1.018746794083E-22,-9.966702304196E-15));
#627 = DEFINITIONAL_REPRESENTATION('',(#628),#636);
#628 = ( BOUNDED_CURVE() B_SPLINE_CURVE(2,(#629,#630,#631,#632,#633,#634
,#635),.UNSPECIFIED.,.T.,.F.) B_SPLINE_CURVE_WITH_KNOTS((1,2,2,2,2,1),(
    -2.094395102393,0.,2.094395102393,4.188790204786,6.28318530718,
8.377580409573),.UNSPECIFIED.) CURVE() GEOMETRIC_REPRESENTATION_ITEM() 
RATIONAL_B_SPLINE_CURVE((1.,0.5,1.,0.5,1.,0.5,1.)) REPRESENTATION_ITEM(
  '') );
#629 = CARTESIAN_POINT('',(-1.500000000001,-6.505526841702));
#630 = CARTESIAN_POINT('',(-1.500000000001,-3.907450630349));
#631 = CARTESIAN_POINT('',(0.749999999999,-5.206488736025));
#632 = CARTESIAN_POINT('',(2.999999999999,-6.505526841702));
#633 = CARTESIAN_POINT('',(0.749999999999,-7.804564947379));
#634 = CARTESIAN_POINT('',(-1.500000000001,-9.103603053055));
#635 = CARTESIAN_POINT('',(-1.500000000001,-6.505526841702));
#636 = ( GEOMETRIC_REPRESENTATION_CONTEXT(2) 
PARAMETRIC_REPRESENTATION_CONTEXT() REPRESENTATION_CONTEXT('2D SPACE',''
  ) );
#637 = ADVANCED_FACE('',(#638),#267,.T.);
#638 = FACE_BOUND('',#639,.T.);
#639 = EDGE_LOOP('',(#640,#641,#664,#687,#715));
#640 = ORIENTED_EDGE('',*,*,#251,.F.);
#641 = ORIENTED_EDGE('',*,*,#642,.F.);
#642 = EDGE_CURVE('',#643,#228,#645,.T.);
#643 = VERTEX_POINT('',#644);
#644 = CARTESIAN_POINT('',(48.613352847087,210.26976703767,
    50.196734513627));
#645 = SURFACE_CURVE('',#646,(#650,#657),.PCURVE_S1.);
#646 = LINE('',#647,#648);
#647 = CARTESIAN_POINT('',(48.613352847087,210.26976703767,
    52.196734513627));
#648 = VECTOR('',#649,1.);
#649 = DIRECTION('',(8.759319517087E-15,1.7763568394E-14,1.));
#650 = PCURVE('',#267,#651);
#651 = DEFINITIONAL_REPRESENTATION('',(#652),#656);
#652 = LINE('',#653,#654);
#653 = CARTESIAN_POINT('',(4.999999999999,9.947598300641E-14));
#654 = VECTOR('',#655,1.);
#655 = DIRECTION('',(-1.7763568394E-14,-1.));
#656 = ( GEOMETRIC_REPRESENTATION_CONTEXT(2) 
PARAMETRIC_REPRESENTATION_CONTEXT() REPRESENTATION_CONTEXT('2D SPACE',''
  ) );
#657 = PCURVE('',#163,#658);
#658 = DEFINITIONAL_REPRESENTATION('',(#659),#663);
#659 = LINE('',#660,#661);
#660 = CARTESIAN_POINT('',(-0.927295218002,9.947598300641E-14));
#661 = VECTOR('',#662,1.);
#662 = DIRECTION('',(1.339255068469E-15,-1.));
#663 = ( GEOMETRIC_REPRESENTATION_CONTEXT(2) 
PARAMETRIC_REPRESENTATION_CONTEXT() REPRESENTATION_CONTEXT('2D SPACE',''
  ) );
#664 = ORIENTED_EDGE('',*,*,#665,.F.);
#665 = EDGE_CURVE('',#666,#643,#668,.T.);
#666 = VERTEX_POINT('',#667);
#667 = CARTESIAN_POINT('',(48.613352847087,215.26976703767,
    50.196734513627));
#668 = SURFACE_CURVE('',#669,(#673,#680),.PCURVE_S1.);
#669 = LINE('',#670,#671);
#670 = CARTESIAN_POINT('',(48.613352847087,197.26976703767,
    50.196734513627));
#671 = VECTOR('',#672,1.);
#672 = DIRECTION('',(0.,-1.,0.));
#673 = PCURVE('',#267,#674);
#674 = DEFINITIONAL_REPRESENTATION('',(#675),#679);
#675 = LINE('',#676,#677);
#676 = CARTESIAN_POINT('',(18.,2.));
#677 = VECTOR('',#678,1.);
#678 = DIRECTION('',(1.,0.));
#679 = ( GEOMETRIC_REPRESENTATION_CONTEXT(2) 
PARAMETRIC_REPRESENTATION_CONTEXT() REPRESENTATION_CONTEXT('2D SPACE',''
  ) );
#680 = PCURVE('',#622,#681);
#681 = DEFINITIONAL_REPRESENTATION('',(#682),#686);
#682 = LINE('',#683,#684);
#683 = CARTESIAN_POINT('',(2.999999999999,9.000000000001));
#684 = VECTOR('',#685,1.);
#685 = DIRECTION('',(-1.018746794083E-22,1.));
#686 = ( GEOMETRIC_REPRESENTATION_CONTEXT(2) 
PARAMETRIC_REPRESENTATION_CONTEXT() REPRESENTATION_CONTEXT('2D SPACE',''
  ) );
#687 = ORIENTED_EDGE('',*,*,#688,.F.);
#688 = EDGE_CURVE('',#689,#666,#691,.T.);
#689 = VERTEX_POINT('',#690);
#690 = CARTESIAN_POINT('',(48.613352847087,215.26976703767,
    52.196734513627));
#691 = SURFACE_CURVE('',#692,(#696,#703),.PCURVE_S1.);
#692 = LINE('',#693,#694);
#693 = CARTESIAN_POINT('',(48.613352847087,215.26976703767,
    52.196734513627));
#694 = VECTOR('',#695,1.);
#695 = DIRECTION('',(0.,0.,-1.));
#696 = PCURVE('',#267,#697);
#697 = DEFINITIONAL_REPRESENTATION('',(#698),#702);
#698 = LINE('',#699,#700);
#699 = CARTESIAN_POINT('',(0.,0.));
#700 = VECTOR('',#701,1.);
#701 = DIRECTION('',(0.,1.));
#702 = ( GEOMETRIC_REPRESENTATION_CONTEXT(2) 
PARAMETRIC_REPRESENTATION_CONTEXT() REPRESENTATION_CONTEXT('2D SPACE',''
  ) );
#703 = PCURVE('',#704,#709);
#704 = PLANE('',#705);
#705 = AXIS2_PLACEMENT_3D('',#706,#707,#708);
#706 = CARTESIAN_POINT('',(42.613352847087,215.26976703767,
    52.196734513627));
#707 = DIRECTION('',(5.921189464668E-15,1.,0.));
#708 = DIRECTION('',(1.,-5.921189464668E-15,0.));
#709 = DEFINITIONAL_REPRESENTATION('',(#710),#714);
#710 = LINE('',#711,#712);
#711 = CARTESIAN_POINT('',(6.,0.));
#712 = VECTOR('',#713,1.);
#713 = DIRECTION('',(0.,1.));
#714 = ( GEOMETRIC_REPRESENTATION_CONTEXT(2) 
PARAMETRIC_REPRESENTATION_CONTEXT() REPRESENTATION_CONTEXT('2D SPACE',''
  ) );
#715 = ORIENTED_EDGE('',*,*,#716,.F.);
#716 = EDGE_CURVE('',#252,#689,#717,.T.);
#717 = SURFACE_CURVE('',#718,(#722,#729),.PCURVE_S1.);
#718 = LINE('',#719,#720);
#719 = CARTESIAN_POINT('',(48.613352847087,197.26976703767,
    52.196734513627));
#720 = VECTOR('',#721,1.);
#721 = DIRECTION('',(0.,1.,0.));
#722 = PCURVE('',#267,#723);
#723 = DEFINITIONAL_REPRESENTATION('',(#724),#728);
#724 = LINE('',#725,#726);
#725 = CARTESIAN_POINT('',(18.,0.));
#726 = VECTOR('',#727,1.);
#727 = DIRECTION('',(-1.,0.));
#728 = ( GEOMETRIC_REPRESENTATION_CONTEXT(2) 
PARAMETRIC_REPRESENTATION_CONTEXT() REPRESENTATION_CONTEXT('2D SPACE',''
  ) );
#729 = PCURVE('',#297,#730);
#730 = DEFINITIONAL_REPRESENTATION('',(#731),#735);
#731 = LINE('',#732,#733);
#732 = CARTESIAN_POINT('',(2.999999999999,9.000000000001));
#733 = VECTOR('',#734,1.);
#734 = DIRECTION('',(1.018746794083E-22,-1.));
#735 = ( GEOMETRIC_REPRESENTATION_CONTEXT(2) 
PARAMETRIC_REPRESENTATION_CONTEXT() REPRESENTATION_CONTEXT('2D SPACE',''
  ) );
#736 = ADVANCED_FACE('',(#737),#163,.T.);
#737 = FACE_BOUND('',#738,.T.);
#738 = EDGE_LOOP('',(#739,#740,#763,#785,#786));
#739 = ORIENTED_EDGE('',*,*,#146,.F.);
#740 = ORIENTED_EDGE('',*,*,#741,.T.);
#741 = EDGE_CURVE('',#118,#742,#744,.T.);
#742 = VERTEX_POINT('',#743);
#743 = CARTESIAN_POINT('',(48.613352847087,202.26976703767,
    50.196734513627));
#744 = SURFACE_CURVE('',#745,(#749,#756),.PCURVE_S1.);
#745 = LINE('',#746,#747);
#746 = CARTESIAN_POINT('',(48.613352847087,202.26976703767,
    52.196734513627));
#747 = VECTOR('',#748,1.);
#748 = DIRECTION('',(-8.759319517087E-15,-1.7763568394E-14,-1.));
#749 = PCURVE('',#163,#750);
#750 = DEFINITIONAL_REPRESENTATION('',(#751),#755);
#751 = LINE('',#752,#753);
#752 = CARTESIAN_POINT('',(0.927295218002,4.263256414561E-14));
#753 = VECTOR('',#754,1.);
#754 = DIRECTION('',(-1.729871130107E-15,1.));
#755 = ( GEOMETRIC_REPRESENTATION_CONTEXT(2) 
PARAMETRIC_REPRESENTATION_CONTEXT() REPRESENTATION_CONTEXT('2D SPACE',''
  ) );
#756 = PCURVE('',#133,#757);
#757 = DEFINITIONAL_REPRESENTATION('',(#758),#762);
#758 = LINE('',#759,#760);
#759 = CARTESIAN_POINT('',(-9.947598300641E-13,-9.947598300641E-14));
#760 = VECTOR('',#761,1.);
#761 = DIRECTION('',(1.7763568394E-14,1.));
#762 = ( GEOMETRIC_REPRESENTATION_CONTEXT(2) 
PARAMETRIC_REPRESENTATION_CONTEXT() REPRESENTATION_CONTEXT('2D SPACE',''
  ) );
#763 = ORIENTED_EDGE('',*,*,#764,.F.);
#764 = EDGE_CURVE('',#643,#742,#765,.T.);
#765 = SURFACE_CURVE('',#766,(#771,#778),.PCURVE_S1.);
#766 = CIRCLE('',#767,5.);
#767 = AXIS2_PLACEMENT_3D('',#768,#769,#770);
#768 = CARTESIAN_POINT('',(45.613352847087,206.26976703767,
    50.196734513627));
#769 = DIRECTION('',(-9.966702304196E-15,-1.021607975682E-14,-1.));
#770 = DIRECTION('',(1.,1.018746794083E-22,-9.966702304196E-15));
#771 = PCURVE('',#163,#772);
#772 = DEFINITIONAL_REPRESENTATION('',(#773),#777);
#773 = LINE('',#774,#775);
#774 = CARTESIAN_POINT('',(-6.28318530718,2.));
#775 = VECTOR('',#776,1.);
#776 = DIRECTION('',(1.,3.065011970153E-14));
#777 = ( GEOMETRIC_REPRESENTATION_CONTEXT(2) 
PARAMETRIC_REPRESENTATION_CONTEXT() REPRESENTATION_CONTEXT('2D SPACE',''
  ) );
#778 = PCURVE('',#622,#779);
#779 = DEFINITIONAL_REPRESENTATION('',(#780),#784);
#780 = CIRCLE('',#781,5.);
#781 = AXIS2_PLACEMENT_2D('',#782,#783);
#782 = CARTESIAN_POINT('',(0.,0.));
#783 = DIRECTION('',(1.,5.017948907258E-39));
#784 = ( GEOMETRIC_REPRESENTATION_CONTEXT(2) 
PARAMETRIC_REPRESENTATION_CONTEXT() REPRESENTATION_CONTEXT('2D SPACE',''
  ) );
#785 = ORIENTED_EDGE('',*,*,#642,.T.);
#786 = ORIENTED_EDGE('',*,*,#227,.F.);
#787 = ADVANCED_FACE('',(#788),#133,.T.);
#788 = FACE_BOUND('',#789,.T.);
#789 = EDGE_LOOP('',(#790,#791,#814,#842,#863));
#790 = ORIENTED_EDGE('',*,*,#117,.F.);
#791 = ORIENTED_EDGE('',*,*,#792,.F.);
#792 = EDGE_CURVE('',#793,#85,#795,.T.);
#793 = VERTEX_POINT('',#794);
#794 = CARTESIAN_POINT('',(48.613352847087,197.26976703767,
    52.196734513627));
#795 = SURFACE_CURVE('',#796,(#800,#807),.PCURVE_S1.);
#796 = LINE('',#797,#798);
#797 = CARTESIAN_POINT('',(48.613352847087,197.26976703767,
    52.196734513627));
#798 = VECTOR('',#799,1.);
#799 = DIRECTION('',(0.,1.,0.));
#800 = PCURVE('',#133,#801);
#801 = DEFINITIONAL_REPRESENTATION('',(#802),#806);
#802 = LINE('',#803,#804);
#803 = CARTESIAN_POINT('',(5.,0.));
#804 = VECTOR('',#805,1.);
#805 = DIRECTION('',(-1.,0.));
#806 = ( GEOMETRIC_REPRESENTATION_CONTEXT(2) 
PARAMETRIC_REPRESENTATION_CONTEXT() REPRESENTATION_CONTEXT('2D SPACE',''
  ) );
#807 = PCURVE('',#101,#808);
#808 = DEFINITIONAL_REPRESENTATION('',(#809),#813);
#809 = LINE('',#810,#811);
#810 = CARTESIAN_POINT('',(2.999999999999,9.000000000001));
#811 = VECTOR('',#812,1.);
#812 = DIRECTION('',(1.018746794083E-22,-1.));
#813 = ( GEOMETRIC_REPRESENTATION_CONTEXT(2) 
PARAMETRIC_REPRESENTATION_CONTEXT() REPRESENTATION_CONTEXT('2D SPACE',''
  ) );
#814 = ORIENTED_EDGE('',*,*,#815,.T.);
#815 = EDGE_CURVE('',#793,#816,#818,.T.);
#816 = VERTEX_POINT('',#817);
#817 = CARTESIAN_POINT('',(48.613352847087,197.26976703767,
    50.196734513627));
#818 = SURFACE_CURVE('',#819,(#823,#830),.PCURVE_S1.);
#819 = LINE('',#820,#821);
#820 = CARTESIAN_POINT('',(48.613352847087,197.26976703767,
    52.196734513627));
#821 = VECTOR('',#822,1.);
#822 = DIRECTION('',(0.,0.,-1.));
#823 = PCURVE('',#133,#824);
#824 = DEFINITIONAL_REPRESENTATION('',(#825),#829);
#825 = LINE('',#826,#827);
#826 = CARTESIAN_POINT('',(5.,0.));
#827 = VECTOR('',#828,1.);
#828 = DIRECTION('',(0.,1.));
#829 = ( GEOMETRIC_REPRESENTATION_CONTEXT(2) 
PARAMETRIC_REPRESENTATION_CONTEXT() REPRESENTATION_CONTEXT('2D SPACE',''
  ) );
#830 = PCURVE('',#831,#836);
#831 = PLANE('',#832);
#832 = AXIS2_PLACEMENT_3D('',#833,#834,#835);
#833 = CARTESIAN_POINT('',(48.613352847087,197.26976703767,
    52.196734513627));
#834 = DIRECTION('',(5.921189464668E-15,-1.,0.));
#835 = DIRECTION('',(-1.,-5.921189464668E-15,0.));
#836 = DEFINITIONAL_REPRESENTATION('',(#837),#841);
#837 = LINE('',#838,#839);
#838 = CARTESIAN_POINT('',(0.,0.));
#839 = VECTOR('',#840,1.);
#840 = DIRECTION('',(-0.,1.));
#841 = ( GEOMETRIC_REPRESENTATION_CONTEXT(2) 
PARAMETRIC_REPRESENTATION_CONTEXT() REPRESENTATION_CONTEXT('2D SPACE',''
  ) );
#842 = ORIENTED_EDGE('',*,*,#843,.F.);
#843 = EDGE_CURVE('',#742,#816,#844,.T.);
#844 = SURFACE_CURVE('',#845,(#849,#856),.PCURVE_S1.);
#845 = LINE('',#846,#847);
#846 = CARTESIAN_POINT('',(48.613352847087,197.26976703767,
    50.196734513627));
#847 = VECTOR('',#848,1.);
#848 = DIRECTION('',(0.,-1.,0.));
#849 = PCURVE('',#133,#850);
#850 = DEFINITIONAL_REPRESENTATION('',(#851),#855);
#851 = LINE('',#852,#853);
#852 = CARTESIAN_POINT('',(5.,2.));
#853 = VECTOR('',#854,1.);
#854 = DIRECTION('',(1.,0.));
#855 = ( GEOMETRIC_REPRESENTATION_CONTEXT(2) 
PARAMETRIC_REPRESENTATION_CONTEXT() REPRESENTATION_CONTEXT('2D SPACE',''
  ) );
#856 = PCURVE('',#622,#857);
#857 = DEFINITIONAL_REPRESENTATION('',(#858),#862);
#858 = LINE('',#859,#860);
#859 = CARTESIAN_POINT('',(2.999999999999,9.000000000001));
#860 = VECTOR('',#861,1.);
#861 = DIRECTION('',(-1.018746794083E-22,1.));
#862 = ( GEOMETRIC_REPRESENTATION_CONTEXT(2) 
PARAMETRIC_REPRESENTATION_CONTEXT() REPRESENTATION_CONTEXT('2D SPACE',''
  ) );
#863 = ORIENTED_EDGE('',*,*,#741,.F.);
#864 = ADVANCED_FACE('',(#865),#101,.F.);
#865 = FACE_BOUND('',#866,.T.);
#866 = EDGE_LOOP('',(#867,#868,#891,#912,#913,#914,#938));
#867 = ORIENTED_EDGE('',*,*,#507,.F.);
#868 = ORIENTED_EDGE('',*,*,#869,.T.);
#869 = EDGE_CURVE('',#479,#870,#872,.T.);
#870 = VERTEX_POINT('',#871);
#871 = CARTESIAN_POINT('',(42.613352847087,197.26976703767,
    52.196734513627));
#872 = SURFACE_CURVE('',#873,(#877,#884),.PCURVE_S1.);
#873 = LINE('',#874,#875);
#874 = CARTESIAN_POINT('',(42.613352847087,215.26976703767,
    52.196734513627));
#875 = VECTOR('',#876,1.);
#876 = DIRECTION('',(0.,-1.,0.));
#877 = PCURVE('',#101,#878);
#878 = DEFINITIONAL_REPRESENTATION('',(#879),#883);
#879 = LINE('',#880,#881);
#880 = CARTESIAN_POINT('',(-3.000000000001,-8.999999999999));
#881 = VECTOR('',#882,1.);
#882 = DIRECTION('',(-1.018746794083E-22,1.));
#883 = ( GEOMETRIC_REPRESENTATION_CONTEXT(2) 
PARAMETRIC_REPRESENTATION_CONTEXT() REPRESENTATION_CONTEXT('2D SPACE',''
  ) );
#884 = PCURVE('',#494,#885);
#885 = DEFINITIONAL_REPRESENTATION('',(#886),#890);
#886 = LINE('',#887,#888);
#887 = CARTESIAN_POINT('',(18.,0.));
#888 = VECTOR('',#889,1.);
#889 = DIRECTION('',(-1.,0.));
#890 = ( GEOMETRIC_REPRESENTATION_CONTEXT(2) 
PARAMETRIC_REPRESENTATION_CONTEXT() REPRESENTATION_CONTEXT('2D SPACE',''
  ) );
#891 = ORIENTED_EDGE('',*,*,#892,.T.);
#892 = EDGE_CURVE('',#870,#793,#893,.T.);
#893 = SURFACE_CURVE('',#894,(#898,#905),.PCURVE_S1.);
#894 = LINE('',#895,#896);
#895 = CARTESIAN_POINT('',(42.613352847087,197.26976703767,
    52.196734513627));
#896 = VECTOR('',#897,1.);
#897 = DIRECTION('',(1.,5.921189464668E-15,0.));
#898 = PCURVE('',#101,#899);
#899 = DEFINITIONAL_REPRESENTATION('',(#900),#904);
#900 = LINE('',#901,#902);
#901 = CARTESIAN_POINT('',(-3.000000000001,9.000000000001));
#902 = VECTOR('',#903,1.);
#903 = DIRECTION('',(1.,-5.921189362793E-15));
#904 = ( GEOMETRIC_REPRESENTATION_CONTEXT(2) 
PARAMETRIC_REPRESENTATION_CONTEXT() REPRESENTATION_CONTEXT('2D SPACE',''
  ) );
#905 = PCURVE('',#831,#906);
#906 = DEFINITIONAL_REPRESENTATION('',(#907),#911);
#907 = LINE('',#908,#909);
#908 = CARTESIAN_POINT('',(6.,0.));
#909 = VECTOR('',#910,1.);
#910 = DIRECTION('',(-1.,0.));
#911 = ( GEOMETRIC_REPRESENTATION_CONTEXT(2) 
PARAMETRIC_REPRESENTATION_CONTEXT() REPRESENTATION_CONTEXT('2D SPACE',''
  ) );
#912 = ORIENTED_EDGE('',*,*,#792,.T.);
#913 = ORIENTED_EDGE('',*,*,#84,.F.);
#914 = ORIENTED_EDGE('',*,*,#915,.T.);
#915 = EDGE_CURVE('',#24,#916,#918,.T.);
#916 = VERTEX_POINT('',#917);
#917 = CARTESIAN_POINT('',(47.113352847087,199.75656837616,
    52.196734513627));
#918 = SURFACE_CURVE('',#919,(#924,#931),.PCURVE_S1.);
#919 = CIRCLE('',#920,1.5);
#920 = AXIS2_PLACEMENT_3D('',#921,#922,#923);
#921 = CARTESIAN_POINT('',(45.613352847087,199.75656837616,
    52.196734513627));
#922 = DIRECTION('',(0.,0.,-1.));
#923 = DIRECTION('',(-1.,0.,0.));
#924 = PCURVE('',#101,#925);
#925 = DEFINITIONAL_REPRESENTATION('',(#926),#930);
#926 = CIRCLE('',#927,1.5);
#927 = AXIS2_PLACEMENT_2D('',#928,#929);
#928 = CARTESIAN_POINT('',(-5.96855898702E-13,6.513198661515));
#929 = DIRECTION('',(-1.,-1.018747812289E-22));
#930 = ( GEOMETRIC_REPRESENTATION_CONTEXT(2) 
PARAMETRIC_REPRESENTATION_CONTEXT() REPRESENTATION_CONTEXT('2D SPACE',''
  ) );
#931 = PCURVE('',#73,#932);
#932 = DEFINITIONAL_REPRESENTATION('',(#933),#937);
#933 = LINE('',#934,#935);
#934 = CARTESIAN_POINT('',(0.,0.));
#935 = VECTOR('',#936,1.);
#936 = DIRECTION('',(1.,0.));
#937 = ( GEOMETRIC_REPRESENTATION_CONTEXT(2) 
PARAMETRIC_REPRESENTATION_CONTEXT() REPRESENTATION_CONTEXT('2D SPACE',''
  ) );
#938 = ORIENTED_EDGE('',*,*,#939,.T.);
#939 = EDGE_CURVE('',#916,#22,#940,.T.);
#940 = SURFACE_CURVE('',#941,(#946,#953),.PCURVE_S1.);
#941 = CIRCLE('',#942,1.5);
#942 = AXIS2_PLACEMENT_3D('',#943,#944,#945);
#943 = CARTESIAN_POINT('',(45.613352847087,199.75656837616,
    52.196734513627));
#944 = DIRECTION('',(0.,0.,-1.));
#945 = DIRECTION('',(-1.,0.,0.));
#946 = PCURVE('',#101,#947);
#947 = DEFINITIONAL_REPRESENTATION('',(#948),#952);
#948 = CIRCLE('',#949,1.5);
#949 = AXIS2_PLACEMENT_2D('',#950,#951);
#950 = CARTESIAN_POINT('',(-5.96855898702E-13,6.513198661515));
#951 = DIRECTION('',(-1.,-1.018747812289E-22));
#952 = ( GEOMETRIC_REPRESENTATION_CONTEXT(2) 
PARAMETRIC_REPRESENTATION_CONTEXT() REPRESENTATION_CONTEXT('2D SPACE',''
  ) );
#953 = PCURVE('',#73,#954);
#954 = DEFINITIONAL_REPRESENTATION('',(#955),#959);
#955 = LINE('',#956,#957);
#956 = CARTESIAN_POINT('',(-6.28318530718,0.));
#957 = VECTOR('',#958,1.);
#958 = DIRECTION('',(1.,0.));
#959 = ( GEOMETRIC_REPRESENTATION_CONTEXT(2) 
PARAMETRIC_REPRESENTATION_CONTEXT() REPRESENTATION_CONTEXT('2D SPACE',''
  ) );
#960 = ADVANCED_FACE('',(#961),#214,.F.);
#961 = FACE_BOUND('',#962,.F.);
#962 = EDGE_LOOP('',(#963,#986,#987,#988));
#963 = ORIENTED_EDGE('',*,*,#964,.T.);
#964 = EDGE_CURVE('',#965,#176,#967,.T.);
#965 = VERTEX_POINT('',#966);
#966 = CARTESIAN_POINT('',(47.863352847084,206.26976703767,
    44.196734513627));
#967 = SEAM_CURVE('',#968,(#972,#979),.PCURVE_S1.);
#968 = LINE('',#969,#970);
#969 = CARTESIAN_POINT('',(47.863352847084,206.26976703767,
    52.196734513627));
#970 = VECTOR('',#971,1.);
#971 = DIRECTION('',(0.,0.,1.));
#972 = PCURVE('',#214,#973);
#973 = DEFINITIONAL_REPRESENTATION('',(#974),#978);
#974 = LINE('',#975,#976);
#975 = CARTESIAN_POINT('',(3.14159265359,0.));
#976 = VECTOR('',#977,1.);
#977 = DIRECTION('',(0.,-1.));
#978 = ( GEOMETRIC_REPRESENTATION_CONTEXT(2) 
PARAMETRIC_REPRESENTATION_CONTEXT() REPRESENTATION_CONTEXT('2D SPACE',''
  ) );
#979 = PCURVE('',#214,#980);
#980 = DEFINITIONAL_REPRESENTATION('',(#981),#985);
#981 = LINE('',#982,#983);
#982 = CARTESIAN_POINT('',(9.424777960769,0.));
#983 = VECTOR('',#984,1.);
#984 = DIRECTION('',(0.,-1.));
#985 = ( GEOMETRIC_REPRESENTATION_CONTEXT(2) 
PARAMETRIC_REPRESENTATION_CONTEXT() REPRESENTATION_CONTEXT('2D SPACE',''
  ) );
#986 = ORIENTED_EDGE('',*,*,#199,.T.);
#987 = ORIENTED_EDGE('',*,*,#964,.F.);
#988 = ORIENTED_EDGE('',*,*,#989,.T.);
#989 = EDGE_CURVE('',#965,#965,#990,.T.);
#990 = SURFACE_CURVE('',#991,(#996,#1003),.PCURVE_S1.);
#991 = CIRCLE('',#992,2.25);
#992 = AXIS2_PLACEMENT_3D('',#993,#994,#995);
#993 = CARTESIAN_POINT('',(45.613352847084,206.26976703767,
    44.196734513627));
#994 = DIRECTION('',(0.,0.,1.));
#995 = DIRECTION('',(-1.,0.,0.));
#996 = PCURVE('',#214,#997);
#997 = DEFINITIONAL_REPRESENTATION('',(#998),#1002);
#998 = LINE('',#999,#1000);
#999 = CARTESIAN_POINT('',(12.566370614359,8.));
#1000 = VECTOR('',#1001,1.);
#1001 = DIRECTION('',(-1.,0.));
#1002 = ( GEOMETRIC_REPRESENTATION_CONTEXT(2) 
PARAMETRIC_REPRESENTATION_CONTEXT() REPRESENTATION_CONTEXT('2D SPACE',''
  ) );
#1003 = PCURVE('',#1004,#1009);
#1004 = PLANE('',#1005);
#1005 = AXIS2_PLACEMENT_3D('',#1006,#1007,#1008);
#1006 = CARTESIAN_POINT('',(45.613352847084,206.26976703767,
    44.196734513627));
#1007 = DIRECTION('',(0.,0.,1.));
#1008 = DIRECTION('',(-1.,0.,0.));
#1009 = DEFINITIONAL_REPRESENTATION('',(#1010),#1014);
#1010 = CIRCLE('',#1011,2.25);
#1011 = AXIS2_PLACEMENT_2D('',#1012,#1013);
#1012 = CARTESIAN_POINT('',(0.,0.));
#1013 = DIRECTION('',(1.,0.));
#1014 = ( GEOMETRIC_REPRESENTATION_CONTEXT(2) 
PARAMETRIC_REPRESENTATION_CONTEXT() REPRESENTATION_CONTEXT('2D SPACE',''
  ) );
#1015 = ADVANCED_FACE('',(#1016),#297,.F.);
#1016 = FACE_BOUND('',#1017,.T.);
#1017 = EDGE_LOOP('',(#1018,#1019,#1020,#1021,#1022,#1023,#1046));
#1018 = ORIENTED_EDGE('',*,*,#392,.F.);
#1019 = ORIENTED_EDGE('',*,*,#584,.T.);
#1020 = ORIENTED_EDGE('',*,*,#561,.T.);
#1021 = ORIENTED_EDGE('',*,*,#280,.F.);
#1022 = ORIENTED_EDGE('',*,*,#716,.T.);
#1023 = ORIENTED_EDGE('',*,*,#1024,.T.);
#1024 = EDGE_CURVE('',#689,#1025,#1027,.T.);
#1025 = VERTEX_POINT('',#1026);
#1026 = CARTESIAN_POINT('',(42.613352847087,215.26976703767,
    52.196734513627));
#1027 = SURFACE_CURVE('',#1028,(#1032,#1039),.PCURVE_S1.);
#1028 = LINE('',#1029,#1030);
#1029 = CARTESIAN_POINT('',(48.613352847087,215.26976703767,
    52.196734513627));
#1030 = VECTOR('',#1031,1.);
#1031 = DIRECTION('',(-1.,5.921189464668E-15,0.));
#1032 = PCURVE('',#297,#1033);
#1033 = DEFINITIONAL_REPRESENTATION('',(#1034),#1038);
#1034 = LINE('',#1035,#1036);
#1035 = CARTESIAN_POINT('',(2.999999999999,-8.999999999999));
#1036 = VECTOR('',#1037,1.);
#1037 = DIRECTION('',(-1.,-5.921189566542E-15));
#1038 = ( GEOMETRIC_REPRESENTATION_CONTEXT(2) 
PARAMETRIC_REPRESENTATION_CONTEXT() REPRESENTATION_CONTEXT('2D SPACE',''
  ) );
#1039 = PCURVE('',#704,#1040);
#1040 = DEFINITIONAL_REPRESENTATION('',(#1041),#1045);
#1041 = LINE('',#1042,#1043);
#1042 = CARTESIAN_POINT('',(6.,0.));
#1043 = VECTOR('',#1044,1.);
#1044 = DIRECTION('',(-1.,0.));
#1045 = ( GEOMETRIC_REPRESENTATION_CONTEXT(2) 
PARAMETRIC_REPRESENTATION_CONTEXT() REPRESENTATION_CONTEXT('2D SPACE',''
  ) );
#1046 = ORIENTED_EDGE('',*,*,#1047,.T.);
#1047 = EDGE_CURVE('',#1025,#393,#1048,.T.);
#1048 = SURFACE_CURVE('',#1049,(#1053,#1060),.PCURVE_S1.);
#1049 = LINE('',#1050,#1051);
#1050 = CARTESIAN_POINT('',(42.613352847087,215.26976703767,
    52.196734513627));
#1051 = VECTOR('',#1052,1.);
#1052 = DIRECTION('',(0.,-1.,0.));
#1053 = PCURVE('',#297,#1054);
#1054 = DEFINITIONAL_REPRESENTATION('',(#1055),#1059);
#1055 = LINE('',#1056,#1057);
#1056 = CARTESIAN_POINT('',(-3.000000000001,-8.999999999999));
#1057 = VECTOR('',#1058,1.);
#1058 = DIRECTION('',(-1.018746794083E-22,1.));
#1059 = ( GEOMETRIC_REPRESENTATION_CONTEXT(2) 
PARAMETRIC_REPRESENTATION_CONTEXT() REPRESENTATION_CONTEXT('2D SPACE',''
  ) );
#1060 = PCURVE('',#436,#1061);
#1061 = DEFINITIONAL_REPRESENTATION('',(#1062),#1066);
#1062 = LINE('',#1063,#1064);
#1063 = CARTESIAN_POINT('',(5.,0.));
#1064 = VECTOR('',#1065,1.);
#1065 = DIRECTION('',(-1.,0.));
#1066 = ( GEOMETRIC_REPRESENTATION_CONTEXT(2) 
PARAMETRIC_REPRESENTATION_CONTEXT() REPRESENTATION_CONTEXT('2D SPACE',''
  ) );
#1067 = ADVANCED_FACE('',(#1068,#1103),#1004,.F.);
#1068 = FACE_BOUND('',#1069,.T.);
#1069 = EDGE_LOOP('',(#1070));
#1070 = ORIENTED_EDGE('',*,*,#1071,.T.);
#1071 = EDGE_CURVE('',#1072,#1072,#1074,.T.);
#1072 = VERTEX_POINT('',#1073);
#1073 = CARTESIAN_POINT('',(42.613352847084,206.26976703767,
    44.196734513627));
#1074 = SURFACE_CURVE('',#1075,(#1080,#1091),.PCURVE_S1.);
#1075 = CIRCLE('',#1076,3.);
#1076 = AXIS2_PLACEMENT_3D('',#1077,#1078,#1079);
#1077 = CARTESIAN_POINT('',(45.613352847084,206.26976703767,
    44.196734513627));
#1078 = DIRECTION('',(0.,0.,-1.));
#1079 = DIRECTION('',(1.,0.,0.));
#1080 = PCURVE('',#1004,#1081);
#1081 = DEFINITIONAL_REPRESENTATION('',(#1082),#1090);
#1082 = ( BOUNDED_CURVE() B_SPLINE_CURVE(2,(#1083,#1084,#1085,#1086,
#1087,#1088,#1089),.UNSPECIFIED.,.T.,.F.) B_SPLINE_CURVE_WITH_KNOTS((1,2
    ,2,2,2,1),(-2.094395102393,0.,2.094395102393,4.188790204786,
6.28318530718,8.377580409573),.UNSPECIFIED.) CURVE() 
GEOMETRIC_REPRESENTATION_ITEM() RATIONAL_B_SPLINE_CURVE((1.,0.5,1.,0.5,
1.,0.5,1.)) REPRESENTATION_ITEM('') );
#1083 = CARTESIAN_POINT('',(-3.,0.));
#1084 = CARTESIAN_POINT('',(-3.,5.196152422707));
#1085 = CARTESIAN_POINT('',(1.5,2.598076211353));
#1086 = CARTESIAN_POINT('',(6.,7.347880794884E-16));
#1087 = CARTESIAN_POINT('',(1.5,-2.598076211353));
#1088 = CARTESIAN_POINT('',(-3.,-5.196152422707));
#1089 = CARTESIAN_POINT('',(-3.,0.));
#1090 = ( GEOMETRIC_REPRESENTATION_CONTEXT(2) 
PARAMETRIC_REPRESENTATION_CONTEXT() REPRESENTATION_CONTEXT('2D SPACE',''
  ) );
#1091 = PCURVE('',#1092,#1097);
#1092 = CYLINDRICAL_SURFACE('',#1093,3.);
#1093 = AXIS2_PLACEMENT_3D('',#1094,#1095,#1096);
#1094 = CARTESIAN_POINT('',(45.613352847088,206.26976703767,
    50.196734513627));
#1095 = DIRECTION('',(1.224646799147E-16,0.,-1.));
#1096 = DIRECTION('',(1.,0.,1.224646799147E-16));
#1097 = DEFINITIONAL_REPRESENTATION('',(#1098),#1102);
#1098 = LINE('',#1099,#1100);
#1099 = CARTESIAN_POINT('',(-6.283185307181,6.));
#1100 = VECTOR('',#1101,1.);
#1101 = DIRECTION('',(1.,0.));
#1102 = ( GEOMETRIC_REPRESENTATION_CONTEXT(2) 
PARAMETRIC_REPRESENTATION_CONTEXT() REPRESENTATION_CONTEXT('2D SPACE',''
  ) );
#1103 = FACE_BOUND('',#1104,.T.);
#1104 = EDGE_LOOP('',(#1105));
#1105 = ORIENTED_EDGE('',*,*,#989,.T.);
#1106 = ADVANCED_FACE('',(#1107),#73,.F.);
#1107 = FACE_BOUND('',#1108,.F.);
#1108 = EDGE_LOOP('',(#1109,#1132,#1133,#1134,#1135,#1136));
#1109 = ORIENTED_EDGE('',*,*,#1110,.T.);
#1110 = EDGE_CURVE('',#1111,#916,#1113,.T.);
#1111 = VERTEX_POINT('',#1112);
#1112 = CARTESIAN_POINT('',(47.113352847087,199.75656837616,
    50.196734513627));
#1113 = SEAM_CURVE('',#1114,(#1118,#1125),.PCURVE_S1.);
#1114 = LINE('',#1115,#1116);
#1115 = CARTESIAN_POINT('',(47.113352847087,199.75656837616,
    52.196734513627));
#1116 = VECTOR('',#1117,1.);
#1117 = DIRECTION('',(0.,0.,1.));
#1118 = PCURVE('',#73,#1119);
#1119 = DEFINITIONAL_REPRESENTATION('',(#1120),#1124);
#1120 = LINE('',#1121,#1122);
#1121 = CARTESIAN_POINT('',(-3.14159265359,0.));
#1122 = VECTOR('',#1123,1.);
#1123 = DIRECTION('',(0.,-1.));
#1124 = ( GEOMETRIC_REPRESENTATION_CONTEXT(2) 
PARAMETRIC_REPRESENTATION_CONTEXT() REPRESENTATION_CONTEXT('2D SPACE',''
  ) );
#1125 = PCURVE('',#73,#1126);
#1126 = DEFINITIONAL_REPRESENTATION('',(#1127),#1131);
#1127 = LINE('',#1128,#1129);
#1128 = CARTESIAN_POINT('',(3.14159265359,0.));
#1129 = VECTOR('',#1130,1.);
#1130 = DIRECTION('',(0.,-1.));
#1131 = ( GEOMETRIC_REPRESENTATION_CONTEXT(2) 
PARAMETRIC_REPRESENTATION_CONTEXT() REPRESENTATION_CONTEXT('2D SPACE',''
  ) );
#1132 = ORIENTED_EDGE('',*,*,#939,.T.);
#1133 = ORIENTED_EDGE('',*,*,#21,.T.);
#1134 = ORIENTED_EDGE('',*,*,#915,.T.);
#1135 = ORIENTED_EDGE('',*,*,#1110,.F.);
#1136 = ORIENTED_EDGE('',*,*,#1137,.T.);
#1137 = EDGE_CURVE('',#1111,#1111,#1138,.T.);
#1138 = SURFACE_CURVE('',#1139,(#1144,#1151),.PCURVE_S1.);
#1139 = CIRCLE('',#1140,1.5);
#1140 = AXIS2_PLACEMENT_3D('',#1141,#1142,#1143);
#1141 = CARTESIAN_POINT('',(45.613352847087,199.75656837616,
    50.196734513627));
#1142 = DIRECTION('',(0.,0.,1.));
#1143 = DIRECTION('',(-1.,0.,0.));
#1144 = PCURVE('',#73,#1145);
#1145 = DEFINITIONAL_REPRESENTATION('',(#1146),#1150);
#1146 = LINE('',#1147,#1148);
#1147 = CARTESIAN_POINT('',(6.28318530718,2.));
#1148 = VECTOR('',#1149,1.);
#1149 = DIRECTION('',(-1.,0.));
#1150 = ( GEOMETRIC_REPRESENTATION_CONTEXT(2) 
PARAMETRIC_REPRESENTATION_CONTEXT() REPRESENTATION_CONTEXT('2D SPACE',''
  ) );
#1151 = PCURVE('',#622,#1152);
#1152 = DEFINITIONAL_REPRESENTATION('',(#1153),#1161);
#1153 = ( BOUNDED_CURVE() B_SPLINE_CURVE(2,(#1154,#1155,#1156,#1157,
#1158,#1159,#1160),.UNSPECIFIED.,.T.,.F.) B_SPLINE_CURVE_WITH_KNOTS((1,2
    ,2,2,2,1),(-2.094395102393,0.,2.094395102393,4.188790204786,
6.28318530718,8.377580409573),.UNSPECIFIED.) CURVE() 
GEOMETRIC_REPRESENTATION_ITEM() RATIONAL_B_SPLINE_CURVE((1.,0.5,1.,0.5,
1.,0.5,1.)) REPRESENTATION_ITEM('') );
#1154 = CARTESIAN_POINT('',(-1.500000000001,6.513198661515));
#1155 = CARTESIAN_POINT('',(-1.500000000001,9.111274872868));
#1156 = CARTESIAN_POINT('',(0.749999999999,7.812236767192));
#1157 = CARTESIAN_POINT('',(2.999999999999,6.513198661515));
#1158 = CARTESIAN_POINT('',(0.749999999999,5.214160555838));
#1159 = CARTESIAN_POINT('',(-1.500000000001,3.915122450162));
#1160 = CARTESIAN_POINT('',(-1.500000000001,6.513198661515));
#1161 = ( GEOMETRIC_REPRESENTATION_CONTEXT(2) 
PARAMETRIC_REPRESENTATION_CONTEXT() REPRESENTATION_CONTEXT('2D SPACE',''
  ) );
#1162 = ADVANCED_FACE('',(#1163),#494,.T.);
#1163 = FACE_BOUND('',#1164,.T.);
#1164 = EDGE_LOOP('',(#1165,#1166,#1189,#1212,#1233));
#1165 = ORIENTED_EDGE('',*,*,#478,.F.);
#1166 = ORIENTED_EDGE('',*,*,#1167,.F.);
#1167 = EDGE_CURVE('',#1168,#450,#1170,.T.);
#1168 = VERTEX_POINT('',#1169);
#1169 = CARTESIAN_POINT('',(42.613352847087,202.26976703767,
    50.196734513627));
#1170 = SURFACE_CURVE('',#1171,(#1175,#1182),.PCURVE_S1.);
#1171 = LINE('',#1172,#1173);
#1172 = CARTESIAN_POINT('',(42.613352847087,202.26976703767,
    52.196734513627));
#1173 = VECTOR('',#1174,1.);
#1174 = DIRECTION('',(8.759319517087E-15,1.7763568394E-14,1.));
#1175 = PCURVE('',#494,#1176);
#1176 = DEFINITIONAL_REPRESENTATION('',(#1177),#1181);
#1177 = LINE('',#1178,#1179);
#1178 = CARTESIAN_POINT('',(5.000000000001,-1.989519660128E-13));
#1179 = VECTOR('',#1180,1.);
#1180 = DIRECTION('',(1.7763568394E-14,-1.));
#1181 = ( GEOMETRIC_REPRESENTATION_CONTEXT(2) 
PARAMETRIC_REPRESENTATION_CONTEXT() REPRESENTATION_CONTEXT('2D SPACE',''
  ) );
#1182 = PCURVE('',#466,#1183);
#1183 = DEFINITIONAL_REPRESENTATION('',(#1184),#1188);
#1184 = LINE('',#1185,#1186);
#1185 = CARTESIAN_POINT('',(-0.927295218001,0.));
#1186 = VECTOR('',#1187,1.);
#1187 = DIRECTION('',(-1.785673424626E-15,-1.));
#1188 = ( GEOMETRIC_REPRESENTATION_CONTEXT(2) 
PARAMETRIC_REPRESENTATION_CONTEXT() REPRESENTATION_CONTEXT('2D SPACE',''
  ) );
#1189 = ORIENTED_EDGE('',*,*,#1190,.F.);
#1190 = EDGE_CURVE('',#1191,#1168,#1193,.T.);
#1191 = VERTEX_POINT('',#1192);
#1192 = CARTESIAN_POINT('',(42.613352847087,197.26976703767,
    50.196734513627));
#1193 = SURFACE_CURVE('',#1194,(#1198,#1205),.PCURVE_S1.);
#1194 = LINE('',#1195,#1196);
#1195 = CARTESIAN_POINT('',(42.613352847087,215.26976703767,
    50.196734513627));
#1196 = VECTOR('',#1197,1.);
#1197 = DIRECTION('',(0.,1.,0.));
#1198 = PCURVE('',#494,#1199);
#1199 = DEFINITIONAL_REPRESENTATION('',(#1200),#1204);
#1200 = LINE('',#1201,#1202);
#1201 = CARTESIAN_POINT('',(18.,2.));
#1202 = VECTOR('',#1203,1.);
#1203 = DIRECTION('',(1.,0.));
#1204 = ( GEOMETRIC_REPRESENTATION_CONTEXT(2) 
PARAMETRIC_REPRESENTATION_CONTEXT() REPRESENTATION_CONTEXT('2D SPACE',''
  ) );
#1205 = PCURVE('',#622,#1206);
#1206 = DEFINITIONAL_REPRESENTATION('',(#1207),#1211);
#1207 = LINE('',#1208,#1209);
#1208 = CARTESIAN_POINT('',(-3.000000000001,-8.999999999999));
#1209 = VECTOR('',#1210,1.);
#1210 = DIRECTION('',(1.018746794083E-22,-1.));
#1211 = ( GEOMETRIC_REPRESENTATION_CONTEXT(2) 
PARAMETRIC_REPRESENTATION_CONTEXT() REPRESENTATION_CONTEXT('2D SPACE',''
  ) );
#1212 = ORIENTED_EDGE('',*,*,#1213,.F.);
#1213 = EDGE_CURVE('',#870,#1191,#1214,.T.);
#1214 = SURFACE_CURVE('',#1215,(#1219,#1226),.PCURVE_S1.);
#1215 = LINE('',#1216,#1217);
#1216 = CARTESIAN_POINT('',(42.613352847087,197.26976703767,
    52.196734513627));
#1217 = VECTOR('',#1218,1.);
#1218 = DIRECTION('',(0.,0.,-1.));
#1219 = PCURVE('',#494,#1220);
#1220 = DEFINITIONAL_REPRESENTATION('',(#1221),#1225);
#1221 = LINE('',#1222,#1223);
#1222 = CARTESIAN_POINT('',(0.,0.));
#1223 = VECTOR('',#1224,1.);
#1224 = DIRECTION('',(0.,1.));
#1225 = ( GEOMETRIC_REPRESENTATION_CONTEXT(2) 
PARAMETRIC_REPRESENTATION_CONTEXT() REPRESENTATION_CONTEXT('2D SPACE',''
  ) );
#1226 = PCURVE('',#831,#1227);
#1227 = DEFINITIONAL_REPRESENTATION('',(#1228),#1232);
#1228 = LINE('',#1229,#1230);
#1229 = CARTESIAN_POINT('',(6.,0.));
#1230 = VECTOR('',#1231,1.);
#1231 = DIRECTION('',(-0.,1.));
#1232 = ( GEOMETRIC_REPRESENTATION_CONTEXT(2) 
PARAMETRIC_REPRESENTATION_CONTEXT() REPRESENTATION_CONTEXT('2D SPACE',''
  ) );
#1233 = ORIENTED_EDGE('',*,*,#869,.F.);
#1234 = ADVANCED_FACE('',(#1235),#831,.T.);
#1235 = FACE_BOUND('',#1236,.T.);
#1236 = EDGE_LOOP('',(#1237,#1238,#1239,#1260));
#1237 = ORIENTED_EDGE('',*,*,#892,.F.);
#1238 = ORIENTED_EDGE('',*,*,#1213,.T.);
#1239 = ORIENTED_EDGE('',*,*,#1240,.F.);
#1240 = EDGE_CURVE('',#816,#1191,#1241,.T.);
#1241 = SURFACE_CURVE('',#1242,(#1246,#1253),.PCURVE_S1.);
#1242 = LINE('',#1243,#1244);
#1243 = CARTESIAN_POINT('',(42.613352847087,197.26976703767,
    50.196734513627));
#1244 = VECTOR('',#1245,1.);
#1245 = DIRECTION('',(-1.,-5.921189464668E-15,0.));
#1246 = PCURVE('',#831,#1247);
#1247 = DEFINITIONAL_REPRESENTATION('',(#1248),#1252);
#1248 = LINE('',#1249,#1250);
#1249 = CARTESIAN_POINT('',(6.,2.));
#1250 = VECTOR('',#1251,1.);
#1251 = DIRECTION('',(1.,0.));
#1252 = ( GEOMETRIC_REPRESENTATION_CONTEXT(2) 
PARAMETRIC_REPRESENTATION_CONTEXT() REPRESENTATION_CONTEXT('2D SPACE',''
  ) );
#1253 = PCURVE('',#622,#1254);
#1254 = DEFINITIONAL_REPRESENTATION('',(#1255),#1259);
#1255 = LINE('',#1256,#1257);
#1256 = CARTESIAN_POINT('',(-3.000000000001,9.000000000001));
#1257 = VECTOR('',#1258,1.);
#1258 = DIRECTION('',(-1.,5.921189362793E-15));
#1259 = ( GEOMETRIC_REPRESENTATION_CONTEXT(2) 
PARAMETRIC_REPRESENTATION_CONTEXT() REPRESENTATION_CONTEXT('2D SPACE',''
  ) );
#1260 = ORIENTED_EDGE('',*,*,#815,.F.);
#1261 = ADVANCED_FACE('',(#1262),#466,.T.);
#1262 = FACE_BOUND('',#1263,.T.);
#1263 = EDGE_LOOP('',(#1264,#1265,#1288,#1310));
#1264 = ORIENTED_EDGE('',*,*,#449,.F.);
#1265 = ORIENTED_EDGE('',*,*,#1266,.T.);
#1266 = EDGE_CURVE('',#421,#1267,#1269,.T.);
#1267 = VERTEX_POINT('',#1268);
#1268 = CARTESIAN_POINT('',(42.613352847087,210.26976703767,
    50.196734513627));
#1269 = SURFACE_CURVE('',#1270,(#1274,#1281),.PCURVE_S1.);
#1270 = LINE('',#1271,#1272);
#1271 = CARTESIAN_POINT('',(42.613352847087,210.26976703767,
    52.196734513627));
#1272 = VECTOR('',#1273,1.);
#1273 = DIRECTION('',(-8.759319517087E-15,-1.7763568394E-14,-1.));
#1274 = PCURVE('',#466,#1275);
#1275 = DEFINITIONAL_REPRESENTATION('',(#1276),#1280);
#1276 = LINE('',#1277,#1278);
#1277 = CARTESIAN_POINT('',(0.927295218002,5.684341886081E-14));
#1278 = VECTOR('',#1279,1.);
#1279 = DIRECTION('',(1.729871130107E-15,1.));
#1280 = ( GEOMETRIC_REPRESENTATION_CONTEXT(2) 
PARAMETRIC_REPRESENTATION_CONTEXT() REPRESENTATION_CONTEXT('2D SPACE',''
  ) );
#1281 = PCURVE('',#436,#1282);
#1282 = DEFINITIONAL_REPRESENTATION('',(#1283),#1287);
#1283 = LINE('',#1284,#1285);
#1284 = CARTESIAN_POINT('',(9.947598300641E-13,0.));
#1285 = VECTOR('',#1286,1.);
#1286 = DIRECTION('',(-1.7763568394E-14,1.));
#1287 = ( GEOMETRIC_REPRESENTATION_CONTEXT(2) 
PARAMETRIC_REPRESENTATION_CONTEXT() REPRESENTATION_CONTEXT('2D SPACE',''
  ) );
#1288 = ORIENTED_EDGE('',*,*,#1289,.F.);
#1289 = EDGE_CURVE('',#1168,#1267,#1290,.T.);
#1290 = SURFACE_CURVE('',#1291,(#1296,#1303),.PCURVE_S1.);
#1291 = CIRCLE('',#1292,5.);
#1292 = AXIS2_PLACEMENT_3D('',#1293,#1294,#1295);
#1293 = CARTESIAN_POINT('',(45.613352847087,206.26976703767,
    50.196734513627));
#1294 = DIRECTION('',(-9.966702304196E-15,-1.021607975682E-14,-1.));
#1295 = DIRECTION('',(1.,1.018746794083E-22,-9.966702304196E-15));
#1296 = PCURVE('',#466,#1297);
#1297 = DEFINITIONAL_REPRESENTATION('',(#1298),#1302);
#1298 = LINE('',#1299,#1300);
#1299 = CARTESIAN_POINT('',(-3.14159265359,2.));
#1300 = VECTOR('',#1301,1.);
#1301 = DIRECTION('',(1.,-3.065011970153E-14));
#1302 = ( GEOMETRIC_REPRESENTATION_CONTEXT(2) 
PARAMETRIC_REPRESENTATION_CONTEXT() REPRESENTATION_CONTEXT('2D SPACE',''
  ) );
#1303 = PCURVE('',#622,#1304);
#1304 = DEFINITIONAL_REPRESENTATION('',(#1305),#1309);
#1305 = CIRCLE('',#1306,5.);
#1306 = AXIS2_PLACEMENT_2D('',#1307,#1308);
#1307 = CARTESIAN_POINT('',(0.,0.));
#1308 = DIRECTION('',(1.,5.017948907258E-39));
#1309 = ( GEOMETRIC_REPRESENTATION_CONTEXT(2) 
PARAMETRIC_REPRESENTATION_CONTEXT() REPRESENTATION_CONTEXT('2D SPACE',''
  ) );
#1310 = ORIENTED_EDGE('',*,*,#1167,.T.);
#1311 = ADVANCED_FACE('',(#1312),#704,.T.);
#1312 = FACE_BOUND('',#1313,.T.);
#1313 = EDGE_LOOP('',(#1314,#1315,#1316,#1339));
#1314 = ORIENTED_EDGE('',*,*,#1024,.F.);
#1315 = ORIENTED_EDGE('',*,*,#688,.T.);
#1316 = ORIENTED_EDGE('',*,*,#1317,.F.);
#1317 = EDGE_CURVE('',#1318,#666,#1320,.T.);
#1318 = VERTEX_POINT('',#1319);
#1319 = CARTESIAN_POINT('',(42.613352847087,215.26976703767,
    50.196734513627));
#1320 = SURFACE_CURVE('',#1321,(#1325,#1332),.PCURVE_S1.);
#1321 = LINE('',#1322,#1323);
#1322 = CARTESIAN_POINT('',(48.613352847087,215.26976703767,
    50.196734513627));
#1323 = VECTOR('',#1324,1.);
#1324 = DIRECTION('',(1.,-5.921189464668E-15,0.));
#1325 = PCURVE('',#704,#1326);
#1326 = DEFINITIONAL_REPRESENTATION('',(#1327),#1331);
#1327 = LINE('',#1328,#1329);
#1328 = CARTESIAN_POINT('',(6.,2.));
#1329 = VECTOR('',#1330,1.);
#1330 = DIRECTION('',(1.,0.));
#1331 = ( GEOMETRIC_REPRESENTATION_CONTEXT(2) 
PARAMETRIC_REPRESENTATION_CONTEXT() REPRESENTATION_CONTEXT('2D SPACE',''
  ) );
#1332 = PCURVE('',#622,#1333);
#1333 = DEFINITIONAL_REPRESENTATION('',(#1334),#1338);
#1334 = LINE('',#1335,#1336);
#1335 = CARTESIAN_POINT('',(2.999999999999,-8.999999999999));
#1336 = VECTOR('',#1337,1.);
#1337 = DIRECTION('',(1.,5.921189566542E-15));
#1338 = ( GEOMETRIC_REPRESENTATION_CONTEXT(2) 
PARAMETRIC_REPRESENTATION_CONTEXT() REPRESENTATION_CONTEXT('2D SPACE',''
  ) );
#1339 = ORIENTED_EDGE('',*,*,#1340,.F.);
#1340 = EDGE_CURVE('',#1025,#1318,#1341,.T.);
#1341 = SURFACE_CURVE('',#1342,(#1346,#1353),.PCURVE_S1.);
#1342 = LINE('',#1343,#1344);
#1343 = CARTESIAN_POINT('',(42.613352847087,215.26976703767,
    52.196734513627));
#1344 = VECTOR('',#1345,1.);
#1345 = DIRECTION('',(0.,0.,-1.));
#1346 = PCURVE('',#704,#1347);
#1347 = DEFINITIONAL_REPRESENTATION('',(#1348),#1352);
#1348 = LINE('',#1349,#1350);
#1349 = CARTESIAN_POINT('',(0.,0.));
#1350 = VECTOR('',#1351,1.);
#1351 = DIRECTION('',(0.,1.));
#1352 = ( GEOMETRIC_REPRESENTATION_CONTEXT(2) 
PARAMETRIC_REPRESENTATION_CONTEXT() REPRESENTATION_CONTEXT('2D SPACE',''
  ) );
#1353 = PCURVE('',#436,#1354);
#1354 = DEFINITIONAL_REPRESENTATION('',(#1355),#1359);
#1355 = LINE('',#1356,#1357);
#1356 = CARTESIAN_POINT('',(5.,0.));
#1357 = VECTOR('',#1358,1.);
#1358 = DIRECTION('',(0.,1.));
#1359 = ( GEOMETRIC_REPRESENTATION_CONTEXT(2) 
PARAMETRIC_REPRESENTATION_CONTEXT() REPRESENTATION_CONTEXT('2D SPACE',''
  ) );
#1360 = ADVANCED_FACE('',(#1361),#436,.T.);
#1361 = FACE_BOUND('',#1362,.T.);
#1362 = EDGE_LOOP('',(#1363,#1364,#1365,#1366,#1387));
#1363 = ORIENTED_EDGE('',*,*,#420,.F.);
#1364 = ORIENTED_EDGE('',*,*,#1047,.F.);
#1365 = ORIENTED_EDGE('',*,*,#1340,.T.);
#1366 = ORIENTED_EDGE('',*,*,#1367,.F.);
#1367 = EDGE_CURVE('',#1267,#1318,#1368,.T.);
#1368 = SURFACE_CURVE('',#1369,(#1373,#1380),.PCURVE_S1.);
#1369 = LINE('',#1370,#1371);
#1370 = CARTESIAN_POINT('',(42.613352847087,215.26976703767,
    50.196734513627));
#1371 = VECTOR('',#1372,1.);
#1372 = DIRECTION('',(0.,1.,0.));
#1373 = PCURVE('',#436,#1374);
#1374 = DEFINITIONAL_REPRESENTATION('',(#1375),#1379);
#1375 = LINE('',#1376,#1377);
#1376 = CARTESIAN_POINT('',(5.,2.));
#1377 = VECTOR('',#1378,1.);
#1378 = DIRECTION('',(1.,0.));
#1379 = ( GEOMETRIC_REPRESENTATION_CONTEXT(2) 
PARAMETRIC_REPRESENTATION_CONTEXT() REPRESENTATION_CONTEXT('2D SPACE',''
  ) );
#1380 = PCURVE('',#622,#1381);
#1381 = DEFINITIONAL_REPRESENTATION('',(#1382),#1386);
#1382 = LINE('',#1383,#1384);
#1383 = CARTESIAN_POINT('',(-3.000000000001,-8.999999999999));
#1384 = VECTOR('',#1385,1.);
#1385 = DIRECTION('',(1.018746794083E-22,-1.));
#1386 = ( GEOMETRIC_REPRESENTATION_CONTEXT(2) 
PARAMETRIC_REPRESENTATION_CONTEXT() REPRESENTATION_CONTEXT('2D SPACE',''
  ) );
#1387 = ORIENTED_EDGE('',*,*,#1266,.F.);
#1388 = ADVANCED_FACE('',(#1389),#1092,.T.);
#1389 = FACE_BOUND('',#1390,.T.);
#1390 = EDGE_LOOP('',(#1391,#1392,#1415,#1441));
#1391 = ORIENTED_EDGE('',*,*,#1071,.F.);
#1392 = ORIENTED_EDGE('',*,*,#1393,.T.);
#1393 = EDGE_CURVE('',#1072,#1394,#1396,.T.);
#1394 = VERTEX_POINT('',#1395);
#1395 = CARTESIAN_POINT('',(42.613352847088,206.26976703767,
    50.196734513627));
#1396 = SEAM_CURVE('',#1397,(#1401,#1408),.PCURVE_S1.);
#1397 = LINE('',#1398,#1399);
#1398 = CARTESIAN_POINT('',(42.613352847088,206.26976703767,
    50.196734513627));
#1399 = VECTOR('',#1400,1.);
#1400 = DIRECTION('',(-1.224646799147E-16,0.,1.));
#1401 = PCURVE('',#1092,#1402);
#1402 = DEFINITIONAL_REPRESENTATION('',(#1403),#1407);
#1403 = LINE('',#1404,#1405);
#1404 = CARTESIAN_POINT('',(-3.14159265359,0.));
#1405 = VECTOR('',#1406,1.);
#1406 = DIRECTION('',(0.,-1.));
#1407 = ( GEOMETRIC_REPRESENTATION_CONTEXT(2) 
PARAMETRIC_REPRESENTATION_CONTEXT() REPRESENTATION_CONTEXT('2D SPACE',''
  ) );
#1408 = PCURVE('',#1092,#1409);
#1409 = DEFINITIONAL_REPRESENTATION('',(#1410),#1414);
#1410 = LINE('',#1411,#1412);
#1411 = CARTESIAN_POINT('',(3.14159265359,0.));
#1412 = VECTOR('',#1413,1.);
#1413 = DIRECTION('',(0.,-1.));
#1414 = ( GEOMETRIC_REPRESENTATION_CONTEXT(2) 
PARAMETRIC_REPRESENTATION_CONTEXT() REPRESENTATION_CONTEXT('2D SPACE',''
  ) );
#1415 = ORIENTED_EDGE('',*,*,#1416,.F.);
#1416 = EDGE_CURVE('',#1394,#1394,#1417,.T.);
#1417 = SURFACE_CURVE('',#1418,(#1423,#1430),.PCURVE_S1.);
#1418 = CIRCLE('',#1419,3.);
#1419 = AXIS2_PLACEMENT_3D('',#1420,#1421,#1422);
#1420 = CARTESIAN_POINT('',(45.613352847088,206.26976703767,
    50.196734513627));
#1421 = DIRECTION('',(9.966702304196E-15,1.021607975682E-14,1.));
#1422 = DIRECTION('',(1.,-1.030717345896E-28,-9.966702304196E-15));
#1423 = PCURVE('',#1092,#1424);
#1424 = DEFINITIONAL_REPRESENTATION('',(#1425),#1429);
#1425 = LINE('',#1426,#1427);
#1426 = CARTESIAN_POINT('',(6.28318530718,-1.278976924368E-13));
#1427 = VECTOR('',#1428,1.);
#1428 = DIRECTION('',(-1.,0.));
#1429 = ( GEOMETRIC_REPRESENTATION_CONTEXT(2) 
PARAMETRIC_REPRESENTATION_CONTEXT() REPRESENTATION_CONTEXT('2D SPACE',''
  ) );
#1430 = PCURVE('',#622,#1431);
#1431 = DEFINITIONAL_REPRESENTATION('',(#1432),#1440);
#1432 = ( BOUNDED_CURVE() B_SPLINE_CURVE(2,(#1433,#1434,#1435,#1436,
#1437,#1438,#1439),.UNSPECIFIED.,.T.,.F.) B_SPLINE_CURVE_WITH_KNOTS((1,2
    ,2,2,2,1),(-2.094395102393,0.,2.094395102393,4.188790204786,
6.28318530718,8.377580409573),.UNSPECIFIED.) CURVE() 
GEOMETRIC_REPRESENTATION_ITEM() RATIONAL_B_SPLINE_CURVE((1.,0.5,1.,0.5,
1.,0.5,1.)) REPRESENTATION_ITEM('') );
#1433 = CARTESIAN_POINT('',(3.000000000001,-9.947598297585E-13));
#1434 = CARTESIAN_POINT('',(3.000000000001,-5.196152422708));
#1435 = CARTESIAN_POINT('',(-1.499999999999,-2.598076211354));
#1436 = CARTESIAN_POINT('',(-5.999999999999,-9.954946187549E-13));
#1437 = CARTESIAN_POINT('',(-1.499999999999,2.598076211352));
#1438 = CARTESIAN_POINT('',(3.000000000001,5.196152422706));
#1439 = CARTESIAN_POINT('',(3.000000000001,-9.947598297585E-13));
#1440 = ( GEOMETRIC_REPRESENTATION_CONTEXT(2) 
PARAMETRIC_REPRESENTATION_CONTEXT() REPRESENTATION_CONTEXT('2D SPACE',''
  ) );
#1441 = ORIENTED_EDGE('',*,*,#1393,.F.);
#1442 = ADVANCED_FACE('',(#1443,#1453,#1456,#1459),#622,.T.);
#1443 = FACE_BOUND('',#1444,.T.);
#1444 = EDGE_LOOP('',(#1445,#1446,#1447,#1448,#1449,#1450,#1451,#1452));
#1445 = ORIENTED_EDGE('',*,*,#764,.T.);
#1446 = ORIENTED_EDGE('',*,*,#843,.T.);
#1447 = ORIENTED_EDGE('',*,*,#1240,.T.);
#1448 = ORIENTED_EDGE('',*,*,#1190,.T.);
#1449 = ORIENTED_EDGE('',*,*,#1289,.T.);
#1450 = ORIENTED_EDGE('',*,*,#1367,.T.);
#1451 = ORIENTED_EDGE('',*,*,#1317,.T.);
#1452 = ORIENTED_EDGE('',*,*,#665,.T.);
#1453 = FACE_BOUND('',#1454,.T.);
#1454 = EDGE_LOOP('',(#1455));
#1455 = ORIENTED_EDGE('',*,*,#1416,.T.);
#1456 = FACE_BOUND('',#1457,.T.);
#1457 = EDGE_LOOP('',(#1458));
#1458 = ORIENTED_EDGE('',*,*,#1137,.T.);
#1459 = FACE_BOUND('',#1460,.T.);
#1460 = EDGE_LOOP('',(#1461));
#1461 = ORIENTED_EDGE('',*,*,#607,.T.);
#1462 = ( GEOMETRIC_REPRESENTATION_CONTEXT(3) 
GLOBAL_UNCERTAINTY_ASSIGNED_CONTEXT((#1466)) 
GLOBAL_UNIT_ASSIGNED_CONTEXT((#1463,#1464,#1465)) REPRESENTATION_CONTEXT
('Context #1','3D Context with UNIT and UNCERTAINTY') );
#1463 = ( LENGTH_UNIT() NAMED_UNIT(*) SI_UNIT(.MILLI.,.METRE.) );
#1464 = ( NAMED_UNIT(*) PLANE_ANGLE_UNIT() SI_UNIT($,.RADIAN.) );
#1465 = ( NAMED_UNIT(*) SI_UNIT($,.STERADIAN.) SOLID_ANGLE_UNIT() );
#1466 = UNCERTAINTY_MEASURE_WITH_UNIT(LENGTH_MEASURE(1.E-03),#1463,
  'distance_accuracy_value','confusion accuracy');
#1467 = PRODUCT_RELATED_PRODUCT_CATEGORY('part',$,(#7));
ENDSEC;
END-ISO-10303-21;
