ISO-10303-21;
HEADER;
FILE_DESCRIPTION(('Open CASCADE Model'),'2;1');
FILE_NAME('Open CASCADE Shape Model','2026-08-13T22:16:48',('Author'),(
    'Open CASCADE'),'Open CASCADE STEP processor 7.9','Open CASCADE 7.9'
  ,'Unknown');
FILE_SCHEMA(('AUTOMOTIVE_DESIGN { 1 0 10303 214 1 1 1 1 }'));
ENDSEC;
DATA;
#1 = APPLICATION_PROTOCOL_DEFINITION('international standard',
  'automotive_design',2000,#2);
#2 = APPLICATION_CONTEXT(
  'core data for automotive mechanical design processes');
#3 = SHAPE_DEFINITION_REPRESENTATION(#4,#10);
#4 = PRODUCT_DEFINITION_SHAPE('','',#5);
#5 = PRODUCT_DEFINITION('design','',#6,#9);
#6 = PRODUCT_DEFINITION_FORMATION('','',#7);
#7 = PRODUCT('Open CASCADE STEP translator 7.9 147',
  'Open CASCADE STEP translator 7.9 147','',(#8));
#8 = PRODUCT_CONTEXT('',#2,'mechanical');
#9 = PRODUCT_DEFINITION_CONTEXT('part definition',#2,'design');
#10 = ADVANCED_BREP_SHAPE_REPRESENTATION('',(#11,#15),#703);
#11 = AXIS2_PLACEMENT_3D('',#12,#13,#14);
#12 = CARTESIAN_POINT('',(0.,0.,0.));
#13 = DIRECTION('',(0.,0.,1.));
#14 = DIRECTION('',(1.,0.,-0.));
#15 = MANIFOLD_SOLID_BREP('',#16);
#16 = CLOSED_SHELL('',(#17,#137,#213,#284,#311,#490,#497,#572,#620,#669,
    #696));
#17 = ADVANCED_FACE('',(#18),#32,.F.);
#18 = FACE_BOUND('',#19,.T.);
#19 = EDGE_LOOP('',(#20,#55,#83,#111));
#20 = ORIENTED_EDGE('',*,*,#21,.F.);
#21 = EDGE_CURVE('',#22,#24,#26,.T.);
#22 = VERTEX_POINT('',#23);
#23 = CARTESIAN_POINT('',(10.2,3.7,-24.3));
#24 = VERTEX_POINT('',#25);
#25 = CARTESIAN_POINT('',(11.,3.7,-24.3));
#26 = SURFACE_CURVE('',#27,(#31,#43),.PCURVE_S1.);
#27 = LINE('',#28,#29);
#28 = CARTESIAN_POINT('',(10.2,3.7,-24.3));
#29 = VECTOR('',#30,1.);
#30 = DIRECTION('',(1.,-5.6E-16,2.8E-16));
#31 = PCURVE('',#32,#37);
#32 = PLANE('',#33);
#33 = AXIS2_PLACEMENT_3D('',#34,#35,#36);
#34 = CARTESIAN_POINT('',(10.2,3.7,-24.3));
#35 = DIRECTION('',(-1.1E-16,-1.,5.6E-16));
#36 = DIRECTION('',(-8.9E-16,5.6E-16,1.));
#37 = DEFINITIONAL_REPRESENTATION('',(#38),#42);
#38 = LINE('',#39,#40);
#39 = CARTESIAN_POINT('',(0.,0.));
#40 = VECTOR('',#41,1.);
#41 = DIRECTION('',(-6.1E-16,-1.));
#42 = ( GEOMETRIC_REPRESENTATION_CONTEXT(2) 
PARAMETRIC_REPRESENTATION_CONTEXT() REPRESENTATION_CONTEXT('2D SPACE',''
  ) );
#43 = PCURVE('',#44,#49);
#44 = PLANE('',#45);
#45 = AXIS2_PLACEMENT_3D('',#46,#47,#48);
#46 = CARTESIAN_POINT('',(10.2,-3.7,-24.3));
#47 = DIRECTION('',(-7.2E-16,3.3E-16,1.));
#48 = DIRECTION('',(-1.1E-16,1.,-3.3E-16));
#49 = DEFINITIONAL_REPRESENTATION('',(#50),#54);
#50 = LINE('',#51,#52);
#51 = CARTESIAN_POINT('',(7.4,-8.14E-16));
#52 = VECTOR('',#53,1.);
#53 = DIRECTION('',(-6.7E-16,-1.));
#54 = ( GEOMETRIC_REPRESENTATION_CONTEXT(2) 
PARAMETRIC_REPRESENTATION_CONTEXT() REPRESENTATION_CONTEXT('2D SPACE',''
  ) );
#55 = ORIENTED_EDGE('',*,*,#56,.T.);
#56 = EDGE_CURVE('',#22,#57,#59,.T.);
#57 = VERTEX_POINT('',#58);
#58 = CARTESIAN_POINT('',(10.2,3.7,-19.7));
#59 = SURFACE_CURVE('',#60,(#64,#71),.PCURVE_S1.);
#60 = LINE('',#61,#62);
#61 = CARTESIAN_POINT('',(10.2,3.7,-24.3));
#62 = VECTOR('',#63,1.);
#63 = DIRECTION('',(-6.7E-16,-3.3E-16,1.));
#64 = PCURVE('',#32,#65);
#65 = DEFINITIONAL_REPRESENTATION('',(#66),#70);
#66 = LINE('',#67,#68);
#67 = CARTESIAN_POINT('',(0.,0.));
#68 = VECTOR('',#69,1.);
#69 = DIRECTION('',(1.,-2.2E-16));
#70 = ( GEOMETRIC_REPRESENTATION_CONTEXT(2) 
PARAMETRIC_REPRESENTATION_CONTEXT() REPRESENTATION_CONTEXT('2D SPACE',''
  ) );
#71 = PCURVE('',#72,#77);
#72 = PLANE('',#73);
#73 = AXIS2_PLACEMENT_3D('',#74,#75,#76);
#74 = CARTESIAN_POINT('',(10.2,0.,-22.));
#75 = DIRECTION('',(1.,-5.6E-16,0.));
#76 = DIRECTION('',(-1.848E-31,-3.3E-16,1.));
#77 = DEFINITIONAL_REPRESENTATION('',(#78),#82);
#78 = LINE('',#79,#80);
#79 = CARTESIAN_POINT('',(-2.3,-3.7));
#80 = VECTOR('',#81,1.);
#81 = DIRECTION('',(1.,3.944304526105E-31));
#82 = ( GEOMETRIC_REPRESENTATION_CONTEXT(2) 
PARAMETRIC_REPRESENTATION_CONTEXT() REPRESENTATION_CONTEXT('2D SPACE',''
  ) );
#83 = ORIENTED_EDGE('',*,*,#84,.T.);
#84 = EDGE_CURVE('',#57,#85,#87,.T.);
#85 = VERTEX_POINT('',#86);
#86 = CARTESIAN_POINT('',(11.,3.7,-19.7));
#87 = SURFACE_CURVE('',#88,(#92,#99),.PCURVE_S1.);
#88 = LINE('',#89,#90);
#89 = CARTESIAN_POINT('',(10.2,3.7,-19.7));
#90 = VECTOR('',#91,1.);
#91 = DIRECTION('',(1.,-5.6E-16,2.8E-16));
#92 = PCURVE('',#32,#93);
#93 = DEFINITIONAL_REPRESENTATION('',(#94),#98);
#94 = LINE('',#95,#96);
#95 = CARTESIAN_POINT('',(4.6,-4.094E-15));
#96 = VECTOR('',#97,1.);
#97 = DIRECTION('',(-6.1E-16,-1.));
#98 = ( GEOMETRIC_REPRESENTATION_CONTEXT(2) 
PARAMETRIC_REPRESENTATION_CONTEXT() REPRESENTATION_CONTEXT('2D SPACE',''
  ) );
#99 = PCURVE('',#100,#105);
#100 = PLANE('',#101);
#101 = AXIS2_PLACEMENT_3D('',#102,#103,#104);
#102 = CARTESIAN_POINT('',(10.2,3.7,-19.7));
#103 = DIRECTION('',(7.2E-16,-3.3E-16,-1.));
#104 = DIRECTION('',(1.1E-16,-1.,3.3E-16));
#105 = DEFINITIONAL_REPRESENTATION('',(#106),#110);
#106 = LINE('',#107,#108);
#107 = CARTESIAN_POINT('',(0.,-0.));
#108 = VECTOR('',#109,1.);
#109 = DIRECTION('',(6.7E-16,-1.));
#110 = ( GEOMETRIC_REPRESENTATION_CONTEXT(2) 
PARAMETRIC_REPRESENTATION_CONTEXT() REPRESENTATION_CONTEXT('2D SPACE',''
  ) );
#111 = ORIENTED_EDGE('',*,*,#112,.F.);
#112 = EDGE_CURVE('',#24,#85,#113,.T.);
#113 = SURFACE_CURVE('',#114,(#118,#125),.PCURVE_S1.);
#114 = LINE('',#115,#116);
#115 = CARTESIAN_POINT('',(11.,3.7,-24.3));
#116 = VECTOR('',#117,1.);
#117 = DIRECTION('',(-6.7E-16,-3.3E-16,1.));
#118 = PCURVE('',#32,#119);
#119 = DEFINITIONAL_REPRESENTATION('',(#120),#124);
#120 = LINE('',#121,#122);
#121 = CARTESIAN_POINT('',(-7.12E-16,-0.8));
#122 = VECTOR('',#123,1.);
#123 = DIRECTION('',(1.,-2.2E-16));
#124 = ( GEOMETRIC_REPRESENTATION_CONTEXT(2) 
PARAMETRIC_REPRESENTATION_CONTEXT() REPRESENTATION_CONTEXT('2D SPACE',''
  ) );
#125 = PCURVE('',#126,#131);
#126 = PLANE('',#127);
#127 = AXIS2_PLACEMENT_3D('',#128,#129,#130);
#128 = CARTESIAN_POINT('',(11.,-3.1E-16,-22.));
#129 = DIRECTION('',(1.,-5.6E-16,0.));
#130 = DIRECTION('',(-1.848E-31,-3.3E-16,1.));
#131 = DEFINITIONAL_REPRESENTATION('',(#132),#136);
#132 = LINE('',#133,#134);
#133 = CARTESIAN_POINT('',(-2.3,-3.7));
#134 = VECTOR('',#135,1.);
#135 = DIRECTION('',(1.,3.944304526105E-31));
#136 = ( GEOMETRIC_REPRESENTATION_CONTEXT(2) 
PARAMETRIC_REPRESENTATION_CONTEXT() REPRESENTATION_CONTEXT('2D SPACE',''
  ) );
#137 = ADVANCED_FACE('',(#138),#44,.F.);
#138 = FACE_BOUND('',#139,.T.);
#139 = EDGE_LOOP('',(#140,#170,#191,#192));
#140 = ORIENTED_EDGE('',*,*,#141,.F.);
#141 = EDGE_CURVE('',#142,#144,#146,.T.);
#142 = VERTEX_POINT('',#143);
#143 = CARTESIAN_POINT('',(10.2,-3.7,-24.3));
#144 = VERTEX_POINT('',#145);
#145 = CARTESIAN_POINT('',(11.,-3.7,-24.3));
#146 = SURFACE_CURVE('',#147,(#151,#158),.PCURVE_S1.);
#147 = LINE('',#148,#149);
#148 = CARTESIAN_POINT('',(10.2,-3.7,-24.3));
#149 = VECTOR('',#150,1.);
#150 = DIRECTION('',(1.,-5.6E-16,2.8E-16));
#151 = PCURVE('',#44,#152);
#152 = DEFINITIONAL_REPRESENTATION('',(#153),#157);
#153 = LINE('',#154,#155);
#154 = CARTESIAN_POINT('',(0.,-0.));
#155 = VECTOR('',#156,1.);
#156 = DIRECTION('',(-6.7E-16,-1.));
#157 = ( GEOMETRIC_REPRESENTATION_CONTEXT(2) 
PARAMETRIC_REPRESENTATION_CONTEXT() REPRESENTATION_CONTEXT('2D SPACE',''
  ) );
#158 = PCURVE('',#159,#164);
#159 = PLANE('',#160);
#160 = AXIS2_PLACEMENT_3D('',#161,#162,#163);
#161 = CARTESIAN_POINT('',(10.2,-3.7,-19.7));
#162 = DIRECTION('',(1.1E-16,1.,-5.6E-16));
#163 = DIRECTION('',(8.9E-16,-5.6E-16,-1.));
#164 = DEFINITIONAL_REPRESENTATION('',(#165),#169);
#165 = LINE('',#166,#167);
#166 = CARTESIAN_POINT('',(4.6,4.094E-15));
#167 = VECTOR('',#168,1.);
#168 = DIRECTION('',(6.1E-16,-1.));
#169 = ( GEOMETRIC_REPRESENTATION_CONTEXT(2) 
PARAMETRIC_REPRESENTATION_CONTEXT() REPRESENTATION_CONTEXT('2D SPACE',''
  ) );
#170 = ORIENTED_EDGE('',*,*,#171,.T.);
#171 = EDGE_CURVE('',#142,#22,#172,.T.);
#172 = SURFACE_CURVE('',#173,(#177,#184),.PCURVE_S1.);
#173 = LINE('',#174,#175);
#174 = CARTESIAN_POINT('',(10.2,-3.7,-24.3));
#175 = VECTOR('',#176,1.);
#176 = DIRECTION('',(-5.6E-16,1.,-5.6E-16));
#177 = PCURVE('',#44,#178);
#178 = DEFINITIONAL_REPRESENTATION('',(#179),#183);
#179 = LINE('',#180,#181);
#180 = CARTESIAN_POINT('',(0.,-0.));
#181 = VECTOR('',#182,1.);
#182 = DIRECTION('',(1.,4.5E-16));
#183 = ( GEOMETRIC_REPRESENTATION_CONTEXT(2) 
PARAMETRIC_REPRESENTATION_CONTEXT() REPRESENTATION_CONTEXT('2D SPACE',''
  ) );
#184 = PCURVE('',#72,#185);
#185 = DEFINITIONAL_REPRESENTATION('',(#186),#190);
#186 = LINE('',#187,#188);
#187 = CARTESIAN_POINT('',(-2.3,3.7));
#188 = VECTOR('',#189,1.);
#189 = DIRECTION('',(-8.9E-16,-1.));
#190 = ( GEOMETRIC_REPRESENTATION_CONTEXT(2) 
PARAMETRIC_REPRESENTATION_CONTEXT() REPRESENTATION_CONTEXT('2D SPACE',''
  ) );
#191 = ORIENTED_EDGE('',*,*,#21,.T.);
#192 = ORIENTED_EDGE('',*,*,#193,.F.);
#193 = EDGE_CURVE('',#144,#24,#194,.T.);
#194 = SURFACE_CURVE('',#195,(#199,#206),.PCURVE_S1.);
#195 = LINE('',#196,#197);
#196 = CARTESIAN_POINT('',(11.,-3.7,-24.3));
#197 = VECTOR('',#198,1.);
#198 = DIRECTION('',(-5.6E-16,1.,-5.6E-16));
#199 = PCURVE('',#44,#200);
#200 = DEFINITIONAL_REPRESENTATION('',(#201),#205);
#201 = LINE('',#202,#203);
#202 = CARTESIAN_POINT('',(-8.8E-17,-0.8));
#203 = VECTOR('',#204,1.);
#204 = DIRECTION('',(1.,4.5E-16));
#205 = ( GEOMETRIC_REPRESENTATION_CONTEXT(2) 
PARAMETRIC_REPRESENTATION_CONTEXT() REPRESENTATION_CONTEXT('2D SPACE',''
  ) );
#206 = PCURVE('',#126,#207);
#207 = DEFINITIONAL_REPRESENTATION('',(#208),#212);
#208 = LINE('',#209,#210);
#209 = CARTESIAN_POINT('',(-2.3,3.7));
#210 = VECTOR('',#211,1.);
#211 = DIRECTION('',(-8.9E-16,-1.));
#212 = ( GEOMETRIC_REPRESENTATION_CONTEXT(2) 
PARAMETRIC_REPRESENTATION_CONTEXT() REPRESENTATION_CONTEXT('2D SPACE',''
  ) );
#213 = ADVANCED_FACE('',(#214),#100,.F.);
#214 = FACE_BOUND('',#215,.T.);
#215 = EDGE_LOOP('',(#216,#217,#240,#263));
#216 = ORIENTED_EDGE('',*,*,#84,.F.);
#217 = ORIENTED_EDGE('',*,*,#218,.T.);
#218 = EDGE_CURVE('',#57,#219,#221,.T.);
#219 = VERTEX_POINT('',#220);
#220 = CARTESIAN_POINT('',(10.2,-3.7,-19.7));
#221 = SURFACE_CURVE('',#222,(#226,#233),.PCURVE_S1.);
#222 = LINE('',#223,#224);
#223 = CARTESIAN_POINT('',(10.2,3.7,-19.7));
#224 = VECTOR('',#225,1.);
#225 = DIRECTION('',(5.6E-16,-1.,5.6E-16));
#226 = PCURVE('',#100,#227);
#227 = DEFINITIONAL_REPRESENTATION('',(#228),#232);
#228 = LINE('',#229,#230);
#229 = CARTESIAN_POINT('',(0.,-0.));
#230 = VECTOR('',#231,1.);
#231 = DIRECTION('',(1.,-4.5E-16));
#232 = ( GEOMETRIC_REPRESENTATION_CONTEXT(2) 
PARAMETRIC_REPRESENTATION_CONTEXT() REPRESENTATION_CONTEXT('2D SPACE',''
  ) );
#233 = PCURVE('',#72,#234);
#234 = DEFINITIONAL_REPRESENTATION('',(#235),#239);
#235 = LINE('',#236,#237);
#236 = CARTESIAN_POINT('',(2.3,-3.7));
#237 = VECTOR('',#238,1.);
#238 = DIRECTION('',(8.9E-16,1.));
#239 = ( GEOMETRIC_REPRESENTATION_CONTEXT(2) 
PARAMETRIC_REPRESENTATION_CONTEXT() REPRESENTATION_CONTEXT('2D SPACE',''
  ) );
#240 = ORIENTED_EDGE('',*,*,#241,.T.);
#241 = EDGE_CURVE('',#219,#242,#244,.T.);
#242 = VERTEX_POINT('',#243);
#243 = CARTESIAN_POINT('',(11.,-3.7,-19.7));
#244 = SURFACE_CURVE('',#245,(#249,#256),.PCURVE_S1.);
#245 = LINE('',#246,#247);
#246 = CARTESIAN_POINT('',(10.2,-3.7,-19.7));
#247 = VECTOR('',#248,1.);
#248 = DIRECTION('',(1.,-5.6E-16,2.8E-16));
#249 = PCURVE('',#100,#250);
#250 = DEFINITIONAL_REPRESENTATION('',(#251),#255);
#251 = LINE('',#252,#253);
#252 = CARTESIAN_POINT('',(7.4,8.14E-16));
#253 = VECTOR('',#254,1.);
#254 = DIRECTION('',(6.7E-16,-1.));
#255 = ( GEOMETRIC_REPRESENTATION_CONTEXT(2) 
PARAMETRIC_REPRESENTATION_CONTEXT() REPRESENTATION_CONTEXT('2D SPACE',''
  ) );
#256 = PCURVE('',#159,#257);
#257 = DEFINITIONAL_REPRESENTATION('',(#258),#262);
#258 = LINE('',#259,#260);
#259 = CARTESIAN_POINT('',(0.,0.));
#260 = VECTOR('',#261,1.);
#261 = DIRECTION('',(6.1E-16,-1.));
#262 = ( GEOMETRIC_REPRESENTATION_CONTEXT(2) 
PARAMETRIC_REPRESENTATION_CONTEXT() REPRESENTATION_CONTEXT('2D SPACE',''
  ) );
#263 = ORIENTED_EDGE('',*,*,#264,.F.);
#264 = EDGE_CURVE('',#85,#242,#265,.T.);
#265 = SURFACE_CURVE('',#266,(#270,#277),.PCURVE_S1.);
#266 = LINE('',#267,#268);
#267 = CARTESIAN_POINT('',(11.,3.7,-19.7));
#268 = VECTOR('',#269,1.);
#269 = DIRECTION('',(5.6E-16,-1.,5.6E-16));
#270 = PCURVE('',#100,#271);
#271 = DEFINITIONAL_REPRESENTATION('',(#272),#276);
#272 = LINE('',#273,#274);
#273 = CARTESIAN_POINT('',(8.8E-17,-0.8));
#274 = VECTOR('',#275,1.);
#275 = DIRECTION('',(1.,-4.5E-16));
#276 = ( GEOMETRIC_REPRESENTATION_CONTEXT(2) 
PARAMETRIC_REPRESENTATION_CONTEXT() REPRESENTATION_CONTEXT('2D SPACE',''
  ) );
#277 = PCURVE('',#126,#278);
#278 = DEFINITIONAL_REPRESENTATION('',(#279),#283);
#279 = LINE('',#280,#281);
#280 = CARTESIAN_POINT('',(2.3,-3.7));
#281 = VECTOR('',#282,1.);
#282 = DIRECTION('',(8.9E-16,1.));
#283 = ( GEOMETRIC_REPRESENTATION_CONTEXT(2) 
PARAMETRIC_REPRESENTATION_CONTEXT() REPRESENTATION_CONTEXT('2D SPACE',''
  ) );
#284 = ADVANCED_FACE('',(#285),#72,.F.);
#285 = FACE_BOUND('',#286,.T.);
#286 = EDGE_LOOP('',(#287,#288,#289,#310));
#287 = ORIENTED_EDGE('',*,*,#56,.F.);
#288 = ORIENTED_EDGE('',*,*,#171,.F.);
#289 = ORIENTED_EDGE('',*,*,#290,.F.);
#290 = EDGE_CURVE('',#219,#142,#291,.T.);
#291 = SURFACE_CURVE('',#292,(#296,#303),.PCURVE_S1.);
#292 = LINE('',#293,#294);
#293 = CARTESIAN_POINT('',(10.2,-3.7,-19.7));
#294 = VECTOR('',#295,1.);
#295 = DIRECTION('',(6.7E-16,3.3E-16,-1.));
#296 = PCURVE('',#72,#297);
#297 = DEFINITIONAL_REPRESENTATION('',(#298),#302);
#298 = LINE('',#299,#300);
#299 = CARTESIAN_POINT('',(2.3,3.7));
#300 = VECTOR('',#301,1.);
#301 = DIRECTION('',(-1.,-3.944304526105E-31));
#302 = ( GEOMETRIC_REPRESENTATION_CONTEXT(2) 
PARAMETRIC_REPRESENTATION_CONTEXT() REPRESENTATION_CONTEXT('2D SPACE',''
  ) );
#303 = PCURVE('',#159,#304);
#304 = DEFINITIONAL_REPRESENTATION('',(#305),#309);
#305 = LINE('',#306,#307);
#306 = CARTESIAN_POINT('',(0.,0.));
#307 = VECTOR('',#308,1.);
#308 = DIRECTION('',(1.,2.2E-16));
#309 = ( GEOMETRIC_REPRESENTATION_CONTEXT(2) 
PARAMETRIC_REPRESENTATION_CONTEXT() REPRESENTATION_CONTEXT('2D SPACE',''
  ) );
#310 = ORIENTED_EDGE('',*,*,#218,.F.);
#311 = ADVANCED_FACE('',(#312,#338),#126,.T.);
#312 = FACE_BOUND('',#313,.T.);
#313 = EDGE_LOOP('',(#314,#315,#316,#337));
#314 = ORIENTED_EDGE('',*,*,#112,.T.);
#315 = ORIENTED_EDGE('',*,*,#264,.T.);
#316 = ORIENTED_EDGE('',*,*,#317,.T.);
#317 = EDGE_CURVE('',#242,#144,#318,.T.);
#318 = SURFACE_CURVE('',#319,(#323,#330),.PCURVE_S1.);
#319 = LINE('',#320,#321);
#320 = CARTESIAN_POINT('',(11.,-3.7,-19.7));
#321 = VECTOR('',#322,1.);
#322 = DIRECTION('',(6.7E-16,3.3E-16,-1.));
#323 = PCURVE('',#126,#324);
#324 = DEFINITIONAL_REPRESENTATION('',(#325),#329);
#325 = LINE('',#326,#327);
#326 = CARTESIAN_POINT('',(2.3,3.7));
#327 = VECTOR('',#328,1.);
#328 = DIRECTION('',(-1.,-3.944304526105E-31));
#329 = ( GEOMETRIC_REPRESENTATION_CONTEXT(2) 
PARAMETRIC_REPRESENTATION_CONTEXT() REPRESENTATION_CONTEXT('2D SPACE',''
  ) );
#330 = PCURVE('',#159,#331);
#331 = DEFINITIONAL_REPRESENTATION('',(#332),#336);
#332 = LINE('',#333,#334);
#333 = CARTESIAN_POINT('',(7.12E-16,-0.8));
#334 = VECTOR('',#335,1.);
#335 = DIRECTION('',(1.,2.2E-16));
#336 = ( GEOMETRIC_REPRESENTATION_CONTEXT(2) 
PARAMETRIC_REPRESENTATION_CONTEXT() REPRESENTATION_CONTEXT('2D SPACE',''
  ) );
#337 = ORIENTED_EDGE('',*,*,#193,.T.);
#338 = FACE_BOUND('',#339,.T.);
#339 = EDGE_LOOP('',(#340,#389,#417,#464));
#340 = ORIENTED_EDGE('',*,*,#341,.F.);
#341 = EDGE_CURVE('',#342,#344,#346,.T.);
#342 = VERTEX_POINT('',#343);
#343 = CARTESIAN_POINT('',(11.,-1.420077,-20.1));
#344 = VERTEX_POINT('',#345);
#345 = CARTESIAN_POINT('',(11.,-1.420077,-23.9));
#346 = SURFACE_CURVE('',#347,(#352,#359),.PCURVE_S1.);
#347 = CIRCLE('',#348,1.9);
#348 = AXIS2_PLACEMENT_3D('',#349,#350,#351);
#349 = CARTESIAN_POINT('',(11.,-1.420077,-22.));
#350 = DIRECTION('',(1.,-4.4E-16,7.8E-16));
#351 = DIRECTION('',(4.4E-16,1.,-3.3E-16));
#352 = PCURVE('',#126,#353);
#353 = DEFINITIONAL_REPRESENTATION('',(#354),#358);
#354 = CIRCLE('',#355,1.9);
#355 = AXIS2_PLACEMENT_2D('',#356,#357);
#356 = CARTESIAN_POINT('',(4.6862541E-16,1.420077));
#357 = DIRECTION('',(-6.6E-16,-1.));
#358 = ( GEOMETRIC_REPRESENTATION_CONTEXT(2) 
PARAMETRIC_REPRESENTATION_CONTEXT() REPRESENTATION_CONTEXT('2D SPACE',''
  ) );
#359 = PCURVE('',#360,#383);
#360 = B_SPLINE_SURFACE_WITH_KNOTS('',10,1,(
    (#361,#362)
    ,(#363,#364)
    ,(#365,#366)
    ,(#367,#368)
    ,(#369,#370)
    ,(#371,#372)
    ,(#373,#374)
    ,(#375,#376)
    ,(#377,#378)
    ,(#379,#380)
    ,(#381,#382
    )),.UNSPECIFIED.,.F.,.F.,.F.,(11,11),(2,2),(1.570796326795,
    4.712388980385),(0.,1.),.PIECEWISE_BEZIER_KNOTS.);
#361 = CARTESIAN_POINT('',(11.,-1.420077,-20.1));
#362 = CARTESIAN_POINT('',(16.,-1.307381,-20.5));
#363 = CARTESIAN_POINT('',(11.,-2.016979604182,-20.1));
#364 = CARTESIAN_POINT('',(16.,-1.778619898038,-20.5));
#365 = CARTESIAN_POINT('',(11.,-2.613882156516,-20.30835774921));
#366 = CARTESIAN_POINT('',(16.,-2.249858755144,-20.6644929599));
#367 = CARTESIAN_POINT('',(11.,-3.128963104423,-20.72507840987));
#368 = CARTESIAN_POINT('',(15.999999999999,-2.656501608754,
    -20.99348295516));
#369 = CARTESIAN_POINT('',(11.,-3.480397127675,-21.31341703762));
#370 = CARTESIAN_POINT('',(16.000000000001,-2.933949521849,
    -21.45796081917));
#371 = CARTESIAN_POINT('',(11.,-3.605602256176,-22.));
#372 = CARTESIAN_POINT('',(15.999999999998,-3.032795675927,-22.));
#373 = CARTESIAN_POINT('',(11.,-3.480397127675,-22.68658296237));
#374 = CARTESIAN_POINT('',(16.000000000002,-2.933949521849,
    -22.54203918082));
#375 = CARTESIAN_POINT('',(11.,-3.128963104423,-23.27492159012));
#376 = CARTESIAN_POINT('',(15.999999999999,-2.656501608754,
    -23.00651704483));
#377 = CARTESIAN_POINT('',(11.,-2.613882156516,-23.69164225079));
#378 = CARTESIAN_POINT('',(16.,-2.249858755145,-23.33550704009));
#379 = CARTESIAN_POINT('',(11.,-2.016979604182,-23.9));
#380 = CARTESIAN_POINT('',(16.,-1.778619898038,-23.5));
#381 = CARTESIAN_POINT('',(11.,-1.420077,-23.9));
#382 = CARTESIAN_POINT('',(16.,-1.307381,-23.5));
#383 = DEFINITIONAL_REPRESENTATION('',(#384),#388);
#384 = LINE('',#385,#386);
#385 = CARTESIAN_POINT('',(1.023625628704E-13,-1.47615728971E-15));
#386 = VECTOR('',#387,1.);
#387 = DIRECTION('',(1.,3.880790222933E-16));
#388 = ( GEOMETRIC_REPRESENTATION_CONTEXT(2) 
PARAMETRIC_REPRESENTATION_CONTEXT() REPRESENTATION_CONTEXT('2D SPACE',''
  ) );
#389 = ORIENTED_EDGE('',*,*,#390,.F.);
#390 = EDGE_CURVE('',#391,#342,#393,.T.);
#391 = VERTEX_POINT('',#392);
#392 = CARTESIAN_POINT('',(11.,1.420077,-20.1));
#393 = SURFACE_CURVE('',#394,(#398,#405),.PCURVE_S1.);
#394 = LINE('',#395,#396);
#395 = CARTESIAN_POINT('',(11.,1.420077,-20.1));
#396 = VECTOR('',#397,1.);
#397 = DIRECTION('',(-4.4E-16,-1.,3.3E-16));
#398 = PCURVE('',#126,#399);
#399 = DEFINITIONAL_REPRESENTATION('',(#400),#404);
#400 = LINE('',#401,#402);
#401 = CARTESIAN_POINT('',(1.9,-1.420077));
#402 = VECTOR('',#403,1.);
#403 = DIRECTION('',(6.6E-16,1.));
#404 = ( GEOMETRIC_REPRESENTATION_CONTEXT(2) 
PARAMETRIC_REPRESENTATION_CONTEXT() REPRESENTATION_CONTEXT('2D SPACE',''
  ) );
#405 = PCURVE('',#406,#411);
#406 = PLANE('',#407);
#407 = AXIS2_PLACEMENT_3D('',#408,#409,#410);
#408 = CARTESIAN_POINT('',(11.,0.,-20.1));
#409 = DIRECTION('',(7.974522228289E-02,0.,0.996815278536));
#410 = DIRECTION('',(0.996815278536,0.,-7.974522228289E-02));
#411 = DEFINITIONAL_REPRESENTATION('',(#412),#416);
#412 = LINE('',#413,#414);
#413 = CARTESIAN_POINT('',(0.,1.420077));
#414 = VECTOR('',#415,1.);
#415 = DIRECTION('',(-4.649146459092E-16,-1.));
#416 = ( GEOMETRIC_REPRESENTATION_CONTEXT(2) 
PARAMETRIC_REPRESENTATION_CONTEXT() REPRESENTATION_CONTEXT('2D SPACE',''
  ) );
#417 = ORIENTED_EDGE('',*,*,#418,.F.);
#418 = EDGE_CURVE('',#419,#391,#421,.T.);
#419 = VERTEX_POINT('',#420);
#420 = CARTESIAN_POINT('',(11.,1.420077,-23.9));
#421 = SURFACE_CURVE('',#422,(#427,#434),.PCURVE_S1.);
#422 = CIRCLE('',#423,1.9);
#423 = AXIS2_PLACEMENT_3D('',#424,#425,#426);
#424 = CARTESIAN_POINT('',(11.,1.420077,-22.));
#425 = DIRECTION('',(1.,-4.4E-16,7.8E-16));
#426 = DIRECTION('',(4.4E-16,1.,-3.3E-16));
#427 = PCURVE('',#126,#428);
#428 = DEFINITIONAL_REPRESENTATION('',(#429),#433);
#429 = CIRCLE('',#430,1.9);
#430 = AXIS2_PLACEMENT_2D('',#431,#432);
#431 = CARTESIAN_POINT('',(-4.6862541E-16,-1.420077));
#432 = DIRECTION('',(-6.6E-16,-1.));
#433 = ( GEOMETRIC_REPRESENTATION_CONTEXT(2) 
PARAMETRIC_REPRESENTATION_CONTEXT() REPRESENTATION_CONTEXT('2D SPACE',''
  ) );
#434 = PCURVE('',#435,#458);
#435 = B_SPLINE_SURFACE_WITH_KNOTS('',10,1,(
    (#436,#437)
    ,(#438,#439)
    ,(#440,#441)
    ,(#442,#443)
    ,(#444,#445)
    ,(#446,#447)
    ,(#448,#449)
    ,(#450,#451)
    ,(#452,#453)
    ,(#454,#455)
    ,(#456,#457
    )),.UNSPECIFIED.,.F.,.F.,.F.,(11,11),(2,2),(4.712388980385,
    7.853981633974),(0.,1.),.PIECEWISE_BEZIER_KNOTS.);
#436 = CARTESIAN_POINT('',(11.,1.420077,-23.9));
#437 = CARTESIAN_POINT('',(16.,1.307381,-23.5));
#438 = CARTESIAN_POINT('',(11.,2.016979604182,-23.9));
#439 = CARTESIAN_POINT('',(16.,1.778619898038,-23.5));
#440 = CARTESIAN_POINT('',(11.,2.613882156516,-23.69164225079));
#441 = CARTESIAN_POINT('',(16.,2.249858755144,-23.33550704009));
#442 = CARTESIAN_POINT('',(11.,3.128963104423,-23.27492159012));
#443 = CARTESIAN_POINT('',(15.999999999999,2.656501608754,
    -23.00651704483));
#444 = CARTESIAN_POINT('',(11.,3.480397127675,-22.68658296237));
#445 = CARTESIAN_POINT('',(16.000000000001,2.933949521849,
    -22.54203918082));
#446 = CARTESIAN_POINT('',(11.,3.605602256175,-22.));
#447 = CARTESIAN_POINT('',(15.999999999999,3.032795675927,-22.));
#448 = CARTESIAN_POINT('',(11.,3.480397127675,-21.31341703762));
#449 = CARTESIAN_POINT('',(16.000000000001,2.933949521849,
    -21.45796081917));
#450 = CARTESIAN_POINT('',(11.,3.128963104422,-20.72507840987));
#451 = CARTESIAN_POINT('',(15.999999999999,2.656501608754,
    -20.99348295516));
#452 = CARTESIAN_POINT('',(11.,2.613882156516,-20.30835774921));
#453 = CARTESIAN_POINT('',(16.,2.249858755144,-20.6644929599));
#454 = CARTESIAN_POINT('',(11.,2.016979604182,-20.1));
#455 = CARTESIAN_POINT('',(16.,1.778619898038,-20.5));
#456 = CARTESIAN_POINT('',(11.,1.420077,-20.1));
#457 = CARTESIAN_POINT('',(16.,1.307381,-20.5));
#458 = DEFINITIONAL_REPRESENTATION('',(#459),#463);
#459 = LINE('',#460,#461);
#460 = CARTESIAN_POINT('',(3.090860900556E-13,1.123314203375E-15));
#461 = VECTOR('',#462,1.);
#462 = DIRECTION('',(1.,-1.585512157354E-16));
#463 = ( GEOMETRIC_REPRESENTATION_CONTEXT(2) 
PARAMETRIC_REPRESENTATION_CONTEXT() REPRESENTATION_CONTEXT('2D SPACE',''
  ) );
#464 = ORIENTED_EDGE('',*,*,#465,.F.);
#465 = EDGE_CURVE('',#344,#419,#466,.T.);
#466 = SURFACE_CURVE('',#467,(#471,#478),.PCURVE_S1.);
#467 = LINE('',#468,#469);
#468 = CARTESIAN_POINT('',(11.,-1.420077,-23.9));
#469 = VECTOR('',#470,1.);
#470 = DIRECTION('',(4.4E-16,1.,-3.3E-16));
#471 = PCURVE('',#126,#472);
#472 = DEFINITIONAL_REPRESENTATION('',(#473),#477);
#473 = LINE('',#474,#475);
#474 = CARTESIAN_POINT('',(-1.9,1.420077));
#475 = VECTOR('',#476,1.);
#476 = DIRECTION('',(-6.6E-16,-1.));
#477 = ( GEOMETRIC_REPRESENTATION_CONTEXT(2) 
PARAMETRIC_REPRESENTATION_CONTEXT() REPRESENTATION_CONTEXT('2D SPACE',''
  ) );
#478 = PCURVE('',#479,#484);
#479 = PLANE('',#480);
#480 = AXIS2_PLACEMENT_3D('',#481,#482,#483);
#481 = CARTESIAN_POINT('',(11.,0.,-23.9));
#482 = DIRECTION('',(7.974522228289E-02,0.,-0.996815278536));
#483 = DIRECTION('',(-0.996815278536,0.,-7.974522228289E-02));
#484 = DEFINITIONAL_REPRESENTATION('',(#485),#489);
#485 = LINE('',#486,#487);
#486 = CARTESIAN_POINT('',(-0.,-1.420077));
#487 = VECTOR('',#488,1.);
#488 = DIRECTION('',(-4.122827992025E-16,1.));
#489 = ( GEOMETRIC_REPRESENTATION_CONTEXT(2) 
PARAMETRIC_REPRESENTATION_CONTEXT() REPRESENTATION_CONTEXT('2D SPACE',''
  ) );
#490 = ADVANCED_FACE('',(#491),#159,.F.);
#491 = FACE_BOUND('',#492,.T.);
#492 = EDGE_LOOP('',(#493,#494,#495,#496));
#493 = ORIENTED_EDGE('',*,*,#241,.F.);
#494 = ORIENTED_EDGE('',*,*,#290,.T.);
#495 = ORIENTED_EDGE('',*,*,#141,.T.);
#496 = ORIENTED_EDGE('',*,*,#317,.F.);
#497 = ADVANCED_FACE('',(#498),#360,.T.);
#498 = FACE_BOUND('',#499,.T.);
#499 = EDGE_LOOP('',(#500,#501,#523,#552));
#500 = ORIENTED_EDGE('',*,*,#341,.T.);
#501 = ORIENTED_EDGE('',*,*,#502,.T.);
#502 = EDGE_CURVE('',#344,#503,#505,.T.);
#503 = VERTEX_POINT('',#504);
#504 = CARTESIAN_POINT('',(16.,-1.307381,-23.5));
#505 = SURFACE_CURVE('',#506,(#510,#516),.PCURVE_S1.);
#506 = LINE('',#507,#508);
#507 = CARTESIAN_POINT('',(11.,-1.420077,-23.9));
#508 = VECTOR('',#509,1.);
#509 = DIRECTION('',(0.996563785088,2.246175046485E-02,
    7.972510280702E-02));
#510 = PCURVE('',#360,#511);
#511 = DEFINITIONAL_REPRESENTATION('',(#512),#515);
#512 = B_SPLINE_CURVE_WITH_KNOTS('',1,(#513,#514),.UNSPECIFIED.,.F.,.F.,
  (2,2),(0.,5.017240315992),.PIECEWISE_BEZIER_KNOTS.);
#513 = CARTESIAN_POINT('',(4.712388980385,-4.098840970183E-16));
#514 = CARTESIAN_POINT('',(4.712388980385,1.));
#515 = ( GEOMETRIC_REPRESENTATION_CONTEXT(2) 
PARAMETRIC_REPRESENTATION_CONTEXT() REPRESENTATION_CONTEXT('2D SPACE',''
  ) );
#516 = PCURVE('',#479,#517);
#517 = DEFINITIONAL_REPRESENTATION('',(#518),#522);
#518 = LINE('',#519,#520);
#519 = CARTESIAN_POINT('',(-0.,-1.420077));
#520 = VECTOR('',#521,1.);
#521 = DIRECTION('',(-0.999747703056,2.246175046485E-02));
#522 = ( GEOMETRIC_REPRESENTATION_CONTEXT(2) 
PARAMETRIC_REPRESENTATION_CONTEXT() REPRESENTATION_CONTEXT('2D SPACE',''
  ) );
#523 = ORIENTED_EDGE('',*,*,#524,.F.);
#524 = EDGE_CURVE('',#525,#503,#527,.T.);
#525 = VERTEX_POINT('',#526);
#526 = CARTESIAN_POINT('',(16.,-1.307381,-20.5));
#527 = SURFACE_CURVE('',#528,(#533,#540),.PCURVE_S1.);
#528 = CIRCLE('',#529,1.5);
#529 = AXIS2_PLACEMENT_3D('',#530,#531,#532);
#530 = CARTESIAN_POINT('',(16.,-1.307381,-22.));
#531 = DIRECTION('',(1.,-2.2E-16,3.3E-16));
#532 = DIRECTION('',(2.2E-16,1.,1.1E-16));
#533 = PCURVE('',#360,#534);
#534 = DEFINITIONAL_REPRESENTATION('',(#535),#539);
#535 = LINE('',#536,#537);
#536 = CARTESIAN_POINT('',(1.028066520803E-13,1.));
#537 = VECTOR('',#538,1.);
#538 = DIRECTION('',(1.,7.067899292141E-17));
#539 = ( GEOMETRIC_REPRESENTATION_CONTEXT(2) 
PARAMETRIC_REPRESENTATION_CONTEXT() REPRESENTATION_CONTEXT('2D SPACE',''
  ) );
#540 = PCURVE('',#541,#546);
#541 = PLANE('',#542);
#542 = AXIS2_PLACEMENT_3D('',#543,#544,#545);
#543 = CARTESIAN_POINT('',(16.,-3.99E-15,-22.));
#544 = DIRECTION('',(1.,-5.5E-16,7.E-16));
#545 = DIRECTION('',(-7.E-16,1.1E-16,1.));
#546 = DEFINITIONAL_REPRESENTATION('',(#547),#551);
#547 = CIRCLE('',#548,1.5);
#548 = AXIS2_PLACEMENT_2D('',#549,#550);
#549 = CARTESIAN_POINT('',(-1.4381191E-16,1.307381));
#550 = DIRECTION('',(2.2E-16,-1.));
#551 = ( GEOMETRIC_REPRESENTATION_CONTEXT(2) 
PARAMETRIC_REPRESENTATION_CONTEXT() REPRESENTATION_CONTEXT('2D SPACE',''
  ) );
#552 = ORIENTED_EDGE('',*,*,#553,.F.);
#553 = EDGE_CURVE('',#342,#525,#554,.T.);
#554 = SURFACE_CURVE('',#555,(#559,#565),.PCURVE_S1.);
#555 = LINE('',#556,#557);
#556 = CARTESIAN_POINT('',(11.,-1.420077,-20.1));
#557 = VECTOR('',#558,1.);
#558 = DIRECTION('',(0.996563785088,2.246175046485E-02,
    -7.972510280702E-02));
#559 = PCURVE('',#360,#560);
#560 = DEFINITIONAL_REPRESENTATION('',(#561),#564);
#561 = B_SPLINE_CURVE_WITH_KNOTS('',1,(#562,#563),.UNSPECIFIED.,.F.,.F.,
  (2,2),(0.,5.017240315992),.PIECEWISE_BEZIER_KNOTS.);
#562 = CARTESIAN_POINT('',(1.570796326795,-5.137648000586E-16));
#563 = CARTESIAN_POINT('',(1.570796326795,1.));
#564 = ( GEOMETRIC_REPRESENTATION_CONTEXT(2) 
PARAMETRIC_REPRESENTATION_CONTEXT() REPRESENTATION_CONTEXT('2D SPACE',''
  ) );
#565 = PCURVE('',#406,#566);
#566 = DEFINITIONAL_REPRESENTATION('',(#567),#571);
#567 = LINE('',#568,#569);
#568 = CARTESIAN_POINT('',(0.,-1.420077));
#569 = VECTOR('',#570,1.);
#570 = DIRECTION('',(0.999747703056,2.246175046485E-02));
#571 = ( GEOMETRIC_REPRESENTATION_CONTEXT(2) 
PARAMETRIC_REPRESENTATION_CONTEXT() REPRESENTATION_CONTEXT('2D SPACE',''
  ) );
#572 = ADVANCED_FACE('',(#573),#479,.T.);
#573 = FACE_BOUND('',#574,.T.);
#574 = EDGE_LOOP('',(#575,#576,#598,#619));
#575 = ORIENTED_EDGE('',*,*,#465,.T.);
#576 = ORIENTED_EDGE('',*,*,#577,.T.);
#577 = EDGE_CURVE('',#419,#578,#580,.T.);
#578 = VERTEX_POINT('',#579);
#579 = CARTESIAN_POINT('',(16.,1.307381,-23.5));
#580 = SURFACE_CURVE('',#581,(#585,#592),.PCURVE_S1.);
#581 = LINE('',#582,#583);
#582 = CARTESIAN_POINT('',(11.,1.420077,-23.9));
#583 = VECTOR('',#584,1.);
#584 = DIRECTION('',(0.996563785088,-2.246175046485E-02,
    7.972510280702E-02));
#585 = PCURVE('',#479,#586);
#586 = DEFINITIONAL_REPRESENTATION('',(#587),#591);
#587 = LINE('',#588,#589);
#588 = CARTESIAN_POINT('',(0.,1.420077));
#589 = VECTOR('',#590,1.);
#590 = DIRECTION('',(-0.999747703056,-2.246175046485E-02));
#591 = ( GEOMETRIC_REPRESENTATION_CONTEXT(2) 
PARAMETRIC_REPRESENTATION_CONTEXT() REPRESENTATION_CONTEXT('2D SPACE',''
  ) );
#592 = PCURVE('',#435,#593);
#593 = DEFINITIONAL_REPRESENTATION('',(#594),#597);
#594 = B_SPLINE_CURVE_WITH_KNOTS('',1,(#595,#596),.UNSPECIFIED.,.F.,.F.,
  (2,2),(0.,5.017240315992),.PIECEWISE_BEZIER_KNOTS.);
#595 = CARTESIAN_POINT('',(4.712388980385,1.848504071749E-17));
#596 = CARTESIAN_POINT('',(4.712388980385,1.));
#597 = ( GEOMETRIC_REPRESENTATION_CONTEXT(2) 
PARAMETRIC_REPRESENTATION_CONTEXT() REPRESENTATION_CONTEXT('2D SPACE',''
  ) );
#598 = ORIENTED_EDGE('',*,*,#599,.F.);
#599 = EDGE_CURVE('',#503,#578,#600,.T.);
#600 = SURFACE_CURVE('',#601,(#605,#612),.PCURVE_S1.);
#601 = LINE('',#602,#603);
#602 = CARTESIAN_POINT('',(16.,-1.307381,-23.5));
#603 = VECTOR('',#604,1.);
#604 = DIRECTION('',(2.2E-16,1.,1.1E-16));
#605 = PCURVE('',#479,#606);
#606 = DEFINITIONAL_REPRESENTATION('',(#607),#611);
#607 = LINE('',#608,#609);
#608 = CARTESIAN_POINT('',(-5.015974481594,-1.307381));
#609 = VECTOR('',#610,1.);
#610 = DIRECTION('',(-2.280713357291E-16,1.));
#611 = ( GEOMETRIC_REPRESENTATION_CONTEXT(2) 
PARAMETRIC_REPRESENTATION_CONTEXT() REPRESENTATION_CONTEXT('2D SPACE',''
  ) );
#612 = PCURVE('',#541,#613);
#613 = DEFINITIONAL_REPRESENTATION('',(#614),#618);
#614 = LINE('',#615,#616);
#615 = CARTESIAN_POINT('',(-1.5,1.307381));
#616 = VECTOR('',#617,1.);
#617 = DIRECTION('',(2.2E-16,-1.));
#618 = ( GEOMETRIC_REPRESENTATION_CONTEXT(2) 
PARAMETRIC_REPRESENTATION_CONTEXT() REPRESENTATION_CONTEXT('2D SPACE',''
  ) );
#619 = ORIENTED_EDGE('',*,*,#502,.F.);
#620 = ADVANCED_FACE('',(#621),#435,.T.);
#621 = FACE_BOUND('',#622,.T.);
#622 = EDGE_LOOP('',(#623,#624,#646,#668));
#623 = ORIENTED_EDGE('',*,*,#418,.T.);
#624 = ORIENTED_EDGE('',*,*,#625,.T.);
#625 = EDGE_CURVE('',#391,#626,#628,.T.);
#626 = VERTEX_POINT('',#627);
#627 = CARTESIAN_POINT('',(16.,1.307381,-20.5));
#628 = SURFACE_CURVE('',#629,(#633,#639),.PCURVE_S1.);
#629 = LINE('',#630,#631);
#630 = CARTESIAN_POINT('',(11.,1.420077,-20.1));
#631 = VECTOR('',#632,1.);
#632 = DIRECTION('',(0.996563785088,-2.246175046485E-02,
    -7.972510280702E-02));
#633 = PCURVE('',#435,#634);
#634 = DEFINITIONAL_REPRESENTATION('',(#635),#638);
#635 = B_SPLINE_CURVE_WITH_KNOTS('',1,(#636,#637),.UNSPECIFIED.,.F.,.F.,
  (2,2),(0.,5.017240315992),.PIECEWISE_BEZIER_KNOTS.);
#636 = CARTESIAN_POINT('',(7.853981633974,-8.980264094142E-18));
#637 = CARTESIAN_POINT('',(7.853981633974,1.));
#638 = ( GEOMETRIC_REPRESENTATION_CONTEXT(2) 
PARAMETRIC_REPRESENTATION_CONTEXT() REPRESENTATION_CONTEXT('2D SPACE',''
  ) );
#639 = PCURVE('',#406,#640);
#640 = DEFINITIONAL_REPRESENTATION('',(#641),#645);
#641 = LINE('',#642,#643);
#642 = CARTESIAN_POINT('',(0.,1.420077));
#643 = VECTOR('',#644,1.);
#644 = DIRECTION('',(0.999747703056,-2.246175046485E-02));
#645 = ( GEOMETRIC_REPRESENTATION_CONTEXT(2) 
PARAMETRIC_REPRESENTATION_CONTEXT() REPRESENTATION_CONTEXT('2D SPACE',''
  ) );
#646 = ORIENTED_EDGE('',*,*,#647,.F.);
#647 = EDGE_CURVE('',#578,#626,#648,.T.);
#648 = SURFACE_CURVE('',#649,(#654,#661),.PCURVE_S1.);
#649 = CIRCLE('',#650,1.5);
#650 = AXIS2_PLACEMENT_3D('',#651,#652,#653);
#651 = CARTESIAN_POINT('',(16.,1.307381,-22.));
#652 = DIRECTION('',(1.,-2.2E-16,3.3E-16));
#653 = DIRECTION('',(2.2E-16,1.,1.1E-16));
#654 = PCURVE('',#435,#655);
#655 = DEFINITIONAL_REPRESENTATION('',(#656),#660);
#656 = LINE('',#657,#658);
#657 = CARTESIAN_POINT('',(3.099742684753E-13,1.));
#658 = VECTOR('',#659,1.);
#659 = DIRECTION('',(1.,7.067899292143E-17));
#660 = ( GEOMETRIC_REPRESENTATION_CONTEXT(2) 
PARAMETRIC_REPRESENTATION_CONTEXT() REPRESENTATION_CONTEXT('2D SPACE',''
  ) );
#661 = PCURVE('',#541,#662);
#662 = DEFINITIONAL_REPRESENTATION('',(#663),#667);
#663 = CIRCLE('',#664,1.5);
#664 = AXIS2_PLACEMENT_2D('',#665,#666);
#665 = CARTESIAN_POINT('',(1.4381191E-16,-1.307381));
#666 = DIRECTION('',(2.2E-16,-1.));
#667 = ( GEOMETRIC_REPRESENTATION_CONTEXT(2) 
PARAMETRIC_REPRESENTATION_CONTEXT() REPRESENTATION_CONTEXT('2D SPACE',''
  ) );
#668 = ORIENTED_EDGE('',*,*,#577,.F.);
#669 = ADVANCED_FACE('',(#670),#406,.T.);
#670 = FACE_BOUND('',#671,.T.);
#671 = EDGE_LOOP('',(#672,#673,#674,#695));
#672 = ORIENTED_EDGE('',*,*,#390,.T.);
#673 = ORIENTED_EDGE('',*,*,#553,.T.);
#674 = ORIENTED_EDGE('',*,*,#675,.F.);
#675 = EDGE_CURVE('',#626,#525,#676,.T.);
#676 = SURFACE_CURVE('',#677,(#681,#688),.PCURVE_S1.);
#677 = LINE('',#678,#679);
#678 = CARTESIAN_POINT('',(16.,1.307381,-20.5));
#679 = VECTOR('',#680,1.);
#680 = DIRECTION('',(-2.2E-16,-1.,-1.1E-16));
#681 = PCURVE('',#406,#682);
#682 = DEFINITIONAL_REPRESENTATION('',(#683),#687);
#683 = LINE('',#684,#685);
#684 = CARTESIAN_POINT('',(5.015974481594,1.307381));
#685 = VECTOR('',#686,1.);
#686 = DIRECTION('',(-2.105273868268E-16,-1.));
#687 = ( GEOMETRIC_REPRESENTATION_CONTEXT(2) 
PARAMETRIC_REPRESENTATION_CONTEXT() REPRESENTATION_CONTEXT('2D SPACE',''
  ) );
#688 = PCURVE('',#541,#689);
#689 = DEFINITIONAL_REPRESENTATION('',(#690),#694);
#690 = LINE('',#691,#692);
#691 = CARTESIAN_POINT('',(1.5,-1.307381));
#692 = VECTOR('',#693,1.);
#693 = DIRECTION('',(-2.2E-16,1.));
#694 = ( GEOMETRIC_REPRESENTATION_CONTEXT(2) 
PARAMETRIC_REPRESENTATION_CONTEXT() REPRESENTATION_CONTEXT('2D SPACE',''
  ) );
#695 = ORIENTED_EDGE('',*,*,#625,.F.);
#696 = ADVANCED_FACE('',(#697),#541,.T.);
#697 = FACE_BOUND('',#698,.T.);
#698 = EDGE_LOOP('',(#699,#700,#701,#702));
#699 = ORIENTED_EDGE('',*,*,#524,.T.);
#700 = ORIENTED_EDGE('',*,*,#599,.T.);
#701 = ORIENTED_EDGE('',*,*,#647,.T.);
#702 = ORIENTED_EDGE('',*,*,#675,.T.);
#703 = ( GEOMETRIC_REPRESENTATION_CONTEXT(3) 
GLOBAL_UNCERTAINTY_ASSIGNED_CONTEXT((#707)) GLOBAL_UNIT_ASSIGNED_CONTEXT
((#704,#705,#706)) REPRESENTATION_CONTEXT('Context #1',
  '3D Context with UNIT and UNCERTAINTY') );
#704 = ( LENGTH_UNIT() NAMED_UNIT(*) SI_UNIT(.MILLI.,.METRE.) );
#705 = ( NAMED_UNIT(*) PLANE_ANGLE_UNIT() SI_UNIT($,.RADIAN.) );
#706 = ( NAMED_UNIT(*) SI_UNIT($,.STERADIAN.) SOLID_ANGLE_UNIT() );
#707 = UNCERTAINTY_MEASURE_WITH_UNIT(LENGTH_MEASURE(1.E-07),#704,
  'distance_accuracy_value','confusion accuracy');
#708 = PRODUCT_RELATED_PRODUCT_CATEGORY('part',$,(#7));
ENDSEC;
END-ISO-10303-21;
