ISO-10303-21;
HEADER;
FILE_DESCRIPTION(('Open CASCADE Model'),'2;1');
FILE_NAME('Open CASCADE Shape Model','2026-08-13T22:16:56',('Author'),(
    'Open CASCADE'),'Open CASCADE STEP processor 7.9','Open CASCADE 7.9'
  ,'Unknown');
FILE_SCHEMA(('AUTOMOTIVE_DESIGN { 1 0 10303 214 1 1 1 1 }'));
ENDSEC;
DATA;
#1 = APPLICATION_PROTOCOL_DEFINITION('international standard',
  'automotive_design',2000,#2);
#2 = APPLICATION_CONTEXT(
  'core data for automotive mechanical design processes');
#3 = SHAPE_DEFINITION_REPRESENTATION(#4,#10);
#4 = PRODUCT_DEFINITION_SHAPE('','',#5);
#5 = PRODUCT_DEFINITION('design','',#6,#9);
#6 = PRODUCT_DEFINITION_FORMATION('','',#7);
#7 = PRODUCT('Open CASCADE STEP translator 7.9 264',
  'Open CASCADE STEP translator 7.9 264','',(#8));
#8 = PRODUCT_CONTEXT('',#2,'mechanical');
#9 = PRODUCT_DEFINITION_CONTEXT('part definition',#2,'design');
#10 = ADVANCED_BREP_SHAPE_REPRESENTATION('',(#11,#15),#1575);
#11 = AXIS2_PLACEMENT_3D('',#12,#13,#14);
#12 = CARTESIAN_POINT('',(0.,0.,0.));
#13 = DIRECTION('',(0.,0.,1.));
#14 = DIRECTION('',(1.,0.,-0.));
#15 = MANIFOLD_SOLID_BREP('',#16);
#16 = CLOSED_SHELL('',(#17,#130,#210,#512,#593,#673,#1060,#1130,#1157,
    #1207,#1281,#1333,#1406,#1458,#1506,#1513,#1540,#1567));
#17 = ADVANCED_FACE('',(#18),#33,.F.);
#18 = FACE_BOUND('',#19,.F.);
#19 = EDGE_LOOP('',(#20,#56,#80,#107,#108));
#20 = ORIENTED_EDGE('',*,*,#21,.F.);
#21 = EDGE_CURVE('',#22,#24,#26,.T.);
#22 = VERTEX_POINT('',#23);
#23 = CARTESIAN_POINT('',(-3.203822332676,160.16536525515,
    49.796734513627));
#24 = VERTEX_POINT('',#25);
#25 = CARTESIAN_POINT('',(-0.203822332676,163.16536525515,
    49.796734513627));
#26 = SURFACE_CURVE('',#27,(#32,#44),.PCURVE_S1.);
#27 = CIRCLE('',#28,3.);
#28 = AXIS2_PLACEMENT_3D('',#29,#30,#31);
#29 = CARTESIAN_POINT('',(-0.203822332676,160.16536525515,
    49.796734513627));
#30 = DIRECTION('',(1.021607975682E-14,-9.966702304196E-15,1.));
#31 = DIRECTION('',(-1.581875607867E-15,-1.,-9.966702304196E-15));
#32 = PCURVE('',#33,#38);
#33 = TOROIDAL_SURFACE('',#34,3.4,0.4);
#34 = AXIS2_PLACEMENT_3D('',#35,#36,#37);
#35 = CARTESIAN_POINT('',(-0.203822332676,160.16536525515,
    49.796734513627));
#36 = DIRECTION('',(1.021607975682E-14,-9.966702304196E-15,1.));
#37 = DIRECTION('',(1.,-9.99676258567E-30,-1.021607975682E-14));
#38 = DEFINITIONAL_REPRESENTATION('',(#39),#43);
#39 = LINE('',#40,#41);
#40 = CARTESIAN_POINT('',(-1.570796326795,3.14159265359));
#41 = VECTOR('',#42,1.);
#42 = DIRECTION('',(1.,0.));
#43 = ( GEOMETRIC_REPRESENTATION_CONTEXT(2) 
PARAMETRIC_REPRESENTATION_CONTEXT() REPRESENTATION_CONTEXT('2D SPACE',''
  ) );
#44 = PCURVE('',#45,#50);
#45 = CYLINDRICAL_SURFACE('',#46,3.);
#46 = AXIS2_PLACEMENT_3D('',#47,#48,#49);
#47 = CARTESIAN_POINT('',(-0.203822332676,160.16536525515,
    50.196734513627));
#48 = DIRECTION('',(-2.719262146894E-32,-1.224646799147E-16,-1.));
#49 = DIRECTION('',(-2.22044604925E-16,-1.,1.224646799147E-16));
#50 = DEFINITIONAL_REPRESENTATION('',(#51),#55);
#51 = LINE('',#52,#53);
#52 = CARTESIAN_POINT('',(6.28318530718,0.4));
#53 = VECTOR('',#54,1.);
#54 = DIRECTION('',(-1.,0.));
#55 = ( GEOMETRIC_REPRESENTATION_CONTEXT(2) 
PARAMETRIC_REPRESENTATION_CONTEXT() REPRESENTATION_CONTEXT('2D SPACE',''
  ) );
#56 = ORIENTED_EDGE('',*,*,#57,.T.);
#57 = EDGE_CURVE('',#22,#58,#60,.T.);
#58 = VERTEX_POINT('',#59);
#59 = CARTESIAN_POINT('',(-3.603822332676,160.16536525515,
    50.196734513627));
#60 = SEAM_CURVE('',#61,(#66,#73),.PCURVE_S1.);
#61 = CIRCLE('',#62,0.4);
#62 = AXIS2_PLACEMENT_3D('',#63,#64,#65);
#63 = CARTESIAN_POINT('',(-3.603822332676,160.16536525515,
    49.796734513627));
#64 = DIRECTION('',(-9.318115686487E-29,-1.,-9.966702304196E-15));
#65 = DIRECTION('',(-1.,-3.36311631438E-44,9.349246523159E-15));
#66 = PCURVE('',#33,#67);
#67 = DEFINITIONAL_REPRESENTATION('',(#68),#72);
#68 = LINE('',#69,#70);
#69 = CARTESIAN_POINT('',(3.14159265359,6.283185307179));
#70 = VECTOR('',#71,1.);
#71 = DIRECTION('',(-5.371603462028E-15,-1.));
#72 = ( GEOMETRIC_REPRESENTATION_CONTEXT(2) 
PARAMETRIC_REPRESENTATION_CONTEXT() REPRESENTATION_CONTEXT('2D SPACE',''
  ) );
#73 = PCURVE('',#33,#74);
#74 = DEFINITIONAL_REPRESENTATION('',(#75),#79);
#75 = LINE('',#76,#77);
#76 = CARTESIAN_POINT('',(9.424777960769,6.283185307179));
#77 = VECTOR('',#78,1.);
#78 = DIRECTION('',(-5.371603462028E-15,-1.));
#79 = ( GEOMETRIC_REPRESENTATION_CONTEXT(2) 
PARAMETRIC_REPRESENTATION_CONTEXT() REPRESENTATION_CONTEXT('2D SPACE',''
  ) );
#80 = ORIENTED_EDGE('',*,*,#81,.F.);
#81 = EDGE_CURVE('',#58,#58,#82,.T.);
#82 = SURFACE_CURVE('',#83,(#88,#95),.PCURVE_S1.);
#83 = CIRCLE('',#84,3.4);
#84 = AXIS2_PLACEMENT_3D('',#85,#86,#87);
#85 = CARTESIAN_POINT('',(-0.203822332676,160.16536525515,
    50.196734513627));
#86 = DIRECTION('',(-1.021607975682E-14,9.966702304196E-15,-1.));
#87 = DIRECTION('',(-1.581875607867E-15,-1.,-9.966702304196E-15));
#88 = PCURVE('',#33,#89);
#89 = DEFINITIONAL_REPRESENTATION('',(#90),#94);
#90 = LINE('',#91,#92);
#91 = CARTESIAN_POINT('',(10.995574287564,1.570796326795));
#92 = VECTOR('',#93,1.);
#93 = DIRECTION('',(-1.,0.));
#94 = ( GEOMETRIC_REPRESENTATION_CONTEXT(2) 
PARAMETRIC_REPRESENTATION_CONTEXT() REPRESENTATION_CONTEXT('2D SPACE',''
  ) );
#95 = PCURVE('',#96,#101);
#96 = PLANE('',#97);
#97 = AXIS2_PLACEMENT_3D('',#98,#99,#100);
#98 = CARTESIAN_POINT('',(-0.203822332677,160.16536525515,
    50.196734513627));
#99 = DIRECTION('',(-1.021607975682E-14,9.966702304196E-15,-1.));
#100 = DIRECTION('',(-2.220445030504E-16,-1.,-9.966702304196E-15));
#101 = DEFINITIONAL_REPRESENTATION('',(#102),#106);
#102 = CIRCLE('',#103,3.4);
#103 = AXIS2_PLACEMENT_2D('',#104,#105);
#104 = CARTESIAN_POINT('',(-1.58758184337E-28,-7.149836278586E-13));
#105 = DIRECTION('',(1.,1.359831104816E-15));
#106 = ( GEOMETRIC_REPRESENTATION_CONTEXT(2) 
PARAMETRIC_REPRESENTATION_CONTEXT() REPRESENTATION_CONTEXT('2D SPACE',''
  ) );
#107 = ORIENTED_EDGE('',*,*,#57,.F.);
#108 = ORIENTED_EDGE('',*,*,#109,.F.);
#109 = EDGE_CURVE('',#24,#22,#110,.T.);
#110 = SURFACE_CURVE('',#111,(#116,#123),.PCURVE_S1.);
#111 = CIRCLE('',#112,3.);
#112 = AXIS2_PLACEMENT_3D('',#113,#114,#115);
#113 = CARTESIAN_POINT('',(-0.203822332676,160.16536525515,
    49.796734513627));
#114 = DIRECTION('',(1.021607975682E-14,-9.966702304196E-15,1.));
#115 = DIRECTION('',(-1.581875607867E-15,-1.,-9.966702304196E-15));
#116 = PCURVE('',#33,#117);
#117 = DEFINITIONAL_REPRESENTATION('',(#118),#122);
#118 = LINE('',#119,#120);
#119 = CARTESIAN_POINT('',(4.712388980385,3.14159265359));
#120 = VECTOR('',#121,1.);
#121 = DIRECTION('',(1.,-2.827159716856E-16));
#122 = ( GEOMETRIC_REPRESENTATION_CONTEXT(2) 
PARAMETRIC_REPRESENTATION_CONTEXT() REPRESENTATION_CONTEXT('2D SPACE',''
  ) );
#123 = PCURVE('',#45,#124);
#124 = DEFINITIONAL_REPRESENTATION('',(#125),#129);
#125 = LINE('',#126,#127);
#126 = CARTESIAN_POINT('',(6.28318530718,0.4));
#127 = VECTOR('',#128,1.);
#128 = DIRECTION('',(-1.,0.));
#129 = ( GEOMETRIC_REPRESENTATION_CONTEXT(2) 
PARAMETRIC_REPRESENTATION_CONTEXT() REPRESENTATION_CONTEXT('2D SPACE',''
  ) );
#130 = ADVANCED_FACE('',(#131),#45,.T.);
#131 = FACE_BOUND('',#132,.T.);
#132 = EDGE_LOOP('',(#133,#164,#186,#207,#208,#209));
#133 = ORIENTED_EDGE('',*,*,#134,.F.);
#134 = EDGE_CURVE('',#135,#137,#139,.T.);
#135 = VERTEX_POINT('',#136);
#136 = CARTESIAN_POINT('',(-2.065918397984,162.51751283631,
    44.671734513625));
#137 = VERTEX_POINT('',#138);
#138 = CARTESIAN_POINT('',(-0.203822332676,163.16536525515,
    44.671734513625));
#139 = SURFACE_CURVE('',#140,(#145,#152),.PCURVE_S1.);
#140 = CIRCLE('',#141,3.);
#141 = AXIS2_PLACEMENT_3D('',#142,#143,#144);
#142 = CARTESIAN_POINT('',(-0.203822332676,160.16536525515,
    44.671734513625));
#143 = DIRECTION('',(0.,0.,-1.));
#144 = DIRECTION('',(0.620698688436,-0.784049193721,0.));
#145 = PCURVE('',#45,#146);
#146 = DEFINITIONAL_REPRESENTATION('',(#147),#151);
#147 = LINE('',#148,#149);
#148 = CARTESIAN_POINT('',(-0.669633517524,5.525000000002));
#149 = VECTOR('',#150,1.);
#150 = DIRECTION('',(1.,0.));
#151 = ( GEOMETRIC_REPRESENTATION_CONTEXT(2) 
PARAMETRIC_REPRESENTATION_CONTEXT() REPRESENTATION_CONTEXT('2D SPACE',''
  ) );
#152 = PCURVE('',#153,#158);
#153 = TOROIDAL_SURFACE('',#154,2.525000000002,0.474999999998);
#154 = AXIS2_PLACEMENT_3D('',#155,#156,#157);
#155 = CARTESIAN_POINT('',(-0.203822332676,160.16536525515,
    44.671734513625));
#156 = DIRECTION('',(0.,0.,-1.));
#157 = DIRECTION('',(0.620698688436,-0.784049193721,0.));
#158 = DEFINITIONAL_REPRESENTATION('',(#159),#163);
#159 = LINE('',#160,#161);
#160 = CARTESIAN_POINT('',(-6.28318530718,0.));
#161 = VECTOR('',#162,1.);
#162 = DIRECTION('',(1.,0.));
#163 = ( GEOMETRIC_REPRESENTATION_CONTEXT(2) 
PARAMETRIC_REPRESENTATION_CONTEXT() REPRESENTATION_CONTEXT('2D SPACE',''
  ) );
#164 = ORIENTED_EDGE('',*,*,#165,.F.);
#165 = EDGE_CURVE('',#137,#135,#166,.T.);
#166 = SURFACE_CURVE('',#167,(#172,#179),.PCURVE_S1.);
#167 = CIRCLE('',#168,3.);
#168 = AXIS2_PLACEMENT_3D('',#169,#170,#171);
#169 = CARTESIAN_POINT('',(-0.203822332676,160.16536525515,
    44.671734513625));
#170 = DIRECTION('',(0.,0.,-1.));
#171 = DIRECTION('',(0.620698688436,-0.784049193721,0.));
#172 = PCURVE('',#45,#173);
#173 = DEFINITIONAL_REPRESENTATION('',(#174),#178);
#174 = LINE('',#175,#176);
#175 = CARTESIAN_POINT('',(-6.952818824704,5.525000000002));
#176 = VECTOR('',#177,1.);
#177 = DIRECTION('',(1.,0.));
#178 = ( GEOMETRIC_REPRESENTATION_CONTEXT(2) 
PARAMETRIC_REPRESENTATION_CONTEXT() REPRESENTATION_CONTEXT('2D SPACE',''
  ) );
#179 = PCURVE('',#153,#180);
#180 = DEFINITIONAL_REPRESENTATION('',(#181),#185);
#181 = LINE('',#182,#183);
#182 = CARTESIAN_POINT('',(-6.28318530718,0.));
#183 = VECTOR('',#184,1.);
#184 = DIRECTION('',(1.,0.));
#185 = ( GEOMETRIC_REPRESENTATION_CONTEXT(2) 
PARAMETRIC_REPRESENTATION_CONTEXT() REPRESENTATION_CONTEXT('2D SPACE',''
  ) );
#186 = ORIENTED_EDGE('',*,*,#187,.T.);
#187 = EDGE_CURVE('',#137,#24,#188,.T.);
#188 = SEAM_CURVE('',#189,(#193,#200),.PCURVE_S1.);
#189 = LINE('',#190,#191);
#190 = CARTESIAN_POINT('',(-0.203822332676,163.16536525515,
    50.196734513627));
#191 = VECTOR('',#192,1.);
#192 = DIRECTION('',(2.719262146894E-32,1.224646799147E-16,1.));
#193 = PCURVE('',#45,#194);
#194 = DEFINITIONAL_REPRESENTATION('',(#195),#199);
#195 = LINE('',#196,#197);
#196 = CARTESIAN_POINT('',(-3.14159265359,0.));
#197 = VECTOR('',#198,1.);
#198 = DIRECTION('',(0.,-1.));
#199 = ( GEOMETRIC_REPRESENTATION_CONTEXT(2) 
PARAMETRIC_REPRESENTATION_CONTEXT() REPRESENTATION_CONTEXT('2D SPACE',''
  ) );
#200 = PCURVE('',#45,#201);
#201 = DEFINITIONAL_REPRESENTATION('',(#202),#206);
#202 = LINE('',#203,#204);
#203 = CARTESIAN_POINT('',(3.14159265359,0.));
#204 = VECTOR('',#205,1.);
#205 = DIRECTION('',(0.,-1.));
#206 = ( GEOMETRIC_REPRESENTATION_CONTEXT(2) 
PARAMETRIC_REPRESENTATION_CONTEXT() REPRESENTATION_CONTEXT('2D SPACE',''
  ) );
#207 = ORIENTED_EDGE('',*,*,#21,.F.);
#208 = ORIENTED_EDGE('',*,*,#109,.F.);
#209 = ORIENTED_EDGE('',*,*,#187,.F.);
#210 = ADVANCED_FACE('',(#211,#439,#474,#509),#96,.T.);
#211 = FACE_BOUND('',#212,.T.);
#212 = EDGE_LOOP('',(#213,#244,#272,#300,#328,#357,#385,#413));
#213 = ORIENTED_EDGE('',*,*,#214,.T.);
#214 = EDGE_CURVE('',#215,#217,#219,.T.);
#215 = VERTEX_POINT('',#216);
#216 = CARTESIAN_POINT('',(3.796177667323,157.16536525515,
    50.196734513627));
#217 = VERTEX_POINT('',#218);
#218 = CARTESIAN_POINT('',(-4.203822332677,157.16536525515,
    50.196734513627));
#219 = SURFACE_CURVE('',#220,(#225,#232),.PCURVE_S1.);
#220 = CIRCLE('',#221,5.);
#221 = AXIS2_PLACEMENT_3D('',#222,#223,#224);
#222 = CARTESIAN_POINT('',(-0.203822332677,160.16536525515,
    50.196734513627));
#223 = DIRECTION('',(-1.021607975682E-14,9.966702304196E-15,-1.));
#224 = DIRECTION('',(-2.220445030504E-16,-1.,-9.966702304196E-15));
#225 = PCURVE('',#96,#226);
#226 = DEFINITIONAL_REPRESENTATION('',(#227),#231);
#227 = CIRCLE('',#228,5.);
#228 = AXIS2_PLACEMENT_2D('',#229,#230);
#229 = CARTESIAN_POINT('',(0.,0.));
#230 = DIRECTION('',(1.,-8.265072086835E-33));
#231 = ( GEOMETRIC_REPRESENTATION_CONTEXT(2) 
PARAMETRIC_REPRESENTATION_CONTEXT() REPRESENTATION_CONTEXT('2D SPACE',''
  ) );
#232 = PCURVE('',#233,#238);
#233 = CYLINDRICAL_SURFACE('',#234,5.);
#234 = AXIS2_PLACEMENT_3D('',#235,#236,#237);
#235 = CARTESIAN_POINT('',(-0.203822332676,160.16536525515,
    52.196734513627));
#236 = DIRECTION('',(-1.7763568394E-14,8.759319517087E-15,-1.));
#237 = DIRECTION('',(-2.220445030503E-16,-1.,-8.759319517087E-15));
#238 = DEFINITIONAL_REPRESENTATION('',(#239),#243);
#239 = LINE('',#240,#241);
#240 = CARTESIAN_POINT('',(-6.28318530718,2.));
#241 = VECTOR('',#242,1.);
#242 = DIRECTION('',(1.,3.065011970152E-14));
#243 = ( GEOMETRIC_REPRESENTATION_CONTEXT(2) 
PARAMETRIC_REPRESENTATION_CONTEXT() REPRESENTATION_CONTEXT('2D SPACE',''
  ) );
#244 = ORIENTED_EDGE('',*,*,#245,.T.);
#245 = EDGE_CURVE('',#217,#246,#248,.T.);
#246 = VERTEX_POINT('',#247);
#247 = CARTESIAN_POINT('',(-9.203822332677,157.16536525515,
    50.196734513627));
#248 = SURFACE_CURVE('',#249,(#253,#260),.PCURVE_S1.);
#249 = LINE('',#250,#251);
#250 = CARTESIAN_POINT('',(-9.203822332677,157.16536525515,
    50.196734513627));
#251 = VECTOR('',#252,1.);
#252 = DIRECTION('',(-1.,2.22044604925E-16,0.));
#253 = PCURVE('',#96,#254);
#254 = DEFINITIONAL_REPRESENTATION('',(#255),#259);
#255 = LINE('',#256,#257);
#256 = CARTESIAN_POINT('',(2.999999999999,9.000000000001));
#257 = VECTOR('',#258,1.);
#258 = DIRECTION('',(-1.018746789975E-22,1.));
#259 = ( GEOMETRIC_REPRESENTATION_CONTEXT(2) 
PARAMETRIC_REPRESENTATION_CONTEXT() REPRESENTATION_CONTEXT('2D SPACE',''
  ) );
#260 = PCURVE('',#261,#266);
#261 = PLANE('',#262);
#262 = AXIS2_PLACEMENT_3D('',#263,#264,#265);
#263 = CARTESIAN_POINT('',(-4.203822332677,157.16536525515,
    52.196734513627));
#264 = DIRECTION('',(-2.22044604925E-16,-1.,0.));
#265 = DIRECTION('',(-1.,2.22044604925E-16,0.));
#266 = DEFINITIONAL_REPRESENTATION('',(#267),#271);
#267 = LINE('',#268,#269);
#268 = CARTESIAN_POINT('',(5.,2.));
#269 = VECTOR('',#270,1.);
#270 = DIRECTION('',(1.,0.));
#271 = ( GEOMETRIC_REPRESENTATION_CONTEXT(2) 
PARAMETRIC_REPRESENTATION_CONTEXT() REPRESENTATION_CONTEXT('2D SPACE',''
  ) );
#272 = ORIENTED_EDGE('',*,*,#273,.T.);
#273 = EDGE_CURVE('',#246,#274,#276,.T.);
#274 = VERTEX_POINT('',#275);
#275 = CARTESIAN_POINT('',(-9.203822332677,163.16536525515,
    50.196734513627));
#276 = SURFACE_CURVE('',#277,(#281,#288),.PCURVE_S1.);
#277 = LINE('',#278,#279);
#278 = CARTESIAN_POINT('',(-9.203822332677,163.16536525515,
    50.196734513627));
#279 = VECTOR('',#280,1.);
#280 = DIRECTION('',(-5.699144859742E-15,1.,0.));
#281 = PCURVE('',#96,#282);
#282 = DEFINITIONAL_REPRESENTATION('',(#283),#287);
#283 = LINE('',#284,#285);
#284 = CARTESIAN_POINT('',(-3.000000000001,9.000000000001));
#285 = VECTOR('',#286,1.);
#286 = DIRECTION('',(-1.,5.921189362793E-15));
#287 = ( GEOMETRIC_REPRESENTATION_CONTEXT(2) 
PARAMETRIC_REPRESENTATION_CONTEXT() REPRESENTATION_CONTEXT('2D SPACE',''
  ) );
#288 = PCURVE('',#289,#294);
#289 = PLANE('',#290);
#290 = AXIS2_PLACEMENT_3D('',#291,#292,#293);
#291 = CARTESIAN_POINT('',(-9.203822332677,157.16536525515,
    52.196734513627));
#292 = DIRECTION('',(-1.,-5.699144859742E-15,0.));
#293 = DIRECTION('',(-5.699144859742E-15,1.,0.));
#294 = DEFINITIONAL_REPRESENTATION('',(#295),#299);
#295 = LINE('',#296,#297);
#296 = CARTESIAN_POINT('',(6.,2.));
#297 = VECTOR('',#298,1.);
#298 = DIRECTION('',(1.,0.));
#299 = ( GEOMETRIC_REPRESENTATION_CONTEXT(2) 
PARAMETRIC_REPRESENTATION_CONTEXT() REPRESENTATION_CONTEXT('2D SPACE',''
  ) );
#300 = ORIENTED_EDGE('',*,*,#301,.T.);
#301 = EDGE_CURVE('',#274,#302,#304,.T.);
#302 = VERTEX_POINT('',#303);
#303 = CARTESIAN_POINT('',(-4.203822332677,163.16536525515,
    50.196734513627));
#304 = SURFACE_CURVE('',#305,(#309,#316),.PCURVE_S1.);
#305 = LINE('',#306,#307);
#306 = CARTESIAN_POINT('',(8.796177667323,163.16536525515,
    50.196734513627));
#307 = VECTOR('',#308,1.);
#308 = DIRECTION('',(1.,-2.22044604925E-16,0.));
#309 = PCURVE('',#96,#310);
#310 = DEFINITIONAL_REPRESENTATION('',(#311),#315);
#311 = LINE('',#312,#313);
#312 = CARTESIAN_POINT('',(-3.000000000001,-8.999999999999));
#313 = VECTOR('',#314,1.);
#314 = DIRECTION('',(1.018746789975E-22,-1.));
#315 = ( GEOMETRIC_REPRESENTATION_CONTEXT(2) 
PARAMETRIC_REPRESENTATION_CONTEXT() REPRESENTATION_CONTEXT('2D SPACE',''
  ) );
#316 = PCURVE('',#317,#322);
#317 = PLANE('',#318);
#318 = AXIS2_PLACEMENT_3D('',#319,#320,#321);
#319 = CARTESIAN_POINT('',(3.796177667323,163.16536525515,
    52.196734513627));
#320 = DIRECTION('',(2.22044604925E-16,1.,0.));
#321 = DIRECTION('',(1.,-2.22044604925E-16,0.));
#322 = DEFINITIONAL_REPRESENTATION('',(#323),#327);
#323 = LINE('',#324,#325);
#324 = CARTESIAN_POINT('',(5.,2.));
#325 = VECTOR('',#326,1.);
#326 = DIRECTION('',(1.,0.));
#327 = ( GEOMETRIC_REPRESENTATION_CONTEXT(2) 
PARAMETRIC_REPRESENTATION_CONTEXT() REPRESENTATION_CONTEXT('2D SPACE',''
  ) );
#328 = ORIENTED_EDGE('',*,*,#329,.T.);
#329 = EDGE_CURVE('',#302,#330,#332,.T.);
#330 = VERTEX_POINT('',#331);
#331 = CARTESIAN_POINT('',(3.796177667323,163.16536525515,
    50.196734513627));
#332 = SURFACE_CURVE('',#333,(#338,#345),.PCURVE_S1.);
#333 = CIRCLE('',#334,5.);
#334 = AXIS2_PLACEMENT_3D('',#335,#336,#337);
#335 = CARTESIAN_POINT('',(-0.203822332677,160.16536525515,
    50.196734513627));
#336 = DIRECTION('',(-1.021607975682E-14,9.966702304196E-15,-1.));
#337 = DIRECTION('',(-2.220445030504E-16,-1.,-9.966702304196E-15));
#338 = PCURVE('',#96,#339);
#339 = DEFINITIONAL_REPRESENTATION('',(#340),#344);
#340 = CIRCLE('',#341,5.);
#341 = AXIS2_PLACEMENT_2D('',#342,#343);
#342 = CARTESIAN_POINT('',(0.,0.));
#343 = DIRECTION('',(1.,-8.265072086835E-33));
#344 = ( GEOMETRIC_REPRESENTATION_CONTEXT(2) 
PARAMETRIC_REPRESENTATION_CONTEXT() REPRESENTATION_CONTEXT('2D SPACE',''
  ) );
#345 = PCURVE('',#346,#351);
#346 = CYLINDRICAL_SURFACE('',#347,5.);
#347 = AXIS2_PLACEMENT_3D('',#348,#349,#350);
#348 = CARTESIAN_POINT('',(-0.203822332676,160.16536525515,
    52.196734513627));
#349 = DIRECTION('',(-1.7763568394E-14,8.759319517087E-15,-1.));
#350 = DIRECTION('',(-6.118473113617E-14,1.,8.759319517088E-15));
#351 = DEFINITIONAL_REPRESENTATION('',(#352),#356);
#352 = LINE('',#353,#354);
#353 = CARTESIAN_POINT('',(3.14159265359,2.));
#354 = VECTOR('',#355,1.);
#355 = DIRECTION('',(1.,-3.065011970153E-14));
#356 = ( GEOMETRIC_REPRESENTATION_CONTEXT(2) 
PARAMETRIC_REPRESENTATION_CONTEXT() REPRESENTATION_CONTEXT('2D SPACE',''
  ) );
#357 = ORIENTED_EDGE('',*,*,#358,.T.);
#358 = EDGE_CURVE('',#330,#359,#361,.T.);
#359 = VERTEX_POINT('',#360);
#360 = CARTESIAN_POINT('',(8.796177667323,163.16536525515,
    50.196734513627));
#361 = SURFACE_CURVE('',#362,(#366,#373),.PCURVE_S1.);
#362 = LINE('',#363,#364);
#363 = CARTESIAN_POINT('',(8.796177667323,163.16536525515,
    50.196734513627));
#364 = VECTOR('',#365,1.);
#365 = DIRECTION('',(1.,-2.22044604925E-16,0.));
#366 = PCURVE('',#96,#367);
#367 = DEFINITIONAL_REPRESENTATION('',(#368),#372);
#368 = LINE('',#369,#370);
#369 = CARTESIAN_POINT('',(-3.000000000001,-8.999999999999));
#370 = VECTOR('',#371,1.);
#371 = DIRECTION('',(1.018746789975E-22,-1.));
#372 = ( GEOMETRIC_REPRESENTATION_CONTEXT(2) 
PARAMETRIC_REPRESENTATION_CONTEXT() REPRESENTATION_CONTEXT('2D SPACE',''
  ) );
#373 = PCURVE('',#374,#379);
#374 = PLANE('',#375);
#375 = AXIS2_PLACEMENT_3D('',#376,#377,#378);
#376 = CARTESIAN_POINT('',(3.796177667323,163.16536525515,
    52.196734513627));
#377 = DIRECTION('',(2.22044604925E-16,1.,0.));
#378 = DIRECTION('',(1.,-2.22044604925E-16,0.));
#379 = DEFINITIONAL_REPRESENTATION('',(#380),#384);
#380 = LINE('',#381,#382);
#381 = CARTESIAN_POINT('',(5.,2.));
#382 = VECTOR('',#383,1.);
#383 = DIRECTION('',(1.,0.));
#384 = ( GEOMETRIC_REPRESENTATION_CONTEXT(2) 
PARAMETRIC_REPRESENTATION_CONTEXT() REPRESENTATION_CONTEXT('2D SPACE',''
  ) );
#385 = ORIENTED_EDGE('',*,*,#386,.T.);
#386 = EDGE_CURVE('',#359,#387,#389,.T.);
#387 = VERTEX_POINT('',#388);
#388 = CARTESIAN_POINT('',(8.796177667323,157.16536525515,
    50.196734513627));
#389 = SURFACE_CURVE('',#390,(#394,#401),.PCURVE_S1.);
#390 = LINE('',#391,#392);
#391 = CARTESIAN_POINT('',(8.796177667323,157.16536525515,
    50.196734513627));
#392 = VECTOR('',#393,1.);
#393 = DIRECTION('',(-6.143234069593E-15,-1.,0.));
#394 = PCURVE('',#96,#395);
#395 = DEFINITIONAL_REPRESENTATION('',(#396),#400);
#396 = LINE('',#397,#398);
#397 = CARTESIAN_POINT('',(2.999999999999,-8.999999999999));
#398 = VECTOR('',#399,1.);
#399 = DIRECTION('',(1.,5.921189566542E-15));
#400 = ( GEOMETRIC_REPRESENTATION_CONTEXT(2) 
PARAMETRIC_REPRESENTATION_CONTEXT() REPRESENTATION_CONTEXT('2D SPACE',''
  ) );
#401 = PCURVE('',#402,#407);
#402 = PLANE('',#403);
#403 = AXIS2_PLACEMENT_3D('',#404,#405,#406);
#404 = CARTESIAN_POINT('',(8.796177667323,163.16536525515,
    52.196734513627));
#405 = DIRECTION('',(1.,-6.143234069593E-15,0.));
#406 = DIRECTION('',(-6.143234069593E-15,-1.,0.));
#407 = DEFINITIONAL_REPRESENTATION('',(#408),#412);
#408 = LINE('',#409,#410);
#409 = CARTESIAN_POINT('',(6.,2.));
#410 = VECTOR('',#411,1.);
#411 = DIRECTION('',(1.,0.));
#412 = ( GEOMETRIC_REPRESENTATION_CONTEXT(2) 
PARAMETRIC_REPRESENTATION_CONTEXT() REPRESENTATION_CONTEXT('2D SPACE',''
  ) );
#413 = ORIENTED_EDGE('',*,*,#414,.T.);
#414 = EDGE_CURVE('',#387,#215,#415,.T.);
#415 = SURFACE_CURVE('',#416,(#420,#427),.PCURVE_S1.);
#416 = LINE('',#417,#418);
#417 = CARTESIAN_POINT('',(-9.203822332677,157.16536525515,
    50.196734513627));
#418 = VECTOR('',#419,1.);
#419 = DIRECTION('',(-1.,2.22044604925E-16,0.));
#420 = PCURVE('',#96,#421);
#421 = DEFINITIONAL_REPRESENTATION('',(#422),#426);
#422 = LINE('',#423,#424);
#423 = CARTESIAN_POINT('',(2.999999999999,9.000000000001));
#424 = VECTOR('',#425,1.);
#425 = DIRECTION('',(-1.018746789975E-22,1.));
#426 = ( GEOMETRIC_REPRESENTATION_CONTEXT(2) 
PARAMETRIC_REPRESENTATION_CONTEXT() REPRESENTATION_CONTEXT('2D SPACE',''
  ) );
#427 = PCURVE('',#428,#433);
#428 = PLANE('',#429);
#429 = AXIS2_PLACEMENT_3D('',#430,#431,#432);
#430 = CARTESIAN_POINT('',(-4.203822332677,157.16536525515,
    52.196734513627));
#431 = DIRECTION('',(-2.22044604925E-16,-1.,0.));
#432 = DIRECTION('',(-1.,2.22044604925E-16,0.));
#433 = DEFINITIONAL_REPRESENTATION('',(#434),#438);
#434 = LINE('',#435,#436);
#435 = CARTESIAN_POINT('',(5.,2.));
#436 = VECTOR('',#437,1.);
#437 = DIRECTION('',(1.,0.));
#438 = ( GEOMETRIC_REPRESENTATION_CONTEXT(2) 
PARAMETRIC_REPRESENTATION_CONTEXT() REPRESENTATION_CONTEXT('2D SPACE',''
  ) );
#439 = FACE_BOUND('',#440,.T.);
#440 = EDGE_LOOP('',(#441));
#441 = ORIENTED_EDGE('',*,*,#442,.T.);
#442 = EDGE_CURVE('',#443,#443,#445,.T.);
#443 = VERTEX_POINT('',#444);
#444 = CARTESIAN_POINT('',(6.301704509025,158.66536525515,
    50.196734513627));
#445 = SURFACE_CURVE('',#446,(#451,#462),.PCURVE_S1.);
#446 = CIRCLE('',#447,1.5);
#447 = AXIS2_PLACEMENT_3D('',#448,#449,#450);
#448 = CARTESIAN_POINT('',(6.301704509025,160.16536525515,
    50.196734513627));
#449 = DIRECTION('',(0.,0.,1.));
#450 = DIRECTION('',(2.22044604925E-16,1.,-0.));
#451 = PCURVE('',#96,#452);
#452 = DEFINITIONAL_REPRESENTATION('',(#453),#461);
#453 = ( BOUNDED_CURVE() B_SPLINE_CURVE(2,(#454,#455,#456,#457,#458,#459
,#460),.UNSPECIFIED.,.T.,.F.) B_SPLINE_CURVE_WITH_KNOTS((1,2,2,2,2,1),(
    -2.094395102393,0.,2.094395102393,4.188790204786,6.28318530718,
8.377580409573),.UNSPECIFIED.) CURVE() GEOMETRIC_REPRESENTATION_ITEM() 
RATIONAL_B_SPLINE_CURVE((1.,0.5,1.,0.5,1.,0.5,1.)) REPRESENTATION_ITEM(
  '') );
#454 = CARTESIAN_POINT('',(-1.500000000001,-6.505526841702));
#455 = CARTESIAN_POINT('',(-1.500000000001,-3.907450630348));
#456 = CARTESIAN_POINT('',(0.749999999999,-5.206488736025));
#457 = CARTESIAN_POINT('',(2.999999999999,-6.505526841702));
#458 = CARTESIAN_POINT('',(0.749999999999,-7.804564947378));
#459 = CARTESIAN_POINT('',(-1.500000000001,-9.103603053055));
#460 = CARTESIAN_POINT('',(-1.500000000001,-6.505526841702));
#461 = ( GEOMETRIC_REPRESENTATION_CONTEXT(2) 
PARAMETRIC_REPRESENTATION_CONTEXT() REPRESENTATION_CONTEXT('2D SPACE',''
  ) );
#462 = PCURVE('',#463,#468);
#463 = CYLINDRICAL_SURFACE('',#464,1.5);
#464 = AXIS2_PLACEMENT_3D('',#465,#466,#467);
#465 = CARTESIAN_POINT('',(6.301704509025,160.16536525515,
    52.196734513627));
#466 = DIRECTION('',(0.,0.,-1.));
#467 = DIRECTION('',(2.22044604925E-16,1.,0.));
#468 = DEFINITIONAL_REPRESENTATION('',(#469),#473);
#469 = LINE('',#470,#471);
#470 = CARTESIAN_POINT('',(6.28318530718,2.));
#471 = VECTOR('',#472,1.);
#472 = DIRECTION('',(-1.,0.));
#473 = ( GEOMETRIC_REPRESENTATION_CONTEXT(2) 
PARAMETRIC_REPRESENTATION_CONTEXT() REPRESENTATION_CONTEXT('2D SPACE',''
  ) );
#474 = FACE_BOUND('',#475,.T.);
#475 = EDGE_LOOP('',(#476));
#476 = ORIENTED_EDGE('',*,*,#477,.T.);
#477 = EDGE_CURVE('',#478,#478,#480,.T.);
#478 = VERTEX_POINT('',#479);
#479 = CARTESIAN_POINT('',(-6.717020994192,158.66536525515,
    50.196734513627));
#480 = SURFACE_CURVE('',#481,(#486,#497),.PCURVE_S1.);
#481 = CIRCLE('',#482,1.5);
#482 = AXIS2_PLACEMENT_3D('',#483,#484,#485);
#483 = CARTESIAN_POINT('',(-6.717020994192,160.16536525515,
    50.196734513627));
#484 = DIRECTION('',(0.,0.,1.));
#485 = DIRECTION('',(2.22044604925E-16,1.,-0.));
#486 = PCURVE('',#96,#487);
#487 = DEFINITIONAL_REPRESENTATION('',(#488),#496);
#488 = ( BOUNDED_CURVE() B_SPLINE_CURVE(2,(#489,#490,#491,#492,#493,#494
,#495),.UNSPECIFIED.,.T.,.F.) B_SPLINE_CURVE_WITH_KNOTS((1,2,2,2,2,1),(
    -2.094395102393,0.,2.094395102393,4.188790204786,6.28318530718,
8.377580409573),.UNSPECIFIED.) CURVE() GEOMETRIC_REPRESENTATION_ITEM() 
RATIONAL_B_SPLINE_CURVE((1.,0.5,1.,0.5,1.,0.5,1.)) REPRESENTATION_ITEM(
  '') );
#489 = CARTESIAN_POINT('',(-1.500000000001,6.513198661515));
#490 = CARTESIAN_POINT('',(-1.500000000001,9.111274872868));
#491 = CARTESIAN_POINT('',(0.749999999999,7.812236767192));
#492 = CARTESIAN_POINT('',(2.999999999999,6.513198661515));
#493 = CARTESIAN_POINT('',(0.749999999999,5.214160555838));
#494 = CARTESIAN_POINT('',(-1.500000000001,3.915122450162));
#495 = CARTESIAN_POINT('',(-1.500000000001,6.513198661515));
#496 = ( GEOMETRIC_REPRESENTATION_CONTEXT(2) 
PARAMETRIC_REPRESENTATION_CONTEXT() REPRESENTATION_CONTEXT('2D SPACE',''
  ) );
#497 = PCURVE('',#498,#503);
#498 = CYLINDRICAL_SURFACE('',#499,1.5);
#499 = AXIS2_PLACEMENT_3D('',#500,#501,#502);
#500 = CARTESIAN_POINT('',(-6.717020994192,160.16536525515,
    52.196734513627));
#501 = DIRECTION('',(0.,0.,-1.));
#502 = DIRECTION('',(2.22044604925E-16,1.,0.));
#503 = DEFINITIONAL_REPRESENTATION('',(#504),#508);
#504 = LINE('',#505,#506);
#505 = CARTESIAN_POINT('',(6.28318530718,2.));
#506 = VECTOR('',#507,1.);
#507 = DIRECTION('',(-1.,0.));
#508 = ( GEOMETRIC_REPRESENTATION_CONTEXT(2) 
PARAMETRIC_REPRESENTATION_CONTEXT() REPRESENTATION_CONTEXT('2D SPACE',''
  ) );
#509 = FACE_BOUND('',#510,.T.);
#510 = EDGE_LOOP('',(#511));
#511 = ORIENTED_EDGE('',*,*,#81,.F.);
#512 = ADVANCED_FACE('',(#513),#153,.T.);
#513 = FACE_BOUND('',#514,.T.);
#514 = EDGE_LOOP('',(#515,#546,#568,#590,#591,#592));
#515 = ORIENTED_EDGE('',*,*,#516,.T.);
#516 = EDGE_CURVE('',#517,#519,#521,.T.);
#517 = VERTEX_POINT('',#518);
#518 = CARTESIAN_POINT('',(-1.476254643972,161.77266610228,
    44.671734513625));
#519 = VERTEX_POINT('',#520);
#520 = CARTESIAN_POINT('',(-0.20382233268,158.11536525516,
    44.671734513625));
#521 = SURFACE_CURVE('',#522,(#527,#534),.PCURVE_S1.);
#522 = CIRCLE('',#523,2.050000000004);
#523 = AXIS2_PLACEMENT_3D('',#524,#525,#526);
#524 = CARTESIAN_POINT('',(-0.203822332676,160.16536525515,
    44.671734513625));
#525 = DIRECTION('',(0.,0.,1.));
#526 = DIRECTION('',(0.620698688436,-0.784049193721,0.));
#527 = PCURVE('',#153,#528);
#528 = DEFINITIONAL_REPRESENTATION('',(#529),#533);
#529 = LINE('',#530,#531);
#530 = CARTESIAN_POINT('',(6.28318530718,3.14159265359));
#531 = VECTOR('',#532,1.);
#532 = DIRECTION('',(-1.,7.18602833471E-16));
#533 = ( GEOMETRIC_REPRESENTATION_CONTEXT(2) 
PARAMETRIC_REPRESENTATION_CONTEXT() REPRESENTATION_CONTEXT('2D SPACE',''
  ) );
#534 = PCURVE('',#535,#540);
#535 = CYLINDRICAL_SURFACE('',#536,2.05);
#536 = AXIS2_PLACEMENT_3D('',#537,#538,#539);
#537 = CARTESIAN_POINT('',(-0.20382233268,160.16536525516,
    52.196734513627));
#538 = DIRECTION('',(0.,0.,-1.));
#539 = DIRECTION('',(2.22044604925E-16,1.,0.));
#540 = DEFINITIONAL_REPRESENTATION('',(#541),#545);
#541 = LINE('',#542,#543);
#542 = CARTESIAN_POINT('',(8.755144443246,7.525000000002));
#543 = VECTOR('',#544,1.);
#544 = DIRECTION('',(-1.,0.));
#545 = ( GEOMETRIC_REPRESENTATION_CONTEXT(2) 
PARAMETRIC_REPRESENTATION_CONTEXT() REPRESENTATION_CONTEXT('2D SPACE',''
  ) );
#546 = ORIENTED_EDGE('',*,*,#547,.T.);
#547 = EDGE_CURVE('',#519,#517,#548,.T.);
#548 = SURFACE_CURVE('',#549,(#554,#561),.PCURVE_S1.);
#549 = CIRCLE('',#550,2.050000000004);
#550 = AXIS2_PLACEMENT_3D('',#551,#552,#553);
#551 = CARTESIAN_POINT('',(-0.203822332676,160.16536525515,
    44.671734513625));
#552 = DIRECTION('',(0.,0.,1.));
#553 = DIRECTION('',(0.620698688436,-0.784049193721,0.));
#554 = PCURVE('',#153,#555);
#555 = DEFINITIONAL_REPRESENTATION('',(#556),#560);
#556 = LINE('',#557,#558);
#557 = CARTESIAN_POINT('',(6.28318530718,3.14159265359));
#558 = VECTOR('',#559,1.);
#559 = DIRECTION('',(-1.,0.));
#560 = ( GEOMETRIC_REPRESENTATION_CONTEXT(2) 
PARAMETRIC_REPRESENTATION_CONTEXT() REPRESENTATION_CONTEXT('2D SPACE',''
  ) );
#561 = PCURVE('',#535,#562);
#562 = DEFINITIONAL_REPRESENTATION('',(#563),#567);
#563 = LINE('',#564,#565);
#564 = CARTESIAN_POINT('',(15.038329750423,7.525000000002));
#565 = VECTOR('',#566,1.);
#566 = DIRECTION('',(-1.,0.));
#567 = ( GEOMETRIC_REPRESENTATION_CONTEXT(2) 
PARAMETRIC_REPRESENTATION_CONTEXT() REPRESENTATION_CONTEXT('2D SPACE',''
  ) );
#568 = ORIENTED_EDGE('',*,*,#569,.T.);
#569 = EDGE_CURVE('',#517,#135,#570,.T.);
#570 = SEAM_CURVE('',#571,(#576,#583),.PCURVE_S1.);
#571 = CIRCLE('',#572,0.474999999998);
#572 = AXIS2_PLACEMENT_3D('',#573,#574,#575);
#573 = CARTESIAN_POINT('',(-1.771086520978,162.1450894693,
    44.671734513625));
#574 = DIRECTION('',(0.784049193721,0.620698688436,0.));
#575 = DIRECTION('',(-0.620698688436,0.784049193721,0.));
#576 = PCURVE('',#153,#577);
#577 = DEFINITIONAL_REPRESENTATION('',(#578),#582);
#578 = LINE('',#579,#580);
#579 = CARTESIAN_POINT('',(-3.14159265359,6.28318530718));
#580 = VECTOR('',#581,1.);
#581 = DIRECTION('',(-2.120369787642E-15,-1.));
#582 = ( GEOMETRIC_REPRESENTATION_CONTEXT(2) 
PARAMETRIC_REPRESENTATION_CONTEXT() REPRESENTATION_CONTEXT('2D SPACE',''
  ) );
#583 = PCURVE('',#153,#584);
#584 = DEFINITIONAL_REPRESENTATION('',(#585),#589);
#585 = LINE('',#586,#587);
#586 = CARTESIAN_POINT('',(3.14159265359,6.28318530718));
#587 = VECTOR('',#588,1.);
#588 = DIRECTION('',(-2.120369787642E-15,-1.));
#589 = ( GEOMETRIC_REPRESENTATION_CONTEXT(2) 
PARAMETRIC_REPRESENTATION_CONTEXT() REPRESENTATION_CONTEXT('2D SPACE',''
  ) );
#590 = ORIENTED_EDGE('',*,*,#134,.T.);
#591 = ORIENTED_EDGE('',*,*,#165,.T.);
#592 = ORIENTED_EDGE('',*,*,#569,.F.);
#593 = ADVANCED_FACE('',(#594),#535,.F.);
#594 = FACE_BOUND('',#595,.F.);
#595 = EDGE_LOOP('',(#596,#619,#648,#670,#671,#672));
#596 = ORIENTED_EDGE('',*,*,#597,.T.);
#597 = EDGE_CURVE('',#519,#598,#600,.T.);
#598 = VERTEX_POINT('',#599);
#599 = CARTESIAN_POINT('',(-0.20382233268,158.11536525516,
    49.196734513627));
#600 = SEAM_CURVE('',#601,(#605,#612),.PCURVE_S1.);
#601 = LINE('',#602,#603);
#602 = CARTESIAN_POINT('',(-0.20382233268,158.11536525516,
    52.196734513627));
#603 = VECTOR('',#604,1.);
#604 = DIRECTION('',(0.,0.,1.));
#605 = PCURVE('',#535,#606);
#606 = DEFINITIONAL_REPRESENTATION('',(#607),#611);
#607 = LINE('',#608,#609);
#608 = CARTESIAN_POINT('',(3.14159265359,0.));
#609 = VECTOR('',#610,1.);
#610 = DIRECTION('',(0.,-1.));
#611 = ( GEOMETRIC_REPRESENTATION_CONTEXT(2) 
PARAMETRIC_REPRESENTATION_CONTEXT() REPRESENTATION_CONTEXT('2D SPACE',''
  ) );
#612 = PCURVE('',#535,#613);
#613 = DEFINITIONAL_REPRESENTATION('',(#614),#618);
#614 = LINE('',#615,#616);
#615 = CARTESIAN_POINT('',(9.424777960769,0.));
#616 = VECTOR('',#617,1.);
#617 = DIRECTION('',(0.,-1.));
#618 = ( GEOMETRIC_REPRESENTATION_CONTEXT(2) 
PARAMETRIC_REPRESENTATION_CONTEXT() REPRESENTATION_CONTEXT('2D SPACE',''
  ) );
#619 = ORIENTED_EDGE('',*,*,#620,.T.);
#620 = EDGE_CURVE('',#598,#621,#623,.T.);
#621 = VERTEX_POINT('',#622);
#622 = CARTESIAN_POINT('',(-2.25382233268,160.16536525516,
    49.196734513627));
#623 = SURFACE_CURVE('',#624,(#629,#636),.PCURVE_S1.);
#624 = CIRCLE('',#625,2.05);
#625 = AXIS2_PLACEMENT_3D('',#626,#627,#628);
#626 = CARTESIAN_POINT('',(-0.20382233268,160.16536525516,
    49.196734513627));
#627 = DIRECTION('',(-1.021607975682E-14,9.966702304196E-15,-1.));
#628 = DIRECTION('',(-1.473034691059E-14,1.,9.966702304196E-15));
#629 = PCURVE('',#535,#630);
#630 = DEFINITIONAL_REPRESENTATION('',(#631),#635);
#631 = LINE('',#632,#633);
#632 = CARTESIAN_POINT('',(-1.50990331349E-14,3.));
#633 = VECTOR('',#634,1.);
#634 = DIRECTION('',(1.,-2.714073328182E-14));
#635 = ( GEOMETRIC_REPRESENTATION_CONTEXT(2) 
PARAMETRIC_REPRESENTATION_CONTEXT() REPRESENTATION_CONTEXT('2D SPACE',''
  ) );
#636 = PCURVE('',#637,#642);
#637 = TOROIDAL_SURFACE('',#638,5.05,3.);
#638 = AXIS2_PLACEMENT_3D('',#639,#640,#641);
#639 = CARTESIAN_POINT('',(-0.20382233268,160.16536525516,
    49.196734513627));
#640 = DIRECTION('',(1.021607975682E-14,-9.966702304196E-15,1.));
#641 = DIRECTION('',(1.,5.051126100583E-30,-1.021607975682E-14));
#642 = DEFINITIONAL_REPRESENTATION('',(#643),#647);
#643 = LINE('',#644,#645);
#644 = CARTESIAN_POINT('',(7.853981633974,3.14159265359));
#645 = VECTOR('',#646,1.);
#646 = DIRECTION('',(-1.,0.));
#647 = ( GEOMETRIC_REPRESENTATION_CONTEXT(2) 
PARAMETRIC_REPRESENTATION_CONTEXT() REPRESENTATION_CONTEXT('2D SPACE',''
  ) );
#648 = ORIENTED_EDGE('',*,*,#649,.T.);
#649 = EDGE_CURVE('',#621,#598,#650,.T.);
#650 = SURFACE_CURVE('',#651,(#656,#663),.PCURVE_S1.);
#651 = CIRCLE('',#652,2.05);
#652 = AXIS2_PLACEMENT_3D('',#653,#654,#655);
#653 = CARTESIAN_POINT('',(-0.20382233268,160.16536525516,
    49.196734513627));
#654 = DIRECTION('',(-1.021607975682E-14,9.966702304196E-15,-1.));
#655 = DIRECTION('',(-1.473034691059E-14,1.,9.966702304196E-15));
#656 = PCURVE('',#535,#657);
#657 = DEFINITIONAL_REPRESENTATION('',(#658),#662);
#658 = LINE('',#659,#660);
#659 = CARTESIAN_POINT('',(-1.42108547152E-14,3.));
#660 = VECTOR('',#661,1.);
#661 = DIRECTION('',(1.,9.046911093941E-15));
#662 = ( GEOMETRIC_REPRESENTATION_CONTEXT(2) 
PARAMETRIC_REPRESENTATION_CONTEXT() REPRESENTATION_CONTEXT('2D SPACE',''
  ) );
#663 = PCURVE('',#637,#664);
#664 = DEFINITIONAL_REPRESENTATION('',(#665),#669);
#665 = LINE('',#666,#667);
#666 = CARTESIAN_POINT('',(14.137166941154,3.14159265359));
#667 = VECTOR('',#668,1.);
#668 = DIRECTION('',(-1.,0.));
#669 = ( GEOMETRIC_REPRESENTATION_CONTEXT(2) 
PARAMETRIC_REPRESENTATION_CONTEXT() REPRESENTATION_CONTEXT('2D SPACE',''
  ) );
#670 = ORIENTED_EDGE('',*,*,#597,.F.);
#671 = ORIENTED_EDGE('',*,*,#547,.T.);
#672 = ORIENTED_EDGE('',*,*,#516,.T.);
#673 = ADVANCED_FACE('',(#674),#637,.T.);
#674 = FACE_BOUND('',#675,.T.);
#675 = EDGE_LOOP('',(#676,#677,#701,#725,#758,#782,#806,#830,#863,#910,
    #938,#962,#986,#1010,#1038,#1058,#1059));
#676 = ORIENTED_EDGE('',*,*,#620,.T.);
#677 = ORIENTED_EDGE('',*,*,#678,.T.);
#678 = EDGE_CURVE('',#621,#679,#681,.T.);
#679 = VERTEX_POINT('',#680);
#680 = CARTESIAN_POINT('',(-5.217020994192,160.16536525516,
    52.196508782048));
#681 = SEAM_CURVE('',#682,(#687,#694),.PCURVE_S1.);
#682 = CIRCLE('',#683,3.);
#683 = AXIS2_PLACEMENT_3D('',#684,#685,#686);
#684 = CARTESIAN_POINT('',(-5.25382233268,160.16536525516,
    49.196734513627));
#685 = DIRECTION('',(-9.896880635958E-29,-1.,-9.966702304196E-15));
#686 = DIRECTION('',(-1.,2.24207754292E-44,9.92994506497E-15));
#687 = PCURVE('',#637,#688);
#688 = DEFINITIONAL_REPRESENTATION('',(#689),#693);
#689 = LINE('',#690,#691);
#690 = CARTESIAN_POINT('',(3.14159265359,6.28318530718));
#691 = VECTOR('',#692,1.);
#692 = DIRECTION('',(0.,-1.));
#693 = ( GEOMETRIC_REPRESENTATION_CONTEXT(2) 
PARAMETRIC_REPRESENTATION_CONTEXT() REPRESENTATION_CONTEXT('2D SPACE',''
  ) );
#694 = PCURVE('',#637,#695);
#695 = DEFINITIONAL_REPRESENTATION('',(#696),#700);
#696 = LINE('',#697,#698);
#697 = CARTESIAN_POINT('',(9.424777960769,6.28318530718));
#698 = VECTOR('',#699,1.);
#699 = DIRECTION('',(0.,-1.));
#700 = ( GEOMETRIC_REPRESENTATION_CONTEXT(2) 
PARAMETRIC_REPRESENTATION_CONTEXT() REPRESENTATION_CONTEXT('2D SPACE',''
  ) );
#701 = ORIENTED_EDGE('',*,*,#702,.T.);
#702 = EDGE_CURVE('',#679,#703,#705,.T.);
#703 = VERTEX_POINT('',#704);
#704 = CARTESIAN_POINT('',(-5.245450894726,159.87470833995,
    52.196734513627));
#705 = SURFACE_CURVE('',#706,(#713,#719),.PCURVE_S1.);
#706 = B_SPLINE_CURVE_WITH_KNOTS('',3,(#707,#708,#709,#710,#711,#712),
  .UNSPECIFIED.,.F.,.F.,(4,2,4),(0.437056159041,0.442903249795,
    0.46501195941),.UNSPECIFIED.);
#707 = CARTESIAN_POINT('',(-5.217020994192,160.16536525516,
    52.196508782048));
#708 = CARTESIAN_POINT('',(-5.217020994192,160.14495031219,
    52.196508782048));
#709 = CARTESIAN_POINT('',(-5.217437758274,160.12451783789,
    52.196515573335));
#710 = CARTESIAN_POINT('',(-5.221433405684,160.02680278062,
    52.196576423346));
#711 = CARTESIAN_POINT('',(-5.230554604991,159.95012692942,
    52.196734513627));
#712 = CARTESIAN_POINT('',(-5.245450894726,159.87470833995,
    52.196734513627));
#713 = PCURVE('',#637,#714);
#714 = DEFINITIONAL_REPRESENTATION('',(#715),#718);
#715 = B_SPLINE_CURVE_WITH_KNOTS('',1,(#716,#717),.UNSPECIFIED.,.F.,.F.,
  (2,2),(0.437056159041,0.46501195941),.PIECEWISE_BEZIER_KNOTS.);
#716 = CARTESIAN_POINT('',(3.14159265359,1.583063747308));
#717 = CARTESIAN_POINT('',(3.199180303119,1.570796326795));
#718 = ( GEOMETRIC_REPRESENTATION_CONTEXT(2) 
PARAMETRIC_REPRESENTATION_CONTEXT() REPRESENTATION_CONTEXT('2D SPACE',''
  ) );
#719 = PCURVE('',#498,#720);
#720 = DEFINITIONAL_REPRESENTATION('',(#721),#724);
#721 = B_SPLINE_CURVE_WITH_KNOTS('',1,(#722,#723),.UNSPECIFIED.,.F.,.F.,
  (2,2),(0.437056159041,0.46501195941),.PIECEWISE_BEZIER_KNOTS.);
#722 = CARTESIAN_POINT('',(1.570796326794,2.257315781051E-04));
#723 = CARTESIAN_POINT('',(1.765801160245,-9.947598300641E-14));
#724 = ( GEOMETRIC_REPRESENTATION_CONTEXT(2) 
PARAMETRIC_REPRESENTATION_CONTEXT() REPRESENTATION_CONTEXT('2D SPACE',''
  ) );
#725 = ORIENTED_EDGE('',*,*,#726,.T.);
#726 = EDGE_CURVE('',#703,#727,#729,.T.);
#727 = VERTEX_POINT('',#728);
#728 = CARTESIAN_POINT('',(-4.266149252068,157.16536525515,
    52.196734513627));
#729 = SURFACE_CURVE('',#730,(#735,#742),.PCURVE_S1.);
#730 = CIRCLE('',#731,5.05);
#731 = AXIS2_PLACEMENT_3D('',#732,#733,#734);
#732 = CARTESIAN_POINT('',(-0.20382233268,160.16536525516,
    52.196734513627));
#733 = DIRECTION('',(1.021607975682E-14,-9.966702304196E-15,1.));
#734 = DIRECTION('',(-1.473034691059E-14,1.,9.966702304196E-15));
#735 = PCURVE('',#637,#736);
#736 = DEFINITIONAL_REPRESENTATION('',(#737),#741);
#737 = LINE('',#738,#739);
#738 = CARTESIAN_POINT('',(1.570796326795,1.570796326795));
#739 = VECTOR('',#740,1.);
#740 = DIRECTION('',(1.,9.595568391208E-15));
#741 = ( GEOMETRIC_REPRESENTATION_CONTEXT(2) 
PARAMETRIC_REPRESENTATION_CONTEXT() REPRESENTATION_CONTEXT('2D SPACE',''
  ) );
#742 = PCURVE('',#743,#748);
#743 = PLANE('',#744);
#744 = AXIS2_PLACEMENT_3D('',#745,#746,#747);
#745 = CARTESIAN_POINT('',(-0.203822332676,160.16536525515,
    52.196734513627));
#746 = DIRECTION('',(-1.021607975682E-14,9.966702304196E-15,-1.));
#747 = DIRECTION('',(-2.220445030504E-16,-1.,-9.966702304196E-15));
#748 = DEFINITIONAL_REPRESENTATION('',(#749),#757);
#749 = ( BOUNDED_CURVE() B_SPLINE_CURVE(2,(#750,#751,#752,#753,#754,#755
,#756),.UNSPECIFIED.,.T.,.F.) B_SPLINE_CURVE_WITH_KNOTS((1,2,2,2,2,1),(
    -2.094395102393,0.,2.094395102393,4.188790204786,6.28318530718,
8.377580409573),.UNSPECIFIED.) CURVE() GEOMETRIC_REPRESENTATION_ITEM() 
RATIONAL_B_SPLINE_CURVE((1.,0.5,1.,0.5,1.,0.5,1.)) REPRESENTATION_ITEM(
  '') );
#750 = CARTESIAN_POINT('',(-5.050000000003,3.170533813538E-12));
#751 = CARTESIAN_POINT('',(-5.050000000003,8.746856578226));
#752 = CARTESIAN_POINT('',(2.524999999997,4.373428289114));
#753 = CARTESIAN_POINT('',(10.099999999997,2.945241976888E-12));
#754 = CARTESIAN_POINT('',(2.524999999997,-4.373428289108));
#755 = CARTESIAN_POINT('',(-5.050000000003,-8.74685657822));
#756 = CARTESIAN_POINT('',(-5.050000000003,3.170533813538E-12));
#757 = ( GEOMETRIC_REPRESENTATION_CONTEXT(2) 
PARAMETRIC_REPRESENTATION_CONTEXT() REPRESENTATION_CONTEXT('2D SPACE',''
  ) );
#758 = ORIENTED_EDGE('',*,*,#759,.T.);
#759 = EDGE_CURVE('',#727,#760,#762,.T.);
#760 = VERTEX_POINT('',#761);
#761 = CARTESIAN_POINT('',(-4.203822332677,157.16536525515,
    52.196317818021));
#762 = SURFACE_CURVE('',#763,(#768,#774),.PCURVE_S1.);
#763 = B_SPLINE_CURVE_WITH_KNOTS('',3,(#764,#765,#766,#767),
  .UNSPECIFIED.,.F.,.F.,(4,4),(1.347156204994,1.3533407673),
  .PIECEWISE_BEZIER_KNOTS.);
#764 = CARTESIAN_POINT('',(-4.266149252068,157.16536525515,
    52.196734513627));
#765 = CARTESIAN_POINT('',(-4.24553404438,157.16536525515,
    52.196734513627));
#766 = CARTESIAN_POINT('',(-4.224753072578,157.16536525515,
    52.196596933322));
#767 = CARTESIAN_POINT('',(-4.203822332677,157.16536525515,
    52.196317818021));
#768 = PCURVE('',#637,#769);
#769 = DEFINITIONAL_REPRESENTATION('',(#770),#773);
#770 = B_SPLINE_CURVE_WITH_KNOTS('',1,(#771,#772),.UNSPECIFIED.,.F.,.F.,
  (2,2),(1.347156204994,1.3533407673),.PIECEWISE_BEZIER_KNOTS.);
#771 = CARTESIAN_POINT('',(3.777688516161,1.570796326795));
#772 = CARTESIAN_POINT('',(3.785093762384,1.587463765163));
#773 = ( GEOMETRIC_REPRESENTATION_CONTEXT(2) 
PARAMETRIC_REPRESENTATION_CONTEXT() REPRESENTATION_CONTEXT('2D SPACE',''
  ) );
#774 = PCURVE('',#261,#775);
#775 = DEFINITIONAL_REPRESENTATION('',(#776),#781);
#776 = B_SPLINE_CURVE_WITH_KNOTS('',3,(#777,#778,#779,#780),
  .UNSPECIFIED.,.F.,.F.,(4,4),(1.347156204994,1.3533407673),
  .PIECEWISE_BEZIER_KNOTS.);
#777 = CARTESIAN_POINT('',(6.232691939061E-02,0.));
#778 = CARTESIAN_POINT('',(4.171171170332E-02,0.));
#779 = CARTESIAN_POINT('',(2.093073990055E-02,1.375803051005E-04));
#780 = CARTESIAN_POINT('',(-2.300382107023E-13,4.166956058E-04));
#781 = ( GEOMETRIC_REPRESENTATION_CONTEXT(2) 
PARAMETRIC_REPRESENTATION_CONTEXT() REPRESENTATION_CONTEXT('2D SPACE',''
  ) );
#782 = ORIENTED_EDGE('',*,*,#783,.T.);
#783 = EDGE_CURVE('',#760,#784,#786,.T.);
#784 = VERTEX_POINT('',#785);
#785 = CARTESIAN_POINT('',(3.796177667324,157.16536525515,
    52.196317818021));
#786 = SURFACE_CURVE('',#787,(#792,#799),.PCURVE_S1.);
#787 = CIRCLE('',#788,5.);
#788 = AXIS2_PLACEMENT_3D('',#789,#790,#791);
#789 = CARTESIAN_POINT('',(-0.20382233268,160.16536525516,
    52.196317818021));
#790 = DIRECTION('',(1.7763568394E-14,-8.759319517087E-15,1.));
#791 = DIRECTION('',(-2.220445030503E-16,-1.,-8.759319517087E-15));
#792 = PCURVE('',#637,#793);
#793 = DEFINITIONAL_REPRESENTATION('',(#794),#798);
#794 = LINE('',#795,#796);
#795 = CARTESIAN_POINT('',(-1.570796326795,1.587463765163));
#796 = VECTOR('',#797,1.);
#797 = DIRECTION('',(1.,-6.584986654627E-15));
#798 = ( GEOMETRIC_REPRESENTATION_CONTEXT(2) 
PARAMETRIC_REPRESENTATION_CONTEXT() REPRESENTATION_CONTEXT('2D SPACE',''
  ) );
#799 = PCURVE('',#233,#800);
#800 = DEFINITIONAL_REPRESENTATION('',(#801),#805);
#801 = LINE('',#802,#803);
#802 = CARTESIAN_POINT('',(6.28318530718,4.166956058E-04));
#803 = VECTOR('',#804,1.);
#804 = DIRECTION('',(-1.,0.));
#805 = ( GEOMETRIC_REPRESENTATION_CONTEXT(2) 
PARAMETRIC_REPRESENTATION_CONTEXT() REPRESENTATION_CONTEXT('2D SPACE',''
  ) );
#806 = ORIENTED_EDGE('',*,*,#807,.T.);
#807 = EDGE_CURVE('',#784,#808,#810,.T.);
#808 = VERTEX_POINT('',#809);
#809 = CARTESIAN_POINT('',(3.858504586709,157.16536525515,
    52.196734513627));
#810 = SURFACE_CURVE('',#811,(#816,#822),.PCURVE_S1.);
#811 = B_SPLINE_CURVE_WITH_KNOTS('',3,(#812,#813,#814,#815),
  .UNSPECIFIED.,.F.,.F.,(4,4),(2.126756945156,2.132941507462),
  .PIECEWISE_BEZIER_KNOTS.);
#812 = CARTESIAN_POINT('',(3.796177667324,157.16536525515,
    52.196317818021));
#813 = CARTESIAN_POINT('',(3.817108407223,157.16536525515,
    52.196596933321));
#814 = CARTESIAN_POINT('',(3.837889379023,157.16536525515,
    52.196734513627));
#815 = CARTESIAN_POINT('',(3.858504586709,157.16536525515,
    52.196734513627));
#816 = PCURVE('',#637,#817);
#817 = DEFINITIONAL_REPRESENTATION('',(#818),#821);
#818 = B_SPLINE_CURVE_WITH_KNOTS('',1,(#819,#820),.UNSPECIFIED.,.F.,.F.,
  (2,2),(2.126756945156,2.132941507462),.PIECEWISE_BEZIER_KNOTS.);
#819 = CARTESIAN_POINT('',(5.639684198386,1.587463765162));
#820 = CARTESIAN_POINT('',(5.647089444608,1.570796326795));
#821 = ( GEOMETRIC_REPRESENTATION_CONTEXT(2) 
PARAMETRIC_REPRESENTATION_CONTEXT() REPRESENTATION_CONTEXT('2D SPACE',''
  ) );
#822 = PCURVE('',#428,#823);
#823 = DEFINITIONAL_REPRESENTATION('',(#824),#829);
#824 = B_SPLINE_CURVE_WITH_KNOTS('',3,(#825,#826,#827,#828),
  .UNSPECIFIED.,.F.,.F.,(4,4),(2.126756945156,2.132941507462),
  .PIECEWISE_BEZIER_KNOTS.);
#825 = CARTESIAN_POINT('',(-8.000000000001,4.166956058E-04));
#826 = CARTESIAN_POINT('',(-8.0209307399,1.375803051999E-04));
#827 = CARTESIAN_POINT('',(-8.0417117117,0.));
#828 = CARTESIAN_POINT('',(-8.062326919386,0.));
#829 = ( GEOMETRIC_REPRESENTATION_CONTEXT(2) 
PARAMETRIC_REPRESENTATION_CONTEXT() REPRESENTATION_CONTEXT('2D SPACE',''
  ) );
#830 = ORIENTED_EDGE('',*,*,#831,.T.);
#831 = EDGE_CURVE('',#808,#832,#834,.T.);
#832 = VERTEX_POINT('',#833);
#833 = CARTESIAN_POINT('',(4.836075363827,159.84609858175,
    52.196734513627));
#834 = SURFACE_CURVE('',#835,(#840,#847),.PCURVE_S1.);
#835 = CIRCLE('',#836,5.05);
#836 = AXIS2_PLACEMENT_3D('',#837,#838,#839);
#837 = CARTESIAN_POINT('',(-0.20382233268,160.16536525516,
    52.196734513627));
#838 = DIRECTION('',(1.021607975682E-14,-9.966702304196E-15,1.));
#839 = DIRECTION('',(-1.473034691059E-14,1.,9.966702304196E-15));
#840 = PCURVE('',#637,#841);
#841 = DEFINITIONAL_REPRESENTATION('',(#842),#846);
#842 = LINE('',#843,#844);
#843 = CARTESIAN_POINT('',(1.570796326795,1.570796326795));
#844 = VECTOR('',#845,1.);
#845 = DIRECTION('',(1.,-9.690641949841E-15));
#846 = ( GEOMETRIC_REPRESENTATION_CONTEXT(2) 
PARAMETRIC_REPRESENTATION_CONTEXT() REPRESENTATION_CONTEXT('2D SPACE',''
  ) );
#847 = PCURVE('',#848,#853);
#848 = PLANE('',#849);
#849 = AXIS2_PLACEMENT_3D('',#850,#851,#852);
#850 = CARTESIAN_POINT('',(-0.203822332676,160.16536525515,
    52.196734513627));
#851 = DIRECTION('',(-1.021607975682E-14,9.966702304196E-15,-1.));
#852 = DIRECTION('',(-2.220445030504E-16,-1.,-9.966702304196E-15));
#853 = DEFINITIONAL_REPRESENTATION('',(#854),#862);
#854 = ( BOUNDED_CURVE() B_SPLINE_CURVE(2,(#855,#856,#857,#858,#859,#860
,#861),.UNSPECIFIED.,.T.,.F.) B_SPLINE_CURVE_WITH_KNOTS((1,2,2,2,2,1),(
    -2.094395102393,0.,2.094395102393,4.188790204786,6.28318530718,
8.377580409573),.UNSPECIFIED.) CURVE() GEOMETRIC_REPRESENTATION_ITEM() 
RATIONAL_B_SPLINE_CURVE((1.,0.5,1.,0.5,1.,0.5,1.)) REPRESENTATION_ITEM(
  '') );
#855 = CARTESIAN_POINT('',(-5.050000000003,3.170533813538E-12));
#856 = CARTESIAN_POINT('',(-5.050000000003,8.746856578226));
#857 = CARTESIAN_POINT('',(2.524999999997,4.373428289114));
#858 = CARTESIAN_POINT('',(10.099999999997,2.945241976888E-12));
#859 = CARTESIAN_POINT('',(2.524999999997,-4.373428289108));
#860 = CARTESIAN_POINT('',(-5.050000000003,-8.74685657822));
#861 = CARTESIAN_POINT('',(-5.050000000003,3.170533813538E-12));
#862 = ( GEOMETRIC_REPRESENTATION_CONTEXT(2) 
PARAMETRIC_REPRESENTATION_CONTEXT() REPRESENTATION_CONTEXT('2D SPACE',''
  ) );
#863 = ORIENTED_EDGE('',*,*,#864,.T.);
#864 = EDGE_CURVE('',#832,#865,#867,.T.);
#865 = VERTEX_POINT('',#866);
#866 = CARTESIAN_POINT('',(4.836075363827,160.48463192856,
    52.196734513627));
#867 = SURFACE_CURVE('',#868,(#875,#904),.PCURVE_S1.);
#868 = B_SPLINE_CURVE_WITH_KNOTS('',3,(#869,#870,#871,#872,#873,#874),
  .UNSPECIFIED.,.F.,.F.,(4,2,4),(0.382168632306,0.41438585854,
    0.439366794209),.UNSPECIFIED.);
#869 = CARTESIAN_POINT('',(4.836075363827,159.84609858175,
    52.196734513627));
#870 = CARTESIAN_POINT('',(4.810394684865,159.96398859249,
    52.196734513627));
#871 = CARTESIAN_POINT('',(4.798964449403,160.08484397835,
    52.196353001475));
#872 = CARTESIAN_POINT('',(4.804810788882,160.30010245396,
    52.196463817583));
#873 = CARTESIAN_POINT('',(4.816189315575,160.39334281407,
    52.196734513627));
#874 = CARTESIAN_POINT('',(4.836075363827,160.48463192856,
    52.196734513627));
#875 = PCURVE('',#637,#876);
#876 = DEFINITIONAL_REPRESENTATION('',(#877),#903);
#877 = B_SPLINE_CURVE_WITH_KNOTS('',3,(#878,#879,#880,#881,#882,#883,
    #884,#885,#886,#887,#888,#889,#890,#891,#892,#893,#894,#895,#896,
    #897,#898,#899,#900,#901,#902),.UNSPECIFIED.,.F.,.F.,(4,1,1,1,1,1,1,
    1,1,1,1,1,1,1,1,1,1,1,1,1,1,1,4),(0.382168632306,0.384768548756,
    0.387368465206,0.389968381656,0.392568298106,0.395168214556,
    0.397768131006,0.400368047457,0.402967963907,0.405567880357,
    0.408167796807,0.410767713257,0.413367629707,0.415967546158,
    0.418567462608,0.421167379058,0.423767295508,0.426367211958,
    0.428967128408,0.431567044858,0.434166961309,0.436766877759,
    0.439366794209),.QUASI_UNIFORM_KNOTS.);
#878 = CARTESIAN_POINT('',(6.219921992943,1.570796326795));
#879 = CARTESIAN_POINT('',(6.22177616939,1.571686247525));
#880 = CARTESIAN_POINT('',(6.22550038315,1.573387765859));
#881 = CARTESIAN_POINT('',(6.231130652824,1.575703468066));
#882 = CARTESIAN_POINT('',(6.236801265035,1.577780952749));
#883 = CARTESIAN_POINT('',(6.242508518568,1.579618704752));
#884 = CARTESIAN_POINT('',(6.248248656708,1.58121529379));
#885 = CARTESIAN_POINT('',(6.254017863635,1.58256938753));
#886 = CARTESIAN_POINT('',(6.25981227272,1.583679749913));
#887 = CARTESIAN_POINT('',(6.26562797153,1.584545244107));
#888 = CARTESIAN_POINT('',(6.271461009511,1.58516483262));
#889 = CARTESIAN_POINT('',(6.277307399449,1.585537585109));
#890 = CARTESIAN_POINT('',(6.28316314226,1.585662659274));
#891 = CARTESIAN_POINT('',(6.289024165573,1.585539382774));
#892 = CARTESIAN_POINT('',(6.294886584591,1.585166959078));
#893 = CARTESIAN_POINT('',(6.300731260737,1.584546802172));
#894 = CARTESIAN_POINT('',(6.306556677516,1.583680133024));
#895 = CARTESIAN_POINT('',(6.312358256067,1.582568285449));
#896 = CARTESIAN_POINT('',(6.318132293194,1.581212689661));
#897 = CARTESIAN_POINT('',(6.323874914094,1.579614873413));
#898 = CARTESIAN_POINT('',(6.329582359805,1.577776457733));
#899 = CARTESIAN_POINT('',(6.335250919735,1.575699157748));
#900 = CARTESIAN_POINT('',(6.340876947575,1.573384769518));
#901 = CARTESIAN_POINT('',(6.344596913842,1.571685062277));
#902 = CARTESIAN_POINT('',(6.346448621416,1.570796326795));
#903 = ( GEOMETRIC_REPRESENTATION_CONTEXT(2) 
PARAMETRIC_REPRESENTATION_CONTEXT() REPRESENTATION_CONTEXT('2D SPACE',''
  ) );
#904 = PCURVE('',#463,#905);
#905 = DEFINITIONAL_REPRESENTATION('',(#906),#909);
#906 = B_SPLINE_CURVE_WITH_KNOTS('',1,(#907,#908),.UNSPECIFIED.,.F.,.F.,
  (2,2),(0.382168632306,0.439366794209),.PIECEWISE_BEZIER_KNOTS.);
#907 = CARTESIAN_POINT('',(-1.785281523039,0.));
#908 = CARTESIAN_POINT('',(-1.35631113055,0.));
#909 = ( GEOMETRIC_REPRESENTATION_CONTEXT(2) 
PARAMETRIC_REPRESENTATION_CONTEXT() REPRESENTATION_CONTEXT('2D SPACE',''
  ) );
#910 = ORIENTED_EDGE('',*,*,#911,.T.);
#911 = EDGE_CURVE('',#865,#912,#914,.T.);
#912 = VERTEX_POINT('',#913);
#913 = CARTESIAN_POINT('',(3.858504586712,163.16536525515,
    52.196734513627));
#914 = SURFACE_CURVE('',#915,(#920,#927),.PCURVE_S1.);
#915 = CIRCLE('',#916,5.05);
#916 = AXIS2_PLACEMENT_3D('',#917,#918,#919);
#917 = CARTESIAN_POINT('',(-0.20382233268,160.16536525516,
    52.196734513627));
#918 = DIRECTION('',(1.021607975682E-14,-9.966702304196E-15,1.));
#919 = DIRECTION('',(-1.473034691059E-14,1.,9.966702304196E-15));
#920 = PCURVE('',#637,#921);
#921 = DEFINITIONAL_REPRESENTATION('',(#922),#926);
#922 = LINE('',#923,#924);
#923 = CARTESIAN_POINT('',(1.570796326795,1.570796326795));
#924 = VECTOR('',#925,1.);
#925 = DIRECTION('',(1.,-5.039133813921E-15));
#926 = ( GEOMETRIC_REPRESENTATION_CONTEXT(2) 
PARAMETRIC_REPRESENTATION_CONTEXT() REPRESENTATION_CONTEXT('2D SPACE',''
  ) );
#927 = PCURVE('',#848,#928);
#928 = DEFINITIONAL_REPRESENTATION('',(#929),#937);
#929 = ( BOUNDED_CURVE() B_SPLINE_CURVE(2,(#930,#931,#932,#933,#934,#935
,#936),.UNSPECIFIED.,.T.,.F.) B_SPLINE_CURVE_WITH_KNOTS((1,2,2,2,2,1),(
    -2.094395102393,0.,2.094395102393,4.188790204786,6.28318530718,
8.377580409573),.UNSPECIFIED.) CURVE() GEOMETRIC_REPRESENTATION_ITEM() 
RATIONAL_B_SPLINE_CURVE((1.,0.5,1.,0.5,1.,0.5,1.)) REPRESENTATION_ITEM(
  '') );
#930 = CARTESIAN_POINT('',(-5.050000000003,3.170533813538E-12));
#931 = CARTESIAN_POINT('',(-5.050000000003,8.746856578226));
#932 = CARTESIAN_POINT('',(2.524999999997,4.373428289114));
#933 = CARTESIAN_POINT('',(10.099999999997,2.945241976888E-12));
#934 = CARTESIAN_POINT('',(2.524999999997,-4.373428289108));
#935 = CARTESIAN_POINT('',(-5.050000000003,-8.74685657822));
#936 = CARTESIAN_POINT('',(-5.050000000003,3.170533813538E-12));
#937 = ( GEOMETRIC_REPRESENTATION_CONTEXT(2) 
PARAMETRIC_REPRESENTATION_CONTEXT() REPRESENTATION_CONTEXT('2D SPACE',''
  ) );
#938 = ORIENTED_EDGE('',*,*,#939,.T.);
#939 = EDGE_CURVE('',#912,#940,#942,.T.);
#940 = VERTEX_POINT('',#941);
#941 = CARTESIAN_POINT('',(3.796177667323,163.16536525515,
    52.196317818021));
#942 = SURFACE_CURVE('',#943,(#948,#954),.PCURVE_S1.);
#943 = B_SPLINE_CURVE_WITH_KNOTS('',3,(#944,#945,#946,#947),
  .UNSPECIFIED.,.F.,.F.,(4,4),(1.347156204994,1.3533407673),
  .PIECEWISE_BEZIER_KNOTS.);
#944 = CARTESIAN_POINT('',(3.858504586712,163.16536525515,
    52.196734513627));
#945 = CARTESIAN_POINT('',(3.837889379025,163.16536525515,
    52.196734513627));
#946 = CARTESIAN_POINT('',(3.817108407223,163.16536525515,
    52.196596933322));
#947 = CARTESIAN_POINT('',(3.796177667323,163.16536525515,
    52.196317818021));
#948 = PCURVE('',#637,#949);
#949 = DEFINITIONAL_REPRESENTATION('',(#950),#953);
#950 = B_SPLINE_CURVE_WITH_KNOTS('',1,(#951,#952),.UNSPECIFIED.,.F.,.F.,
  (2,2),(1.347156204994,1.3533407673),.PIECEWISE_BEZIER_KNOTS.);
#951 = CARTESIAN_POINT('',(6.91928116975,1.570796326795));
#952 = CARTESIAN_POINT('',(6.926686415972,1.587463765163));
#953 = ( GEOMETRIC_REPRESENTATION_CONTEXT(2) 
PARAMETRIC_REPRESENTATION_CONTEXT() REPRESENTATION_CONTEXT('2D SPACE',''
  ) );
#954 = PCURVE('',#374,#955);
#955 = DEFINITIONAL_REPRESENTATION('',(#956),#961);
#956 = B_SPLINE_CURVE_WITH_KNOTS('',3,(#957,#958,#959,#960),
  .UNSPECIFIED.,.F.,.F.,(4,4),(1.347156204994,1.3533407673),
  .PIECEWISE_BEZIER_KNOTS.);
#957 = CARTESIAN_POINT('',(6.232691938914E-02,0.));
#958 = CARTESIAN_POINT('',(4.171171170247E-02,0.));
#959 = CARTESIAN_POINT('',(2.093073990032E-02,1.375803051005E-04));
#960 = CARTESIAN_POINT('',(1.700861673726E-13,4.166956058E-04));
#961 = ( GEOMETRIC_REPRESENTATION_CONTEXT(2) 
PARAMETRIC_REPRESENTATION_CONTEXT() REPRESENTATION_CONTEXT('2D SPACE',''
  ) );
#962 = ORIENTED_EDGE('',*,*,#963,.T.);
#963 = EDGE_CURVE('',#940,#964,#966,.T.);
#964 = VERTEX_POINT('',#965);
#965 = CARTESIAN_POINT('',(-4.203822332676,163.16536525515,
    52.196317818021));
#966 = SURFACE_CURVE('',#967,(#972,#979),.PCURVE_S1.);
#967 = CIRCLE('',#968,5.);
#968 = AXIS2_PLACEMENT_3D('',#969,#970,#971);
#969 = CARTESIAN_POINT('',(-0.20382233268,160.16536525516,
    52.196317818021));
#970 = DIRECTION('',(1.7763568394E-14,-8.759319517087E-15,1.));
#971 = DIRECTION('',(-2.220445030503E-16,-1.,-8.759319517087E-15));
#972 = PCURVE('',#637,#973);
#973 = DEFINITIONAL_REPRESENTATION('',(#974),#978);
#974 = LINE('',#975,#976);
#975 = CARTESIAN_POINT('',(4.712388980385,1.587463765163));
#976 = VECTOR('',#977,1.);
#977 = DIRECTION('',(1.,5.746897444035E-15));
#978 = ( GEOMETRIC_REPRESENTATION_CONTEXT(2) 
PARAMETRIC_REPRESENTATION_CONTEXT() REPRESENTATION_CONTEXT('2D SPACE',''
  ) );
#979 = PCURVE('',#346,#980);
#980 = DEFINITIONAL_REPRESENTATION('',(#981),#985);
#981 = LINE('',#982,#983);
#982 = CARTESIAN_POINT('',(9.424777960769,4.166956058E-04));
#983 = VECTOR('',#984,1.);
#984 = DIRECTION('',(-1.,0.));
#985 = ( GEOMETRIC_REPRESENTATION_CONTEXT(2) 
PARAMETRIC_REPRESENTATION_CONTEXT() REPRESENTATION_CONTEXT('2D SPACE',''
  ) );
#986 = ORIENTED_EDGE('',*,*,#987,.T.);
#987 = EDGE_CURVE('',#964,#988,#990,.T.);
#988 = VERTEX_POINT('',#989);
#989 = CARTESIAN_POINT('',(-4.266149252071,163.16536525515,
    52.196734513627));
#990 = SURFACE_CURVE('',#991,(#996,#1002),.PCURVE_S1.);
#991 = B_SPLINE_CURVE_WITH_KNOTS('',3,(#992,#993,#994,#995),
  .UNSPECIFIED.,.F.,.F.,(4,4),(2.126756945156,2.132941507463),
  .PIECEWISE_BEZIER_KNOTS.);
#992 = CARTESIAN_POINT('',(-4.203822332676,163.16536525515,
    52.196317818021));
#993 = CARTESIAN_POINT('',(-4.224753072578,163.16536525515,
    52.196596933322));
#994 = CARTESIAN_POINT('',(-4.245534044382,163.16536525515,
    52.196734513627));
#995 = CARTESIAN_POINT('',(-4.266149252071,163.16536525515,
    52.196734513627));
#996 = PCURVE('',#637,#997);
#997 = DEFINITIONAL_REPRESENTATION('',(#998),#1001);
#998 = B_SPLINE_CURVE_WITH_KNOTS('',1,(#999,#1000),.UNSPECIFIED.,.F.,.F.
  ,(2,2),(2.126756945156,2.132941507463),.PIECEWISE_BEZIER_KNOTS.);
#999 = CARTESIAN_POINT('',(8.781276851976,1.587463765164));
#1000 = CARTESIAN_POINT('',(8.788682098199,1.570796326795));
#1001 = ( GEOMETRIC_REPRESENTATION_CONTEXT(2) 
PARAMETRIC_REPRESENTATION_CONTEXT() REPRESENTATION_CONTEXT('2D SPACE',''
  ) );
#1002 = PCURVE('',#317,#1003);
#1003 = DEFINITIONAL_REPRESENTATION('',(#1004),#1009);
#1004 = B_SPLINE_CURVE_WITH_KNOTS('',3,(#1005,#1006,#1007,#1008),
  .UNSPECIFIED.,.F.,.F.,(4,4),(2.126756945156,2.132941507463),
  .PIECEWISE_BEZIER_KNOTS.);
#1005 = CARTESIAN_POINT('',(-7.999999999999,4.166956058E-04));
#1006 = CARTESIAN_POINT('',(-8.020930739901,1.375803051005E-04));
#1007 = CARTESIAN_POINT('',(-8.041711711705,-9.947598300641E-14));
#1008 = CARTESIAN_POINT('',(-8.062326919394,-9.947598300641E-14));
#1009 = ( GEOMETRIC_REPRESENTATION_CONTEXT(2) 
PARAMETRIC_REPRESENTATION_CONTEXT() REPRESENTATION_CONTEXT('2D SPACE',''
  ) );
#1010 = ORIENTED_EDGE('',*,*,#1011,.T.);
#1011 = EDGE_CURVE('',#988,#1012,#1014,.T.);
#1012 = VERTEX_POINT('',#1013);
#1013 = CARTESIAN_POINT('',(-5.245450894726,160.45602217036,
    52.196734513627));
#1014 = SURFACE_CURVE('',#1015,(#1020,#1027),.PCURVE_S1.);
#1015 = CIRCLE('',#1016,5.05);
#1016 = AXIS2_PLACEMENT_3D('',#1017,#1018,#1019);
#1017 = CARTESIAN_POINT('',(-0.20382233268,160.16536525516,
    52.196734513627));
#1018 = DIRECTION('',(1.021607975682E-14,-9.966702304196E-15,1.));
#1019 = DIRECTION('',(-1.473034691059E-14,1.,9.966702304196E-15));
#1020 = PCURVE('',#637,#1021);
#1021 = DEFINITIONAL_REPRESENTATION('',(#1022),#1026);
#1022 = LINE('',#1023,#1024);
#1023 = CARTESIAN_POINT('',(7.853981633974,1.570796326795));
#1024 = VECTOR('',#1025,1.);
#1025 = DIRECTION('',(1.,6.524986506027E-15));
#1026 = ( GEOMETRIC_REPRESENTATION_CONTEXT(2) 
PARAMETRIC_REPRESENTATION_CONTEXT() REPRESENTATION_CONTEXT('2D SPACE',''
  ) );
#1027 = PCURVE('',#743,#1028);
#1028 = DEFINITIONAL_REPRESENTATION('',(#1029),#1037);
#1029 = ( BOUNDED_CURVE() B_SPLINE_CURVE(2,(#1030,#1031,#1032,#1033,
#1034,#1035,#1036),.UNSPECIFIED.,.T.,.F.) B_SPLINE_CURVE_WITH_KNOTS((1,2
    ,2,2,2,1),(-2.094395102393,0.,2.094395102393,4.188790204786,
6.28318530718,8.377580409573),.UNSPECIFIED.) CURVE() 
GEOMETRIC_REPRESENTATION_ITEM() RATIONAL_B_SPLINE_CURVE((1.,0.5,1.,0.5,
1.,0.5,1.)) REPRESENTATION_ITEM('') );
#1030 = CARTESIAN_POINT('',(-5.050000000003,3.170533813538E-12));
#1031 = CARTESIAN_POINT('',(-5.050000000003,8.746856578226));
#1032 = CARTESIAN_POINT('',(2.524999999997,4.373428289114));
#1033 = CARTESIAN_POINT('',(10.099999999997,2.945241976888E-12));
#1034 = CARTESIAN_POINT('',(2.524999999997,-4.373428289108));
#1035 = CARTESIAN_POINT('',(-5.050000000003,-8.74685657822));
#1036 = CARTESIAN_POINT('',(-5.050000000003,3.170533813538E-12));
#1037 = ( GEOMETRIC_REPRESENTATION_CONTEXT(2) 
PARAMETRIC_REPRESENTATION_CONTEXT() REPRESENTATION_CONTEXT('2D SPACE',''
  ) );
#1038 = ORIENTED_EDGE('',*,*,#1039,.T.);
#1039 = EDGE_CURVE('',#1012,#679,#1040,.T.);
#1040 = SURFACE_CURVE('',#1041,(#1046,#1052),.PCURVE_S1.);
#1041 = B_SPLINE_CURVE_WITH_KNOTS('',3,(#1042,#1043,#1044,#1045),
  .UNSPECIFIED.,.F.,.F.,(4,4),(0.409061628116,0.437056159041),
  .PIECEWISE_BEZIER_KNOTS.);
#1042 = CARTESIAN_POINT('',(-5.245450894726,160.45602217036,
    52.196734513627));
#1043 = CARTESIAN_POINT('',(-5.226573489269,160.36044754622,
    52.196734513627));
#1044 = CARTESIAN_POINT('',(-5.217020994192,160.26310732491,
    52.196508782048));
#1045 = CARTESIAN_POINT('',(-5.217020994192,160.16536525516,
    52.196508782048));
#1046 = PCURVE('',#637,#1047);
#1047 = DEFINITIONAL_REPRESENTATION('',(#1048),#1051);
#1048 = B_SPLINE_CURVE_WITH_KNOTS('',1,(#1049,#1050),.UNSPECIFIED.,.F.,
  .F.,(2,2),(0.409061628116,0.437056159041),.PIECEWISE_BEZIER_KNOTS.);
#1049 = CARTESIAN_POINT('',(9.367190311241,1.570796326795));
#1050 = CARTESIAN_POINT('',(9.424777960769,1.583063747308));
#1051 = ( GEOMETRIC_REPRESENTATION_CONTEXT(2) 
PARAMETRIC_REPRESENTATION_CONTEXT() REPRESENTATION_CONTEXT('2D SPACE',''
  ) );
#1052 = PCURVE('',#498,#1053);
#1053 = DEFINITIONAL_REPRESENTATION('',(#1054),#1057);
#1054 = B_SPLINE_CURVE_WITH_KNOTS('',1,(#1055,#1056),.UNSPECIFIED.,.F.,
  .F.,(2,2),(0.409061628116,0.437056159041),.PIECEWISE_BEZIER_KNOTS.);
#1055 = CARTESIAN_POINT('',(1.375791493344,-9.947598300641E-14));
#1056 = CARTESIAN_POINT('',(1.570796326794,2.257315781051E-04));
#1057 = ( GEOMETRIC_REPRESENTATION_CONTEXT(2) 
PARAMETRIC_REPRESENTATION_CONTEXT() REPRESENTATION_CONTEXT('2D SPACE',''
  ) );
#1058 = ORIENTED_EDGE('',*,*,#678,.F.);
#1059 = ORIENTED_EDGE('',*,*,#649,.T.);
#1060 = ADVANCED_FACE('',(#1061),#428,.T.);
#1061 = FACE_BOUND('',#1062,.T.);
#1062 = EDGE_LOOP('',(#1063,#1064,#1085,#1086,#1109));
#1063 = ORIENTED_EDGE('',*,*,#807,.F.);
#1064 = ORIENTED_EDGE('',*,*,#1065,.F.);
#1065 = EDGE_CURVE('',#215,#784,#1066,.T.);
#1066 = SURFACE_CURVE('',#1067,(#1071,#1078),.PCURVE_S1.);
#1067 = LINE('',#1068,#1069);
#1068 = CARTESIAN_POINT('',(3.796177667324,157.16536525515,
    52.196734513627));
#1069 = VECTOR('',#1070,1.);
#1070 = DIRECTION('',(1.7763568394E-14,-8.759319517087E-15,1.));
#1071 = PCURVE('',#428,#1072);
#1072 = DEFINITIONAL_REPRESENTATION('',(#1073),#1077);
#1073 = LINE('',#1074,#1075);
#1074 = CARTESIAN_POINT('',(-8.000000000001,9.947598300641E-14));
#1075 = VECTOR('',#1076,1.);
#1076 = DIRECTION('',(-1.7763568394E-14,-1.));
#1077 = ( GEOMETRIC_REPRESENTATION_CONTEXT(2) 
PARAMETRIC_REPRESENTATION_CONTEXT() REPRESENTATION_CONTEXT('2D SPACE',''
  ) );
#1078 = PCURVE('',#233,#1079);
#1079 = DEFINITIONAL_REPRESENTATION('',(#1080),#1084);
#1080 = LINE('',#1081,#1082);
#1081 = CARTESIAN_POINT('',(-0.927295218002,0.));
#1082 = VECTOR('',#1083,1.);
#1083 = DIRECTION('',(0.,-1.));
#1084 = ( GEOMETRIC_REPRESENTATION_CONTEXT(2) 
PARAMETRIC_REPRESENTATION_CONTEXT() REPRESENTATION_CONTEXT('2D SPACE',''
  ) );
#1085 = ORIENTED_EDGE('',*,*,#414,.F.);
#1086 = ORIENTED_EDGE('',*,*,#1087,.F.);
#1087 = EDGE_CURVE('',#1088,#387,#1090,.T.);
#1088 = VERTEX_POINT('',#1089);
#1089 = CARTESIAN_POINT('',(8.796177667323,157.16536525515,
    52.196734513627));
#1090 = SURFACE_CURVE('',#1091,(#1095,#1102),.PCURVE_S1.);
#1091 = LINE('',#1092,#1093);
#1092 = CARTESIAN_POINT('',(8.796177667323,157.16536525515,
    52.196734513627));
#1093 = VECTOR('',#1094,1.);
#1094 = DIRECTION('',(0.,0.,-1.));
#1095 = PCURVE('',#428,#1096);
#1096 = DEFINITIONAL_REPRESENTATION('',(#1097),#1101);
#1097 = LINE('',#1098,#1099);
#1098 = CARTESIAN_POINT('',(-13.,0.));
#1099 = VECTOR('',#1100,1.);
#1100 = DIRECTION('',(0.,1.));
#1101 = ( GEOMETRIC_REPRESENTATION_CONTEXT(2) 
PARAMETRIC_REPRESENTATION_CONTEXT() REPRESENTATION_CONTEXT('2D SPACE',''
  ) );
#1102 = PCURVE('',#402,#1103);
#1103 = DEFINITIONAL_REPRESENTATION('',(#1104),#1108);
#1104 = LINE('',#1105,#1106);
#1105 = CARTESIAN_POINT('',(6.,0.));
#1106 = VECTOR('',#1107,1.);
#1107 = DIRECTION('',(-0.,1.));
#1108 = ( GEOMETRIC_REPRESENTATION_CONTEXT(2) 
PARAMETRIC_REPRESENTATION_CONTEXT() REPRESENTATION_CONTEXT('2D SPACE',''
  ) );
#1109 = ORIENTED_EDGE('',*,*,#1110,.F.);
#1110 = EDGE_CURVE('',#808,#1088,#1111,.T.);
#1111 = SURFACE_CURVE('',#1112,(#1116,#1123),.PCURVE_S1.);
#1112 = LINE('',#1113,#1114);
#1113 = CARTESIAN_POINT('',(-9.203822332677,157.16536525515,
    52.196734513627));
#1114 = VECTOR('',#1115,1.);
#1115 = DIRECTION('',(1.,-2.22044604925E-16,0.));
#1116 = PCURVE('',#428,#1117);
#1117 = DEFINITIONAL_REPRESENTATION('',(#1118),#1122);
#1118 = LINE('',#1119,#1120);
#1119 = CARTESIAN_POINT('',(5.,0.));
#1120 = VECTOR('',#1121,1.);
#1121 = DIRECTION('',(-1.,-0.));
#1122 = ( GEOMETRIC_REPRESENTATION_CONTEXT(2) 
PARAMETRIC_REPRESENTATION_CONTEXT() REPRESENTATION_CONTEXT('2D SPACE',''
  ) );
#1123 = PCURVE('',#848,#1124);
#1124 = DEFINITIONAL_REPRESENTATION('',(#1125),#1129);
#1125 = LINE('',#1126,#1127);
#1126 = CARTESIAN_POINT('',(2.999999999999,9.000000000001));
#1127 = VECTOR('',#1128,1.);
#1128 = DIRECTION('',(1.018746789975E-22,-1.));
#1129 = ( GEOMETRIC_REPRESENTATION_CONTEXT(2) 
PARAMETRIC_REPRESENTATION_CONTEXT() REPRESENTATION_CONTEXT('2D SPACE',''
  ) );
#1130 = ADVANCED_FACE('',(#1131),#233,.T.);
#1131 = FACE_BOUND('',#1132,.T.);
#1132 = EDGE_LOOP('',(#1133,#1134,#1155,#1156));
#1133 = ORIENTED_EDGE('',*,*,#783,.F.);
#1134 = ORIENTED_EDGE('',*,*,#1135,.T.);
#1135 = EDGE_CURVE('',#760,#217,#1136,.T.);
#1136 = SURFACE_CURVE('',#1137,(#1141,#1148),.PCURVE_S1.);
#1137 = LINE('',#1138,#1139);
#1138 = CARTESIAN_POINT('',(-4.203822332677,157.16536525515,
    52.196734513627));
#1139 = VECTOR('',#1140,1.);
#1140 = DIRECTION('',(-1.7763568394E-14,8.759319517087E-15,-1.));
#1141 = PCURVE('',#233,#1142);
#1142 = DEFINITIONAL_REPRESENTATION('',(#1143),#1147);
#1143 = LINE('',#1144,#1145);
#1144 = CARTESIAN_POINT('',(0.927295218002,-5.684341886081E-14));
#1145 = VECTOR('',#1146,1.);
#1146 = DIRECTION('',(0.,1.));
#1147 = ( GEOMETRIC_REPRESENTATION_CONTEXT(2) 
PARAMETRIC_REPRESENTATION_CONTEXT() REPRESENTATION_CONTEXT('2D SPACE',''
  ) );
#1148 = PCURVE('',#261,#1149);
#1149 = DEFINITIONAL_REPRESENTATION('',(#1150),#1154);
#1150 = LINE('',#1151,#1152);
#1151 = CARTESIAN_POINT('',(-2.096101070492E-13,-9.947598300641E-14));
#1152 = VECTOR('',#1153,1.);
#1153 = DIRECTION('',(1.7763568394E-14,1.));
#1154 = ( GEOMETRIC_REPRESENTATION_CONTEXT(2) 
PARAMETRIC_REPRESENTATION_CONTEXT() REPRESENTATION_CONTEXT('2D SPACE',''
  ) );
#1155 = ORIENTED_EDGE('',*,*,#214,.F.);
#1156 = ORIENTED_EDGE('',*,*,#1065,.T.);
#1157 = ADVANCED_FACE('',(#1158),#261,.T.);
#1158 = FACE_BOUND('',#1159,.T.);
#1159 = EDGE_LOOP('',(#1160,#1161,#1184,#1205,#1206));
#1160 = ORIENTED_EDGE('',*,*,#759,.F.);
#1161 = ORIENTED_EDGE('',*,*,#1162,.F.);
#1162 = EDGE_CURVE('',#1163,#727,#1165,.T.);
#1163 = VERTEX_POINT('',#1164);
#1164 = CARTESIAN_POINT('',(-9.203822332677,157.16536525515,
    52.196734513627));
#1165 = SURFACE_CURVE('',#1166,(#1170,#1177),.PCURVE_S1.);
#1166 = LINE('',#1167,#1168);
#1167 = CARTESIAN_POINT('',(-2.203822332677,157.16536525515,
    52.196734513627));
#1168 = VECTOR('',#1169,1.);
#1169 = DIRECTION('',(1.,-2.22044604925E-16,-1.021607975682E-14));
#1170 = PCURVE('',#261,#1171);
#1171 = DEFINITIONAL_REPRESENTATION('',(#1172),#1176);
#1172 = LINE('',#1173,#1174);
#1173 = CARTESIAN_POINT('',(-2.,0.));
#1174 = VECTOR('',#1175,1.);
#1175 = DIRECTION('',(-1.,1.021607975682E-14));
#1176 = ( GEOMETRIC_REPRESENTATION_CONTEXT(2) 
PARAMETRIC_REPRESENTATION_CONTEXT() REPRESENTATION_CONTEXT('2D SPACE',''
  ) );
#1177 = PCURVE('',#743,#1178);
#1178 = DEFINITIONAL_REPRESENTATION('',(#1179),#1183);
#1179 = LINE('',#1180,#1181);
#1180 = CARTESIAN_POINT('',(2.999999999999,2.));
#1181 = VECTOR('',#1182,1.);
#1182 = DIRECTION('',(1.018747808099E-22,-1.));
#1183 = ( GEOMETRIC_REPRESENTATION_CONTEXT(2) 
PARAMETRIC_REPRESENTATION_CONTEXT() REPRESENTATION_CONTEXT('2D SPACE',''
  ) );
#1184 = ORIENTED_EDGE('',*,*,#1185,.T.);
#1185 = EDGE_CURVE('',#1163,#246,#1186,.T.);
#1186 = SURFACE_CURVE('',#1187,(#1191,#1198),.PCURVE_S1.);
#1187 = LINE('',#1188,#1189);
#1188 = CARTESIAN_POINT('',(-9.203822332677,157.16536525515,
    52.196734513627));
#1189 = VECTOR('',#1190,1.);
#1190 = DIRECTION('',(0.,0.,-1.));
#1191 = PCURVE('',#261,#1192);
#1192 = DEFINITIONAL_REPRESENTATION('',(#1193),#1197);
#1193 = LINE('',#1194,#1195);
#1194 = CARTESIAN_POINT('',(5.,0.));
#1195 = VECTOR('',#1196,1.);
#1196 = DIRECTION('',(0.,1.));
#1197 = ( GEOMETRIC_REPRESENTATION_CONTEXT(2) 
PARAMETRIC_REPRESENTATION_CONTEXT() REPRESENTATION_CONTEXT('2D SPACE',''
  ) );
#1198 = PCURVE('',#289,#1199);
#1199 = DEFINITIONAL_REPRESENTATION('',(#1200),#1204);
#1200 = LINE('',#1201,#1202);
#1201 = CARTESIAN_POINT('',(0.,0.));
#1202 = VECTOR('',#1203,1.);
#1203 = DIRECTION('',(0.,1.));
#1204 = ( GEOMETRIC_REPRESENTATION_CONTEXT(2) 
PARAMETRIC_REPRESENTATION_CONTEXT() REPRESENTATION_CONTEXT('2D SPACE',''
  ) );
#1205 = ORIENTED_EDGE('',*,*,#245,.F.);
#1206 = ORIENTED_EDGE('',*,*,#1135,.F.);
#1207 = ADVANCED_FACE('',(#1208),#498,.F.);
#1208 = FACE_BOUND('',#1209,.F.);
#1209 = EDGE_LOOP('',(#1210,#1233,#1255,#1256,#1257,#1279,#1280));
#1210 = ORIENTED_EDGE('',*,*,#1211,.T.);
#1211 = EDGE_CURVE('',#478,#1212,#1214,.T.);
#1212 = VERTEX_POINT('',#1213);
#1213 = CARTESIAN_POINT('',(-6.717020994192,158.66536525515,
    52.196734513627));
#1214 = SEAM_CURVE('',#1215,(#1219,#1226),.PCURVE_S1.);
#1215 = LINE('',#1216,#1217);
#1216 = CARTESIAN_POINT('',(-6.717020994192,158.66536525515,
    52.196734513627));
#1217 = VECTOR('',#1218,1.);
#1218 = DIRECTION('',(0.,0.,1.));
#1219 = PCURVE('',#498,#1220);
#1220 = DEFINITIONAL_REPRESENTATION('',(#1221),#1225);
#1221 = LINE('',#1222,#1223);
#1222 = CARTESIAN_POINT('',(-3.14159265359,0.));
#1223 = VECTOR('',#1224,1.);
#1224 = DIRECTION('',(0.,-1.));
#1225 = ( GEOMETRIC_REPRESENTATION_CONTEXT(2) 
PARAMETRIC_REPRESENTATION_CONTEXT() REPRESENTATION_CONTEXT('2D SPACE',''
  ) );
#1226 = PCURVE('',#498,#1227);
#1227 = DEFINITIONAL_REPRESENTATION('',(#1228),#1232);
#1228 = LINE('',#1229,#1230);
#1229 = CARTESIAN_POINT('',(3.14159265359,0.));
#1230 = VECTOR('',#1231,1.);
#1231 = DIRECTION('',(0.,-1.));
#1232 = ( GEOMETRIC_REPRESENTATION_CONTEXT(2) 
PARAMETRIC_REPRESENTATION_CONTEXT() REPRESENTATION_CONTEXT('2D SPACE',''
  ) );
#1233 = ORIENTED_EDGE('',*,*,#1234,.T.);
#1234 = EDGE_CURVE('',#1212,#1012,#1235,.T.);
#1235 = SURFACE_CURVE('',#1236,(#1241,#1248),.PCURVE_S1.);
#1236 = CIRCLE('',#1237,1.5);
#1237 = AXIS2_PLACEMENT_3D('',#1238,#1239,#1240);
#1238 = CARTESIAN_POINT('',(-6.717020994192,160.16536525515,
    52.196734513627));
#1239 = DIRECTION('',(0.,0.,-1.));
#1240 = DIRECTION('',(2.22044604925E-16,1.,0.));
#1241 = PCURVE('',#498,#1242);
#1242 = DEFINITIONAL_REPRESENTATION('',(#1243),#1247);
#1243 = LINE('',#1244,#1245);
#1244 = CARTESIAN_POINT('',(-6.28318530718,0.));
#1245 = VECTOR('',#1246,1.);
#1246 = DIRECTION('',(1.,0.));
#1247 = ( GEOMETRIC_REPRESENTATION_CONTEXT(2) 
PARAMETRIC_REPRESENTATION_CONTEXT() REPRESENTATION_CONTEXT('2D SPACE',''
  ) );
#1248 = PCURVE('',#743,#1249);
#1249 = DEFINITIONAL_REPRESENTATION('',(#1250),#1254);
#1250 = CIRCLE('',#1251,1.5);
#1251 = AXIS2_PLACEMENT_2D('',#1252,#1253);
#1252 = CARTESIAN_POINT('',(-9.933136101041E-13,6.513198661515));
#1253 = DIRECTION('',(-1.,-1.01874780818E-22));
#1254 = ( GEOMETRIC_REPRESENTATION_CONTEXT(2) 
PARAMETRIC_REPRESENTATION_CONTEXT() REPRESENTATION_CONTEXT('2D SPACE',''
  ) );
#1255 = ORIENTED_EDGE('',*,*,#1039,.T.);
#1256 = ORIENTED_EDGE('',*,*,#702,.T.);
#1257 = ORIENTED_EDGE('',*,*,#1258,.T.);
#1258 = EDGE_CURVE('',#703,#1212,#1259,.T.);
#1259 = SURFACE_CURVE('',#1260,(#1265,#1272),.PCURVE_S1.);
#1260 = CIRCLE('',#1261,1.5);
#1261 = AXIS2_PLACEMENT_3D('',#1262,#1263,#1264);
#1262 = CARTESIAN_POINT('',(-6.717020994192,160.16536525515,
    52.196734513627));
#1263 = DIRECTION('',(0.,0.,-1.));
#1264 = DIRECTION('',(2.22044604925E-16,1.,0.));
#1265 = PCURVE('',#498,#1266);
#1266 = DEFINITIONAL_REPRESENTATION('',(#1267),#1271);
#1267 = LINE('',#1268,#1269);
#1268 = CARTESIAN_POINT('',(6.217248937901E-15,0.));
#1269 = VECTOR('',#1270,1.);
#1270 = DIRECTION('',(1.,0.));
#1271 = ( GEOMETRIC_REPRESENTATION_CONTEXT(2) 
PARAMETRIC_REPRESENTATION_CONTEXT() REPRESENTATION_CONTEXT('2D SPACE',''
  ) );
#1272 = PCURVE('',#743,#1273);
#1273 = DEFINITIONAL_REPRESENTATION('',(#1274),#1278);
#1274 = CIRCLE('',#1275,1.5);
#1275 = AXIS2_PLACEMENT_2D('',#1276,#1277);
#1276 = CARTESIAN_POINT('',(-9.933136101041E-13,6.513198661515));
#1277 = DIRECTION('',(-1.,-1.01874780818E-22));
#1278 = ( GEOMETRIC_REPRESENTATION_CONTEXT(2) 
PARAMETRIC_REPRESENTATION_CONTEXT() REPRESENTATION_CONTEXT('2D SPACE',''
  ) );
#1279 = ORIENTED_EDGE('',*,*,#1211,.F.);
#1280 = ORIENTED_EDGE('',*,*,#477,.T.);
#1281 = ADVANCED_FACE('',(#1282),#743,.F.);
#1282 = FACE_BOUND('',#1283,.T.);
#1283 = EDGE_LOOP('',(#1284,#1285,#1286,#1287,#1288,#1311,#1332));
#1284 = ORIENTED_EDGE('',*,*,#726,.F.);
#1285 = ORIENTED_EDGE('',*,*,#1258,.T.);
#1286 = ORIENTED_EDGE('',*,*,#1234,.T.);
#1287 = ORIENTED_EDGE('',*,*,#1011,.F.);
#1288 = ORIENTED_EDGE('',*,*,#1289,.T.);
#1289 = EDGE_CURVE('',#988,#1290,#1292,.T.);
#1290 = VERTEX_POINT('',#1291);
#1291 = CARTESIAN_POINT('',(-9.203822332677,163.16536525515,
    52.196734513627));
#1292 = SURFACE_CURVE('',#1293,(#1297,#1304),.PCURVE_S1.);
#1293 = LINE('',#1294,#1295);
#1294 = CARTESIAN_POINT('',(8.796177667323,163.16536525515,
    52.196734513627));
#1295 = VECTOR('',#1296,1.);
#1296 = DIRECTION('',(-1.,2.22044604925E-16,0.));
#1297 = PCURVE('',#743,#1298);
#1298 = DEFINITIONAL_REPRESENTATION('',(#1299),#1303);
#1299 = LINE('',#1300,#1301);
#1300 = CARTESIAN_POINT('',(-3.000000000001,-8.999999999999));
#1301 = VECTOR('',#1302,1.);
#1302 = DIRECTION('',(-1.018746789975E-22,1.));
#1303 = ( GEOMETRIC_REPRESENTATION_CONTEXT(2) 
PARAMETRIC_REPRESENTATION_CONTEXT() REPRESENTATION_CONTEXT('2D SPACE',''
  ) );
#1304 = PCURVE('',#317,#1305);
#1305 = DEFINITIONAL_REPRESENTATION('',(#1306),#1310);
#1306 = LINE('',#1307,#1308);
#1307 = CARTESIAN_POINT('',(5.,0.));
#1308 = VECTOR('',#1309,1.);
#1309 = DIRECTION('',(-1.,0.));
#1310 = ( GEOMETRIC_REPRESENTATION_CONTEXT(2) 
PARAMETRIC_REPRESENTATION_CONTEXT() REPRESENTATION_CONTEXT('2D SPACE',''
  ) );
#1311 = ORIENTED_EDGE('',*,*,#1312,.T.);
#1312 = EDGE_CURVE('',#1290,#1163,#1313,.T.);
#1313 = SURFACE_CURVE('',#1314,(#1318,#1325),.PCURVE_S1.);
#1314 = LINE('',#1315,#1316);
#1315 = CARTESIAN_POINT('',(-9.203822332677,163.16536525515,
    52.196734513627));
#1316 = VECTOR('',#1317,1.);
#1317 = DIRECTION('',(5.699144859742E-15,-1.,0.));
#1318 = PCURVE('',#743,#1319);
#1319 = DEFINITIONAL_REPRESENTATION('',(#1320),#1324);
#1320 = LINE('',#1321,#1322);
#1321 = CARTESIAN_POINT('',(-3.000000000001,9.000000000001));
#1322 = VECTOR('',#1323,1.);
#1323 = DIRECTION('',(1.,-5.921189362793E-15));
#1324 = ( GEOMETRIC_REPRESENTATION_CONTEXT(2) 
PARAMETRIC_REPRESENTATION_CONTEXT() REPRESENTATION_CONTEXT('2D SPACE',''
  ) );
#1325 = PCURVE('',#289,#1326);
#1326 = DEFINITIONAL_REPRESENTATION('',(#1327),#1331);
#1327 = LINE('',#1328,#1329);
#1328 = CARTESIAN_POINT('',(6.,0.));
#1329 = VECTOR('',#1330,1.);
#1330 = DIRECTION('',(-1.,-0.));
#1331 = ( GEOMETRIC_REPRESENTATION_CONTEXT(2) 
PARAMETRIC_REPRESENTATION_CONTEXT() REPRESENTATION_CONTEXT('2D SPACE',''
  ) );
#1332 = ORIENTED_EDGE('',*,*,#1162,.T.);
#1333 = ADVANCED_FACE('',(#1334),#463,.F.);
#1334 = FACE_BOUND('',#1335,.F.);
#1335 = EDGE_LOOP('',(#1336,#1359,#1381,#1382,#1404,#1405));
#1336 = ORIENTED_EDGE('',*,*,#1337,.T.);
#1337 = EDGE_CURVE('',#443,#1338,#1340,.T.);
#1338 = VERTEX_POINT('',#1339);
#1339 = CARTESIAN_POINT('',(6.301704509025,158.66536525515,
    52.196734513627));
#1340 = SEAM_CURVE('',#1341,(#1345,#1352),.PCURVE_S1.);
#1341 = LINE('',#1342,#1343);
#1342 = CARTESIAN_POINT('',(6.301704509025,158.66536525515,
    52.196734513627));
#1343 = VECTOR('',#1344,1.);
#1344 = DIRECTION('',(0.,0.,1.));
#1345 = PCURVE('',#463,#1346);
#1346 = DEFINITIONAL_REPRESENTATION('',(#1347),#1351);
#1347 = LINE('',#1348,#1349);
#1348 = CARTESIAN_POINT('',(-3.14159265359,0.));
#1349 = VECTOR('',#1350,1.);
#1350 = DIRECTION('',(0.,-1.));
#1351 = ( GEOMETRIC_REPRESENTATION_CONTEXT(2) 
PARAMETRIC_REPRESENTATION_CONTEXT() REPRESENTATION_CONTEXT('2D SPACE',''
  ) );
#1352 = PCURVE('',#463,#1353);
#1353 = DEFINITIONAL_REPRESENTATION('',(#1354),#1358);
#1354 = LINE('',#1355,#1356);
#1355 = CARTESIAN_POINT('',(3.14159265359,0.));
#1356 = VECTOR('',#1357,1.);
#1357 = DIRECTION('',(0.,-1.));
#1358 = ( GEOMETRIC_REPRESENTATION_CONTEXT(2) 
PARAMETRIC_REPRESENTATION_CONTEXT() REPRESENTATION_CONTEXT('2D SPACE',''
  ) );
#1359 = ORIENTED_EDGE('',*,*,#1360,.T.);
#1360 = EDGE_CURVE('',#1338,#832,#1361,.T.);
#1361 = SURFACE_CURVE('',#1362,(#1367,#1374),.PCURVE_S1.);
#1362 = CIRCLE('',#1363,1.5);
#1363 = AXIS2_PLACEMENT_3D('',#1364,#1365,#1366);
#1364 = CARTESIAN_POINT('',(6.301704509025,160.16536525515,
    52.196734513627));
#1365 = DIRECTION('',(0.,0.,-1.));
#1366 = DIRECTION('',(2.22044604925E-16,1.,0.));
#1367 = PCURVE('',#463,#1368);
#1368 = DEFINITIONAL_REPRESENTATION('',(#1369),#1373);
#1369 = LINE('',#1370,#1371);
#1370 = CARTESIAN_POINT('',(-6.28318530718,0.));
#1371 = VECTOR('',#1372,1.);
#1372 = DIRECTION('',(1.,0.));
#1373 = ( GEOMETRIC_REPRESENTATION_CONTEXT(2) 
PARAMETRIC_REPRESENTATION_CONTEXT() REPRESENTATION_CONTEXT('2D SPACE',''
  ) );
#1374 = PCURVE('',#848,#1375);
#1375 = DEFINITIONAL_REPRESENTATION('',(#1376),#1380);
#1376 = CIRCLE('',#1377,1.5);
#1377 = AXIS2_PLACEMENT_2D('',#1378,#1379);
#1378 = CARTESIAN_POINT('',(-9.962043465388E-13,-6.505526841702));
#1379 = DIRECTION('',(-1.,-1.01874780818E-22));
#1380 = ( GEOMETRIC_REPRESENTATION_CONTEXT(2) 
PARAMETRIC_REPRESENTATION_CONTEXT() REPRESENTATION_CONTEXT('2D SPACE',''
  ) );
#1381 = ORIENTED_EDGE('',*,*,#864,.T.);
#1382 = ORIENTED_EDGE('',*,*,#1383,.T.);
#1383 = EDGE_CURVE('',#865,#1338,#1384,.T.);
#1384 = SURFACE_CURVE('',#1385,(#1390,#1397),.PCURVE_S1.);
#1385 = CIRCLE('',#1386,1.5);
#1386 = AXIS2_PLACEMENT_3D('',#1387,#1388,#1389);
#1387 = CARTESIAN_POINT('',(6.301704509025,160.16536525515,
    52.196734513627));
#1388 = DIRECTION('',(0.,0.,-1.));
#1389 = DIRECTION('',(2.22044604925E-16,1.,0.));
#1390 = PCURVE('',#463,#1391);
#1391 = DEFINITIONAL_REPRESENTATION('',(#1392),#1396);
#1392 = LINE('',#1393,#1394);
#1393 = CARTESIAN_POINT('',(-6.28318530718,0.));
#1394 = VECTOR('',#1395,1.);
#1395 = DIRECTION('',(1.,0.));
#1396 = ( GEOMETRIC_REPRESENTATION_CONTEXT(2) 
PARAMETRIC_REPRESENTATION_CONTEXT() REPRESENTATION_CONTEXT('2D SPACE',''
  ) );
#1397 = PCURVE('',#848,#1398);
#1398 = DEFINITIONAL_REPRESENTATION('',(#1399),#1403);
#1399 = CIRCLE('',#1400,1.5);
#1400 = AXIS2_PLACEMENT_2D('',#1401,#1402);
#1401 = CARTESIAN_POINT('',(-9.962043465388E-13,-6.505526841702));
#1402 = DIRECTION('',(-1.,-1.01874780818E-22));
#1403 = ( GEOMETRIC_REPRESENTATION_CONTEXT(2) 
PARAMETRIC_REPRESENTATION_CONTEXT() REPRESENTATION_CONTEXT('2D SPACE',''
  ) );
#1404 = ORIENTED_EDGE('',*,*,#1337,.F.);
#1405 = ORIENTED_EDGE('',*,*,#442,.T.);
#1406 = ADVANCED_FACE('',(#1407),#848,.F.);
#1407 = FACE_BOUND('',#1408,.T.);
#1408 = EDGE_LOOP('',(#1409,#1410,#1411,#1434,#1455,#1456,#1457));
#1409 = ORIENTED_EDGE('',*,*,#831,.F.);
#1410 = ORIENTED_EDGE('',*,*,#1110,.T.);
#1411 = ORIENTED_EDGE('',*,*,#1412,.T.);
#1412 = EDGE_CURVE('',#1088,#1413,#1415,.T.);
#1413 = VERTEX_POINT('',#1414);
#1414 = CARTESIAN_POINT('',(8.796177667323,163.16536525515,
    52.196734513627));
#1415 = SURFACE_CURVE('',#1416,(#1420,#1427),.PCURVE_S1.);
#1416 = LINE('',#1417,#1418);
#1417 = CARTESIAN_POINT('',(8.796177667323,157.16536525515,
    52.196734513627));
#1418 = VECTOR('',#1419,1.);
#1419 = DIRECTION('',(6.143234069593E-15,1.,0.));
#1420 = PCURVE('',#848,#1421);
#1421 = DEFINITIONAL_REPRESENTATION('',(#1422),#1426);
#1422 = LINE('',#1423,#1424);
#1423 = CARTESIAN_POINT('',(2.999999999999,-8.999999999999));
#1424 = VECTOR('',#1425,1.);
#1425 = DIRECTION('',(-1.,-5.921189566542E-15));
#1426 = ( GEOMETRIC_REPRESENTATION_CONTEXT(2) 
PARAMETRIC_REPRESENTATION_CONTEXT() REPRESENTATION_CONTEXT('2D SPACE',''
  ) );
#1427 = PCURVE('',#402,#1428);
#1428 = DEFINITIONAL_REPRESENTATION('',(#1429),#1433);
#1429 = LINE('',#1430,#1431);
#1430 = CARTESIAN_POINT('',(6.,0.));
#1431 = VECTOR('',#1432,1.);
#1432 = DIRECTION('',(-1.,0.));
#1433 = ( GEOMETRIC_REPRESENTATION_CONTEXT(2) 
PARAMETRIC_REPRESENTATION_CONTEXT() REPRESENTATION_CONTEXT('2D SPACE',''
  ) );
#1434 = ORIENTED_EDGE('',*,*,#1435,.T.);
#1435 = EDGE_CURVE('',#1413,#912,#1436,.T.);
#1436 = SURFACE_CURVE('',#1437,(#1441,#1448),.PCURVE_S1.);
#1437 = LINE('',#1438,#1439);
#1438 = CARTESIAN_POINT('',(8.796177667323,163.16536525515,
    52.196734513627));
#1439 = VECTOR('',#1440,1.);
#1440 = DIRECTION('',(-1.,2.22044604925E-16,0.));
#1441 = PCURVE('',#848,#1442);
#1442 = DEFINITIONAL_REPRESENTATION('',(#1443),#1447);
#1443 = LINE('',#1444,#1445);
#1444 = CARTESIAN_POINT('',(-3.000000000001,-8.999999999999));
#1445 = VECTOR('',#1446,1.);
#1446 = DIRECTION('',(-1.018746789975E-22,1.));
#1447 = ( GEOMETRIC_REPRESENTATION_CONTEXT(2) 
PARAMETRIC_REPRESENTATION_CONTEXT() REPRESENTATION_CONTEXT('2D SPACE',''
  ) );
#1448 = PCURVE('',#374,#1449);
#1449 = DEFINITIONAL_REPRESENTATION('',(#1450),#1454);
#1450 = LINE('',#1451,#1452);
#1451 = CARTESIAN_POINT('',(5.,0.));
#1452 = VECTOR('',#1453,1.);
#1453 = DIRECTION('',(-1.,0.));
#1454 = ( GEOMETRIC_REPRESENTATION_CONTEXT(2) 
PARAMETRIC_REPRESENTATION_CONTEXT() REPRESENTATION_CONTEXT('2D SPACE',''
  ) );
#1455 = ORIENTED_EDGE('',*,*,#911,.F.);
#1456 = ORIENTED_EDGE('',*,*,#1383,.T.);
#1457 = ORIENTED_EDGE('',*,*,#1360,.T.);
#1458 = ADVANCED_FACE('',(#1459),#317,.T.);
#1459 = FACE_BOUND('',#1460,.T.);
#1460 = EDGE_LOOP('',(#1461,#1462,#1483,#1484,#1505));
#1461 = ORIENTED_EDGE('',*,*,#987,.F.);
#1462 = ORIENTED_EDGE('',*,*,#1463,.F.);
#1463 = EDGE_CURVE('',#302,#964,#1464,.T.);
#1464 = SURFACE_CURVE('',#1465,(#1469,#1476),.PCURVE_S1.);
#1465 = LINE('',#1466,#1467);
#1466 = CARTESIAN_POINT('',(-4.203822332676,163.16536525515,
    52.196734513627));
#1467 = VECTOR('',#1468,1.);
#1468 = DIRECTION('',(1.7763568394E-14,-8.759319517087E-15,1.));
#1469 = PCURVE('',#317,#1470);
#1470 = DEFINITIONAL_REPRESENTATION('',(#1471),#1475);
#1471 = LINE('',#1472,#1473);
#1472 = CARTESIAN_POINT('',(-7.999999999999,-9.947598300641E-14));
#1473 = VECTOR('',#1474,1.);
#1474 = DIRECTION('',(1.7763568394E-14,-1.));
#1475 = ( GEOMETRIC_REPRESENTATION_CONTEXT(2) 
PARAMETRIC_REPRESENTATION_CONTEXT() REPRESENTATION_CONTEXT('2D SPACE',''
  ) );
#1476 = PCURVE('',#346,#1477);
#1477 = DEFINITIONAL_REPRESENTATION('',(#1478),#1482);
#1478 = LINE('',#1479,#1480);
#1479 = CARTESIAN_POINT('',(5.355890089178,0.));
#1480 = VECTOR('',#1481,1.);
#1481 = DIRECTION('',(0.,-1.));
#1482 = ( GEOMETRIC_REPRESENTATION_CONTEXT(2) 
PARAMETRIC_REPRESENTATION_CONTEXT() REPRESENTATION_CONTEXT('2D SPACE',''
  ) );
#1483 = ORIENTED_EDGE('',*,*,#301,.F.);
#1484 = ORIENTED_EDGE('',*,*,#1485,.F.);
#1485 = EDGE_CURVE('',#1290,#274,#1486,.T.);
#1486 = SURFACE_CURVE('',#1487,(#1491,#1498),.PCURVE_S1.);
#1487 = LINE('',#1488,#1489);
#1488 = CARTESIAN_POINT('',(-9.203822332677,163.16536525515,
    52.196734513627));
#1489 = VECTOR('',#1490,1.);
#1490 = DIRECTION('',(0.,0.,-1.));
#1491 = PCURVE('',#317,#1492);
#1492 = DEFINITIONAL_REPRESENTATION('',(#1493),#1497);
#1493 = LINE('',#1494,#1495);
#1494 = CARTESIAN_POINT('',(-13.,0.));
#1495 = VECTOR('',#1496,1.);
#1496 = DIRECTION('',(0.,1.));
#1497 = ( GEOMETRIC_REPRESENTATION_CONTEXT(2) 
PARAMETRIC_REPRESENTATION_CONTEXT() REPRESENTATION_CONTEXT('2D SPACE',''
  ) );
#1498 = PCURVE('',#289,#1499);
#1499 = DEFINITIONAL_REPRESENTATION('',(#1500),#1504);
#1500 = LINE('',#1501,#1502);
#1501 = CARTESIAN_POINT('',(6.,0.));
#1502 = VECTOR('',#1503,1.);
#1503 = DIRECTION('',(0.,1.));
#1504 = ( GEOMETRIC_REPRESENTATION_CONTEXT(2) 
PARAMETRIC_REPRESENTATION_CONTEXT() REPRESENTATION_CONTEXT('2D SPACE',''
  ) );
#1505 = ORIENTED_EDGE('',*,*,#1289,.F.);
#1506 = ADVANCED_FACE('',(#1507),#289,.T.);
#1507 = FACE_BOUND('',#1508,.T.);
#1508 = EDGE_LOOP('',(#1509,#1510,#1511,#1512));
#1509 = ORIENTED_EDGE('',*,*,#1312,.F.);
#1510 = ORIENTED_EDGE('',*,*,#1485,.T.);
#1511 = ORIENTED_EDGE('',*,*,#273,.F.);
#1512 = ORIENTED_EDGE('',*,*,#1185,.F.);
#1513 = ADVANCED_FACE('',(#1514),#346,.T.);
#1514 = FACE_BOUND('',#1515,.T.);
#1515 = EDGE_LOOP('',(#1516,#1517,#1538,#1539));
#1516 = ORIENTED_EDGE('',*,*,#963,.F.);
#1517 = ORIENTED_EDGE('',*,*,#1518,.T.);
#1518 = EDGE_CURVE('',#940,#330,#1519,.T.);
#1519 = SURFACE_CURVE('',#1520,(#1524,#1531),.PCURVE_S1.);
#1520 = LINE('',#1521,#1522);
#1521 = CARTESIAN_POINT('',(3.796177667323,163.16536525515,
    52.196734513627));
#1522 = VECTOR('',#1523,1.);
#1523 = DIRECTION('',(-1.7763568394E-14,8.759319517087E-15,-1.));
#1524 = PCURVE('',#346,#1525);
#1525 = DEFINITIONAL_REPRESENTATION('',(#1526),#1530);
#1526 = LINE('',#1527,#1528);
#1527 = CARTESIAN_POINT('',(7.210480525181,-4.263256414561E-14));
#1528 = VECTOR('',#1529,1.);
#1529 = DIRECTION('',(0.,1.));
#1530 = ( GEOMETRIC_REPRESENTATION_CONTEXT(2) 
PARAMETRIC_REPRESENTATION_CONTEXT() REPRESENTATION_CONTEXT('2D SPACE',''
  ) );
#1531 = PCURVE('',#374,#1532);
#1532 = DEFINITIONAL_REPRESENTATION('',(#1533),#1537);
#1533 = LINE('',#1534,#1535);
#1534 = CARTESIAN_POINT('',(1.398881011028E-13,0.));
#1535 = VECTOR('',#1536,1.);
#1536 = DIRECTION('',(-1.7763568394E-14,1.));
#1537 = ( GEOMETRIC_REPRESENTATION_CONTEXT(2) 
PARAMETRIC_REPRESENTATION_CONTEXT() REPRESENTATION_CONTEXT('2D SPACE',''
  ) );
#1538 = ORIENTED_EDGE('',*,*,#329,.F.);
#1539 = ORIENTED_EDGE('',*,*,#1463,.T.);
#1540 = ADVANCED_FACE('',(#1541),#402,.T.);
#1541 = FACE_BOUND('',#1542,.T.);
#1542 = EDGE_LOOP('',(#1543,#1544,#1545,#1546));
#1543 = ORIENTED_EDGE('',*,*,#1412,.F.);
#1544 = ORIENTED_EDGE('',*,*,#1087,.T.);
#1545 = ORIENTED_EDGE('',*,*,#386,.F.);
#1546 = ORIENTED_EDGE('',*,*,#1547,.F.);
#1547 = EDGE_CURVE('',#1413,#359,#1548,.T.);
#1548 = SURFACE_CURVE('',#1549,(#1553,#1560),.PCURVE_S1.);
#1549 = LINE('',#1550,#1551);
#1550 = CARTESIAN_POINT('',(8.796177667323,163.16536525515,
    52.196734513627));
#1551 = VECTOR('',#1552,1.);
#1552 = DIRECTION('',(0.,0.,-1.));
#1553 = PCURVE('',#402,#1554);
#1554 = DEFINITIONAL_REPRESENTATION('',(#1555),#1559);
#1555 = LINE('',#1556,#1557);
#1556 = CARTESIAN_POINT('',(0.,0.));
#1557 = VECTOR('',#1558,1.);
#1558 = DIRECTION('',(-0.,1.));
#1559 = ( GEOMETRIC_REPRESENTATION_CONTEXT(2) 
PARAMETRIC_REPRESENTATION_CONTEXT() REPRESENTATION_CONTEXT('2D SPACE',''
  ) );
#1560 = PCURVE('',#374,#1561);
#1561 = DEFINITIONAL_REPRESENTATION('',(#1562),#1566);
#1562 = LINE('',#1563,#1564);
#1563 = CARTESIAN_POINT('',(5.,0.));
#1564 = VECTOR('',#1565,1.);
#1565 = DIRECTION('',(0.,1.));
#1566 = ( GEOMETRIC_REPRESENTATION_CONTEXT(2) 
PARAMETRIC_REPRESENTATION_CONTEXT() REPRESENTATION_CONTEXT('2D SPACE',''
  ) );
#1567 = ADVANCED_FACE('',(#1568),#374,.T.);
#1568 = FACE_BOUND('',#1569,.T.);
#1569 = EDGE_LOOP('',(#1570,#1571,#1572,#1573,#1574));
#1570 = ORIENTED_EDGE('',*,*,#939,.F.);
#1571 = ORIENTED_EDGE('',*,*,#1435,.F.);
#1572 = ORIENTED_EDGE('',*,*,#1547,.T.);
#1573 = ORIENTED_EDGE('',*,*,#358,.F.);
#1574 = ORIENTED_EDGE('',*,*,#1518,.F.);
#1575 = ( GEOMETRIC_REPRESENTATION_CONTEXT(3) 
GLOBAL_UNCERTAINTY_ASSIGNED_CONTEXT((#1579)) 
GLOBAL_UNIT_ASSIGNED_CONTEXT((#1576,#1577,#1578)) REPRESENTATION_CONTEXT
('Context #1','3D Context with UNIT and UNCERTAINTY') );
#1576 = ( LENGTH_UNIT() NAMED_UNIT(*) SI_UNIT(.MILLI.,.METRE.) );
#1577 = ( NAMED_UNIT(*) PLANE_ANGLE_UNIT() SI_UNIT($,.RADIAN.) );
#1578 = ( NAMED_UNIT(*) SI_UNIT($,.STERADIAN.) SOLID_ANGLE_UNIT() );
#1579 = UNCERTAINTY_MEASURE_WITH_UNIT(LENGTH_MEASURE(5.E-04),#1576,
  'distance_accuracy_value','confusion accuracy');
#1580 = PRODUCT_RELATED_PRODUCT_CATEGORY('part',$,(#7));
ENDSEC;
END-ISO-10303-21;
