ISO-10303-21;
HEADER;
FILE_DESCRIPTION(('Open CASCADE Model'),'2;1');
FILE_NAME('Open CASCADE Shape Model','2026-08-13T22:17:26',('Author'),(
    'Open CASCADE'),'Open CASCADE STEP processor 7.9','Open CASCADE 7.9'
  ,'Unknown');
FILE_SCHEMA(('AUTOMOTIVE_DESIGN { 1 0 10303 214 1 1 1 1 }'));
ENDSEC;
DATA;
#1 = APPLICATION_PROTOCOL_DEFINITION('international standard',
  'automotive_design',2000,#2);
#2 = APPLICATION_CONTEXT(
  'core data for automotive mechanical design processes');
#3 = SHAPE_DEFINITION_REPRESENTATION(#4,#10);
#4 = PRODUCT_DEFINITION_SHAPE('','',#5);
#5 = PRODUCT_DEFINITION('design','',#6,#9);
#6 = PRODUCT_DEFINITION_FORMATION('','',#7);
#7 = PRODUCT('Open CASCADE STEP translator 7.9 519',
  'Open CASCADE STEP translator 7.9 519','',(#8));
#8 = PRODUCT_CONTEXT('',#2,'mechanical');
#9 = PRODUCT_DEFINITION_CONTEXT('part definition',#2,'design');
#10 = ADVANCED_BREP_SHAPE_REPRESENTATION('',(#11,#15),#402);
#11 = AXIS2_PLACEMENT_3D('',#12,#13,#14);
#12 = CARTESIAN_POINT('',(0.,0.,0.));
#13 = DIRECTION('',(0.,0.,1.));
#14 = DIRECTION('',(1.,0.,-0.));
#15 = MANIFOLD_SOLID_BREP('',#16);
#16 = CLOSED_SHELL('',(#17,#232,#309,#389,#393,#398));
#17 = ADVANCED_FACE('',(#18),#39,.T.);
#18 = FACE_BOUND('',#19,.T.);
#19 = EDGE_LOOP('',(#20,#91,#120,#144,#201));
#20 = ORIENTED_EDGE('',*,*,#21,.T.);
#21 = EDGE_CURVE('',#22,#24,#26,.T.);
#22 = VERTEX_POINT('',#23);
#23 = CARTESIAN_POINT('',(0.,63.5,2.));
#24 = VERTEX_POINT('',#25);
#25 = CARTESIAN_POINT('',(1.5,63.,2.));
#26 = SURFACE_CURVE('',#27,(#38,#72),.PCURVE_S1.);
#27 = B_SPLINE_CURVE_WITH_KNOTS('',3,(#28,#29,#30,#31,#32,#33,#34,#35,
    #36,#37),.UNSPECIFIED.,.F.,.F.,(4,2,2,2,4),(-0.65133666389,
    -0.544922935701,-0.519070653696,-0.502043729727,-0.488502497917),
  .UNSPECIFIED.);
#28 = CARTESIAN_POINT('',(0.,63.5,2.));
#29 = CARTESIAN_POINT('',(0.354712427294,63.5,2.));
#30 = CARTESIAN_POINT('',(0.779716184588,63.523535314659,2.));
#31 = CARTESIAN_POINT('',(1.196335942231,63.379281855955,2.));
#32 = CARTESIAN_POINT('',(1.28890398742,63.333188420759,2.));
#33 = CARTESIAN_POINT('',(1.398379169355,63.24129519083,2.));
#34 = CARTESIAN_POINT('',(1.442418988573,63.189341821734,2.));
#35 = CARTESIAN_POINT('',(1.487004147649,63.097720204268,2.));
#36 = CARTESIAN_POINT('',(1.5,63.045137439367,2.));
#37 = CARTESIAN_POINT('',(1.5,63.,2.));
#38 = PCURVE('',#39,#44);
#39 = TOROIDAL_SURFACE('',#40,2.,0.5);
#40 = AXIS2_PLACEMENT_3D('',#41,#42,#43);
#41 = CARTESIAN_POINT('',(0.,63.,0.));
#42 = DIRECTION('',(0.,-1.,0.));
#43 = DIRECTION('',(0.,0.,-1.));
#44 = DEFINITIONAL_REPRESENTATION('',(#45),#71);
#45 = B_SPLINE_CURVE_WITH_KNOTS('',3,(#46,#47,#48,#49,#50,#51,#52,#53,
    #54,#55,#56,#57,#58,#59,#60,#61,#62,#63,#64,#65,#66,#67,#68,#69,#70)
  ,.UNSPECIFIED.,.F.,.F.,(4,1,1,1,1,1,1,1,1,1,1,1,1,1,1,1,1,1,1,1,1,1,4)
  ,(-0.65133666389,-0.643935110891,-0.636533557892,-0.629132004893,
    -0.621730451895,-0.614328898896,-0.606927345897,-0.599525792898,
    -0.5921242399,-0.584722686901,-0.577321133902,-0.569919580903,
    -0.562518027905,-0.555116474906,-0.547714921907,-0.540313368908,
    -0.53291181591,-0.525510262911,-0.518108709912,-0.510707156913,
    -0.503305603915,-0.495904050916,-0.488502497917),
  .QUASI_UNIFORM_KNOTS.);
#46 = CARTESIAN_POINT('',(3.14159265359,4.712388980385));
#47 = CARTESIAN_POINT('',(3.129257551561,4.712378420518));
#48 = CARTESIAN_POINT('',(3.104244015757,4.714224057157));
#49 = CARTESIAN_POINT('',(3.065975360311,4.722833245678));
#50 = CARTESIAN_POINT('',(3.027237645223,4.737568444012));
#51 = CARTESIAN_POINT('',(2.988318392522,4.758558087083));
#52 = CARTESIAN_POINT('',(2.949501646431,4.785853425323));
#53 = CARTESIAN_POINT('',(2.911062139186,4.819429628575));
#54 = CARTESIAN_POINT('',(2.873258463771,4.859204627598));
#55 = CARTESIAN_POINT('',(2.836327767593,4.905050922587));
#56 = CARTESIAN_POINT('',(2.800481515904,4.95680940551));
#57 = CARTESIAN_POINT('',(2.765903559979,5.014302513833));
#58 = CARTESIAN_POINT('',(2.73274700555,5.077356648528));
#59 = CARTESIAN_POINT('',(2.701142693588,5.145802016867));
#60 = CARTESIAN_POINT('',(2.671170772289,5.219567440874));
#61 = CARTESIAN_POINT('',(2.642975288372,5.298425394608));
#62 = CARTESIAN_POINT('',(2.61634896284,5.383034972581));
#63 = CARTESIAN_POINT('',(2.589227148471,5.483972584083));
#64 = CARTESIAN_POINT('',(2.564047997479,5.595344695598));
#65 = CARTESIAN_POINT('',(2.543307863095,5.705710832282));
#66 = CARTESIAN_POINT('',(2.524547233113,5.837401704611));
#67 = CARTESIAN_POINT('',(2.509543196702,5.977880696771));
#68 = CARTESIAN_POINT('',(2.50058405366,6.126174377716));
#69 = CARTESIAN_POINT('',(2.498281001542,6.230063309998));
#70 = CARTESIAN_POINT('',(2.498091544797,6.28318530718));
#71 = ( GEOMETRIC_REPRESENTATION_CONTEXT(2) 
PARAMETRIC_REPRESENTATION_CONTEXT() REPRESENTATION_CONTEXT('2D SPACE',''
  ) );
#72 = PCURVE('',#73,#78);
#73 = PLANE('',#74);
#74 = AXIS2_PLACEMENT_3D('',#75,#76,#77);
#75 = CARTESIAN_POINT('',(-1.5,93.726812023537,2.));
#76 = DIRECTION('',(0.,0.,-1.));
#77 = DIRECTION('',(-1.,0.,0.));
#78 = DEFINITIONAL_REPRESENTATION('',(#79),#90);
#79 = B_SPLINE_CURVE_WITH_KNOTS('',3,(#80,#81,#82,#83,#84,#85,#86,#87,
    #88,#89),.UNSPECIFIED.,.F.,.F.,(4,2,2,2,4),(-0.65133666389,
    -0.544922935701,-0.519070653696,-0.502043729727,-0.488502497917),
  .UNSPECIFIED.);
#80 = CARTESIAN_POINT('',(-1.5,-30.22681202353));
#81 = CARTESIAN_POINT('',(-1.854712427294,-30.22681202353));
#82 = CARTESIAN_POINT('',(-2.279716184588,-30.20327670887));
#83 = CARTESIAN_POINT('',(-2.696335942231,-30.34753016758));
#84 = CARTESIAN_POINT('',(-2.78890398742,-30.39362360277));
#85 = CARTESIAN_POINT('',(-2.898379169355,-30.4855168327));
#86 = CARTESIAN_POINT('',(-2.942418988573,-30.5374702018));
#87 = CARTESIAN_POINT('',(-2.987004147649,-30.62909181926));
#88 = CARTESIAN_POINT('',(-3.,-30.68167458417));
#89 = CARTESIAN_POINT('',(-3.,-30.72681202353));
#90 = ( GEOMETRIC_REPRESENTATION_CONTEXT(2) 
PARAMETRIC_REPRESENTATION_CONTEXT() REPRESENTATION_CONTEXT('2D SPACE',''
  ) );
#91 = ORIENTED_EDGE('',*,*,#92,.T.);
#92 = EDGE_CURVE('',#24,#93,#95,.T.);
#93 = VERTEX_POINT('',#94);
#94 = CARTESIAN_POINT('',(2.490486745229,63.,-0.217889356869));
#95 = SURFACE_CURVE('',#96,(#101,#108),.PCURVE_S1.);
#96 = CIRCLE('',#97,2.5);
#97 = AXIS2_PLACEMENT_3D('',#98,#99,#100);
#98 = CARTESIAN_POINT('',(0.,63.,0.));
#99 = DIRECTION('',(0.,1.,0.));
#100 = DIRECTION('',(1.110223024625E-16,0.,-1.));
#101 = PCURVE('',#39,#102);
#102 = DEFINITIONAL_REPRESENTATION('',(#103),#107);
#103 = LINE('',#104,#105);
#104 = CARTESIAN_POINT('',(6.28318530718,6.28318530718));
#105 = VECTOR('',#106,1.);
#106 = DIRECTION('',(-1.,0.));
#107 = ( GEOMETRIC_REPRESENTATION_CONTEXT(2) 
PARAMETRIC_REPRESENTATION_CONTEXT() REPRESENTATION_CONTEXT('2D SPACE',''
  ) );
#108 = PCURVE('',#109,#114);
#109 = CYLINDRICAL_SURFACE('',#110,2.5);
#110 = AXIS2_PLACEMENT_3D('',#111,#112,#113);
#111 = CARTESIAN_POINT('',(0.,51.071067811865,0.));
#112 = DIRECTION('',(0.,-1.,0.));
#113 = DIRECTION('',(-0.996194698092,0.,8.715574274766E-02));
#114 = DEFINITIONAL_REPRESENTATION('',(#115),#119);
#115 = LINE('',#116,#117);
#116 = CARTESIAN_POINT('',(1.658062789395,-11.92893218813));
#117 = VECTOR('',#118,1.);
#118 = DIRECTION('',(-1.,0.));
#119 = ( GEOMETRIC_REPRESENTATION_CONTEXT(2) 
PARAMETRIC_REPRESENTATION_CONTEXT() REPRESENTATION_CONTEXT('2D SPACE',''
  ) );
#120 = ORIENTED_EDGE('',*,*,#121,.T.);
#121 = EDGE_CURVE('',#93,#122,#124,.T.);
#122 = VERTEX_POINT('',#123);
#123 = CARTESIAN_POINT('',(-1.5,63.,2.));
#124 = SURFACE_CURVE('',#125,(#130,#137),.PCURVE_S1.);
#125 = CIRCLE('',#126,2.5);
#126 = AXIS2_PLACEMENT_3D('',#127,#128,#129);
#127 = CARTESIAN_POINT('',(0.,63.,0.));
#128 = DIRECTION('',(0.,1.,0.));
#129 = DIRECTION('',(1.110223024625E-16,0.,-1.));
#130 = PCURVE('',#39,#131);
#131 = DEFINITIONAL_REPRESENTATION('',(#132),#136);
#132 = LINE('',#133,#134);
#133 = CARTESIAN_POINT('',(6.28318530718,6.28318530718));
#134 = VECTOR('',#135,1.);
#135 = DIRECTION('',(-1.,0.));
#136 = ( GEOMETRIC_REPRESENTATION_CONTEXT(2) 
PARAMETRIC_REPRESENTATION_CONTEXT() REPRESENTATION_CONTEXT('2D SPACE',''
  ) );
#137 = PCURVE('',#109,#138);
#138 = DEFINITIONAL_REPRESENTATION('',(#139),#143);
#139 = LINE('',#140,#141);
#140 = CARTESIAN_POINT('',(7.941248096574,-11.92893218813));
#141 = VECTOR('',#142,1.);
#142 = DIRECTION('',(-1.,0.));
#143 = ( GEOMETRIC_REPRESENTATION_CONTEXT(2) 
PARAMETRIC_REPRESENTATION_CONTEXT() REPRESENTATION_CONTEXT('2D SPACE',''
  ) );
#144 = ORIENTED_EDGE('',*,*,#145,.T.);
#145 = EDGE_CURVE('',#122,#22,#146,.T.);
#146 = SURFACE_CURVE('',#147,(#158,#187),.PCURVE_S1.);
#147 = B_SPLINE_CURVE_WITH_KNOTS('',3,(#148,#149,#150,#151,#152,#153,
    #154,#155,#156,#157),.UNSPECIFIED.,.F.,.F.,(4,2,2,2,4),(
    -0.162834165972,-0.149292934162,-0.132266010194,-0.106413728188,0.),
  .UNSPECIFIED.);
#148 = CARTESIAN_POINT('',(-1.5,63.,2.));
#149 = CARTESIAN_POINT('',(-1.5,63.045137439367,2.));
#150 = CARTESIAN_POINT('',(-1.487004147649,63.097720204268,2.));
#151 = CARTESIAN_POINT('',(-1.442418988573,63.189341821734,2.));
#152 = CARTESIAN_POINT('',(-1.398379169355,63.24129519083,2.));
#153 = CARTESIAN_POINT('',(-1.28890398742,63.333188420759,2.));
#154 = CARTESIAN_POINT('',(-1.196335942231,63.379281855955,2.));
#155 = CARTESIAN_POINT('',(-0.779716184588,63.523535314659,2.));
#156 = CARTESIAN_POINT('',(-0.354712427294,63.5,2.));
#157 = CARTESIAN_POINT('',(0.,63.5,2.));
#158 = PCURVE('',#39,#159);
#159 = DEFINITIONAL_REPRESENTATION('',(#160),#186);
#160 = B_SPLINE_CURVE_WITH_KNOTS('',3,(#161,#162,#163,#164,#165,#166,
    #167,#168,#169,#170,#171,#172,#173,#174,#175,#176,#177,#178,#179,
    #180,#181,#182,#183,#184,#185),.UNSPECIFIED.,.F.,.F.,(4,1,1,1,1,1,1,
    1,1,1,1,1,1,1,1,1,1,1,1,1,1,1,4),(-0.162834165972,-0.155432612974,
    -0.148031059975,-0.140629506976,-0.133227953977,-0.125826400979,
    -0.11842484798,-0.111023294981,-0.103621741982,-9.622018898369E-02,
    -8.881863598494E-02,-8.14170829862E-02,-7.401552998745E-02,
    -6.661397698871E-02,-5.921242398996E-02,-5.181087099122E-02,
    -4.440931799247E-02,-3.700776499373E-02,-2.960621199498E-02,
    -2.220465899624E-02,-1.480310599749E-02,-7.401552998745E-03,0.),
  .UNSPECIFIED.);
#161 = CARTESIAN_POINT('',(-2.498091544797,6.28318530718));
#162 = CARTESIAN_POINT('',(-2.498281001542,6.230063309998));
#163 = CARTESIAN_POINT('',(-2.50058405366,6.126174377716));
#164 = CARTESIAN_POINT('',(-2.509543196702,5.977880696771));
#165 = CARTESIAN_POINT('',(-2.524547233113,5.837401704611));
#166 = CARTESIAN_POINT('',(-2.543307863095,5.705710832282));
#167 = CARTESIAN_POINT('',(-2.564047997479,5.595344695598));
#168 = CARTESIAN_POINT('',(-2.589227148471,5.483972584083));
#169 = CARTESIAN_POINT('',(-2.61634896284,5.383034972581));
#170 = CARTESIAN_POINT('',(-2.642975288372,5.298425394608));
#171 = CARTESIAN_POINT('',(-2.671170772289,5.219567440874));
#172 = CARTESIAN_POINT('',(-2.701142693588,5.145802016867));
#173 = CARTESIAN_POINT('',(-2.73274700555,5.077356648528));
#174 = CARTESIAN_POINT('',(-2.765903559979,5.014302513833));
#175 = CARTESIAN_POINT('',(-2.800481515904,4.95680940551));
#176 = CARTESIAN_POINT('',(-2.836327767593,4.905050922587));
#177 = CARTESIAN_POINT('',(-2.873258463771,4.859204627598));
#178 = CARTESIAN_POINT('',(-2.911062139186,4.819429628575));
#179 = CARTESIAN_POINT('',(-2.949501646431,4.785853425323));
#180 = CARTESIAN_POINT('',(-2.988318392522,4.758558087083));
#181 = CARTESIAN_POINT('',(-3.027237645223,4.737568444012));
#182 = CARTESIAN_POINT('',(-3.065975360311,4.722833245678));
#183 = CARTESIAN_POINT('',(-3.104244015757,4.714224057157));
#184 = CARTESIAN_POINT('',(-3.129257551561,4.712378420518));
#185 = CARTESIAN_POINT('',(-3.14159265359,4.712388980385));
#186 = ( GEOMETRIC_REPRESENTATION_CONTEXT(2) 
PARAMETRIC_REPRESENTATION_CONTEXT() REPRESENTATION_CONTEXT('2D SPACE',''
  ) );
#187 = PCURVE('',#73,#188);
#188 = DEFINITIONAL_REPRESENTATION('',(#189),#200);
#189 = B_SPLINE_CURVE_WITH_KNOTS('',3,(#190,#191,#192,#193,#194,#195,
    #196,#197,#198,#199),.UNSPECIFIED.,.F.,.F.,(4,2,2,2,4),(
    -0.162834165972,-0.149292934162,-0.132266010194,-0.106413728188,0.),
  .UNSPECIFIED.);
#190 = CARTESIAN_POINT('',(0.,-30.72681202353));
#191 = CARTESIAN_POINT('',(0.,-30.68167458417));
#192 = CARTESIAN_POINT('',(-1.29958523508E-02,-30.62909181926));
#193 = CARTESIAN_POINT('',(-5.758101142652E-02,-30.5374702018));
#194 = CARTESIAN_POINT('',(-0.101620830645,-30.4855168327));
#195 = CARTESIAN_POINT('',(-0.21109601258,-30.39362360277));
#196 = CARTESIAN_POINT('',(-0.303664057769,-30.34753016758));
#197 = CARTESIAN_POINT('',(-0.720283815412,-30.20327670887));
#198 = CARTESIAN_POINT('',(-1.145287572706,-30.22681202353));
#199 = CARTESIAN_POINT('',(-1.5,-30.22681202353));
#200 = ( GEOMETRIC_REPRESENTATION_CONTEXT(2) 
PARAMETRIC_REPRESENTATION_CONTEXT() REPRESENTATION_CONTEXT('2D SPACE',''
  ) );
#201 = ORIENTED_EDGE('',*,*,#202,.T.);
#202 = EDGE_CURVE('',#22,#22,#203,.T.);
#203 = SURFACE_CURVE('',#204,(#209,#216),.PCURVE_S1.);
#204 = CIRCLE('',#205,2.);
#205 = AXIS2_PLACEMENT_3D('',#206,#207,#208);
#206 = CARTESIAN_POINT('',(0.,63.5,0.));
#207 = DIRECTION('',(0.,-1.,0.));
#208 = DIRECTION('',(1.110223024625E-16,0.,-1.));
#209 = PCURVE('',#39,#210);
#210 = DEFINITIONAL_REPRESENTATION('',(#211),#215);
#211 = LINE('',#212,#213);
#212 = CARTESIAN_POINT('',(-6.28318530718,4.712388980385));
#213 = VECTOR('',#214,1.);
#214 = DIRECTION('',(1.,0.));
#215 = ( GEOMETRIC_REPRESENTATION_CONTEXT(2) 
PARAMETRIC_REPRESENTATION_CONTEXT() REPRESENTATION_CONTEXT('2D SPACE',''
  ) );
#216 = PCURVE('',#217,#222);
#217 = PLANE('',#218);
#218 = AXIS2_PLACEMENT_3D('',#219,#220,#221);
#219 = CARTESIAN_POINT('',(0.,63.5,0.));
#220 = DIRECTION('',(0.,1.,0.));
#221 = DIRECTION('',(0.,-0.,1.));
#222 = DEFINITIONAL_REPRESENTATION('',(#223),#231);
#223 = ( BOUNDED_CURVE() B_SPLINE_CURVE(2,(#224,#225,#226,#227,#228,#229
,#230),.UNSPECIFIED.,.T.,.F.) B_SPLINE_CURVE_WITH_KNOTS((1,2,2,2,2,1),(
    -2.094395102393,0.,2.094395102393,4.188790204786,6.28318530718,
8.377580409573),.UNSPECIFIED.) CURVE() GEOMETRIC_REPRESENTATION_ITEM() 
RATIONAL_B_SPLINE_CURVE((1.,0.5,1.,0.5,1.,0.5,1.)) REPRESENTATION_ITEM(
  '') );
#224 = CARTESIAN_POINT('',(-2.,2.22044604925E-16));
#225 = CARTESIAN_POINT('',(-2.,3.464101615138));
#226 = CARTESIAN_POINT('',(1.,1.732050807569));
#227 = CARTESIAN_POINT('',(4.,4.576950980888E-17));
#228 = CARTESIAN_POINT('',(1.,-1.732050807569));
#229 = CARTESIAN_POINT('',(-2.,-3.464101615138));
#230 = CARTESIAN_POINT('',(-2.,2.22044604925E-16));
#231 = ( GEOMETRIC_REPRESENTATION_CONTEXT(2) 
PARAMETRIC_REPRESENTATION_CONTEXT() REPRESENTATION_CONTEXT('2D SPACE',''
  ) );
#232 = ADVANCED_FACE('',(#233),#73,.F.);
#233 = FACE_BOUND('',#234,.T.);
#234 = EDGE_LOOP('',(#235,#236,#259,#287,#308));
#235 = ORIENTED_EDGE('',*,*,#145,.F.);
#236 = ORIENTED_EDGE('',*,*,#237,.T.);
#237 = EDGE_CURVE('',#122,#238,#240,.T.);
#238 = VERTEX_POINT('',#239);
#239 = CARTESIAN_POINT('',(-1.5,43.,2.));
#240 = SURFACE_CURVE('',#241,(#245,#252),.PCURVE_S1.);
#241 = LINE('',#242,#243);
#242 = CARTESIAN_POINT('',(-1.5,63.,2.));
#243 = VECTOR('',#244,1.);
#244 = DIRECTION('',(0.,-1.,0.));
#245 = PCURVE('',#73,#246);
#246 = DEFINITIONAL_REPRESENTATION('',(#247),#251);
#247 = LINE('',#248,#249);
#248 = CARTESIAN_POINT('',(0.,-30.72681202353));
#249 = VECTOR('',#250,1.);
#250 = DIRECTION('',(0.,-1.));
#251 = ( GEOMETRIC_REPRESENTATION_CONTEXT(2) 
PARAMETRIC_REPRESENTATION_CONTEXT() REPRESENTATION_CONTEXT('2D SPACE',''
  ) );
#252 = PCURVE('',#109,#253);
#253 = DEFINITIONAL_REPRESENTATION('',(#254),#258);
#254 = LINE('',#255,#256);
#255 = CARTESIAN_POINT('',(-0.840028755402,-11.92893218813));
#256 = VECTOR('',#257,1.);
#257 = DIRECTION('',(0.,1.));
#258 = ( GEOMETRIC_REPRESENTATION_CONTEXT(2) 
PARAMETRIC_REPRESENTATION_CONTEXT() REPRESENTATION_CONTEXT('2D SPACE',''
  ) );
#259 = ORIENTED_EDGE('',*,*,#260,.T.);
#260 = EDGE_CURVE('',#238,#261,#263,.T.);
#261 = VERTEX_POINT('',#262);
#262 = CARTESIAN_POINT('',(1.5,43.,2.));
#263 = SURFACE_CURVE('',#264,(#268,#275),.PCURVE_S1.);
#264 = LINE('',#265,#266);
#265 = CARTESIAN_POINT('',(-1.5,43.,2.));
#266 = VECTOR('',#267,1.);
#267 = DIRECTION('',(1.,0.,0.));
#268 = PCURVE('',#73,#269);
#269 = DEFINITIONAL_REPRESENTATION('',(#270),#274);
#270 = LINE('',#271,#272);
#271 = CARTESIAN_POINT('',(0.,-50.72681202353));
#272 = VECTOR('',#273,1.);
#273 = DIRECTION('',(-1.,0.));
#274 = ( GEOMETRIC_REPRESENTATION_CONTEXT(2) 
PARAMETRIC_REPRESENTATION_CONTEXT() REPRESENTATION_CONTEXT('2D SPACE',''
  ) );
#275 = PCURVE('',#276,#281);
#276 = PLANE('',#277);
#277 = AXIS2_PLACEMENT_3D('',#278,#279,#280);
#278 = CARTESIAN_POINT('',(0.,43.,0.));
#279 = DIRECTION('',(0.,1.,0.));
#280 = DIRECTION('',(0.,-0.,1.));
#281 = DEFINITIONAL_REPRESENTATION('',(#282),#286);
#282 = LINE('',#283,#284);
#283 = CARTESIAN_POINT('',(2.,-1.5));
#284 = VECTOR('',#285,1.);
#285 = DIRECTION('',(0.,1.));
#286 = ( GEOMETRIC_REPRESENTATION_CONTEXT(2) 
PARAMETRIC_REPRESENTATION_CONTEXT() REPRESENTATION_CONTEXT('2D SPACE',''
  ) );
#287 = ORIENTED_EDGE('',*,*,#288,.F.);
#288 = EDGE_CURVE('',#24,#261,#289,.T.);
#289 = SURFACE_CURVE('',#290,(#294,#301),.PCURVE_S1.);
#290 = LINE('',#291,#292);
#291 = CARTESIAN_POINT('',(1.5,63.,2.));
#292 = VECTOR('',#293,1.);
#293 = DIRECTION('',(0.,-1.,0.));
#294 = PCURVE('',#73,#295);
#295 = DEFINITIONAL_REPRESENTATION('',(#296),#300);
#296 = LINE('',#297,#298);
#297 = CARTESIAN_POINT('',(-3.,-30.72681202353));
#298 = VECTOR('',#299,1.);
#299 = DIRECTION('',(0.,-1.));
#300 = ( GEOMETRIC_REPRESENTATION_CONTEXT(2) 
PARAMETRIC_REPRESENTATION_CONTEXT() REPRESENTATION_CONTEXT('2D SPACE',''
  ) );
#301 = PCURVE('',#109,#302);
#302 = DEFINITIONAL_REPRESENTATION('',(#303),#307);
#303 = LINE('',#304,#305);
#304 = CARTESIAN_POINT('',(-2.127030972988,-11.92893218813));
#305 = VECTOR('',#306,1.);
#306 = DIRECTION('',(0.,1.));
#307 = ( GEOMETRIC_REPRESENTATION_CONTEXT(2) 
PARAMETRIC_REPRESENTATION_CONTEXT() REPRESENTATION_CONTEXT('2D SPACE',''
  ) );
#308 = ORIENTED_EDGE('',*,*,#21,.F.);
#309 = ADVANCED_FACE('',(#310),#109,.T.);
#310 = FACE_BOUND('',#311,.T.);
#311 = EDGE_LOOP('',(#312,#341,#362,#363,#364,#386,#387,#388));
#312 = ORIENTED_EDGE('',*,*,#313,.T.);
#313 = EDGE_CURVE('',#314,#314,#316,.T.);
#314 = VERTEX_POINT('',#315);
#315 = CARTESIAN_POINT('',(2.490486745229,38.,-0.217889356869));
#316 = SURFACE_CURVE('',#317,(#322,#329),.PCURVE_S1.);
#317 = CIRCLE('',#318,2.5);
#318 = AXIS2_PLACEMENT_3D('',#319,#320,#321);
#319 = CARTESIAN_POINT('',(0.,38.,0.));
#320 = DIRECTION('',(0.,1.,0.));
#321 = DIRECTION('',(0.996194698092,0.,-8.715574274766E-02));
#322 = PCURVE('',#109,#323);
#323 = DEFINITIONAL_REPRESENTATION('',(#324),#328);
#324 = LINE('',#325,#326);
#325 = CARTESIAN_POINT('',(3.14159265359,13.071067811865));
#326 = VECTOR('',#327,1.);
#327 = DIRECTION('',(-1.,0.));
#328 = ( GEOMETRIC_REPRESENTATION_CONTEXT(2) 
PARAMETRIC_REPRESENTATION_CONTEXT() REPRESENTATION_CONTEXT('2D SPACE',''
  ) );
#329 = PCURVE('',#330,#335);
#330 = PLANE('',#331);
#331 = AXIS2_PLACEMENT_3D('',#332,#333,#334);
#332 = CARTESIAN_POINT('',(0.,38.,0.));
#333 = DIRECTION('',(0.,1.,0.));
#334 = DIRECTION('',(0.,-0.,1.));
#335 = DEFINITIONAL_REPRESENTATION('',(#336),#340);
#336 = CIRCLE('',#337,2.5);
#337 = AXIS2_PLACEMENT_2D('',#338,#339);
#338 = CARTESIAN_POINT('',(0.,0.));
#339 = DIRECTION('',(-8.715574274766E-02,0.996194698092));
#340 = ( GEOMETRIC_REPRESENTATION_CONTEXT(2) 
PARAMETRIC_REPRESENTATION_CONTEXT() REPRESENTATION_CONTEXT('2D SPACE',''
  ) );
#341 = ORIENTED_EDGE('',*,*,#342,.T.);
#342 = EDGE_CURVE('',#314,#93,#343,.T.);
#343 = SEAM_CURVE('',#344,(#348,#355),.PCURVE_S1.);
#344 = LINE('',#345,#346);
#345 = CARTESIAN_POINT('',(2.490486745229,51.071067811865,
    -0.217889356869));
#346 = VECTOR('',#347,1.);
#347 = DIRECTION('',(0.,1.,0.));
#348 = PCURVE('',#109,#349);
#349 = DEFINITIONAL_REPRESENTATION('',(#350),#354);
#350 = LINE('',#351,#352);
#351 = CARTESIAN_POINT('',(-3.14159265359,0.));
#352 = VECTOR('',#353,1.);
#353 = DIRECTION('',(0.,-1.));
#354 = ( GEOMETRIC_REPRESENTATION_CONTEXT(2) 
PARAMETRIC_REPRESENTATION_CONTEXT() REPRESENTATION_CONTEXT('2D SPACE',''
  ) );
#355 = PCURVE('',#109,#356);
#356 = DEFINITIONAL_REPRESENTATION('',(#357),#361);
#357 = LINE('',#358,#359);
#358 = CARTESIAN_POINT('',(3.14159265359,0.));
#359 = VECTOR('',#360,1.);
#360 = DIRECTION('',(0.,-1.));
#361 = ( GEOMETRIC_REPRESENTATION_CONTEXT(2) 
PARAMETRIC_REPRESENTATION_CONTEXT() REPRESENTATION_CONTEXT('2D SPACE',''
  ) );
#362 = ORIENTED_EDGE('',*,*,#92,.F.);
#363 = ORIENTED_EDGE('',*,*,#288,.T.);
#364 = ORIENTED_EDGE('',*,*,#365,.F.);
#365 = EDGE_CURVE('',#238,#261,#366,.T.);
#366 = SURFACE_CURVE('',#367,(#372,#379),.PCURVE_S1.);
#367 = CIRCLE('',#368,2.5);
#368 = AXIS2_PLACEMENT_3D('',#369,#370,#371);
#369 = CARTESIAN_POINT('',(0.,43.,0.));
#370 = DIRECTION('',(0.,1.,0.));
#371 = DIRECTION('',(0.996194698092,0.,-8.715574274766E-02));
#372 = PCURVE('',#109,#373);
#373 = DEFINITIONAL_REPRESENTATION('',(#374),#378);
#374 = LINE('',#375,#376);
#375 = CARTESIAN_POINT('',(3.14159265359,8.071067811865));
#376 = VECTOR('',#377,1.);
#377 = DIRECTION('',(-1.,0.));
#378 = ( GEOMETRIC_REPRESENTATION_CONTEXT(2) 
PARAMETRIC_REPRESENTATION_CONTEXT() REPRESENTATION_CONTEXT('2D SPACE',''
  ) );
#379 = PCURVE('',#276,#380);
#380 = DEFINITIONAL_REPRESENTATION('',(#381),#385);
#381 = CIRCLE('',#382,2.5);
#382 = AXIS2_PLACEMENT_2D('',#383,#384);
#383 = CARTESIAN_POINT('',(0.,0.));
#384 = DIRECTION('',(-8.715574274766E-02,0.996194698092));
#385 = ( GEOMETRIC_REPRESENTATION_CONTEXT(2) 
PARAMETRIC_REPRESENTATION_CONTEXT() REPRESENTATION_CONTEXT('2D SPACE',''
  ) );
#386 = ORIENTED_EDGE('',*,*,#237,.F.);
#387 = ORIENTED_EDGE('',*,*,#121,.F.);
#388 = ORIENTED_EDGE('',*,*,#342,.F.);
#389 = ADVANCED_FACE('',(#390),#330,.F.);
#390 = FACE_BOUND('',#391,.T.);
#391 = EDGE_LOOP('',(#392));
#392 = ORIENTED_EDGE('',*,*,#313,.F.);
#393 = ADVANCED_FACE('',(#394),#276,.T.);
#394 = FACE_BOUND('',#395,.T.);
#395 = EDGE_LOOP('',(#396,#397));
#396 = ORIENTED_EDGE('',*,*,#260,.F.);
#397 = ORIENTED_EDGE('',*,*,#365,.T.);
#398 = ADVANCED_FACE('',(#399),#217,.T.);
#399 = FACE_BOUND('',#400,.T.);
#400 = EDGE_LOOP('',(#401));
#401 = ORIENTED_EDGE('',*,*,#202,.F.);
#402 = ( GEOMETRIC_REPRESENTATION_CONTEXT(3) 
GLOBAL_UNCERTAINTY_ASSIGNED_CONTEXT((#406)) GLOBAL_UNIT_ASSIGNED_CONTEXT
((#403,#404,#405)) REPRESENTATION_CONTEXT('Context #1',
  '3D Context with UNIT and UNCERTAINTY') );
#403 = ( LENGTH_UNIT() NAMED_UNIT(*) SI_UNIT(.MILLI.,.METRE.) );
#404 = ( NAMED_UNIT(*) PLANE_ANGLE_UNIT() SI_UNIT($,.RADIAN.) );
#405 = ( NAMED_UNIT(*) SI_UNIT($,.STERADIAN.) SOLID_ANGLE_UNIT() );
#406 = UNCERTAINTY_MEASURE_WITH_UNIT(LENGTH_MEASURE(1.E-03),#403,
  'distance_accuracy_value','confusion accuracy');
#407 = PRODUCT_RELATED_PRODUCT_CATEGORY('part',$,(#7));
ENDSEC;
END-ISO-10303-21;
