ISO-10303-21;
HEADER;
FILE_DESCRIPTION(('Open CASCADE Model'),'2;1');
FILE_NAME('Open CASCADE Shape Model','2026-08-13T22:17:10',('Author'),(
    'Open CASCADE'),'Open CASCADE STEP processor 7.9','Open CASCADE 7.9'
  ,'Unknown');
FILE_SCHEMA(('AUTOMOTIVE_DESIGN { 1 0 10303 214 1 1 1 1 }'));
ENDSEC;
DATA;
#1 = APPLICATION_PROTOCOL_DEFINITION('international standard',
  'automotive_design',2000,#2);
#2 = APPLICATION_CONTEXT(
  'core data for automotive mechanical design processes');
#3 = SHAPE_DEFINITION_REPRESENTATION(#4,#10);
#4 = PRODUCT_DEFINITION_SHAPE('','',#5);
#5 = PRODUCT_DEFINITION('design','',#6,#9);
#6 = PRODUCT_DEFINITION_FORMATION('','',#7);
#7 = PRODUCT('Open CASCADE STEP translator 7.9 438',
  'Open CASCADE STEP translator 7.9 438','',(#8));
#8 = PRODUCT_CONTEXT('',#2,'mechanical');
#9 = PRODUCT_DEFINITION_CONTEXT('part definition',#2,'design');
#10 = ADVANCED_BREP_SHAPE_REPRESENTATION('',(#11,#15),#770);
#11 = AXIS2_PLACEMENT_3D('',#12,#13,#14);
#12 = CARTESIAN_POINT('',(0.,0.,0.));
#13 = DIRECTION('',(0.,0.,1.));
#14 = DIRECTION('',(1.,0.,-0.));
#15 = MANIFOLD_SOLID_BREP('',#16);
#16 = CLOSED_SHELL('',(#17,#109,#113,#173,#368,#489,#626,#702,#707,#766)
  );
#17 = ADVANCED_FACE('',(#18),#32,.F.);
#18 = FACE_BOUND('',#19,.F.);
#19 = EDGE_LOOP('',(#20,#50,#81,#82));
#20 = ORIENTED_EDGE('',*,*,#21,.T.);
#21 = EDGE_CURVE('',#22,#24,#26,.T.);
#22 = VERTEX_POINT('',#23);
#23 = CARTESIAN_POINT('',(-2.34,17.00000025332,4.));
#24 = VERTEX_POINT('',#25);
#25 = CARTESIAN_POINT('',(-2.34,17.00000025332,3.5));
#26 = SEAM_CURVE('',#27,(#31,#43),.PCURVE_S1.);
#27 = LINE('',#28,#29);
#28 = CARTESIAN_POINT('',(-2.34,17.00000025332,33.5));
#29 = VECTOR('',#30,1.);
#30 = DIRECTION('',(0.,-2.960594732334E-16,-1.));
#31 = PCURVE('',#32,#37);
#32 = CYLINDRICAL_SURFACE('',#33,2.34);
#33 = AXIS2_PLACEMENT_3D('',#34,#35,#36);
#34 = CARTESIAN_POINT('',(0.,17.00000025332,33.5));
#35 = DIRECTION('',(0.,-2.960594732334E-16,-1.));
#36 = DIRECTION('',(1.,0.,0.));
#37 = DEFINITIONAL_REPRESENTATION('',(#38),#42);
#38 = LINE('',#39,#40);
#39 = CARTESIAN_POINT('',(3.14159265359,0.));
#40 = VECTOR('',#41,1.);
#41 = DIRECTION('',(0.,1.));
#42 = ( GEOMETRIC_REPRESENTATION_CONTEXT(2) 
PARAMETRIC_REPRESENTATION_CONTEXT() REPRESENTATION_CONTEXT('2D SPACE',''
  ) );
#43 = PCURVE('',#32,#44);
#44 = DEFINITIONAL_REPRESENTATION('',(#45),#49);
#45 = LINE('',#46,#47);
#46 = CARTESIAN_POINT('',(-3.14159265359,0.));
#47 = VECTOR('',#48,1.);
#48 = DIRECTION('',(0.,1.));
#49 = ( GEOMETRIC_REPRESENTATION_CONTEXT(2) 
PARAMETRIC_REPRESENTATION_CONTEXT() REPRESENTATION_CONTEXT('2D SPACE',''
  ) );
#50 = ORIENTED_EDGE('',*,*,#51,.F.);
#51 = EDGE_CURVE('',#24,#24,#52,.T.);
#52 = SURFACE_CURVE('',#53,(#58,#65),.PCURVE_S1.);
#53 = CIRCLE('',#54,2.34);
#54 = AXIS2_PLACEMENT_3D('',#55,#56,#57);
#55 = CARTESIAN_POINT('',(0.,17.00000025332,3.5));
#56 = DIRECTION('',(0.,-2.914335439641E-16,-1.));
#57 = DIRECTION('',(1.,0.,0.));
#58 = PCURVE('',#32,#59);
#59 = DEFINITIONAL_REPRESENTATION('',(#60),#64);
#60 = LINE('',#61,#62);
#61 = CARTESIAN_POINT('',(-6.28318530718,30.));
#62 = VECTOR('',#63,1.);
#63 = DIRECTION('',(1.,0.));
#64 = ( GEOMETRIC_REPRESENTATION_CONTEXT(2) 
PARAMETRIC_REPRESENTATION_CONTEXT() REPRESENTATION_CONTEXT('2D SPACE',''
  ) );
#65 = PCURVE('',#66,#71);
#66 = PLANE('',#67);
#67 = AXIS2_PLACEMENT_3D('',#68,#69,#70);
#68 = CARTESIAN_POINT('',(0.,17.00000025332,3.5));
#69 = DIRECTION('',(0.,2.914335439641E-16,1.));
#70 = DIRECTION('',(1.,0.,-0.));
#71 = DEFINITIONAL_REPRESENTATION('',(#72),#80);
#72 = ( BOUNDED_CURVE() B_SPLINE_CURVE(2,(#73,#74,#75,#76,#77,#78,#79),
.UNSPECIFIED.,.T.,.F.) B_SPLINE_CURVE_WITH_KNOTS((1,2,2,2,2,1),(
    -2.094395102393,0.,2.094395102393,4.188790204786,6.28318530718,
8.377580409573),.UNSPECIFIED.) CURVE() GEOMETRIC_REPRESENTATION_ITEM() 
RATIONAL_B_SPLINE_CURVE((1.,0.5,1.,0.5,1.,0.5,1.)) REPRESENTATION_ITEM(
  '') );
#73 = CARTESIAN_POINT('',(2.34,0.));
#74 = CARTESIAN_POINT('',(2.34,-4.052998889711));
#75 = CARTESIAN_POINT('',(-1.17,-2.026499444856));
#76 = CARTESIAN_POINT('',(-4.68,-5.73134702001E-16));
#77 = CARTESIAN_POINT('',(-1.17,2.026499444856));
#78 = CARTESIAN_POINT('',(2.34,4.052998889711));
#79 = CARTESIAN_POINT('',(2.34,0.));
#80 = ( GEOMETRIC_REPRESENTATION_CONTEXT(2) 
PARAMETRIC_REPRESENTATION_CONTEXT() REPRESENTATION_CONTEXT('2D SPACE',''
  ) );
#81 = ORIENTED_EDGE('',*,*,#21,.F.);
#82 = ORIENTED_EDGE('',*,*,#83,.T.);
#83 = EDGE_CURVE('',#22,#22,#84,.T.);
#84 = SURFACE_CURVE('',#85,(#90,#97),.PCURVE_S1.);
#85 = CIRCLE('',#86,2.34);
#86 = AXIS2_PLACEMENT_3D('',#87,#88,#89);
#87 = CARTESIAN_POINT('',(0.,17.00000025332,4.));
#88 = DIRECTION('',(0.,0.,-1.));
#89 = DIRECTION('',(1.,0.,0.));
#90 = PCURVE('',#32,#91);
#91 = DEFINITIONAL_REPRESENTATION('',(#92),#96);
#92 = LINE('',#93,#94);
#93 = CARTESIAN_POINT('',(-6.28318530718,29.5));
#94 = VECTOR('',#95,1.);
#95 = DIRECTION('',(1.,0.));
#96 = ( GEOMETRIC_REPRESENTATION_CONTEXT(2) 
PARAMETRIC_REPRESENTATION_CONTEXT() REPRESENTATION_CONTEXT('2D SPACE',''
  ) );
#97 = PCURVE('',#98,#103);
#98 = PLANE('',#99);
#99 = AXIS2_PLACEMENT_3D('',#100,#101,#102);
#100 = CARTESIAN_POINT('',(-3.,31.,4.));
#101 = DIRECTION('',(0.,0.,-1.));
#102 = DIRECTION('',(1.,0.,0.));
#103 = DEFINITIONAL_REPRESENTATION('',(#104),#108);
#104 = CIRCLE('',#105,2.34);
#105 = AXIS2_PLACEMENT_2D('',#106,#107);
#106 = CARTESIAN_POINT('',(3.,13.99999974668));
#107 = DIRECTION('',(1.,0.));
#108 = ( GEOMETRIC_REPRESENTATION_CONTEXT(2) 
PARAMETRIC_REPRESENTATION_CONTEXT() REPRESENTATION_CONTEXT('2D SPACE',''
  ) );
#109 = ADVANCED_FACE('',(#110),#66,.T.);
#110 = FACE_BOUND('',#111,.T.);
#111 = EDGE_LOOP('',(#112));
#112 = ORIENTED_EDGE('',*,*,#51,.F.);
#113 = ADVANCED_FACE('',(#114),#129,.T.);
#114 = FACE_BOUND('',#115,.T.);
#115 = EDGE_LOOP('',(#116,#152));
#116 = ORIENTED_EDGE('',*,*,#117,.T.);
#117 = EDGE_CURVE('',#118,#120,#122,.T.);
#118 = VERTEX_POINT('',#119);
#119 = CARTESIAN_POINT('',(-3.,5.,4.));
#120 = VERTEX_POINT('',#121);
#121 = CARTESIAN_POINT('',(3.,5.,4.));
#122 = SURFACE_CURVE('',#123,(#128,#140),.PCURVE_S1.);
#123 = CIRCLE('',#124,5.);
#124 = AXIS2_PLACEMENT_3D('',#125,#126,#127);
#125 = CARTESIAN_POINT('',(0.,5.,0.));
#126 = DIRECTION('',(0.,1.,0.));
#127 = DIRECTION('',(-1.,0.,0.));
#128 = PCURVE('',#129,#134);
#129 = PLANE('',#130);
#130 = AXIS2_PLACEMENT_3D('',#131,#132,#133);
#131 = CARTESIAN_POINT('',(0.,5.,4.5));
#132 = DIRECTION('',(0.,1.,0.));
#133 = DIRECTION('',(-1.,0.,0.));
#134 = DEFINITIONAL_REPRESENTATION('',(#135),#139);
#135 = CIRCLE('',#136,5.);
#136 = AXIS2_PLACEMENT_2D('',#137,#138);
#137 = CARTESIAN_POINT('',(0.,-4.5));
#138 = DIRECTION('',(1.,0.));
#139 = ( GEOMETRIC_REPRESENTATION_CONTEXT(2) 
PARAMETRIC_REPRESENTATION_CONTEXT() REPRESENTATION_CONTEXT('2D SPACE',''
  ) );
#140 = PCURVE('',#141,#146);
#141 = CYLINDRICAL_SURFACE('',#142,5.);
#142 = AXIS2_PLACEMENT_3D('',#143,#144,#145);
#143 = CARTESIAN_POINT('',(0.,0.,0.));
#144 = DIRECTION('',(0.,1.,0.));
#145 = DIRECTION('',(-1.,0.,0.));
#146 = DEFINITIONAL_REPRESENTATION('',(#147),#151);
#147 = LINE('',#148,#149);
#148 = CARTESIAN_POINT('',(-1.110223024625E-16,5.));
#149 = VECTOR('',#150,1.);
#150 = DIRECTION('',(1.,0.));
#151 = ( GEOMETRIC_REPRESENTATION_CONTEXT(2) 
PARAMETRIC_REPRESENTATION_CONTEXT() REPRESENTATION_CONTEXT('2D SPACE',''
  ) );
#152 = ORIENTED_EDGE('',*,*,#153,.F.);
#153 = EDGE_CURVE('',#118,#120,#154,.T.);
#154 = SURFACE_CURVE('',#155,(#159,#166),.PCURVE_S1.);
#155 = LINE('',#156,#157);
#156 = CARTESIAN_POINT('',(-1.5,5.,4.));
#157 = VECTOR('',#158,1.);
#158 = DIRECTION('',(1.,0.,0.));
#159 = PCURVE('',#129,#160);
#160 = DEFINITIONAL_REPRESENTATION('',(#161),#165);
#161 = LINE('',#162,#163);
#162 = CARTESIAN_POINT('',(1.5,-0.5));
#163 = VECTOR('',#164,1.);
#164 = DIRECTION('',(-1.,0.));
#165 = ( GEOMETRIC_REPRESENTATION_CONTEXT(2) 
PARAMETRIC_REPRESENTATION_CONTEXT() REPRESENTATION_CONTEXT('2D SPACE',''
  ) );
#166 = PCURVE('',#98,#167);
#167 = DEFINITIONAL_REPRESENTATION('',(#168),#172);
#168 = LINE('',#169,#170);
#169 = CARTESIAN_POINT('',(1.5,26.));
#170 = VECTOR('',#171,1.);
#171 = DIRECTION('',(1.,0.));
#172 = ( GEOMETRIC_REPRESENTATION_CONTEXT(2) 
PARAMETRIC_REPRESENTATION_CONTEXT() REPRESENTATION_CONTEXT('2D SPACE',''
  ) );
#173 = ADVANCED_FACE('',(#174),#193,.T.);
#174 = FACE_BOUND('',#175,.T.);
#175 = EDGE_LOOP('',(#176,#238,#267,#322,#346));
#176 = ORIENTED_EDGE('',*,*,#177,.T.);
#177 = EDGE_CURVE('',#178,#180,#182,.T.);
#178 = VERTEX_POINT('',#179);
#179 = CARTESIAN_POINT('',(-3.,30.075735931288,4.));
#180 = VERTEX_POINT('',#181);
#181 = CARTESIAN_POINT('',(-2.851147334486,30.287867965644,4.));
#182 = SURFACE_CURVE('',#183,(#192,#226),.PCURVE_S1.);
#183 = B_SPLINE_CURVE_WITH_KNOTS('',3,(#184,#185,#186,#187,#188,#189,
    #190,#191),.UNSPECIFIED.,.F.,.F.,(4,2,2,4),(0.267847277907,
    0.277080570479,0.28926026582,0.293587474987),.UNSPECIFIED.);
#184 = CARTESIAN_POINT('',(-3.,30.075735931288,4.));
#185 = CARTESIAN_POINT('',(-3.,30.106513573195,4.));
#186 = CARTESIAN_POINT('',(-2.989935783391,30.142049057033,4.));
#187 = CARTESIAN_POINT('',(-2.955619675876,30.204635218106,4.));
#188 = CARTESIAN_POINT('',(-2.92154574104,30.239455996706,4.));
#189 = CARTESIAN_POINT('',(-2.87710896626,30.2719044979,4.));
#190 = CARTESIAN_POINT('',(-2.864467503136,30.280136544119,4.));
#191 = CARTESIAN_POINT('',(-2.851147334486,30.287867965644,4.));
#192 = PCURVE('',#193,#198);
#193 = TOROIDAL_SURFACE('',#194,4.7,0.3);
#194 = AXIS2_PLACEMENT_3D('',#195,#196,#197);
#195 = CARTESIAN_POINT('',(0.,30.075735931288,0.));
#196 = DIRECTION('',(0.,1.,0.));
#197 = DIRECTION('',(1.408839003529E-14,0.,-1.));
#198 = DEFINITIONAL_REPRESENTATION('',(#199),#225);
#199 = B_SPLINE_CURVE_WITH_KNOTS('',3,(#200,#201,#202,#203,#204,#205,
    #206,#207,#208,#209,#210,#211,#212,#213,#214,#215,#216,#217,#218,
    #219,#220,#221,#222,#223,#224),.UNSPECIFIED.,.F.,.F.,(4,1,1,1,1,1,1,
    1,1,1,1,1,1,1,1,1,1,1,1,1,1,1,4),(0.267847277907,0.269017286865,
    0.270187295823,0.271357304782,0.27252731374,0.273697322698,
    0.274867331656,0.276037340614,0.277207349572,0.278377358531,
    0.279547367489,0.280717376447,0.281887385405,0.283057394363,
    0.284227403322,0.28539741228,0.286567421238,0.287737430196,
    0.288907439154,0.290077448112,0.291247457071,0.292417466029,
    0.293587474987),.QUASI_UNIFORM_KNOTS.);
#200 = CARTESIAN_POINT('',(2.498091544797,0.));
#201 = CARTESIAN_POINT('',(2.498091551516,1.299790883743E-02));
#202 = CARTESIAN_POINT('',(2.498143251914,3.951150232021E-02));
#203 = CARTESIAN_POINT('',(2.498365584111,8.035771618236E-02));
#204 = CARTESIAN_POINT('',(2.498722414888,0.121812259854));
#205 = CARTESIAN_POINT('',(2.499203474314,0.163372604656));
#206 = CARTESIAN_POINT('',(2.499798824695,0.204540779887));
#207 = CARTESIAN_POINT('',(2.500497446684,0.244761715743));
#208 = CARTESIAN_POINT('',(2.501292464988,0.283688410409));
#209 = CARTESIAN_POINT('',(2.50216155834,0.320238225017));
#210 = CARTESIAN_POINT('',(2.503141982502,0.356241059459));
#211 = CARTESIAN_POINT('',(2.504243759176,0.392665302586));
#212 = CARTESIAN_POINT('',(2.505447647162,0.429032674664));
#213 = CARTESIAN_POINT('',(2.506742192724,0.465235038182));
#214 = CARTESIAN_POINT('',(2.508113781045,0.50105138193));
#215 = CARTESIAN_POINT('',(2.509549265236,0.536280973991));
#216 = CARTESIAN_POINT('',(2.511035299915,0.570713213107));
#217 = CARTESIAN_POINT('',(2.512558294851,0.604134718643));
#218 = CARTESIAN_POINT('',(2.514105199829,0.636349512589));
#219 = CARTESIAN_POINT('',(2.515660360711,0.667106909153));
#220 = CARTESIAN_POINT('',(2.517217275783,0.696381516622));
#221 = CARTESIAN_POINT('',(2.518859337111,0.726106375172));
#222 = CARTESIAN_POINT('',(2.520563020848,0.755781318511));
#223 = CARTESIAN_POINT('',(2.521739319293,0.775543757546));
#224 = CARTESIAN_POINT('',(2.522336373456,0.785398163398));
#225 = ( GEOMETRIC_REPRESENTATION_CONTEXT(2) 
PARAMETRIC_REPRESENTATION_CONTEXT() REPRESENTATION_CONTEXT('2D SPACE',''
  ) );
#226 = PCURVE('',#98,#227);
#227 = DEFINITIONAL_REPRESENTATION('',(#228),#237);
#228 = B_SPLINE_CURVE_WITH_KNOTS('',3,(#229,#230,#231,#232,#233,#234,
    #235,#236),.UNSPECIFIED.,.F.,.F.,(4,2,2,4),(0.267847277907,
    0.277080570479,0.28926026582,0.293587474987),.UNSPECIFIED.);
#229 = CARTESIAN_POINT('',(0.,0.924264068712));
#230 = CARTESIAN_POINT('',(0.,0.893486426805));
#231 = CARTESIAN_POINT('',(1.006421660943E-02,0.857950942967));
#232 = CARTESIAN_POINT('',(4.43803241241E-02,0.795364781894));
#233 = CARTESIAN_POINT('',(7.845425896042E-02,0.760544003294));
#234 = CARTESIAN_POINT('',(0.12289103374,0.7280955021));
#235 = CARTESIAN_POINT('',(0.135532496864,0.719863455881));
#236 = CARTESIAN_POINT('',(0.148852665514,0.712132034356));
#237 = ( GEOMETRIC_REPRESENTATION_CONTEXT(2) 
PARAMETRIC_REPRESENTATION_CONTEXT() REPRESENTATION_CONTEXT('2D SPACE',''
  ) );
#238 = ORIENTED_EDGE('',*,*,#239,.T.);
#239 = EDGE_CURVE('',#180,#240,#242,.T.);
#240 = VERTEX_POINT('',#241);
#241 = CARTESIAN_POINT('',(2.851147334486,30.287867965644,4.));
#242 = SURFACE_CURVE('',#243,(#248,#255),.PCURVE_S1.);
#243 = CIRCLE('',#244,4.912132034356);
#244 = AXIS2_PLACEMENT_3D('',#245,#246,#247);
#245 = CARTESIAN_POINT('',(2.445748698109E-16,30.287867965644,0.));
#246 = DIRECTION('',(0.,-1.,0.));
#247 = DIRECTION('',(-1.110223024625E-16,-0.,-1.));
#248 = PCURVE('',#193,#249);
#249 = DEFINITIONAL_REPRESENTATION('',(#250),#254);
#250 = LINE('',#251,#252);
#251 = CARTESIAN_POINT('',(6.28318530718,0.785398163397));
#252 = VECTOR('',#253,1.);
#253 = DIRECTION('',(-1.,-4.841722697812E-16));
#254 = ( GEOMETRIC_REPRESENTATION_CONTEXT(2) 
PARAMETRIC_REPRESENTATION_CONTEXT() REPRESENTATION_CONTEXT('2D SPACE',''
  ) );
#255 = PCURVE('',#256,#261);
#256 = CONICAL_SURFACE('',#257,4.6,0.785398163397);
#257 = AXIS2_PLACEMENT_3D('',#258,#259,#260);
#258 = CARTESIAN_POINT('',(0.,30.6,0.));
#259 = DIRECTION('',(0.,-1.,0.));
#260 = DIRECTION('',(1.032123937051E-13,0.,-1.));
#261 = DEFINITIONAL_REPRESENTATION('',(#262),#266);
#262 = LINE('',#263,#264);
#263 = CARTESIAN_POINT('',(-1.034727858951E-13,0.312132034356));
#264 = VECTOR('',#265,1.);
#265 = DIRECTION('',(1.,8.559037380619E-17));
#266 = ( GEOMETRIC_REPRESENTATION_CONTEXT(2) 
PARAMETRIC_REPRESENTATION_CONTEXT() REPRESENTATION_CONTEXT('2D SPACE',''
  ) );
#267 = ORIENTED_EDGE('',*,*,#268,.T.);
#268 = EDGE_CURVE('',#240,#269,#271,.T.);
#269 = VERTEX_POINT('',#270);
#270 = CARTESIAN_POINT('',(3.,30.075735931288,4.));
#271 = SURFACE_CURVE('',#272,(#281,#310),.PCURVE_S1.);
#272 = B_SPLINE_CURVE_WITH_KNOTS('',3,(#273,#274,#275,#276,#277,#278,
    #279,#280),.UNSPECIFIED.,.F.,.F.,(4,2,2,4),(0.242107080827,
    0.246434289994,0.258613985335,0.267847277907),.UNSPECIFIED.);
#273 = CARTESIAN_POINT('',(2.851147334486,30.287867965644,4.));
#274 = CARTESIAN_POINT('',(2.864467503136,30.280136544119,4.));
#275 = CARTESIAN_POINT('',(2.87710896626,30.2719044979,4.));
#276 = CARTESIAN_POINT('',(2.92154574104,30.239455996706,4.));
#277 = CARTESIAN_POINT('',(2.955619675876,30.204635218106,4.));
#278 = CARTESIAN_POINT('',(2.989935783391,30.142049057033,4.));
#279 = CARTESIAN_POINT('',(3.,30.106513573195,4.));
#280 = CARTESIAN_POINT('',(3.,30.075735931288,4.));
#281 = PCURVE('',#193,#282);
#282 = DEFINITIONAL_REPRESENTATION('',(#283),#309);
#283 = B_SPLINE_CURVE_WITH_KNOTS('',3,(#284,#285,#286,#287,#288,#289,
    #290,#291,#292,#293,#294,#295,#296,#297,#298,#299,#300,#301,#302,
    #303,#304,#305,#306,#307,#308),.UNSPECIFIED.,.F.,.F.,(4,1,1,1,1,1,1,
    1,1,1,1,1,1,1,1,1,1,1,1,1,1,1,4),(0.242107080827,0.243277089785,
    0.244447098743,0.245617107702,0.24678711666,0.247957125618,
    0.249127134576,0.250297143534,0.251467152493,0.252637161451,
    0.253807170409,0.254977179367,0.256147188325,0.257317197283,
    0.258487206242,0.2596572152,0.260827224158,0.261997233116,
    0.263167242074,0.264337251032,0.265507259991,0.266677268949,
    0.267847277907),.QUASI_UNIFORM_KNOTS.);
#284 = CARTESIAN_POINT('',(-2.522336373456,0.785398163398));
#285 = CARTESIAN_POINT('',(-2.521739319293,0.775543757546));
#286 = CARTESIAN_POINT('',(-2.520563020848,0.755781318511));
#287 = CARTESIAN_POINT('',(-2.518859337111,0.726106375173));
#288 = CARTESIAN_POINT('',(-2.517217275783,0.696381516622));
#289 = CARTESIAN_POINT('',(-2.515660360711,0.667106909153));
#290 = CARTESIAN_POINT('',(-2.514105199829,0.636349512589));
#291 = CARTESIAN_POINT('',(-2.512558294851,0.604134718643));
#292 = CARTESIAN_POINT('',(-2.511035299915,0.570713213107));
#293 = CARTESIAN_POINT('',(-2.509549265236,0.536280973991));
#294 = CARTESIAN_POINT('',(-2.508113781045,0.50105138193));
#295 = CARTESIAN_POINT('',(-2.506742192724,0.465235038182));
#296 = CARTESIAN_POINT('',(-2.505447647162,0.429032674664));
#297 = CARTESIAN_POINT('',(-2.504243759176,0.392665302586));
#298 = CARTESIAN_POINT('',(-2.503141982502,0.356241059459));
#299 = CARTESIAN_POINT('',(-2.50216155834,0.320238225017));
#300 = CARTESIAN_POINT('',(-2.501292464988,0.283688410409));
#301 = CARTESIAN_POINT('',(-2.500497446684,0.244761715744));
#302 = CARTESIAN_POINT('',(-2.499798824695,0.204540779887));
#303 = CARTESIAN_POINT('',(-2.499203474314,0.163372604656));
#304 = CARTESIAN_POINT('',(-2.498722414888,0.121812259854));
#305 = CARTESIAN_POINT('',(-2.498365584111,8.035771618239E-02));
#306 = CARTESIAN_POINT('',(-2.498143251914,3.951150232027E-02));
#307 = CARTESIAN_POINT('',(-2.498091551516,1.299790883747E-02));
#308 = CARTESIAN_POINT('',(-2.498091544796,0.));
#309 = ( GEOMETRIC_REPRESENTATION_CONTEXT(2) 
PARAMETRIC_REPRESENTATION_CONTEXT() REPRESENTATION_CONTEXT('2D SPACE',''
  ) );
#310 = PCURVE('',#98,#311);
#311 = DEFINITIONAL_REPRESENTATION('',(#312),#321);
#312 = B_SPLINE_CURVE_WITH_KNOTS('',3,(#313,#314,#315,#316,#317,#318,
    #319,#320),.UNSPECIFIED.,.F.,.F.,(4,2,2,4),(0.242107080827,
    0.246434289994,0.258613985335,0.267847277907),.UNSPECIFIED.);
#313 = CARTESIAN_POINT('',(5.851147334486,0.712132034356));
#314 = CARTESIAN_POINT('',(5.864467503136,0.719863455881));
#315 = CARTESIAN_POINT('',(5.87710896626,0.7280955021));
#316 = CARTESIAN_POINT('',(5.92154574104,0.760544003294));
#317 = CARTESIAN_POINT('',(5.955619675876,0.795364781894));
#318 = CARTESIAN_POINT('',(5.989935783391,0.857950942967));
#319 = CARTESIAN_POINT('',(6.,0.893486426805));
#320 = CARTESIAN_POINT('',(6.,0.924264068712));
#321 = ( GEOMETRIC_REPRESENTATION_CONTEXT(2) 
PARAMETRIC_REPRESENTATION_CONTEXT() REPRESENTATION_CONTEXT('2D SPACE',''
  ) );
#322 = ORIENTED_EDGE('',*,*,#323,.T.);
#323 = EDGE_CURVE('',#269,#324,#326,.T.);
#324 = VERTEX_POINT('',#325);
#325 = CARTESIAN_POINT('',(5.,30.075735931288,-6.123233995737E-16));
#326 = SURFACE_CURVE('',#327,(#332,#339),.PCURVE_S1.);
#327 = CIRCLE('',#328,5.);
#328 = AXIS2_PLACEMENT_3D('',#329,#330,#331);
#329 = CARTESIAN_POINT('',(0.,30.075735931288,0.));
#330 = DIRECTION('',(0.,1.,0.));
#331 = DIRECTION('',(-6.123233995737E-17,0.,-1.));
#332 = PCURVE('',#193,#333);
#333 = DEFINITIONAL_REPRESENTATION('',(#334),#338);
#334 = LINE('',#335,#336);
#335 = CARTESIAN_POINT('',(-6.28318530718,0.));
#336 = VECTOR('',#337,1.);
#337 = DIRECTION('',(1.,0.));
#338 = ( GEOMETRIC_REPRESENTATION_CONTEXT(2) 
PARAMETRIC_REPRESENTATION_CONTEXT() REPRESENTATION_CONTEXT('2D SPACE',''
  ) );
#339 = PCURVE('',#141,#340);
#340 = DEFINITIONAL_REPRESENTATION('',(#341),#345);
#341 = LINE('',#342,#343);
#342 = CARTESIAN_POINT('',(-1.570796326795,30.075735931288));
#343 = VECTOR('',#344,1.);
#344 = DIRECTION('',(1.,0.));
#345 = ( GEOMETRIC_REPRESENTATION_CONTEXT(2) 
PARAMETRIC_REPRESENTATION_CONTEXT() REPRESENTATION_CONTEXT('2D SPACE',''
  ) );
#346 = ORIENTED_EDGE('',*,*,#347,.T.);
#347 = EDGE_CURVE('',#324,#178,#348,.T.);
#348 = SURFACE_CURVE('',#349,(#354,#361),.PCURVE_S1.);
#349 = CIRCLE('',#350,5.);
#350 = AXIS2_PLACEMENT_3D('',#351,#352,#353);
#351 = CARTESIAN_POINT('',(0.,30.075735931288,0.));
#352 = DIRECTION('',(0.,1.,0.));
#353 = DIRECTION('',(-6.123233995737E-17,0.,-1.));
#354 = PCURVE('',#193,#355);
#355 = DEFINITIONAL_REPRESENTATION('',(#356),#360);
#356 = LINE('',#357,#358);
#357 = CARTESIAN_POINT('',(-6.28318530718,0.));
#358 = VECTOR('',#359,1.);
#359 = DIRECTION('',(1.,0.));
#360 = ( GEOMETRIC_REPRESENTATION_CONTEXT(2) 
PARAMETRIC_REPRESENTATION_CONTEXT() REPRESENTATION_CONTEXT('2D SPACE',''
  ) );
#361 = PCURVE('',#141,#362);
#362 = DEFINITIONAL_REPRESENTATION('',(#363),#367);
#363 = LINE('',#364,#365);
#364 = CARTESIAN_POINT('',(-7.853981633974,30.075735931288));
#365 = VECTOR('',#366,1.);
#366 = DIRECTION('',(1.,0.));
#367 = ( GEOMETRIC_REPRESENTATION_CONTEXT(2) 
PARAMETRIC_REPRESENTATION_CONTEXT() REPRESENTATION_CONTEXT('2D SPACE',''
  ) );
#368 = ADVANCED_FACE('',(#369),#256,.T.);
#369 = FACE_BOUND('',#370,.T.);
#370 = EDGE_LOOP('',(#371,#372,#417,#446));
#371 = ORIENTED_EDGE('',*,*,#239,.F.);
#372 = ORIENTED_EDGE('',*,*,#373,.T.);
#373 = EDGE_CURVE('',#180,#374,#376,.T.);
#374 = VERTEX_POINT('',#375);
#375 = CARTESIAN_POINT('',(-1.54460729339,30.912132034356,4.));
#376 = SURFACE_CURVE('',#377,(#381,#410),.PCURVE_S1.);
#377 = ( BOUNDED_CURVE() B_SPLINE_CURVE(2,(#378,#379,#380),
.UNSPECIFIED.,.F.,.F.) B_SPLINE_CURVE_WITH_KNOTS((3,3),(3.654095980112,
4.076046227477),.PIECEWISE_BEZIER_KNOTS.) CURVE() 
GEOMETRIC_REPRESENTATION_ITEM() RATIONAL_B_SPLINE_CURVE((1.18309426004,
1.117337847169,1.033953833285)) REPRESENTATION_ITEM('') );
#378 = CARTESIAN_POINT('',(-2.851147334486,30.287867965644,4.));
#379 = CARTESIAN_POINT('',(-2.153549813831,30.6927742869,4.));
#380 = CARTESIAN_POINT('',(-1.54460729339,30.912132034356,4.));
#381 = PCURVE('',#256,#382);
#382 = DEFINITIONAL_REPRESENTATION('',(#383),#409);
#383 = B_SPLINE_CURVE_WITH_KNOTS('',3,(#384,#385,#386,#387,#388,#389,
    #390,#391,#392,#393,#394,#395,#396,#397,#398,#399,#400,#401,#402,
    #403,#404,#405,#406,#407,#408),.UNSPECIFIED.,.F.,.F.,(4,1,1,1,1,1,1,
    1,1,1,1,1,1,1,1,1,1,1,1,1,1,1,4),(3.654095980112,3.673275536811,
    3.692455093509,3.711634650208,3.730814206906,3.749993763604,
    3.769173320303,3.788352877001,3.8075324337,3.826711990398,
    3.845891547096,3.865071103795,3.884250660493,3.903430217192,
    3.92260977389,3.941789330589,3.960968887287,3.980148443985,
    3.999328000684,4.018507557382,4.037687114081,4.056866670779,
    4.076046227477),.QUASI_UNIFORM_KNOTS.);
#384 = CARTESIAN_POINT('',(3.760848933724,0.312132034356));
#385 = CARTESIAN_POINT('',(3.757539327956,0.300544127781));
#386 = CARTESIAN_POINT('',(3.75087997679,0.27755310777));
#387 = CARTESIAN_POINT('',(3.740768801843,0.243623345704));
#388 = CARTESIAN_POINT('',(3.730533755956,0.210252638486));
#389 = CARTESIAN_POINT('',(3.720173093404,0.177443628733));
#390 = CARTESIAN_POINT('',(3.709685054047,0.145199203032));
#391 = CARTESIAN_POINT('',(3.699067861761,0.113522533363));
#392 = CARTESIAN_POINT('',(3.688319725648,8.241707818475E-02));
#393 = CARTESIAN_POINT('',(3.677438840585,5.188659508812E-02));
#394 = CARTESIAN_POINT('',(3.666423388026,2.193515115744E-02));
#395 = CARTESIAN_POINT('',(3.655271536821,-7.432865200735E-03));
#396 = CARTESIAN_POINT('',(3.643981444116,-3.621273191029E-02));
#397 = CARTESIAN_POINT('',(3.632551256329,-6.439938004649E-02));
#398 = CARTESIAN_POINT('',(3.620979110197,-9.198737984761E-02));
#399 = CARTESIAN_POINT('',(3.609263133908,-0.118970925832));
#400 = CARTESIAN_POINT('',(3.597401448317,-0.145343821008));
#401 = CARTESIAN_POINT('',(3.585392168252,-0.171099459952));
#402 = CARTESIAN_POINT('',(3.573233403904,-0.196230811277));
#403 = CARTESIAN_POINT('',(3.560923262332,-0.220730397225));
#404 = CARTESIAN_POINT('',(3.548459849009,-0.244590278437));
#405 = CARTESIAN_POINT('',(3.535841269702,-0.267802013495));
#406 = CARTESIAN_POINT('',(3.523065631583,-0.290356706261));
#407 = CARTESIAN_POINT('',(3.514442575679,-0.304948714582));
#408 = CARTESIAN_POINT('',(3.510104242002,-0.312132034356));
#409 = ( GEOMETRIC_REPRESENTATION_CONTEXT(2) 
PARAMETRIC_REPRESENTATION_CONTEXT() REPRESENTATION_CONTEXT('2D SPACE',''
  ) );
#410 = PCURVE('',#98,#411);
#411 = DEFINITIONAL_REPRESENTATION('',(#412),#416);
#412 = ( BOUNDED_CURVE() B_SPLINE_CURVE(2,(#413,#414,#415),
.UNSPECIFIED.,.F.,.F.) B_SPLINE_CURVE_WITH_KNOTS((3,3),(3.654095980112,
4.076046227477),.PIECEWISE_BEZIER_KNOTS.) CURVE() 
GEOMETRIC_REPRESENTATION_ITEM() RATIONAL_B_SPLINE_CURVE((1.18309426004,
1.117337847169,1.033953833285)) REPRESENTATION_ITEM('') );
#413 = CARTESIAN_POINT('',(0.148852665514,0.712132034356));
#414 = CARTESIAN_POINT('',(0.846450186169,0.3072257131));
#415 = CARTESIAN_POINT('',(1.45539270661,8.7867965644E-02));
#416 = ( GEOMETRIC_REPRESENTATION_CONTEXT(2) 
PARAMETRIC_REPRESENTATION_CONTEXT() REPRESENTATION_CONTEXT('2D SPACE',''
  ) );
#417 = ORIENTED_EDGE('',*,*,#418,.F.);
#418 = EDGE_CURVE('',#419,#374,#421,.T.);
#419 = VERTEX_POINT('',#420);
#420 = CARTESIAN_POINT('',(1.544607293389,30.912132034356,4.));
#421 = SURFACE_CURVE('',#422,(#427,#434),.PCURVE_S1.);
#422 = CIRCLE('',#423,4.287867965644);
#423 = AXIS2_PLACEMENT_3D('',#424,#425,#426);
#424 = CARTESIAN_POINT('',(-2.625561889646E-16,30.912132034356,0.));
#425 = DIRECTION('',(0.,1.,0.));
#426 = DIRECTION('',(2.22044604925E-16,0.,-1.));
#427 = PCURVE('',#256,#428);
#428 = DEFINITIONAL_REPRESENTATION('',(#429),#433);
#429 = LINE('',#430,#431);
#430 = CARTESIAN_POINT('',(12.566370614359,-0.312132034356));
#431 = VECTOR('',#432,1.);
#432 = DIRECTION('',(-1.,-7.077382619643E-17));
#433 = ( GEOMETRIC_REPRESENTATION_CONTEXT(2) 
PARAMETRIC_REPRESENTATION_CONTEXT() REPRESENTATION_CONTEXT('2D SPACE',''
  ) );
#434 = PCURVE('',#435,#440);
#435 = TOROIDAL_SURFACE('',#436,4.075735931288,0.3);
#436 = AXIS2_PLACEMENT_3D('',#437,#438,#439);
#437 = CARTESIAN_POINT('',(0.,30.7,0.));
#438 = DIRECTION('',(0.,-1.,0.));
#439 = DIRECTION('',(0.,0.,-1.));
#440 = DEFINITIONAL_REPRESENTATION('',(#441),#445);
#441 = LINE('',#442,#443);
#442 = CARTESIAN_POINT('',(6.28318530718,5.497787143782));
#443 = VECTOR('',#444,1.);
#444 = DIRECTION('',(-1.,0.));
#445 = ( GEOMETRIC_REPRESENTATION_CONTEXT(2) 
PARAMETRIC_REPRESENTATION_CONTEXT() REPRESENTATION_CONTEXT('2D SPACE',''
  ) );
#446 = ORIENTED_EDGE('',*,*,#447,.T.);
#447 = EDGE_CURVE('',#419,#240,#448,.T.);
#448 = SURFACE_CURVE('',#449,(#453,#482),.PCURVE_S1.);
#449 = ( BOUNDED_CURVE() B_SPLINE_CURVE(2,(#450,#451,#452),
.UNSPECIFIED.,.F.,.F.) B_SPLINE_CURVE_WITH_KNOTS((3,3),(
8.413544396215E-02,0.506085691326),.PIECEWISE_BEZIER_KNOTS.) CURVE() 
GEOMETRIC_REPRESENTATION_ITEM() RATIONAL_B_SPLINE_CURVE((1.033953833285,
1.117337847169,1.18309426004)) REPRESENTATION_ITEM('') );
#450 = CARTESIAN_POINT('',(1.544607293389,30.912132034356,4.));
#451 = CARTESIAN_POINT('',(2.153549813832,30.692774286899,4.));
#452 = CARTESIAN_POINT('',(2.851147334486,30.287867965644,4.));
#453 = PCURVE('',#256,#454);
#454 = DEFINITIONAL_REPRESENTATION('',(#455),#481);
#455 = B_SPLINE_CURVE_WITH_KNOTS('',3,(#456,#457,#458,#459,#460,#461,
    #462,#463,#464,#465,#466,#467,#468,#469,#470,#471,#472,#473,#474,
    #475,#476,#477,#478,#479,#480),.UNSPECIFIED.,.F.,.F.,(4,1,1,1,1,1,1,
    1,1,1,1,1,1,1,1,1,1,1,1,1,1,1,4),(8.413544396215E-02,0.103315000661,
    0.122494557359,0.141674114057,0.160853670756,0.180033227454,
    0.199212784152,0.218392340851,0.237571897549,0.256751454248,
    0.275931010946,0.295110567644,0.314290124343,0.333469681041,
    0.352649237739,0.371828794438,0.391008351136,0.410187907835,
    0.429367464533,0.448547021231,0.46772657793,0.486906134628,
    0.506085691326),.QUASI_UNIFORM_KNOTS.);
#456 = CARTESIAN_POINT('',(9.056266372357,-0.312132034356));
#457 = CARTESIAN_POINT('',(9.05192803868,-0.304948714582));
#458 = CARTESIAN_POINT('',(9.043304982776,-0.290356706261));
#459 = CARTESIAN_POINT('',(9.030529344658,-0.267802013495));
#460 = CARTESIAN_POINT('',(9.01791076535,-0.244590278437));
#461 = CARTESIAN_POINT('',(9.005447352027,-0.220730397225));
#462 = CARTESIAN_POINT('',(8.993137210455,-0.196230811277));
#463 = CARTESIAN_POINT('',(8.980978446107,-0.171099459952));
#464 = CARTESIAN_POINT('',(8.968969166042,-0.145343821007));
#465 = CARTESIAN_POINT('',(8.957107480451,-0.118970925832));
#466 = CARTESIAN_POINT('',(8.945391504162,-9.198737984731E-02));
#467 = CARTESIAN_POINT('',(8.93381935803,-6.439938004618E-02));
#468 = CARTESIAN_POINT('',(8.922389170243,-3.621273190997E-02));
#469 = CARTESIAN_POINT('',(8.911099077538,-7.432865200409E-03));
#470 = CARTESIAN_POINT('',(8.899947226333,2.193515115775E-02));
#471 = CARTESIAN_POINT('',(8.888931773774,5.188659508843E-02));
#472 = CARTESIAN_POINT('',(8.878050888711,8.241707818504E-02));
#473 = CARTESIAN_POINT('',(8.867302752598,0.113522533364));
#474 = CARTESIAN_POINT('',(8.856685560312,0.145199203032));
#475 = CARTESIAN_POINT('',(8.846197520955,0.177443628733));
#476 = CARTESIAN_POINT('',(8.835836858403,0.210252638486));
#477 = CARTESIAN_POINT('',(8.825601812516,0.243623345704));
#478 = CARTESIAN_POINT('',(8.815490637569,0.27755310777));
#479 = CARTESIAN_POINT('',(8.808831286403,0.300544127781));
#480 = CARTESIAN_POINT('',(8.805521680635,0.312132034356));
#481 = ( GEOMETRIC_REPRESENTATION_CONTEXT(2) 
PARAMETRIC_REPRESENTATION_CONTEXT() REPRESENTATION_CONTEXT('2D SPACE',''
  ) );
#482 = PCURVE('',#98,#483);
#483 = DEFINITIONAL_REPRESENTATION('',(#484),#488);
#484 = ( BOUNDED_CURVE() B_SPLINE_CURVE(2,(#485,#486,#487),
.UNSPECIFIED.,.F.,.F.) B_SPLINE_CURVE_WITH_KNOTS((3,3),(
8.413544396215E-02,0.506085691326),.PIECEWISE_BEZIER_KNOTS.) CURVE() 
GEOMETRIC_REPRESENTATION_ITEM() RATIONAL_B_SPLINE_CURVE((1.033953833285,
1.117337847169,1.18309426004)) REPRESENTATION_ITEM('') );
#485 = CARTESIAN_POINT('',(4.544607293389,8.7867965644E-02));
#486 = CARTESIAN_POINT('',(5.153549813832,0.307225713101));
#487 = CARTESIAN_POINT('',(5.851147334486,0.712132034356));
#488 = ( GEOMETRIC_REPRESENTATION_CONTEXT(2) 
PARAMETRIC_REPRESENTATION_CONTEXT() REPRESENTATION_CONTEXT('2D SPACE',''
  ) );
#489 = ADVANCED_FACE('',(#490),#435,.T.);
#490 = FACE_BOUND('',#491,.T.);
#491 = EDGE_LOOP('',(#492,#543,#544,#595));
#492 = ORIENTED_EDGE('',*,*,#493,.T.);
#493 = EDGE_CURVE('',#494,#419,#496,.T.);
#494 = VERTEX_POINT('',#495);
#495 = CARTESIAN_POINT('',(0.782063540636,31.,4.));
#496 = SURFACE_CURVE('',#497,(#504,#533),.PCURVE_S1.);
#497 = B_SPLINE_CURVE_WITH_KNOTS('',3,(#498,#499,#500,#501,#502,#503),
  .UNSPECIFIED.,.F.,.F.,(4,2,4),(0.781545026065,0.841900188134,
    0.854016714393),.UNSPECIFIED.);
#498 = CARTESIAN_POINT('',(0.782063540636,31.,4.));
#499 = CARTESIAN_POINT('',(0.9832474142,31.,4.));
#500 = CARTESIAN_POINT('',(1.224554812969,30.992606170612,4.));
#501 = CARTESIAN_POINT('',(1.460065949433,30.938831845547,4.));
#502 = CARTESIAN_POINT('',(1.503075738174,30.927092836229,4.));
#503 = CARTESIAN_POINT('',(1.544607293389,30.912132034356,4.));
#504 = PCURVE('',#435,#505);
#505 = DEFINITIONAL_REPRESENTATION('',(#506),#532);
#506 = B_SPLINE_CURVE_WITH_KNOTS('',3,(#507,#508,#509,#510,#511,#512,
    #513,#514,#515,#516,#517,#518,#519,#520,#521,#522,#523,#524,#525,
    #526,#527,#528,#529,#530,#531),.UNSPECIFIED.,.F.,.F.,(4,1,1,1,1,1,1,
    1,1,1,1,1,1,1,1,1,1,1,1,1,1,1,4),(0.781545026065,0.784839193717,
    0.788133361368,0.791427529019,0.79472169667,0.798015864322,
    0.801310031973,0.804604199624,0.807898367275,0.811192534927,
    0.814486702578,0.817780870229,0.821075037881,0.824369205532,
    0.827663373183,0.830957540834,0.834251708486,0.837545876137,
    0.840840043788,0.84413421144,0.847428379091,0.850722546742,
    0.854016714393),.QUASI_UNIFORM_KNOTS.);
#507 = CARTESIAN_POINT('',(2.94851243711,4.712388980385));
#508 = CARTESIAN_POINT('',(2.945868357602,4.719411943592));
#509 = CARTESIAN_POINT('',(2.940530886135,4.733896856491));
#510 = CARTESIAN_POINT('',(2.932399034098,4.756943229796));
#511 = CARTESIAN_POINT('',(2.924163899396,4.781312124383));
#512 = CARTESIAN_POINT('',(2.915847600432,4.807001902691));
#513 = CARTESIAN_POINT('',(2.907472052268,4.834007393747));
#514 = CARTESIAN_POINT('',(2.89905891309,4.862319415564));
#515 = CARTESIAN_POINT('',(2.890629557369,4.891924998603));
#516 = CARTESIAN_POINT('',(2.882205044119,4.922807587225));
#517 = CARTESIAN_POINT('',(2.873806089121,4.954947440202));
#518 = CARTESIAN_POINT('',(2.865453040215,4.988322189284));
#519 = CARTESIAN_POINT('',(2.857165853144,5.022907601242));
#520 = CARTESIAN_POINT('',(2.848964081415,5.058678478344));
#521 = CARTESIAN_POINT('',(2.840866831112,5.09560995228));
#522 = CARTESIAN_POINT('',(2.832892865308,5.133678214316));
#523 = CARTESIAN_POINT('',(2.825060170196,5.17286420612));
#524 = CARTESIAN_POINT('',(2.817387550998,5.213147031991));
#525 = CARTESIAN_POINT('',(2.809888674271,5.254536377578));
#526 = CARTESIAN_POINT('',(2.802594322577,5.296959840701));
#527 = CARTESIAN_POINT('',(2.795469381369,5.34069203158));
#528 = CARTESIAN_POINT('',(2.788021021968,5.389169199952));
#529 = CARTESIAN_POINT('',(2.780513655813,5.441375009969));
#530 = CARTESIAN_POINT('',(2.775537346465,5.478615197872));
#531 = CARTESIAN_POINT('',(2.773081065178,5.49778714378));
#532 = ( GEOMETRIC_REPRESENTATION_CONTEXT(2) 
PARAMETRIC_REPRESENTATION_CONTEXT() REPRESENTATION_CONTEXT('2D SPACE',''
  ) );
#533 = PCURVE('',#98,#534);
#534 = DEFINITIONAL_REPRESENTATION('',(#535),#542);
#535 = B_SPLINE_CURVE_WITH_KNOTS('',3,(#536,#537,#538,#539,#540,#541),
  .UNSPECIFIED.,.F.,.F.,(4,2,4),(0.781545026065,0.841900188134,
    0.854016714393),.UNSPECIFIED.);
#536 = CARTESIAN_POINT('',(3.782063540636,0.));
#537 = CARTESIAN_POINT('',(3.9832474142,0.));
#538 = CARTESIAN_POINT('',(4.224554812969,7.393829387901E-03));
#539 = CARTESIAN_POINT('',(4.460065949433,6.11681544533E-02));
#540 = CARTESIAN_POINT('',(4.503075738174,7.29071637706E-02));
#541 = CARTESIAN_POINT('',(4.544607293389,8.78679656435E-02));
#542 = ( GEOMETRIC_REPRESENTATION_CONTEXT(2) 
PARAMETRIC_REPRESENTATION_CONTEXT() REPRESENTATION_CONTEXT('2D SPACE',''
  ) );
#543 = ORIENTED_EDGE('',*,*,#418,.T.);
#544 = ORIENTED_EDGE('',*,*,#545,.T.);
#545 = EDGE_CURVE('',#374,#546,#548,.T.);
#546 = VERTEX_POINT('',#547);
#547 = CARTESIAN_POINT('',(-0.782063540636,31.,4.));
#548 = SURFACE_CURVE('',#549,(#556,#585),.PCURVE_S1.);
#549 = B_SPLINE_CURVE_WITH_KNOTS('',3,(#550,#551,#552,#553,#554,#555),
  .UNSPECIFIED.,.F.,.F.,(4,2,4),(0.562419632692,0.574536158951,
    0.63489132102),.UNSPECIFIED.);
#550 = CARTESIAN_POINT('',(-1.54460729339,30.912132034356,4.));
#551 = CARTESIAN_POINT('',(-1.503075738175,30.927092836229,4.));
#552 = CARTESIAN_POINT('',(-1.460065949433,30.938831845547,4.));
#553 = CARTESIAN_POINT('',(-1.224554812969,30.992606170612,4.));
#554 = CARTESIAN_POINT('',(-0.9832474142,31.,4.));
#555 = CARTESIAN_POINT('',(-0.782063540636,31.,4.));
#556 = PCURVE('',#435,#557);
#557 = DEFINITIONAL_REPRESENTATION('',(#558),#584);
#558 = B_SPLINE_CURVE_WITH_KNOTS('',3,(#559,#560,#561,#562,#563,#564,
    #565,#566,#567,#568,#569,#570,#571,#572,#573,#574,#575,#576,#577,
    #578,#579,#580,#581,#582,#583),.UNSPECIFIED.,.F.,.F.,(4,1,1,1,1,1,1,
    1,1,1,1,1,1,1,1,1,1,1,1,1,1,1,4),(0.562419632692,0.565713800343,
    0.569007967994,0.572302135645,0.575596303297,0.578890470948,
    0.582184638599,0.585478806251,0.588772973902,0.592067141553,
    0.595361309204,0.598655476856,0.601949644507,0.605243812158,
    0.60853797981,0.611832147461,0.615126315112,0.618420482763,
    0.621714650415,0.625008818066,0.628302985717,0.631597153368,
    0.63489132102),.QUASI_UNIFORM_KNOTS.);
#559 = CARTESIAN_POINT('',(-2.773081065177,5.497787143781));
#560 = CARTESIAN_POINT('',(-2.775537346465,5.478615197873));
#561 = CARTESIAN_POINT('',(-2.780513655813,5.44137500997));
#562 = CARTESIAN_POINT('',(-2.788021021968,5.389169199953));
#563 = CARTESIAN_POINT('',(-2.795469381369,5.340692031581));
#564 = CARTESIAN_POINT('',(-2.802594322577,5.296959840702));
#565 = CARTESIAN_POINT('',(-2.80988867427,5.254536377579));
#566 = CARTESIAN_POINT('',(-2.817387550998,5.213147031991));
#567 = CARTESIAN_POINT('',(-2.825060170196,5.172864206121));
#568 = CARTESIAN_POINT('',(-2.832892865308,5.133678214317));
#569 = CARTESIAN_POINT('',(-2.840866831112,5.09560995228));
#570 = CARTESIAN_POINT('',(-2.848964081415,5.058678478344));
#571 = CARTESIAN_POINT('',(-2.857165853144,5.022907601242));
#572 = CARTESIAN_POINT('',(-2.865453040214,4.988322189284));
#573 = CARTESIAN_POINT('',(-2.873806089121,4.954947440203));
#574 = CARTESIAN_POINT('',(-2.882205044119,4.922807587225));
#575 = CARTESIAN_POINT('',(-2.890629557369,4.891924998603));
#576 = CARTESIAN_POINT('',(-2.89905891309,4.862319415565));
#577 = CARTESIAN_POINT('',(-2.907472052268,4.834007393748));
#578 = CARTESIAN_POINT('',(-2.915847600432,4.807001902691));
#579 = CARTESIAN_POINT('',(-2.924163899396,4.781312124384));
#580 = CARTESIAN_POINT('',(-2.932399034098,4.756943229796));
#581 = CARTESIAN_POINT('',(-2.940530886135,4.733896856491));
#582 = CARTESIAN_POINT('',(-2.945868357602,4.719411943592));
#583 = CARTESIAN_POINT('',(-2.94851243711,4.712388980385));
#584 = ( GEOMETRIC_REPRESENTATION_CONTEXT(2) 
PARAMETRIC_REPRESENTATION_CONTEXT() REPRESENTATION_CONTEXT('2D SPACE',''
  ) );
#585 = PCURVE('',#98,#586);
#586 = DEFINITIONAL_REPRESENTATION('',(#587),#594);
#587 = B_SPLINE_CURVE_WITH_KNOTS('',3,(#588,#589,#590,#591,#592,#593),
  .UNSPECIFIED.,.F.,.F.,(4,2,4),(0.562419632692,0.574536158951,
    0.63489132102),.UNSPECIFIED.);
#588 = CARTESIAN_POINT('',(1.45539270661,8.78679656438E-02));
#589 = CARTESIAN_POINT('',(1.496924261825,7.29071637708E-02));
#590 = CARTESIAN_POINT('',(1.539934050567,6.11681544534E-02));
#591 = CARTESIAN_POINT('',(1.775445187031,7.393829387901E-03));
#592 = CARTESIAN_POINT('',(2.0167525858,0.));
#593 = CARTESIAN_POINT('',(2.217936459364,0.));
#594 = ( GEOMETRIC_REPRESENTATION_CONTEXT(2) 
PARAMETRIC_REPRESENTATION_CONTEXT() REPRESENTATION_CONTEXT('2D SPACE',''
  ) );
#595 = ORIENTED_EDGE('',*,*,#596,.T.);
#596 = EDGE_CURVE('',#546,#494,#597,.T.);
#597 = SURFACE_CURVE('',#598,(#603,#610),.PCURVE_S1.);
#598 = CIRCLE('',#599,4.075735931288);
#599 = AXIS2_PLACEMENT_3D('',#600,#601,#602);
#600 = CARTESIAN_POINT('',(0.,31.,0.));
#601 = DIRECTION('',(0.,-1.,0.));
#602 = DIRECTION('',(1.836970198721E-16,0.,-1.));
#603 = PCURVE('',#435,#604);
#604 = DEFINITIONAL_REPRESENTATION('',(#605),#609);
#605 = LINE('',#606,#607);
#606 = CARTESIAN_POINT('',(-6.28318530718,4.712388980385));
#607 = VECTOR('',#608,1.);
#608 = DIRECTION('',(1.,0.));
#609 = ( GEOMETRIC_REPRESENTATION_CONTEXT(2) 
PARAMETRIC_REPRESENTATION_CONTEXT() REPRESENTATION_CONTEXT('2D SPACE',''
  ) );
#610 = PCURVE('',#611,#616);
#611 = PLANE('',#612);
#612 = AXIS2_PLACEMENT_3D('',#613,#614,#615);
#613 = CARTESIAN_POINT('',(0.,31.,0.));
#614 = DIRECTION('',(0.,1.,0.));
#615 = DIRECTION('',(-1.,0.,0.));
#616 = DEFINITIONAL_REPRESENTATION('',(#617),#625);
#617 = ( BOUNDED_CURVE() B_SPLINE_CURVE(2,(#618,#619,#620,#621,#622,#623
,#624),.UNSPECIFIED.,.T.,.F.) B_SPLINE_CURVE_WITH_KNOTS((1,2,2,2,2,1),(
    -2.094395102393,0.,2.094395102393,4.188790204786,6.28318530718,
8.377580409573),.UNSPECIFIED.) CURVE() GEOMETRIC_REPRESENTATION_ITEM() 
RATIONAL_B_SPLINE_CURVE((1.,0.5,1.,0.5,1.,0.5,1.)) REPRESENTATION_ITEM(
  '') );
#618 = CARTESIAN_POINT('',(-7.487005443633E-16,-4.075735931288));
#619 = CARTESIAN_POINT('',(-7.059381711225,-4.075735931288));
#620 = CARTESIAN_POINT('',(-3.529690855612,2.037867965644));
#621 = CARTESIAN_POINT('',(4.991336962422E-16,8.151471862576));
#622 = CARTESIAN_POINT('',(3.529690855612,2.037867965644));
#623 = CARTESIAN_POINT('',(7.059381711225,-4.075735931288));
#624 = CARTESIAN_POINT('',(-7.487005443633E-16,-4.075735931288));
#625 = ( GEOMETRIC_REPRESENTATION_CONTEXT(2) 
PARAMETRIC_REPRESENTATION_CONTEXT() REPRESENTATION_CONTEXT('2D SPACE',''
  ) );
#626 = ADVANCED_FACE('',(#627,#699),#98,.F.);
#627 = FACE_BOUND('',#628,.T.);
#628 = EDGE_LOOP('',(#629,#630,#651,#652,#653,#654,#675,#676,#677,#678)
  );
#629 = ORIENTED_EDGE('',*,*,#153,.T.);
#630 = ORIENTED_EDGE('',*,*,#631,.F.);
#631 = EDGE_CURVE('',#269,#120,#632,.T.);
#632 = SURFACE_CURVE('',#633,(#637,#644),.PCURVE_S1.);
#633 = LINE('',#634,#635);
#634 = CARTESIAN_POINT('',(3.,0.,4.));
#635 = VECTOR('',#636,1.);
#636 = DIRECTION('',(0.,-1.,0.));
#637 = PCURVE('',#98,#638);
#638 = DEFINITIONAL_REPRESENTATION('',(#639),#643);
#639 = LINE('',#640,#641);
#640 = CARTESIAN_POINT('',(6.,31.));
#641 = VECTOR('',#642,1.);
#642 = DIRECTION('',(0.,1.));
#643 = ( GEOMETRIC_REPRESENTATION_CONTEXT(2) 
PARAMETRIC_REPRESENTATION_CONTEXT() REPRESENTATION_CONTEXT('2D SPACE',''
  ) );
#644 = PCURVE('',#141,#645);
#645 = DEFINITIONAL_REPRESENTATION('',(#646),#650);
#646 = LINE('',#647,#648);
#647 = CARTESIAN_POINT('',(2.214297435588,0.));
#648 = VECTOR('',#649,1.);
#649 = DIRECTION('',(0.,-1.));
#650 = ( GEOMETRIC_REPRESENTATION_CONTEXT(2) 
PARAMETRIC_REPRESENTATION_CONTEXT() REPRESENTATION_CONTEXT('2D SPACE',''
  ) );
#651 = ORIENTED_EDGE('',*,*,#268,.F.);
#652 = ORIENTED_EDGE('',*,*,#447,.F.);
#653 = ORIENTED_EDGE('',*,*,#493,.F.);
#654 = ORIENTED_EDGE('',*,*,#655,.F.);
#655 = EDGE_CURVE('',#546,#494,#656,.T.);
#656 = SURFACE_CURVE('',#657,(#661,#668),.PCURVE_S1.);
#657 = LINE('',#658,#659);
#658 = CARTESIAN_POINT('',(-1.5,31.,4.));
#659 = VECTOR('',#660,1.);
#660 = DIRECTION('',(1.,0.,0.));
#661 = PCURVE('',#98,#662);
#662 = DEFINITIONAL_REPRESENTATION('',(#663),#667);
#663 = LINE('',#664,#665);
#664 = CARTESIAN_POINT('',(1.5,0.));
#665 = VECTOR('',#666,1.);
#666 = DIRECTION('',(1.,0.));
#667 = ( GEOMETRIC_REPRESENTATION_CONTEXT(2) 
PARAMETRIC_REPRESENTATION_CONTEXT() REPRESENTATION_CONTEXT('2D SPACE',''
  ) );
#668 = PCURVE('',#611,#669);
#669 = DEFINITIONAL_REPRESENTATION('',(#670),#674);
#670 = LINE('',#671,#672);
#671 = CARTESIAN_POINT('',(1.5,4.));
#672 = VECTOR('',#673,1.);
#673 = DIRECTION('',(-1.,0.));
#674 = ( GEOMETRIC_REPRESENTATION_CONTEXT(2) 
PARAMETRIC_REPRESENTATION_CONTEXT() REPRESENTATION_CONTEXT('2D SPACE',''
  ) );
#675 = ORIENTED_EDGE('',*,*,#545,.F.);
#676 = ORIENTED_EDGE('',*,*,#373,.F.);
#677 = ORIENTED_EDGE('',*,*,#177,.F.);
#678 = ORIENTED_EDGE('',*,*,#679,.F.);
#679 = EDGE_CURVE('',#118,#178,#680,.T.);
#680 = SURFACE_CURVE('',#681,(#685,#692),.PCURVE_S1.);
#681 = LINE('',#682,#683);
#682 = CARTESIAN_POINT('',(-3.,0.,4.));
#683 = VECTOR('',#684,1.);
#684 = DIRECTION('',(0.,1.,0.));
#685 = PCURVE('',#98,#686);
#686 = DEFINITIONAL_REPRESENTATION('',(#687),#691);
#687 = LINE('',#688,#689);
#688 = CARTESIAN_POINT('',(0.,31.));
#689 = VECTOR('',#690,1.);
#690 = DIRECTION('',(0.,-1.));
#691 = ( GEOMETRIC_REPRESENTATION_CONTEXT(2) 
PARAMETRIC_REPRESENTATION_CONTEXT() REPRESENTATION_CONTEXT('2D SPACE',''
  ) );
#692 = PCURVE('',#141,#693);
#693 = DEFINITIONAL_REPRESENTATION('',(#694),#698);
#694 = LINE('',#695,#696);
#695 = CARTESIAN_POINT('',(0.927295218002,0.));
#696 = VECTOR('',#697,1.);
#697 = DIRECTION('',(0.,1.));
#698 = ( GEOMETRIC_REPRESENTATION_CONTEXT(2) 
PARAMETRIC_REPRESENTATION_CONTEXT() REPRESENTATION_CONTEXT('2D SPACE',''
  ) );
#699 = FACE_BOUND('',#700,.T.);
#700 = EDGE_LOOP('',(#701));
#701 = ORIENTED_EDGE('',*,*,#83,.T.);
#702 = ADVANCED_FACE('',(#703),#611,.T.);
#703 = FACE_BOUND('',#704,.T.);
#704 = EDGE_LOOP('',(#705,#706));
#705 = ORIENTED_EDGE('',*,*,#596,.F.);
#706 = ORIENTED_EDGE('',*,*,#655,.T.);
#707 = ADVANCED_FACE('',(#708),#141,.T.);
#708 = FACE_BOUND('',#709,.T.);
#709 = EDGE_LOOP('',(#710,#711,#712,#713,#714,#715,#738,#765));
#710 = ORIENTED_EDGE('',*,*,#323,.F.);
#711 = ORIENTED_EDGE('',*,*,#631,.T.);
#712 = ORIENTED_EDGE('',*,*,#117,.F.);
#713 = ORIENTED_EDGE('',*,*,#679,.T.);
#714 = ORIENTED_EDGE('',*,*,#347,.F.);
#715 = ORIENTED_EDGE('',*,*,#716,.T.);
#716 = EDGE_CURVE('',#324,#717,#719,.T.);
#717 = VERTEX_POINT('',#718);
#718 = CARTESIAN_POINT('',(5.,-70.,-6.123233995737E-16));
#719 = SEAM_CURVE('',#720,(#724,#731),.PCURVE_S1.);
#720 = LINE('',#721,#722);
#721 = CARTESIAN_POINT('',(5.,0.,-6.123233995737E-16));
#722 = VECTOR('',#723,1.);
#723 = DIRECTION('',(0.,-1.,0.));
#724 = PCURVE('',#141,#725);
#725 = DEFINITIONAL_REPRESENTATION('',(#726),#730);
#726 = LINE('',#727,#728);
#727 = CARTESIAN_POINT('',(-3.14159265359,0.));
#728 = VECTOR('',#729,1.);
#729 = DIRECTION('',(0.,-1.));
#730 = ( GEOMETRIC_REPRESENTATION_CONTEXT(2) 
PARAMETRIC_REPRESENTATION_CONTEXT() REPRESENTATION_CONTEXT('2D SPACE',''
  ) );
#731 = PCURVE('',#141,#732);
#732 = DEFINITIONAL_REPRESENTATION('',(#733),#737);
#733 = LINE('',#734,#735);
#734 = CARTESIAN_POINT('',(3.14159265359,0.));
#735 = VECTOR('',#736,1.);
#736 = DIRECTION('',(0.,-1.));
#737 = ( GEOMETRIC_REPRESENTATION_CONTEXT(2) 
PARAMETRIC_REPRESENTATION_CONTEXT() REPRESENTATION_CONTEXT('2D SPACE',''
  ) );
#738 = ORIENTED_EDGE('',*,*,#739,.T.);
#739 = EDGE_CURVE('',#717,#717,#740,.T.);
#740 = SURFACE_CURVE('',#741,(#746,#753),.PCURVE_S1.);
#741 = CIRCLE('',#742,5.);
#742 = AXIS2_PLACEMENT_3D('',#743,#744,#745);
#743 = CARTESIAN_POINT('',(0.,-70.,0.));
#744 = DIRECTION('',(0.,1.,0.));
#745 = DIRECTION('',(-1.,0.,0.));
#746 = PCURVE('',#141,#747);
#747 = DEFINITIONAL_REPRESENTATION('',(#748),#752);
#748 = LINE('',#749,#750);
#749 = CARTESIAN_POINT('',(-6.28318530718,-70.));
#750 = VECTOR('',#751,1.);
#751 = DIRECTION('',(1.,0.));
#752 = ( GEOMETRIC_REPRESENTATION_CONTEXT(2) 
PARAMETRIC_REPRESENTATION_CONTEXT() REPRESENTATION_CONTEXT('2D SPACE',''
  ) );
#753 = PCURVE('',#754,#759);
#754 = PLANE('',#755);
#755 = AXIS2_PLACEMENT_3D('',#756,#757,#758);
#756 = CARTESIAN_POINT('',(0.,-70.,0.));
#757 = DIRECTION('',(0.,1.,0.));
#758 = DIRECTION('',(-1.,0.,0.));
#759 = DEFINITIONAL_REPRESENTATION('',(#760),#764);
#760 = CIRCLE('',#761,5.);
#761 = AXIS2_PLACEMENT_2D('',#762,#763);
#762 = CARTESIAN_POINT('',(0.,0.));
#763 = DIRECTION('',(1.,0.));
#764 = ( GEOMETRIC_REPRESENTATION_CONTEXT(2) 
PARAMETRIC_REPRESENTATION_CONTEXT() REPRESENTATION_CONTEXT('2D SPACE',''
  ) );
#765 = ORIENTED_EDGE('',*,*,#716,.F.);
#766 = ADVANCED_FACE('',(#767),#754,.F.);
#767 = FACE_BOUND('',#768,.T.);
#768 = EDGE_LOOP('',(#769));
#769 = ORIENTED_EDGE('',*,*,#739,.F.);
#770 = ( GEOMETRIC_REPRESENTATION_CONTEXT(3) 
GLOBAL_UNCERTAINTY_ASSIGNED_CONTEXT((#774)) GLOBAL_UNIT_ASSIGNED_CONTEXT
((#771,#772,#773)) REPRESENTATION_CONTEXT('Context #1',
  '3D Context with UNIT and UNCERTAINTY') );
#771 = ( LENGTH_UNIT() NAMED_UNIT(*) SI_UNIT(.MILLI.,.METRE.) );
#772 = ( NAMED_UNIT(*) PLANE_ANGLE_UNIT() SI_UNIT($,.RADIAN.) );
#773 = ( NAMED_UNIT(*) SI_UNIT($,.STERADIAN.) SOLID_ANGLE_UNIT() );
#774 = UNCERTAINTY_MEASURE_WITH_UNIT(LENGTH_MEASURE(1.E-04),#771,
  'distance_accuracy_value','confusion accuracy');
#775 = PRODUCT_RELATED_PRODUCT_CATEGORY('part',$,(#7));
ENDSEC;
END-ISO-10303-21;
