ISO-10303-21;
HEADER;
FILE_DESCRIPTION(('Open CASCADE Model'),'2;1');
FILE_NAME('Open CASCADE Shape Model','2026-08-13T22:17:17',('Author'),(
    'Open CASCADE'),'Open CASCADE STEP processor 7.9','Open CASCADE 7.9'
  ,'Unknown');
FILE_SCHEMA(('AUTOMOTIVE_DESIGN { 1 0 10303 214 1 1 1 1 }'));
ENDSEC;
DATA;
#1 = APPLICATION_PROTOCOL_DEFINITION('international standard',
  'automotive_design',2000,#2);
#2 = APPLICATION_CONTEXT(
  'core data for automotive mechanical design processes');
#3 = SHAPE_DEFINITION_REPRESENTATION(#4,#10);
#4 = PRODUCT_DEFINITION_SHAPE('','',#5);
#5 = PRODUCT_DEFINITION('design','',#6,#9);
#6 = PRODUCT_DEFINITION_FORMATION('','',#7);
#7 = PRODUCT('Open CASCADE STEP translator 7.9 457',
  'Open CASCADE STEP translator 7.9 457','',(#8));
#8 = PRODUCT_CONTEXT('',#2,'mechanical');
#9 = PRODUCT_DEFINITION_CONTEXT('part definition',#2,'design');
#10 = ADVANCED_BREP_SHAPE_REPRESENTATION('',(#11,#15),#1215);
#11 = AXIS2_PLACEMENT_3D('',#12,#13,#14);
#12 = CARTESIAN_POINT('',(0.,0.,0.));
#13 = DIRECTION('',(0.,0.,1.));
#14 = DIRECTION('',(1.,0.,-0.));
#15 = MANIFOLD_SOLID_BREP('',#16);
#16 = CLOSED_SHELL('',(#17,#551,#834,#1173,#1180,#1187));
#17 = ADVANCED_FACE('',(#18,#113,#358),#32,.F.);
#18 = FACE_BOUND('',#19,.F.);
#19 = EDGE_LOOP('',(#20,#50,#81,#82));
#20 = ORIENTED_EDGE('',*,*,#21,.T.);
#21 = EDGE_CURVE('',#22,#24,#26,.T.);
#22 = VERTEX_POINT('',#23);
#23 = CARTESIAN_POINT('',(56.,63.8,28.431413836785));
#24 = VERTEX_POINT('',#25);
#25 = CARTESIAN_POINT('',(38.,63.8,28.431413836785));
#26 = SEAM_CURVE('',#27,(#31,#43),.PCURVE_S1.);
#27 = LINE('',#28,#29);
#28 = CARTESIAN_POINT('',(46.5,63.8,28.431413836785));
#29 = VECTOR('',#30,1.);
#30 = DIRECTION('',(-1.,-2.22044604925E-16,0.));
#31 = PCURVE('',#32,#37);
#32 = CYLINDRICAL_SURFACE('',#33,1.2);
#33 = AXIS2_PLACEMENT_3D('',#34,#35,#36);
#34 = CARTESIAN_POINT('',(46.5,65.,28.431413836785));
#35 = DIRECTION('',(-1.,-2.22044604925E-16,0.));
#36 = DIRECTION('',(-2.22044604925E-16,1.,0.));
#37 = DEFINITIONAL_REPRESENTATION('',(#38),#42);
#38 = LINE('',#39,#40);
#39 = CARTESIAN_POINT('',(9.424777960769,0.));
#40 = VECTOR('',#41,1.);
#41 = DIRECTION('',(0.,1.));
#42 = ( GEOMETRIC_REPRESENTATION_CONTEXT(2) 
PARAMETRIC_REPRESENTATION_CONTEXT() REPRESENTATION_CONTEXT('2D SPACE',''
  ) );
#43 = PCURVE('',#32,#44);
#44 = DEFINITIONAL_REPRESENTATION('',(#45),#49);
#45 = LINE('',#46,#47);
#46 = CARTESIAN_POINT('',(3.14159265359,0.));
#47 = VECTOR('',#48,1.);
#48 = DIRECTION('',(0.,1.));
#49 = ( GEOMETRIC_REPRESENTATION_CONTEXT(2) 
PARAMETRIC_REPRESENTATION_CONTEXT() REPRESENTATION_CONTEXT('2D SPACE',''
  ) );
#50 = ORIENTED_EDGE('',*,*,#51,.F.);
#51 = EDGE_CURVE('',#24,#24,#52,.T.);
#52 = SURFACE_CURVE('',#53,(#58,#65),.PCURVE_S1.);
#53 = CIRCLE('',#54,1.2);
#54 = AXIS2_PLACEMENT_3D('',#55,#56,#57);
#55 = CARTESIAN_POINT('',(38.,65.,28.431413836785));
#56 = DIRECTION('',(-1.,-2.22044604925E-16,0.));
#57 = DIRECTION('',(-2.22044604925E-16,1.,0.));
#58 = PCURVE('',#32,#59);
#59 = DEFINITIONAL_REPRESENTATION('',(#60),#64);
#60 = LINE('',#61,#62);
#61 = CARTESIAN_POINT('',(0.,8.5));
#62 = VECTOR('',#63,1.);
#63 = DIRECTION('',(1.,0.));
#64 = ( GEOMETRIC_REPRESENTATION_CONTEXT(2) 
PARAMETRIC_REPRESENTATION_CONTEXT() REPRESENTATION_CONTEXT('2D SPACE',''
  ) );
#65 = PCURVE('',#66,#71);
#66 = PLANE('',#67);
#67 = AXIS2_PLACEMENT_3D('',#68,#69,#70);
#68 = CARTESIAN_POINT('',(38.,65.,28.431413836785));
#69 = DIRECTION('',(1.,2.22044604925E-16,0.));
#70 = DIRECTION('',(-2.22044604925E-16,1.,0.));
#71 = DEFINITIONAL_REPRESENTATION('',(#72),#80);
#72 = ( BOUNDED_CURVE() B_SPLINE_CURVE(2,(#73,#74,#75,#76,#77,#78,#79),
.UNSPECIFIED.,.T.,.F.) B_SPLINE_CURVE_WITH_KNOTS((1,2,2,2,2,1),(
    -2.094395102393,0.,2.094395102393,4.188790204786,6.28318530718,
8.377580409573),.UNSPECIFIED.) CURVE() GEOMETRIC_REPRESENTATION_ITEM() 
RATIONAL_B_SPLINE_CURVE((1.,0.5,1.,0.5,1.,0.5,1.)) REPRESENTATION_ITEM(
  '') );
#73 = CARTESIAN_POINT('',(1.2,0.));
#74 = CARTESIAN_POINT('',(1.2,-2.078460969083));
#75 = CARTESIAN_POINT('',(-0.6,-1.039230484541));
#76 = CARTESIAN_POINT('',(-2.4,-2.939152317954E-16));
#77 = CARTESIAN_POINT('',(-0.6,1.039230484541));
#78 = CARTESIAN_POINT('',(1.2,2.078460969083));
#79 = CARTESIAN_POINT('',(1.2,0.));
#80 = ( GEOMETRIC_REPRESENTATION_CONTEXT(2) 
PARAMETRIC_REPRESENTATION_CONTEXT() REPRESENTATION_CONTEXT('2D SPACE',''
  ) );
#81 = ORIENTED_EDGE('',*,*,#21,.F.);
#82 = ORIENTED_EDGE('',*,*,#83,.T.);
#83 = EDGE_CURVE('',#22,#22,#84,.T.);
#84 = SURFACE_CURVE('',#85,(#90,#97),.PCURVE_S1.);
#85 = CIRCLE('',#86,1.2);
#86 = AXIS2_PLACEMENT_3D('',#87,#88,#89);
#87 = CARTESIAN_POINT('',(56.,65.,28.431413836785));
#88 = DIRECTION('',(-1.,-2.22044604925E-16,0.));
#89 = DIRECTION('',(-2.22044604925E-16,1.,0.));
#90 = PCURVE('',#32,#91);
#91 = DEFINITIONAL_REPRESENTATION('',(#92),#96);
#92 = LINE('',#93,#94);
#93 = CARTESIAN_POINT('',(0.,-9.5));
#94 = VECTOR('',#95,1.);
#95 = DIRECTION('',(1.,0.));
#96 = ( GEOMETRIC_REPRESENTATION_CONTEXT(2) 
PARAMETRIC_REPRESENTATION_CONTEXT() REPRESENTATION_CONTEXT('2D SPACE',''
  ) );
#97 = PCURVE('',#98,#103);
#98 = PLANE('',#99);
#99 = AXIS2_PLACEMENT_3D('',#100,#101,#102);
#100 = CARTESIAN_POINT('',(56.,65.,28.431413836785));
#101 = DIRECTION('',(1.,2.22044604925E-16,0.));
#102 = DIRECTION('',(-2.22044604925E-16,1.,0.));
#103 = DEFINITIONAL_REPRESENTATION('',(#104),#112);
#104 = ( BOUNDED_CURVE() B_SPLINE_CURVE(2,(#105,#106,#107,#108,#109,#110
,#111),.UNSPECIFIED.,.T.,.F.) B_SPLINE_CURVE_WITH_KNOTS((1,2,2,2,2,1),(
    -2.094395102393,0.,2.094395102393,4.188790204786,6.28318530718,
8.377580409573),.UNSPECIFIED.) CURVE() GEOMETRIC_REPRESENTATION_ITEM() 
RATIONAL_B_SPLINE_CURVE((1.,0.5,1.,0.5,1.,0.5,1.)) REPRESENTATION_ITEM(
  '') );
#105 = CARTESIAN_POINT('',(1.2,0.));
#106 = CARTESIAN_POINT('',(1.2,-2.078460969083));
#107 = CARTESIAN_POINT('',(-0.6,-1.039230484541));
#108 = CARTESIAN_POINT('',(-2.4,-2.939152317954E-16));
#109 = CARTESIAN_POINT('',(-0.6,1.039230484541));
#110 = CARTESIAN_POINT('',(1.2,2.078460969083));
#111 = CARTESIAN_POINT('',(1.2,0.));
#112 = ( GEOMETRIC_REPRESENTATION_CONTEXT(2) 
PARAMETRIC_REPRESENTATION_CONTEXT() REPRESENTATION_CONTEXT('2D SPACE',''
  ) );
#113 = FACE_BOUND('',#114,.F.);
#114 = EDGE_LOOP('',(#115));
#115 = ORIENTED_EDGE('',*,*,#116,.T.);
#116 = EDGE_CURVE('',#117,#117,#119,.T.);
#117 = VERTEX_POINT('',#118);
#118 = CARTESIAN_POINT('',(45.007228851318,66.,29.094738794856));
#119 = SURFACE_CURVE('',#120,(#163,#258),.PCURVE_S1.);
#120 = B_SPLINE_CURVE_WITH_KNOTS('',3,(#121,#122,#123,#124,#125,#126,
    #127,#128,#129,#130,#131,#132,#133,#134,#135,#136,#137,#138,#139,
    #140,#141,#142,#143,#144,#145,#146,#147,#148,#149,#150,#151,#152,
    #153,#154,#155,#156,#157,#158,#159,#160,#161,#162),.UNSPECIFIED.,.T.
  ,.F.,(1,3,2,2,2,2,2,2,2,2,2,2,2,2,2,2,2,2,2,2,2,3,1),(
    -2.082532963242E-02,0.,2.082532963242E-02,4.165065926483E-02,
    8.330131852966E-02,0.123259361075,0.163217403621,0.203175446167,
    0.243133488713,0.284784147978,0.30560947761,0.326434807242,
    0.347260136875,0.368085466507,0.409736125772,0.449694168318,
    0.489652210864,0.529610253409,0.569568295955,0.61121895522,
    0.632044284852,0.652869614485,0.673694944117),.UNSPECIFIED.);
#121 = CARTESIAN_POINT('',(45.007228851318,66.,29.094738794856));
#122 = CARTESIAN_POINT('',(45.07664661676,66.,29.094738794856));
#123 = CARTESIAN_POINT('',(45.144651301828,65.992768617724,
    29.105930093736));
#124 = CARTESIAN_POINT('',(45.275797731296,65.965590660374,
    29.144279681391));
#125 = CARTESIAN_POINT('',(45.338984003215,65.945621895199,
    29.171269770227));
#126 = CARTESIAN_POINT('',(45.519181136951,65.86888079028,
    29.262916434017));
#127 = CARTESIAN_POINT('',(45.627083495315,65.794358918377,
    29.337314647021));
#128 = CARTESIAN_POINT('',(45.798041981254,65.623400432437,
    29.461998937512));
#129 = CARTESIAN_POINT('',(45.874346346588,65.5156076725,29.522722264477
    ));
#130 = CARTESIAN_POINT('',(45.979080567493,65.270644347759,
    29.607660868313));
#131 = CARTESIAN_POINT('',(46.007228851318,65.133193475153,
    29.631413836785));
#132 = CARTESIAN_POINT('',(46.007228851318,64.866806524847,
    29.631413836785));
#133 = CARTESIAN_POINT('',(45.979080567493,64.729355652241,
    29.607660868313));
#134 = CARTESIAN_POINT('',(45.874346346588,64.4843923275,29.522722264477
    ));
#135 = CARTESIAN_POINT('',(45.798041981254,64.376599567563,
    29.461998937512));
#136 = CARTESIAN_POINT('',(45.627083495315,64.205641081623,
    29.337314647021));
#137 = CARTESIAN_POINT('',(45.519181136951,64.13111920972,
    29.262916434017));
#138 = CARTESIAN_POINT('',(45.338984003215,64.054378104801,
    29.171269770227));
#139 = CARTESIAN_POINT('',(45.275797731296,64.034409339626,
    29.144279681391));
#140 = CARTESIAN_POINT('',(45.144651301828,64.007231382276,
    29.105930093736));
#141 = CARTESIAN_POINT('',(45.07664661676,64.,29.094738794856));
#142 = CARTESIAN_POINT('',(44.937811085877,64.,29.094738794856));
#143 = CARTESIAN_POINT('',(44.869806400809,64.007231382276,
    29.105930093736));
#144 = CARTESIAN_POINT('',(44.73865997134,64.034409339626,
    29.144279681391));
#145 = CARTESIAN_POINT('',(44.675473699422,64.054378104801,
    29.171269770227));
#146 = CARTESIAN_POINT('',(44.495276565686,64.13111920972,
    29.262916434017));
#147 = CARTESIAN_POINT('',(44.387374207322,64.205641081623,
    29.337314647021));
#148 = CARTESIAN_POINT('',(44.216415721383,64.376599567563,
    29.461998937512));
#149 = CARTESIAN_POINT('',(44.140111356049,64.4843923275,29.522722264477
    ));
#150 = CARTESIAN_POINT('',(44.035377135144,64.729355652241,
    29.607660868313));
#151 = CARTESIAN_POINT('',(44.007228851318,64.866806524847,
    29.631413836785));
#152 = CARTESIAN_POINT('',(44.007228851318,65.133193475153,
    29.631413836785));
#153 = CARTESIAN_POINT('',(44.035377135144,65.270644347759,
    29.607660868313));
#154 = CARTESIAN_POINT('',(44.140111356049,65.5156076725,29.522722264477
    ));
#155 = CARTESIAN_POINT('',(44.216415721383,65.623400432437,
    29.461998937512));
#156 = CARTESIAN_POINT('',(44.387374207322,65.794358918377,
    29.337314647021));
#157 = CARTESIAN_POINT('',(44.495276565686,65.86888079028,
    29.262916434017));
#158 = CARTESIAN_POINT('',(44.675473699422,65.945621895199,
    29.171269770227));
#159 = CARTESIAN_POINT('',(44.73865997134,65.965590660374,
    29.144279681391));
#160 = CARTESIAN_POINT('',(44.869806400809,65.992768617724,
    29.105930093736));
#161 = CARTESIAN_POINT('',(44.937811085877,66.,29.094738794856));
#162 = CARTESIAN_POINT('',(45.007228851318,66.,29.094738794856));
#163 = PCURVE('',#32,#164);
#164 = DEFINITIONAL_REPRESENTATION('',(#165),#257);
#165 = B_SPLINE_CURVE_WITH_KNOTS('',3,(#166,#167,#168,#169,#170,#171,
    #172,#173,#174,#175,#176,#177,#178,#179,#180,#181,#182,#183,#184,
    #185,#186,#187,#188,#189,#190,#191,#192,#193,#194,#195,#196,#197,
    #198,#199,#200,#201,#202,#203,#204,#205,#206,#207,#208,#209,#210,
    #211,#212,#213,#214,#215,#216,#217,#218,#219,#220,#221,#222,#223,
    #224,#225,#226,#227,#228,#229,#230,#231,#232,#233,#234,#235,#236,
    #237,#238,#239,#240,#241,#242,#243,#244,#245,#246,#247,#248,#249,
    #250,#251,#252,#253,#254,#255,#256),.UNSPECIFIED.,.T.,.F.,(4,1,1,1,1
    ,1,1,1,1,1,1,1,1,1,1,1,1,1,1,1,1,1,1,1,1,1,1,1,1,1,1,1,1,1,1,1,1,1,1
    ,1,1,1,1,1,1,1,1,1,1,1,1,1,1,1,1,1,1,1,1,1,1,1,1,1,1,1,1,1,1,1,1,1,1
    ,1,1,1,1,1,1,1,1,1,1,1,1,1,1,1,4),(0.,7.418972891873E-03,
    1.483794578375E-02,2.225691867562E-02,2.967589156749E-02,
    3.709486445936E-02,4.451383735124E-02,5.193281024311E-02,
    5.935178313498E-02,6.677075602685E-02,7.418972891873E-02,
    8.16087018106E-02,8.902767470247E-02,9.644664759434E-02,
    0.103865620486,0.111284593378,0.11870356627,0.126122539162,
    0.133541512054,0.140960484946,0.148379457837,0.155798430729,
    0.163217403621,0.170636376513,0.178055349405,0.185474322297,
    0.192893295189,0.200312268081,0.207731240972,0.215150213864,
    0.222569186756,0.229988159648,0.23740713254,0.244826105432,
    0.252245078324,0.259664051216,0.267083024107,0.274501996999,
    0.281920969891,0.289339942783,0.296758915675,0.304177888567,
    0.311596861459,0.319015834351,0.326434807242,0.333853780134,
    0.341272753026,0.348691725918,0.35611069881,0.363529671702,
    0.370948644594,0.378367617486,0.385786590377,0.393205563269,
    0.400624536161,0.408043509053,0.415462481945,0.422881454837,
    0.430300427729,0.43771940062,0.445138373512,0.452557346404,
    0.459976319296,0.467395292188,0.47481426508,0.482233237972,
    0.489652210864,0.497071183755,0.504490156647,0.511909129539,
    0.519328102431,0.526747075323,0.534166048215,0.541585021107,
    0.549003993999,0.55642296689,0.563841939782,0.571260912674,
    0.578679885566,0.586098858458,0.59351783135,0.600936804242,
    0.608355777134,0.615774750025,0.623193722917,0.630612695809,
    0.638031668701,0.645450641593,0.652869614485),
  .QUASI_UNIFORM_KNOTS.);
#166 = CARTESIAN_POINT('',(5.697499763722,1.492771148682));
#167 = CARTESIAN_POINT('',(5.697499455616,1.468041158624));
#168 = CARTESIAN_POINT('',(5.694680767559,1.418940544647));
#169 = CARTESIAN_POINT('',(5.682717104547,1.346639207993));
#170 = CARTESIAN_POINT('',(5.663700655557,1.275975150682));
#171 = CARTESIAN_POINT('',(5.638439354324,1.207179335779));
#172 = CARTESIAN_POINT('',(5.607830198971,1.140434896644));
#173 = CARTESIAN_POINT('',(5.572711591583,1.075946756723));
#174 = CARTESIAN_POINT('',(5.533860332865,1.013889593327));
#175 = CARTESIAN_POINT('',(5.49189629263,0.954556176496));
#176 = CARTESIAN_POINT('',(5.447468136222,0.898239511244));
#177 = CARTESIAN_POINT('',(5.401150370516,0.845188133373));
#178 = CARTESIAN_POINT('',(5.353675510754,0.795828220558));
#179 = CARTESIAN_POINT('',(5.305030968859,0.749919852198));
#180 = CARTESIAN_POINT('',(5.252914311872,0.705580852113));
#181 = CARTESIAN_POINT('',(5.19837131721,0.664018655433));
#182 = CARTESIAN_POINT('',(5.141630433605,0.625716824993));
#183 = CARTESIAN_POINT('',(5.083094284503,0.591343740927));
#184 = CARTESIAN_POINT('',(5.023042763518,0.561552386466));
#185 = CARTESIAN_POINT('',(4.961743434857,0.536870711465));
#186 = CARTESIAN_POINT('',(4.899600988352,0.517396281712));
#187 = CARTESIAN_POINT('',(4.837045906574,0.503294295247));
#188 = CARTESIAN_POINT('',(4.77442685714,0.494711821876));
#189 = CARTESIAN_POINT('',(4.712388980385,0.491800812084));
#190 = CARTESIAN_POINT('',(4.65035110363,0.494711821876));
#191 = CARTESIAN_POINT('',(4.587732054196,0.503294295247));
#192 = CARTESIAN_POINT('',(4.525176972418,0.517396281712));
#193 = CARTESIAN_POINT('',(4.463034525912,0.536870711465));
#194 = CARTESIAN_POINT('',(4.401735197251,0.561552386466));
#195 = CARTESIAN_POINT('',(4.341683676266,0.591343740927));
#196 = CARTESIAN_POINT('',(4.283147527164,0.625716824992));
#197 = CARTESIAN_POINT('',(4.226406643559,0.664018655435));
#198 = CARTESIAN_POINT('',(4.171863648897,0.705580852107));
#199 = CARTESIAN_POINT('',(4.119746991911,0.749919852223));
#200 = CARTESIAN_POINT('',(4.071102450016,0.795828220466));
#201 = CARTESIAN_POINT('',(4.023627590252,0.845188133716));
#202 = CARTESIAN_POINT('',(3.977309824551,0.898239509964));
#203 = CARTESIAN_POINT('',(3.932881668125,0.954556181271));
#204 = CARTESIAN_POINT('',(3.890917627957,1.013889575509));
#205 = CARTESIAN_POINT('',(3.852066368988,1.075946823223));
#206 = CARTESIAN_POINT('',(3.816947762536,1.140434648462));
#207 = CARTESIAN_POINT('',(3.786338603695,1.207180262005));
#208 = CARTESIAN_POINT('',(3.761077315478,1.275971693959));
#209 = CARTESIAN_POINT('',(3.742060817907,1.346652108657));
#210 = CARTESIAN_POINT('',(3.730097336203,1.418892398714));
#211 = CARTESIAN_POINT('',(3.725868627469,1.492771148682));
#212 = CARTESIAN_POINT('',(3.730097336203,1.566649898649));
#213 = CARTESIAN_POINT('',(3.742060817907,1.638890188707));
#214 = CARTESIAN_POINT('',(3.761077315478,1.709570603404));
#215 = CARTESIAN_POINT('',(3.786338603695,1.778362035359));
#216 = CARTESIAN_POINT('',(3.816947762536,1.845107648901));
#217 = CARTESIAN_POINT('',(3.852066368988,1.90959547414));
#218 = CARTESIAN_POINT('',(3.890917627957,1.971652721854));
#219 = CARTESIAN_POINT('',(3.932881668125,2.030986116093));
#220 = CARTESIAN_POINT('',(3.977309824551,2.087302787399));
#221 = CARTESIAN_POINT('',(4.023627590252,2.140354163648));
#222 = CARTESIAN_POINT('',(4.071102450016,2.189714076897));
#223 = CARTESIAN_POINT('',(4.119746991911,2.235622445141));
#224 = CARTESIAN_POINT('',(4.171863648897,2.279961445256));
#225 = CARTESIAN_POINT('',(4.226406643559,2.321523641928));
#226 = CARTESIAN_POINT('',(4.283147527164,2.359825472371));
#227 = CARTESIAN_POINT('',(4.341683676266,2.394198556436));
#228 = CARTESIAN_POINT('',(4.401735197251,2.423989910897));
#229 = CARTESIAN_POINT('',(4.463034525912,2.448671585898));
#230 = CARTESIAN_POINT('',(4.525176972418,2.468146015651));
#231 = CARTESIAN_POINT('',(4.587732054196,2.482248002116));
#232 = CARTESIAN_POINT('',(4.65035110363,2.490830475487));
#233 = CARTESIAN_POINT('',(4.712388980385,2.493741485279));
#234 = CARTESIAN_POINT('',(4.77442685714,2.490830475487));
#235 = CARTESIAN_POINT('',(4.837045906574,2.482248002116));
#236 = CARTESIAN_POINT('',(4.899600988352,2.468146015651));
#237 = CARTESIAN_POINT('',(4.961743434857,2.448671585898));
#238 = CARTESIAN_POINT('',(5.023042763518,2.423989910897));
#239 = CARTESIAN_POINT('',(5.083094284503,2.394198556436));
#240 = CARTESIAN_POINT('',(5.141630433605,2.359825472371));
#241 = CARTESIAN_POINT('',(5.19837131721,2.32152364193));
#242 = CARTESIAN_POINT('',(5.252914311872,2.27996144525));
#243 = CARTESIAN_POINT('',(5.305030968859,2.235622445165));
#244 = CARTESIAN_POINT('',(5.353675510754,2.189714076805));
#245 = CARTESIAN_POINT('',(5.401150370516,2.140354163991));
#246 = CARTESIAN_POINT('',(5.447468136222,2.08730278612));
#247 = CARTESIAN_POINT('',(5.49189629263,2.030986120867));
#248 = CARTESIAN_POINT('',(5.533860332865,1.971652704036));
#249 = CARTESIAN_POINT('',(5.572711591583,1.90959554064));
#250 = CARTESIAN_POINT('',(5.607830198971,1.845107400719));
#251 = CARTESIAN_POINT('',(5.638439354324,1.778362961585));
#252 = CARTESIAN_POINT('',(5.663700655557,1.709567146682));
#253 = CARTESIAN_POINT('',(5.682717104547,1.638903089371));
#254 = CARTESIAN_POINT('',(5.694680767559,1.566601752716));
#255 = CARTESIAN_POINT('',(5.697499455616,1.517501138739));
#256 = CARTESIAN_POINT('',(5.697499763722,1.492771148682));
#257 = ( GEOMETRIC_REPRESENTATION_CONTEXT(2) 
PARAMETRIC_REPRESENTATION_CONTEXT() REPRESENTATION_CONTEXT('2D SPACE',''
  ) );
#258 = PCURVE('',#259,#264);
#259 = CYLINDRICAL_SURFACE('',#260,1.);
#260 = AXIS2_PLACEMENT_3D('',#261,#262,#263);
#261 = CARTESIAN_POINT('',(45.007228851318,65.,29.531413836785));
#262 = DIRECTION('',(1.359631073447E-32,-6.123233995737E-17,1.));
#263 = DIRECTION('',(2.22044604925E-16,-1.,-6.123233995737E-17));
#264 = DEFINITIONAL_REPRESENTATION('',(#265),#357);
#265 = B_SPLINE_CURVE_WITH_KNOTS('',3,(#266,#267,#268,#269,#270,#271,
    #272,#273,#274,#275,#276,#277,#278,#279,#280,#281,#282,#283,#284,
    #285,#286,#287,#288,#289,#290,#291,#292,#293,#294,#295,#296,#297,
    #298,#299,#300,#301,#302,#303,#304,#305,#306,#307,#308,#309,#310,
    #311,#312,#313,#314,#315,#316,#317,#318,#319,#320,#321,#322,#323,
    #324,#325,#326,#327,#328,#329,#330,#331,#332,#333,#334,#335,#336,
    #337,#338,#339,#340,#341,#342,#343,#344,#345,#346,#347,#348,#349,
    #350,#351,#352,#353,#354,#355,#356),.UNSPECIFIED.,.F.,.F.,(4,1,1,1,1
    ,1,1,1,1,1,1,1,1,1,1,1,1,1,1,1,1,1,1,1,1,1,1,1,1,1,1,1,1,1,1,1,1,1,1
    ,1,1,1,1,1,1,1,1,1,1,1,1,1,1,1,1,1,1,1,1,1,1,1,1,1,1,1,1,1,1,1,1,1,1
    ,1,1,1,1,1,1,1,1,1,1,1,1,1,1,1,4),(0.,7.418972891873E-03,
    1.483794578375E-02,2.225691867562E-02,2.967589156749E-02,
    3.709486445936E-02,4.451383735124E-02,5.193281024311E-02,
    5.935178313498E-02,6.677075602685E-02,7.418972891873E-02,
    8.16087018106E-02,8.902767470247E-02,9.644664759434E-02,
    0.103865620486,0.111284593378,0.11870356627,0.126122539162,
    0.133541512054,0.140960484946,0.148379457837,0.155798430729,
    0.163217403621,0.170636376513,0.178055349405,0.185474322297,
    0.192893295189,0.200312268081,0.207731240972,0.215150213864,
    0.222569186756,0.229988159648,0.23740713254,0.244826105432,
    0.252245078324,0.259664051216,0.267083024107,0.274501996999,
    0.281920969891,0.289339942783,0.296758915675,0.304177888567,
    0.311596861459,0.319015834351,0.326434807242,0.333853780134,
    0.341272753026,0.348691725918,0.35611069881,0.363529671702,
    0.370948644594,0.378367617486,0.385786590377,0.393205563269,
    0.400624536161,0.408043509053,0.415462481945,0.422881454837,
    0.430300427729,0.43771940062,0.445138373512,0.452557346404,
    0.459976319296,0.467395292188,0.47481426508,0.482233237972,
    0.489652210864,0.497071183755,0.504490156647,0.511909129539,
    0.519328102431,0.526747075323,0.534166048215,0.541585021107,
    0.549003993999,0.55642296689,0.563841939782,0.571260912674,
    0.578679885566,0.586098858458,0.59351783135,0.600936804242,
    0.608355777134,0.615774750025,0.623193722917,0.630612695809,
    0.638031668701,0.645450641593,0.652869614485),
  .QUASI_UNIFORM_KNOTS.);
#266 = CARTESIAN_POINT('',(3.14159265359,-0.436675041929));
#267 = CARTESIAN_POINT('',(3.116865288902,-0.436675344727));
#268 = CARTESIAN_POINT('',(3.067759899452,-0.433832724601));
#269 = CARTESIAN_POINT('',(2.995064026684,-0.421927242079));
#270 = CARTESIAN_POINT('',(2.92325027021,-0.403207498885));
#271 = CARTESIAN_POINT('',(2.852218538513,-0.378713702763));
#272 = CARTESIAN_POINT('',(2.781833611088,-0.349659648634));
#273 = CARTESIAN_POINT('',(2.712017974231,-0.317178715849));
#274 = CARTESIAN_POINT('',(2.642606640302,-0.282511674891));
#275 = CARTESIAN_POINT('',(2.573684567761,-0.246433738027));
#276 = CARTESIAN_POINT('',(2.505374934611,-0.209778856281));
#277 = CARTESIAN_POINT('',(2.437761382597,-0.173331848696));
#278 = CARTESIAN_POINT('',(2.371190589656,-0.138015323472));
#279 = CARTESIAN_POINT('',(2.305069027768,-0.104249864164));
#280 = CARTESIAN_POINT('',(2.236142503842,-7.072616924722E-02));
#281 = CARTESIAN_POINT('',(2.165599688166,-3.858514222624E-02));
#282 = CARTESIAN_POINT('',(2.09356039927,-8.395588963555E-03));
#283 = CARTESIAN_POINT('',(2.020379483541,1.912758626279E-02));
#284 = CARTESIAN_POINT('',(1.946258451258,4.32817751952E-02));
#285 = CARTESIAN_POINT('',(1.871353097793,6.344701493999E-02));
#286 = CARTESIAN_POINT('',(1.795982425132,7.948446953603E-02));
#287 = CARTESIAN_POINT('',(1.720518098033,9.118608675437E-02));
#288 = CARTESIAN_POINT('',(1.645241884561,9.836236718011E-02));
#289 = CARTESIAN_POINT('',(1.570796326795,0.10081881641));
#290 = CARTESIAN_POINT('',(1.496350769028,9.836236718011E-02));
#291 = CARTESIAN_POINT('',(1.421074555557,9.118608675437E-02));
#292 = CARTESIAN_POINT('',(1.345610228458,7.948446953603E-02));
#293 = CARTESIAN_POINT('',(1.270239555797,6.344701493999E-02));
#294 = CARTESIAN_POINT('',(1.195334202332,4.328177519519E-02));
#295 = CARTESIAN_POINT('',(1.121213170049,1.91275862628E-02));
#296 = CARTESIAN_POINT('',(1.048032254321,-8.395588963556E-03));
#297 = CARTESIAN_POINT('',(0.975992965422,-3.858514222624E-02));
#298 = CARTESIAN_POINT('',(0.905450149755,-7.072616924723E-02));
#299 = CARTESIAN_POINT('',(0.836523625798,-0.104249864164));
#300 = CARTESIAN_POINT('',(0.770402064023,-0.138015323473));
#301 = CARTESIAN_POINT('',(0.70383127066,-0.173331848695));
#302 = CARTESIAN_POINT('',(0.636217720222,-0.209778856285));
#303 = CARTESIAN_POINT('',(0.567908081187,-0.246433738014));
#304 = CARTESIAN_POINT('',(0.49898603061,-0.282511674943));
#305 = CARTESIAN_POINT('',(0.429574614714,-0.317178715655));
#306 = CARTESIAN_POINT('',(0.359759283759,-0.349659649359));
#307 = CARTESIAN_POINT('',(0.289373214692,-0.37871370006));
#308 = CARTESIAN_POINT('',(0.218345743661,-0.403207508974));
#309 = CARTESIAN_POINT('',(0.146516086167,-0.421927204424));
#310 = CARTESIAN_POINT('',(7.387955681369E-02,-0.43383286513));
#311 = CARTESIAN_POINT('',(-5.201589563276E-14,-0.438096130328));
#312 = CARTESIAN_POINT('',(-7.387955681378E-02,-0.43383286513));
#313 = CARTESIAN_POINT('',(-0.146516086167,-0.421927204424));
#314 = CARTESIAN_POINT('',(-0.218345743661,-0.403207508974));
#315 = CARTESIAN_POINT('',(-0.289373214692,-0.37871370006));
#316 = CARTESIAN_POINT('',(-0.359759283759,-0.349659649359));
#317 = CARTESIAN_POINT('',(-0.429574614714,-0.317178715655));
#318 = CARTESIAN_POINT('',(-0.49898603061,-0.282511674943));
#319 = CARTESIAN_POINT('',(-0.567908081187,-0.246433738014));
#320 = CARTESIAN_POINT('',(-0.636217720222,-0.209778856285));
#321 = CARTESIAN_POINT('',(-0.70383127066,-0.173331848695));
#322 = CARTESIAN_POINT('',(-0.770402064023,-0.138015323473));
#323 = CARTESIAN_POINT('',(-0.836523625798,-0.104249864164));
#324 = CARTESIAN_POINT('',(-0.905450149755,-7.072616924724E-02));
#325 = CARTESIAN_POINT('',(-0.975992965422,-3.858514222623E-02));
#326 = CARTESIAN_POINT('',(-1.048032254321,-8.395588963552E-03));
#327 = CARTESIAN_POINT('',(-1.121213170049,1.912758626279E-02));
#328 = CARTESIAN_POINT('',(-1.195334202332,4.328177519519E-02));
#329 = CARTESIAN_POINT('',(-1.270239555797,6.344701493998E-02));
#330 = CARTESIAN_POINT('',(-1.345610228458,7.948446953603E-02));
#331 = CARTESIAN_POINT('',(-1.421074555557,9.118608675437E-02));
#332 = CARTESIAN_POINT('',(-1.496350769028,9.836236718011E-02));
#333 = CARTESIAN_POINT('',(-1.570796326795,0.10081881641));
#334 = CARTESIAN_POINT('',(-1.645241884561,9.836236718011E-02));
#335 = CARTESIAN_POINT('',(-1.720518098033,9.118608675437E-02));
#336 = CARTESIAN_POINT('',(-1.795982425132,7.948446953603E-02));
#337 = CARTESIAN_POINT('',(-1.871353097793,6.344701493998E-02));
#338 = CARTESIAN_POINT('',(-1.946258451258,4.328177519519E-02));
#339 = CARTESIAN_POINT('',(-2.020379483541,1.91275862628E-02));
#340 = CARTESIAN_POINT('',(-2.093560399269,-8.395588963557E-03));
#341 = CARTESIAN_POINT('',(-2.165599688166,-3.858514222624E-02));
#342 = CARTESIAN_POINT('',(-2.236142503842,-7.072616924721E-02));
#343 = CARTESIAN_POINT('',(-2.305069027768,-0.104249864164));
#344 = CARTESIAN_POINT('',(-2.371190589656,-0.138015323472));
#345 = CARTESIAN_POINT('',(-2.437761382597,-0.173331848696));
#346 = CARTESIAN_POINT('',(-2.505374934611,-0.209778856281));
#347 = CARTESIAN_POINT('',(-2.573684567761,-0.246433738027));
#348 = CARTESIAN_POINT('',(-2.642606640302,-0.282511674891));
#349 = CARTESIAN_POINT('',(-2.712017974231,-0.317178715849));
#350 = CARTESIAN_POINT('',(-2.781833611088,-0.349659648634));
#351 = CARTESIAN_POINT('',(-2.852218538513,-0.378713702763));
#352 = CARTESIAN_POINT('',(-2.92325027021,-0.403207498885));
#353 = CARTESIAN_POINT('',(-2.995064026684,-0.421927242079));
#354 = CARTESIAN_POINT('',(-3.067759899452,-0.433832724601));
#355 = CARTESIAN_POINT('',(-3.116865288902,-0.436675344727));
#356 = CARTESIAN_POINT('',(-3.14159265359,-0.436675041929));
#357 = ( GEOMETRIC_REPRESENTATION_CONTEXT(2) 
PARAMETRIC_REPRESENTATION_CONTEXT() REPRESENTATION_CONTEXT('2D SPACE',''
  ) );
#358 = FACE_BOUND('',#359,.F.);
#359 = EDGE_LOOP('',(#360));
#360 = ORIENTED_EDGE('',*,*,#361,.F.);
#361 = EDGE_CURVE('',#362,#362,#364,.T.);
#362 = VERTEX_POINT('',#363);
#363 = CARTESIAN_POINT('',(45.007228851318,65.875,27.610210451502));
#364 = SURFACE_CURVE('',#365,(#400,#473),.PCURVE_S1.);
#365 = B_SPLINE_CURVE_WITH_KNOTS('',3,(#366,#367,#368,#369,#370,#371,
    #372,#373,#374,#375,#376,#377,#378,#379,#380,#381,#382,#383,#384,
    #385,#386,#387,#388,#389,#390,#391,#392,#393,#394,#395,#396,#397,
    #398,#399),.UNSPECIFIED.,.T.,.F.,(1,3,2,2,2,2,2,2,2,2,2,2,2,2,2,2,2,
    3,1),(-3.503925751258E-02,0.,3.503925751258E-02,7.007851502516E-02,
    0.104490709934,0.138902904843,0.173315099752,0.20772729466,
    0.242766552173,0.277805809685,0.312845067198,0.347884324711,
    0.382296519619,0.416708714528,0.451120909437,0.485533104346,
    0.520572361858,0.555611619371,0.590650876883),.UNSPECIFIED.);
#366 = CARTESIAN_POINT('',(45.007228851318,65.875,27.610210451502));
#367 = CARTESIAN_POINT('',(45.12402637636,65.875,27.610210451502));
#368 = CARTESIAN_POINT('',(45.242100588565,65.850759156027,
    27.582944605045));
#369 = CARTESIAN_POINT('',(45.454742047393,65.760715573151,
    27.501358624716));
#370 = CARTESIAN_POINT('',(45.549952450334,65.69471326806,27.44894759199
    ));
#371 = CARTESIAN_POINT('',(45.700582115709,65.544083602686,
    27.358305993305));
#372 = CARTESIAN_POINT('',(45.767422652065,65.448673630593,
    27.312835955355));
#373 = CARTESIAN_POINT('',(45.858346763802,65.234096142323,
    27.249160251725));
#374 = CARTESIAN_POINT('',(45.882228851318,65.114707316363,
    27.231413836785));
#375 = CARTESIAN_POINT('',(45.882228851318,64.885292683637,
    27.231413836785));
#376 = CARTESIAN_POINT('',(45.858346763802,64.765903857677,
    27.249160251725));
#377 = CARTESIAN_POINT('',(45.767422652065,64.551326369407,
    27.312835955355));
#378 = CARTESIAN_POINT('',(45.700582115709,64.455916397314,
    27.358305993305));
#379 = CARTESIAN_POINT('',(45.549952450334,64.30528673194,27.44894759199
    ));
#380 = CARTESIAN_POINT('',(45.454742047393,64.239284426849,
    27.501358624716));
#381 = CARTESIAN_POINT('',(45.242100588565,64.149240843973,
    27.582944605045));
#382 = CARTESIAN_POINT('',(45.12402637636,64.125,27.610210451502));
#383 = CARTESIAN_POINT('',(44.890431326276,64.125,27.610210451502));
#384 = CARTESIAN_POINT('',(44.772357114071,64.149240843973,
    27.582944605045));
#385 = CARTESIAN_POINT('',(44.559715655244,64.239284426849,
    27.501358624716));
#386 = CARTESIAN_POINT('',(44.464505252302,64.30528673194,27.44894759199
    ));
#387 = CARTESIAN_POINT('',(44.313875586928,64.455916397314,
    27.358305993305));
#388 = CARTESIAN_POINT('',(44.247035050572,64.551326369407,
    27.312835955355));
#389 = CARTESIAN_POINT('',(44.156110938835,64.765903857677,
    27.249160251725));
#390 = CARTESIAN_POINT('',(44.132228851318,64.885292683637,
    27.231413836785));
#391 = CARTESIAN_POINT('',(44.132228851318,65.114707316363,
    27.231413836785));
#392 = CARTESIAN_POINT('',(44.156110938835,65.234096142323,
    27.249160251725));
#393 = CARTESIAN_POINT('',(44.247035050572,65.448673630593,
    27.312835955355));
#394 = CARTESIAN_POINT('',(44.313875586928,65.544083602686,
    27.358305993305));
#395 = CARTESIAN_POINT('',(44.464505252302,65.69471326806,27.44894759199
    ));
#396 = CARTESIAN_POINT('',(44.559715655244,65.760715573151,
    27.501358624716));
#397 = CARTESIAN_POINT('',(44.772357114071,65.850759156027,
    27.582944605045));
#398 = CARTESIAN_POINT('',(44.890431326276,65.875,27.610210451502));
#399 = CARTESIAN_POINT('',(45.007228851318,65.875,27.610210451502));
#400 = PCURVE('',#32,#401);
#401 = DEFINITIONAL_REPRESENTATION('',(#402),#472);
#402 = B_SPLINE_CURVE_WITH_KNOTS('',3,(#403,#404,#405,#406,#407,#408,
    #409,#410,#411,#412,#413,#414,#415,#416,#417,#418,#419,#420,#421,
    #422,#423,#424,#425,#426,#427,#428,#429,#430,#431,#432,#433,#434,
    #435,#436,#437,#438,#439,#440,#441,#442,#443,#444,#445,#446,#447,
    #448,#449,#450,#451,#452,#453,#454,#455,#456,#457,#458,#459,#460,
    #461,#462,#463,#464,#465,#466,#467,#468,#469,#470,#471),
  .UNSPECIFIED.,.T.,.F.,(4,1,1,1,1,1,1,1,1,1,1,1,1,1,1,1,1,1,1,1,1,1,1,1
    ,1,1,1,1,1,1,1,1,1,1,1,1,1,1,1,1,1,1,1,1,1,1,1,1,1,1,1,1,1,1,1,1,1,1
    ,1,1,1,1,1,1,1,1,4),(0.,8.418357869256E-03,1.683671573851E-02,
    2.525507360777E-02,3.367343147702E-02,4.209178934628E-02,
    5.051014721554E-02,5.892850508479E-02,6.734686295405E-02,
    7.57652208233E-02,8.418357869256E-02,9.260193656181E-02,
    0.101020294431,0.1094386523,0.11785701017,0.126275368039,
    0.134693725908,0.143112083777,0.151530441647,0.159948799516,
    0.168367157385,0.176785515254,0.185203873124,0.193622230993,
    0.202040588862,0.210458946731,0.218877304601,0.22729566247,
    0.235714020339,0.244132378208,0.252550736078,0.260969093947,
    0.269387451816,0.277805809685,0.286224167555,0.294642525424,
    0.303060883293,0.311479241162,0.319897599032,0.328315956901,
    0.33673431477,0.345152672639,0.353571030509,0.361989388378,
    0.370407746247,0.378826104117,0.387244461986,0.395662819855,
    0.404081177724,0.412499535594,0.420917893463,0.429336251332,
    0.437754609201,0.446172967071,0.45459132494,0.463009682809,
    0.471428040678,0.479846398548,0.488264756417,0.496683114286,
    0.505101472155,0.513519830025,0.521938187894,0.530356545763,
    0.538774903632,0.547193261502,0.555611619371),
  .QUASI_UNIFORM_KNOTS.);
#403 = CARTESIAN_POINT('',(7.0368781998,1.492771148682));
#404 = CARTESIAN_POINT('',(7.036879621834,1.464709955784));
#405 = CARTESIAN_POINT('',(7.040386099407,1.408440073056));
#406 = CARTESIAN_POINT('',(7.055314696061,1.324677970141));
#407 = CARTESIAN_POINT('',(7.079055276568,1.242639846295));
#408 = CARTESIAN_POINT('',(7.110803011237,1.163420798703));
#409 = CARTESIAN_POINT('',(7.149696527495,1.088064521458));
#410 = CARTESIAN_POINT('',(7.194161920087,1.01709653843));
#411 = CARTESIAN_POINT('',(7.24295983068,0.951205840167));
#412 = CARTESIAN_POINT('',(7.294734866172,0.891141660269));
#413 = CARTESIAN_POINT('',(7.348540535527,0.837264633478));
#414 = CARTESIAN_POINT('',(7.407804155888,0.786310370643));
#415 = CARTESIAN_POINT('',(7.470841536812,0.740342323906));
#416 = CARTESIAN_POINT('',(7.537076794462,0.700294704791));
#417 = CARTESIAN_POINT('',(7.605802508414,0.667526689612));
#418 = CARTESIAN_POINT('',(7.676321688114,0.642700593643));
#419 = CARTESIAN_POINT('',(7.747653100642,0.625926582825));
#420 = CARTESIAN_POINT('',(7.818955246971,0.617421313891));
#421 = CARTESIAN_POINT('',(7.889008020978,0.617421313891));
#422 = CARTESIAN_POINT('',(7.960310167307,0.625926582825));
#423 = CARTESIAN_POINT('',(8.031641579835,0.642700593643));
#424 = CARTESIAN_POINT('',(8.102160759535,0.667526689615));
#425 = CARTESIAN_POINT('',(8.170886473487,0.700294704781));
#426 = CARTESIAN_POINT('',(8.237121731135,0.740342323944));
#427 = CARTESIAN_POINT('',(8.300159112065,0.786310370502));
#428 = CARTESIAN_POINT('',(8.359422732404,0.837264634003));
#429 = CARTESIAN_POINT('',(8.413228401842,0.891141658309));
#430 = CARTESIAN_POINT('',(8.465003437025,0.95120584748));
#431 = CARTESIAN_POINT('',(8.513801348773,1.017096511136));
#432 = CARTESIAN_POINT('',(8.558266737052,1.088064623321));
#433 = CARTESIAN_POINT('',(8.597160269408,1.163420418546));
#434 = CARTESIAN_POINT('',(8.628907943997,1.24264126506));
#435 = CARTESIAN_POINT('',(8.652648748726,1.32467267524));
#436 = CARTESIAN_POINT('',(8.667576508574,1.408459833898));
#437 = CARTESIAN_POINT('',(8.672839347936,1.492771148682));
#438 = CARTESIAN_POINT('',(8.667576508574,1.577082463465));
#439 = CARTESIAN_POINT('',(8.652648748726,1.660869622124));
#440 = CARTESIAN_POINT('',(8.628907943997,1.742901032304));
#441 = CARTESIAN_POINT('',(8.597160269408,1.822121878817));
#442 = CARTESIAN_POINT('',(8.558266737052,1.897477674042));
#443 = CARTESIAN_POINT('',(8.513801348773,1.968445786227));
#444 = CARTESIAN_POINT('',(8.465003437025,2.034336449883));
#445 = CARTESIAN_POINT('',(8.413228401842,2.094400639054));
#446 = CARTESIAN_POINT('',(8.359422732404,2.14827766336));
#447 = CARTESIAN_POINT('',(8.300159112065,2.199231926861));
#448 = CARTESIAN_POINT('',(8.237121731135,2.245199973419));
#449 = CARTESIAN_POINT('',(8.170886473487,2.285247592583));
#450 = CARTESIAN_POINT('',(8.102160759535,2.318015607748));
#451 = CARTESIAN_POINT('',(8.031641579835,2.342841703721));
#452 = CARTESIAN_POINT('',(7.960310167307,2.359615714538));
#453 = CARTESIAN_POINT('',(7.889008020978,2.368120983472));
#454 = CARTESIAN_POINT('',(7.818955246971,2.368120983472));
#455 = CARTESIAN_POINT('',(7.747653100642,2.359615714538));
#456 = CARTESIAN_POINT('',(7.676321688114,2.34284170372));
#457 = CARTESIAN_POINT('',(7.605802508414,2.318015607751));
#458 = CARTESIAN_POINT('',(7.537076794462,2.285247592573));
#459 = CARTESIAN_POINT('',(7.470841536812,2.245199973457));
#460 = CARTESIAN_POINT('',(7.407804155888,2.19923192672));
#461 = CARTESIAN_POINT('',(7.348540535528,2.148277663885));
#462 = CARTESIAN_POINT('',(7.294734866172,2.094400637095));
#463 = CARTESIAN_POINT('',(7.24295983068,2.034336457197));
#464 = CARTESIAN_POINT('',(7.194161920087,1.968445758933));
#465 = CARTESIAN_POINT('',(7.149696527495,1.897477775905));
#466 = CARTESIAN_POINT('',(7.110803011237,1.822121498661));
#467 = CARTESIAN_POINT('',(7.079055276568,1.742902451068));
#468 = CARTESIAN_POINT('',(7.055314696061,1.660864327222));
#469 = CARTESIAN_POINT('',(7.040386099407,1.577102224307));
#470 = CARTESIAN_POINT('',(7.036879621834,1.520832341579));
#471 = CARTESIAN_POINT('',(7.0368781998,1.492771148682));
#472 = ( GEOMETRIC_REPRESENTATION_CONTEXT(2) 
PARAMETRIC_REPRESENTATION_CONTEXT() REPRESENTATION_CONTEXT('2D SPACE',''
  ) );
#473 = PCURVE('',#474,#479);
#474 = CYLINDRICAL_SURFACE('',#475,0.875);
#475 = AXIS2_PLACEMENT_3D('',#476,#477,#478);
#476 = CARTESIAN_POINT('',(45.007228851318,65.,29.531413836785));
#477 = DIRECTION('',(1.359631073447E-32,-6.123233995737E-17,1.));
#478 = DIRECTION('',(2.22044604925E-16,-1.,-6.123233995737E-17));
#479 = DEFINITIONAL_REPRESENTATION('',(#480),#550);
#480 = B_SPLINE_CURVE_WITH_KNOTS('',3,(#481,#482,#483,#484,#485,#486,
    #487,#488,#489,#490,#491,#492,#493,#494,#495,#496,#497,#498,#499,
    #500,#501,#502,#503,#504,#505,#506,#507,#508,#509,#510,#511,#512,
    #513,#514,#515,#516,#517,#518,#519,#520,#521,#522,#523,#524,#525,
    #526,#527,#528,#529,#530,#531,#532,#533,#534,#535,#536,#537,#538,
    #539,#540,#541,#542,#543,#544,#545,#546,#547,#548,#549),
  .UNSPECIFIED.,.F.,.F.,(4,1,1,1,1,1,1,1,1,1,1,1,1,1,1,1,1,1,1,1,1,1,1,1
    ,1,1,1,1,1,1,1,1,1,1,1,1,1,1,1,1,1,1,1,1,1,1,1,1,1,1,1,1,1,1,1,1,1,1
    ,1,1,1,1,1,1,1,1,4),(0.,8.418357869256E-03,1.683671573851E-02,
    2.525507360777E-02,3.367343147702E-02,4.209178934628E-02,
    5.051014721554E-02,5.892850508479E-02,6.734686295405E-02,
    7.57652208233E-02,8.418357869256E-02,9.260193656181E-02,
    0.101020294431,0.1094386523,0.11785701017,0.126275368039,
    0.134693725908,0.143112083777,0.151530441647,0.159948799516,
    0.168367157385,0.176785515254,0.185203873124,0.193622230993,
    0.202040588862,0.210458946731,0.218877304601,0.22729566247,
    0.235714020339,0.244132378208,0.252550736078,0.260969093947,
    0.269387451816,0.277805809685,0.286224167555,0.294642525424,
    0.303060883293,0.311479241162,0.319897599032,0.328315956901,
    0.33673431477,0.345152672639,0.353571030509,0.361989388378,
    0.370407746247,0.378826104117,0.387244461986,0.395662819855,
    0.404081177724,0.412499535594,0.420917893463,0.429336251332,
    0.437754609201,0.446172967071,0.45459132494,0.463009682809,
    0.471428040678,0.479846398548,0.488264756417,0.496683114286,
    0.505101472155,0.513519830025,0.521938187894,0.530356545763,
    0.538774903632,0.547193261502,0.555611619371),
  .QUASI_UNIFORM_KNOTS.);
#481 = CARTESIAN_POINT('',(3.14159265359,-1.921203385283));
#482 = CARTESIAN_POINT('',(3.109529051228,-1.921203385283));
#483 = CARTESIAN_POINT('',(3.045207325891,-1.924350606625));
#484 = CARTESIAN_POINT('',(2.948548154511,-1.937374271778));
#485 = CARTESIAN_POINT('',(2.852096802131,-1.95754454455));
#486 = CARTESIAN_POINT('',(2.756316687435,-1.983766080647));
#487 = CARTESIAN_POINT('',(2.661499198112,-2.014717405493));
#488 = CARTESIAN_POINT('',(2.56764728489,-2.048305436124));
#489 = CARTESIAN_POINT('',(2.475184212871,-2.083156226141));
#490 = CARTESIAN_POINT('',(2.384711700996,-2.117672193725));
#491 = CARTESIAN_POINT('',(2.296293110644,-2.150481755034));
#492 = CARTESIAN_POINT('',(2.203555431277,-2.183060169006));
#493 = CARTESIAN_POINT('',(2.108670824547,-2.213635655718));
#494 = CARTESIAN_POINT('',(2.011990110401,-2.241125788984));
#495 = CARTESIAN_POINT('',(1.914113467091,-2.264152962754));
#496 = CARTESIAN_POINT('',(1.81543002877,-2.281847944363));
#497 = CARTESIAN_POINT('',(1.716760940625,-2.293992324063));
#498 = CARTESIAN_POINT('',(1.61880405715,-2.300253726082));
#499 = CARTESIAN_POINT('',(1.52278859644,-2.300253726082));
#500 = CARTESIAN_POINT('',(1.424831712964,-2.293992324063));
#501 = CARTESIAN_POINT('',(1.326162624821,-2.281847944363));
#502 = CARTESIAN_POINT('',(1.227479186495,-2.264152962754));
#503 = CARTESIAN_POINT('',(1.129602543202,-2.241125788984));
#504 = CARTESIAN_POINT('',(1.032921828993,-2.213635655718));
#505 = CARTESIAN_POINT('',(0.938037222498,-2.183060169006));
#506 = CARTESIAN_POINT('',(0.845299542253,-2.150481755034));
#507 = CARTESIAN_POINT('',(0.756880955178,-2.117672193725));
#508 = CARTESIAN_POINT('',(0.666408431074,-2.083156226141));
#509 = CARTESIAN_POINT('',(0.573945404696,-2.048305436124));
#510 = CARTESIAN_POINT('',(0.48009332114,-2.014717405493));
#511 = CARTESIAN_POINT('',(0.38527646751,-1.983766080647));
#512 = CARTESIAN_POINT('',(0.289493980376,-1.95754454455));
#513 = CARTESIAN_POINT('',(0.193051482055,-1.937374271778));
#514 = CARTESIAN_POINT('',(9.635926687788E-02,-1.924350606625));
#515 = CARTESIAN_POINT('',(-4.639624898111E-14,-1.919629774612));
#516 = CARTESIAN_POINT('',(-9.635926687798E-02,-1.924350606625));
#517 = CARTESIAN_POINT('',(-0.193051482055,-1.937374271778));
#518 = CARTESIAN_POINT('',(-0.289493980376,-1.95754454455));
#519 = CARTESIAN_POINT('',(-0.38527646751,-1.983766080647));
#520 = CARTESIAN_POINT('',(-0.48009332114,-2.014717405493));
#521 = CARTESIAN_POINT('',(-0.573945404696,-2.048305436124));
#522 = CARTESIAN_POINT('',(-0.666408431074,-2.083156226141));
#523 = CARTESIAN_POINT('',(-0.756880955178,-2.117672193725));
#524 = CARTESIAN_POINT('',(-0.845299542253,-2.150481755034));
#525 = CARTESIAN_POINT('',(-0.938037222498,-2.183060169006));
#526 = CARTESIAN_POINT('',(-1.032921828993,-2.213635655718));
#527 = CARTESIAN_POINT('',(-1.129602543202,-2.241125788984));
#528 = CARTESIAN_POINT('',(-1.227479186495,-2.264152962754));
#529 = CARTESIAN_POINT('',(-1.326162624821,-2.281847944363));
#530 = CARTESIAN_POINT('',(-1.424831712964,-2.293992324063));
#531 = CARTESIAN_POINT('',(-1.52278859644,-2.300253726082));
#532 = CARTESIAN_POINT('',(-1.61880405715,-2.300253726082));
#533 = CARTESIAN_POINT('',(-1.716760940625,-2.293992324063));
#534 = CARTESIAN_POINT('',(-1.81543002877,-2.281847944363));
#535 = CARTESIAN_POINT('',(-1.914113467091,-2.264152962754));
#536 = CARTESIAN_POINT('',(-2.011990110401,-2.241125788984));
#537 = CARTESIAN_POINT('',(-2.108670824547,-2.213635655718));
#538 = CARTESIAN_POINT('',(-2.203555431277,-2.183060169006));
#539 = CARTESIAN_POINT('',(-2.296293110644,-2.150481755034));
#540 = CARTESIAN_POINT('',(-2.384711700996,-2.117672193725));
#541 = CARTESIAN_POINT('',(-2.475184212871,-2.083156226141));
#542 = CARTESIAN_POINT('',(-2.56764728489,-2.048305436124));
#543 = CARTESIAN_POINT('',(-2.661499198112,-2.014717405493));
#544 = CARTESIAN_POINT('',(-2.756316687435,-1.983766080647));
#545 = CARTESIAN_POINT('',(-2.852096802131,-1.95754454455));
#546 = CARTESIAN_POINT('',(-2.948548154511,-1.937374271778));
#547 = CARTESIAN_POINT('',(-3.045207325891,-1.924350606625));
#548 = CARTESIAN_POINT('',(-3.109529051228,-1.921203385283));
#549 = CARTESIAN_POINT('',(-3.14159265359,-1.921203385283));
#550 = ( GEOMETRIC_REPRESENTATION_CONTEXT(2) 
PARAMETRIC_REPRESENTATION_CONTEXT() REPRESENTATION_CONTEXT('2D SPACE',''
  ) );
#551 = ADVANCED_FACE('',(#552),#474,.F.);
#552 = FACE_BOUND('',#553,.F.);
#553 = EDGE_LOOP('',(#554,#577,#578,#579,#710));
#554 = ORIENTED_EDGE('',*,*,#555,.T.);
#555 = EDGE_CURVE('',#556,#362,#558,.T.);
#556 = VERTEX_POINT('',#557);
#557 = CARTESIAN_POINT('',(45.007228851318,65.875,22.232867636264));
#558 = SEAM_CURVE('',#559,(#563,#570),.PCURVE_S1.);
#559 = LINE('',#560,#561);
#560 = CARTESIAN_POINT('',(45.007228851318,65.875,29.531413836785));
#561 = VECTOR('',#562,1.);
#562 = DIRECTION('',(1.359631073447E-32,-6.123233995737E-17,1.));
#563 = PCURVE('',#474,#564);
#564 = DEFINITIONAL_REPRESENTATION('',(#565),#569);
#565 = LINE('',#566,#567);
#566 = CARTESIAN_POINT('',(3.14159265359,0.));
#567 = VECTOR('',#568,1.);
#568 = DIRECTION('',(0.,1.));
#569 = ( GEOMETRIC_REPRESENTATION_CONTEXT(2) 
PARAMETRIC_REPRESENTATION_CONTEXT() REPRESENTATION_CONTEXT('2D SPACE',''
  ) );
#570 = PCURVE('',#474,#571);
#571 = DEFINITIONAL_REPRESENTATION('',(#572),#576);
#572 = LINE('',#573,#574);
#573 = CARTESIAN_POINT('',(-3.14159265359,0.));
#574 = VECTOR('',#575,1.);
#575 = DIRECTION('',(0.,1.));
#576 = ( GEOMETRIC_REPRESENTATION_CONTEXT(2) 
PARAMETRIC_REPRESENTATION_CONTEXT() REPRESENTATION_CONTEXT('2D SPACE',''
  ) );
#577 = ORIENTED_EDGE('',*,*,#361,.T.);
#578 = ORIENTED_EDGE('',*,*,#555,.F.);
#579 = ORIENTED_EDGE('',*,*,#580,.F.);
#580 = EDGE_CURVE('',#581,#556,#583,.T.);
#581 = VERTEX_POINT('',#582);
#582 = CARTESIAN_POINT('',(45.007228851318,64.125,22.232867636264));
#583 = SURFACE_CURVE('',#584,(#603,#654),.PCURVE_S1.);
#584 = B_SPLINE_CURVE_WITH_KNOTS('',3,(#585,#586,#587,#588,#589,#590,
    #591,#592,#593,#594,#595,#596,#597,#598,#599,#600,#601,#602),
  .UNSPECIFIED.,.F.,.F.,(4,2,2,2,2,2,2,2,4),(0.,3.300675705608E-02,
    6.601351411215E-02,9.901983845308E-02,0.132026162794,0.165032487135,
    0.198038811476,0.231045568532,0.264052325588),.UNSPECIFIED.);
#585 = CARTESIAN_POINT('',(45.007228851318,64.125,22.232867636264));
#586 = CARTESIAN_POINT('',(44.897206327798,64.125,22.232867636264));
#587 = CARTESIAN_POINT('',(44.779950092792,64.147017565,22.229635843285)
  );
#588 = CARTESIAN_POINT('',(44.564411637507,64.236358982288,
    22.218002399103));
#589 = CARTESIAN_POINT('',(44.466116926996,64.303675057246,
    22.209773075739));
#590 = CARTESIAN_POINT('',(44.310904925978,64.458887058264,
    22.194356933868));
#591 = CARTESIAN_POINT('',(44.243588053172,64.557182209117,
    22.186162829946));
#592 = CARTESIAN_POINT('',(44.154246053821,64.772722163374,
    22.174610138497));
#593 = CARTESIAN_POINT('',(44.132228851318,64.889978918864,
    22.171413836785));
#594 = CARTESIAN_POINT('',(44.132228851318,65.110021081136,
    22.171413836785));
#595 = CARTESIAN_POINT('',(44.154246053821,65.227277836626,
    22.174610138497));
#596 = CARTESIAN_POINT('',(44.243588053172,65.442817790883,
    22.186162829946));
#597 = CARTESIAN_POINT('',(44.310904925978,65.541112941736,
    22.194356933868));
#598 = CARTESIAN_POINT('',(44.466116926996,65.696324942754,
    22.209773075739));
#599 = CARTESIAN_POINT('',(44.564411637507,65.763641017712,
    22.218002399103));
#600 = CARTESIAN_POINT('',(44.779950092792,65.852982435,22.229635843285)
  );
#601 = CARTESIAN_POINT('',(44.897206327798,65.875,22.232867636264));
#602 = CARTESIAN_POINT('',(45.007228851318,65.875,22.232867636264));
#603 = PCURVE('',#474,#604);
#604 = DEFINITIONAL_REPRESENTATION('',(#605),#653);
#605 = B_SPLINE_CURVE_WITH_KNOTS('',3,(#606,#607,#608,#609,#610,#611,
    #612,#613,#614,#615,#616,#617,#618,#619,#620,#621,#622,#623,#624,
    #625,#626,#627,#628,#629,#630,#631,#632,#633,#634,#635,#636,#637,
    #638,#639,#640,#641,#642,#643,#644,#645,#646,#647,#648,#649,#650,
    #651,#652),.UNSPECIFIED.,.F.,.F.,(4,1,1,1,1,1,1,1,1,1,1,1,1,1,1,1,1,
    1,1,1,1,1,1,1,1,1,1,1,1,1,1,1,1,1,1,1,1,1,1,1,1,1,1,1,4),(0.,
    6.001189217909E-03,1.200237843582E-02,1.800356765373E-02,
    2.400475687164E-02,3.000594608955E-02,3.600713530746E-02,
    4.200832452537E-02,4.800951374328E-02,5.401070296118E-02,
    6.001189217909E-02,6.6013081397E-02,7.201427061491E-02,
    7.801545983282E-02,8.401664905073E-02,9.001783826864E-02,
    9.601902748655E-02,0.102020216704,0.108021405922,0.11402259514,
    0.120023784358,0.126024973576,0.132026162794,0.138027352012,
    0.14402854123,0.150029730448,0.156030919666,0.162032108884,
    0.168033298101,0.174034487319,0.180035676537,0.186036865755,
    0.192038054973,0.198039244191,0.204040433409,0.210041622627,
    0.216042811845,0.222044001063,0.228045190281,0.234046379498,
    0.240047568716,0.246048757934,0.252049947152,0.25805113637,
    0.264052325588),.QUASI_UNIFORM_KNOTS.);
#606 = CARTESIAN_POINT('',(0.,-7.298546200522));
#607 = CARTESIAN_POINT('',(-2.286058414512E-02,-7.298546200522));
#608 = CARTESIAN_POINT('',(-6.913300734419E-02,-7.298759861051));
#609 = CARTESIAN_POINT('',(-0.139857252153,-7.299698086362));
#610 = CARTESIAN_POINT('',(-0.211558947666,-7.301230477543));
#611 = CARTESIAN_POINT('',(-0.283899950638,-7.303334591467));
#612 = CARTESIAN_POINT('',(-0.356571163088,-7.305983804508));
#613 = CARTESIAN_POINT('',(-0.429318299782,-7.309167089504));
#614 = CARTESIAN_POINT('',(-0.501950433731,-7.312779275601));
#615 = CARTESIAN_POINT('',(-0.574227922267,-7.316710893135));
#616 = CARTESIAN_POINT('',(-0.645803683686,-7.32085486408));
#617 = CARTESIAN_POINT('',(-0.716494755293,-7.325114170285));
#618 = CARTESIAN_POINT('',(-0.78539324865,-7.329349162452));
#619 = CARTESIAN_POINT('',(-0.854291631479,-7.333580656003));
#620 = CARTESIAN_POINT('',(-0.924983320968,-7.337830604489));
#621 = CARTESIAN_POINT('',(-0.996560014747,-7.341960422551));
#622 = CARTESIAN_POINT('',(-1.068838767901,-7.345874156334));
#623 = CARTESIAN_POINT('',(-1.141472160262,-7.349465864872));
#624 = CARTESIAN_POINT('',(-1.214221249108,-7.352626924142));
#625 = CARTESIAN_POINT('',(-1.286892005389,-7.355255601082));
#626 = CARTESIAN_POINT('',(-1.359240921787,-7.357341741838));
#627 = CARTESIAN_POINT('',(-1.430918473679,-7.358859887156));
#628 = CARTESIAN_POINT('',(-1.50173703275,-7.359788680262));
#629 = CARTESIAN_POINT('',(-1.570796326795,-7.360105659869));
#630 = CARTESIAN_POINT('',(-1.63985562084,-7.359788680262));
#631 = CARTESIAN_POINT('',(-1.710674179911,-7.358859887156));
#632 = CARTESIAN_POINT('',(-1.782351731803,-7.357341741838));
#633 = CARTESIAN_POINT('',(-1.8547006482,-7.355255601082));
#634 = CARTESIAN_POINT('',(-1.927371404482,-7.352626924142));
#635 = CARTESIAN_POINT('',(-2.000120493328,-7.349465864872));
#636 = CARTESIAN_POINT('',(-2.072753885689,-7.345874156334));
#637 = CARTESIAN_POINT('',(-2.145032638843,-7.341960422551));
#638 = CARTESIAN_POINT('',(-2.216609332622,-7.337830604489));
#639 = CARTESIAN_POINT('',(-2.28730102211,-7.333580656003));
#640 = CARTESIAN_POINT('',(-2.35619940494,-7.329349162452));
#641 = CARTESIAN_POINT('',(-2.425097898296,-7.325114170285));
#642 = CARTESIAN_POINT('',(-2.495788969904,-7.32085486408));
#643 = CARTESIAN_POINT('',(-2.567364731323,-7.316710893135));
#644 = CARTESIAN_POINT('',(-2.639642219859,-7.312779275601));
#645 = CARTESIAN_POINT('',(-2.712274353808,-7.309167089504));
#646 = CARTESIAN_POINT('',(-2.785021490502,-7.305983804508));
#647 = CARTESIAN_POINT('',(-2.857692702951,-7.303334591467));
#648 = CARTESIAN_POINT('',(-2.930033705924,-7.301230477543));
#649 = CARTESIAN_POINT('',(-3.001735401437,-7.299698086362));
#650 = CARTESIAN_POINT('',(-3.072459646246,-7.298759861051));
#651 = CARTESIAN_POINT('',(-3.118732069445,-7.298546200522));
#652 = CARTESIAN_POINT('',(-3.14159265359,-7.298546200522));
#653 = ( GEOMETRIC_REPRESENTATION_CONTEXT(2) 
PARAMETRIC_REPRESENTATION_CONTEXT() REPRESENTATION_CONTEXT('2D SPACE',''
  ) );
#654 = PCURVE('',#655,#660);
#655 = CYLINDRICAL_SURFACE('',#656,6.26);
#656 = AXIS2_PLACEMENT_3D('',#657,#658,#659);
#657 = CARTESIAN_POINT('',(16.,65.,28.431413836785));
#658 = DIRECTION('',(1.,2.22044604925E-16,0.));
#659 = DIRECTION('',(-2.22044604925E-16,1.,0.));
#660 = DEFINITIONAL_REPRESENTATION('',(#661),#709);
#661 = B_SPLINE_CURVE_WITH_KNOTS('',3,(#662,#663,#664,#665,#666,#667,
    #668,#669,#670,#671,#672,#673,#674,#675,#676,#677,#678,#679,#680,
    #681,#682,#683,#684,#685,#686,#687,#688,#689,#690,#691,#692,#693,
    #694,#695,#696,#697,#698,#699,#700,#701,#702,#703,#704,#705,#706,
    #707,#708),.UNSPECIFIED.,.F.,.F.,(4,1,1,1,1,1,1,1,1,1,1,1,1,1,1,1,1,
    1,1,1,1,1,1,1,1,1,1,1,1,1,1,1,1,1,1,1,1,1,1,1,1,1,1,1,4),(0.,
    6.001189217909E-03,1.200237843582E-02,1.800356765373E-02,
    2.400475687164E-02,3.000594608955E-02,3.600713530746E-02,
    4.200832452537E-02,4.800951374328E-02,5.401070296118E-02,
    6.001189217909E-02,6.6013081397E-02,7.201427061491E-02,
    7.801545983282E-02,8.401664905073E-02,9.001783826864E-02,
    9.601902748655E-02,0.102020216704,0.108021405922,0.11402259514,
    0.120023784358,0.126024973576,0.132026162794,0.138027352012,
    0.14402854123,0.150029730448,0.156030919666,0.162032108884,
    0.168033298101,0.174034487319,0.180035676537,0.186036865755,
    0.192038054973,0.198039244191,0.204040433409,0.210041622627,
    0.216042811845,0.222044001063,0.228045190281,0.234046379498,
    0.240047568716,0.246048757934,0.252049947152,0.25805113637,
    0.264052325588),.QUASI_UNIFORM_KNOTS.);
#662 = CARTESIAN_POINT('',(-1.71103187849,29.007228851318));
#663 = CARTESIAN_POINT('',(-1.711031877632,28.987224887259));
#664 = CARTESIAN_POINT('',(-1.710796858217,28.946738689144));
#665 = CARTESIAN_POINT('',(-1.709736114079,28.885177700398));
#666 = CARTESIAN_POINT('',(-1.707964204492,28.823387621935));
#667 = CARTESIAN_POINT('',(-1.705477438834,28.761972863549));
#668 = CARTESIAN_POINT('',(-1.70227475682,28.701531119843));
#669 = CARTESIAN_POINT('',(-1.69834518144,28.642685138248));
#670 = CARTESIAN_POINT('',(-1.693724876977,28.585937493075));
#671 = CARTESIAN_POINT('',(-1.688492896831,28.531666168659));
#672 = CARTESIAN_POINT('',(-1.68272381849,28.480305979301));
#673 = CARTESIAN_POINT('',(-1.676475585906,28.432166037736));
#674 = CARTESIAN_POINT('',(-1.669876637517,28.388001432988));
#675 = CARTESIAN_POINT('',(-1.662789405259,28.346909050497));
#676 = CARTESIAN_POINT('',(-1.655069437256,28.308026815001));
#677 = CARTESIAN_POINT('',(-1.646838432689,28.272149942636));
#678 = CARTESIAN_POINT('',(-1.638146317253,28.239633542791));
#679 = CARTESIAN_POINT('',(-1.629063019231,28.210935860477));
#680 = CARTESIAN_POINT('',(-1.619649036878,28.186542704969));
#681 = CARTESIAN_POINT('',(-1.609984854396,28.166669108184));
#682 = CARTESIAN_POINT('',(-1.600167470777,28.15124435724));
#683 = CARTESIAN_POINT('',(-1.590297239209,28.140258291153));
#684 = CARTESIAN_POINT('',(-1.580449081532,28.133684518532));
#685 = CARTESIAN_POINT('',(-1.570796326795,28.131501017711));
#686 = CARTESIAN_POINT('',(-1.561143572058,28.133684518532));
#687 = CARTESIAN_POINT('',(-1.551295414381,28.140258291153));
#688 = CARTESIAN_POINT('',(-1.541425182813,28.15124435724));
#689 = CARTESIAN_POINT('',(-1.531607799194,28.166669108184));
#690 = CARTESIAN_POINT('',(-1.521943616712,28.186542704969));
#691 = CARTESIAN_POINT('',(-1.512529634358,28.210935860477));
#692 = CARTESIAN_POINT('',(-1.503446336337,28.239633542791));
#693 = CARTESIAN_POINT('',(-1.494754220901,28.272149942636));
#694 = CARTESIAN_POINT('',(-1.486523216333,28.308026815001));
#695 = CARTESIAN_POINT('',(-1.478803248331,28.346909050497));
#696 = CARTESIAN_POINT('',(-1.471716016073,28.388001432988));
#697 = CARTESIAN_POINT('',(-1.465117067684,28.432166037736));
#698 = CARTESIAN_POINT('',(-1.4588688351,28.480305979301));
#699 = CARTESIAN_POINT('',(-1.453099756759,28.531666168659));
#700 = CARTESIAN_POINT('',(-1.447867776612,28.585937493075));
#701 = CARTESIAN_POINT('',(-1.44324747215,28.642685138248));
#702 = CARTESIAN_POINT('',(-1.439317896769,28.701531119843));
#703 = CARTESIAN_POINT('',(-1.436115214755,28.761972863549));
#704 = CARTESIAN_POINT('',(-1.433628449098,28.823387621935));
#705 = CARTESIAN_POINT('',(-1.431856539511,28.885177700398));
#706 = CARTESIAN_POINT('',(-1.430795795373,28.946738689144));
#707 = CARTESIAN_POINT('',(-1.430560775958,28.987224887259));
#708 = CARTESIAN_POINT('',(-1.4305607751,29.007228851318));
#709 = ( GEOMETRIC_REPRESENTATION_CONTEXT(2) 
PARAMETRIC_REPRESENTATION_CONTEXT() REPRESENTATION_CONTEXT('2D SPACE',''
  ) );
#710 = ORIENTED_EDGE('',*,*,#711,.F.);
#711 = EDGE_CURVE('',#556,#581,#712,.T.);
#712 = SURFACE_CURVE('',#713,(#732,#783),.PCURVE_S1.);
#713 = B_SPLINE_CURVE_WITH_KNOTS('',3,(#714,#715,#716,#717,#718,#719,
    #720,#721,#722,#723,#724,#725,#726,#727,#728,#729,#730,#731),
  .UNSPECIFIED.,.F.,.F.,(4,2,2,2,2,2,2,2,4),(0.264052325588,
    0.297059082644,0.3300658397,0.363072164041,0.396078488382,
    0.429084812723,0.462091137064,0.49509789412,0.528104651176),
  .UNSPECIFIED.);
#714 = CARTESIAN_POINT('',(45.007228851318,65.875,22.232867636264));
#715 = CARTESIAN_POINT('',(45.117251374839,65.875,22.232867636264));
#716 = CARTESIAN_POINT('',(45.234507609845,65.852982435,22.229635843285)
  );
#717 = CARTESIAN_POINT('',(45.450046065129,65.763641017712,
    22.218002399103));
#718 = CARTESIAN_POINT('',(45.548340775641,65.696324942754,
    22.209773075739));
#719 = CARTESIAN_POINT('',(45.703552776659,65.541112941736,
    22.194356933868));
#720 = CARTESIAN_POINT('',(45.770869649465,65.442817790883,
    22.186162829946));
#721 = CARTESIAN_POINT('',(45.860211648816,65.227277836626,
    22.174610138497));
#722 = CARTESIAN_POINT('',(45.882228851318,65.110021081136,
    22.171413836785));
#723 = CARTESIAN_POINT('',(45.882228851318,64.889978918864,
    22.171413836785));
#724 = CARTESIAN_POINT('',(45.860211648816,64.772722163374,
    22.174610138497));
#725 = CARTESIAN_POINT('',(45.770869649465,64.557182209117,
    22.186162829946));
#726 = CARTESIAN_POINT('',(45.703552776659,64.458887058264,
    22.194356933868));
#727 = CARTESIAN_POINT('',(45.548340775641,64.303675057246,
    22.209773075739));
#728 = CARTESIAN_POINT('',(45.450046065129,64.236358982288,
    22.218002399103));
#729 = CARTESIAN_POINT('',(45.234507609845,64.147017565,22.229635843285)
  );
#730 = CARTESIAN_POINT('',(45.117251374839,64.125,22.232867636264));
#731 = CARTESIAN_POINT('',(45.007228851318,64.125,22.232867636264));
#732 = PCURVE('',#474,#733);
#733 = DEFINITIONAL_REPRESENTATION('',(#734),#782);
#734 = B_SPLINE_CURVE_WITH_KNOTS('',3,(#735,#736,#737,#738,#739,#740,
    #741,#742,#743,#744,#745,#746,#747,#748,#749,#750,#751,#752,#753,
    #754,#755,#756,#757,#758,#759,#760,#761,#762,#763,#764,#765,#766,
    #767,#768,#769,#770,#771,#772,#773,#774,#775,#776,#777,#778,#779,
    #780,#781),.UNSPECIFIED.,.F.,.F.,(4,1,1,1,1,1,1,1,1,1,1,1,1,1,1,1,1,
    1,1,1,1,1,1,1,1,1,1,1,1,1,1,1,1,1,1,1,1,1,1,1,1,1,1,1,4),(
    0.264052325588,0.270053514806,0.276054704024,0.282055893242,
    0.28805708246,0.294058271678,0.300059460895,0.306060650113,
    0.312061839331,0.318063028549,0.324064217767,0.330065406985,
    0.336066596203,0.342067785421,0.348068974639,0.354070163857,
    0.360071353075,0.366072542292,0.37207373151,0.378074920728,
    0.384076109946,0.390077299164,0.396078488382,0.4020796776,
    0.408080866818,0.414082056036,0.420083245254,0.426084434472,
    0.432085623689,0.438086812907,0.444088002125,0.450089191343,
    0.456090380561,0.462091569779,0.468092758997,0.474093948215,
    0.480095137433,0.486096326651,0.492097515869,0.498098705086,
    0.504099894304,0.510101083522,0.51610227274,0.522103461958,
    0.528104651176),.QUASI_UNIFORM_KNOTS.);
#735 = CARTESIAN_POINT('',(3.14159265359,-7.298546200522));
#736 = CARTESIAN_POINT('',(3.118732069445,-7.298546200522));
#737 = CARTESIAN_POINT('',(3.072459646246,-7.298759861051));
#738 = CARTESIAN_POINT('',(3.001735401437,-7.299698086362));
#739 = CARTESIAN_POINT('',(2.930033705924,-7.301230477543));
#740 = CARTESIAN_POINT('',(2.857692702951,-7.303334591467));
#741 = CARTESIAN_POINT('',(2.785021490502,-7.305983804508));
#742 = CARTESIAN_POINT('',(2.712274353808,-7.309167089504));
#743 = CARTESIAN_POINT('',(2.639642219859,-7.312779275601));
#744 = CARTESIAN_POINT('',(2.567364731323,-7.316710893135));
#745 = CARTESIAN_POINT('',(2.495788969904,-7.32085486408));
#746 = CARTESIAN_POINT('',(2.425097898296,-7.325114170285));
#747 = CARTESIAN_POINT('',(2.35619940494,-7.329349162452));
#748 = CARTESIAN_POINT('',(2.287301022111,-7.333580656003));
#749 = CARTESIAN_POINT('',(2.216609332622,-7.337830604489));
#750 = CARTESIAN_POINT('',(2.145032638843,-7.341960422551));
#751 = CARTESIAN_POINT('',(2.072753885689,-7.345874156334));
#752 = CARTESIAN_POINT('',(2.000120493328,-7.349465864872));
#753 = CARTESIAN_POINT('',(1.927371404482,-7.352626924142));
#754 = CARTESIAN_POINT('',(1.8547006482,-7.355255601082));
#755 = CARTESIAN_POINT('',(1.782351731803,-7.357341741838));
#756 = CARTESIAN_POINT('',(1.710674179911,-7.358859887156));
#757 = CARTESIAN_POINT('',(1.63985562084,-7.359788680262));
#758 = CARTESIAN_POINT('',(1.570796326795,-7.360105659869));
#759 = CARTESIAN_POINT('',(1.50173703275,-7.359788680262));
#760 = CARTESIAN_POINT('',(1.430918473679,-7.358859887156));
#761 = CARTESIAN_POINT('',(1.359240921787,-7.357341741838));
#762 = CARTESIAN_POINT('',(1.286892005389,-7.355255601082));
#763 = CARTESIAN_POINT('',(1.214221249108,-7.352626924142));
#764 = CARTESIAN_POINT('',(1.141472160262,-7.349465864872));
#765 = CARTESIAN_POINT('',(1.068838767901,-7.345874156334));
#766 = CARTESIAN_POINT('',(0.996560014747,-7.341960422551));
#767 = CARTESIAN_POINT('',(0.924983320968,-7.337830604489));
#768 = CARTESIAN_POINT('',(0.854291631479,-7.333580656003));
#769 = CARTESIAN_POINT('',(0.78539324865,-7.329349162452));
#770 = CARTESIAN_POINT('',(0.716494755293,-7.325114170285));
#771 = CARTESIAN_POINT('',(0.645803683686,-7.32085486408));
#772 = CARTESIAN_POINT('',(0.574227922267,-7.316710893135));
#773 = CARTESIAN_POINT('',(0.501950433731,-7.312779275601));
#774 = CARTESIAN_POINT('',(0.429318299782,-7.309167089504));
#775 = CARTESIAN_POINT('',(0.356571163088,-7.305983804508));
#776 = CARTESIAN_POINT('',(0.283899950638,-7.303334591467));
#777 = CARTESIAN_POINT('',(0.211558947666,-7.301230477543));
#778 = CARTESIAN_POINT('',(0.139857252153,-7.299698086362));
#779 = CARTESIAN_POINT('',(6.913300734415E-02,-7.298759861051));
#780 = CARTESIAN_POINT('',(2.28605841451E-02,-7.298546200522));
#781 = CARTESIAN_POINT('',(0.,-7.298546200522));
#782 = ( GEOMETRIC_REPRESENTATION_CONTEXT(2) 
PARAMETRIC_REPRESENTATION_CONTEXT() REPRESENTATION_CONTEXT('2D SPACE',''
  ) );
#783 = PCURVE('',#655,#784);
#784 = DEFINITIONAL_REPRESENTATION('',(#785),#833);
#785 = B_SPLINE_CURVE_WITH_KNOTS('',3,(#786,#787,#788,#789,#790,#791,
    #792,#793,#794,#795,#796,#797,#798,#799,#800,#801,#802,#803,#804,
    #805,#806,#807,#808,#809,#810,#811,#812,#813,#814,#815,#816,#817,
    #818,#819,#820,#821,#822,#823,#824,#825,#826,#827,#828,#829,#830,
    #831,#832),.UNSPECIFIED.,.F.,.F.,(4,1,1,1,1,1,1,1,1,1,1,1,1,1,1,1,1,
    1,1,1,1,1,1,1,1,1,1,1,1,1,1,1,1,1,1,1,1,1,1,1,1,1,1,1,4),(
    0.264052325588,0.270053514806,0.276054704024,0.282055893242,
    0.28805708246,0.294058271678,0.300059460895,0.306060650113,
    0.312061839331,0.318063028549,0.324064217767,0.330065406985,
    0.336066596203,0.342067785421,0.348068974639,0.354070163857,
    0.360071353075,0.366072542292,0.37207373151,0.378074920728,
    0.384076109946,0.390077299164,0.396078488382,0.4020796776,
    0.408080866818,0.414082056036,0.420083245254,0.426084434472,
    0.432085623689,0.438086812907,0.444088002125,0.450089191343,
    0.456090380561,0.462091569779,0.468092758997,0.474093948215,
    0.480095137433,0.486096326651,0.492097515869,0.498098705086,
    0.504099894304,0.510101083522,0.51610227274,0.522103461958,
    0.528104651176),.QUASI_UNIFORM_KNOTS.);
#786 = CARTESIAN_POINT('',(-1.4305607751,29.007228851318));
#787 = CARTESIAN_POINT('',(-1.430560775958,29.027232815378));
#788 = CARTESIAN_POINT('',(-1.430795795373,29.067719013493));
#789 = CARTESIAN_POINT('',(-1.431856539511,29.129280002239));
#790 = CARTESIAN_POINT('',(-1.433628449098,29.191070080702));
#791 = CARTESIAN_POINT('',(-1.436115214755,29.252484839088));
#792 = CARTESIAN_POINT('',(-1.439317896769,29.312926582794));
#793 = CARTESIAN_POINT('',(-1.44324747215,29.371772564389));
#794 = CARTESIAN_POINT('',(-1.447867776612,29.428520209562));
#795 = CARTESIAN_POINT('',(-1.453099756759,29.482791533977));
#796 = CARTESIAN_POINT('',(-1.4588688351,29.534151723336));
#797 = CARTESIAN_POINT('',(-1.465117067684,29.582291664901));
#798 = CARTESIAN_POINT('',(-1.471716016073,29.626456269649));
#799 = CARTESIAN_POINT('',(-1.478803248331,29.66754865214));
#800 = CARTESIAN_POINT('',(-1.486523216333,29.706430887636));
#801 = CARTESIAN_POINT('',(-1.494754220901,29.742307760001));
#802 = CARTESIAN_POINT('',(-1.503446336337,29.774824159846));
#803 = CARTESIAN_POINT('',(-1.512529634358,29.803521842159));
#804 = CARTESIAN_POINT('',(-1.521943616712,29.827914997668));
#805 = CARTESIAN_POINT('',(-1.531607799194,29.847788594453));
#806 = CARTESIAN_POINT('',(-1.541425182813,29.863213345396));
#807 = CARTESIAN_POINT('',(-1.551295414381,29.874199411483));
#808 = CARTESIAN_POINT('',(-1.561143572058,29.880773184105));
#809 = CARTESIAN_POINT('',(-1.570796326795,29.882956684925));
#810 = CARTESIAN_POINT('',(-1.580449081531,29.880773184105));
#811 = CARTESIAN_POINT('',(-1.590297239209,29.874199411483));
#812 = CARTESIAN_POINT('',(-1.600167470777,29.863213345396));
#813 = CARTESIAN_POINT('',(-1.609984854396,29.847788594453));
#814 = CARTESIAN_POINT('',(-1.619649036878,29.827914997668));
#815 = CARTESIAN_POINT('',(-1.629063019231,29.803521842159));
#816 = CARTESIAN_POINT('',(-1.638146317253,29.774824159846));
#817 = CARTESIAN_POINT('',(-1.646838432689,29.742307760001));
#818 = CARTESIAN_POINT('',(-1.655069437256,29.706430887636));
#819 = CARTESIAN_POINT('',(-1.662789405259,29.66754865214));
#820 = CARTESIAN_POINT('',(-1.669876637517,29.626456269649));
#821 = CARTESIAN_POINT('',(-1.676475585906,29.582291664901));
#822 = CARTESIAN_POINT('',(-1.682723818489,29.534151723336));
#823 = CARTESIAN_POINT('',(-1.688492896831,29.482791533977));
#824 = CARTESIAN_POINT('',(-1.693724876977,29.428520209562));
#825 = CARTESIAN_POINT('',(-1.69834518144,29.371772564389));
#826 = CARTESIAN_POINT('',(-1.70227475682,29.312926582793));
#827 = CARTESIAN_POINT('',(-1.705477438834,29.252484839088));
#828 = CARTESIAN_POINT('',(-1.707964204492,29.191070080702));
#829 = CARTESIAN_POINT('',(-1.709736114079,29.129280002239));
#830 = CARTESIAN_POINT('',(-1.710796858217,29.067719013493));
#831 = CARTESIAN_POINT('',(-1.711031877632,29.027232815378));
#832 = CARTESIAN_POINT('',(-1.71103187849,29.007228851318));
#833 = ( GEOMETRIC_REPRESENTATION_CONTEXT(2) 
PARAMETRIC_REPRESENTATION_CONTEXT() REPRESENTATION_CONTEXT('2D SPACE',''
  ) );
#834 = ADVANCED_FACE('',(#835,#915,#1169),#655,.T.);
#835 = FACE_BOUND('',#836,.T.);
#836 = EDGE_LOOP('',(#837,#865,#888,#914));
#837 = ORIENTED_EDGE('',*,*,#838,.T.);
#838 = EDGE_CURVE('',#839,#839,#841,.T.);
#839 = VERTEX_POINT('',#840);
#840 = CARTESIAN_POINT('',(56.,58.74,28.431413836785));
#841 = SURFACE_CURVE('',#842,(#847,#854),.PCURVE_S1.);
#842 = CIRCLE('',#843,6.26);
#843 = AXIS2_PLACEMENT_3D('',#844,#845,#846);
#844 = CARTESIAN_POINT('',(56.,65.,28.431413836785));
#845 = DIRECTION('',(-1.,-2.22044604925E-16,0.));
#846 = DIRECTION('',(-2.22044604925E-16,1.,0.));
#847 = PCURVE('',#655,#848);
#848 = DEFINITIONAL_REPRESENTATION('',(#849),#853);
#849 = LINE('',#850,#851);
#850 = CARTESIAN_POINT('',(6.28318530718,40.));
#851 = VECTOR('',#852,1.);
#852 = DIRECTION('',(-1.,0.));
#853 = ( GEOMETRIC_REPRESENTATION_CONTEXT(2) 
PARAMETRIC_REPRESENTATION_CONTEXT() REPRESENTATION_CONTEXT('2D SPACE',''
  ) );
#854 = PCURVE('',#98,#855);
#855 = DEFINITIONAL_REPRESENTATION('',(#856),#864);
#856 = ( BOUNDED_CURVE() B_SPLINE_CURVE(2,(#857,#858,#859,#860,#861,#862
,#863),.UNSPECIFIED.,.T.,.F.) B_SPLINE_CURVE_WITH_KNOTS((1,2,2,2,2,1),(
    -2.094395102393,0.,2.094395102393,4.188790204786,6.28318530718,
8.377580409573),.UNSPECIFIED.) CURVE() GEOMETRIC_REPRESENTATION_ITEM() 
RATIONAL_B_SPLINE_CURVE((1.,0.5,1.,0.5,1.,0.5,1.)) REPRESENTATION_ITEM(
  '') );
#857 = CARTESIAN_POINT('',(6.26,0.));
#858 = CARTESIAN_POINT('',(6.26,-10.84263805538));
#859 = CARTESIAN_POINT('',(-3.13,-5.421319027691));
#860 = CARTESIAN_POINT('',(-12.52,-1.533257792532E-15));
#861 = CARTESIAN_POINT('',(-3.13,5.421319027691));
#862 = CARTESIAN_POINT('',(6.26,10.842638055381));
#863 = CARTESIAN_POINT('',(6.26,0.));
#864 = ( GEOMETRIC_REPRESENTATION_CONTEXT(2) 
PARAMETRIC_REPRESENTATION_CONTEXT() REPRESENTATION_CONTEXT('2D SPACE',''
  ) );
#865 = ORIENTED_EDGE('',*,*,#866,.T.);
#866 = EDGE_CURVE('',#839,#867,#869,.T.);
#867 = VERTEX_POINT('',#868);
#868 = CARTESIAN_POINT('',(38.,58.74,28.431413836785));
#869 = SEAM_CURVE('',#870,(#874,#881),.PCURVE_S1.);
#870 = LINE('',#871,#872);
#871 = CARTESIAN_POINT('',(16.,58.74,28.431413836785));
#872 = VECTOR('',#873,1.);
#873 = DIRECTION('',(-1.,-2.22044604925E-16,0.));
#874 = PCURVE('',#655,#875);
#875 = DEFINITIONAL_REPRESENTATION('',(#876),#880);
#876 = LINE('',#877,#878);
#877 = CARTESIAN_POINT('',(-3.14159265359,0.));
#878 = VECTOR('',#879,1.);
#879 = DIRECTION('',(0.,-1.));
#880 = ( GEOMETRIC_REPRESENTATION_CONTEXT(2) 
PARAMETRIC_REPRESENTATION_CONTEXT() REPRESENTATION_CONTEXT('2D SPACE',''
  ) );
#881 = PCURVE('',#655,#882);
#882 = DEFINITIONAL_REPRESENTATION('',(#883),#887);
#883 = LINE('',#884,#885);
#884 = CARTESIAN_POINT('',(3.14159265359,0.));
#885 = VECTOR('',#886,1.);
#886 = DIRECTION('',(0.,-1.));
#887 = ( GEOMETRIC_REPRESENTATION_CONTEXT(2) 
PARAMETRIC_REPRESENTATION_CONTEXT() REPRESENTATION_CONTEXT('2D SPACE',''
  ) );
#888 = ORIENTED_EDGE('',*,*,#889,.F.);
#889 = EDGE_CURVE('',#867,#867,#890,.T.);
#890 = SURFACE_CURVE('',#891,(#896,#903),.PCURVE_S1.);
#891 = CIRCLE('',#892,6.26);
#892 = AXIS2_PLACEMENT_3D('',#893,#894,#895);
#893 = CARTESIAN_POINT('',(38.,65.,28.431413836785));
#894 = DIRECTION('',(-1.,-2.22044604925E-16,0.));
#895 = DIRECTION('',(-2.22044604925E-16,1.,0.));
#896 = PCURVE('',#655,#897);
#897 = DEFINITIONAL_REPRESENTATION('',(#898),#902);
#898 = LINE('',#899,#900);
#899 = CARTESIAN_POINT('',(6.28318530718,22.));
#900 = VECTOR('',#901,1.);
#901 = DIRECTION('',(-1.,0.));
#902 = ( GEOMETRIC_REPRESENTATION_CONTEXT(2) 
PARAMETRIC_REPRESENTATION_CONTEXT() REPRESENTATION_CONTEXT('2D SPACE',''
  ) );
#903 = PCURVE('',#66,#904);
#904 = DEFINITIONAL_REPRESENTATION('',(#905),#913);
#905 = ( BOUNDED_CURVE() B_SPLINE_CURVE(2,(#906,#907,#908,#909,#910,#911
,#912),.UNSPECIFIED.,.T.,.F.) B_SPLINE_CURVE_WITH_KNOTS((1,2,2,2,2,1),(
    -2.094395102393,0.,2.094395102393,4.188790204786,6.28318530718,
8.377580409573),.UNSPECIFIED.) CURVE() GEOMETRIC_REPRESENTATION_ITEM() 
RATIONAL_B_SPLINE_CURVE((1.,0.5,1.,0.5,1.,0.5,1.)) REPRESENTATION_ITEM(
  '') );
#906 = CARTESIAN_POINT('',(6.26,0.));
#907 = CARTESIAN_POINT('',(6.26,-10.84263805538));
#908 = CARTESIAN_POINT('',(-3.13,-5.421319027691));
#909 = CARTESIAN_POINT('',(-12.52,-1.533257792532E-15));
#910 = CARTESIAN_POINT('',(-3.13,5.421319027691));
#911 = CARTESIAN_POINT('',(6.26,10.842638055381));
#912 = CARTESIAN_POINT('',(6.26,0.));
#913 = ( GEOMETRIC_REPRESENTATION_CONTEXT(2) 
PARAMETRIC_REPRESENTATION_CONTEXT() REPRESENTATION_CONTEXT('2D SPACE',''
  ) );
#914 = ORIENTED_EDGE('',*,*,#866,.F.);
#915 = FACE_BOUND('',#916,.T.);
#916 = EDGE_LOOP('',(#917,#1045));
#917 = ORIENTED_EDGE('',*,*,#918,.T.);
#918 = EDGE_CURVE('',#919,#921,#923,.T.);
#919 = VERTEX_POINT('',#920);
#920 = CARTESIAN_POINT('',(45.007228851318,64.,34.611025475068));
#921 = VERTEX_POINT('',#922);
#922 = CARTESIAN_POINT('',(45.007228851318,66.,34.611025475068));
#923 = SURFACE_CURVE('',#924,(#943,#994),.PCURVE_S1.);
#924 = B_SPLINE_CURVE_WITH_KNOTS('',3,(#925,#926,#927,#928,#929,#930,
    #931,#932,#933,#934,#935,#936,#937,#938,#939,#940,#941,#942),
  .UNSPECIFIED.,.F.,.F.,(4,2,2,2,2,2,2,2,4),(0.,3.77386408837E-02,
    7.54772817674E-02,0.113215073829,0.150952865892,0.188690657954,
    0.226428450016,0.264167090899,0.301905731783),.UNSPECIFIED.);
#925 = CARTESIAN_POINT('',(45.007228851318,64.,34.611025475068));
#926 = CARTESIAN_POINT('',(44.881433381706,64.,34.611025475068));
#927 = CARTESIAN_POINT('',(44.747403161058,64.025184457664,
    34.615263756568));
#928 = CARTESIAN_POINT('',(44.501089329246,64.127304434522,
    34.630499865577));
#929 = CARTESIAN_POINT('',(44.388786884203,64.204228404742,
    34.641269762578));
#930 = CARTESIAN_POINT('',(44.211459250319,64.381556038626,
    34.661429066249));
#931 = CARTESIAN_POINT('',(44.134533715726,64.493859341652,
    34.672138683147));
#932 = CARTESIAN_POINT('',(44.032412602142,64.740176114031,
    34.687236446295));
#933 = CARTESIAN_POINT('',(44.007228851318,64.874207359793,
    34.691413836785));
#934 = CARTESIAN_POINT('',(44.007228851318,65.125792640207,
    34.691413836785));
#935 = CARTESIAN_POINT('',(44.032412602142,65.259823885969,
    34.687236446295));
#936 = CARTESIAN_POINT('',(44.134533715726,65.506140658348,
    34.672138683147));
#937 = CARTESIAN_POINT('',(44.211459250319,65.618443961374,
    34.661429066249));
#938 = CARTESIAN_POINT('',(44.388786884203,65.795771595258,
    34.641269762578));
#939 = CARTESIAN_POINT('',(44.501089329246,65.872695565478,
    34.630499865577));
#940 = CARTESIAN_POINT('',(44.747403161058,65.974815542336,
    34.615263756568));
#941 = CARTESIAN_POINT('',(44.881433381706,66.,34.611025475068));
#942 = CARTESIAN_POINT('',(45.007228851318,66.,34.611025475068));
#943 = PCURVE('',#655,#944);
#944 = DEFINITIONAL_REPRESENTATION('',(#945),#993);
#945 = B_SPLINE_CURVE_WITH_KNOTS('',3,(#946,#947,#948,#949,#950,#951,
    #952,#953,#954,#955,#956,#957,#958,#959,#960,#961,#962,#963,#964,
    #965,#966,#967,#968,#969,#970,#971,#972,#973,#974,#975,#976,#977,
    #978,#979,#980,#981,#982,#983,#984,#985,#986,#987,#988,#989,#990,
    #991,#992),.UNSPECIFIED.,.F.,.F.,(4,1,1,1,1,1,1,1,1,1,1,1,1,1,1,1,1,
    1,1,1,1,1,1,1,1,1,1,1,1,1,1,1,1,1,1,1,1,1,1,1,1,1,1,1,4),(0.,
    6.861493904161E-03,1.372298780832E-02,2.058448171248E-02,
    2.744597561664E-02,3.430746952081E-02,4.116896342497E-02,
    4.803045732913E-02,5.489195123329E-02,6.175344513745E-02,
    6.861493904161E-02,7.547643294577E-02,8.233792684994E-02,
    8.91994207541E-02,9.606091465826E-02,0.102922408562,0.109783902467,
    0.116645396371,0.123506890275,0.130368384179,0.137229878083,
    0.144091371987,0.150952865892,0.157814359796,0.1646758537,
    0.171537347604,0.178398841508,0.185260335412,0.192121829317,
    0.198983323221,0.205844817125,0.212706311029,0.219567804933,
    0.226429298837,0.233290792741,0.240152286646,0.24701378055,
    0.253875274454,0.260736768358,0.267598262262,0.274459756166,
    0.281321250071,0.288182743975,0.295044237879,0.301905731783),
  .QUASI_UNIFORM_KNOTS.);
#946 = CARTESIAN_POINT('',(1.731228058373,29.007228851318));
#947 = CARTESIAN_POINT('',(1.73122805708,28.984357204971));
#948 = CARTESIAN_POINT('',(1.730958347719,28.938069461617));
#949 = CARTESIAN_POINT('',(1.7297414553,28.867693716286));
#950 = CARTESIAN_POINT('',(1.727709272271,28.797062466331));
#951 = CARTESIAN_POINT('',(1.724857976015,28.726866423431));
#952 = CARTESIAN_POINT('',(1.721186760606,28.657788551258));
#953 = CARTESIAN_POINT('',(1.716683409711,28.59054071951));
#954 = CARTESIAN_POINT('',(1.711390124447,28.525695620421));
#955 = CARTESIAN_POINT('',(1.705397755828,28.463684041736));
#956 = CARTESIAN_POINT('',(1.698792059017,28.405001769196));
#957 = CARTESIAN_POINT('',(1.691639686337,28.350000781861));
#958 = CARTESIAN_POINT('',(1.684088026299,28.299543287516));
#959 = CARTESIAN_POINT('',(1.675979633466,28.252594385736));
#960 = CARTESIAN_POINT('',(1.667148854439,28.208166910721));
#961 = CARTESIAN_POINT('',(1.657735048796,28.167170445998));
#962 = CARTESIAN_POINT('',(1.647795259948,28.130010857514));
#963 = CARTESIAN_POINT('',(1.637409380795,28.097212132322));
#964 = CARTESIAN_POINT('',(1.626646441612,28.069329490627));
#965 = CARTESIAN_POINT('',(1.615598094202,28.046610070344));
#966 = CARTESIAN_POINT('',(1.604374887593,28.028974339476));
#967 = CARTESIAN_POINT('',(1.593091223148,28.016411918061));
#968 = CARTESIAN_POINT('',(1.581832547509,28.008893890541));
#969 = CARTESIAN_POINT('',(1.570796326795,28.006396331707));
#970 = CARTESIAN_POINT('',(1.559760106081,28.00889389054));
#971 = CARTESIAN_POINT('',(1.548501430441,28.016411918061));
#972 = CARTESIAN_POINT('',(1.537217765996,28.028974339476));
#973 = CARTESIAN_POINT('',(1.525994559388,28.046610070344));
#974 = CARTESIAN_POINT('',(1.514946211978,28.069329490627));
#975 = CARTESIAN_POINT('',(1.504183272795,28.097212132322));
#976 = CARTESIAN_POINT('',(1.493797393642,28.130010857514));
#977 = CARTESIAN_POINT('',(1.483857604794,28.167170445998));
#978 = CARTESIAN_POINT('',(1.474443799151,28.208166910721));
#979 = CARTESIAN_POINT('',(1.465613020124,28.252594385736));
#980 = CARTESIAN_POINT('',(1.457504627291,28.299543287516));
#981 = CARTESIAN_POINT('',(1.449952967253,28.350000781861));
#982 = CARTESIAN_POINT('',(1.442800594573,28.405001769196));
#983 = CARTESIAN_POINT('',(1.436194897762,28.463684041736));
#984 = CARTESIAN_POINT('',(1.430202529142,28.525695620421));
#985 = CARTESIAN_POINT('',(1.424909243879,28.59054071951));
#986 = CARTESIAN_POINT('',(1.420405892984,28.657788551258));
#987 = CARTESIAN_POINT('',(1.416734677575,28.726866423431));
#988 = CARTESIAN_POINT('',(1.413883381319,28.797062466331));
#989 = CARTESIAN_POINT('',(1.41185119829,28.867693716286));
#990 = CARTESIAN_POINT('',(1.41063430587,28.938069461617));
#991 = CARTESIAN_POINT('',(1.41036459651,28.984357204971));
#992 = CARTESIAN_POINT('',(1.410364595217,29.007228851318));
#993 = ( GEOMETRIC_REPRESENTATION_CONTEXT(2) 
PARAMETRIC_REPRESENTATION_CONTEXT() REPRESENTATION_CONTEXT('2D SPACE',''
  ) );
#994 = PCURVE('',#259,#995);
#995 = DEFINITIONAL_REPRESENTATION('',(#996),#1044);
#996 = B_SPLINE_CURVE_WITH_KNOTS('',3,(#997,#998,#999,#1000,#1001,#1002,
    #1003,#1004,#1005,#1006,#1007,#1008,#1009,#1010,#1011,#1012,#1013,
    #1014,#1015,#1016,#1017,#1018,#1019,#1020,#1021,#1022,#1023,#1024,
    #1025,#1026,#1027,#1028,#1029,#1030,#1031,#1032,#1033,#1034,#1035,
    #1036,#1037,#1038,#1039,#1040,#1041,#1042,#1043),.UNSPECIFIED.,.F.,
  .F.,(4,1,1,1,1,1,1,1,1,1,1,1,1,1,1,1,1,1,1,1,1,1,1,1,1,1,1,1,1,1,1,1,1
    ,1,1,1,1,1,1,1,1,1,1,1,4),(0.,6.861493904161E-03,1.372298780832E-02,
    2.058448171248E-02,2.744597561664E-02,3.430746952081E-02,
    4.116896342497E-02,4.803045732913E-02,5.489195123329E-02,
    6.175344513745E-02,6.861493904161E-02,7.547643294577E-02,
    8.233792684994E-02,8.91994207541E-02,9.606091465826E-02,
    0.102922408562,0.109783902467,0.116645396371,0.123506890275,
    0.130368384179,0.137229878083,0.144091371987,0.150952865892,
    0.157814359796,0.1646758537,0.171537347604,0.178398841508,
    0.185260335412,0.192121829317,0.198983323221,0.205844817125,
    0.212706311029,0.219567804933,0.226429298837,0.233290792741,
    0.240152286646,0.24701378055,0.253875274454,0.260736768358,
    0.267598262262,0.274459756166,0.281321250071,0.288182743975,
    0.295044237879,0.301905731783),.QUASI_UNIFORM_KNOTS.);
#997 = CARTESIAN_POINT('',(0.,5.079611638283));
#998 = CARTESIAN_POINT('',(-2.28705413115E-02,5.079611638283));
#999 = CARTESIAN_POINT('',(-6.916079634885E-02,5.079891837233));
#1000 = CARTESIAN_POINT('',(-0.139905755038,5.08112187842));
#1001 = CARTESIAN_POINT('',(-0.211622420911,5.083130386866));
#1002 = CARTESIAN_POINT('',(-0.283972672454,5.085887562014));
#1003 = CARTESIAN_POINT('',(-0.356647354796,5.089358124947));
#1004 = CARTESIAN_POINT('',(-0.429391708913,5.093527235235));
#1005 = CARTESIAN_POINT('',(-0.502015772853,5.09825643531));
#1006 = CARTESIAN_POINT('',(-0.57428081413,5.103402463352));
#1007 = CARTESIAN_POINT('',(-0.64584050688,5.108825070022));
#1008 = CARTESIAN_POINT('',(-0.716512781734,5.114397221283));
#1009 = CARTESIAN_POINT('',(-0.785389734188,5.119936009408));
#1010 = CARTESIAN_POINT('',(-0.854266496284,5.125468806122));
#1011 = CARTESIAN_POINT('',(-0.924939827719,5.131024958562));
#1012 = CARTESIAN_POINT('',(-0.996501124481,5.136423364352));
#1013 = CARTESIAN_POINT('',(-1.068768308129,5.141538806982));
#1014 = CARTESIAN_POINT('',(-1.141394622188,5.146232975984));
#1015 = CARTESIAN_POINT('',(-1.214141977335,5.15036405086));
#1016 = CARTESIAN_POINT('',(-1.286817173667,5.153799451263));
#1017 = CARTESIAN_POINT('',(-1.359176166234,5.156525840209));
#1018 = CARTESIAN_POINT('',(-1.430869463159,5.15850993899));
#1019 = CARTESIAN_POINT('',(-1.501708863684,5.159723814102));
#1020 = CARTESIAN_POINT('',(-1.570796326795,5.160138092949));
#1021 = CARTESIAN_POINT('',(-1.639883789906,5.159723814102));
#1022 = CARTESIAN_POINT('',(-1.710723190431,5.15850993899));
#1023 = CARTESIAN_POINT('',(-1.782416487356,5.156525840209));
#1024 = CARTESIAN_POINT('',(-1.854775479923,5.153799451263));
#1025 = CARTESIAN_POINT('',(-1.927450676254,5.15036405086));
#1026 = CARTESIAN_POINT('',(-2.000198031402,5.146232975984));
#1027 = CARTESIAN_POINT('',(-2.072824345461,5.141538806982));
#1028 = CARTESIAN_POINT('',(-2.145091529108,5.136423364352));
#1029 = CARTESIAN_POINT('',(-2.21665282587,5.131024958562));
#1030 = CARTESIAN_POINT('',(-2.287326157306,5.125468806122));
#1031 = CARTESIAN_POINT('',(-2.356202919402,5.119936009408));
#1032 = CARTESIAN_POINT('',(-2.425079871855,5.114397221283));
#1033 = CARTESIAN_POINT('',(-2.49575214671,5.108825070022));
#1034 = CARTESIAN_POINT('',(-2.56731183946,5.103402463352));
#1035 = CARTESIAN_POINT('',(-2.639576880737,5.09825643531));
#1036 = CARTESIAN_POINT('',(-2.712200944677,5.093527235235));
#1037 = CARTESIAN_POINT('',(-2.784945298794,5.089358124947));
#1038 = CARTESIAN_POINT('',(-2.857619981136,5.085887562014));
#1039 = CARTESIAN_POINT('',(-2.929970232679,5.083130386866));
#1040 = CARTESIAN_POINT('',(-3.001686898552,5.08112187842));
#1041 = CARTESIAN_POINT('',(-3.072431857241,5.079891837233));
#1042 = CARTESIAN_POINT('',(-3.118722112278,5.079611638283));
#1043 = CARTESIAN_POINT('',(-3.14159265359,5.079611638283));
#1044 = ( GEOMETRIC_REPRESENTATION_CONTEXT(2) 
PARAMETRIC_REPRESENTATION_CONTEXT() REPRESENTATION_CONTEXT('2D SPACE',''
  ) );
#1045 = ORIENTED_EDGE('',*,*,#1046,.T.);
#1046 = EDGE_CURVE('',#921,#919,#1047,.T.);
#1047 = SURFACE_CURVE('',#1048,(#1067,#1118),.PCURVE_S1.);
#1048 = B_SPLINE_CURVE_WITH_KNOTS('',3,(#1049,#1050,#1051,#1052,#1053,
    #1054,#1055,#1056,#1057,#1058,#1059,#1060,#1061,#1062,#1063,#1064,
    #1065,#1066),.UNSPECIFIED.,.F.,.F.,(4,2,2,2,2,2,2,2,4),(
    0.301905731783,0.339644372667,0.37738301355,0.415120805613,
    0.452858597675,0.490596389737,0.528334181799,0.566072822682,
    0.603811463566),.UNSPECIFIED.);
#1049 = CARTESIAN_POINT('',(45.007228851318,66.,34.611025475068));
#1050 = CARTESIAN_POINT('',(45.133024320931,66.,34.611025475068));
#1051 = CARTESIAN_POINT('',(45.267054541579,65.974815542336,
    34.615263756568));
#1052 = CARTESIAN_POINT('',(45.513368373391,65.872695565478,
    34.630499865577));
#1053 = CARTESIAN_POINT('',(45.625670818433,65.795771595258,
    34.641269762578));
#1054 = CARTESIAN_POINT('',(45.802998452318,65.618443961374,
    34.661429066249));
#1055 = CARTESIAN_POINT('',(45.87992398691,65.506140658348,
    34.672138683147));
#1056 = CARTESIAN_POINT('',(45.982045100495,65.259823885969,
    34.687236446295));
#1057 = CARTESIAN_POINT('',(46.007228851318,65.125792640207,
    34.691413836785));
#1058 = CARTESIAN_POINT('',(46.007228851318,64.874207359793,
    34.691413836785));
#1059 = CARTESIAN_POINT('',(45.982045100495,64.740176114031,
    34.687236446295));
#1060 = CARTESIAN_POINT('',(45.87992398691,64.493859341652,
    34.672138683147));
#1061 = CARTESIAN_POINT('',(45.802998452318,64.381556038626,
    34.661429066249));
#1062 = CARTESIAN_POINT('',(45.625670818433,64.204228404742,
    34.641269762578));
#1063 = CARTESIAN_POINT('',(45.513368373391,64.127304434522,
    34.630499865577));
#1064 = CARTESIAN_POINT('',(45.267054541579,64.025184457664,
    34.615263756568));
#1065 = CARTESIAN_POINT('',(45.133024320931,64.,34.611025475068));
#1066 = CARTESIAN_POINT('',(45.007228851318,64.,34.611025475068));
#1067 = PCURVE('',#655,#1068);
#1068 = DEFINITIONAL_REPRESENTATION('',(#1069),#1117);
#1069 = B_SPLINE_CURVE_WITH_KNOTS('',3,(#1070,#1071,#1072,#1073,#1074,
    #1075,#1076,#1077,#1078,#1079,#1080,#1081,#1082,#1083,#1084,#1085,
    #1086,#1087,#1088,#1089,#1090,#1091,#1092,#1093,#1094,#1095,#1096,
    #1097,#1098,#1099,#1100,#1101,#1102,#1103,#1104,#1105,#1106,#1107,
    #1108,#1109,#1110,#1111,#1112,#1113,#1114,#1115,#1116),
  .UNSPECIFIED.,.F.,.F.,(4,1,1,1,1,1,1,1,1,1,1,1,1,1,1,1,1,1,1,1,1,1,1,1
    ,1,1,1,1,1,1,1,1,1,1,1,1,1,1,1,1,1,1,1,1,4),(0.301905731783,
    0.308767225687,0.315628719591,0.322490213496,0.3293517074,
    0.336213201304,0.343074695208,0.349936189112,0.356797683016,
    0.363659176921,0.370520670825,0.377382164729,0.384243658633,
    0.391105152537,0.397966646441,0.404828140346,0.41168963425,
    0.418551128154,0.425412622058,0.432274115962,0.439135609866,
    0.44599710377,0.452858597675,0.459720091579,0.466581585483,
    0.473443079387,0.480304573291,0.487166067195,0.4940275611,
    0.500889055004,0.507750548908,0.514612042812,0.521473536716,
    0.52833503062,0.535196524525,0.542058018429,0.548919512333,
    0.555781006237,0.562642500141,0.569503994045,0.57636548795,
    0.583226981854,0.590088475758,0.596949969662,0.603811463566),
  .QUASI_UNIFORM_KNOTS.);
#1070 = CARTESIAN_POINT('',(1.410364595217,29.007228851318));
#1071 = CARTESIAN_POINT('',(1.41036459651,29.030100497666));
#1072 = CARTESIAN_POINT('',(1.41063430587,29.076388241019));
#1073 = CARTESIAN_POINT('',(1.41185119829,29.146763986351));
#1074 = CARTESIAN_POINT('',(1.413883381319,29.217395236306));
#1075 = CARTESIAN_POINT('',(1.416734677575,29.287591279206));
#1076 = CARTESIAN_POINT('',(1.420405892984,29.356669151379));
#1077 = CARTESIAN_POINT('',(1.424909243879,29.423916983127));
#1078 = CARTESIAN_POINT('',(1.430202529142,29.488762082216));
#1079 = CARTESIAN_POINT('',(1.436194897762,29.550773660901));
#1080 = CARTESIAN_POINT('',(1.442800594573,29.609455933441));
#1081 = CARTESIAN_POINT('',(1.449952967253,29.664456920775));
#1082 = CARTESIAN_POINT('',(1.457504627291,29.714914415121));
#1083 = CARTESIAN_POINT('',(1.465613020124,29.761863316901));
#1084 = CARTESIAN_POINT('',(1.474443799151,29.806290791916));
#1085 = CARTESIAN_POINT('',(1.483857604794,29.847287256639));
#1086 = CARTESIAN_POINT('',(1.493797393642,29.884446845123));
#1087 = CARTESIAN_POINT('',(1.504183272795,29.917245570315));
#1088 = CARTESIAN_POINT('',(1.514946211978,29.94512821201));
#1089 = CARTESIAN_POINT('',(1.525994559388,29.967847632293));
#1090 = CARTESIAN_POINT('',(1.537217765996,29.985483363161));
#1091 = CARTESIAN_POINT('',(1.548501430441,29.998045784575));
#1092 = CARTESIAN_POINT('',(1.559760106081,30.005563812096));
#1093 = CARTESIAN_POINT('',(1.570796326795,30.008061370929));
#1094 = CARTESIAN_POINT('',(1.581832547509,30.005563812096));
#1095 = CARTESIAN_POINT('',(1.593091223148,29.998045784575));
#1096 = CARTESIAN_POINT('',(1.604374887593,29.985483363161));
#1097 = CARTESIAN_POINT('',(1.615598094202,29.967847632293));
#1098 = CARTESIAN_POINT('',(1.626646441612,29.94512821201));
#1099 = CARTESIAN_POINT('',(1.637409380795,29.917245570315));
#1100 = CARTESIAN_POINT('',(1.647795259948,29.884446845123));
#1101 = CARTESIAN_POINT('',(1.657735048796,29.847287256639));
#1102 = CARTESIAN_POINT('',(1.667148854439,29.806290791916));
#1103 = CARTESIAN_POINT('',(1.675979633466,29.761863316901));
#1104 = CARTESIAN_POINT('',(1.684088026299,29.714914415121));
#1105 = CARTESIAN_POINT('',(1.691639686337,29.664456920775));
#1106 = CARTESIAN_POINT('',(1.698792059017,29.609455933441));
#1107 = CARTESIAN_POINT('',(1.705397755828,29.550773660901));
#1108 = CARTESIAN_POINT('',(1.711390124447,29.488762082216));
#1109 = CARTESIAN_POINT('',(1.716683409711,29.423916983127));
#1110 = CARTESIAN_POINT('',(1.721186760606,29.356669151379));
#1111 = CARTESIAN_POINT('',(1.724857976015,29.287591279206));
#1112 = CARTESIAN_POINT('',(1.727709272271,29.217395236306));
#1113 = CARTESIAN_POINT('',(1.7297414553,29.146763986351));
#1114 = CARTESIAN_POINT('',(1.730958347719,29.076388241019));
#1115 = CARTESIAN_POINT('',(1.73122805708,29.030100497666));
#1116 = CARTESIAN_POINT('',(1.731228058373,29.007228851318));
#1117 = ( GEOMETRIC_REPRESENTATION_CONTEXT(2) 
PARAMETRIC_REPRESENTATION_CONTEXT() REPRESENTATION_CONTEXT('2D SPACE',''
  ) );
#1118 = PCURVE('',#259,#1119);
#1119 = DEFINITIONAL_REPRESENTATION('',(#1120),#1168);
#1120 = B_SPLINE_CURVE_WITH_KNOTS('',3,(#1121,#1122,#1123,#1124,#1125,
    #1126,#1127,#1128,#1129,#1130,#1131,#1132,#1133,#1134,#1135,#1136,
    #1137,#1138,#1139,#1140,#1141,#1142,#1143,#1144,#1145,#1146,#1147,
    #1148,#1149,#1150,#1151,#1152,#1153,#1154,#1155,#1156,#1157,#1158,
    #1159,#1160,#1161,#1162,#1163,#1164,#1165,#1166,#1167),
  .UNSPECIFIED.,.F.,.F.,(4,1,1,1,1,1,1,1,1,1,1,1,1,1,1,1,1,1,1,1,1,1,1,1
    ,1,1,1,1,1,1,1,1,1,1,1,1,1,1,1,1,1,1,1,1,4),(0.301905731783,
    0.308767225687,0.315628719591,0.322490213496,0.3293517074,
    0.336213201304,0.343074695208,0.349936189112,0.356797683016,
    0.363659176921,0.370520670825,0.377382164729,0.384243658633,
    0.391105152537,0.397966646441,0.404828140346,0.41168963425,
    0.418551128154,0.425412622058,0.432274115962,0.439135609866,
    0.44599710377,0.452858597675,0.459720091579,0.466581585483,
    0.473443079387,0.480304573291,0.487166067195,0.4940275611,
    0.500889055004,0.507750548908,0.514612042812,0.521473536716,
    0.52833503062,0.535196524525,0.542058018429,0.548919512333,
    0.555781006237,0.562642500141,0.569503994045,0.57636548795,
    0.583226981854,0.590088475758,0.596949969662,0.603811463566),
  .QUASI_UNIFORM_KNOTS.);
#1121 = CARTESIAN_POINT('',(3.14159265359,5.079611638283));
#1122 = CARTESIAN_POINT('',(3.118722112278,5.079611638283));
#1123 = CARTESIAN_POINT('',(3.072431857241,5.079891837233));
#1124 = CARTESIAN_POINT('',(3.001686898552,5.08112187842));
#1125 = CARTESIAN_POINT('',(2.929970232679,5.083130386866));
#1126 = CARTESIAN_POINT('',(2.857619981136,5.085887562014));
#1127 = CARTESIAN_POINT('',(2.784945298794,5.089358124947));
#1128 = CARTESIAN_POINT('',(2.712200944677,5.093527235235));
#1129 = CARTESIAN_POINT('',(2.639576880737,5.09825643531));
#1130 = CARTESIAN_POINT('',(2.56731183946,5.103402463352));
#1131 = CARTESIAN_POINT('',(2.49575214671,5.108825070022));
#1132 = CARTESIAN_POINT('',(2.425079871856,5.114397221283));
#1133 = CARTESIAN_POINT('',(2.356202919402,5.119936009408));
#1134 = CARTESIAN_POINT('',(2.287326157306,5.125468806122));
#1135 = CARTESIAN_POINT('',(2.216652825871,5.131024958562));
#1136 = CARTESIAN_POINT('',(2.145091529108,5.136423364352));
#1137 = CARTESIAN_POINT('',(2.072824345461,5.141538806982));
#1138 = CARTESIAN_POINT('',(2.000198031402,5.146232975984));
#1139 = CARTESIAN_POINT('',(1.927450676254,5.15036405086));
#1140 = CARTESIAN_POINT('',(1.854775479923,5.153799451263));
#1141 = CARTESIAN_POINT('',(1.782416487356,5.156525840209));
#1142 = CARTESIAN_POINT('',(1.710723190431,5.15850993899));
#1143 = CARTESIAN_POINT('',(1.639883789906,5.159723814102));
#1144 = CARTESIAN_POINT('',(1.570796326795,5.160138092949));
#1145 = CARTESIAN_POINT('',(1.501708863684,5.159723814102));
#1146 = CARTESIAN_POINT('',(1.430869463159,5.15850993899));
#1147 = CARTESIAN_POINT('',(1.359176166234,5.156525840209));
#1148 = CARTESIAN_POINT('',(1.286817173667,5.153799451263));
#1149 = CARTESIAN_POINT('',(1.214141977335,5.15036405086));
#1150 = CARTESIAN_POINT('',(1.141394622188,5.146232975984));
#1151 = CARTESIAN_POINT('',(1.068768308129,5.141538806982));
#1152 = CARTESIAN_POINT('',(0.996501124481,5.136423364352));
#1153 = CARTESIAN_POINT('',(0.924939827719,5.131024958562));
#1154 = CARTESIAN_POINT('',(0.854266496284,5.125468806122));
#1155 = CARTESIAN_POINT('',(0.785389734188,5.119936009408));
#1156 = CARTESIAN_POINT('',(0.716512781734,5.114397221283));
#1157 = CARTESIAN_POINT('',(0.64584050688,5.108825070022));
#1158 = CARTESIAN_POINT('',(0.574280814129,5.103402463352));
#1159 = CARTESIAN_POINT('',(0.502015772853,5.09825643531));
#1160 = CARTESIAN_POINT('',(0.429391708913,5.093527235235));
#1161 = CARTESIAN_POINT('',(0.356647354795,5.089358124947));
#1162 = CARTESIAN_POINT('',(0.283972672454,5.085887562014));
#1163 = CARTESIAN_POINT('',(0.211622420911,5.083130386866));
#1164 = CARTESIAN_POINT('',(0.139905755038,5.08112187842));
#1165 = CARTESIAN_POINT('',(6.916079634882E-02,5.079891837233));
#1166 = CARTESIAN_POINT('',(2.287054131149E-02,5.079611638283));
#1167 = CARTESIAN_POINT('',(0.,5.079611638283));
#1168 = ( GEOMETRIC_REPRESENTATION_CONTEXT(2) 
PARAMETRIC_REPRESENTATION_CONTEXT() REPRESENTATION_CONTEXT('2D SPACE',''
  ) );
#1169 = FACE_BOUND('',#1170,.T.);
#1170 = EDGE_LOOP('',(#1171,#1172));
#1171 = ORIENTED_EDGE('',*,*,#711,.F.);
#1172 = ORIENTED_EDGE('',*,*,#580,.F.);
#1173 = ADVANCED_FACE('',(#1174,#1177),#66,.F.);
#1174 = FACE_BOUND('',#1175,.T.);
#1175 = EDGE_LOOP('',(#1176));
#1176 = ORIENTED_EDGE('',*,*,#889,.T.);
#1177 = FACE_BOUND('',#1178,.T.);
#1178 = EDGE_LOOP('',(#1179));
#1179 = ORIENTED_EDGE('',*,*,#51,.F.);
#1180 = ADVANCED_FACE('',(#1181,#1184),#98,.T.);
#1181 = FACE_BOUND('',#1182,.T.);
#1182 = EDGE_LOOP('',(#1183));
#1183 = ORIENTED_EDGE('',*,*,#838,.F.);
#1184 = FACE_BOUND('',#1185,.T.);
#1185 = EDGE_LOOP('',(#1186));
#1186 = ORIENTED_EDGE('',*,*,#83,.T.);
#1187 = ADVANCED_FACE('',(#1188),#259,.F.);
#1188 = FACE_BOUND('',#1189,.F.);
#1189 = EDGE_LOOP('',(#1190,#1211,#1212,#1213,#1214));
#1190 = ORIENTED_EDGE('',*,*,#1191,.T.);
#1191 = EDGE_CURVE('',#117,#921,#1192,.T.);
#1192 = SEAM_CURVE('',#1193,(#1197,#1204),.PCURVE_S1.);
#1193 = LINE('',#1194,#1195);
#1194 = CARTESIAN_POINT('',(45.007228851318,66.,29.531413836785));
#1195 = VECTOR('',#1196,1.);
#1196 = DIRECTION('',(1.359631073447E-32,-6.123233995737E-17,1.));
#1197 = PCURVE('',#259,#1198);
#1198 = DEFINITIONAL_REPRESENTATION('',(#1199),#1203);
#1199 = LINE('',#1200,#1201);
#1200 = CARTESIAN_POINT('',(3.14159265359,0.));
#1201 = VECTOR('',#1202,1.);
#1202 = DIRECTION('',(0.,1.));
#1203 = ( GEOMETRIC_REPRESENTATION_CONTEXT(2) 
PARAMETRIC_REPRESENTATION_CONTEXT() REPRESENTATION_CONTEXT('2D SPACE',''
  ) );
#1204 = PCURVE('',#259,#1205);
#1205 = DEFINITIONAL_REPRESENTATION('',(#1206),#1210);
#1206 = LINE('',#1207,#1208);
#1207 = CARTESIAN_POINT('',(-3.14159265359,0.));
#1208 = VECTOR('',#1209,1.);
#1209 = DIRECTION('',(0.,1.));
#1210 = ( GEOMETRIC_REPRESENTATION_CONTEXT(2) 
PARAMETRIC_REPRESENTATION_CONTEXT() REPRESENTATION_CONTEXT('2D SPACE',''
  ) );
#1211 = ORIENTED_EDGE('',*,*,#1046,.T.);
#1212 = ORIENTED_EDGE('',*,*,#918,.T.);
#1213 = ORIENTED_EDGE('',*,*,#1191,.F.);
#1214 = ORIENTED_EDGE('',*,*,#116,.F.);
#1215 = ( GEOMETRIC_REPRESENTATION_CONTEXT(3) 
GLOBAL_UNCERTAINTY_ASSIGNED_CONTEXT((#1219)) 
GLOBAL_UNIT_ASSIGNED_CONTEXT((#1216,#1217,#1218)) REPRESENTATION_CONTEXT
('Context #1','3D Context with UNIT and UNCERTAINTY') );
#1216 = ( LENGTH_UNIT() NAMED_UNIT(*) SI_UNIT(.MILLI.,.METRE.) );
#1217 = ( NAMED_UNIT(*) PLANE_ANGLE_UNIT() SI_UNIT($,.RADIAN.) );
#1218 = ( NAMED_UNIT(*) SI_UNIT($,.STERADIAN.) SOLID_ANGLE_UNIT() );
#1219 = UNCERTAINTY_MEASURE_WITH_UNIT(LENGTH_MEASURE(1.E-04),#1216,
  'distance_accuracy_value','confusion accuracy');
#1220 = PRODUCT_RELATED_PRODUCT_CATEGORY('part',$,(#7));
ENDSEC;
END-ISO-10303-21;
