ISO-10303-21;
HEADER;
FILE_DESCRIPTION(('Open CASCADE Model'),'2;1');
FILE_NAME('Open CASCADE Shape Model','2026-08-13T22:17:04',('Author'),(
    'Open CASCADE'),'Open CASCADE STEP processor 7.9','Open CASCADE 7.9'
  ,'Unknown');
FILE_SCHEMA(('AUTOMOTIVE_DESIGN { 1 0 10303 214 1 1 1 1 }'));
ENDSEC;
DATA;
#1 = APPLICATION_PROTOCOL_DEFINITION('international standard',
  'automotive_design',2000,#2);
#2 = APPLICATION_CONTEXT(
  'core data for automotive mechanical design processes');
#3 = SHAPE_DEFINITION_REPRESENTATION(#4,#10);
#4 = PRODUCT_DEFINITION_SHAPE('','',#5);
#5 = PRODUCT_DEFINITION('design','',#6,#9);
#6 = PRODUCT_DEFINITION_FORMATION('','',#7);
#7 = PRODUCT('Open CASCADE STEP translator 7.9 316',
  'Open CASCADE STEP translator 7.9 316','',(#8));
#8 = PRODUCT_CONTEXT('',#2,'mechanical');
#9 = PRODUCT_DEFINITION_CONTEXT('part definition',#2,'design');
#10 = ADVANCED_BREP_SHAPE_REPRESENTATION('',(#11,#15),#509);
#11 = AXIS2_PLACEMENT_3D('',#12,#13,#14);
#12 = CARTESIAN_POINT('',(0.,0.,0.));
#13 = DIRECTION('',(0.,0.,1.));
#14 = DIRECTION('',(1.,0.,-0.));
#15 = MANIFOLD_SOLID_BREP('',#16);
#16 = CLOSED_SHELL('',(#17,#161,#254,#365,#467,#472,#476,#504));
#17 = ADVANCED_FACE('',(#18),#32,.T.);
#18 = FACE_BOUND('',#19,.T.);
#19 = EDGE_LOOP('',(#20,#55,#84,#134));
#20 = ORIENTED_EDGE('',*,*,#21,.F.);
#21 = EDGE_CURVE('',#22,#24,#26,.T.);
#22 = VERTEX_POINT('',#23);
#23 = CARTESIAN_POINT('',(-2.277125011045,53.5,-1.031843827365));
#24 = VERTEX_POINT('',#25);
#25 = CARTESIAN_POINT('',(-1.821700008836,54.,-0.825475061892));
#26 = SURFACE_CURVE('',#27,(#31,#43),.PCURVE_S1.);
#27 = LINE('',#28,#29);
#28 = CARTESIAN_POINT('',(-1.821700008836,54.,-0.825475061892));
#29 = VECTOR('',#30,1.);
#30 = DIRECTION('',(0.644068214768,0.707106781187,0.291849506982));
#31 = PCURVE('',#32,#37);
#32 = CONICAL_SURFACE('',#33,2.,0.785398163397);
#33 = AXIS2_PLACEMENT_3D('',#34,#35,#36);
#34 = CARTESIAN_POINT('',(0.,54.,0.));
#35 = DIRECTION('',(0.,-1.,0.));
#36 = DIRECTION('',(0.910850004418,0.,0.412737530946));
#37 = DEFINITIONAL_REPRESENTATION('',(#38),#42);
#38 = LINE('',#39,#40);
#39 = CARTESIAN_POINT('',(3.14159265359,-4.710277376051E-15));
#40 = VECTOR('',#41,1.);
#41 = DIRECTION('',(0.,-1.));
#42 = ( GEOMETRIC_REPRESENTATION_CONTEXT(2) 
PARAMETRIC_REPRESENTATION_CONTEXT() REPRESENTATION_CONTEXT('2D SPACE',''
  ) );
#43 = PCURVE('',#44,#49);
#44 = CONICAL_SURFACE('',#45,2.,0.785398163397);
#45 = AXIS2_PLACEMENT_3D('',#46,#47,#48);
#46 = CARTESIAN_POINT('',(0.,54.,0.));
#47 = DIRECTION('',(0.,-1.,0.));
#48 = DIRECTION('',(0.910850004418,0.,0.412737530946));
#49 = DEFINITIONAL_REPRESENTATION('',(#50),#54);
#50 = LINE('',#51,#52);
#51 = CARTESIAN_POINT('',(3.14159265359,-4.710277376051E-15));
#52 = VECTOR('',#53,1.);
#53 = DIRECTION('',(0.,-1.));
#54 = ( GEOMETRIC_REPRESENTATION_CONTEXT(2) 
PARAMETRIC_REPRESENTATION_CONTEXT() REPRESENTATION_CONTEXT('2D SPACE',''
  ) );
#55 = ORIENTED_EDGE('',*,*,#56,.F.);
#56 = EDGE_CURVE('',#57,#22,#59,.T.);
#57 = VERTEX_POINT('',#58);
#58 = CARTESIAN_POINT('',(1.202593712417,53.5,2.191750068519));
#59 = SURFACE_CURVE('',#60,(#65,#72),.PCURVE_S1.);
#60 = CIRCLE('',#61,2.5);
#61 = AXIS2_PLACEMENT_3D('',#62,#63,#64);
#62 = CARTESIAN_POINT('',(0.,53.5,0.));
#63 = DIRECTION('',(0.,-1.,0.));
#64 = DIRECTION('',(-0.910850004418,-0.,-0.412737530946));
#65 = PCURVE('',#32,#66);
#66 = DEFINITIONAL_REPRESENTATION('',(#67),#71);
#67 = LINE('',#68,#69);
#68 = CARTESIAN_POINT('',(-3.14159265359,0.5));
#69 = VECTOR('',#70,1.);
#70 = DIRECTION('',(1.,-6.285167819227E-17));
#71 = ( GEOMETRIC_REPRESENTATION_CONTEXT(2) 
PARAMETRIC_REPRESENTATION_CONTEXT() REPRESENTATION_CONTEXT('2D SPACE',''
  ) );
#72 = PCURVE('',#73,#78);
#73 = CYLINDRICAL_SURFACE('',#74,2.5);
#74 = AXIS2_PLACEMENT_3D('',#75,#76,#77);
#75 = CARTESIAN_POINT('',(0.,54.,0.));
#76 = DIRECTION('',(0.,-1.,0.));
#77 = DIRECTION('',(0.910850004418,0.,0.412737530946));
#78 = DEFINITIONAL_REPRESENTATION('',(#79),#83);
#79 = LINE('',#80,#81);
#80 = CARTESIAN_POINT('',(3.14159265359,0.5));
#81 = VECTOR('',#82,1.);
#82 = DIRECTION('',(1.,0.));
#83 = ( GEOMETRIC_REPRESENTATION_CONTEXT(2) 
PARAMETRIC_REPRESENTATION_CONTEXT() REPRESENTATION_CONTEXT('2D SPACE',''
  ) );
#84 = ORIENTED_EDGE('',*,*,#85,.F.);
#85 = EDGE_CURVE('',#86,#57,#88,.T.);
#86 = VERTEX_POINT('',#87);
#87 = CARTESIAN_POINT('',(1.821700008836,54.,0.825475061892));
#88 = SURFACE_CURVE('',#89,(#93,#122),.PCURVE_S1.);
#89 = ( BOUNDED_CURVE() B_SPLINE_CURVE(2,(#90,#91,#92),.UNSPECIFIED.,.F.
,.F.) B_SPLINE_CURVE_WITH_KNOTS((3,3),(2.4,3.294427191),
.PIECEWISE_BEZIER_KNOTS.) CURVE() GEOMETRIC_REPRESENTATION_ITEM() 
RATIONAL_B_SPLINE_CURVE((5.,5.,4.444444444444)) REPRESENTATION_ITEM('') 
  );
#90 = CARTESIAN_POINT('',(1.821700008836,54.,0.825475061892));
#91 = CARTESIAN_POINT('',(1.546541654872,54.,1.432708398171));
#92 = CARTESIAN_POINT('',(1.202593712417,53.5,2.19175006852));
#93 = PCURVE('',#32,#94);
#94 = DEFINITIONAL_REPRESENTATION('',(#95),#121);
#95 = B_SPLINE_CURVE_WITH_KNOTS('',3,(#96,#97,#98,#99,#100,#101,#102,
    #103,#104,#105,#106,#107,#108,#109,#110,#111,#112,#113,#114,#115,
    #116,#117,#118,#119,#120),.UNSPECIFIED.,.F.,.F.,(4,1,1,1,1,1,1,1,1,1
    ,1,1,1,1,1,1,1,1,1,1,1,1,4),(2.4,2.440655781409,2.481311562818,
    2.521967344227,2.562623125636,2.603278907045,2.643934688455,
    2.684590469864,2.725246251273,2.765902032682,2.806557814091,
    2.8472135955,2.887869376909,2.928525158318,2.969180939727,
    3.009836721136,3.050492502545,3.091148283955,3.131804065364,
    3.172459846773,3.213115628182,3.253771409591,3.294427191),
  .QUASI_UNIFORM_KNOTS.);
#96 = CARTESIAN_POINT('',(0.,-1.34933437887E-15));
#97 = CARTESIAN_POINT('',(1.010101392445E-02,4.240396721962E-07));
#98 = CARTESIAN_POINT('',(3.03030282825E-02,6.118451274214E-04));
#99 = CARTESIAN_POINT('',(6.059215062187E-02,3.368812997955E-03));
#100 = CARTESIAN_POINT('',(9.085348825539E-02,7.971726410183E-03));
#101 = CARTESIAN_POINT('',(0.121073249416,1.44337223551E-02));
#102 = CARTESIAN_POINT('',(0.151237751468,2.277264684222E-02));
#103 = CARTESIAN_POINT('',(0.181333463556,3.301182511787E-02));
#104 = CARTESIAN_POINT('',(0.211347040718,4.51800526863E-02));
#105 = CARTESIAN_POINT('',(0.241265358769,5.931184618947E-02));
#106 = CARTESIAN_POINT('',(0.271075547168,7.544767905173E-02));
#107 = CARTESIAN_POINT('',(0.300765020385,9.363427970898E-02));
#108 = CARTESIAN_POINT('',(0.330321507377,0.113924976549));
#109 = CARTESIAN_POINT('',(0.359733079084,0.136380099811));
#110 = CARTESIAN_POINT('',(0.388988173799,0.16106744472));
#111 = CARTESIAN_POINT('',(0.418075620304,0.18806280342));
#112 = CARTESIAN_POINT('',(0.446984658662,0.217450572369));
#113 = CARTESIAN_POINT('',(0.475704958736,0.249324449589));
#114 = CARTESIAN_POINT('',(0.504226635884,0.28378821464));
#115 = CARTESIAN_POINT('',(0.532540265746,0.320956672672));
#116 = CARTESIAN_POINT('',(0.560636890943,0.360956523243));
#117 = CARTESIAN_POINT('',(0.588508046543,0.403928122966));
#118 = CARTESIAN_POINT('',(0.616145704218,0.450024614822));
#119 = CARTESIAN_POINT('',(0.634410240653,0.48295600068));
#120 = CARTESIAN_POINT('',(0.643501108793,0.5));
#121 = ( GEOMETRIC_REPRESENTATION_CONTEXT(2) 
PARAMETRIC_REPRESENTATION_CONTEXT() REPRESENTATION_CONTEXT('2D SPACE',''
  ) );
#122 = PCURVE('',#123,#128);
#123 = PLANE('',#124);
#124 = AXIS2_PLACEMENT_3D('',#125,#126,#127);
#125 = CARTESIAN_POINT('',(2.440806305255,39.,-0.540799944735));
#126 = DIRECTION('',(-0.910850004418,0.,-0.412737530946));
#127 = DIRECTION('',(-0.412737530946,0.,0.910850004418));
#128 = DEFINITIONAL_REPRESENTATION('',(#129),#133);
#129 = ( BOUNDED_CURVE() B_SPLINE_CURVE(2,(#130,#131,#132),
.UNSPECIFIED.,.F.,.F.) B_SPLINE_CURVE_WITH_KNOTS((3,3),(2.4,3.294427191)
,.PIECEWISE_BEZIER_KNOTS.) CURVE() GEOMETRIC_REPRESENTATION_ITEM() 
RATIONAL_B_SPLINE_CURVE((5.,5.,4.444444444444)) REPRESENTATION_ITEM('') 
  );
#130 = CARTESIAN_POINT('',(1.5,15.));
#131 = CARTESIAN_POINT('',(2.166666666667,15.));
#132 = CARTESIAN_POINT('',(3.,14.5));
#133 = ( GEOMETRIC_REPRESENTATION_CONTEXT(2) 
PARAMETRIC_REPRESENTATION_CONTEXT() REPRESENTATION_CONTEXT('2D SPACE',''
  ) );
#134 = ORIENTED_EDGE('',*,*,#135,.F.);
#135 = EDGE_CURVE('',#24,#86,#136,.T.);
#136 = SURFACE_CURVE('',#137,(#142,#149),.PCURVE_S1.);
#137 = CIRCLE('',#138,2.);
#138 = AXIS2_PLACEMENT_3D('',#139,#140,#141);
#139 = CARTESIAN_POINT('',(0.,54.,0.));
#140 = DIRECTION('',(0.,1.,0.));
#141 = DIRECTION('',(-0.910850004418,0.,-0.412737530946));
#142 = PCURVE('',#32,#143);
#143 = DEFINITIONAL_REPRESENTATION('',(#144),#148);
#144 = LINE('',#145,#146);
#145 = CARTESIAN_POINT('',(3.14159265359,2.22044604925E-16));
#146 = VECTOR('',#147,1.);
#147 = DIRECTION('',(-1.,0.));
#148 = ( GEOMETRIC_REPRESENTATION_CONTEXT(2) 
PARAMETRIC_REPRESENTATION_CONTEXT() REPRESENTATION_CONTEXT('2D SPACE',''
  ) );
#149 = PCURVE('',#150,#155);
#150 = PLANE('',#151);
#151 = AXIS2_PLACEMENT_3D('',#152,#153,#154);
#152 = CARTESIAN_POINT('',(0.,54.,0.));
#153 = DIRECTION('',(0.,1.,0.));
#154 = DIRECTION('',(-0.910850004418,0.,-0.412737530946));
#155 = DEFINITIONAL_REPRESENTATION('',(#156),#160);
#156 = CIRCLE('',#157,2.);
#157 = AXIS2_PLACEMENT_2D('',#158,#159);
#158 = CARTESIAN_POINT('',(0.,0.));
#159 = DIRECTION('',(1.,0.));
#160 = ( GEOMETRIC_REPRESENTATION_CONTEXT(2) 
PARAMETRIC_REPRESENTATION_CONTEXT() REPRESENTATION_CONTEXT('2D SPACE',''
  ) );
#161 = ADVANCED_FACE('',(#162),#44,.T.);
#162 = FACE_BOUND('',#163,.T.);
#163 = EDGE_LOOP('',(#164,#165,#187,#232));
#164 = ORIENTED_EDGE('',*,*,#21,.T.);
#165 = ORIENTED_EDGE('',*,*,#166,.F.);
#166 = EDGE_CURVE('',#86,#24,#167,.T.);
#167 = SURFACE_CURVE('',#168,(#173,#180),.PCURVE_S1.);
#168 = CIRCLE('',#169,2.);
#169 = AXIS2_PLACEMENT_3D('',#170,#171,#172);
#170 = CARTESIAN_POINT('',(0.,54.,0.));
#171 = DIRECTION('',(0.,1.,0.));
#172 = DIRECTION('',(-0.910850004418,0.,-0.412737530946));
#173 = PCURVE('',#44,#174);
#174 = DEFINITIONAL_REPRESENTATION('',(#175),#179);
#175 = LINE('',#176,#177);
#176 = CARTESIAN_POINT('',(9.424777960769,4.440892098501E-16));
#177 = VECTOR('',#178,1.);
#178 = DIRECTION('',(-1.,-7.067899292141E-17));
#179 = ( GEOMETRIC_REPRESENTATION_CONTEXT(2) 
PARAMETRIC_REPRESENTATION_CONTEXT() REPRESENTATION_CONTEXT('2D SPACE',''
  ) );
#180 = PCURVE('',#150,#181);
#181 = DEFINITIONAL_REPRESENTATION('',(#182),#186);
#182 = CIRCLE('',#183,2.);
#183 = AXIS2_PLACEMENT_2D('',#184,#185);
#184 = CARTESIAN_POINT('',(0.,0.));
#185 = DIRECTION('',(1.,0.));
#186 = ( GEOMETRIC_REPRESENTATION_CONTEXT(2) 
PARAMETRIC_REPRESENTATION_CONTEXT() REPRESENTATION_CONTEXT('2D SPACE',''
  ) );
#187 = ORIENTED_EDGE('',*,*,#188,.F.);
#188 = EDGE_CURVE('',#189,#86,#191,.T.);
#189 = VERTEX_POINT('',#190);
#190 = CARTESIAN_POINT('',(2.440806305255,53.5,-0.540799944735));
#191 = SURFACE_CURVE('',#192,(#196,#225),.PCURVE_S1.);
#192 = ( BOUNDED_CURVE() B_SPLINE_CURVE(2,(#193,#194,#195),
.UNSPECIFIED.,.F.,.F.) B_SPLINE_CURVE_WITH_KNOTS((3,3),(-3.294427191,
-2.4),.PIECEWISE_BEZIER_KNOTS.) CURVE() GEOMETRIC_REPRESENTATION_ITEM() 
RATIONAL_B_SPLINE_CURVE((4.444444444445,5.,5.)) REPRESENTATION_ITEM('') 
  );
#193 = CARTESIAN_POINT('',(2.440806305255,53.5,-0.540799944735));
#194 = CARTESIAN_POINT('',(2.0968583628,54.,0.218241725613));
#195 = CARTESIAN_POINT('',(1.821700008836,54.,0.825475061892));
#196 = PCURVE('',#44,#197);
#197 = DEFINITIONAL_REPRESENTATION('',(#198),#224);
#198 = B_SPLINE_CURVE_WITH_KNOTS('',3,(#199,#200,#201,#202,#203,#204,
    #205,#206,#207,#208,#209,#210,#211,#212,#213,#214,#215,#216,#217,
    #218,#219,#220,#221,#222,#223),.UNSPECIFIED.,.F.,.F.,(4,1,1,1,1,1,1,
    1,1,1,1,1,1,1,1,1,1,1,1,1,1,1,4),(-3.294427191,-3.253771409591,
    -3.213115628182,-3.172459846773,-3.131804065364,-3.091148283954,
    -3.050492502545,-3.009836721136,-2.969180939727,-2.928525158318,
    -2.887869376909,-2.8472135955,-2.806557814091,-2.765902032682,
    -2.725246251273,-2.684590469864,-2.643934688454,-2.603278907045,
    -2.562623125636,-2.521967344227,-2.481311562818,-2.440655781409,-2.4
    ),.QUASI_UNIFORM_KNOTS.);
#199 = CARTESIAN_POINT('',(5.639684198386,0.5));
#200 = CARTESIAN_POINT('',(5.648775066526,0.482956000679));
#201 = CARTESIAN_POINT('',(5.667039602962,0.450024614822));
#202 = CARTESIAN_POINT('',(5.694677260636,0.403928122966));
#203 = CARTESIAN_POINT('',(5.722548416237,0.360956523243));
#204 = CARTESIAN_POINT('',(5.750645041434,0.320956672672));
#205 = CARTESIAN_POINT('',(5.778958671296,0.28378821464));
#206 = CARTESIAN_POINT('',(5.807480348444,0.249324449589));
#207 = CARTESIAN_POINT('',(5.836200648518,0.217450572369));
#208 = CARTESIAN_POINT('',(5.865109686876,0.18806280342));
#209 = CARTESIAN_POINT('',(5.894197133381,0.16106744472));
#210 = CARTESIAN_POINT('',(5.923452228096,0.136380099811));
#211 = CARTESIAN_POINT('',(5.952863799803,0.113924976549));
#212 = CARTESIAN_POINT('',(5.982420286794,9.363427970894E-02));
#213 = CARTESIAN_POINT('',(6.012109760012,7.544767905171E-02));
#214 = CARTESIAN_POINT('',(6.041919948411,5.931184618944E-02));
#215 = CARTESIAN_POINT('',(6.071838266461,4.518005268627E-02));
#216 = CARTESIAN_POINT('',(6.101851843624,3.301182511786E-02));
#217 = CARTESIAN_POINT('',(6.131947555712,2.27726468422E-02));
#218 = CARTESIAN_POINT('',(6.162112057764,1.443372235509E-02));
#219 = CARTESIAN_POINT('',(6.192331818924,7.97172641018E-03));
#220 = CARTESIAN_POINT('',(6.222593156558,3.368812997957E-03));
#221 = CARTESIAN_POINT('',(6.252882278897,6.118451274153E-04));
#222 = CARTESIAN_POINT('',(6.273084293255,4.240396685607E-07));
#223 = CARTESIAN_POINT('',(6.28318530718,8.48278224806E-16));
#224 = ( GEOMETRIC_REPRESENTATION_CONTEXT(2) 
PARAMETRIC_REPRESENTATION_CONTEXT() REPRESENTATION_CONTEXT('2D SPACE',''
  ) );
#225 = PCURVE('',#123,#226);
#226 = DEFINITIONAL_REPRESENTATION('',(#227),#231);
#227 = ( BOUNDED_CURVE() B_SPLINE_CURVE(2,(#228,#229,#230),
.UNSPECIFIED.,.F.,.F.) B_SPLINE_CURVE_WITH_KNOTS((3,3),(-3.294427191,
-2.4),.PIECEWISE_BEZIER_KNOTS.) CURVE() GEOMETRIC_REPRESENTATION_ITEM() 
RATIONAL_B_SPLINE_CURVE((4.444444444445,5.,5.)) REPRESENTATION_ITEM('') 
  );
#228 = CARTESIAN_POINT('',(3.619327060278E-14,14.5));
#229 = CARTESIAN_POINT('',(0.833333333333,15.));
#230 = CARTESIAN_POINT('',(1.5,15.));
#231 = ( GEOMETRIC_REPRESENTATION_CONTEXT(2) 
PARAMETRIC_REPRESENTATION_CONTEXT() REPRESENTATION_CONTEXT('2D SPACE',''
  ) );
#232 = ORIENTED_EDGE('',*,*,#233,.F.);
#233 = EDGE_CURVE('',#22,#189,#234,.T.);
#234 = SURFACE_CURVE('',#235,(#240,#247),.PCURVE_S1.);
#235 = CIRCLE('',#236,2.5);
#236 = AXIS2_PLACEMENT_3D('',#237,#238,#239);
#237 = CARTESIAN_POINT('',(0.,53.5,0.));
#238 = DIRECTION('',(0.,-1.,0.));
#239 = DIRECTION('',(-0.910850004418,-0.,-0.412737530946));
#240 = PCURVE('',#44,#241);
#241 = DEFINITIONAL_REPRESENTATION('',(#242),#246);
#242 = LINE('',#243,#244);
#243 = CARTESIAN_POINT('',(3.14159265359,0.5));
#244 = VECTOR('',#245,1.);
#245 = DIRECTION('',(1.,0.));
#246 = ( GEOMETRIC_REPRESENTATION_CONTEXT(2) 
PARAMETRIC_REPRESENTATION_CONTEXT() REPRESENTATION_CONTEXT('2D SPACE',''
  ) );
#247 = PCURVE('',#73,#248);
#248 = DEFINITIONAL_REPRESENTATION('',(#249),#253);
#249 = LINE('',#250,#251);
#250 = CARTESIAN_POINT('',(3.14159265359,0.5));
#251 = VECTOR('',#252,1.);
#252 = DIRECTION('',(1.,0.));
#253 = ( GEOMETRIC_REPRESENTATION_CONTEXT(2) 
PARAMETRIC_REPRESENTATION_CONTEXT() REPRESENTATION_CONTEXT('2D SPACE',''
  ) );
#254 = ADVANCED_FACE('',(#255),#270,.T.);
#255 = FACE_BOUND('',#256,.T.);
#256 = EDGE_LOOP('',(#257,#288,#310,#333,#364));
#257 = ORIENTED_EDGE('',*,*,#258,.F.);
#258 = EDGE_CURVE('',#259,#261,#263,.T.);
#259 = VERTEX_POINT('',#260);
#260 = CARTESIAN_POINT('',(-2.277125011045,0.5,-1.031843827365));
#261 = VERTEX_POINT('',#262);
#262 = CARTESIAN_POINT('',(2.277125011045,0.5,1.031843827365));
#263 = SURFACE_CURVE('',#264,(#269,#281),.PCURVE_S1.);
#264 = CIRCLE('',#265,2.5);
#265 = AXIS2_PLACEMENT_3D('',#266,#267,#268);
#266 = CARTESIAN_POINT('',(0.,0.5,0.));
#267 = DIRECTION('',(0.,1.,0.));
#268 = DIRECTION('',(-0.910850004418,0.,-0.412737530946));
#269 = PCURVE('',#270,#275);
#270 = CONICAL_SURFACE('',#271,2.5,0.785398163397);
#271 = AXIS2_PLACEMENT_3D('',#272,#273,#274);
#272 = CARTESIAN_POINT('',(0.,0.5,0.));
#273 = DIRECTION('',(0.,1.,0.));
#274 = DIRECTION('',(-0.910850004418,0.,-0.412737530946));
#275 = DEFINITIONAL_REPRESENTATION('',(#276),#280);
#276 = LINE('',#277,#278);
#277 = CARTESIAN_POINT('',(0.,2.22044604925E-16));
#278 = VECTOR('',#279,1.);
#279 = DIRECTION('',(1.,0.));
#280 = ( GEOMETRIC_REPRESENTATION_CONTEXT(2) 
PARAMETRIC_REPRESENTATION_CONTEXT() REPRESENTATION_CONTEXT('2D SPACE',''
  ) );
#281 = PCURVE('',#73,#282);
#282 = DEFINITIONAL_REPRESENTATION('',(#283),#287);
#283 = LINE('',#284,#285);
#284 = CARTESIAN_POINT('',(9.424777960769,53.5));
#285 = VECTOR('',#286,1.);
#286 = DIRECTION('',(-1.,0.));
#287 = ( GEOMETRIC_REPRESENTATION_CONTEXT(2) 
PARAMETRIC_REPRESENTATION_CONTEXT() REPRESENTATION_CONTEXT('2D SPACE',''
  ) );
#288 = ORIENTED_EDGE('',*,*,#289,.F.);
#289 = EDGE_CURVE('',#261,#259,#290,.T.);
#290 = SURFACE_CURVE('',#291,(#296,#303),.PCURVE_S1.);
#291 = CIRCLE('',#292,2.5);
#292 = AXIS2_PLACEMENT_3D('',#293,#294,#295);
#293 = CARTESIAN_POINT('',(0.,0.5,0.));
#294 = DIRECTION('',(0.,1.,0.));
#295 = DIRECTION('',(-0.910850004418,0.,-0.412737530946));
#296 = PCURVE('',#270,#297);
#297 = DEFINITIONAL_REPRESENTATION('',(#298),#302);
#298 = LINE('',#299,#300);
#299 = CARTESIAN_POINT('',(-6.28318530718,2.22044604925E-16));
#300 = VECTOR('',#301,1.);
#301 = DIRECTION('',(1.,0.));
#302 = ( GEOMETRIC_REPRESENTATION_CONTEXT(2) 
PARAMETRIC_REPRESENTATION_CONTEXT() REPRESENTATION_CONTEXT('2D SPACE',''
  ) );
#303 = PCURVE('',#73,#304);
#304 = DEFINITIONAL_REPRESENTATION('',(#305),#309);
#305 = LINE('',#306,#307);
#306 = CARTESIAN_POINT('',(9.424777960769,53.5));
#307 = VECTOR('',#308,1.);
#308 = DIRECTION('',(-1.,0.));
#309 = ( GEOMETRIC_REPRESENTATION_CONTEXT(2) 
PARAMETRIC_REPRESENTATION_CONTEXT() REPRESENTATION_CONTEXT('2D SPACE',''
  ) );
#310 = ORIENTED_EDGE('',*,*,#311,.T.);
#311 = EDGE_CURVE('',#261,#312,#314,.T.);
#312 = VERTEX_POINT('',#313);
#313 = CARTESIAN_POINT('',(1.821700008836,-2.081668171172E-16,
    0.825475061892));
#314 = SEAM_CURVE('',#315,(#319,#326),.PCURVE_S1.);
#315 = LINE('',#316,#317);
#316 = CARTESIAN_POINT('',(2.277125011045,0.5,1.031843827365));
#317 = VECTOR('',#318,1.);
#318 = DIRECTION('',(-0.644068214768,-0.707106781187,-0.291849506982));
#319 = PCURVE('',#270,#320);
#320 = DEFINITIONAL_REPRESENTATION('',(#321),#325);
#321 = LINE('',#322,#323);
#322 = CARTESIAN_POINT('',(-3.14159265359,1.276756478319E-15));
#323 = VECTOR('',#324,1.);
#324 = DIRECTION('',(-8.881784197001E-16,-1.));
#325 = ( GEOMETRIC_REPRESENTATION_CONTEXT(2) 
PARAMETRIC_REPRESENTATION_CONTEXT() REPRESENTATION_CONTEXT('2D SPACE',''
  ) );
#326 = PCURVE('',#270,#327);
#327 = DEFINITIONAL_REPRESENTATION('',(#328),#332);
#328 = LINE('',#329,#330);
#329 = CARTESIAN_POINT('',(3.14159265359,1.276756478319E-15));
#330 = VECTOR('',#331,1.);
#331 = DIRECTION('',(-8.881784197001E-16,-1.));
#332 = ( GEOMETRIC_REPRESENTATION_CONTEXT(2) 
PARAMETRIC_REPRESENTATION_CONTEXT() REPRESENTATION_CONTEXT('2D SPACE',''
  ) );
#333 = ORIENTED_EDGE('',*,*,#334,.F.);
#334 = EDGE_CURVE('',#312,#312,#335,.T.);
#335 = SURFACE_CURVE('',#336,(#341,#348),.PCURVE_S1.);
#336 = CIRCLE('',#337,2.);
#337 = AXIS2_PLACEMENT_3D('',#338,#339,#340);
#338 = CARTESIAN_POINT('',(0.,0.,0.));
#339 = DIRECTION('',(0.,-1.,0.));
#340 = DIRECTION('',(-0.910850004418,-0.,-0.412737530946));
#341 = PCURVE('',#270,#342);
#342 = DEFINITIONAL_REPRESENTATION('',(#343),#347);
#343 = LINE('',#344,#345);
#344 = CARTESIAN_POINT('',(6.28318530718,-0.5));
#345 = VECTOR('',#346,1.);
#346 = DIRECTION('',(-1.,0.));
#347 = ( GEOMETRIC_REPRESENTATION_CONTEXT(2) 
PARAMETRIC_REPRESENTATION_CONTEXT() REPRESENTATION_CONTEXT('2D SPACE',''
  ) );
#348 = PCURVE('',#349,#354);
#349 = PLANE('',#350);
#350 = AXIS2_PLACEMENT_3D('',#351,#352,#353);
#351 = CARTESIAN_POINT('',(0.,0.,0.));
#352 = DIRECTION('',(0.,1.,0.));
#353 = DIRECTION('',(-0.910850004418,0.,-0.412737530946));
#354 = DEFINITIONAL_REPRESENTATION('',(#355),#363);
#355 = ( BOUNDED_CURVE() B_SPLINE_CURVE(2,(#356,#357,#358,#359,#360,#361
,#362),.UNSPECIFIED.,.T.,.F.) B_SPLINE_CURVE_WITH_KNOTS((1,2,2,2,2,1),(
    -2.094395102393,0.,2.094395102393,4.188790204786,6.28318530718,
8.377580409573),.UNSPECIFIED.) CURVE() GEOMETRIC_REPRESENTATION_ITEM() 
RATIONAL_B_SPLINE_CURVE((1.,0.5,1.,0.5,1.,0.5,1.)) REPRESENTATION_ITEM(
  '') );
#356 = CARTESIAN_POINT('',(2.,0.));
#357 = CARTESIAN_POINT('',(2.,-3.464101615138));
#358 = CARTESIAN_POINT('',(-1.,-1.732050807569));
#359 = CARTESIAN_POINT('',(-4.,-4.898587196589E-16));
#360 = CARTESIAN_POINT('',(-1.,1.732050807569));
#361 = CARTESIAN_POINT('',(2.,3.464101615138));
#362 = CARTESIAN_POINT('',(2.,0.));
#363 = ( GEOMETRIC_REPRESENTATION_CONTEXT(2) 
PARAMETRIC_REPRESENTATION_CONTEXT() REPRESENTATION_CONTEXT('2D SPACE',''
  ) );
#364 = ORIENTED_EDGE('',*,*,#311,.F.);
#365 = ADVANCED_FACE('',(#366),#73,.T.);
#366 = FACE_BOUND('',#367,.T.);
#367 = EDGE_LOOP('',(#368,#369,#370,#391,#392,#415,#444,#465,#466));
#368 = ORIENTED_EDGE('',*,*,#258,.T.);
#369 = ORIENTED_EDGE('',*,*,#289,.T.);
#370 = ORIENTED_EDGE('',*,*,#371,.T.);
#371 = EDGE_CURVE('',#259,#22,#372,.T.);
#372 = SEAM_CURVE('',#373,(#377,#384),.PCURVE_S1.);
#373 = LINE('',#374,#375);
#374 = CARTESIAN_POINT('',(-2.277125011045,54.,-1.031843827365));
#375 = VECTOR('',#376,1.);
#376 = DIRECTION('',(0.,1.,0.));
#377 = PCURVE('',#73,#378);
#378 = DEFINITIONAL_REPRESENTATION('',(#379),#383);
#379 = LINE('',#380,#381);
#380 = CARTESIAN_POINT('',(3.14159265359,0.));
#381 = VECTOR('',#382,1.);
#382 = DIRECTION('',(0.,-1.));
#383 = ( GEOMETRIC_REPRESENTATION_CONTEXT(2) 
PARAMETRIC_REPRESENTATION_CONTEXT() REPRESENTATION_CONTEXT('2D SPACE',''
  ) );
#384 = PCURVE('',#73,#385);
#385 = DEFINITIONAL_REPRESENTATION('',(#386),#390);
#386 = LINE('',#387,#388);
#387 = CARTESIAN_POINT('',(9.424777960769,0.));
#388 = VECTOR('',#389,1.);
#389 = DIRECTION('',(0.,-1.));
#390 = ( GEOMETRIC_REPRESENTATION_CONTEXT(2) 
PARAMETRIC_REPRESENTATION_CONTEXT() REPRESENTATION_CONTEXT('2D SPACE',''
  ) );
#391 = ORIENTED_EDGE('',*,*,#233,.T.);
#392 = ORIENTED_EDGE('',*,*,#393,.F.);
#393 = EDGE_CURVE('',#394,#189,#396,.T.);
#394 = VERTEX_POINT('',#395);
#395 = CARTESIAN_POINT('',(2.440806305255,39.,-0.540799944735));
#396 = SURFACE_CURVE('',#397,(#401,#408),.PCURVE_S1.);
#397 = LINE('',#398,#399);
#398 = CARTESIAN_POINT('',(2.440806305255,39.,-0.540799944735));
#399 = VECTOR('',#400,1.);
#400 = DIRECTION('',(0.,1.,0.));
#401 = PCURVE('',#73,#402);
#402 = DEFINITIONAL_REPRESENTATION('',(#403),#407);
#403 = LINE('',#404,#405);
#404 = CARTESIAN_POINT('',(5.639684198386,15.));
#405 = VECTOR('',#406,1.);
#406 = DIRECTION('',(0.,-1.));
#407 = ( GEOMETRIC_REPRESENTATION_CONTEXT(2) 
PARAMETRIC_REPRESENTATION_CONTEXT() REPRESENTATION_CONTEXT('2D SPACE',''
  ) );
#408 = PCURVE('',#123,#409);
#409 = DEFINITIONAL_REPRESENTATION('',(#410),#414);
#410 = LINE('',#411,#412);
#411 = CARTESIAN_POINT('',(0.,0.));
#412 = VECTOR('',#413,1.);
#413 = DIRECTION('',(0.,1.));
#414 = ( GEOMETRIC_REPRESENTATION_CONTEXT(2) 
PARAMETRIC_REPRESENTATION_CONTEXT() REPRESENTATION_CONTEXT('2D SPACE',''
  ) );
#415 = ORIENTED_EDGE('',*,*,#416,.F.);
#416 = EDGE_CURVE('',#417,#394,#419,.T.);
#417 = VERTEX_POINT('',#418);
#418 = CARTESIAN_POINT('',(1.202593712417,39.,2.191750068519));
#419 = SURFACE_CURVE('',#420,(#425,#432),.PCURVE_S1.);
#420 = CIRCLE('',#421,2.5);
#421 = AXIS2_PLACEMENT_3D('',#422,#423,#424);
#422 = CARTESIAN_POINT('',(0.,39.,0.));
#423 = DIRECTION('',(0.,1.,0.));
#424 = DIRECTION('',(-0.910850004418,0.,-0.412737530946));
#425 = PCURVE('',#73,#426);
#426 = DEFINITIONAL_REPRESENTATION('',(#427),#431);
#427 = LINE('',#428,#429);
#428 = CARTESIAN_POINT('',(9.424777960769,15.));
#429 = VECTOR('',#430,1.);
#430 = DIRECTION('',(-1.,0.));
#431 = ( GEOMETRIC_REPRESENTATION_CONTEXT(2) 
PARAMETRIC_REPRESENTATION_CONTEXT() REPRESENTATION_CONTEXT('2D SPACE',''
  ) );
#432 = PCURVE('',#433,#438);
#433 = PLANE('',#434);
#434 = AXIS2_PLACEMENT_3D('',#435,#436,#437);
#435 = CARTESIAN_POINT('',(0.,39.,0.));
#436 = DIRECTION('',(0.,1.,0.));
#437 = DIRECTION('',(-0.910850004418,0.,-0.412737530946));
#438 = DEFINITIONAL_REPRESENTATION('',(#439),#443);
#439 = CIRCLE('',#440,2.5);
#440 = AXIS2_PLACEMENT_2D('',#441,#442);
#441 = CARTESIAN_POINT('',(0.,0.));
#442 = DIRECTION('',(1.,0.));
#443 = ( GEOMETRIC_REPRESENTATION_CONTEXT(2) 
PARAMETRIC_REPRESENTATION_CONTEXT() REPRESENTATION_CONTEXT('2D SPACE',''
  ) );
#444 = ORIENTED_EDGE('',*,*,#445,.T.);
#445 = EDGE_CURVE('',#417,#57,#446,.T.);
#446 = SURFACE_CURVE('',#447,(#451,#458),.PCURVE_S1.);
#447 = LINE('',#448,#449);
#448 = CARTESIAN_POINT('',(1.202593712417,39.,2.191750068519));
#449 = VECTOR('',#450,1.);
#450 = DIRECTION('',(0.,1.,0.));
#451 = PCURVE('',#73,#452);
#452 = DEFINITIONAL_REPRESENTATION('',(#453),#457);
#453 = LINE('',#454,#455);
#454 = CARTESIAN_POINT('',(6.926686415973,15.));
#455 = VECTOR('',#456,1.);
#456 = DIRECTION('',(0.,-1.));
#457 = ( GEOMETRIC_REPRESENTATION_CONTEXT(2) 
PARAMETRIC_REPRESENTATION_CONTEXT() REPRESENTATION_CONTEXT('2D SPACE',''
  ) );
#458 = PCURVE('',#123,#459);
#459 = DEFINITIONAL_REPRESENTATION('',(#460),#464);
#460 = LINE('',#461,#462);
#461 = CARTESIAN_POINT('',(3.,0.));
#462 = VECTOR('',#463,1.);
#463 = DIRECTION('',(0.,1.));
#464 = ( GEOMETRIC_REPRESENTATION_CONTEXT(2) 
PARAMETRIC_REPRESENTATION_CONTEXT() REPRESENTATION_CONTEXT('2D SPACE',''
  ) );
#465 = ORIENTED_EDGE('',*,*,#56,.T.);
#466 = ORIENTED_EDGE('',*,*,#371,.F.);
#467 = ADVANCED_FACE('',(#468),#150,.T.);
#468 = FACE_BOUND('',#469,.T.);
#469 = EDGE_LOOP('',(#470,#471));
#470 = ORIENTED_EDGE('',*,*,#166,.T.);
#471 = ORIENTED_EDGE('',*,*,#135,.T.);
#472 = ADVANCED_FACE('',(#473),#349,.F.);
#473 = FACE_BOUND('',#474,.T.);
#474 = EDGE_LOOP('',(#475));
#475 = ORIENTED_EDGE('',*,*,#334,.T.);
#476 = ADVANCED_FACE('',(#477),#123,.F.);
#477 = FACE_BOUND('',#478,.T.);
#478 = EDGE_LOOP('',(#479,#480,#481,#482,#503));
#479 = ORIENTED_EDGE('',*,*,#188,.T.);
#480 = ORIENTED_EDGE('',*,*,#85,.T.);
#481 = ORIENTED_EDGE('',*,*,#445,.F.);
#482 = ORIENTED_EDGE('',*,*,#483,.F.);
#483 = EDGE_CURVE('',#394,#417,#484,.T.);
#484 = SURFACE_CURVE('',#485,(#489,#496),.PCURVE_S1.);
#485 = LINE('',#486,#487);
#486 = CARTESIAN_POINT('',(2.440806305255,39.,-0.540799944735));
#487 = VECTOR('',#488,1.);
#488 = DIRECTION('',(-0.412737530946,0.,0.910850004418));
#489 = PCURVE('',#123,#490);
#490 = DEFINITIONAL_REPRESENTATION('',(#491),#495);
#491 = LINE('',#492,#493);
#492 = CARTESIAN_POINT('',(0.,0.));
#493 = VECTOR('',#494,1.);
#494 = DIRECTION('',(1.,0.));
#495 = ( GEOMETRIC_REPRESENTATION_CONTEXT(2) 
PARAMETRIC_REPRESENTATION_CONTEXT() REPRESENTATION_CONTEXT('2D SPACE',''
  ) );
#496 = PCURVE('',#433,#497);
#497 = DEFINITIONAL_REPRESENTATION('',(#498),#502);
#498 = LINE('',#499,#500);
#499 = CARTESIAN_POINT('',(-2.,-1.5));
#500 = VECTOR('',#501,1.);
#501 = DIRECTION('',(0.,1.));
#502 = ( GEOMETRIC_REPRESENTATION_CONTEXT(2) 
PARAMETRIC_REPRESENTATION_CONTEXT() REPRESENTATION_CONTEXT('2D SPACE',''
  ) );
#503 = ORIENTED_EDGE('',*,*,#393,.T.);
#504 = ADVANCED_FACE('',(#505),#433,.T.);
#505 = FACE_BOUND('',#506,.T.);
#506 = EDGE_LOOP('',(#507,#508));
#507 = ORIENTED_EDGE('',*,*,#416,.T.);
#508 = ORIENTED_EDGE('',*,*,#483,.T.);
#509 = ( GEOMETRIC_REPRESENTATION_CONTEXT(3) 
GLOBAL_UNCERTAINTY_ASSIGNED_CONTEXT((#513)) GLOBAL_UNIT_ASSIGNED_CONTEXT
((#510,#511,#512)) REPRESENTATION_CONTEXT('Context #1',
  '3D Context with UNIT and UNCERTAINTY') );
#510 = ( LENGTH_UNIT() NAMED_UNIT(*) SI_UNIT(.MILLI.,.METRE.) );
#511 = ( NAMED_UNIT(*) PLANE_ANGLE_UNIT() SI_UNIT($,.RADIAN.) );
#512 = ( NAMED_UNIT(*) SI_UNIT($,.STERADIAN.) SOLID_ANGLE_UNIT() );
#513 = UNCERTAINTY_MEASURE_WITH_UNIT(LENGTH_MEASURE(1.E-07),#510,
  'distance_accuracy_value','confusion accuracy');
#514 = PRODUCT_RELATED_PRODUCT_CATEGORY('part',$,(#7));
ENDSEC;
END-ISO-10303-21;
