ISO-10303-21;
HEADER;
FILE_DESCRIPTION(('Open CASCADE Model'),'2;1');
FILE_NAME('Open CASCADE Shape Model','2026-08-13T22:17:05',('Author'),(
    'Open CASCADE'),'Open CASCADE STEP processor 7.9','Open CASCADE 7.9'
  ,'Unknown');
FILE_SCHEMA(('AUTOMOTIVE_DESIGN { 1 0 10303 214 1 1 1 1 }'));
ENDSEC;
DATA;
#1 = APPLICATION_PROTOCOL_DEFINITION('international standard',
  'automotive_design',2000,#2);
#2 = APPLICATION_CONTEXT(
  'core data for automotive mechanical design processes');
#3 = SHAPE_DEFINITION_REPRESENTATION(#4,#10);
#4 = PRODUCT_DEFINITION_SHAPE('','',#5);
#5 = PRODUCT_DEFINITION('design','',#6,#9);
#6 = PRODUCT_DEFINITION_FORMATION('','',#7);
#7 = PRODUCT('Open CASCADE STEP translator 7.9 338',
  'Open CASCADE STEP translator 7.9 338','',(#8));
#8 = PRODUCT_CONTEXT('',#2,'mechanical');
#9 = PRODUCT_DEFINITION_CONTEXT('part definition',#2,'design');
#10 = ADVANCED_BREP_SHAPE_REPRESENTATION('',(#11,#15),#1157);
#11 = AXIS2_PLACEMENT_3D('',#12,#13,#14);
#12 = CARTESIAN_POINT('',(0.,0.,0.));
#13 = DIRECTION('',(0.,0.,1.));
#14 = DIRECTION('',(1.,0.,-0.));
#15 = MANIFOLD_SOLID_BREP('',#16);
#16 = CLOSED_SHELL('',(#17,#592,#640,#688,#736,#796,#874,#926,#999,#1048
    ,#1054,#1096,#1130));
#17 = ADVANCED_FACE('',(#18),#33,.F.);
#18 = FACE_BOUND('',#19,.F.);
#19 = EDGE_LOOP('',(#20,#60,#164,#197,#263,#296,#356,#380,#409,#431,#432
    ,#495,#528));
#20 = ORIENTED_EDGE('',*,*,#21,.F.);
#21 = EDGE_CURVE('',#22,#24,#26,.T.);
#22 = VERTEX_POINT('',#23);
#23 = CARTESIAN_POINT('',(58.524100289998,61.37602932607,-8.5));
#24 = VERTEX_POINT('',#25);
#25 = CARTESIAN_POINT('',(56.856675984954,62.324095830954,-8.5));
#26 = SURFACE_CURVE('',#27,(#32,#44),.PCURVE_S1.);
#27 = CIRCLE('',#28,11.);
#28 = AXIS2_PLACEMENT_3D('',#29,#30,#31);
#29 = CARTESIAN_POINT('',(52.274100289998,52.324095830954,-8.5));
#30 = DIRECTION('',(0.,0.,1.));
#31 = DIRECTION('',(1.,0.,-0.));
#32 = PCURVE('',#33,#38);
#33 = TOROIDAL_SURFACE('',#34,11.,7.);
#34 = AXIS2_PLACEMENT_3D('',#35,#36,#37);
#35 = CARTESIAN_POINT('',(52.274100289998,52.324095830954,-1.5));
#36 = DIRECTION('',(0.,0.,1.));
#37 = DIRECTION('',(1.,0.,-0.));
#38 = DEFINITIONAL_REPRESENTATION('',(#39),#43);
#39 = LINE('',#40,#41);
#40 = CARTESIAN_POINT('',(-2.22044604925E-16,4.712388980385));
#41 = VECTOR('',#42,1.);
#42 = DIRECTION('',(1.,0.));
#43 = ( GEOMETRIC_REPRESENTATION_CONTEXT(2) 
PARAMETRIC_REPRESENTATION_CONTEXT() REPRESENTATION_CONTEXT('2D SPACE',''
  ) );
#44 = PCURVE('',#45,#50);
#45 = PLANE('',#46);
#46 = AXIS2_PLACEMENT_3D('',#47,#48,#49);
#47 = CARTESIAN_POINT('',(52.274100289998,52.324095830954,-8.5));
#48 = DIRECTION('',(0.,0.,-1.));
#49 = DIRECTION('',(1.,0.,0.));
#50 = DEFINITIONAL_REPRESENTATION('',(#51),#59);
#51 = ( BOUNDED_CURVE() B_SPLINE_CURVE(2,(#52,#53,#54,#55,#56,#57,#58),
.UNSPECIFIED.,.T.,.F.) B_SPLINE_CURVE_WITH_KNOTS((1,2,2,2,2,1),(
    -2.094395102393,0.,2.094395102393,4.188790204786,6.28318530718,
8.377580409573),.UNSPECIFIED.) CURVE() GEOMETRIC_REPRESENTATION_ITEM() 
RATIONAL_B_SPLINE_CURVE((1.,0.5,1.,0.5,1.,0.5,1.)) REPRESENTATION_ITEM(
  '') );
#52 = CARTESIAN_POINT('',(11.,0.));
#53 = CARTESIAN_POINT('',(11.,-19.05255888325));
#54 = CARTESIAN_POINT('',(-5.5,-9.526279441629));
#55 = CARTESIAN_POINT('',(-22.,-2.694222958124E-15));
#56 = CARTESIAN_POINT('',(-5.5,9.526279441629));
#57 = CARTESIAN_POINT('',(11.,19.052558883258));
#58 = CARTESIAN_POINT('',(11.,0.));
#59 = ( GEOMETRIC_REPRESENTATION_CONTEXT(2) 
PARAMETRIC_REPRESENTATION_CONTEXT() REPRESENTATION_CONTEXT('2D SPACE',''
  ) );
#60 = ORIENTED_EDGE('',*,*,#61,.F.);
#61 = EDGE_CURVE('',#62,#22,#64,.T.);
#62 = VERTEX_POINT('',#63);
#63 = CARTESIAN_POINT('',(58.524100289998,43.272162335838,-8.5));
#64 = SURFACE_CURVE('',#65,(#85,#136),.PCURVE_S1.);
#65 = B_SPLINE_CURVE_WITH_KNOTS('',3,(#66,#67,#68,#69,#70,#71,#72,#73,
    #74,#75,#76,#77,#78,#79,#80,#81,#82,#83,#84),.UNSPECIFIED.,.F.,.F.,(
    4,2,2,2,2,3,2,2,4),(7.045500049463,7.205713890032,7.3659277306,
    7.64434410621,7.783552294016,7.922760481821,8.479593233043,
    8.639807073611,8.800020914179),.UNSPECIFIED.);
#66 = CARTESIAN_POINT('',(58.524100289998,43.272162335838,-8.5));
#67 = CARTESIAN_POINT('',(58.524100289998,43.806208471065,-8.5));
#68 = CARTESIAN_POINT('',(58.524100289998,44.390528263183,
    -8.455491434384));
#69 = CARTESIAN_POINT('',(58.524100289998,45.547957047617,
    -8.282373627471));
#70 = CARTESIAN_POINT('',(58.524100289998,46.121231176566,
    -8.154870259991));
#71 = CARTESIAN_POINT('',(58.524100289998,47.535150963578,
    -7.782621212895));
#72 = CARTESIAN_POINT('',(58.524100289998,48.495787783961,
    -7.448500445675));
#73 = CARTESIAN_POINT('',(58.524100289998,49.940276579209,
    -7.009508888324));
#74 = CARTESIAN_POINT('',(58.524100289998,50.423807301444,
    -6.876904033743));
#75 = CARTESIAN_POINT('',(58.524100289998,51.383534379499,
    -6.692140560013));
#76 = CARTESIAN_POINT('',(58.524100289998,51.860068538269,
    -6.641740950301));
#77 = CARTESIAN_POINT('',(58.524100289998,52.324095830954,
    -6.641740950301));
#78 = CARTESIAN_POINT('',(58.524100289998,54.180205001692,
    -6.641740950301));
#79 = CARTESIAN_POINT('',(58.524100289998,56.215568504248,
    -7.546339655687));
#80 = CARTESIAN_POINT('',(58.524100289998,58.526960485341,
    -8.154870259991));
#81 = CARTESIAN_POINT('',(58.524100289998,59.10023461429,-8.282373627471
    ));
#82 = CARTESIAN_POINT('',(58.524100289998,60.257663398724,
    -8.455491434384));
#83 = CARTESIAN_POINT('',(58.524100289998,60.841983190842,-8.5));
#84 = CARTESIAN_POINT('',(58.524100289998,61.37602932607,-8.5));
#85 = PCURVE('',#33,#86);
#86 = DEFINITIONAL_REPRESENTATION('',(#87),#135);
#87 = B_SPLINE_CURVE_WITH_KNOTS('',3,(#88,#89,#90,#91,#92,#93,#94,#95,
    #96,#97,#98,#99,#100,#101,#102,#103,#104,#105,#106,#107,#108,#109,
    #110,#111,#112,#113,#114,#115,#116,#117,#118,#119,#120,#121,#122,
    #123,#124,#125,#126,#127,#128,#129,#130,#131,#132,#133,#134),
  .UNSPECIFIED.,.F.,.F.,(4,1,1,1,1,1,1,1,1,1,1,1,1,1,1,1,1,1,1,1,1,1,1,1
    ,1,1,1,1,1,1,1,1,1,1,1,1,1,1,1,1,1,1,1,1,4),(7.045500049463,
    7.085375523661,7.12525099786,7.165126472058,7.205001946256,
    7.244877420454,7.284752894652,7.32462836885,7.364503843048,
    7.404379317246,7.444254791444,7.484130265642,7.52400573984,
    7.563881214038,7.603756688236,7.643632162435,7.683507636633,
    7.723383110831,7.763258585029,7.803134059227,7.843009533425,
    7.882885007623,7.922760481821,7.962635956019,8.002511430217,
    8.042386904415,8.082262378613,8.122137852812,8.16201332701,
    8.201888801208,8.241764275406,8.281639749604,8.321515223802,
    8.361390698,8.401266172198,8.441141646396,8.481017120594,
    8.520892594792,8.56076806899,8.600643543189,8.640519017387,
    8.680394491585,8.720269965783,8.760145439981,8.800020914179),
  .QUASI_UNIFORM_KNOTS.);
#88 = CARTESIAN_POINT('',(-0.966501634002,4.712388980385));
#89 = CARTESIAN_POINT('',(-0.959639379089,4.696762838654));
#90 = CARTESIAN_POINT('',(-0.945171173353,4.665002208572));
#91 = CARTESIAN_POINT('',(-0.921296763803,4.616470374379));
#92 = CARTESIAN_POINT('',(-0.895288803611,4.567689081379));
#93 = CARTESIAN_POINT('',(-0.867257370748,4.519274281656));
#94 = CARTESIAN_POINT('',(-0.837368950552,4.471777660236));
#95 = CARTESIAN_POINT('',(-0.805883001608,4.425797279478));
#96 = CARTESIAN_POINT('',(-0.773035519964,4.381759468702));
#97 = CARTESIAN_POINT('',(-0.739648307489,4.34062855747));
#98 = CARTESIAN_POINT('',(-0.704909241155,4.301152582362));
#99 = CARTESIAN_POINT('',(-0.666908820174,4.261511255718));
#100 = CARTESIAN_POINT('',(-0.626000085911,4.222667970391));
#101 = CARTESIAN_POINT('',(-0.58197098667,4.184881693451));
#102 = CARTESIAN_POINT('',(-0.534818777002,4.148622266366));
#103 = CARTESIAN_POINT('',(-0.484556667533,4.114316204252));
#104 = CARTESIAN_POINT('',(-0.431308561624,4.082376033062));
#105 = CARTESIAN_POINT('',(-0.375221213314,4.053268453969));
#106 = CARTESIAN_POINT('',(-0.316488447863,4.027581770262));
#107 = CARTESIAN_POINT('',(-0.255493879063,4.005798358604));
#108 = CARTESIAN_POINT('',(-0.192692613145,3.988416702129));
#109 = CARTESIAN_POINT('',(-0.128678279828,3.975860977042));
#110 = CARTESIAN_POINT('',(-6.408847336443E-02,3.968272721669));
#111 = CARTESIAN_POINT('',(8.608311169526E-06,3.965701891041));
#112 = CARTESIAN_POINT('',(6.405404011979E-02,3.968357497069));
#113 = CARTESIAN_POINT('',(0.128550917996,3.976217644758));
#114 = CARTESIAN_POINT('',(0.192489826482,3.988967806879));
#115 = CARTESIAN_POINT('',(0.255299375998,4.006309970263));
#116 = CARTESIAN_POINT('',(0.316368293105,4.027887822145));
#117 = CARTESIAN_POINT('',(0.375207912547,4.053312186757));
#118 = CARTESIAN_POINT('',(0.431429554676,4.082159389764));
#119 = CARTESIAN_POINT('',(0.484757111772,4.113977971962));
#120 = CARTESIAN_POINT('',(0.535019291864,4.148297352409));
#121 = CARTESIAN_POINT('',(0.582134001828,4.184633327527));
#122 = CARTESIAN_POINT('',(0.626106707219,4.222518357859));
#123 = CARTESIAN_POINT('',(0.666960040757,4.26144759843));
#124 = CARTESIAN_POINT('',(0.704918383813,4.301143795058));
#125 = CARTESIAN_POINT('',(0.739645857721,4.340630912021));
#126 = CARTESIAN_POINT('',(0.773036176377,4.381758837802));
#127 = CARTESIAN_POINT('',(0.805882825723,4.425797448528));
#128 = CARTESIAN_POINT('',(0.83736899768,4.471777614939));
#129 = CARTESIAN_POINT('',(0.867257358119,4.519274293794));
#130 = CARTESIAN_POINT('',(0.895288806996,4.567689078126));
#131 = CARTESIAN_POINT('',(0.921296762891,4.616470375255));
#132 = CARTESIAN_POINT('',(0.945171173614,4.665002208322));
#133 = CARTESIAN_POINT('',(0.959639379089,4.696762838654));
#134 = CARTESIAN_POINT('',(0.966501634002,4.712388980385));
#135 = ( GEOMETRIC_REPRESENTATION_CONTEXT(2) 
PARAMETRIC_REPRESENTATION_CONTEXT() REPRESENTATION_CONTEXT('2D SPACE',''
  ) );
#136 = PCURVE('',#137,#142);
#137 = PLANE('',#138);
#138 = AXIS2_PLACEMENT_3D('',#139,#140,#141);
#139 = CARTESIAN_POINT('',(58.524100289998,42.324095830954,-11.));
#140 = DIRECTION('',(1.,0.,0.));
#141 = DIRECTION('',(-0.,1.,0.));
#142 = DEFINITIONAL_REPRESENTATION('',(#143),#163);
#143 = B_SPLINE_CURVE_WITH_KNOTS('',3,(#144,#145,#146,#147,#148,#149,
    #150,#151,#152,#153,#154,#155,#156,#157,#158,#159,#160,#161,#162),
  .UNSPECIFIED.,.F.,.F.,(4,2,2,2,2,3,2,2,4),(7.045500049463,
    7.205713890032,7.3659277306,7.64434410621,7.783552294016,
    7.922760481821,8.479593233043,8.639807073611,8.800020914179),
  .UNSPECIFIED.);
#144 = CARTESIAN_POINT('',(0.948066504884,2.5));
#145 = CARTESIAN_POINT('',(1.482112640111,2.5));
#146 = CARTESIAN_POINT('',(2.06643243223,2.544508565616));
#147 = CARTESIAN_POINT('',(3.223861216663,2.717626372529));
#148 = CARTESIAN_POINT('',(3.797135345613,2.845129740009));
#149 = CARTESIAN_POINT('',(5.211055132625,3.217378787105));
#150 = CARTESIAN_POINT('',(6.171691953007,3.551499554325));
#151 = CARTESIAN_POINT('',(7.616180748255,3.990491111676));
#152 = CARTESIAN_POINT('',(8.09971147049,4.123095966257));
#153 = CARTESIAN_POINT('',(9.059438548546,4.307859439987));
#154 = CARTESIAN_POINT('',(9.535972707316,4.358259049699));
#155 = CARTESIAN_POINT('',(10.,4.358259049699));
#156 = CARTESIAN_POINT('',(11.856109170738,4.358259049699));
#157 = CARTESIAN_POINT('',(13.891472673295,3.453660344313));
#158 = CARTESIAN_POINT('',(16.202864654387,2.845129740009));
#159 = CARTESIAN_POINT('',(16.776138783337,2.717626372529));
#160 = CARTESIAN_POINT('',(17.93356756777,2.544508565616));
#161 = CARTESIAN_POINT('',(18.517887359889,2.5));
#162 = CARTESIAN_POINT('',(19.051933495116,2.5));
#163 = ( GEOMETRIC_REPRESENTATION_CONTEXT(2) 
PARAMETRIC_REPRESENTATION_CONTEXT() REPRESENTATION_CONTEXT('2D SPACE',''
  ) );
#164 = ORIENTED_EDGE('',*,*,#165,.F.);
#165 = EDGE_CURVE('',#166,#62,#168,.T.);
#166 = VERTEX_POINT('',#167);
#167 = CARTESIAN_POINT('',(56.856675984954,42.324095830954,-8.5));
#168 = SURFACE_CURVE('',#169,(#174,#181),.PCURVE_S1.);
#169 = CIRCLE('',#170,11.);
#170 = AXIS2_PLACEMENT_3D('',#171,#172,#173);
#171 = CARTESIAN_POINT('',(52.274100289998,52.324095830954,-8.5));
#172 = DIRECTION('',(0.,0.,1.));
#173 = DIRECTION('',(1.,0.,-0.));
#174 = PCURVE('',#33,#175);
#175 = DEFINITIONAL_REPRESENTATION('',(#176),#180);
#176 = LINE('',#177,#178);
#177 = CARTESIAN_POINT('',(-6.28318530718,4.712388980385));
#178 = VECTOR('',#179,1.);
#179 = DIRECTION('',(1.,0.));
#180 = ( GEOMETRIC_REPRESENTATION_CONTEXT(2) 
PARAMETRIC_REPRESENTATION_CONTEXT() REPRESENTATION_CONTEXT('2D SPACE',''
  ) );
#181 = PCURVE('',#182,#187);
#182 = PLANE('',#183);
#183 = AXIS2_PLACEMENT_3D('',#184,#185,#186);
#184 = CARTESIAN_POINT('',(52.274100289998,52.324095830954,-8.5));
#185 = DIRECTION('',(0.,0.,-1.));
#186 = DIRECTION('',(1.,0.,0.));
#187 = DEFINITIONAL_REPRESENTATION('',(#188),#196);
#188 = ( BOUNDED_CURVE() B_SPLINE_CURVE(2,(#189,#190,#191,#192,#193,#194
,#195),.UNSPECIFIED.,.T.,.F.) B_SPLINE_CURVE_WITH_KNOTS((1,2,2,2,2,1),(
    -2.094395102393,0.,2.094395102393,4.188790204786,6.28318530718,
8.377580409573),.UNSPECIFIED.) CURVE() GEOMETRIC_REPRESENTATION_ITEM() 
RATIONAL_B_SPLINE_CURVE((1.,0.5,1.,0.5,1.,0.5,1.)) REPRESENTATION_ITEM(
  '') );
#189 = CARTESIAN_POINT('',(11.,0.));
#190 = CARTESIAN_POINT('',(11.,-19.05255888325));
#191 = CARTESIAN_POINT('',(-5.5,-9.526279441629));
#192 = CARTESIAN_POINT('',(-22.,-2.694222958124E-15));
#193 = CARTESIAN_POINT('',(-5.5,9.526279441629));
#194 = CARTESIAN_POINT('',(11.,19.052558883258));
#195 = CARTESIAN_POINT('',(11.,0.));
#196 = ( GEOMETRIC_REPRESENTATION_CONTEXT(2) 
PARAMETRIC_REPRESENTATION_CONTEXT() REPRESENTATION_CONTEXT('2D SPACE',''
  ) );
#197 = ORIENTED_EDGE('',*,*,#198,.F.);
#198 = EDGE_CURVE('',#199,#166,#201,.T.);
#199 = VERTEX_POINT('',#200);
#200 = CARTESIAN_POINT('',(47.691524595042,42.324095830954,-8.5));
#201 = SURFACE_CURVE('',#202,(#214,#243),.PCURVE_S1.);
#202 = B_SPLINE_CURVE_WITH_KNOTS('',3,(#203,#204,#205,#206,#207,#208,
    #209,#210,#211,#212,#213),.UNSPECIFIED.,.F.,.F.,(4,2,3,2,4),(
    6.579195557426,6.709077769569,7.008890625279,7.308703480989,
    7.438585693133),.UNSPECIFIED.);
#203 = CARTESIAN_POINT('',(47.691524595042,42.324095830954,-8.5));
#204 = CARTESIAN_POINT('',(48.124465302188,42.324095830954,-8.5));
#205 = CARTESIAN_POINT('',(48.64392447929,42.324095830954,
    -8.491491896502));
#206 = CARTESIAN_POINT('',(50.075899102507,42.324095830954,
    -8.460181195586));
#207 = CARTESIAN_POINT('',(51.274724104298,42.324095830954,
    -8.428203230275));
#208 = CARTESIAN_POINT('',(52.274100289998,42.324095830954,
    -8.428203230275));
#209 = CARTESIAN_POINT('',(53.273476475698,42.324095830954,
    -8.428203230275));
#210 = CARTESIAN_POINT('',(54.472301477489,42.324095830954,
    -8.460181195586));
#211 = CARTESIAN_POINT('',(55.904276100706,42.324095830954,
    -8.491491896502));
#212 = CARTESIAN_POINT('',(56.423735277808,42.324095830954,-8.5));
#213 = CARTESIAN_POINT('',(56.856675984954,42.324095830954,-8.5));
#214 = PCURVE('',#33,#215);
#215 = DEFINITIONAL_REPRESENTATION('',(#216),#242);
#216 = B_SPLINE_CURVE_WITH_KNOTS('',3,(#217,#218,#219,#220,#221,#222,
    #223,#224,#225,#226,#227,#228,#229,#230,#231,#232,#233,#234,#235,
    #236,#237,#238,#239,#240,#241),.UNSPECIFIED.,.F.,.F.,(4,1,1,1,1,1,1,
    1,1,1,1,1,1,1,1,1,1,1,1,1,1,1,4),(6.579195557426,6.618258745412,
    6.657321933399,6.696385121386,6.735448309372,6.774511497359,
    6.813574685346,6.852637873332,6.891701061319,6.930764249306,
    6.969827437293,7.008890625279,7.047953813266,7.087017001253,
    7.126080189239,7.165143377226,7.204206565213,7.243269753199,
    7.282332941186,7.321396129173,7.360459317159,7.399522505146,
    7.438585693133),.QUASI_UNIFORM_KNOTS.);
#217 = CARTESIAN_POINT('',(-2.000495992946,4.712388980385));
#218 = CARTESIAN_POINT('',(-1.9897599401,4.704597206841));
#219 = CARTESIAN_POINT('',(-1.966582278886,4.688787633202));
#220 = CARTESIAN_POINT('',(-1.929173814069,4.665955054859));
#221 = CARTESIAN_POINT('',(-1.89153680992,4.645860080063));
#222 = CARTESIAN_POINT('',(-1.856299109755,4.629322671427));
#223 = CARTESIAN_POINT('',(-1.817811066769,4.613666897408));
#224 = CARTESIAN_POINT('',(-1.777702600751,4.600010866383));
#225 = CARTESIAN_POINT('',(-1.736238708858,4.588574116403));
#226 = CARTESIAN_POINT('',(-1.694110335514,4.579665529886));
#227 = CARTESIAN_POINT('',(-1.652010453462,4.573403921179));
#228 = CARTESIAN_POINT('',(-1.610446834347,4.569785998512));
#229 = CARTESIAN_POINT('',(-1.570796326795,4.568669117963));
#230 = CARTESIAN_POINT('',(-1.531145819242,4.569785998512));
#231 = CARTESIAN_POINT('',(-1.489582200128,4.573403921179));
#232 = CARTESIAN_POINT('',(-1.447482318076,4.579665529886));
#233 = CARTESIAN_POINT('',(-1.405353944731,4.588574116403));
#234 = CARTESIAN_POINT('',(-1.363890052839,4.600010866383));
#235 = CARTESIAN_POINT('',(-1.323781586821,4.613666897408));
#236 = CARTESIAN_POINT('',(-1.285293543835,4.629322671427));
#237 = CARTESIAN_POINT('',(-1.25005584367,4.645860080063));
#238 = CARTESIAN_POINT('',(-1.212418839521,4.665955054859));
#239 = CARTESIAN_POINT('',(-1.175010374703,4.688787633202));
#240 = CARTESIAN_POINT('',(-1.15183271349,4.704597206841));
#241 = CARTESIAN_POINT('',(-1.141096660643,4.712388980385));
#242 = ( GEOMETRIC_REPRESENTATION_CONTEXT(2) 
PARAMETRIC_REPRESENTATION_CONTEXT() REPRESENTATION_CONTEXT('2D SPACE',''
  ) );
#243 = PCURVE('',#244,#249);
#244 = PLANE('',#245);
#245 = AXIS2_PLACEMENT_3D('',#246,#247,#248);
#246 = CARTESIAN_POINT('',(46.024100289998,42.324095830954,-11.));
#247 = DIRECTION('',(0.,-1.,0.));
#248 = DIRECTION('',(1.,0.,0.));
#249 = DEFINITIONAL_REPRESENTATION('',(#250),#262);
#250 = B_SPLINE_CURVE_WITH_KNOTS('',3,(#251,#252,#253,#254,#255,#256,
    #257,#258,#259,#260,#261),.UNSPECIFIED.,.F.,.F.,(4,2,3,2,4),(
    6.579195557426,6.709077769569,7.008890625279,7.308703480989,
    7.438585693133),.UNSPECIFIED.);
#251 = CARTESIAN_POINT('',(1.667424305044,2.5));
#252 = CARTESIAN_POINT('',(2.100365012189,2.5));
#253 = CARTESIAN_POINT('',(2.619824189292,2.508508103498));
#254 = CARTESIAN_POINT('',(4.051798812509,2.539818804414));
#255 = CARTESIAN_POINT('',(5.2506238143,2.571796769725));
#256 = CARTESIAN_POINT('',(6.25,2.571796769725));
#257 = CARTESIAN_POINT('',(7.2493761857,2.571796769725));
#258 = CARTESIAN_POINT('',(8.448201187491,2.539818804414));
#259 = CARTESIAN_POINT('',(9.880175810708,2.508508103498));
#260 = CARTESIAN_POINT('',(10.39963498781,2.5));
#261 = CARTESIAN_POINT('',(10.832575694956,2.5));
#262 = ( GEOMETRIC_REPRESENTATION_CONTEXT(2) 
PARAMETRIC_REPRESENTATION_CONTEXT() REPRESENTATION_CONTEXT('2D SPACE',''
  ) );
#263 = ORIENTED_EDGE('',*,*,#264,.F.);
#264 = EDGE_CURVE('',#265,#199,#267,.T.);
#265 = VERTEX_POINT('',#266);
#266 = CARTESIAN_POINT('',(46.024100289998,43.272162335838,-8.5));
#267 = SURFACE_CURVE('',#268,(#273,#280),.PCURVE_S1.);
#268 = CIRCLE('',#269,11.);
#269 = AXIS2_PLACEMENT_3D('',#270,#271,#272);
#270 = CARTESIAN_POINT('',(52.274100289998,52.324095830954,-8.5));
#271 = DIRECTION('',(0.,0.,1.));
#272 = DIRECTION('',(1.,0.,-0.));
#273 = PCURVE('',#33,#274);
#274 = DEFINITIONAL_REPRESENTATION('',(#275),#279);
#275 = LINE('',#276,#277);
#276 = CARTESIAN_POINT('',(-6.28318530718,4.712388980385));
#277 = VECTOR('',#278,1.);
#278 = DIRECTION('',(1.,0.));
#279 = ( GEOMETRIC_REPRESENTATION_CONTEXT(2) 
PARAMETRIC_REPRESENTATION_CONTEXT() REPRESENTATION_CONTEXT('2D SPACE',''
  ) );
#280 = PCURVE('',#281,#286);
#281 = PLANE('',#282);
#282 = AXIS2_PLACEMENT_3D('',#283,#284,#285);
#283 = CARTESIAN_POINT('',(52.274100289998,52.324095830954,-8.5));
#284 = DIRECTION('',(0.,0.,-1.));
#285 = DIRECTION('',(1.,0.,0.));
#286 = DEFINITIONAL_REPRESENTATION('',(#287),#295);
#287 = ( BOUNDED_CURVE() B_SPLINE_CURVE(2,(#288,#289,#290,#291,#292,#293
,#294),.UNSPECIFIED.,.T.,.F.) B_SPLINE_CURVE_WITH_KNOTS((1,2,2,2,2,1),(
    -2.094395102393,0.,2.094395102393,4.188790204786,6.28318530718,
8.377580409573),.UNSPECIFIED.) CURVE() GEOMETRIC_REPRESENTATION_ITEM() 
RATIONAL_B_SPLINE_CURVE((1.,0.5,1.,0.5,1.,0.5,1.)) REPRESENTATION_ITEM(
  '') );
#288 = CARTESIAN_POINT('',(11.,0.));
#289 = CARTESIAN_POINT('',(11.,-19.05255888325));
#290 = CARTESIAN_POINT('',(-5.5,-9.526279441629));
#291 = CARTESIAN_POINT('',(-22.,-2.694222958124E-15));
#292 = CARTESIAN_POINT('',(-5.5,9.526279441629));
#293 = CARTESIAN_POINT('',(11.,19.052558883258));
#294 = CARTESIAN_POINT('',(11.,0.));
#295 = ( GEOMETRIC_REPRESENTATION_CONTEXT(2) 
PARAMETRIC_REPRESENTATION_CONTEXT() REPRESENTATION_CONTEXT('2D SPACE',''
  ) );
#296 = ORIENTED_EDGE('',*,*,#297,.F.);
#297 = EDGE_CURVE('',#298,#265,#300,.T.);
#298 = VERTEX_POINT('',#299);
#299 = CARTESIAN_POINT('',(46.024100289998,52.324095830954,
    -6.641740950301));
#300 = SURFACE_CURVE('',#301,(#310,#339),.PCURVE_S1.);
#301 = B_SPLINE_CURVE_WITH_KNOTS('',3,(#302,#303,#304,#305,#306,#307,
    #308,#309),.UNSPECIFIED.,.F.,.F.,(4,2,2,4),(7.922760481821,
    8.479593233043,8.639807073611,8.800020914179),.UNSPECIFIED.);
#302 = CARTESIAN_POINT('',(46.024100289998,52.324095830954,
    -6.641740950301));
#303 = CARTESIAN_POINT('',(46.024100289998,50.467986660216,
    -6.641740950301));
#304 = CARTESIAN_POINT('',(46.024100289998,48.432623157659,
    -7.546339655687));
#305 = CARTESIAN_POINT('',(46.024100289998,46.121231176566,
    -8.154870259991));
#306 = CARTESIAN_POINT('',(46.024100289998,45.547957047617,
    -8.282373627471));
#307 = CARTESIAN_POINT('',(46.024100289998,44.390528263183,
    -8.455491434384));
#308 = CARTESIAN_POINT('',(46.024100289998,43.806208471065,-8.5));
#309 = CARTESIAN_POINT('',(46.024100289998,43.272162335838,-8.5));
#310 = PCURVE('',#33,#311);
#311 = DEFINITIONAL_REPRESENTATION('',(#312),#338);
#312 = B_SPLINE_CURVE_WITH_KNOTS('',3,(#313,#314,#315,#316,#317,#318,
    #319,#320,#321,#322,#323,#324,#325,#326,#327,#328,#329,#330,#331,
    #332,#333,#334,#335,#336,#337),.UNSPECIFIED.,.F.,.F.,(4,1,1,1,1,1,1,
    1,1,1,1,1,1,1,1,1,1,1,1,1,1,1,4),(7.922760481821,7.962635956019,
    8.002511430217,8.042386904415,8.082262378613,8.122137852812,
    8.16201332701,8.201888801208,8.241764275406,8.281639749604,
    8.321515223802,8.361390698,8.401266172198,8.441141646396,
    8.481017120594,8.520892594792,8.56076806899,8.600643543189,
    8.640519017387,8.680394491585,8.720269965783,8.760145439981,
    8.800020914179),.QUASI_UNIFORM_KNOTS.);
#313 = CARTESIAN_POINT('',(-3.14159265359,3.966572963817));
#314 = CARTESIAN_POINT('',(-3.120325489565,3.966568431962));
#315 = CARTESIAN_POINT('',(-3.077496880731,3.96836615771));
#316 = CARTESIAN_POINT('',(-3.013052917847,3.976215324146));
#317 = CARTESIAN_POINT('',(-2.949099830832,3.988968428685));
#318 = CARTESIAN_POINT('',(-2.886294080441,4.00630980365));
#319 = CARTESIAN_POINT('',(-2.825224145362,4.027887866789));
#320 = CARTESIAN_POINT('',(-2.766384798684,4.053312174795));
#321 = CARTESIAN_POINT('',(-2.710163083468,4.08215939297));
#322 = CARTESIAN_POINT('',(-2.656835545956,4.113977971103));
#323 = CARTESIAN_POINT('',(-2.606573360617,4.148297352639));
#324 = CARTESIAN_POINT('',(-2.559458652059,4.184633327465));
#325 = CARTESIAN_POINT('',(-2.515485946291,4.222518357876));
#326 = CARTESIAN_POINT('',(-2.474632612854,4.261447598426));
#327 = CARTESIAN_POINT('',(-2.436674269771,4.301143795059));
#328 = CARTESIAN_POINT('',(-2.40194679587,4.34063091202));
#329 = CARTESIAN_POINT('',(-2.368556477212,4.381758837802));
#330 = CARTESIAN_POINT('',(-2.335709827867,4.425797448527));
#331 = CARTESIAN_POINT('',(-2.30422365591,4.471777614939));
#332 = CARTESIAN_POINT('',(-2.27433529547,4.519274293794));
#333 = CARTESIAN_POINT('',(-2.246303846594,4.567689078126));
#334 = CARTESIAN_POINT('',(-2.220295890698,4.616470375255));
#335 = CARTESIAN_POINT('',(-2.196421479976,4.665002208322));
#336 = CARTESIAN_POINT('',(-2.181953274501,4.696762838654));
#337 = CARTESIAN_POINT('',(-2.175091019588,4.712388980385));
#338 = ( GEOMETRIC_REPRESENTATION_CONTEXT(2) 
PARAMETRIC_REPRESENTATION_CONTEXT() REPRESENTATION_CONTEXT('2D SPACE',''
  ) );
#339 = PCURVE('',#340,#345);
#340 = PLANE('',#341);
#341 = AXIS2_PLACEMENT_3D('',#342,#343,#344);
#342 = CARTESIAN_POINT('',(46.024100289998,62.324095830954,-11.));
#343 = DIRECTION('',(-1.,0.,0.));
#344 = DIRECTION('',(0.,-1.,0.));
#345 = DEFINITIONAL_REPRESENTATION('',(#346),#355);
#346 = B_SPLINE_CURVE_WITH_KNOTS('',3,(#347,#348,#349,#350,#351,#352,
    #353,#354),.UNSPECIFIED.,.F.,.F.,(4,2,2,4),(7.922760481821,
    8.479593233043,8.639807073611,8.800020914179),.UNSPECIFIED.);
#347 = CARTESIAN_POINT('',(10.,4.358259049699));
#348 = CARTESIAN_POINT('',(11.856109170738,4.358259049699));
#349 = CARTESIAN_POINT('',(13.891472673295,3.453660344313));
#350 = CARTESIAN_POINT('',(16.202864654387,2.845129740009));
#351 = CARTESIAN_POINT('',(16.776138783337,2.717626372529));
#352 = CARTESIAN_POINT('',(17.93356756777,2.544508565616));
#353 = CARTESIAN_POINT('',(18.517887359889,2.5));
#354 = CARTESIAN_POINT('',(19.051933495116,2.5));
#355 = ( GEOMETRIC_REPRESENTATION_CONTEXT(2) 
PARAMETRIC_REPRESENTATION_CONTEXT() REPRESENTATION_CONTEXT('2D SPACE',''
  ) );
#356 = ORIENTED_EDGE('',*,*,#357,.T.);
#357 = EDGE_CURVE('',#298,#358,#360,.T.);
#358 = VERTEX_POINT('',#359);
#359 = CARTESIAN_POINT('',(48.274100289998,52.324095830954,-1.5));
#360 = SEAM_CURVE('',#361,(#366,#373),.PCURVE_S1.);
#361 = CIRCLE('',#362,7.);
#362 = AXIS2_PLACEMENT_3D('',#363,#364,#365);
#363 = CARTESIAN_POINT('',(41.274100289998,52.324095830954,-1.5));
#364 = DIRECTION('',(0.,-1.,0.));
#365 = DIRECTION('',(-1.,0.,0.));
#366 = PCURVE('',#33,#367);
#367 = DEFINITIONAL_REPRESENTATION('',(#368),#372);
#368 = LINE('',#369,#370);
#369 = CARTESIAN_POINT('',(-3.14159265359,6.28318530718));
#370 = VECTOR('',#371,1.);
#371 = DIRECTION('',(0.,-1.));
#372 = ( GEOMETRIC_REPRESENTATION_CONTEXT(2) 
PARAMETRIC_REPRESENTATION_CONTEXT() REPRESENTATION_CONTEXT('2D SPACE',''
  ) );
#373 = PCURVE('',#33,#374);
#374 = DEFINITIONAL_REPRESENTATION('',(#375),#379);
#375 = LINE('',#376,#377);
#376 = CARTESIAN_POINT('',(3.14159265359,6.28318530718));
#377 = VECTOR('',#378,1.);
#378 = DIRECTION('',(0.,-1.));
#379 = ( GEOMETRIC_REPRESENTATION_CONTEXT(2) 
PARAMETRIC_REPRESENTATION_CONTEXT() REPRESENTATION_CONTEXT('2D SPACE',''
  ) );
#380 = ORIENTED_EDGE('',*,*,#381,.F.);
#381 = EDGE_CURVE('',#382,#358,#384,.T.);
#382 = VERTEX_POINT('',#383);
#383 = CARTESIAN_POINT('',(56.274100289998,52.324095830954,-1.5));
#384 = SURFACE_CURVE('',#385,(#390,#397),.PCURVE_S1.);
#385 = CIRCLE('',#386,4.);
#386 = AXIS2_PLACEMENT_3D('',#387,#388,#389);
#387 = CARTESIAN_POINT('',(52.274100289998,52.324095830954,-1.5));
#388 = DIRECTION('',(0.,0.,-1.));
#389 = DIRECTION('',(1.,0.,0.));
#390 = PCURVE('',#33,#391);
#391 = DEFINITIONAL_REPRESENTATION('',(#392),#396);
#392 = LINE('',#393,#394);
#393 = CARTESIAN_POINT('',(0.,3.14159265359));
#394 = VECTOR('',#395,1.);
#395 = DIRECTION('',(-1.,0.));
#396 = ( GEOMETRIC_REPRESENTATION_CONTEXT(2) 
PARAMETRIC_REPRESENTATION_CONTEXT() REPRESENTATION_CONTEXT('2D SPACE',''
  ) );
#397 = PCURVE('',#398,#403);
#398 = CYLINDRICAL_SURFACE('',#399,4.);
#399 = AXIS2_PLACEMENT_3D('',#400,#401,#402);
#400 = CARTESIAN_POINT('',(52.274100289998,52.324095830954,-25.));
#401 = DIRECTION('',(0.,0.,1.));
#402 = DIRECTION('',(-1.,0.,0.));
#403 = DEFINITIONAL_REPRESENTATION('',(#404),#408);
#404 = LINE('',#405,#406);
#405 = CARTESIAN_POINT('',(3.14159265359,23.5));
#406 = VECTOR('',#407,1.);
#407 = DIRECTION('',(-1.,0.));
#408 = ( GEOMETRIC_REPRESENTATION_CONTEXT(2) 
PARAMETRIC_REPRESENTATION_CONTEXT() REPRESENTATION_CONTEXT('2D SPACE',''
  ) );
#409 = ORIENTED_EDGE('',*,*,#410,.F.);
#410 = EDGE_CURVE('',#358,#382,#411,.T.);
#411 = SURFACE_CURVE('',#412,(#417,#424),.PCURVE_S1.);
#412 = CIRCLE('',#413,4.);
#413 = AXIS2_PLACEMENT_3D('',#414,#415,#416);
#414 = CARTESIAN_POINT('',(52.274100289998,52.324095830954,-1.5));
#415 = DIRECTION('',(0.,0.,-1.));
#416 = DIRECTION('',(1.,0.,0.));
#417 = PCURVE('',#33,#418);
#418 = DEFINITIONAL_REPRESENTATION('',(#419),#423);
#419 = LINE('',#420,#421);
#420 = CARTESIAN_POINT('',(6.28318530718,3.14159265359));
#421 = VECTOR('',#422,1.);
#422 = DIRECTION('',(-1.,0.));
#423 = ( GEOMETRIC_REPRESENTATION_CONTEXT(2) 
PARAMETRIC_REPRESENTATION_CONTEXT() REPRESENTATION_CONTEXT('2D SPACE',''
  ) );
#424 = PCURVE('',#398,#425);
#425 = DEFINITIONAL_REPRESENTATION('',(#426),#430);
#426 = LINE('',#427,#428);
#427 = CARTESIAN_POINT('',(3.14159265359,23.5));
#428 = VECTOR('',#429,1.);
#429 = DIRECTION('',(-1.,0.));
#430 = ( GEOMETRIC_REPRESENTATION_CONTEXT(2) 
PARAMETRIC_REPRESENTATION_CONTEXT() REPRESENTATION_CONTEXT('2D SPACE',''
  ) );
#431 = ORIENTED_EDGE('',*,*,#357,.F.);
#432 = ORIENTED_EDGE('',*,*,#433,.F.);
#433 = EDGE_CURVE('',#434,#298,#436,.T.);
#434 = VERTEX_POINT('',#435);
#435 = CARTESIAN_POINT('',(46.024100289998,61.37602932607,-8.5));
#436 = SURFACE_CURVE('',#437,(#450,#479),.PCURVE_S1.);
#437 = B_SPLINE_CURVE_WITH_KNOTS('',3,(#438,#439,#440,#441,#442,#443,
    #444,#445,#446,#447,#448,#449),.UNSPECIFIED.,.F.,.F.,(4,2,2,2,2,4),(
    7.045500049463,7.205713890032,7.3659277306,7.64434410621,
    7.783552294016,7.922760481821),.UNSPECIFIED.);
#438 = CARTESIAN_POINT('',(46.024100289998,61.37602932607,-8.5));
#439 = CARTESIAN_POINT('',(46.024100289998,60.841983190842,-8.5));
#440 = CARTESIAN_POINT('',(46.024100289998,60.257663398724,
    -8.455491434384));
#441 = CARTESIAN_POINT('',(46.024100289998,59.10023461429,
    -8.282373627471));
#442 = CARTESIAN_POINT('',(46.024100289998,58.526960485341,
    -8.154870259991));
#443 = CARTESIAN_POINT('',(46.024100289998,57.113040698329,
    -7.782621212895));
#444 = CARTESIAN_POINT('',(46.024100289998,56.152403877946,
    -7.448500445675));
#445 = CARTESIAN_POINT('',(46.024100289998,54.707915082699,
    -7.009508888324));
#446 = CARTESIAN_POINT('',(46.024100289998,54.224384360464,
    -6.876904033743));
#447 = CARTESIAN_POINT('',(46.024100289998,53.264657282408,
    -6.692140560013));
#448 = CARTESIAN_POINT('',(46.024100289998,52.788123123638,
    -6.641740950301));
#449 = CARTESIAN_POINT('',(46.024100289998,52.324095830954,
    -6.641740950301));
#450 = PCURVE('',#33,#451);
#451 = DEFINITIONAL_REPRESENTATION('',(#452),#478);
#452 = B_SPLINE_CURVE_WITH_KNOTS('',3,(#453,#454,#455,#456,#457,#458,
    #459,#460,#461,#462,#463,#464,#465,#466,#467,#468,#469,#470,#471,
    #472,#473,#474,#475,#476,#477),.UNSPECIFIED.,.F.,.F.,(4,1,1,1,1,1,1,
    1,1,1,1,1,1,1,1,1,1,1,1,1,1,1,4),(7.045500049463,7.085375523661,
    7.12525099786,7.165126472058,7.205001946256,7.244877420454,
    7.284752894652,7.32462836885,7.364503843048,7.404379317246,
    7.444254791444,7.484130265642,7.52400573984,7.563881214038,
    7.603756688236,7.643632162435,7.683507636633,7.723383110831,
    7.763258585029,7.803134059227,7.843009533425,7.882885007623,
    7.922760481821),.QUASI_UNIFORM_KNOTS.);
#453 = CARTESIAN_POINT('',(2.175091019588,4.712388980385));
#454 = CARTESIAN_POINT('',(2.181953274501,4.696762838654));
#455 = CARTESIAN_POINT('',(2.196421480236,4.665002208572));
#456 = CARTESIAN_POINT('',(2.220295889787,4.616470374379));
#457 = CARTESIAN_POINT('',(2.246303849979,4.567689081379));
#458 = CARTESIAN_POINT('',(2.274335282842,4.519274281656));
#459 = CARTESIAN_POINT('',(2.304223703038,4.471777660236));
#460 = CARTESIAN_POINT('',(2.335709651982,4.425797279478));
#461 = CARTESIAN_POINT('',(2.368557133626,4.381759468702));
#462 = CARTESIAN_POINT('',(2.401944346102,4.34062855747));
#463 = CARTESIAN_POINT('',(2.436683412429,4.301152582361));
#464 = CARTESIAN_POINT('',(2.474683833437,4.26151125572));
#465 = CARTESIAN_POINT('',(2.515592567599,4.222667970383));
#466 = CARTESIAN_POINT('',(2.559621667217,4.184881693479));
#467 = CARTESIAN_POINT('',(2.60677387548,4.14862226626));
#468 = CARTESIAN_POINT('',(2.657035990192,4.114316204649));
#469 = CARTESIAN_POINT('',(2.710284076533,4.082376031582));
#470 = CARTESIAN_POINT('',(2.766371497872,4.05326845949));
#471 = CARTESIAN_POINT('',(2.825103990777,4.027581749656));
#472 = CARTESIAN_POINT('',(2.88609957673,4.005798435506));
#473 = CARTESIAN_POINT('',(2.948897046583,3.988416415127));
#474 = CARTESIAN_POINT('',(3.012925547006,3.975862048149));
#475 = CARTESIAN_POINT('',(3.077462481114,3.968268724244));
#476 = CARTESIAN_POINT('',(3.120325417107,3.966567447839));
#477 = CARTESIAN_POINT('',(3.14159265359,3.966572963817));
#478 = ( GEOMETRIC_REPRESENTATION_CONTEXT(2) 
PARAMETRIC_REPRESENTATION_CONTEXT() REPRESENTATION_CONTEXT('2D SPACE',''
  ) );
#479 = PCURVE('',#340,#480);
#480 = DEFINITIONAL_REPRESENTATION('',(#481),#494);
#481 = B_SPLINE_CURVE_WITH_KNOTS('',3,(#482,#483,#484,#485,#486,#487,
    #488,#489,#490,#491,#492,#493),.UNSPECIFIED.,.F.,.F.,(4,2,2,2,2,4),(
    7.045500049463,7.205713890032,7.3659277306,7.64434410621,
    7.783552294016,7.922760481821),.UNSPECIFIED.);
#482 = CARTESIAN_POINT('',(0.948066504884,2.5));
#483 = CARTESIAN_POINT('',(1.482112640111,2.5));
#484 = CARTESIAN_POINT('',(2.06643243223,2.544508565616));
#485 = CARTESIAN_POINT('',(3.223861216663,2.717626372529));
#486 = CARTESIAN_POINT('',(3.797135345613,2.845129740009));
#487 = CARTESIAN_POINT('',(5.211055132625,3.217378787105));
#488 = CARTESIAN_POINT('',(6.171691953007,3.551499554325));
#489 = CARTESIAN_POINT('',(7.616180748255,3.990491111676));
#490 = CARTESIAN_POINT('',(8.09971147049,4.123095966257));
#491 = CARTESIAN_POINT('',(9.059438548546,4.307859439987));
#492 = CARTESIAN_POINT('',(9.535972707315,4.358259049699));
#493 = CARTESIAN_POINT('',(10.,4.358259049699));
#494 = ( GEOMETRIC_REPRESENTATION_CONTEXT(2) 
PARAMETRIC_REPRESENTATION_CONTEXT() REPRESENTATION_CONTEXT('2D SPACE',''
  ) );
#495 = ORIENTED_EDGE('',*,*,#496,.F.);
#496 = EDGE_CURVE('',#497,#434,#499,.T.);
#497 = VERTEX_POINT('',#498);
#498 = CARTESIAN_POINT('',(47.691524595042,62.324095830954,-8.5));
#499 = SURFACE_CURVE('',#500,(#505,#512),.PCURVE_S1.);
#500 = CIRCLE('',#501,11.);
#501 = AXIS2_PLACEMENT_3D('',#502,#503,#504);
#502 = CARTESIAN_POINT('',(52.274100289998,52.324095830954,-8.5));
#503 = DIRECTION('',(0.,0.,1.));
#504 = DIRECTION('',(1.,0.,-0.));
#505 = PCURVE('',#33,#506);
#506 = DEFINITIONAL_REPRESENTATION('',(#507),#511);
#507 = LINE('',#508,#509);
#508 = CARTESIAN_POINT('',(0.,4.712388980385));
#509 = VECTOR('',#510,1.);
#510 = DIRECTION('',(1.,0.));
#511 = ( GEOMETRIC_REPRESENTATION_CONTEXT(2) 
PARAMETRIC_REPRESENTATION_CONTEXT() REPRESENTATION_CONTEXT('2D SPACE',''
  ) );
#512 = PCURVE('',#513,#518);
#513 = PLANE('',#514);
#514 = AXIS2_PLACEMENT_3D('',#515,#516,#517);
#515 = CARTESIAN_POINT('',(52.274100289998,52.324095830954,-8.5));
#516 = DIRECTION('',(0.,0.,-1.));
#517 = DIRECTION('',(1.,0.,0.));
#518 = DEFINITIONAL_REPRESENTATION('',(#519),#527);
#519 = ( BOUNDED_CURVE() B_SPLINE_CURVE(2,(#520,#521,#522,#523,#524,#525
,#526),.UNSPECIFIED.,.T.,.F.) B_SPLINE_CURVE_WITH_KNOTS((1,2,2,2,2,1),(
    -2.094395102393,0.,2.094395102393,4.188790204786,6.28318530718,
8.377580409573),.UNSPECIFIED.) CURVE() GEOMETRIC_REPRESENTATION_ITEM() 
RATIONAL_B_SPLINE_CURVE((1.,0.5,1.,0.5,1.,0.5,1.)) REPRESENTATION_ITEM(
  '') );
#520 = CARTESIAN_POINT('',(11.,0.));
#521 = CARTESIAN_POINT('',(11.,-19.05255888325));
#522 = CARTESIAN_POINT('',(-5.5,-9.526279441629));
#523 = CARTESIAN_POINT('',(-22.,-2.694222958124E-15));
#524 = CARTESIAN_POINT('',(-5.5,9.526279441629));
#525 = CARTESIAN_POINT('',(11.,19.052558883258));
#526 = CARTESIAN_POINT('',(11.,0.));
#527 = ( GEOMETRIC_REPRESENTATION_CONTEXT(2) 
PARAMETRIC_REPRESENTATION_CONTEXT() REPRESENTATION_CONTEXT('2D SPACE',''
  ) );
#528 = ORIENTED_EDGE('',*,*,#529,.F.);
#529 = EDGE_CURVE('',#24,#497,#530,.T.);
#530 = SURFACE_CURVE('',#531,(#543,#572),.PCURVE_S1.);
#531 = B_SPLINE_CURVE_WITH_KNOTS('',3,(#532,#533,#534,#535,#536,#537,
    #538,#539,#540,#541,#542),.UNSPECIFIED.,.F.,.F.,(4,2,3,2,4),(
    6.579195557426,6.709077769569,7.008890625279,7.308703480989,
    7.438585693133),.UNSPECIFIED.);
#532 = CARTESIAN_POINT('',(56.856675984954,62.324095830954,-8.5));
#533 = CARTESIAN_POINT('',(56.423735277808,62.324095830954,-8.5));
#534 = CARTESIAN_POINT('',(55.904276100706,62.324095830954,
    -8.491491896502));
#535 = CARTESIAN_POINT('',(54.472301477489,62.324095830954,
    -8.460181195586));
#536 = CARTESIAN_POINT('',(53.273476475698,62.324095830954,
    -8.428203230275));
#537 = CARTESIAN_POINT('',(52.274100289998,62.324095830954,
    -8.428203230275));
#538 = CARTESIAN_POINT('',(51.274724104298,62.324095830954,
    -8.428203230275));
#539 = CARTESIAN_POINT('',(50.075899102507,62.324095830954,
    -8.460181195586));
#540 = CARTESIAN_POINT('',(48.64392447929,62.324095830954,
    -8.491491896502));
#541 = CARTESIAN_POINT('',(48.124465302188,62.324095830954,-8.5));
#542 = CARTESIAN_POINT('',(47.691524595042,62.324095830954,-8.5));
#543 = PCURVE('',#33,#544);
#544 = DEFINITIONAL_REPRESENTATION('',(#545),#571);
#545 = B_SPLINE_CURVE_WITH_KNOTS('',3,(#546,#547,#548,#549,#550,#551,
    #552,#553,#554,#555,#556,#557,#558,#559,#560,#561,#562,#563,#564,
    #565,#566,#567,#568,#569,#570),.UNSPECIFIED.,.F.,.F.,(4,1,1,1,1,1,1,
    1,1,1,1,1,1,1,1,1,1,1,1,1,1,1,4),(6.579195557426,6.618258745412,
    6.657321933399,6.696385121386,6.735448309372,6.774511497359,
    6.813574685346,6.852637873332,6.891701061319,6.930764249306,
    6.969827437293,7.008890625279,7.047953813266,7.087017001253,
    7.126080189239,7.165143377226,7.204206565213,7.243269753199,
    7.282332941186,7.321396129173,7.360459317159,7.399522505146,
    7.438585693133),.QUASI_UNIFORM_KNOTS.);
#546 = CARTESIAN_POINT('',(1.141096660643,4.712388980385));
#547 = CARTESIAN_POINT('',(1.15183271349,4.704597206841));
#548 = CARTESIAN_POINT('',(1.175010374703,4.688787633202));
#549 = CARTESIAN_POINT('',(1.212418839521,4.665955054859));
#550 = CARTESIAN_POINT('',(1.25005584367,4.645860080063));
#551 = CARTESIAN_POINT('',(1.285293543835,4.629322671427));
#552 = CARTESIAN_POINT('',(1.323781586821,4.613666897408));
#553 = CARTESIAN_POINT('',(1.363890052839,4.600010866383));
#554 = CARTESIAN_POINT('',(1.405353944731,4.588574116403));
#555 = CARTESIAN_POINT('',(1.447482318076,4.579665529886));
#556 = CARTESIAN_POINT('',(1.489582200128,4.573403921179));
#557 = CARTESIAN_POINT('',(1.531145819242,4.569785998512));
#558 = CARTESIAN_POINT('',(1.570796326795,4.568669117963));
#559 = CARTESIAN_POINT('',(1.610446834347,4.569785998512));
#560 = CARTESIAN_POINT('',(1.652010453462,4.573403921179));
#561 = CARTESIAN_POINT('',(1.694110335514,4.579665529886));
#562 = CARTESIAN_POINT('',(1.736238708858,4.588574116403));
#563 = CARTESIAN_POINT('',(1.777702600751,4.600010866383));
#564 = CARTESIAN_POINT('',(1.817811066769,4.613666897408));
#565 = CARTESIAN_POINT('',(1.856299109755,4.629322671427));
#566 = CARTESIAN_POINT('',(1.89153680992,4.645860080063));
#567 = CARTESIAN_POINT('',(1.929173814069,4.665955054859));
#568 = CARTESIAN_POINT('',(1.966582278886,4.688787633202));
#569 = CARTESIAN_POINT('',(1.9897599401,4.704597206841));
#570 = CARTESIAN_POINT('',(2.000495992946,4.712388980385));
#571 = ( GEOMETRIC_REPRESENTATION_CONTEXT(2) 
PARAMETRIC_REPRESENTATION_CONTEXT() REPRESENTATION_CONTEXT('2D SPACE',''
  ) );
#572 = PCURVE('',#573,#578);
#573 = PLANE('',#574);
#574 = AXIS2_PLACEMENT_3D('',#575,#576,#577);
#575 = CARTESIAN_POINT('',(58.524100289998,62.324095830954,-11.));
#576 = DIRECTION('',(0.,1.,0.));
#577 = DIRECTION('',(-1.,0.,0.));
#578 = DEFINITIONAL_REPRESENTATION('',(#579),#591);
#579 = B_SPLINE_CURVE_WITH_KNOTS('',3,(#580,#581,#582,#583,#584,#585,
    #586,#587,#588,#589,#590),.UNSPECIFIED.,.F.,.F.,(4,2,3,2,4),(
    6.579195557426,6.709077769569,7.008890625279,7.308703480989,
    7.438585693133),.UNSPECIFIED.);
#580 = CARTESIAN_POINT('',(1.667424305044,2.5));
#581 = CARTESIAN_POINT('',(2.10036501219,2.5));
#582 = CARTESIAN_POINT('',(2.619824189292,2.508508103498));
#583 = CARTESIAN_POINT('',(4.051798812509,2.539818804414));
#584 = CARTESIAN_POINT('',(5.2506238143,2.571796769725));
#585 = CARTESIAN_POINT('',(6.25,2.571796769725));
#586 = CARTESIAN_POINT('',(7.2493761857,2.571796769725));
#587 = CARTESIAN_POINT('',(8.448201187491,2.539818804414));
#588 = CARTESIAN_POINT('',(9.880175810708,2.508508103498));
#589 = CARTESIAN_POINT('',(10.399634987811,2.5));
#590 = CARTESIAN_POINT('',(10.832575694956,2.5));
#591 = ( GEOMETRIC_REPRESENTATION_CONTEXT(2) 
PARAMETRIC_REPRESENTATION_CONTEXT() REPRESENTATION_CONTEXT('2D SPACE',''
  ) );
#592 = ADVANCED_FACE('',(#593),#182,.F.);
#593 = FACE_BOUND('',#594,.T.);
#594 = EDGE_LOOP('',(#595,#596,#619));
#595 = ORIENTED_EDGE('',*,*,#165,.F.);
#596 = ORIENTED_EDGE('',*,*,#597,.T.);
#597 = EDGE_CURVE('',#166,#598,#600,.T.);
#598 = VERTEX_POINT('',#599);
#599 = CARTESIAN_POINT('',(58.524100289998,42.324095830954,-8.5));
#600 = SURFACE_CURVE('',#601,(#605,#612),.PCURVE_S1.);
#601 = LINE('',#602,#603);
#602 = CARTESIAN_POINT('',(58.524100289998,42.324095830954,-8.5));
#603 = VECTOR('',#604,1.);
#604 = DIRECTION('',(1.,0.,0.));
#605 = PCURVE('',#182,#606);
#606 = DEFINITIONAL_REPRESENTATION('',(#607),#611);
#607 = LINE('',#608,#609);
#608 = CARTESIAN_POINT('',(6.25,10.));
#609 = VECTOR('',#610,1.);
#610 = DIRECTION('',(1.,0.));
#611 = ( GEOMETRIC_REPRESENTATION_CONTEXT(2) 
PARAMETRIC_REPRESENTATION_CONTEXT() REPRESENTATION_CONTEXT('2D SPACE',''
  ) );
#612 = PCURVE('',#244,#613);
#613 = DEFINITIONAL_REPRESENTATION('',(#614),#618);
#614 = LINE('',#615,#616);
#615 = CARTESIAN_POINT('',(12.5,2.5));
#616 = VECTOR('',#617,1.);
#617 = DIRECTION('',(1.,0.));
#618 = ( GEOMETRIC_REPRESENTATION_CONTEXT(2) 
PARAMETRIC_REPRESENTATION_CONTEXT() REPRESENTATION_CONTEXT('2D SPACE',''
  ) );
#619 = ORIENTED_EDGE('',*,*,#620,.T.);
#620 = EDGE_CURVE('',#598,#62,#621,.T.);
#621 = SURFACE_CURVE('',#622,(#626,#633),.PCURVE_S1.);
#622 = LINE('',#623,#624);
#623 = CARTESIAN_POINT('',(58.524100289998,62.324095830954,-8.5));
#624 = VECTOR('',#625,1.);
#625 = DIRECTION('',(0.,1.,0.));
#626 = PCURVE('',#182,#627);
#627 = DEFINITIONAL_REPRESENTATION('',(#628),#632);
#628 = LINE('',#629,#630);
#629 = CARTESIAN_POINT('',(6.25,-10.));
#630 = VECTOR('',#631,1.);
#631 = DIRECTION('',(0.,-1.));
#632 = ( GEOMETRIC_REPRESENTATION_CONTEXT(2) 
PARAMETRIC_REPRESENTATION_CONTEXT() REPRESENTATION_CONTEXT('2D SPACE',''
  ) );
#633 = PCURVE('',#137,#634);
#634 = DEFINITIONAL_REPRESENTATION('',(#635),#639);
#635 = LINE('',#636,#637);
#636 = CARTESIAN_POINT('',(20.,2.5));
#637 = VECTOR('',#638,1.);
#638 = DIRECTION('',(1.,0.));
#639 = ( GEOMETRIC_REPRESENTATION_CONTEXT(2) 
PARAMETRIC_REPRESENTATION_CONTEXT() REPRESENTATION_CONTEXT('2D SPACE',''
  ) );
#640 = ADVANCED_FACE('',(#641),#281,.F.);
#641 = FACE_BOUND('',#642,.T.);
#642 = EDGE_LOOP('',(#643,#644,#667));
#643 = ORIENTED_EDGE('',*,*,#264,.F.);
#644 = ORIENTED_EDGE('',*,*,#645,.T.);
#645 = EDGE_CURVE('',#265,#646,#648,.T.);
#646 = VERTEX_POINT('',#647);
#647 = CARTESIAN_POINT('',(46.024100289998,42.324095830954,-8.5));
#648 = SURFACE_CURVE('',#649,(#653,#660),.PCURVE_S1.);
#649 = LINE('',#650,#651);
#650 = CARTESIAN_POINT('',(46.024100289998,42.324095830954,-8.5));
#651 = VECTOR('',#652,1.);
#652 = DIRECTION('',(0.,-1.,0.));
#653 = PCURVE('',#281,#654);
#654 = DEFINITIONAL_REPRESENTATION('',(#655),#659);
#655 = LINE('',#656,#657);
#656 = CARTESIAN_POINT('',(-6.25,10.));
#657 = VECTOR('',#658,1.);
#658 = DIRECTION('',(0.,1.));
#659 = ( GEOMETRIC_REPRESENTATION_CONTEXT(2) 
PARAMETRIC_REPRESENTATION_CONTEXT() REPRESENTATION_CONTEXT('2D SPACE',''
  ) );
#660 = PCURVE('',#340,#661);
#661 = DEFINITIONAL_REPRESENTATION('',(#662),#666);
#662 = LINE('',#663,#664);
#663 = CARTESIAN_POINT('',(20.,2.5));
#664 = VECTOR('',#665,1.);
#665 = DIRECTION('',(1.,0.));
#666 = ( GEOMETRIC_REPRESENTATION_CONTEXT(2) 
PARAMETRIC_REPRESENTATION_CONTEXT() REPRESENTATION_CONTEXT('2D SPACE',''
  ) );
#667 = ORIENTED_EDGE('',*,*,#668,.T.);
#668 = EDGE_CURVE('',#646,#199,#669,.T.);
#669 = SURFACE_CURVE('',#670,(#674,#681),.PCURVE_S1.);
#670 = LINE('',#671,#672);
#671 = CARTESIAN_POINT('',(58.524100289998,42.324095830954,-8.5));
#672 = VECTOR('',#673,1.);
#673 = DIRECTION('',(1.,0.,0.));
#674 = PCURVE('',#281,#675);
#675 = DEFINITIONAL_REPRESENTATION('',(#676),#680);
#676 = LINE('',#677,#678);
#677 = CARTESIAN_POINT('',(6.25,10.));
#678 = VECTOR('',#679,1.);
#679 = DIRECTION('',(1.,0.));
#680 = ( GEOMETRIC_REPRESENTATION_CONTEXT(2) 
PARAMETRIC_REPRESENTATION_CONTEXT() REPRESENTATION_CONTEXT('2D SPACE',''
  ) );
#681 = PCURVE('',#244,#682);
#682 = DEFINITIONAL_REPRESENTATION('',(#683),#687);
#683 = LINE('',#684,#685);
#684 = CARTESIAN_POINT('',(12.5,2.5));
#685 = VECTOR('',#686,1.);
#686 = DIRECTION('',(1.,0.));
#687 = ( GEOMETRIC_REPRESENTATION_CONTEXT(2) 
PARAMETRIC_REPRESENTATION_CONTEXT() REPRESENTATION_CONTEXT('2D SPACE',''
  ) );
#688 = ADVANCED_FACE('',(#689),#513,.F.);
#689 = FACE_BOUND('',#690,.T.);
#690 = EDGE_LOOP('',(#691,#692,#715));
#691 = ORIENTED_EDGE('',*,*,#496,.F.);
#692 = ORIENTED_EDGE('',*,*,#693,.T.);
#693 = EDGE_CURVE('',#497,#694,#696,.T.);
#694 = VERTEX_POINT('',#695);
#695 = CARTESIAN_POINT('',(46.024100289998,62.324095830954,-8.5));
#696 = SURFACE_CURVE('',#697,(#701,#708),.PCURVE_S1.);
#697 = LINE('',#698,#699);
#698 = CARTESIAN_POINT('',(46.024100289998,62.324095830954,-8.5));
#699 = VECTOR('',#700,1.);
#700 = DIRECTION('',(-1.,0.,0.));
#701 = PCURVE('',#513,#702);
#702 = DEFINITIONAL_REPRESENTATION('',(#703),#707);
#703 = LINE('',#704,#705);
#704 = CARTESIAN_POINT('',(-6.25,-10.));
#705 = VECTOR('',#706,1.);
#706 = DIRECTION('',(-1.,0.));
#707 = ( GEOMETRIC_REPRESENTATION_CONTEXT(2) 
PARAMETRIC_REPRESENTATION_CONTEXT() REPRESENTATION_CONTEXT('2D SPACE',''
  ) );
#708 = PCURVE('',#573,#709);
#709 = DEFINITIONAL_REPRESENTATION('',(#710),#714);
#710 = LINE('',#711,#712);
#711 = CARTESIAN_POINT('',(12.5,2.5));
#712 = VECTOR('',#713,1.);
#713 = DIRECTION('',(1.,0.));
#714 = ( GEOMETRIC_REPRESENTATION_CONTEXT(2) 
PARAMETRIC_REPRESENTATION_CONTEXT() REPRESENTATION_CONTEXT('2D SPACE',''
  ) );
#715 = ORIENTED_EDGE('',*,*,#716,.T.);
#716 = EDGE_CURVE('',#694,#434,#717,.T.);
#717 = SURFACE_CURVE('',#718,(#722,#729),.PCURVE_S1.);
#718 = LINE('',#719,#720);
#719 = CARTESIAN_POINT('',(46.024100289998,42.324095830954,-8.5));
#720 = VECTOR('',#721,1.);
#721 = DIRECTION('',(0.,-1.,0.));
#722 = PCURVE('',#513,#723);
#723 = DEFINITIONAL_REPRESENTATION('',(#724),#728);
#724 = LINE('',#725,#726);
#725 = CARTESIAN_POINT('',(-6.25,10.));
#726 = VECTOR('',#727,1.);
#727 = DIRECTION('',(0.,1.));
#728 = ( GEOMETRIC_REPRESENTATION_CONTEXT(2) 
PARAMETRIC_REPRESENTATION_CONTEXT() REPRESENTATION_CONTEXT('2D SPACE',''
  ) );
#729 = PCURVE('',#340,#730);
#730 = DEFINITIONAL_REPRESENTATION('',(#731),#735);
#731 = LINE('',#732,#733);
#732 = CARTESIAN_POINT('',(20.,2.5));
#733 = VECTOR('',#734,1.);
#734 = DIRECTION('',(1.,0.));
#735 = ( GEOMETRIC_REPRESENTATION_CONTEXT(2) 
PARAMETRIC_REPRESENTATION_CONTEXT() REPRESENTATION_CONTEXT('2D SPACE',''
  ) );
#736 = ADVANCED_FACE('',(#737),#398,.T.);
#737 = FACE_BOUND('',#738,.T.);
#738 = EDGE_LOOP('',(#739,#772,#793,#794,#795));
#739 = ORIENTED_EDGE('',*,*,#740,.T.);
#740 = EDGE_CURVE('',#741,#741,#743,.T.);
#741 = VERTEX_POINT('',#742);
#742 = CARTESIAN_POINT('',(56.274100289998,52.324095830954,20.));
#743 = SURFACE_CURVE('',#744,(#749,#756),.PCURVE_S1.);
#744 = CIRCLE('',#745,4.);
#745 = AXIS2_PLACEMENT_3D('',#746,#747,#748);
#746 = CARTESIAN_POINT('',(52.274100289998,52.324095830954,20.));
#747 = DIRECTION('',(0.,0.,-1.));
#748 = DIRECTION('',(-1.,0.,0.));
#749 = PCURVE('',#398,#750);
#750 = DEFINITIONAL_REPRESENTATION('',(#751),#755);
#751 = LINE('',#752,#753);
#752 = CARTESIAN_POINT('',(6.28318530718,45.));
#753 = VECTOR('',#754,1.);
#754 = DIRECTION('',(-1.,0.));
#755 = ( GEOMETRIC_REPRESENTATION_CONTEXT(2) 
PARAMETRIC_REPRESENTATION_CONTEXT() REPRESENTATION_CONTEXT('2D SPACE',''
  ) );
#756 = PCURVE('',#757,#762);
#757 = PLANE('',#758);
#758 = AXIS2_PLACEMENT_3D('',#759,#760,#761);
#759 = CARTESIAN_POINT('',(52.274100289998,52.324095830954,20.));
#760 = DIRECTION('',(0.,0.,1.));
#761 = DIRECTION('',(-1.,0.,0.));
#762 = DEFINITIONAL_REPRESENTATION('',(#763),#771);
#763 = ( BOUNDED_CURVE() B_SPLINE_CURVE(2,(#764,#765,#766,#767,#768,#769
,#770),.UNSPECIFIED.,.T.,.F.) B_SPLINE_CURVE_WITH_KNOTS((1,2,2,2,2,1),(
    -2.094395102393,0.,2.094395102393,4.188790204786,6.28318530718,
8.377580409573),.UNSPECIFIED.) CURVE() GEOMETRIC_REPRESENTATION_ITEM() 
RATIONAL_B_SPLINE_CURVE((1.,0.5,1.,0.5,1.,0.5,1.)) REPRESENTATION_ITEM(
  '') );
#764 = CARTESIAN_POINT('',(4.,0.));
#765 = CARTESIAN_POINT('',(4.,-6.928203230276));
#766 = CARTESIAN_POINT('',(-2.,-3.464101615138));
#767 = CARTESIAN_POINT('',(-8.,-9.797174393179E-16));
#768 = CARTESIAN_POINT('',(-2.,3.464101615138));
#769 = CARTESIAN_POINT('',(4.,6.928203230276));
#770 = CARTESIAN_POINT('',(4.,0.));
#771 = ( GEOMETRIC_REPRESENTATION_CONTEXT(2) 
PARAMETRIC_REPRESENTATION_CONTEXT() REPRESENTATION_CONTEXT('2D SPACE',''
  ) );
#772 = ORIENTED_EDGE('',*,*,#773,.T.);
#773 = EDGE_CURVE('',#741,#382,#774,.T.);
#774 = SEAM_CURVE('',#775,(#779,#786),.PCURVE_S1.);
#775 = LINE('',#776,#777);
#776 = CARTESIAN_POINT('',(56.274100289998,52.324095830954,-25.));
#777 = VECTOR('',#778,1.);
#778 = DIRECTION('',(0.,0.,-1.));
#779 = PCURVE('',#398,#780);
#780 = DEFINITIONAL_REPRESENTATION('',(#781),#785);
#781 = LINE('',#782,#783);
#782 = CARTESIAN_POINT('',(-3.14159265359,0.));
#783 = VECTOR('',#784,1.);
#784 = DIRECTION('',(0.,-1.));
#785 = ( GEOMETRIC_REPRESENTATION_CONTEXT(2) 
PARAMETRIC_REPRESENTATION_CONTEXT() REPRESENTATION_CONTEXT('2D SPACE',''
  ) );
#786 = PCURVE('',#398,#787);
#787 = DEFINITIONAL_REPRESENTATION('',(#788),#792);
#788 = LINE('',#789,#790);
#789 = CARTESIAN_POINT('',(3.14159265359,0.));
#790 = VECTOR('',#791,1.);
#791 = DIRECTION('',(0.,-1.));
#792 = ( GEOMETRIC_REPRESENTATION_CONTEXT(2) 
PARAMETRIC_REPRESENTATION_CONTEXT() REPRESENTATION_CONTEXT('2D SPACE',''
  ) );
#793 = ORIENTED_EDGE('',*,*,#410,.F.);
#794 = ORIENTED_EDGE('',*,*,#381,.F.);
#795 = ORIENTED_EDGE('',*,*,#773,.F.);
#796 = ADVANCED_FACE('',(#797),#244,.T.);
#797 = FACE_BOUND('',#798,.T.);
#798 = EDGE_LOOP('',(#799,#829,#850,#851,#852,#853));
#799 = ORIENTED_EDGE('',*,*,#800,.F.);
#800 = EDGE_CURVE('',#801,#803,#805,.T.);
#801 = VERTEX_POINT('',#802);
#802 = CARTESIAN_POINT('',(58.524100289998,42.324095830954,-11.));
#803 = VERTEX_POINT('',#804);
#804 = CARTESIAN_POINT('',(46.024100289998,42.324095830954,-11.));
#805 = SURFACE_CURVE('',#806,(#810,#817),.PCURVE_S1.);
#806 = LINE('',#807,#808);
#807 = CARTESIAN_POINT('',(58.524100289998,42.324095830954,-11.));
#808 = VECTOR('',#809,1.);
#809 = DIRECTION('',(-1.,0.,0.));
#810 = PCURVE('',#244,#811);
#811 = DEFINITIONAL_REPRESENTATION('',(#812),#816);
#812 = LINE('',#813,#814);
#813 = CARTESIAN_POINT('',(12.5,0.));
#814 = VECTOR('',#815,1.);
#815 = DIRECTION('',(-1.,0.));
#816 = ( GEOMETRIC_REPRESENTATION_CONTEXT(2) 
PARAMETRIC_REPRESENTATION_CONTEXT() REPRESENTATION_CONTEXT('2D SPACE',''
  ) );
#817 = PCURVE('',#818,#823);
#818 = PLANE('',#819);
#819 = AXIS2_PLACEMENT_3D('',#820,#821,#822);
#820 = CARTESIAN_POINT('',(52.274100289998,52.324095830954,-11.));
#821 = DIRECTION('',(0.,0.,1.));
#822 = DIRECTION('',(-1.,0.,0.));
#823 = DEFINITIONAL_REPRESENTATION('',(#824),#828);
#824 = LINE('',#825,#826);
#825 = CARTESIAN_POINT('',(-6.25,10.));
#826 = VECTOR('',#827,1.);
#827 = DIRECTION('',(1.,0.));
#828 = ( GEOMETRIC_REPRESENTATION_CONTEXT(2) 
PARAMETRIC_REPRESENTATION_CONTEXT() REPRESENTATION_CONTEXT('2D SPACE',''
  ) );
#829 = ORIENTED_EDGE('',*,*,#830,.T.);
#830 = EDGE_CURVE('',#801,#598,#831,.T.);
#831 = SURFACE_CURVE('',#832,(#836,#843),.PCURVE_S1.);
#832 = LINE('',#833,#834);
#833 = CARTESIAN_POINT('',(58.524100289998,42.324095830954,-11.));
#834 = VECTOR('',#835,1.);
#835 = DIRECTION('',(0.,0.,1.));
#836 = PCURVE('',#244,#837);
#837 = DEFINITIONAL_REPRESENTATION('',(#838),#842);
#838 = LINE('',#839,#840);
#839 = CARTESIAN_POINT('',(12.5,0.));
#840 = VECTOR('',#841,1.);
#841 = DIRECTION('',(0.,1.));
#842 = ( GEOMETRIC_REPRESENTATION_CONTEXT(2) 
PARAMETRIC_REPRESENTATION_CONTEXT() REPRESENTATION_CONTEXT('2D SPACE',''
  ) );
#843 = PCURVE('',#137,#844);
#844 = DEFINITIONAL_REPRESENTATION('',(#845),#849);
#845 = LINE('',#846,#847);
#846 = CARTESIAN_POINT('',(0.,0.));
#847 = VECTOR('',#848,1.);
#848 = DIRECTION('',(0.,1.));
#849 = ( GEOMETRIC_REPRESENTATION_CONTEXT(2) 
PARAMETRIC_REPRESENTATION_CONTEXT() REPRESENTATION_CONTEXT('2D SPACE',''
  ) );
#850 = ORIENTED_EDGE('',*,*,#597,.F.);
#851 = ORIENTED_EDGE('',*,*,#198,.F.);
#852 = ORIENTED_EDGE('',*,*,#668,.F.);
#853 = ORIENTED_EDGE('',*,*,#854,.F.);
#854 = EDGE_CURVE('',#803,#646,#855,.T.);
#855 = SURFACE_CURVE('',#856,(#860,#867),.PCURVE_S1.);
#856 = LINE('',#857,#858);
#857 = CARTESIAN_POINT('',(46.024100289998,42.324095830954,-11.));
#858 = VECTOR('',#859,1.);
#859 = DIRECTION('',(0.,0.,1.));
#860 = PCURVE('',#244,#861);
#861 = DEFINITIONAL_REPRESENTATION('',(#862),#866);
#862 = LINE('',#863,#864);
#863 = CARTESIAN_POINT('',(0.,0.));
#864 = VECTOR('',#865,1.);
#865 = DIRECTION('',(0.,1.));
#866 = ( GEOMETRIC_REPRESENTATION_CONTEXT(2) 
PARAMETRIC_REPRESENTATION_CONTEXT() REPRESENTATION_CONTEXT('2D SPACE',''
  ) );
#867 = PCURVE('',#340,#868);
#868 = DEFINITIONAL_REPRESENTATION('',(#869),#873);
#869 = LINE('',#870,#871);
#870 = CARTESIAN_POINT('',(20.,0.));
#871 = VECTOR('',#872,1.);
#872 = DIRECTION('',(0.,1.));
#873 = ( GEOMETRIC_REPRESENTATION_CONTEXT(2) 
PARAMETRIC_REPRESENTATION_CONTEXT() REPRESENTATION_CONTEXT('2D SPACE',''
  ) );
#874 = ADVANCED_FACE('',(#875),#340,.T.);
#875 = FACE_BOUND('',#876,.T.);
#876 = EDGE_LOOP('',(#877,#900,#901,#902,#903,#904,#905));
#877 = ORIENTED_EDGE('',*,*,#878,.F.);
#878 = EDGE_CURVE('',#803,#879,#881,.T.);
#879 = VERTEX_POINT('',#880);
#880 = CARTESIAN_POINT('',(46.024100289998,62.324095830954,-11.));
#881 = SURFACE_CURVE('',#882,(#886,#893),.PCURVE_S1.);
#882 = LINE('',#883,#884);
#883 = CARTESIAN_POINT('',(46.024100289998,42.324095830954,-11.));
#884 = VECTOR('',#885,1.);
#885 = DIRECTION('',(0.,1.,0.));
#886 = PCURVE('',#340,#887);
#887 = DEFINITIONAL_REPRESENTATION('',(#888),#892);
#888 = LINE('',#889,#890);
#889 = CARTESIAN_POINT('',(20.,0.));
#890 = VECTOR('',#891,1.);
#891 = DIRECTION('',(-1.,0.));
#892 = ( GEOMETRIC_REPRESENTATION_CONTEXT(2) 
PARAMETRIC_REPRESENTATION_CONTEXT() REPRESENTATION_CONTEXT('2D SPACE',''
  ) );
#893 = PCURVE('',#818,#894);
#894 = DEFINITIONAL_REPRESENTATION('',(#895),#899);
#895 = LINE('',#896,#897);
#896 = CARTESIAN_POINT('',(6.25,10.));
#897 = VECTOR('',#898,1.);
#898 = DIRECTION('',(0.,-1.));
#899 = ( GEOMETRIC_REPRESENTATION_CONTEXT(2) 
PARAMETRIC_REPRESENTATION_CONTEXT() REPRESENTATION_CONTEXT('2D SPACE',''
  ) );
#900 = ORIENTED_EDGE('',*,*,#854,.T.);
#901 = ORIENTED_EDGE('',*,*,#645,.F.);
#902 = ORIENTED_EDGE('',*,*,#297,.F.);
#903 = ORIENTED_EDGE('',*,*,#433,.F.);
#904 = ORIENTED_EDGE('',*,*,#716,.F.);
#905 = ORIENTED_EDGE('',*,*,#906,.F.);
#906 = EDGE_CURVE('',#879,#694,#907,.T.);
#907 = SURFACE_CURVE('',#908,(#912,#919),.PCURVE_S1.);
#908 = LINE('',#909,#910);
#909 = CARTESIAN_POINT('',(46.024100289998,62.324095830954,-11.));
#910 = VECTOR('',#911,1.);
#911 = DIRECTION('',(0.,0.,1.));
#912 = PCURVE('',#340,#913);
#913 = DEFINITIONAL_REPRESENTATION('',(#914),#918);
#914 = LINE('',#915,#916);
#915 = CARTESIAN_POINT('',(0.,0.));
#916 = VECTOR('',#917,1.);
#917 = DIRECTION('',(0.,1.));
#918 = ( GEOMETRIC_REPRESENTATION_CONTEXT(2) 
PARAMETRIC_REPRESENTATION_CONTEXT() REPRESENTATION_CONTEXT('2D SPACE',''
  ) );
#919 = PCURVE('',#573,#920);
#920 = DEFINITIONAL_REPRESENTATION('',(#921),#925);
#921 = LINE('',#922,#923);
#922 = CARTESIAN_POINT('',(12.5,0.));
#923 = VECTOR('',#924,1.);
#924 = DIRECTION('',(0.,1.));
#925 = ( GEOMETRIC_REPRESENTATION_CONTEXT(2) 
PARAMETRIC_REPRESENTATION_CONTEXT() REPRESENTATION_CONTEXT('2D SPACE',''
  ) );
#926 = ADVANCED_FACE('',(#927),#573,.T.);
#927 = FACE_BOUND('',#928,.T.);
#928 = EDGE_LOOP('',(#929,#952,#953,#954,#955,#978));
#929 = ORIENTED_EDGE('',*,*,#930,.F.);
#930 = EDGE_CURVE('',#879,#931,#933,.T.);
#931 = VERTEX_POINT('',#932);
#932 = CARTESIAN_POINT('',(58.524100289998,62.324095830954,-11.));
#933 = SURFACE_CURVE('',#934,(#938,#945),.PCURVE_S1.);
#934 = LINE('',#935,#936);
#935 = CARTESIAN_POINT('',(46.024100289998,62.324095830954,-11.));
#936 = VECTOR('',#937,1.);
#937 = DIRECTION('',(1.,0.,0.));
#938 = PCURVE('',#573,#939);
#939 = DEFINITIONAL_REPRESENTATION('',(#940),#944);
#940 = LINE('',#941,#942);
#941 = CARTESIAN_POINT('',(12.5,0.));
#942 = VECTOR('',#943,1.);
#943 = DIRECTION('',(-1.,0.));
#944 = ( GEOMETRIC_REPRESENTATION_CONTEXT(2) 
PARAMETRIC_REPRESENTATION_CONTEXT() REPRESENTATION_CONTEXT('2D SPACE',''
  ) );
#945 = PCURVE('',#818,#946);
#946 = DEFINITIONAL_REPRESENTATION('',(#947),#951);
#947 = LINE('',#948,#949);
#948 = CARTESIAN_POINT('',(6.25,-10.));
#949 = VECTOR('',#950,1.);
#950 = DIRECTION('',(-1.,0.));
#951 = ( GEOMETRIC_REPRESENTATION_CONTEXT(2) 
PARAMETRIC_REPRESENTATION_CONTEXT() REPRESENTATION_CONTEXT('2D SPACE',''
  ) );
#952 = ORIENTED_EDGE('',*,*,#906,.T.);
#953 = ORIENTED_EDGE('',*,*,#693,.F.);
#954 = ORIENTED_EDGE('',*,*,#529,.F.);
#955 = ORIENTED_EDGE('',*,*,#956,.F.);
#956 = EDGE_CURVE('',#957,#24,#959,.T.);
#957 = VERTEX_POINT('',#958);
#958 = CARTESIAN_POINT('',(58.524100289998,62.324095830954,-8.5));
#959 = SURFACE_CURVE('',#960,(#964,#971),.PCURVE_S1.);
#960 = LINE('',#961,#962);
#961 = CARTESIAN_POINT('',(46.024100289998,62.324095830954,-8.5));
#962 = VECTOR('',#963,1.);
#963 = DIRECTION('',(-1.,0.,0.));
#964 = PCURVE('',#573,#965);
#965 = DEFINITIONAL_REPRESENTATION('',(#966),#970);
#966 = LINE('',#967,#968);
#967 = CARTESIAN_POINT('',(12.5,2.5));
#968 = VECTOR('',#969,1.);
#969 = DIRECTION('',(1.,0.));
#970 = ( GEOMETRIC_REPRESENTATION_CONTEXT(2) 
PARAMETRIC_REPRESENTATION_CONTEXT() REPRESENTATION_CONTEXT('2D SPACE',''
  ) );
#971 = PCURVE('',#45,#972);
#972 = DEFINITIONAL_REPRESENTATION('',(#973),#977);
#973 = LINE('',#974,#975);
#974 = CARTESIAN_POINT('',(-6.25,-10.));
#975 = VECTOR('',#976,1.);
#976 = DIRECTION('',(-1.,0.));
#977 = ( GEOMETRIC_REPRESENTATION_CONTEXT(2) 
PARAMETRIC_REPRESENTATION_CONTEXT() REPRESENTATION_CONTEXT('2D SPACE',''
  ) );
#978 = ORIENTED_EDGE('',*,*,#979,.F.);
#979 = EDGE_CURVE('',#931,#957,#980,.T.);
#980 = SURFACE_CURVE('',#981,(#985,#992),.PCURVE_S1.);
#981 = LINE('',#982,#983);
#982 = CARTESIAN_POINT('',(58.524100289998,62.324095830954,-11.));
#983 = VECTOR('',#984,1.);
#984 = DIRECTION('',(0.,0.,1.));
#985 = PCURVE('',#573,#986);
#986 = DEFINITIONAL_REPRESENTATION('',(#987),#991);
#987 = LINE('',#988,#989);
#988 = CARTESIAN_POINT('',(0.,0.));
#989 = VECTOR('',#990,1.);
#990 = DIRECTION('',(0.,1.));
#991 = ( GEOMETRIC_REPRESENTATION_CONTEXT(2) 
PARAMETRIC_REPRESENTATION_CONTEXT() REPRESENTATION_CONTEXT('2D SPACE',''
  ) );
#992 = PCURVE('',#137,#993);
#993 = DEFINITIONAL_REPRESENTATION('',(#994),#998);
#994 = LINE('',#995,#996);
#995 = CARTESIAN_POINT('',(20.,0.));
#996 = VECTOR('',#997,1.);
#997 = DIRECTION('',(0.,1.));
#998 = ( GEOMETRIC_REPRESENTATION_CONTEXT(2) 
PARAMETRIC_REPRESENTATION_CONTEXT() REPRESENTATION_CONTEXT('2D SPACE',''
  ) );
#999 = ADVANCED_FACE('',(#1000),#137,.T.);
#1000 = FACE_BOUND('',#1001,.T.);
#1001 = EDGE_LOOP('',(#1002,#1023,#1024,#1045,#1046,#1047));
#1002 = ORIENTED_EDGE('',*,*,#1003,.F.);
#1003 = EDGE_CURVE('',#931,#801,#1004,.T.);
#1004 = SURFACE_CURVE('',#1005,(#1009,#1016),.PCURVE_S1.);
#1005 = LINE('',#1006,#1007);
#1006 = CARTESIAN_POINT('',(58.524100289998,62.324095830954,-11.));
#1007 = VECTOR('',#1008,1.);
#1008 = DIRECTION('',(0.,-1.,0.));
#1009 = PCURVE('',#137,#1010);
#1010 = DEFINITIONAL_REPRESENTATION('',(#1011),#1015);
#1011 = LINE('',#1012,#1013);
#1012 = CARTESIAN_POINT('',(20.,0.));
#1013 = VECTOR('',#1014,1.);
#1014 = DIRECTION('',(-1.,0.));
#1015 = ( GEOMETRIC_REPRESENTATION_CONTEXT(2) 
PARAMETRIC_REPRESENTATION_CONTEXT() REPRESENTATION_CONTEXT('2D SPACE',''
  ) );
#1016 = PCURVE('',#818,#1017);
#1017 = DEFINITIONAL_REPRESENTATION('',(#1018),#1022);
#1018 = LINE('',#1019,#1020);
#1019 = CARTESIAN_POINT('',(-6.25,-10.));
#1020 = VECTOR('',#1021,1.);
#1021 = DIRECTION('',(0.,1.));
#1022 = ( GEOMETRIC_REPRESENTATION_CONTEXT(2) 
PARAMETRIC_REPRESENTATION_CONTEXT() REPRESENTATION_CONTEXT('2D SPACE',''
  ) );
#1023 = ORIENTED_EDGE('',*,*,#979,.T.);
#1024 = ORIENTED_EDGE('',*,*,#1025,.F.);
#1025 = EDGE_CURVE('',#22,#957,#1026,.T.);
#1026 = SURFACE_CURVE('',#1027,(#1031,#1038),.PCURVE_S1.);
#1027 = LINE('',#1028,#1029);
#1028 = CARTESIAN_POINT('',(58.524100289998,62.324095830954,-8.5));
#1029 = VECTOR('',#1030,1.);
#1030 = DIRECTION('',(0.,1.,0.));
#1031 = PCURVE('',#137,#1032);
#1032 = DEFINITIONAL_REPRESENTATION('',(#1033),#1037);
#1033 = LINE('',#1034,#1035);
#1034 = CARTESIAN_POINT('',(20.,2.5));
#1035 = VECTOR('',#1036,1.);
#1036 = DIRECTION('',(1.,0.));
#1037 = ( GEOMETRIC_REPRESENTATION_CONTEXT(2) 
PARAMETRIC_REPRESENTATION_CONTEXT() REPRESENTATION_CONTEXT('2D SPACE',''
  ) );
#1038 = PCURVE('',#45,#1039);
#1039 = DEFINITIONAL_REPRESENTATION('',(#1040),#1044);
#1040 = LINE('',#1041,#1042);
#1041 = CARTESIAN_POINT('',(6.25,-10.));
#1042 = VECTOR('',#1043,1.);
#1043 = DIRECTION('',(0.,-1.));
#1044 = ( GEOMETRIC_REPRESENTATION_CONTEXT(2) 
PARAMETRIC_REPRESENTATION_CONTEXT() REPRESENTATION_CONTEXT('2D SPACE',''
  ) );
#1045 = ORIENTED_EDGE('',*,*,#61,.F.);
#1046 = ORIENTED_EDGE('',*,*,#620,.F.);
#1047 = ORIENTED_EDGE('',*,*,#830,.F.);
#1048 = ADVANCED_FACE('',(#1049),#45,.F.);
#1049 = FACE_BOUND('',#1050,.T.);
#1050 = EDGE_LOOP('',(#1051,#1052,#1053));
#1051 = ORIENTED_EDGE('',*,*,#21,.F.);
#1052 = ORIENTED_EDGE('',*,*,#1025,.T.);
#1053 = ORIENTED_EDGE('',*,*,#956,.T.);
#1054 = ADVANCED_FACE('',(#1055,#1061),#818,.F.);
#1055 = FACE_BOUND('',#1056,.T.);
#1056 = EDGE_LOOP('',(#1057,#1058,#1059,#1060));
#1057 = ORIENTED_EDGE('',*,*,#1003,.T.);
#1058 = ORIENTED_EDGE('',*,*,#800,.T.);
#1059 = ORIENTED_EDGE('',*,*,#878,.T.);
#1060 = ORIENTED_EDGE('',*,*,#930,.T.);
#1061 = FACE_BOUND('',#1062,.T.);
#1062 = EDGE_LOOP('',(#1063));
#1063 = ORIENTED_EDGE('',*,*,#1064,.F.);
#1064 = EDGE_CURVE('',#1065,#1065,#1067,.T.);
#1065 = VERTEX_POINT('',#1066);
#1066 = CARTESIAN_POINT('',(53.724100289998,52.324095830954,-11.));
#1067 = SURFACE_CURVE('',#1068,(#1073,#1084),.PCURVE_S1.);
#1068 = CIRCLE('',#1069,1.45);
#1069 = AXIS2_PLACEMENT_3D('',#1070,#1071,#1072);
#1070 = CARTESIAN_POINT('',(52.274100289998,52.324095830954,-11.));
#1071 = DIRECTION('',(0.,0.,-1.));
#1072 = DIRECTION('',(-1.,0.,0.));
#1073 = PCURVE('',#818,#1074);
#1074 = DEFINITIONAL_REPRESENTATION('',(#1075),#1083);
#1075 = ( BOUNDED_CURVE() B_SPLINE_CURVE(2,(#1076,#1077,#1078,#1079,
#1080,#1081,#1082),.UNSPECIFIED.,.T.,.F.) B_SPLINE_CURVE_WITH_KNOTS((1,2
    ,2,2,2,1),(-2.094395102393,0.,2.094395102393,4.188790204786,
6.28318530718,8.377580409573),.UNSPECIFIED.) CURVE() 
GEOMETRIC_REPRESENTATION_ITEM() RATIONAL_B_SPLINE_CURVE((1.,0.5,1.,0.5,
1.,0.5,1.)) REPRESENTATION_ITEM('') );
#1076 = CARTESIAN_POINT('',(1.45,0.));
#1077 = CARTESIAN_POINT('',(1.45,-2.511473670975));
#1078 = CARTESIAN_POINT('',(-0.725,-1.255736835487));
#1079 = CARTESIAN_POINT('',(-2.9,-3.551475717527E-16));
#1080 = CARTESIAN_POINT('',(-0.725,1.255736835487));
#1081 = CARTESIAN_POINT('',(1.45,2.511473670975));
#1082 = CARTESIAN_POINT('',(1.45,0.));
#1083 = ( GEOMETRIC_REPRESENTATION_CONTEXT(2) 
PARAMETRIC_REPRESENTATION_CONTEXT() REPRESENTATION_CONTEXT('2D SPACE',''
  ) );
#1084 = PCURVE('',#1085,#1090);
#1085 = CYLINDRICAL_SURFACE('',#1086,1.45);
#1086 = AXIS2_PLACEMENT_3D('',#1087,#1088,#1089);
#1087 = CARTESIAN_POINT('',(52.274100289998,52.324095830954,51.));
#1088 = DIRECTION('',(0.,0.,-1.));
#1089 = DIRECTION('',(-1.,0.,0.));
#1090 = DEFINITIONAL_REPRESENTATION('',(#1091),#1095);
#1091 = LINE('',#1092,#1093);
#1092 = CARTESIAN_POINT('',(0.,62.));
#1093 = VECTOR('',#1094,1.);
#1094 = DIRECTION('',(1.,0.));
#1095 = ( GEOMETRIC_REPRESENTATION_CONTEXT(2) 
PARAMETRIC_REPRESENTATION_CONTEXT() REPRESENTATION_CONTEXT('2D SPACE',''
  ) );
#1096 = ADVANCED_FACE('',(#1097,#1100),#757,.T.);
#1097 = FACE_BOUND('',#1098,.T.);
#1098 = EDGE_LOOP('',(#1099));
#1099 = ORIENTED_EDGE('',*,*,#740,.F.);
#1100 = FACE_BOUND('',#1101,.T.);
#1101 = EDGE_LOOP('',(#1102));
#1102 = ORIENTED_EDGE('',*,*,#1103,.T.);
#1103 = EDGE_CURVE('',#1104,#1104,#1106,.T.);
#1104 = VERTEX_POINT('',#1105);
#1105 = CARTESIAN_POINT('',(53.724100289998,52.324095830954,20.));
#1106 = SURFACE_CURVE('',#1107,(#1112,#1123),.PCURVE_S1.);
#1107 = CIRCLE('',#1108,1.45);
#1108 = AXIS2_PLACEMENT_3D('',#1109,#1110,#1111);
#1109 = CARTESIAN_POINT('',(52.274100289998,52.324095830954,20.));
#1110 = DIRECTION('',(0.,0.,-1.));
#1111 = DIRECTION('',(-1.,0.,0.));
#1112 = PCURVE('',#757,#1113);
#1113 = DEFINITIONAL_REPRESENTATION('',(#1114),#1122);
#1114 = ( BOUNDED_CURVE() B_SPLINE_CURVE(2,(#1115,#1116,#1117,#1118,
#1119,#1120,#1121),.UNSPECIFIED.,.T.,.F.) B_SPLINE_CURVE_WITH_KNOTS((1,2
    ,2,2,2,1),(-2.094395102393,0.,2.094395102393,4.188790204786,
6.28318530718,8.377580409573),.UNSPECIFIED.) CURVE() 
GEOMETRIC_REPRESENTATION_ITEM() RATIONAL_B_SPLINE_CURVE((1.,0.5,1.,0.5,
1.,0.5,1.)) REPRESENTATION_ITEM('') );
#1115 = CARTESIAN_POINT('',(1.45,0.));
#1116 = CARTESIAN_POINT('',(1.45,-2.511473670975));
#1117 = CARTESIAN_POINT('',(-0.725,-1.255736835487));
#1118 = CARTESIAN_POINT('',(-2.9,-3.551475717527E-16));
#1119 = CARTESIAN_POINT('',(-0.725,1.255736835487));
#1120 = CARTESIAN_POINT('',(1.45,2.511473670975));
#1121 = CARTESIAN_POINT('',(1.45,0.));
#1122 = ( GEOMETRIC_REPRESENTATION_CONTEXT(2) 
PARAMETRIC_REPRESENTATION_CONTEXT() REPRESENTATION_CONTEXT('2D SPACE',''
  ) );
#1123 = PCURVE('',#1085,#1124);
#1124 = DEFINITIONAL_REPRESENTATION('',(#1125),#1129);
#1125 = LINE('',#1126,#1127);
#1126 = CARTESIAN_POINT('',(0.,31.));
#1127 = VECTOR('',#1128,1.);
#1128 = DIRECTION('',(1.,0.));
#1129 = ( GEOMETRIC_REPRESENTATION_CONTEXT(2) 
PARAMETRIC_REPRESENTATION_CONTEXT() REPRESENTATION_CONTEXT('2D SPACE',''
  ) );
#1130 = ADVANCED_FACE('',(#1131),#1085,.F.);
#1131 = FACE_BOUND('',#1132,.F.);
#1132 = EDGE_LOOP('',(#1133,#1154,#1155,#1156));
#1133 = ORIENTED_EDGE('',*,*,#1134,.T.);
#1134 = EDGE_CURVE('',#1104,#1065,#1135,.T.);
#1135 = SEAM_CURVE('',#1136,(#1140,#1147),.PCURVE_S1.);
#1136 = LINE('',#1137,#1138);
#1137 = CARTESIAN_POINT('',(53.724100289998,52.324095830954,51.));
#1138 = VECTOR('',#1139,1.);
#1139 = DIRECTION('',(0.,0.,-1.));
#1140 = PCURVE('',#1085,#1141);
#1141 = DEFINITIONAL_REPRESENTATION('',(#1142),#1146);
#1142 = LINE('',#1143,#1144);
#1143 = CARTESIAN_POINT('',(9.424777960769,0.));
#1144 = VECTOR('',#1145,1.);
#1145 = DIRECTION('',(0.,1.));
#1146 = ( GEOMETRIC_REPRESENTATION_CONTEXT(2) 
PARAMETRIC_REPRESENTATION_CONTEXT() REPRESENTATION_CONTEXT('2D SPACE',''
  ) );
#1147 = PCURVE('',#1085,#1148);
#1148 = DEFINITIONAL_REPRESENTATION('',(#1149),#1153);
#1149 = LINE('',#1150,#1151);
#1150 = CARTESIAN_POINT('',(3.14159265359,0.));
#1151 = VECTOR('',#1152,1.);
#1152 = DIRECTION('',(0.,1.));
#1153 = ( GEOMETRIC_REPRESENTATION_CONTEXT(2) 
PARAMETRIC_REPRESENTATION_CONTEXT() REPRESENTATION_CONTEXT('2D SPACE',''
  ) );
#1154 = ORIENTED_EDGE('',*,*,#1064,.F.);
#1155 = ORIENTED_EDGE('',*,*,#1134,.F.);
#1156 = ORIENTED_EDGE('',*,*,#1103,.T.);
#1157 = ( GEOMETRIC_REPRESENTATION_CONTEXT(3) 
GLOBAL_UNCERTAINTY_ASSIGNED_CONTEXT((#1161)) 
GLOBAL_UNIT_ASSIGNED_CONTEXT((#1158,#1159,#1160)) REPRESENTATION_CONTEXT
('Context #1','3D Context with UNIT and UNCERTAINTY') );
#1158 = ( LENGTH_UNIT() NAMED_UNIT(*) SI_UNIT(.MILLI.,.METRE.) );
#1159 = ( NAMED_UNIT(*) PLANE_ANGLE_UNIT() SI_UNIT($,.RADIAN.) );
#1160 = ( NAMED_UNIT(*) SI_UNIT($,.STERADIAN.) SOLID_ANGLE_UNIT() );
#1161 = UNCERTAINTY_MEASURE_WITH_UNIT(LENGTH_MEASURE(1.E-03),#1158,
  'distance_accuracy_value','confusion accuracy');
#1162 = PRODUCT_RELATED_PRODUCT_CATEGORY('part',$,(#7));
ENDSEC;
END-ISO-10303-21;
