ISO-10303-21;
HEADER;
/* Generated by software containing ST-Developer
 * from STEP Tools, Inc. (www.steptools.com) 
 */

FILE_DESCRIPTION(
/* description */ (''),
/* implementation_level */ '2;1');

FILE_NAME(
/* name */ 'electronics holder2.step',
/* time_stamp */ '2026-08-13T20:49:08-04:00',
/* author */ (''),
/* organization */ (''),
/* preprocessor_version */ 'ST-DEVELOPER v20.1',
/* originating_system */ 'Autodesk Translation Framework v15.8.0.0',
/* authorisation */ '');

FILE_SCHEMA (('AUTOMOTIVE_DESIGN { 1 0 10303 214 3 1 1 }'));
ENDSEC;

DATA;
#10=MECHANICAL_DESIGN_GEOMETRIC_PRESENTATION_REPRESENTATION('',(#83,#84,
#85),#2248);
#11=SHAPE_REPRESENTATION_RELATIONSHIP('SRR','None',#2255,#12);
#12=ADVANCED_BREP_SHAPE_REPRESENTATION('',(#86,#87,#88),#2247);
#13=FACE_BOUND('',#189,.T.);
#14=FACE_BOUND('',#194,.T.);
#15=FACE_BOUND('',#199,.T.);
#16=FACE_BOUND('',#204,.T.);
#17=FACE_BOUND('',#209,.T.);
#18=FACE_BOUND('',#214,.T.);
#19=FACE_BOUND('',#220,.T.);
#20=FACE_BOUND('',#225,.T.);
#21=FACE_BOUND('',#226,.T.);
#22=FACE_BOUND('',#227,.T.);
#23=FACE_BOUND('',#228,.T.);
#24=FACE_BOUND('',#229,.T.);
#25=FACE_BOUND('',#231,.T.);
#26=B_SPLINE_CURVE_WITH_KNOTS('',3,(#2053,#2054,#2055,#2056,#2057,#2058,
#2059,#2060,#2061,#2062,#2063),.UNSPECIFIED.,.F.,.F.,(4,2,3,2,4),(-0.36251469099753,
-0.229831202091594,0.,0.229831202091594,0.362514690997531),
 .UNSPECIFIED.);
#27=TOROIDAL_SURFACE('',#1423,4.49999999999999,3.);
#28=CIRCLE('',#1380,3.);
#29=CIRCLE('',#1381,3.);
#30=CIRCLE('',#1384,3.);
#31=CIRCLE('',#1385,3.);
#32=CIRCLE('',#1387,3.);
#33=CIRCLE('',#1388,3.);
#34=CIRCLE('',#1390,3.);
#35=CIRCLE('',#1391,3.);
#36=CIRCLE('',#1394,3.);
#37=CIRCLE('',#1395,3.);
#38=CIRCLE('',#1398,3.);
#39=CIRCLE('',#1399,3.);
#40=CIRCLE('',#1402,3.);
#41=CIRCLE('',#1403,3.);
#42=CIRCLE('',#1406,3.);
#43=CIRCLE('',#1407,3.);
#44=CIRCLE('',#1409,3.);
#45=CIRCLE('',#1410,3.);
#46=CIRCLE('',#1412,3.);
#47=CIRCLE('',#1413,3.);
#48=CIRCLE('',#1416,3.);
#49=CIRCLE('',#1417,3.);
#50=CIRCLE('',#1420,3.);
#51=CIRCLE('',#1421,3.);
#52=CIRCLE('',#1424,4.49999999999999);
#53=CIRCLE('',#1425,3.);
#54=CIRCLE('',#1426,1.49999999999999);
#55=CIRCLE('',#1427,4.49999999999999);
#56=CIRCLE('',#1432,1.49999999999999);
#57=CIRCLE('',#1433,1.49999999999999);
#58=CIRCLE('',#1438,1.49999999999999);
#59=CIRCLE('',#1439,1.49999999999999);
#60=CIRCLE('',#1444,1.49999999999999);
#61=CIRCLE('',#1445,1.49999999999999);
#62=CIRCLE('',#1450,1.49999999999999);
#63=CIRCLE('',#1451,1.49999999999999);
#64=CIRCLE('',#1456,1.49999999999999);
#65=CIRCLE('',#1457,1.49999999999999);
#66=CYLINDRICAL_SURFACE('',#1379,3.);
#67=CYLINDRICAL_SURFACE('',#1383,3.);
#68=CYLINDRICAL_SURFACE('',#1386,3.);
#69=CYLINDRICAL_SURFACE('',#1389,3.);
#70=CYLINDRICAL_SURFACE('',#1393,3.);
#71=CYLINDRICAL_SURFACE('',#1397,3.);
#72=CYLINDRICAL_SURFACE('',#1401,3.);
#73=CYLINDRICAL_SURFACE('',#1405,3.);
#74=CYLINDRICAL_SURFACE('',#1408,3.);
#75=CYLINDRICAL_SURFACE('',#1411,3.);
#76=CYLINDRICAL_SURFACE('',#1415,3.);
#77=CYLINDRICAL_SURFACE('',#1419,3.);
#78=CYLINDRICAL_SURFACE('',#1431,1.49999999999999);
#79=CYLINDRICAL_SURFACE('',#1437,1.49999999999999);
#80=CYLINDRICAL_SURFACE('',#1443,1.49999999999999);
#81=CYLINDRICAL_SURFACE('',#1449,1.49999999999999);
#82=CYLINDRICAL_SURFACE('',#1455,1.49999999999999);
#83=STYLED_ITEM('',(#2264),#86);
#84=STYLED_ITEM('',(#2264),#87);
#85=STYLED_ITEM('',(#2264),#88);
#86=MANIFOLD_SOLID_BREP('Body1',#1357);
#87=MANIFOLD_SOLID_BREP('odrive bottom casing shell',#1358);
#88=MANIFOLD_SOLID_BREP('top casing lid',#1359);
#89=FACE_OUTER_BOUND('',#159,.T.);
#90=FACE_OUTER_BOUND('',#160,.T.);
#91=FACE_OUTER_BOUND('',#161,.T.);
#92=FACE_OUTER_BOUND('',#162,.T.);
#93=FACE_OUTER_BOUND('',#163,.T.);
#94=FACE_OUTER_BOUND('',#164,.T.);
#95=FACE_OUTER_BOUND('',#165,.T.);
#96=FACE_OUTER_BOUND('',#166,.T.);
#97=FACE_OUTER_BOUND('',#167,.T.);
#98=FACE_OUTER_BOUND('',#168,.T.);
#99=FACE_OUTER_BOUND('',#169,.T.);
#100=FACE_OUTER_BOUND('',#170,.T.);
#101=FACE_OUTER_BOUND('',#171,.T.);
#102=FACE_OUTER_BOUND('',#172,.T.);
#103=FACE_OUTER_BOUND('',#173,.T.);
#104=FACE_OUTER_BOUND('',#174,.T.);
#105=FACE_OUTER_BOUND('',#175,.T.);
#106=FACE_OUTER_BOUND('',#176,.T.);
#107=FACE_OUTER_BOUND('',#177,.T.);
#108=FACE_OUTER_BOUND('',#178,.T.);
#109=FACE_OUTER_BOUND('',#179,.T.);
#110=FACE_OUTER_BOUND('',#180,.T.);
#111=FACE_OUTER_BOUND('',#181,.T.);
#112=FACE_OUTER_BOUND('',#182,.T.);
#113=FACE_OUTER_BOUND('',#183,.T.);
#114=FACE_OUTER_BOUND('',#184,.T.);
#115=FACE_OUTER_BOUND('',#185,.T.);
#116=FACE_OUTER_BOUND('',#186,.T.);
#117=FACE_OUTER_BOUND('',#187,.T.);
#118=FACE_OUTER_BOUND('',#188,.T.);
#119=FACE_OUTER_BOUND('',#190,.T.);
#120=FACE_OUTER_BOUND('',#191,.T.);
#121=FACE_OUTER_BOUND('',#192,.T.);
#122=FACE_OUTER_BOUND('',#193,.T.);
#123=FACE_OUTER_BOUND('',#195,.T.);
#124=FACE_OUTER_BOUND('',#196,.T.);
#125=FACE_OUTER_BOUND('',#197,.T.);
#126=FACE_OUTER_BOUND('',#198,.T.);
#127=FACE_OUTER_BOUND('',#200,.T.);
#128=FACE_OUTER_BOUND('',#201,.T.);
#129=FACE_OUTER_BOUND('',#202,.T.);
#130=FACE_OUTER_BOUND('',#203,.T.);
#131=FACE_OUTER_BOUND('',#205,.T.);
#132=FACE_OUTER_BOUND('',#206,.T.);
#133=FACE_OUTER_BOUND('',#207,.T.);
#134=FACE_OUTER_BOUND('',#208,.T.);
#135=FACE_OUTER_BOUND('',#210,.T.);
#136=FACE_OUTER_BOUND('',#211,.T.);
#137=FACE_OUTER_BOUND('',#212,.T.);
#138=FACE_OUTER_BOUND('',#213,.T.);
#139=FACE_OUTER_BOUND('',#215,.T.);
#140=FACE_OUTER_BOUND('',#216,.T.);
#141=FACE_OUTER_BOUND('',#217,.T.);
#142=FACE_OUTER_BOUND('',#218,.T.);
#143=FACE_OUTER_BOUND('',#219,.T.);
#144=FACE_OUTER_BOUND('',#221,.T.);
#145=FACE_OUTER_BOUND('',#222,.T.);
#146=FACE_OUTER_BOUND('',#223,.T.);
#147=FACE_OUTER_BOUND('',#224,.T.);
#148=FACE_OUTER_BOUND('',#230,.T.);
#149=FACE_OUTER_BOUND('',#232,.T.);
#150=FACE_OUTER_BOUND('',#233,.T.);
#151=FACE_OUTER_BOUND('',#234,.T.);
#152=FACE_OUTER_BOUND('',#235,.T.);
#153=FACE_OUTER_BOUND('',#236,.T.);
#154=FACE_OUTER_BOUND('',#237,.T.);
#155=FACE_OUTER_BOUND('',#238,.T.);
#156=FACE_OUTER_BOUND('',#239,.T.);
#157=FACE_OUTER_BOUND('',#240,.T.);
#158=FACE_OUTER_BOUND('',#241,.T.);
#159=EDGE_LOOP('',(#857,#858,#859,#860));
#160=EDGE_LOOP('',(#861,#862,#863,#864));
#161=EDGE_LOOP('',(#865,#866,#867,#868));
#162=EDGE_LOOP('',(#869,#870,#871,#872));
#163=EDGE_LOOP('',(#873,#874,#875,#876));
#164=EDGE_LOOP('',(#877,#878,#879,#880));
#165=EDGE_LOOP('',(#881,#882,#883,#884));
#166=EDGE_LOOP('',(#885,#886,#887,#888,#889,#890,#891,#892,#893,#894,#895,
#896,#897,#898,#899,#900));
#167=EDGE_LOOP('',(#901,#902,#903,#904));
#168=EDGE_LOOP('',(#905,#906,#907,#908));
#169=EDGE_LOOP('',(#909,#910,#911,#912));
#170=EDGE_LOOP('',(#913,#914,#915,#916));
#171=EDGE_LOOP('',(#917,#918,#919,#920));
#172=EDGE_LOOP('',(#921,#922,#923,#924));
#173=EDGE_LOOP('',(#925,#926,#927,#928));
#174=EDGE_LOOP('',(#929,#930,#931,#932));
#175=EDGE_LOOP('',(#933,#934,#935,#936));
#176=EDGE_LOOP('',(#937,#938,#939,#940,#941,#942,#943,#944,#945,#946,#947,
#948,#949,#950,#951,#952));
#177=EDGE_LOOP('',(#953,#954,#955,#956));
#178=EDGE_LOOP('',(#957,#958,#959,#960));
#179=EDGE_LOOP('',(#961,#962,#963,#964));
#180=EDGE_LOOP('',(#965,#966,#967,#968));
#181=EDGE_LOOP('',(#969,#970,#971,#972));
#182=EDGE_LOOP('',(#973,#974,#975,#976));
#183=EDGE_LOOP('',(#977,#978,#979,#980));
#184=EDGE_LOOP('',(#981,#982,#983,#984));
#185=EDGE_LOOP('',(#985,#986,#987,#988,#989,#990));
#186=EDGE_LOOP('',(#991,#992,#993,#994,#995,#996));
#187=EDGE_LOOP('',(#997,#998,#999,#1000));
#188=EDGE_LOOP('',(#1001,#1002,#1003,#1004,#1005,#1006));
#189=EDGE_LOOP('',(#1007));
#190=EDGE_LOOP('',(#1008,#1009,#1010,#1011));
#191=EDGE_LOOP('',(#1012,#1013,#1014,#1015));
#192=EDGE_LOOP('',(#1016,#1017,#1018,#1019));
#193=EDGE_LOOP('',(#1020,#1021,#1022,#1023,#1024,#1025));
#194=EDGE_LOOP('',(#1026));
#195=EDGE_LOOP('',(#1027,#1028,#1029,#1030));
#196=EDGE_LOOP('',(#1031,#1032,#1033,#1034));
#197=EDGE_LOOP('',(#1035,#1036,#1037,#1038));
#198=EDGE_LOOP('',(#1039,#1040,#1041,#1042,#1043,#1044));
#199=EDGE_LOOP('',(#1045));
#200=EDGE_LOOP('',(#1046,#1047,#1048,#1049));
#201=EDGE_LOOP('',(#1050,#1051,#1052,#1053));
#202=EDGE_LOOP('',(#1054,#1055,#1056,#1057));
#203=EDGE_LOOP('',(#1058,#1059,#1060,#1061,#1062,#1063));
#204=EDGE_LOOP('',(#1064));
#205=EDGE_LOOP('',(#1065,#1066,#1067,#1068));
#206=EDGE_LOOP('',(#1069,#1070,#1071,#1072));
#207=EDGE_LOOP('',(#1073,#1074,#1075,#1076));
#208=EDGE_LOOP('',(#1077,#1078,#1079,#1080,#1081,#1082));
#209=EDGE_LOOP('',(#1083));
#210=EDGE_LOOP('',(#1084,#1085,#1086,#1087));
#211=EDGE_LOOP('',(#1088,#1089,#1090,#1091));
#212=EDGE_LOOP('',(#1092,#1093,#1094,#1095));
#213=EDGE_LOOP('',(#1096,#1097,#1098,#1099,#1100,#1101));
#214=EDGE_LOOP('',(#1102));
#215=EDGE_LOOP('',(#1103,#1104,#1105,#1106));
#216=EDGE_LOOP('',(#1107,#1108,#1109,#1110));
#217=EDGE_LOOP('',(#1111,#1112,#1113,#1114));
#218=EDGE_LOOP('',(#1115,#1116,#1117,#1118));
#219=EDGE_LOOP('',(#1119,#1120,#1121,#1122));
#220=EDGE_LOOP('',(#1123,#1124,#1125,#1126));
#221=EDGE_LOOP('',(#1127,#1128,#1129,#1130));
#222=EDGE_LOOP('',(#1131,#1132,#1133,#1134));
#223=EDGE_LOOP('',(#1135,#1136,#1137,#1138));
#224=EDGE_LOOP('',(#1139,#1140,#1141,#1142,#1143,#1144,#1145,#1146,#1147,
#1148,#1149,#1150,#1151,#1152,#1153,#1154,#1155,#1156,#1157,#1158,#1159,
#1160,#1161,#1162,#1163,#1164,#1165,#1166,#1167,#1168,#1169,#1170,#1171,
#1172,#1173,#1174,#1175,#1176,#1177,#1178,#1179,#1180,#1181));
#225=EDGE_LOOP('',(#1182));
#226=EDGE_LOOP('',(#1183));
#227=EDGE_LOOP('',(#1184));
#228=EDGE_LOOP('',(#1185));
#229=EDGE_LOOP('',(#1186));
#230=EDGE_LOOP('',(#1187,#1188,#1189,#1190));
#231=EDGE_LOOP('',(#1191,#1192,#1193,#1194));
#232=EDGE_LOOP('',(#1195,#1196,#1197,#1198));
#233=EDGE_LOOP('',(#1199,#1200,#1201,#1202));
#234=EDGE_LOOP('',(#1203,#1204,#1205,#1206));
#235=EDGE_LOOP('',(#1207,#1208,#1209,#1210));
#236=EDGE_LOOP('',(#1211,#1212,#1213,#1214));
#237=EDGE_LOOP('',(#1215,#1216,#1217,#1218));
#238=EDGE_LOOP('',(#1219,#1220,#1221,#1222));
#239=EDGE_LOOP('',(#1223,#1224,#1225,#1226));
#240=EDGE_LOOP('',(#1227,#1228,#1229,#1230));
#241=EDGE_LOOP('',(#1231,#1232,#1233,#1234));
#242=LINE('',#1853,#392);
#243=LINE('',#1855,#393);
#244=LINE('',#1857,#394);
#245=LINE('',#1858,#395);
#246=LINE('',#1861,#396);
#247=LINE('',#1863,#397);
#248=LINE('',#1864,#398);
#249=LINE('',#1867,#399);
#250=LINE('',#1869,#400);
#251=LINE('',#1870,#401);
#252=LINE('',#1872,#402);
#253=LINE('',#1873,#403);
#254=LINE('',#1881,#404);
#255=LINE('',#1884,#405);
#256=LINE('',#1887,#406);
#257=LINE('',#1889,#407);
#258=LINE('',#1891,#408);
#259=LINE('',#1893,#409);
#260=LINE('',#1895,#410);
#261=LINE('',#1897,#411);
#262=LINE('',#1899,#412);
#263=LINE('',#1901,#413);
#264=LINE('',#1903,#414);
#265=LINE('',#1905,#415);
#266=LINE('',#1907,#416);
#267=LINE('',#1909,#417);
#268=LINE('',#1911,#418);
#269=LINE('',#1913,#419);
#270=LINE('',#1914,#420);
#271=LINE('',#1920,#421);
#272=LINE('',#1926,#422);
#273=LINE('',#1931,#423);
#274=LINE('',#1935,#424);
#275=LINE('',#1937,#425);
#276=LINE('',#1938,#426);
#277=LINE('',#1943,#427);
#278=LINE('',#1947,#428);
#279=LINE('',#1949,#429);
#280=LINE('',#1950,#430);
#281=LINE('',#1955,#431);
#282=LINE('',#1959,#432);
#283=LINE('',#1961,#433);
#284=LINE('',#1962,#434);
#285=LINE('',#1968,#435);
#286=LINE('',#1971,#436);
#287=LINE('',#1974,#437);
#288=LINE('',#1976,#438);
#289=LINE('',#1978,#439);
#290=LINE('',#1980,#440);
#291=LINE('',#1982,#441);
#292=LINE('',#1984,#442);
#293=LINE('',#1986,#443);
#294=LINE('',#1988,#444);
#295=LINE('',#1990,#445);
#296=LINE('',#1992,#446);
#297=LINE('',#1994,#447);
#298=LINE('',#1996,#448);
#299=LINE('',#1998,#449);
#300=LINE('',#2000,#450);
#301=LINE('',#2001,#451);
#302=LINE('',#2007,#452);
#303=LINE('',#2013,#453);
#304=LINE('',#2018,#454);
#305=LINE('',#2022,#455);
#306=LINE('',#2024,#456);
#307=LINE('',#2025,#457);
#308=LINE('',#2030,#458);
#309=LINE('',#2034,#459);
#310=LINE('',#2036,#460);
#311=LINE('',#2037,#461);
#312=LINE('',#2042,#462);
#313=LINE('',#2046,#463);
#314=LINE('',#2048,#464);
#315=LINE('',#2049,#465);
#316=LINE('',#2071,#466);
#317=LINE('',#2073,#467);
#318=LINE('',#2075,#468);
#319=LINE('',#2076,#469);
#320=LINE('',#2078,#470);
#321=LINE('',#2079,#471);
#322=LINE('',#2085,#472);
#323=LINE('',#2089,#473);
#324=LINE('',#2091,#474);
#325=LINE('',#2092,#475);
#326=LINE('',#2094,#476);
#327=LINE('',#2095,#477);
#328=LINE('',#2101,#478);
#329=LINE('',#2105,#479);
#330=LINE('',#2107,#480);
#331=LINE('',#2108,#481);
#332=LINE('',#2110,#482);
#333=LINE('',#2111,#483);
#334=LINE('',#2117,#484);
#335=LINE('',#2121,#485);
#336=LINE('',#2123,#486);
#337=LINE('',#2124,#487);
#338=LINE('',#2126,#488);
#339=LINE('',#2127,#489);
#340=LINE('',#2133,#490);
#341=LINE('',#2137,#491);
#342=LINE('',#2139,#492);
#343=LINE('',#2140,#493);
#344=LINE('',#2142,#494);
#345=LINE('',#2143,#495);
#346=LINE('',#2149,#496);
#347=LINE('',#2153,#497);
#348=LINE('',#2155,#498);
#349=LINE('',#2156,#499);
#350=LINE('',#2158,#500);
#351=LINE('',#2159,#501);
#352=LINE('',#2164,#502);
#353=LINE('',#2166,#503);
#354=LINE('',#2168,#504);
#355=LINE('',#2169,#505);
#356=LINE('',#2172,#506);
#357=LINE('',#2174,#507);
#358=LINE('',#2175,#508);
#359=LINE('',#2178,#509);
#360=LINE('',#2180,#510);
#361=LINE('',#2181,#511);
#362=LINE('',#2183,#512);
#363=LINE('',#2184,#513);
#364=LINE('',#2186,#514);
#365=LINE('',#2187,#515);
#366=LINE('',#2189,#516);
#367=LINE('',#2191,#517);
#368=LINE('',#2197,#518);
#369=LINE('',#2199,#519);
#370=LINE('',#2201,#520);
#371=LINE('',#2202,#521);
#372=LINE('',#2205,#522);
#373=LINE('',#2207,#523);
#374=LINE('',#2209,#524);
#375=LINE('',#2210,#525);
#376=LINE('',#2213,#526);
#377=LINE('',#2215,#527);
#378=LINE('',#2216,#528);
#379=LINE('',#2219,#529);
#380=LINE('',#2220,#530);
#381=LINE('',#2223,#531);
#382=LINE('',#2225,#532);
#383=LINE('',#2226,#533);
#384=LINE('',#2229,#534);
#385=LINE('',#2230,#535);
#386=LINE('',#2233,#536);
#387=LINE('',#2234,#537);
#388=LINE('',#2236,#538);
#389=LINE('',#2239,#539);
#390=LINE('',#2240,#540);
#391=LINE('',#2242,#541);
#392=VECTOR('',#1485,10.);
#393=VECTOR('',#1486,10.);
#394=VECTOR('',#1487,10.);
#395=VECTOR('',#1488,10.);
#396=VECTOR('',#1491,10.);
#397=VECTOR('',#1492,10.);
#398=VECTOR('',#1493,10.);
#399=VECTOR('',#1496,10.);
#400=VECTOR('',#1497,10.);
#401=VECTOR('',#1498,10.);
#402=VECTOR('',#1501,10.);
#403=VECTOR('',#1502,10.);
#404=VECTOR('',#1511,10.);
#405=VECTOR('',#1514,10.);
#406=VECTOR('',#1517,10.);
#407=VECTOR('',#1518,10.);
#408=VECTOR('',#1519,10.);
#409=VECTOR('',#1520,10.);
#410=VECTOR('',#1521,10.);
#411=VECTOR('',#1522,10.);
#412=VECTOR('',#1523,10.);
#413=VECTOR('',#1524,10.);
#414=VECTOR('',#1525,10.);
#415=VECTOR('',#1526,10.);
#416=VECTOR('',#1527,10.);
#417=VECTOR('',#1528,10.);
#418=VECTOR('',#1529,10.);
#419=VECTOR('',#1530,10.);
#420=VECTOR('',#1531,10.);
#421=VECTOR('',#1538,10.);
#422=VECTOR('',#1545,10.);
#423=VECTOR('',#1550,10.);
#424=VECTOR('',#1555,10.);
#425=VECTOR('',#1556,10.);
#426=VECTOR('',#1557,10.);
#427=VECTOR('',#1562,10.);
#428=VECTOR('',#1567,10.);
#429=VECTOR('',#1568,10.);
#430=VECTOR('',#1569,10.);
#431=VECTOR('',#1574,10.);
#432=VECTOR('',#1579,10.);
#433=VECTOR('',#1580,10.);
#434=VECTOR('',#1581,10.);
#435=VECTOR('',#1586,10.);
#436=VECTOR('',#1589,10.);
#437=VECTOR('',#1592,10.);
#438=VECTOR('',#1593,10.);
#439=VECTOR('',#1594,10.);
#440=VECTOR('',#1595,10.);
#441=VECTOR('',#1596,10.);
#442=VECTOR('',#1597,10.);
#443=VECTOR('',#1598,10.);
#444=VECTOR('',#1599,10.);
#445=VECTOR('',#1600,10.);
#446=VECTOR('',#1601,10.);
#447=VECTOR('',#1602,10.);
#448=VECTOR('',#1603,10.);
#449=VECTOR('',#1604,10.);
#450=VECTOR('',#1605,10.);
#451=VECTOR('',#1606,10.);
#452=VECTOR('',#1613,10.);
#453=VECTOR('',#1620,10.);
#454=VECTOR('',#1625,10.);
#455=VECTOR('',#1630,10.);
#456=VECTOR('',#1631,10.);
#457=VECTOR('',#1632,10.);
#458=VECTOR('',#1637,10.);
#459=VECTOR('',#1642,10.);
#460=VECTOR('',#1643,10.);
#461=VECTOR('',#1644,10.);
#462=VECTOR('',#1649,10.);
#463=VECTOR('',#1654,10.);
#464=VECTOR('',#1655,10.);
#465=VECTOR('',#1656,10.);
#466=VECTOR('',#1669,10.);
#467=VECTOR('',#1670,10.);
#468=VECTOR('',#1671,10.);
#469=VECTOR('',#1672,10.);
#470=VECTOR('',#1675,10.);
#471=VECTOR('',#1676,10.);
#472=VECTOR('',#1683,1.49999999999999);
#473=VECTOR('',#1688,10.);
#474=VECTOR('',#1689,10.);
#475=VECTOR('',#1690,10.);
#476=VECTOR('',#1693,10.);
#477=VECTOR('',#1694,10.);
#478=VECTOR('',#1701,1.49999999999999);
#479=VECTOR('',#1706,10.);
#480=VECTOR('',#1707,10.);
#481=VECTOR('',#1708,10.);
#482=VECTOR('',#1711,10.);
#483=VECTOR('',#1712,10.);
#484=VECTOR('',#1719,1.49999999999999);
#485=VECTOR('',#1724,10.);
#486=VECTOR('',#1725,10.);
#487=VECTOR('',#1726,10.);
#488=VECTOR('',#1729,10.);
#489=VECTOR('',#1730,10.);
#490=VECTOR('',#1737,1.49999999999999);
#491=VECTOR('',#1742,10.);
#492=VECTOR('',#1743,10.);
#493=VECTOR('',#1744,10.);
#494=VECTOR('',#1747,10.);
#495=VECTOR('',#1748,10.);
#496=VECTOR('',#1755,1.49999999999999);
#497=VECTOR('',#1760,10.);
#498=VECTOR('',#1761,10.);
#499=VECTOR('',#1762,10.);
#500=VECTOR('',#1765,10.);
#501=VECTOR('',#1766,10.);
#502=VECTOR('',#1771,10.);
#503=VECTOR('',#1772,10.);
#504=VECTOR('',#1773,10.);
#505=VECTOR('',#1774,10.);
#506=VECTOR('',#1777,10.);
#507=VECTOR('',#1778,10.);
#508=VECTOR('',#1779,10.);
#509=VECTOR('',#1782,10.);
#510=VECTOR('',#1783,10.);
#511=VECTOR('',#1784,10.);
#512=VECTOR('',#1787,10.);
#513=VECTOR('',#1788,10.);
#514=VECTOR('',#1791,10.);
#515=VECTOR('',#1792,10.);
#516=VECTOR('',#1795,10.);
#517=VECTOR('',#1798,10.);
#518=VECTOR('',#1805,10.);
#519=VECTOR('',#1806,10.);
#520=VECTOR('',#1807,10.);
#521=VECTOR('',#1808,10.);
#522=VECTOR('',#1809,10.);
#523=VECTOR('',#1810,10.);
#524=VECTOR('',#1811,10.);
#525=VECTOR('',#1812,10.);
#526=VECTOR('',#1815,10.);
#527=VECTOR('',#1816,10.);
#528=VECTOR('',#1817,10.);
#529=VECTOR('',#1820,10.);
#530=VECTOR('',#1821,10.);
#531=VECTOR('',#1824,10.);
#532=VECTOR('',#1825,10.);
#533=VECTOR('',#1826,10.);
#534=VECTOR('',#1829,10.);
#535=VECTOR('',#1830,10.);
#536=VECTOR('',#1833,10.);
#537=VECTOR('',#1834,10.);
#538=VECTOR('',#1837,10.);
#539=VECTOR('',#1840,10.);
#540=VECTOR('',#1841,10.);
#541=VECTOR('',#1844,10.);
#542=VERTEX_POINT('',#1851);
#543=VERTEX_POINT('',#1852);
#544=VERTEX_POINT('',#1854);
#545=VERTEX_POINT('',#1856);
#546=VERTEX_POINT('',#1860);
#547=VERTEX_POINT('',#1862);
#548=VERTEX_POINT('',#1866);
#549=VERTEX_POINT('',#1868);
#550=VERTEX_POINT('',#1877);
#551=VERTEX_POINT('',#1878);
#552=VERTEX_POINT('',#1880);
#553=VERTEX_POINT('',#1882);
#554=VERTEX_POINT('',#1886);
#555=VERTEX_POINT('',#1888);
#556=VERTEX_POINT('',#1890);
#557=VERTEX_POINT('',#1892);
#558=VERTEX_POINT('',#1894);
#559=VERTEX_POINT('',#1896);
#560=VERTEX_POINT('',#1898);
#561=VERTEX_POINT('',#1900);
#562=VERTEX_POINT('',#1902);
#563=VERTEX_POINT('',#1904);
#564=VERTEX_POINT('',#1906);
#565=VERTEX_POINT('',#1908);
#566=VERTEX_POINT('',#1910);
#567=VERTEX_POINT('',#1912);
#568=VERTEX_POINT('',#1916);
#569=VERTEX_POINT('',#1918);
#570=VERTEX_POINT('',#1922);
#571=VERTEX_POINT('',#1924);
#572=VERTEX_POINT('',#1928);
#573=VERTEX_POINT('',#1930);
#574=VERTEX_POINT('',#1934);
#575=VERTEX_POINT('',#1936);
#576=VERTEX_POINT('',#1940);
#577=VERTEX_POINT('',#1942);
#578=VERTEX_POINT('',#1946);
#579=VERTEX_POINT('',#1948);
#580=VERTEX_POINT('',#1952);
#581=VERTEX_POINT('',#1954);
#582=VERTEX_POINT('',#1958);
#583=VERTEX_POINT('',#1960);
#584=VERTEX_POINT('',#1964);
#585=VERTEX_POINT('',#1965);
#586=VERTEX_POINT('',#1967);
#587=VERTEX_POINT('',#1969);
#588=VERTEX_POINT('',#1973);
#589=VERTEX_POINT('',#1975);
#590=VERTEX_POINT('',#1977);
#591=VERTEX_POINT('',#1979);
#592=VERTEX_POINT('',#1981);
#593=VERTEX_POINT('',#1983);
#594=VERTEX_POINT('',#1985);
#595=VERTEX_POINT('',#1987);
#596=VERTEX_POINT('',#1989);
#597=VERTEX_POINT('',#1991);
#598=VERTEX_POINT('',#1993);
#599=VERTEX_POINT('',#1995);
#600=VERTEX_POINT('',#1997);
#601=VERTEX_POINT('',#1999);
#602=VERTEX_POINT('',#2003);
#603=VERTEX_POINT('',#2005);
#604=VERTEX_POINT('',#2009);
#605=VERTEX_POINT('',#2011);
#606=VERTEX_POINT('',#2015);
#607=VERTEX_POINT('',#2017);
#608=VERTEX_POINT('',#2021);
#609=VERTEX_POINT('',#2023);
#610=VERTEX_POINT('',#2027);
#611=VERTEX_POINT('',#2029);
#612=VERTEX_POINT('',#2033);
#613=VERTEX_POINT('',#2035);
#614=VERTEX_POINT('',#2039);
#615=VERTEX_POINT('',#2041);
#616=VERTEX_POINT('',#2045);
#617=VERTEX_POINT('',#2047);
#618=VERTEX_POINT('',#2051);
#619=VERTEX_POINT('',#2052);
#620=VERTEX_POINT('',#2064);
#621=VERTEX_POINT('',#2066);
#622=VERTEX_POINT('',#2072);
#623=VERTEX_POINT('',#2074);
#624=VERTEX_POINT('',#2082);
#625=VERTEX_POINT('',#2084);
#626=VERTEX_POINT('',#2088);
#627=VERTEX_POINT('',#2090);
#628=VERTEX_POINT('',#2098);
#629=VERTEX_POINT('',#2100);
#630=VERTEX_POINT('',#2104);
#631=VERTEX_POINT('',#2106);
#632=VERTEX_POINT('',#2114);
#633=VERTEX_POINT('',#2116);
#634=VERTEX_POINT('',#2120);
#635=VERTEX_POINT('',#2122);
#636=VERTEX_POINT('',#2130);
#637=VERTEX_POINT('',#2132);
#638=VERTEX_POINT('',#2136);
#639=VERTEX_POINT('',#2138);
#640=VERTEX_POINT('',#2146);
#641=VERTEX_POINT('',#2148);
#642=VERTEX_POINT('',#2152);
#643=VERTEX_POINT('',#2154);
#644=VERTEX_POINT('',#2162);
#645=VERTEX_POINT('',#2163);
#646=VERTEX_POINT('',#2165);
#647=VERTEX_POINT('',#2167);
#648=VERTEX_POINT('',#2171);
#649=VERTEX_POINT('',#2173);
#650=VERTEX_POINT('',#2177);
#651=VERTEX_POINT('',#2179);
#652=VERTEX_POINT('',#2195);
#653=VERTEX_POINT('',#2196);
#654=VERTEX_POINT('',#2198);
#655=VERTEX_POINT('',#2200);
#656=VERTEX_POINT('',#2203);
#657=VERTEX_POINT('',#2204);
#658=VERTEX_POINT('',#2206);
#659=VERTEX_POINT('',#2208);
#660=VERTEX_POINT('',#2212);
#661=VERTEX_POINT('',#2214);
#662=VERTEX_POINT('',#2218);
#663=VERTEX_POINT('',#2222);
#664=VERTEX_POINT('',#2224);
#665=VERTEX_POINT('',#2228);
#666=VERTEX_POINT('',#2232);
#667=VERTEX_POINT('',#2238);
#668=EDGE_CURVE('',#542,#543,#242,.T.);
#669=EDGE_CURVE('',#542,#544,#243,.T.);
#670=EDGE_CURVE('',#545,#544,#244,.T.);
#671=EDGE_CURVE('',#543,#545,#245,.T.);
#672=EDGE_CURVE('',#543,#546,#246,.T.);
#673=EDGE_CURVE('',#547,#545,#247,.T.);
#674=EDGE_CURVE('',#546,#547,#248,.T.);
#675=EDGE_CURVE('',#546,#548,#249,.T.);
#676=EDGE_CURVE('',#549,#547,#250,.T.);
#677=EDGE_CURVE('',#548,#549,#251,.T.);
#678=EDGE_CURVE('',#548,#542,#252,.T.);
#679=EDGE_CURVE('',#544,#549,#253,.T.);
#680=EDGE_CURVE('',#550,#551,#28,.T.);
#681=EDGE_CURVE('',#551,#552,#254,.T.);
#682=EDGE_CURVE('',#552,#553,#29,.T.);
#683=EDGE_CURVE('',#553,#550,#255,.T.);
#684=EDGE_CURVE('',#551,#554,#256,.T.);
#685=EDGE_CURVE('',#555,#554,#257,.T.);
#686=EDGE_CURVE('',#555,#556,#258,.T.);
#687=EDGE_CURVE('',#557,#556,#259,.T.);
#688=EDGE_CURVE('',#557,#558,#260,.T.);
#689=EDGE_CURVE('',#559,#558,#261,.T.);
#690=EDGE_CURVE('',#559,#560,#262,.T.);
#691=EDGE_CURVE('',#560,#561,#263,.T.);
#692=EDGE_CURVE('',#562,#561,#264,.T.);
#693=EDGE_CURVE('',#563,#562,#265,.T.);
#694=EDGE_CURVE('',#563,#564,#266,.T.);
#695=EDGE_CURVE('',#565,#564,#267,.T.);
#696=EDGE_CURVE('',#565,#566,#268,.T.);
#697=EDGE_CURVE('',#567,#566,#269,.T.);
#698=EDGE_CURVE('',#567,#552,#270,.T.);
#699=EDGE_CURVE('',#568,#557,#30,.T.);
#700=EDGE_CURVE('',#556,#569,#31,.T.);
#701=EDGE_CURVE('',#569,#568,#271,.T.);
#702=EDGE_CURVE('',#570,#565,#32,.T.);
#703=EDGE_CURVE('',#564,#571,#33,.T.);
#704=EDGE_CURVE('',#571,#570,#272,.T.);
#705=EDGE_CURVE('',#566,#572,#34,.T.);
#706=EDGE_CURVE('',#572,#573,#273,.T.);
#707=EDGE_CURVE('',#573,#567,#35,.T.);
#708=EDGE_CURVE('',#574,#572,#274,.T.);
#709=EDGE_CURVE('',#575,#574,#275,.T.);
#710=EDGE_CURVE('',#575,#573,#276,.T.);
#711=EDGE_CURVE('',#554,#576,#36,.T.);
#712=EDGE_CURVE('',#576,#577,#277,.T.);
#713=EDGE_CURVE('',#577,#555,#37,.T.);
#714=EDGE_CURVE('',#578,#576,#278,.T.);
#715=EDGE_CURVE('',#579,#578,#279,.T.);
#716=EDGE_CURVE('',#577,#579,#280,.T.);
#717=EDGE_CURVE('',#558,#580,#38,.T.);
#718=EDGE_CURVE('',#580,#581,#281,.T.);
#719=EDGE_CURVE('',#581,#559,#39,.T.);
#720=EDGE_CURVE('',#582,#580,#282,.T.);
#721=EDGE_CURVE('',#583,#582,#283,.T.);
#722=EDGE_CURVE('',#583,#581,#284,.T.);
#723=EDGE_CURVE('',#584,#585,#40,.T.);
#724=EDGE_CURVE('',#585,#586,#285,.T.);
#725=EDGE_CURVE('',#586,#587,#41,.T.);
#726=EDGE_CURVE('',#587,#584,#286,.T.);
#727=EDGE_CURVE('',#585,#588,#287,.T.);
#728=EDGE_CURVE('',#589,#588,#288,.T.);
#729=EDGE_CURVE('',#589,#590,#289,.T.);
#730=EDGE_CURVE('',#590,#591,#290,.T.);
#731=EDGE_CURVE('',#592,#591,#291,.T.);
#732=EDGE_CURVE('',#593,#592,#292,.T.);
#733=EDGE_CURVE('',#593,#594,#293,.T.);
#734=EDGE_CURVE('',#595,#594,#294,.T.);
#735=EDGE_CURVE('',#595,#596,#295,.T.);
#736=EDGE_CURVE('',#597,#596,#296,.T.);
#737=EDGE_CURVE('',#597,#598,#297,.T.);
#738=EDGE_CURVE('',#599,#598,#298,.T.);
#739=EDGE_CURVE('',#599,#600,#299,.T.);
#740=EDGE_CURVE('',#601,#600,#300,.T.);
#741=EDGE_CURVE('',#601,#586,#301,.T.);
#742=EDGE_CURVE('',#602,#599,#42,.T.);
#743=EDGE_CURVE('',#598,#603,#43,.T.);
#744=EDGE_CURVE('',#603,#602,#302,.T.);
#745=EDGE_CURVE('',#604,#595,#44,.T.);
#746=EDGE_CURVE('',#594,#605,#45,.T.);
#747=EDGE_CURVE('',#605,#604,#303,.T.);
#748=EDGE_CURVE('',#596,#606,#46,.T.);
#749=EDGE_CURVE('',#606,#607,#304,.T.);
#750=EDGE_CURVE('',#607,#597,#47,.T.);
#751=EDGE_CURVE('',#608,#606,#305,.T.);
#752=EDGE_CURVE('',#609,#608,#306,.T.);
#753=EDGE_CURVE('',#609,#607,#307,.T.);
#754=EDGE_CURVE('',#588,#610,#48,.T.);
#755=EDGE_CURVE('',#610,#611,#308,.T.);
#756=EDGE_CURVE('',#611,#589,#49,.T.);
#757=EDGE_CURVE('',#612,#610,#309,.T.);
#758=EDGE_CURVE('',#613,#612,#310,.T.);
#759=EDGE_CURVE('',#613,#611,#311,.T.);
#760=EDGE_CURVE('',#600,#614,#50,.T.);
#761=EDGE_CURVE('',#614,#615,#312,.T.);
#762=EDGE_CURVE('',#615,#601,#51,.T.);
#763=EDGE_CURVE('',#616,#614,#313,.T.);
#764=EDGE_CURVE('',#617,#616,#314,.T.);
#765=EDGE_CURVE('',#615,#617,#315,.T.);
#766=EDGE_CURVE('',#618,#619,#26,.T.);
#767=EDGE_CURVE('',#619,#620,#52,.T.);
#768=EDGE_CURVE('',#620,#621,#53,.T.);
#769=EDGE_CURVE('',#621,#621,#54,.T.);
#770=EDGE_CURVE('',#620,#618,#55,.T.);
#771=EDGE_CURVE('',#617,#618,#316,.T.);
#772=EDGE_CURVE('',#622,#616,#317,.T.);
#773=EDGE_CURVE('',#623,#622,#318,.T.);
#774=EDGE_CURVE('',#619,#623,#319,.T.);
#775=EDGE_CURVE('',#623,#603,#320,.T.);
#776=EDGE_CURVE('',#602,#622,#321,.T.);
#777=EDGE_CURVE('',#624,#624,#56,.T.);
#778=EDGE_CURVE('',#624,#625,#322,.T.);
#779=EDGE_CURVE('',#625,#625,#57,.T.);
#780=EDGE_CURVE('',#626,#583,#323,.T.);
#781=EDGE_CURVE('',#627,#582,#324,.T.);
#782=EDGE_CURVE('',#626,#627,#325,.T.);
#783=EDGE_CURVE('',#569,#626,#326,.T.);
#784=EDGE_CURVE('',#568,#627,#327,.T.);
#785=EDGE_CURVE('',#628,#628,#58,.T.);
#786=EDGE_CURVE('',#628,#629,#328,.T.);
#787=EDGE_CURVE('',#629,#629,#59,.T.);
#788=EDGE_CURVE('',#579,#630,#329,.T.);
#789=EDGE_CURVE('',#631,#578,#330,.T.);
#790=EDGE_CURVE('',#630,#631,#331,.T.);
#791=EDGE_CURVE('',#630,#553,#332,.T.);
#792=EDGE_CURVE('',#550,#631,#333,.T.);
#793=EDGE_CURVE('',#632,#632,#60,.T.);
#794=EDGE_CURVE('',#632,#633,#334,.T.);
#795=EDGE_CURVE('',#633,#633,#61,.T.);
#796=EDGE_CURVE('',#587,#634,#335,.T.);
#797=EDGE_CURVE('',#634,#635,#336,.T.);
#798=EDGE_CURVE('',#584,#635,#337,.T.);
#799=EDGE_CURVE('',#634,#613,#338,.T.);
#800=EDGE_CURVE('',#635,#612,#339,.T.);
#801=EDGE_CURVE('',#636,#636,#62,.T.);
#802=EDGE_CURVE('',#636,#637,#340,.T.);
#803=EDGE_CURVE('',#637,#637,#63,.T.);
#804=EDGE_CURVE('',#605,#638,#341,.T.);
#805=EDGE_CURVE('',#638,#639,#342,.T.);
#806=EDGE_CURVE('',#604,#639,#343,.T.);
#807=EDGE_CURVE('',#638,#609,#344,.T.);
#808=EDGE_CURVE('',#639,#608,#345,.T.);
#809=EDGE_CURVE('',#640,#640,#64,.T.);
#810=EDGE_CURVE('',#640,#641,#346,.T.);
#811=EDGE_CURVE('',#641,#641,#65,.T.);
#812=EDGE_CURVE('',#642,#575,#347,.T.);
#813=EDGE_CURVE('',#643,#574,#348,.T.);
#814=EDGE_CURVE('',#642,#643,#349,.T.);
#815=EDGE_CURVE('',#571,#642,#350,.T.);
#816=EDGE_CURVE('',#570,#643,#351,.T.);
#817=EDGE_CURVE('',#644,#645,#352,.T.);
#818=EDGE_CURVE('',#644,#646,#353,.T.);
#819=EDGE_CURVE('',#647,#646,#354,.T.);
#820=EDGE_CURVE('',#645,#647,#355,.T.);
#821=EDGE_CURVE('',#645,#648,#356,.T.);
#822=EDGE_CURVE('',#649,#647,#357,.T.);
#823=EDGE_CURVE('',#648,#649,#358,.T.);
#824=EDGE_CURVE('',#648,#650,#359,.T.);
#825=EDGE_CURVE('',#651,#649,#360,.T.);
#826=EDGE_CURVE('',#650,#651,#361,.T.);
#827=EDGE_CURVE('',#650,#644,#362,.T.);
#828=EDGE_CURVE('',#646,#651,#363,.T.);
#829=EDGE_CURVE('',#561,#592,#364,.T.);
#830=EDGE_CURVE('',#591,#562,#365,.T.);
#831=EDGE_CURVE('',#560,#593,#366,.T.);
#832=EDGE_CURVE('',#590,#563,#367,.T.);
#833=EDGE_CURVE('',#652,#653,#368,.T.);
#834=EDGE_CURVE('',#654,#652,#369,.T.);
#835=EDGE_CURVE('',#655,#654,#370,.T.);
#836=EDGE_CURVE('',#653,#655,#371,.T.);
#837=EDGE_CURVE('',#656,#657,#372,.T.);
#838=EDGE_CURVE('',#658,#656,#373,.T.);
#839=EDGE_CURVE('',#659,#658,#374,.T.);
#840=EDGE_CURVE('',#657,#659,#375,.T.);
#841=EDGE_CURVE('',#660,#656,#376,.T.);
#842=EDGE_CURVE('',#661,#660,#377,.T.);
#843=EDGE_CURVE('',#661,#658,#378,.T.);
#844=EDGE_CURVE('',#662,#657,#379,.T.);
#845=EDGE_CURVE('',#660,#662,#380,.T.);
#846=EDGE_CURVE('',#663,#655,#381,.T.);
#847=EDGE_CURVE('',#664,#663,#382,.T.);
#848=EDGE_CURVE('',#653,#664,#383,.T.);
#849=EDGE_CURVE('',#654,#665,#384,.T.);
#850=EDGE_CURVE('',#663,#665,#385,.T.);
#851=EDGE_CURVE('',#666,#659,#386,.T.);
#852=EDGE_CURVE('',#662,#666,#387,.T.);
#853=EDGE_CURVE('',#666,#661,#388,.T.);
#854=EDGE_CURVE('',#667,#664,#389,.T.);
#855=EDGE_CURVE('',#652,#667,#390,.T.);
#856=EDGE_CURVE('',#665,#667,#391,.T.);
#857=ORIENTED_EDGE('',*,*,#668,.F.);
#858=ORIENTED_EDGE('',*,*,#669,.T.);
#859=ORIENTED_EDGE('',*,*,#670,.F.);
#860=ORIENTED_EDGE('',*,*,#671,.F.);
#861=ORIENTED_EDGE('',*,*,#672,.F.);
#862=ORIENTED_EDGE('',*,*,#671,.T.);
#863=ORIENTED_EDGE('',*,*,#673,.F.);
#864=ORIENTED_EDGE('',*,*,#674,.F.);
#865=ORIENTED_EDGE('',*,*,#675,.F.);
#866=ORIENTED_EDGE('',*,*,#674,.T.);
#867=ORIENTED_EDGE('',*,*,#676,.F.);
#868=ORIENTED_EDGE('',*,*,#677,.F.);
#869=ORIENTED_EDGE('',*,*,#678,.F.);
#870=ORIENTED_EDGE('',*,*,#677,.T.);
#871=ORIENTED_EDGE('',*,*,#679,.F.);
#872=ORIENTED_EDGE('',*,*,#669,.F.);
#873=ORIENTED_EDGE('',*,*,#679,.T.);
#874=ORIENTED_EDGE('',*,*,#676,.T.);
#875=ORIENTED_EDGE('',*,*,#673,.T.);
#876=ORIENTED_EDGE('',*,*,#670,.T.);
#877=ORIENTED_EDGE('',*,*,#678,.T.);
#878=ORIENTED_EDGE('',*,*,#668,.T.);
#879=ORIENTED_EDGE('',*,*,#672,.T.);
#880=ORIENTED_EDGE('',*,*,#675,.T.);
#881=ORIENTED_EDGE('',*,*,#680,.T.);
#882=ORIENTED_EDGE('',*,*,#681,.T.);
#883=ORIENTED_EDGE('',*,*,#682,.T.);
#884=ORIENTED_EDGE('',*,*,#683,.T.);
#885=ORIENTED_EDGE('',*,*,#681,.F.);
#886=ORIENTED_EDGE('',*,*,#684,.T.);
#887=ORIENTED_EDGE('',*,*,#685,.F.);
#888=ORIENTED_EDGE('',*,*,#686,.T.);
#889=ORIENTED_EDGE('',*,*,#687,.F.);
#890=ORIENTED_EDGE('',*,*,#688,.T.);
#891=ORIENTED_EDGE('',*,*,#689,.F.);
#892=ORIENTED_EDGE('',*,*,#690,.T.);
#893=ORIENTED_EDGE('',*,*,#691,.T.);
#894=ORIENTED_EDGE('',*,*,#692,.F.);
#895=ORIENTED_EDGE('',*,*,#693,.F.);
#896=ORIENTED_EDGE('',*,*,#694,.T.);
#897=ORIENTED_EDGE('',*,*,#695,.F.);
#898=ORIENTED_EDGE('',*,*,#696,.T.);
#899=ORIENTED_EDGE('',*,*,#697,.F.);
#900=ORIENTED_EDGE('',*,*,#698,.T.);
#901=ORIENTED_EDGE('',*,*,#699,.T.);
#902=ORIENTED_EDGE('',*,*,#687,.T.);
#903=ORIENTED_EDGE('',*,*,#700,.T.);
#904=ORIENTED_EDGE('',*,*,#701,.T.);
#905=ORIENTED_EDGE('',*,*,#702,.T.);
#906=ORIENTED_EDGE('',*,*,#695,.T.);
#907=ORIENTED_EDGE('',*,*,#703,.T.);
#908=ORIENTED_EDGE('',*,*,#704,.T.);
#909=ORIENTED_EDGE('',*,*,#705,.T.);
#910=ORIENTED_EDGE('',*,*,#706,.T.);
#911=ORIENTED_EDGE('',*,*,#707,.T.);
#912=ORIENTED_EDGE('',*,*,#697,.T.);
#913=ORIENTED_EDGE('',*,*,#706,.F.);
#914=ORIENTED_EDGE('',*,*,#708,.F.);
#915=ORIENTED_EDGE('',*,*,#709,.F.);
#916=ORIENTED_EDGE('',*,*,#710,.T.);
#917=ORIENTED_EDGE('',*,*,#711,.T.);
#918=ORIENTED_EDGE('',*,*,#712,.T.);
#919=ORIENTED_EDGE('',*,*,#713,.T.);
#920=ORIENTED_EDGE('',*,*,#685,.T.);
#921=ORIENTED_EDGE('',*,*,#712,.F.);
#922=ORIENTED_EDGE('',*,*,#714,.F.);
#923=ORIENTED_EDGE('',*,*,#715,.F.);
#924=ORIENTED_EDGE('',*,*,#716,.F.);
#925=ORIENTED_EDGE('',*,*,#717,.T.);
#926=ORIENTED_EDGE('',*,*,#718,.T.);
#927=ORIENTED_EDGE('',*,*,#719,.T.);
#928=ORIENTED_EDGE('',*,*,#689,.T.);
#929=ORIENTED_EDGE('',*,*,#718,.F.);
#930=ORIENTED_EDGE('',*,*,#720,.F.);
#931=ORIENTED_EDGE('',*,*,#721,.F.);
#932=ORIENTED_EDGE('',*,*,#722,.T.);
#933=ORIENTED_EDGE('',*,*,#723,.T.);
#934=ORIENTED_EDGE('',*,*,#724,.T.);
#935=ORIENTED_EDGE('',*,*,#725,.T.);
#936=ORIENTED_EDGE('',*,*,#726,.T.);
#937=ORIENTED_EDGE('',*,*,#724,.F.);
#938=ORIENTED_EDGE('',*,*,#727,.T.);
#939=ORIENTED_EDGE('',*,*,#728,.F.);
#940=ORIENTED_EDGE('',*,*,#729,.T.);
#941=ORIENTED_EDGE('',*,*,#730,.T.);
#942=ORIENTED_EDGE('',*,*,#731,.F.);
#943=ORIENTED_EDGE('',*,*,#732,.F.);
#944=ORIENTED_EDGE('',*,*,#733,.T.);
#945=ORIENTED_EDGE('',*,*,#734,.F.);
#946=ORIENTED_EDGE('',*,*,#735,.T.);
#947=ORIENTED_EDGE('',*,*,#736,.F.);
#948=ORIENTED_EDGE('',*,*,#737,.T.);
#949=ORIENTED_EDGE('',*,*,#738,.F.);
#950=ORIENTED_EDGE('',*,*,#739,.T.);
#951=ORIENTED_EDGE('',*,*,#740,.F.);
#952=ORIENTED_EDGE('',*,*,#741,.T.);
#953=ORIENTED_EDGE('',*,*,#742,.T.);
#954=ORIENTED_EDGE('',*,*,#738,.T.);
#955=ORIENTED_EDGE('',*,*,#743,.T.);
#956=ORIENTED_EDGE('',*,*,#744,.T.);
#957=ORIENTED_EDGE('',*,*,#745,.T.);
#958=ORIENTED_EDGE('',*,*,#734,.T.);
#959=ORIENTED_EDGE('',*,*,#746,.T.);
#960=ORIENTED_EDGE('',*,*,#747,.T.);
#961=ORIENTED_EDGE('',*,*,#748,.T.);
#962=ORIENTED_EDGE('',*,*,#749,.T.);
#963=ORIENTED_EDGE('',*,*,#750,.T.);
#964=ORIENTED_EDGE('',*,*,#736,.T.);
#965=ORIENTED_EDGE('',*,*,#749,.F.);
#966=ORIENTED_EDGE('',*,*,#751,.F.);
#967=ORIENTED_EDGE('',*,*,#752,.F.);
#968=ORIENTED_EDGE('',*,*,#753,.T.);
#969=ORIENTED_EDGE('',*,*,#754,.T.);
#970=ORIENTED_EDGE('',*,*,#755,.T.);
#971=ORIENTED_EDGE('',*,*,#756,.T.);
#972=ORIENTED_EDGE('',*,*,#728,.T.);
#973=ORIENTED_EDGE('',*,*,#755,.F.);
#974=ORIENTED_EDGE('',*,*,#757,.F.);
#975=ORIENTED_EDGE('',*,*,#758,.F.);
#976=ORIENTED_EDGE('',*,*,#759,.T.);
#977=ORIENTED_EDGE('',*,*,#760,.T.);
#978=ORIENTED_EDGE('',*,*,#761,.T.);
#979=ORIENTED_EDGE('',*,*,#762,.T.);
#980=ORIENTED_EDGE('',*,*,#740,.T.);
#981=ORIENTED_EDGE('',*,*,#761,.F.);
#982=ORIENTED_EDGE('',*,*,#763,.F.);
#983=ORIENTED_EDGE('',*,*,#764,.F.);
#984=ORIENTED_EDGE('',*,*,#765,.F.);
#985=ORIENTED_EDGE('',*,*,#766,.T.);
#986=ORIENTED_EDGE('',*,*,#767,.T.);
#987=ORIENTED_EDGE('',*,*,#768,.T.);
#988=ORIENTED_EDGE('',*,*,#769,.F.);
#989=ORIENTED_EDGE('',*,*,#768,.F.);
#990=ORIENTED_EDGE('',*,*,#770,.T.);
#991=ORIENTED_EDGE('',*,*,#766,.F.);
#992=ORIENTED_EDGE('',*,*,#771,.F.);
#993=ORIENTED_EDGE('',*,*,#764,.T.);
#994=ORIENTED_EDGE('',*,*,#772,.F.);
#995=ORIENTED_EDGE('',*,*,#773,.F.);
#996=ORIENTED_EDGE('',*,*,#774,.F.);
#997=ORIENTED_EDGE('',*,*,#744,.F.);
#998=ORIENTED_EDGE('',*,*,#775,.F.);
#999=ORIENTED_EDGE('',*,*,#773,.T.);
#1000=ORIENTED_EDGE('',*,*,#776,.F.);
#1001=ORIENTED_EDGE('',*,*,#763,.T.);
#1002=ORIENTED_EDGE('',*,*,#760,.F.);
#1003=ORIENTED_EDGE('',*,*,#739,.F.);
#1004=ORIENTED_EDGE('',*,*,#742,.F.);
#1005=ORIENTED_EDGE('',*,*,#776,.T.);
#1006=ORIENTED_EDGE('',*,*,#772,.T.);
#1007=ORIENTED_EDGE('',*,*,#769,.T.);
#1008=ORIENTED_EDGE('',*,*,#777,.F.);
#1009=ORIENTED_EDGE('',*,*,#778,.T.);
#1010=ORIENTED_EDGE('',*,*,#779,.F.);
#1011=ORIENTED_EDGE('',*,*,#778,.F.);
#1012=ORIENTED_EDGE('',*,*,#780,.T.);
#1013=ORIENTED_EDGE('',*,*,#721,.T.);
#1014=ORIENTED_EDGE('',*,*,#781,.F.);
#1015=ORIENTED_EDGE('',*,*,#782,.F.);
#1016=ORIENTED_EDGE('',*,*,#701,.F.);
#1017=ORIENTED_EDGE('',*,*,#783,.T.);
#1018=ORIENTED_EDGE('',*,*,#782,.T.);
#1019=ORIENTED_EDGE('',*,*,#784,.F.);
#1020=ORIENTED_EDGE('',*,*,#784,.T.);
#1021=ORIENTED_EDGE('',*,*,#781,.T.);
#1022=ORIENTED_EDGE('',*,*,#720,.T.);
#1023=ORIENTED_EDGE('',*,*,#717,.F.);
#1024=ORIENTED_EDGE('',*,*,#688,.F.);
#1025=ORIENTED_EDGE('',*,*,#699,.F.);
#1026=ORIENTED_EDGE('',*,*,#777,.T.);
#1027=ORIENTED_EDGE('',*,*,#785,.F.);
#1028=ORIENTED_EDGE('',*,*,#786,.T.);
#1029=ORIENTED_EDGE('',*,*,#787,.F.);
#1030=ORIENTED_EDGE('',*,*,#786,.F.);
#1031=ORIENTED_EDGE('',*,*,#788,.F.);
#1032=ORIENTED_EDGE('',*,*,#715,.T.);
#1033=ORIENTED_EDGE('',*,*,#789,.F.);
#1034=ORIENTED_EDGE('',*,*,#790,.F.);
#1035=ORIENTED_EDGE('',*,*,#683,.F.);
#1036=ORIENTED_EDGE('',*,*,#791,.F.);
#1037=ORIENTED_EDGE('',*,*,#790,.T.);
#1038=ORIENTED_EDGE('',*,*,#792,.F.);
#1039=ORIENTED_EDGE('',*,*,#714,.T.);
#1040=ORIENTED_EDGE('',*,*,#711,.F.);
#1041=ORIENTED_EDGE('',*,*,#684,.F.);
#1042=ORIENTED_EDGE('',*,*,#680,.F.);
#1043=ORIENTED_EDGE('',*,*,#792,.T.);
#1044=ORIENTED_EDGE('',*,*,#789,.T.);
#1045=ORIENTED_EDGE('',*,*,#785,.T.);
#1046=ORIENTED_EDGE('',*,*,#793,.F.);
#1047=ORIENTED_EDGE('',*,*,#794,.T.);
#1048=ORIENTED_EDGE('',*,*,#795,.F.);
#1049=ORIENTED_EDGE('',*,*,#794,.F.);
#1050=ORIENTED_EDGE('',*,*,#726,.F.);
#1051=ORIENTED_EDGE('',*,*,#796,.T.);
#1052=ORIENTED_EDGE('',*,*,#797,.T.);
#1053=ORIENTED_EDGE('',*,*,#798,.F.);
#1054=ORIENTED_EDGE('',*,*,#799,.T.);
#1055=ORIENTED_EDGE('',*,*,#758,.T.);
#1056=ORIENTED_EDGE('',*,*,#800,.F.);
#1057=ORIENTED_EDGE('',*,*,#797,.F.);
#1058=ORIENTED_EDGE('',*,*,#800,.T.);
#1059=ORIENTED_EDGE('',*,*,#757,.T.);
#1060=ORIENTED_EDGE('',*,*,#754,.F.);
#1061=ORIENTED_EDGE('',*,*,#727,.F.);
#1062=ORIENTED_EDGE('',*,*,#723,.F.);
#1063=ORIENTED_EDGE('',*,*,#798,.T.);
#1064=ORIENTED_EDGE('',*,*,#793,.T.);
#1065=ORIENTED_EDGE('',*,*,#801,.F.);
#1066=ORIENTED_EDGE('',*,*,#802,.T.);
#1067=ORIENTED_EDGE('',*,*,#803,.F.);
#1068=ORIENTED_EDGE('',*,*,#802,.F.);
#1069=ORIENTED_EDGE('',*,*,#747,.F.);
#1070=ORIENTED_EDGE('',*,*,#804,.T.);
#1071=ORIENTED_EDGE('',*,*,#805,.T.);
#1072=ORIENTED_EDGE('',*,*,#806,.F.);
#1073=ORIENTED_EDGE('',*,*,#807,.T.);
#1074=ORIENTED_EDGE('',*,*,#752,.T.);
#1075=ORIENTED_EDGE('',*,*,#808,.F.);
#1076=ORIENTED_EDGE('',*,*,#805,.F.);
#1077=ORIENTED_EDGE('',*,*,#808,.T.);
#1078=ORIENTED_EDGE('',*,*,#751,.T.);
#1079=ORIENTED_EDGE('',*,*,#748,.F.);
#1080=ORIENTED_EDGE('',*,*,#735,.F.);
#1081=ORIENTED_EDGE('',*,*,#745,.F.);
#1082=ORIENTED_EDGE('',*,*,#806,.T.);
#1083=ORIENTED_EDGE('',*,*,#801,.T.);
#1084=ORIENTED_EDGE('',*,*,#809,.F.);
#1085=ORIENTED_EDGE('',*,*,#810,.T.);
#1086=ORIENTED_EDGE('',*,*,#811,.F.);
#1087=ORIENTED_EDGE('',*,*,#810,.F.);
#1088=ORIENTED_EDGE('',*,*,#812,.T.);
#1089=ORIENTED_EDGE('',*,*,#709,.T.);
#1090=ORIENTED_EDGE('',*,*,#813,.F.);
#1091=ORIENTED_EDGE('',*,*,#814,.F.);
#1092=ORIENTED_EDGE('',*,*,#704,.F.);
#1093=ORIENTED_EDGE('',*,*,#815,.T.);
#1094=ORIENTED_EDGE('',*,*,#814,.T.);
#1095=ORIENTED_EDGE('',*,*,#816,.F.);
#1096=ORIENTED_EDGE('',*,*,#816,.T.);
#1097=ORIENTED_EDGE('',*,*,#813,.T.);
#1098=ORIENTED_EDGE('',*,*,#708,.T.);
#1099=ORIENTED_EDGE('',*,*,#705,.F.);
#1100=ORIENTED_EDGE('',*,*,#696,.F.);
#1101=ORIENTED_EDGE('',*,*,#702,.F.);
#1102=ORIENTED_EDGE('',*,*,#809,.T.);
#1103=ORIENTED_EDGE('',*,*,#817,.F.);
#1104=ORIENTED_EDGE('',*,*,#818,.T.);
#1105=ORIENTED_EDGE('',*,*,#819,.F.);
#1106=ORIENTED_EDGE('',*,*,#820,.F.);
#1107=ORIENTED_EDGE('',*,*,#821,.F.);
#1108=ORIENTED_EDGE('',*,*,#820,.T.);
#1109=ORIENTED_EDGE('',*,*,#822,.F.);
#1110=ORIENTED_EDGE('',*,*,#823,.F.);
#1111=ORIENTED_EDGE('',*,*,#824,.F.);
#1112=ORIENTED_EDGE('',*,*,#823,.T.);
#1113=ORIENTED_EDGE('',*,*,#825,.F.);
#1114=ORIENTED_EDGE('',*,*,#826,.F.);
#1115=ORIENTED_EDGE('',*,*,#827,.F.);
#1116=ORIENTED_EDGE('',*,*,#826,.T.);
#1117=ORIENTED_EDGE('',*,*,#828,.F.);
#1118=ORIENTED_EDGE('',*,*,#818,.F.);
#1119=ORIENTED_EDGE('',*,*,#829,.T.);
#1120=ORIENTED_EDGE('',*,*,#731,.T.);
#1121=ORIENTED_EDGE('',*,*,#830,.T.);
#1122=ORIENTED_EDGE('',*,*,#692,.T.);
#1123=ORIENTED_EDGE('',*,*,#828,.T.);
#1124=ORIENTED_EDGE('',*,*,#825,.T.);
#1125=ORIENTED_EDGE('',*,*,#822,.T.);
#1126=ORIENTED_EDGE('',*,*,#819,.T.);
#1127=ORIENTED_EDGE('',*,*,#831,.T.);
#1128=ORIENTED_EDGE('',*,*,#732,.T.);
#1129=ORIENTED_EDGE('',*,*,#829,.F.);
#1130=ORIENTED_EDGE('',*,*,#691,.F.);
#1131=ORIENTED_EDGE('',*,*,#832,.T.);
#1132=ORIENTED_EDGE('',*,*,#693,.T.);
#1133=ORIENTED_EDGE('',*,*,#830,.F.);
#1134=ORIENTED_EDGE('',*,*,#730,.F.);
#1135=ORIENTED_EDGE('',*,*,#817,.T.);
#1136=ORIENTED_EDGE('',*,*,#821,.T.);
#1137=ORIENTED_EDGE('',*,*,#824,.T.);
#1138=ORIENTED_EDGE('',*,*,#827,.T.);
#1139=ORIENTED_EDGE('',*,*,#767,.F.);
#1140=ORIENTED_EDGE('',*,*,#774,.T.);
#1141=ORIENTED_EDGE('',*,*,#775,.T.);
#1142=ORIENTED_EDGE('',*,*,#743,.F.);
#1143=ORIENTED_EDGE('',*,*,#737,.F.);
#1144=ORIENTED_EDGE('',*,*,#750,.F.);
#1145=ORIENTED_EDGE('',*,*,#753,.F.);
#1146=ORIENTED_EDGE('',*,*,#807,.F.);
#1147=ORIENTED_EDGE('',*,*,#804,.F.);
#1148=ORIENTED_EDGE('',*,*,#746,.F.);
#1149=ORIENTED_EDGE('',*,*,#733,.F.);
#1150=ORIENTED_EDGE('',*,*,#831,.F.);
#1151=ORIENTED_EDGE('',*,*,#690,.F.);
#1152=ORIENTED_EDGE('',*,*,#719,.F.);
#1153=ORIENTED_EDGE('',*,*,#722,.F.);
#1154=ORIENTED_EDGE('',*,*,#780,.F.);
#1155=ORIENTED_EDGE('',*,*,#783,.F.);
#1156=ORIENTED_EDGE('',*,*,#700,.F.);
#1157=ORIENTED_EDGE('',*,*,#686,.F.);
#1158=ORIENTED_EDGE('',*,*,#713,.F.);
#1159=ORIENTED_EDGE('',*,*,#716,.T.);
#1160=ORIENTED_EDGE('',*,*,#788,.T.);
#1161=ORIENTED_EDGE('',*,*,#791,.T.);
#1162=ORIENTED_EDGE('',*,*,#682,.F.);
#1163=ORIENTED_EDGE('',*,*,#698,.F.);
#1164=ORIENTED_EDGE('',*,*,#707,.F.);
#1165=ORIENTED_EDGE('',*,*,#710,.F.);
#1166=ORIENTED_EDGE('',*,*,#812,.F.);
#1167=ORIENTED_EDGE('',*,*,#815,.F.);
#1168=ORIENTED_EDGE('',*,*,#703,.F.);
#1169=ORIENTED_EDGE('',*,*,#694,.F.);
#1170=ORIENTED_EDGE('',*,*,#832,.F.);
#1171=ORIENTED_EDGE('',*,*,#729,.F.);
#1172=ORIENTED_EDGE('',*,*,#756,.F.);
#1173=ORIENTED_EDGE('',*,*,#759,.F.);
#1174=ORIENTED_EDGE('',*,*,#799,.F.);
#1175=ORIENTED_EDGE('',*,*,#796,.F.);
#1176=ORIENTED_EDGE('',*,*,#725,.F.);
#1177=ORIENTED_EDGE('',*,*,#741,.F.);
#1178=ORIENTED_EDGE('',*,*,#762,.F.);
#1179=ORIENTED_EDGE('',*,*,#765,.T.);
#1180=ORIENTED_EDGE('',*,*,#771,.T.);
#1181=ORIENTED_EDGE('',*,*,#770,.F.);
#1182=ORIENTED_EDGE('',*,*,#779,.T.);
#1183=ORIENTED_EDGE('',*,*,#787,.T.);
#1184=ORIENTED_EDGE('',*,*,#795,.T.);
#1185=ORIENTED_EDGE('',*,*,#803,.T.);
#1186=ORIENTED_EDGE('',*,*,#811,.T.);
#1187=ORIENTED_EDGE('',*,*,#833,.F.);
#1188=ORIENTED_EDGE('',*,*,#834,.F.);
#1189=ORIENTED_EDGE('',*,*,#835,.F.);
#1190=ORIENTED_EDGE('',*,*,#836,.F.);
#1191=ORIENTED_EDGE('',*,*,#837,.F.);
#1192=ORIENTED_EDGE('',*,*,#838,.F.);
#1193=ORIENTED_EDGE('',*,*,#839,.F.);
#1194=ORIENTED_EDGE('',*,*,#840,.F.);
#1195=ORIENTED_EDGE('',*,*,#838,.T.);
#1196=ORIENTED_EDGE('',*,*,#841,.F.);
#1197=ORIENTED_EDGE('',*,*,#842,.F.);
#1198=ORIENTED_EDGE('',*,*,#843,.T.);
#1199=ORIENTED_EDGE('',*,*,#837,.T.);
#1200=ORIENTED_EDGE('',*,*,#844,.F.);
#1201=ORIENTED_EDGE('',*,*,#845,.F.);
#1202=ORIENTED_EDGE('',*,*,#841,.T.);
#1203=ORIENTED_EDGE('',*,*,#836,.T.);
#1204=ORIENTED_EDGE('',*,*,#846,.F.);
#1205=ORIENTED_EDGE('',*,*,#847,.F.);
#1206=ORIENTED_EDGE('',*,*,#848,.F.);
#1207=ORIENTED_EDGE('',*,*,#835,.T.);
#1208=ORIENTED_EDGE('',*,*,#849,.T.);
#1209=ORIENTED_EDGE('',*,*,#850,.F.);
#1210=ORIENTED_EDGE('',*,*,#846,.T.);
#1211=ORIENTED_EDGE('',*,*,#840,.T.);
#1212=ORIENTED_EDGE('',*,*,#851,.F.);
#1213=ORIENTED_EDGE('',*,*,#852,.F.);
#1214=ORIENTED_EDGE('',*,*,#844,.T.);
#1215=ORIENTED_EDGE('',*,*,#839,.T.);
#1216=ORIENTED_EDGE('',*,*,#843,.F.);
#1217=ORIENTED_EDGE('',*,*,#853,.F.);
#1218=ORIENTED_EDGE('',*,*,#851,.T.);
#1219=ORIENTED_EDGE('',*,*,#833,.T.);
#1220=ORIENTED_EDGE('',*,*,#848,.T.);
#1221=ORIENTED_EDGE('',*,*,#854,.F.);
#1222=ORIENTED_EDGE('',*,*,#855,.F.);
#1223=ORIENTED_EDGE('',*,*,#834,.T.);
#1224=ORIENTED_EDGE('',*,*,#855,.T.);
#1225=ORIENTED_EDGE('',*,*,#856,.F.);
#1226=ORIENTED_EDGE('',*,*,#849,.F.);
#1227=ORIENTED_EDGE('',*,*,#850,.T.);
#1228=ORIENTED_EDGE('',*,*,#856,.T.);
#1229=ORIENTED_EDGE('',*,*,#854,.T.);
#1230=ORIENTED_EDGE('',*,*,#847,.T.);
#1231=ORIENTED_EDGE('',*,*,#852,.T.);
#1232=ORIENTED_EDGE('',*,*,#853,.T.);
#1233=ORIENTED_EDGE('',*,*,#842,.T.);
#1234=ORIENTED_EDGE('',*,*,#845,.T.);
#1235=PLANE('',#1373);
#1236=PLANE('',#1374);
#1237=PLANE('',#1375);
#1238=PLANE('',#1376);
#1239=PLANE('',#1377);
#1240=PLANE('',#1378);
#1241=PLANE('',#1382);
#1242=PLANE('',#1392);
#1243=PLANE('',#1396);
#1244=PLANE('',#1400);
#1245=PLANE('',#1404);
#1246=PLANE('',#1414);
#1247=PLANE('',#1418);
#1248=PLANE('',#1422);
#1249=PLANE('',#1428);
#1250=PLANE('',#1429);
#1251=PLANE('',#1430);
#1252=PLANE('',#1434);
#1253=PLANE('',#1435);
#1254=PLANE('',#1436);
#1255=PLANE('',#1440);
#1256=PLANE('',#1441);
#1257=PLANE('',#1442);
#1258=PLANE('',#1446);
#1259=PLANE('',#1447);
#1260=PLANE('',#1448);
#1261=PLANE('',#1452);
#1262=PLANE('',#1453);
#1263=PLANE('',#1454);
#1264=PLANE('',#1458);
#1265=PLANE('',#1459);
#1266=PLANE('',#1460);
#1267=PLANE('',#1461);
#1268=PLANE('',#1462);
#1269=PLANE('',#1463);
#1270=PLANE('',#1464);
#1271=PLANE('',#1465);
#1272=PLANE('',#1466);
#1273=PLANE('',#1467);
#1274=PLANE('',#1468);
#1275=PLANE('',#1469);
#1276=PLANE('',#1470);
#1277=PLANE('',#1471);
#1278=PLANE('',#1472);
#1279=PLANE('',#1473);
#1280=PLANE('',#1474);
#1281=PLANE('',#1475);
#1282=PLANE('',#1476);
#1283=PLANE('',#1477);
#1284=PLANE('',#1478);
#1285=PLANE('',#1479);
#1286=PLANE('',#1480);
#1287=ADVANCED_FACE('',(#89),#1235,.T.);
#1288=ADVANCED_FACE('',(#90),#1236,.T.);
#1289=ADVANCED_FACE('',(#91),#1237,.T.);
#1290=ADVANCED_FACE('',(#92),#1238,.T.);
#1291=ADVANCED_FACE('',(#93),#1239,.T.);
#1292=ADVANCED_FACE('',(#94),#1240,.F.);
#1293=ADVANCED_FACE('',(#95),#66,.F.);
#1294=ADVANCED_FACE('',(#96),#1241,.T.);
#1295=ADVANCED_FACE('',(#97),#67,.F.);
#1296=ADVANCED_FACE('',(#98),#68,.F.);
#1297=ADVANCED_FACE('',(#99),#69,.F.);
#1298=ADVANCED_FACE('',(#100),#1242,.T.);
#1299=ADVANCED_FACE('',(#101),#70,.F.);
#1300=ADVANCED_FACE('',(#102),#1243,.T.);
#1301=ADVANCED_FACE('',(#103),#71,.F.);
#1302=ADVANCED_FACE('',(#104),#1244,.T.);
#1303=ADVANCED_FACE('',(#105),#72,.F.);
#1304=ADVANCED_FACE('',(#106),#1245,.T.);
#1305=ADVANCED_FACE('',(#107),#73,.F.);
#1306=ADVANCED_FACE('',(#108),#74,.F.);
#1307=ADVANCED_FACE('',(#109),#75,.F.);
#1308=ADVANCED_FACE('',(#110),#1246,.T.);
#1309=ADVANCED_FACE('',(#111),#76,.F.);
#1310=ADVANCED_FACE('',(#112),#1247,.T.);
#1311=ADVANCED_FACE('',(#113),#77,.F.);
#1312=ADVANCED_FACE('',(#114),#1248,.T.);
#1313=ADVANCED_FACE('',(#115),#27,.T.);
#1314=ADVANCED_FACE('',(#116),#1249,.T.);
#1315=ADVANCED_FACE('',(#117),#1250,.T.);
#1316=ADVANCED_FACE('',(#118,#13),#1251,.F.);
#1317=ADVANCED_FACE('',(#119),#78,.F.);
#1318=ADVANCED_FACE('',(#120),#1252,.T.);
#1319=ADVANCED_FACE('',(#121),#1253,.T.);
#1320=ADVANCED_FACE('',(#122,#14),#1254,.F.);
#1321=ADVANCED_FACE('',(#123),#79,.F.);
#1322=ADVANCED_FACE('',(#124),#1255,.T.);
#1323=ADVANCED_FACE('',(#125),#1256,.T.);
#1324=ADVANCED_FACE('',(#126,#15),#1257,.F.);
#1325=ADVANCED_FACE('',(#127),#80,.F.);
#1326=ADVANCED_FACE('',(#128),#1258,.T.);
#1327=ADVANCED_FACE('',(#129),#1259,.T.);
#1328=ADVANCED_FACE('',(#130,#16),#1260,.F.);
#1329=ADVANCED_FACE('',(#131),#81,.F.);
#1330=ADVANCED_FACE('',(#132),#1261,.T.);
#1331=ADVANCED_FACE('',(#133),#1262,.T.);
#1332=ADVANCED_FACE('',(#134,#17),#1263,.F.);
#1333=ADVANCED_FACE('',(#135),#82,.F.);
#1334=ADVANCED_FACE('',(#136),#1264,.T.);
#1335=ADVANCED_FACE('',(#137),#1265,.T.);
#1336=ADVANCED_FACE('',(#138,#18),#1266,.F.);
#1337=ADVANCED_FACE('',(#139),#1267,.T.);
#1338=ADVANCED_FACE('',(#140),#1268,.T.);
#1339=ADVANCED_FACE('',(#141),#1269,.T.);
#1340=ADVANCED_FACE('',(#142),#1270,.T.);
#1341=ADVANCED_FACE('',(#143,#19),#1271,.T.);
#1342=ADVANCED_FACE('',(#144),#1272,.T.);
#1343=ADVANCED_FACE('',(#145),#1273,.T.);
#1344=ADVANCED_FACE('',(#146),#1274,.T.);
#1345=ADVANCED_FACE('',(#147,#20,#21,#22,#23,#24),#1275,.F.);
#1346=ADVANCED_FACE('',(#148,#25),#1276,.F.);
#1347=ADVANCED_FACE('',(#149),#1277,.T.);
#1348=ADVANCED_FACE('',(#150),#1278,.T.);
#1349=ADVANCED_FACE('',(#151),#1279,.T.);
#1350=ADVANCED_FACE('',(#152),#1280,.T.);
#1351=ADVANCED_FACE('',(#153),#1281,.T.);
#1352=ADVANCED_FACE('',(#154),#1282,.T.);
#1353=ADVANCED_FACE('',(#155),#1283,.T.);
#1354=ADVANCED_FACE('',(#156),#1284,.T.);
#1355=ADVANCED_FACE('',(#157),#1285,.T.);
#1356=ADVANCED_FACE('',(#158),#1286,.F.);
#1357=CLOSED_SHELL('',(#1287,#1288,#1289,#1290,#1291,#1292));
#1358=CLOSED_SHELL('',(#1293,#1294,#1295,#1296,#1297,#1298,#1299,#1300,
#1301,#1302,#1303,#1304,#1305,#1306,#1307,#1308,#1309,#1310,#1311,#1312,
#1313,#1314,#1315,#1316,#1317,#1318,#1319,#1320,#1321,#1322,#1323,#1324,
#1325,#1326,#1327,#1328,#1329,#1330,#1331,#1332,#1333,#1334,#1335,#1336,
#1337,#1338,#1339,#1340,#1341,#1342,#1343,#1344,#1345));
#1359=CLOSED_SHELL('',(#1346,#1347,#1348,#1349,#1350,#1351,#1352,#1353,
#1354,#1355,#1356));
#1360=DERIVED_UNIT_ELEMENT(#1362,1.);
#1361=DERIVED_UNIT_ELEMENT(#2250,-3.);
#1362=(
MASS_UNIT()
NAMED_UNIT(*)
SI_UNIT(.KILO.,.GRAM.)
);
#1363=DERIVED_UNIT((#1360,#1361));
#1364=MEASURE_REPRESENTATION_ITEM('density measure',
POSITIVE_RATIO_MEASURE(7850.),#1363);
#1365=PROPERTY_DEFINITION_REPRESENTATION(#1370,#1367);
#1366=PROPERTY_DEFINITION_REPRESENTATION(#1371,#1368);
#1367=REPRESENTATION('material name',(#1369),#2247);
#1368=REPRESENTATION('density',(#1364),#2247);
#1369=DESCRIPTIVE_REPRESENTATION_ITEM('Steel','Steel');
#1370=PROPERTY_DEFINITION('material property','material name',#2257);
#1371=PROPERTY_DEFINITION('material property','density of part',#2257);
#1372=AXIS2_PLACEMENT_3D('',#1849,#1481,#1482);
#1373=AXIS2_PLACEMENT_3D('',#1850,#1483,#1484);
#1374=AXIS2_PLACEMENT_3D('',#1859,#1489,#1490);
#1375=AXIS2_PLACEMENT_3D('',#1865,#1494,#1495);
#1376=AXIS2_PLACEMENT_3D('',#1871,#1499,#1500);
#1377=AXIS2_PLACEMENT_3D('',#1874,#1503,#1504);
#1378=AXIS2_PLACEMENT_3D('',#1875,#1505,#1506);
#1379=AXIS2_PLACEMENT_3D('',#1876,#1507,#1508);
#1380=AXIS2_PLACEMENT_3D('',#1879,#1509,#1510);
#1381=AXIS2_PLACEMENT_3D('',#1883,#1512,#1513);
#1382=AXIS2_PLACEMENT_3D('',#1885,#1515,#1516);
#1383=AXIS2_PLACEMENT_3D('',#1915,#1532,#1533);
#1384=AXIS2_PLACEMENT_3D('',#1917,#1534,#1535);
#1385=AXIS2_PLACEMENT_3D('',#1919,#1536,#1537);
#1386=AXIS2_PLACEMENT_3D('',#1921,#1539,#1540);
#1387=AXIS2_PLACEMENT_3D('',#1923,#1541,#1542);
#1388=AXIS2_PLACEMENT_3D('',#1925,#1543,#1544);
#1389=AXIS2_PLACEMENT_3D('',#1927,#1546,#1547);
#1390=AXIS2_PLACEMENT_3D('',#1929,#1548,#1549);
#1391=AXIS2_PLACEMENT_3D('',#1932,#1551,#1552);
#1392=AXIS2_PLACEMENT_3D('',#1933,#1553,#1554);
#1393=AXIS2_PLACEMENT_3D('',#1939,#1558,#1559);
#1394=AXIS2_PLACEMENT_3D('',#1941,#1560,#1561);
#1395=AXIS2_PLACEMENT_3D('',#1944,#1563,#1564);
#1396=AXIS2_PLACEMENT_3D('',#1945,#1565,#1566);
#1397=AXIS2_PLACEMENT_3D('',#1951,#1570,#1571);
#1398=AXIS2_PLACEMENT_3D('',#1953,#1572,#1573);
#1399=AXIS2_PLACEMENT_3D('',#1956,#1575,#1576);
#1400=AXIS2_PLACEMENT_3D('',#1957,#1577,#1578);
#1401=AXIS2_PLACEMENT_3D('',#1963,#1582,#1583);
#1402=AXIS2_PLACEMENT_3D('',#1966,#1584,#1585);
#1403=AXIS2_PLACEMENT_3D('',#1970,#1587,#1588);
#1404=AXIS2_PLACEMENT_3D('',#1972,#1590,#1591);
#1405=AXIS2_PLACEMENT_3D('',#2002,#1607,#1608);
#1406=AXIS2_PLACEMENT_3D('',#2004,#1609,#1610);
#1407=AXIS2_PLACEMENT_3D('',#2006,#1611,#1612);
#1408=AXIS2_PLACEMENT_3D('',#2008,#1614,#1615);
#1409=AXIS2_PLACEMENT_3D('',#2010,#1616,#1617);
#1410=AXIS2_PLACEMENT_3D('',#2012,#1618,#1619);
#1411=AXIS2_PLACEMENT_3D('',#2014,#1621,#1622);
#1412=AXIS2_PLACEMENT_3D('',#2016,#1623,#1624);
#1413=AXIS2_PLACEMENT_3D('',#2019,#1626,#1627);
#1414=AXIS2_PLACEMENT_3D('',#2020,#1628,#1629);
#1415=AXIS2_PLACEMENT_3D('',#2026,#1633,#1634);
#1416=AXIS2_PLACEMENT_3D('',#2028,#1635,#1636);
#1417=AXIS2_PLACEMENT_3D('',#2031,#1638,#1639);
#1418=AXIS2_PLACEMENT_3D('',#2032,#1640,#1641);
#1419=AXIS2_PLACEMENT_3D('',#2038,#1645,#1646);
#1420=AXIS2_PLACEMENT_3D('',#2040,#1647,#1648);
#1421=AXIS2_PLACEMENT_3D('',#2043,#1650,#1651);
#1422=AXIS2_PLACEMENT_3D('',#2044,#1652,#1653);
#1423=AXIS2_PLACEMENT_3D('',#2050,#1657,#1658);
#1424=AXIS2_PLACEMENT_3D('',#2065,#1659,#1660);
#1425=AXIS2_PLACEMENT_3D('',#2067,#1661,#1662);
#1426=AXIS2_PLACEMENT_3D('',#2068,#1663,#1664);
#1427=AXIS2_PLACEMENT_3D('',#2069,#1665,#1666);
#1428=AXIS2_PLACEMENT_3D('',#2070,#1667,#1668);
#1429=AXIS2_PLACEMENT_3D('',#2077,#1673,#1674);
#1430=AXIS2_PLACEMENT_3D('',#2080,#1677,#1678);
#1431=AXIS2_PLACEMENT_3D('',#2081,#1679,#1680);
#1432=AXIS2_PLACEMENT_3D('',#2083,#1681,#1682);
#1433=AXIS2_PLACEMENT_3D('',#2086,#1684,#1685);
#1434=AXIS2_PLACEMENT_3D('',#2087,#1686,#1687);
#1435=AXIS2_PLACEMENT_3D('',#2093,#1691,#1692);
#1436=AXIS2_PLACEMENT_3D('',#2096,#1695,#1696);
#1437=AXIS2_PLACEMENT_3D('',#2097,#1697,#1698);
#1438=AXIS2_PLACEMENT_3D('',#2099,#1699,#1700);
#1439=AXIS2_PLACEMENT_3D('',#2102,#1702,#1703);
#1440=AXIS2_PLACEMENT_3D('',#2103,#1704,#1705);
#1441=AXIS2_PLACEMENT_3D('',#2109,#1709,#1710);
#1442=AXIS2_PLACEMENT_3D('',#2112,#1713,#1714);
#1443=AXIS2_PLACEMENT_3D('',#2113,#1715,#1716);
#1444=AXIS2_PLACEMENT_3D('',#2115,#1717,#1718);
#1445=AXIS2_PLACEMENT_3D('',#2118,#1720,#1721);
#1446=AXIS2_PLACEMENT_3D('',#2119,#1722,#1723);
#1447=AXIS2_PLACEMENT_3D('',#2125,#1727,#1728);
#1448=AXIS2_PLACEMENT_3D('',#2128,#1731,#1732);
#1449=AXIS2_PLACEMENT_3D('',#2129,#1733,#1734);
#1450=AXIS2_PLACEMENT_3D('',#2131,#1735,#1736);
#1451=AXIS2_PLACEMENT_3D('',#2134,#1738,#1739);
#1452=AXIS2_PLACEMENT_3D('',#2135,#1740,#1741);
#1453=AXIS2_PLACEMENT_3D('',#2141,#1745,#1746);
#1454=AXIS2_PLACEMENT_3D('',#2144,#1749,#1750);
#1455=AXIS2_PLACEMENT_3D('',#2145,#1751,#1752);
#1456=AXIS2_PLACEMENT_3D('',#2147,#1753,#1754);
#1457=AXIS2_PLACEMENT_3D('',#2150,#1756,#1757);
#1458=AXIS2_PLACEMENT_3D('',#2151,#1758,#1759);
#1459=AXIS2_PLACEMENT_3D('',#2157,#1763,#1764);
#1460=AXIS2_PLACEMENT_3D('',#2160,#1767,#1768);
#1461=AXIS2_PLACEMENT_3D('',#2161,#1769,#1770);
#1462=AXIS2_PLACEMENT_3D('',#2170,#1775,#1776);
#1463=AXIS2_PLACEMENT_3D('',#2176,#1780,#1781);
#1464=AXIS2_PLACEMENT_3D('',#2182,#1785,#1786);
#1465=AXIS2_PLACEMENT_3D('',#2185,#1789,#1790);
#1466=AXIS2_PLACEMENT_3D('',#2188,#1793,#1794);
#1467=AXIS2_PLACEMENT_3D('',#2190,#1796,#1797);
#1468=AXIS2_PLACEMENT_3D('',#2192,#1799,#1800);
#1469=AXIS2_PLACEMENT_3D('',#2193,#1801,#1802);
#1470=AXIS2_PLACEMENT_3D('',#2194,#1803,#1804);
#1471=AXIS2_PLACEMENT_3D('',#2211,#1813,#1814);
#1472=AXIS2_PLACEMENT_3D('',#2217,#1818,#1819);
#1473=AXIS2_PLACEMENT_3D('',#2221,#1822,#1823);
#1474=AXIS2_PLACEMENT_3D('',#2227,#1827,#1828);
#1475=AXIS2_PLACEMENT_3D('',#2231,#1831,#1832);
#1476=AXIS2_PLACEMENT_3D('',#2235,#1835,#1836);
#1477=AXIS2_PLACEMENT_3D('',#2237,#1838,#1839);
#1478=AXIS2_PLACEMENT_3D('',#2241,#1842,#1843);
#1479=AXIS2_PLACEMENT_3D('',#2243,#1845,#1846);
#1480=AXIS2_PLACEMENT_3D('',#2244,#1847,#1848);
#1481=DIRECTION('axis',(0.,0.,1.));
#1482=DIRECTION('refdir',(1.,0.,0.));
#1483=DIRECTION('center_axis',(-1.,0.,0.));
#1484=DIRECTION('ref_axis',(0.,-1.,0.));
#1485=DIRECTION('',(0.,1.,0.));
#1486=DIRECTION('',(0.,0.,1.));
#1487=DIRECTION('',(0.,-1.,0.));
#1488=DIRECTION('',(0.,0.,1.));
#1489=DIRECTION('center_axis',(0.,1.,0.));
#1490=DIRECTION('ref_axis',(-1.,0.,0.));
#1491=DIRECTION('',(1.,0.,0.));
#1492=DIRECTION('',(-1.,0.,0.));
#1493=DIRECTION('',(0.,0.,1.));
#1494=DIRECTION('center_axis',(1.,0.,0.));
#1495=DIRECTION('ref_axis',(0.,1.,0.));
#1496=DIRECTION('',(0.,-1.,0.));
#1497=DIRECTION('',(0.,1.,0.));
#1498=DIRECTION('',(0.,0.,1.));
#1499=DIRECTION('center_axis',(0.,-1.,0.));
#1500=DIRECTION('ref_axis',(1.,0.,0.));
#1501=DIRECTION('',(-1.,0.,0.));
#1502=DIRECTION('',(1.,0.,0.));
#1503=DIRECTION('center_axis',(0.,0.,1.));
#1504=DIRECTION('ref_axis',(1.,0.,0.));
#1505=DIRECTION('center_axis',(0.,0.,1.));
#1506=DIRECTION('ref_axis',(1.,0.,0.));
#1507=DIRECTION('center_axis',(0.,0.,1.));
#1508=DIRECTION('ref_axis',(0.707106781186548,-0.707106781186547,0.));
#1509=DIRECTION('center_axis',(0.,0.,1.));
#1510=DIRECTION('ref_axis',(0.707106781186548,-0.707106781186547,0.));
#1511=DIRECTION('',(0.,0.,-1.));
#1512=DIRECTION('center_axis',(0.,0.,-1.));
#1513=DIRECTION('ref_axis',(0.707106781186548,-0.707106781186547,0.));
#1514=DIRECTION('',(0.,0.,1.));
#1515=DIRECTION('center_axis',(-1.,0.,0.));
#1516=DIRECTION('ref_axis',(0.,-1.,0.));
#1517=DIRECTION('',(0.,-1.,0.));
#1518=DIRECTION('',(0.,0.,1.));
#1519=DIRECTION('',(0.,-1.,0.));
#1520=DIRECTION('',(0.,0.,-1.));
#1521=DIRECTION('',(0.,-1.,0.));
#1522=DIRECTION('',(0.,0.,1.));
#1523=DIRECTION('',(0.,-1.,0.));
#1524=DIRECTION('',(0.,0.,1.));
#1525=DIRECTION('',(0.,-1.,0.));
#1526=DIRECTION('',(0.,0.,1.));
#1527=DIRECTION('',(0.,-1.,0.));
#1528=DIRECTION('',(0.,0.,-1.));
#1529=DIRECTION('',(0.,-1.,0.));
#1530=DIRECTION('',(0.,0.,1.));
#1531=DIRECTION('',(0.,-1.,0.));
#1532=DIRECTION('center_axis',(0.,0.,1.));
#1533=DIRECTION('ref_axis',(0.707106781186549,-0.707106781186546,0.));
#1534=DIRECTION('center_axis',(0.,0.,1.));
#1535=DIRECTION('ref_axis',(0.707106781186549,-0.707106781186546,0.));
#1536=DIRECTION('center_axis',(0.,0.,-1.));
#1537=DIRECTION('ref_axis',(0.707106781186549,-0.707106781186546,0.));
#1538=DIRECTION('',(0.,0.,1.));
#1539=DIRECTION('center_axis',(0.,0.,1.));
#1540=DIRECTION('ref_axis',(0.707106781186549,-0.707106781186546,0.));
#1541=DIRECTION('center_axis',(0.,0.,1.));
#1542=DIRECTION('ref_axis',(0.707106781186549,-0.707106781186546,0.));
#1543=DIRECTION('center_axis',(0.,0.,-1.));
#1544=DIRECTION('ref_axis',(0.707106781186549,-0.707106781186546,0.));
#1545=DIRECTION('',(0.,0.,1.));
#1546=DIRECTION('center_axis',(0.,0.,-1.));
#1547=DIRECTION('ref_axis',(0.707106781186548,0.707106781186547,0.));
#1548=DIRECTION('center_axis',(0.,0.,1.));
#1549=DIRECTION('ref_axis',(0.707106781186548,0.707106781186547,0.));
#1550=DIRECTION('',(0.,0.,-1.));
#1551=DIRECTION('center_axis',(0.,0.,-1.));
#1552=DIRECTION('ref_axis',(0.707106781186548,0.707106781186547,0.));
#1553=DIRECTION('center_axis',(0.,-1.,0.));
#1554=DIRECTION('ref_axis',(1.,0.,0.));
#1555=DIRECTION('',(1.,0.,0.));
#1556=DIRECTION('',(0.,0.,1.));
#1557=DIRECTION('',(1.,0.,0.));
#1558=DIRECTION('center_axis',(0.,0.,-1.));
#1559=DIRECTION('ref_axis',(0.707106781186549,0.707106781186546,0.));
#1560=DIRECTION('center_axis',(0.,0.,1.));
#1561=DIRECTION('ref_axis',(0.707106781186549,0.707106781186546,0.));
#1562=DIRECTION('',(0.,0.,-1.));
#1563=DIRECTION('center_axis',(0.,0.,-1.));
#1564=DIRECTION('ref_axis',(0.707106781186549,0.707106781186546,0.));
#1565=DIRECTION('center_axis',(0.,-1.,0.));
#1566=DIRECTION('ref_axis',(1.,0.,0.));
#1567=DIRECTION('',(1.,0.,0.));
#1568=DIRECTION('',(0.,0.,1.));
#1569=DIRECTION('',(-1.,0.,0.));
#1570=DIRECTION('center_axis',(0.,0.,-1.));
#1571=DIRECTION('ref_axis',(0.70710678118655,0.707106781186545,0.));
#1572=DIRECTION('center_axis',(0.,0.,1.));
#1573=DIRECTION('ref_axis',(0.70710678118655,0.707106781186545,0.));
#1574=DIRECTION('',(0.,0.,-1.));
#1575=DIRECTION('center_axis',(0.,0.,-1.));
#1576=DIRECTION('ref_axis',(0.70710678118655,0.707106781186545,0.));
#1577=DIRECTION('center_axis',(0.,-1.,0.));
#1578=DIRECTION('ref_axis',(1.,0.,0.));
#1579=DIRECTION('',(1.,0.,0.));
#1580=DIRECTION('',(0.,0.,1.));
#1581=DIRECTION('',(1.,0.,0.));
#1582=DIRECTION('center_axis',(0.,0.,1.));
#1583=DIRECTION('ref_axis',(-0.707106781186549,0.707106781186546,0.));
#1584=DIRECTION('center_axis',(0.,0.,1.));
#1585=DIRECTION('ref_axis',(-0.707106781186549,0.707106781186546,0.));
#1586=DIRECTION('',(0.,0.,-1.));
#1587=DIRECTION('center_axis',(0.,0.,-1.));
#1588=DIRECTION('ref_axis',(-0.707106781186549,0.707106781186546,0.));
#1589=DIRECTION('',(0.,0.,1.));
#1590=DIRECTION('center_axis',(1.,0.,0.));
#1591=DIRECTION('ref_axis',(0.,1.,0.));
#1592=DIRECTION('',(0.,1.,0.));
#1593=DIRECTION('',(0.,0.,1.));
#1594=DIRECTION('',(0.,1.,0.));
#1595=DIRECTION('',(0.,0.,1.));
#1596=DIRECTION('',(0.,1.,0.));
#1597=DIRECTION('',(0.,0.,1.));
#1598=DIRECTION('',(0.,1.,0.));
#1599=DIRECTION('',(0.,0.,-1.));
#1600=DIRECTION('',(0.,1.,0.));
#1601=DIRECTION('',(0.,0.,1.));
#1602=DIRECTION('',(0.,1.,0.));
#1603=DIRECTION('',(0.,0.,-1.));
#1604=DIRECTION('',(0.,1.,0.));
#1605=DIRECTION('',(0.,0.,1.));
#1606=DIRECTION('',(0.,1.,0.));
#1607=DIRECTION('center_axis',(0.,0.,1.));
#1608=DIRECTION('ref_axis',(-0.707106781186549,0.707106781186546,0.));
#1609=DIRECTION('center_axis',(0.,0.,1.));
#1610=DIRECTION('ref_axis',(-0.707106781186549,0.707106781186546,0.));
#1611=DIRECTION('center_axis',(0.,0.,-1.));
#1612=DIRECTION('ref_axis',(-0.707106781186549,0.707106781186546,0.));
#1613=DIRECTION('',(0.,0.,1.));
#1614=DIRECTION('center_axis',(0.,0.,1.));
#1615=DIRECTION('ref_axis',(-0.70710678118655,0.707106781186545,0.));
#1616=DIRECTION('center_axis',(0.,0.,1.));
#1617=DIRECTION('ref_axis',(-0.70710678118655,0.707106781186545,0.));
#1618=DIRECTION('center_axis',(0.,0.,-1.));
#1619=DIRECTION('ref_axis',(-0.70710678118655,0.707106781186545,0.));
#1620=DIRECTION('',(0.,0.,1.));
#1621=DIRECTION('center_axis',(0.,0.,-1.));
#1622=DIRECTION('ref_axis',(-0.707106781186549,-0.707106781186546,0.));
#1623=DIRECTION('center_axis',(0.,0.,1.));
#1624=DIRECTION('ref_axis',(-0.707106781186549,-0.707106781186546,0.));
#1625=DIRECTION('',(0.,0.,-1.));
#1626=DIRECTION('center_axis',(0.,0.,-1.));
#1627=DIRECTION('ref_axis',(-0.707106781186549,-0.707106781186546,0.));
#1628=DIRECTION('center_axis',(0.,1.,0.));
#1629=DIRECTION('ref_axis',(-1.,0.,0.));
#1630=DIRECTION('',(-1.,0.,0.));
#1631=DIRECTION('',(0.,0.,1.));
#1632=DIRECTION('',(-1.,0.,0.));
#1633=DIRECTION('center_axis',(0.,0.,-1.));
#1634=DIRECTION('ref_axis',(-0.707106781186549,-0.707106781186546,0.));
#1635=DIRECTION('center_axis',(0.,0.,1.));
#1636=DIRECTION('ref_axis',(-0.707106781186549,-0.707106781186546,0.));
#1637=DIRECTION('',(0.,0.,-1.));
#1638=DIRECTION('center_axis',(0.,0.,-1.));
#1639=DIRECTION('ref_axis',(-0.707106781186549,-0.707106781186546,0.));
#1640=DIRECTION('center_axis',(0.,1.,0.));
#1641=DIRECTION('ref_axis',(-1.,0.,0.));
#1642=DIRECTION('',(-1.,0.,0.));
#1643=DIRECTION('',(0.,0.,1.));
#1644=DIRECTION('',(-1.,0.,0.));
#1645=DIRECTION('center_axis',(0.,0.,-1.));
#1646=DIRECTION('ref_axis',(-0.707106781186549,-0.707106781186546,0.));
#1647=DIRECTION('center_axis',(0.,0.,1.));
#1648=DIRECTION('ref_axis',(-0.707106781186549,-0.707106781186546,0.));
#1649=DIRECTION('',(0.,0.,-1.));
#1650=DIRECTION('center_axis',(0.,0.,-1.));
#1651=DIRECTION('ref_axis',(-0.707106781186549,-0.707106781186546,0.));
#1652=DIRECTION('center_axis',(0.,1.,0.));
#1653=DIRECTION('ref_axis',(-1.,0.,0.));
#1654=DIRECTION('',(-1.,0.,0.));
#1655=DIRECTION('',(0.,0.,1.));
#1656=DIRECTION('',(1.,0.,0.));
#1657=DIRECTION('center_axis',(0.,0.,1.));
#1658=DIRECTION('ref_axis',(1.,0.,0.));
#1659=DIRECTION('center_axis',(0.,0.,-1.));
#1660=DIRECTION('ref_axis',(1.,0.,0.));
#1661=DIRECTION('center_axis',(0.,-1.,0.));
#1662=DIRECTION('ref_axis',(-1.,0.,0.));
#1663=DIRECTION('center_axis',(0.,0.,-1.));
#1664=DIRECTION('ref_axis',(1.,0.,0.));
#1665=DIRECTION('center_axis',(0.,0.,-1.));
#1666=DIRECTION('ref_axis',(1.,0.,0.));
#1667=DIRECTION('center_axis',(1.,0.,0.));
#1668=DIRECTION('ref_axis',(0.,1.,0.));
#1669=DIRECTION('',(0.,-1.,0.));
#1670=DIRECTION('',(0.,1.,0.));
#1671=DIRECTION('',(0.,0.,1.));
#1672=DIRECTION('',(0.,-1.,0.));
#1673=DIRECTION('center_axis',(0.,-1.,0.));
#1674=DIRECTION('ref_axis',(1.,0.,0.));
#1675=DIRECTION('',(-1.,0.,0.));
#1676=DIRECTION('',(1.,0.,0.));
#1677=DIRECTION('center_axis',(0.,0.,-1.));
#1678=DIRECTION('ref_axis',(1.,0.,0.));
#1679=DIRECTION('center_axis',(0.,0.,1.));
#1680=DIRECTION('ref_axis',(1.,0.,0.));
#1681=DIRECTION('center_axis',(0.,0.,-1.));
#1682=DIRECTION('ref_axis',(1.,0.,0.));
#1683=DIRECTION('',(0.,0.,-1.));
#1684=DIRECTION('center_axis',(0.,0.,1.));
#1685=DIRECTION('ref_axis',(1.,0.,0.));
#1686=DIRECTION('center_axis',(-1.,0.,0.));
#1687=DIRECTION('ref_axis',(0.,-1.,0.));
#1688=DIRECTION('',(0.,-1.,0.));
#1689=DIRECTION('',(0.,-1.,0.));
#1690=DIRECTION('',(0.,0.,1.));
#1691=DIRECTION('center_axis',(0.,1.,0.));
#1692=DIRECTION('ref_axis',(-1.,0.,0.));
#1693=DIRECTION('',(-1.,0.,0.));
#1694=DIRECTION('',(-1.,0.,0.));
#1695=DIRECTION('center_axis',(0.,0.,-1.));
#1696=DIRECTION('ref_axis',(1.,0.,0.));
#1697=DIRECTION('center_axis',(0.,0.,1.));
#1698=DIRECTION('ref_axis',(1.,0.,0.));
#1699=DIRECTION('center_axis',(0.,0.,-1.));
#1700=DIRECTION('ref_axis',(1.,0.,0.));
#1701=DIRECTION('',(0.,0.,-1.));
#1702=DIRECTION('center_axis',(0.,0.,1.));
#1703=DIRECTION('ref_axis',(1.,0.,0.));
#1704=DIRECTION('center_axis',(-1.,0.,0.));
#1705=DIRECTION('ref_axis',(0.,-1.,0.));
#1706=DIRECTION('',(0.,1.,0.));
#1707=DIRECTION('',(0.,-1.,0.));
#1708=DIRECTION('',(0.,0.,1.));
#1709=DIRECTION('center_axis',(0.,1.,0.));
#1710=DIRECTION('ref_axis',(-1.,0.,0.));
#1711=DIRECTION('',(1.,0.,0.));
#1712=DIRECTION('',(-1.,0.,0.));
#1713=DIRECTION('center_axis',(0.,0.,-1.));
#1714=DIRECTION('ref_axis',(1.,0.,0.));
#1715=DIRECTION('center_axis',(0.,0.,1.));
#1716=DIRECTION('ref_axis',(1.,0.,0.));
#1717=DIRECTION('center_axis',(0.,0.,-1.));
#1718=DIRECTION('ref_axis',(1.,0.,0.));
#1719=DIRECTION('',(0.,0.,-1.));
#1720=DIRECTION('center_axis',(0.,0.,1.));
#1721=DIRECTION('ref_axis',(1.,0.,0.));
#1722=DIRECTION('center_axis',(0.,-1.,0.));
#1723=DIRECTION('ref_axis',(1.,0.,0.));
#1724=DIRECTION('',(1.,0.,0.));
#1725=DIRECTION('',(0.,0.,1.));
#1726=DIRECTION('',(1.,0.,0.));
#1727=DIRECTION('center_axis',(1.,0.,0.));
#1728=DIRECTION('ref_axis',(0.,1.,0.));
#1729=DIRECTION('',(0.,1.,0.));
#1730=DIRECTION('',(0.,1.,0.));
#1731=DIRECTION('center_axis',(0.,0.,-1.));
#1732=DIRECTION('ref_axis',(1.,0.,0.));
#1733=DIRECTION('center_axis',(0.,0.,1.));
#1734=DIRECTION('ref_axis',(1.,0.,0.));
#1735=DIRECTION('center_axis',(0.,0.,-1.));
#1736=DIRECTION('ref_axis',(1.,0.,0.));
#1737=DIRECTION('',(0.,0.,-1.));
#1738=DIRECTION('center_axis',(0.,0.,1.));
#1739=DIRECTION('ref_axis',(1.,0.,0.));
#1740=DIRECTION('center_axis',(0.,-1.,0.));
#1741=DIRECTION('ref_axis',(1.,0.,0.));
#1742=DIRECTION('',(1.,0.,0.));
#1743=DIRECTION('',(0.,0.,1.));
#1744=DIRECTION('',(1.,0.,0.));
#1745=DIRECTION('center_axis',(1.,0.,0.));
#1746=DIRECTION('ref_axis',(0.,1.,0.));
#1747=DIRECTION('',(0.,1.,0.));
#1748=DIRECTION('',(0.,1.,0.));
#1749=DIRECTION('center_axis',(0.,0.,-1.));
#1750=DIRECTION('ref_axis',(1.,0.,0.));
#1751=DIRECTION('center_axis',(0.,0.,1.));
#1752=DIRECTION('ref_axis',(1.,0.,0.));
#1753=DIRECTION('center_axis',(0.,0.,-1.));
#1754=DIRECTION('ref_axis',(1.,0.,0.));
#1755=DIRECTION('',(0.,0.,-1.));
#1756=DIRECTION('center_axis',(0.,0.,1.));
#1757=DIRECTION('ref_axis',(1.,0.,0.));
#1758=DIRECTION('center_axis',(-1.,0.,0.));
#1759=DIRECTION('ref_axis',(0.,-1.,0.));
#1760=DIRECTION('',(0.,-1.,0.));
#1761=DIRECTION('',(0.,-1.,0.));
#1762=DIRECTION('',(0.,0.,1.));
#1763=DIRECTION('center_axis',(0.,1.,0.));
#1764=DIRECTION('ref_axis',(-1.,0.,0.));
#1765=DIRECTION('',(-1.,0.,0.));
#1766=DIRECTION('',(-1.,0.,0.));
#1767=DIRECTION('center_axis',(0.,0.,-1.));
#1768=DIRECTION('ref_axis',(1.,0.,0.));
#1769=DIRECTION('center_axis',(0.,1.,0.));
#1770=DIRECTION('ref_axis',(-1.,0.,0.));
#1771=DIRECTION('',(1.,0.,0.));
#1772=DIRECTION('',(0.,0.,1.));
#1773=DIRECTION('',(-1.,0.,0.));
#1774=DIRECTION('',(0.,0.,1.));
#1775=DIRECTION('center_axis',(-1.,0.,0.));
#1776=DIRECTION('ref_axis',(0.,-1.,0.));
#1777=DIRECTION('',(0.,1.,0.));
#1778=DIRECTION('',(0.,-1.,0.));
#1779=DIRECTION('',(0.,0.,1.));
#1780=DIRECTION('center_axis',(0.,-1.,0.));
#1781=DIRECTION('ref_axis',(1.,0.,0.));
#1782=DIRECTION('',(-1.,0.,0.));
#1783=DIRECTION('',(1.,0.,0.));
#1784=DIRECTION('',(0.,0.,1.));
#1785=DIRECTION('center_axis',(1.,0.,0.));
#1786=DIRECTION('ref_axis',(0.,1.,0.));
#1787=DIRECTION('',(0.,-1.,0.));
#1788=DIRECTION('',(0.,1.,0.));
#1789=DIRECTION('center_axis',(0.,0.,1.));
#1790=DIRECTION('ref_axis',(1.,0.,0.));
#1791=DIRECTION('',(1.,0.,0.));
#1792=DIRECTION('',(-1.,0.,0.));
#1793=DIRECTION('center_axis',(0.,-1.,0.));
#1794=DIRECTION('ref_axis',(1.,0.,0.));
#1795=DIRECTION('',(1.,0.,0.));
#1796=DIRECTION('center_axis',(0.,1.,0.));
#1797=DIRECTION('ref_axis',(-1.,0.,0.));
#1798=DIRECTION('',(-1.,0.,0.));
#1799=DIRECTION('center_axis',(0.,0.,1.));
#1800=DIRECTION('ref_axis',(1.,0.,0.));
#1801=DIRECTION('center_axis',(0.,0.,1.));
#1802=DIRECTION('ref_axis',(1.,0.,0.));
#1803=DIRECTION('center_axis',(0.,0.,1.));
#1804=DIRECTION('ref_axis',(1.,0.,0.));
#1805=DIRECTION('',(-1.,0.,0.));
#1806=DIRECTION('',(0.,1.,0.));
#1807=DIRECTION('',(1.,0.,0.));
#1808=DIRECTION('',(0.,-1.,0.));
#1809=DIRECTION('',(1.,0.,0.));
#1810=DIRECTION('',(0.,1.,0.));
#1811=DIRECTION('',(-1.,0.,0.));
#1812=DIRECTION('',(0.,-1.,0.));
#1813=DIRECTION('center_axis',(1.,0.,0.));
#1814=DIRECTION('ref_axis',(0.,-1.,0.));
#1815=DIRECTION('',(0.,0.,-1.));
#1816=DIRECTION('',(0.,1.,0.));
#1817=DIRECTION('',(0.,0.,-1.));
#1818=DIRECTION('center_axis',(0.,-1.,0.));
#1819=DIRECTION('ref_axis',(-1.,0.,0.));
#1820=DIRECTION('',(0.,0.,-1.));
#1821=DIRECTION('',(1.,0.,0.));
#1822=DIRECTION('center_axis',(-1.,0.,0.));
#1823=DIRECTION('ref_axis',(0.,-1.,0.));
#1824=DIRECTION('',(0.,0.,-1.));
#1825=DIRECTION('',(0.,-1.,0.));
#1826=DIRECTION('',(0.,0.,1.));
#1827=DIRECTION('center_axis',(0.,-1.,0.));
#1828=DIRECTION('ref_axis',(1.,0.,0.));
#1829=DIRECTION('',(0.,0.,1.));
#1830=DIRECTION('',(1.,0.,0.));
#1831=DIRECTION('center_axis',(-1.,0.,0.));
#1832=DIRECTION('ref_axis',(0.,1.,0.));
#1833=DIRECTION('',(0.,0.,-1.));
#1834=DIRECTION('',(0.,-1.,0.));
#1835=DIRECTION('center_axis',(0.,1.,0.));
#1836=DIRECTION('ref_axis',(1.,0.,0.));
#1837=DIRECTION('',(-1.,0.,0.));
#1838=DIRECTION('center_axis',(0.,1.,0.));
#1839=DIRECTION('ref_axis',(-1.,0.,0.));
#1840=DIRECTION('',(-1.,0.,0.));
#1841=DIRECTION('',(0.,0.,1.));
#1842=DIRECTION('center_axis',(1.,0.,0.));
#1843=DIRECTION('ref_axis',(0.,1.,0.));
#1844=DIRECTION('',(0.,1.,0.));
#1845=DIRECTION('center_axis',(0.,0.,1.));
#1846=DIRECTION('ref_axis',(1.,0.,0.));
#1847=DIRECTION('center_axis',(0.,0.,1.));
#1848=DIRECTION('ref_axis',(-1.,0.,0.));
#1849=CARTESIAN_POINT('',(0.,0.,0.));
#1850=CARTESIAN_POINT('Origin',(-45.,20.,3.));
#1851=CARTESIAN_POINT('',(-45.,-50.,3.));
#1852=CARTESIAN_POINT('',(-45.,20.,3.));
#1853=CARTESIAN_POINT('',(-45.,-50.,3.));
#1854=CARTESIAN_POINT('',(-45.,-50.,24.));
#1855=CARTESIAN_POINT('',(-45.,-50.,3.));
#1856=CARTESIAN_POINT('',(-45.,20.,24.));
#1857=CARTESIAN_POINT('',(-45.,-50.,24.));
#1858=CARTESIAN_POINT('',(-45.,20.,3.));
#1859=CARTESIAN_POINT('Origin',(55.,20.,3.));
#1860=CARTESIAN_POINT('',(55.,20.,3.));
#1861=CARTESIAN_POINT('',(-45.,20.,3.));
#1862=CARTESIAN_POINT('',(55.,20.,24.));
#1863=CARTESIAN_POINT('',(-45.,20.,24.));
#1864=CARTESIAN_POINT('',(55.,20.,3.));
#1865=CARTESIAN_POINT('Origin',(55.,-50.,3.));
#1866=CARTESIAN_POINT('',(55.,-50.,3.));
#1867=CARTESIAN_POINT('',(55.,20.,3.));
#1868=CARTESIAN_POINT('',(55.,-50.,24.));
#1869=CARTESIAN_POINT('',(55.,20.,24.));
#1870=CARTESIAN_POINT('',(55.,-50.,3.));
#1871=CARTESIAN_POINT('Origin',(-45.,-50.,3.));
#1872=CARTESIAN_POINT('',(55.,-50.,3.));
#1873=CARTESIAN_POINT('',(55.,-50.,24.));
#1874=CARTESIAN_POINT('Origin',(5.,-15.,24.));
#1875=CARTESIAN_POINT('Origin',(5.,-15.,3.));
#1876=CARTESIAN_POINT('Origin',(-54.,-7.,0.));
#1877=CARTESIAN_POINT('',(-54.,-10.,3.));
#1878=CARTESIAN_POINT('',(-51.,-7.,3.));
#1879=CARTESIAN_POINT('Origin',(-54.,-7.,3.));
#1880=CARTESIAN_POINT('',(-51.,-7.,0.));
#1881=CARTESIAN_POINT('',(-51.,-7.,0.));
#1882=CARTESIAN_POINT('',(-54.,-10.,0.));
#1883=CARTESIAN_POINT('Origin',(-54.,-7.,0.));
#1884=CARTESIAN_POINT('',(-54.,-10.,0.));
#1885=CARTESIAN_POINT('Origin',(-51.,26.,0.));
#1886=CARTESIAN_POINT('',(-51.,-23.,3.));
#1887=CARTESIAN_POINT('',(-51.,5.5,3.));
#1888=CARTESIAN_POINT('',(-51.,-23.,0.));
#1889=CARTESIAN_POINT('',(-51.,-23.,0.));
#1890=CARTESIAN_POINT('',(-51.,-37.,0.));
#1891=CARTESIAN_POINT('',(-51.,26.,0.));
#1892=CARTESIAN_POINT('',(-51.,-37.,3.));
#1893=CARTESIAN_POINT('',(-51.,-37.,0.));
#1894=CARTESIAN_POINT('',(-51.,-53.,3.));
#1895=CARTESIAN_POINT('',(-51.,-9.5,3.));
#1896=CARTESIAN_POINT('',(-51.,-53.,0.));
#1897=CARTESIAN_POINT('',(-51.,-53.,0.));
#1898=CARTESIAN_POINT('',(-51.,-56.,0.));
#1899=CARTESIAN_POINT('',(-51.,26.,0.));
#1900=CARTESIAN_POINT('',(-51.,-56.,37.));
#1901=CARTESIAN_POINT('',(-51.,-56.,0.));
#1902=CARTESIAN_POINT('',(-51.,26.,37.));
#1903=CARTESIAN_POINT('',(-51.,26.,37.));
#1904=CARTESIAN_POINT('',(-51.,26.,0.));
#1905=CARTESIAN_POINT('',(-51.,26.,0.));
#1906=CARTESIAN_POINT('',(-51.,23.,0.));
#1907=CARTESIAN_POINT('',(-51.,26.,0.));
#1908=CARTESIAN_POINT('',(-51.,23.,3.));
#1909=CARTESIAN_POINT('',(-51.,23.,0.));
#1910=CARTESIAN_POINT('',(-51.,7.,3.));
#1911=CARTESIAN_POINT('',(-51.,20.5,3.));
#1912=CARTESIAN_POINT('',(-51.,7.,0.));
#1913=CARTESIAN_POINT('',(-51.,7.,0.));
#1914=CARTESIAN_POINT('',(-51.,26.,0.));
#1915=CARTESIAN_POINT('Origin',(-54.,-37.,0.));
#1916=CARTESIAN_POINT('',(-54.,-40.,3.));
#1917=CARTESIAN_POINT('Origin',(-54.,-37.,3.));
#1918=CARTESIAN_POINT('',(-54.,-40.,0.));
#1919=CARTESIAN_POINT('Origin',(-54.,-37.,0.));
#1920=CARTESIAN_POINT('',(-54.,-40.,0.));
#1921=CARTESIAN_POINT('Origin',(-54.,23.,0.));
#1922=CARTESIAN_POINT('',(-54.,20.,3.));
#1923=CARTESIAN_POINT('Origin',(-54.,23.,3.));
#1924=CARTESIAN_POINT('',(-54.,20.,0.));
#1925=CARTESIAN_POINT('Origin',(-54.,23.,0.));
#1926=CARTESIAN_POINT('',(-54.,20.,0.));
#1927=CARTESIAN_POINT('Origin',(-54.,7.,0.));
#1928=CARTESIAN_POINT('',(-54.,10.,3.));
#1929=CARTESIAN_POINT('Origin',(-54.,7.,3.));
#1930=CARTESIAN_POINT('',(-54.,10.,0.));
#1931=CARTESIAN_POINT('',(-54.,10.,0.));
#1932=CARTESIAN_POINT('Origin',(-54.,7.,0.));
#1933=CARTESIAN_POINT('Origin',(-56.5,10.,0.));
#1934=CARTESIAN_POINT('',(-56.5,10.,3.));
#1935=CARTESIAN_POINT('',(-56.5,10.,3.));
#1936=CARTESIAN_POINT('',(-56.5,10.,0.));
#1937=CARTESIAN_POINT('',(-56.5,10.,0.));
#1938=CARTESIAN_POINT('',(-56.5,10.,0.));
#1939=CARTESIAN_POINT('Origin',(-54.,-23.,0.));
#1940=CARTESIAN_POINT('',(-54.,-20.,3.));
#1941=CARTESIAN_POINT('Origin',(-54.,-23.,3.));
#1942=CARTESIAN_POINT('',(-54.,-20.,0.));
#1943=CARTESIAN_POINT('',(-54.,-20.,0.));
#1944=CARTESIAN_POINT('Origin',(-54.,-23.,0.));
#1945=CARTESIAN_POINT('Origin',(-56.5,-20.,0.));
#1946=CARTESIAN_POINT('',(-56.5,-20.,3.));
#1947=CARTESIAN_POINT('',(66.5,-20.,3.));
#1948=CARTESIAN_POINT('',(-56.5,-20.,0.));
#1949=CARTESIAN_POINT('',(-56.5,-20.,0.));
#1950=CARTESIAN_POINT('',(66.5,-20.,0.));
#1951=CARTESIAN_POINT('Origin',(-54.,-53.,0.));
#1952=CARTESIAN_POINT('',(-54.,-50.,3.));
#1953=CARTESIAN_POINT('Origin',(-54.,-53.,3.));
#1954=CARTESIAN_POINT('',(-54.,-50.,0.));
#1955=CARTESIAN_POINT('',(-54.,-50.,0.));
#1956=CARTESIAN_POINT('Origin',(-54.,-53.,0.));
#1957=CARTESIAN_POINT('Origin',(-56.5,-50.,0.));
#1958=CARTESIAN_POINT('',(-56.5,-50.,3.));
#1959=CARTESIAN_POINT('',(-56.5,-50.,3.));
#1960=CARTESIAN_POINT('',(-56.5,-50.,0.));
#1961=CARTESIAN_POINT('',(-56.5,-50.,0.));
#1962=CARTESIAN_POINT('',(-56.5,-50.,0.));
#1963=CARTESIAN_POINT('Origin',(64.,7.,0.));
#1964=CARTESIAN_POINT('',(64.,10.,3.));
#1965=CARTESIAN_POINT('',(61.,7.,3.));
#1966=CARTESIAN_POINT('Origin',(64.,7.,3.));
#1967=CARTESIAN_POINT('',(61.,7.,0.));
#1968=CARTESIAN_POINT('',(61.,7.,0.));
#1969=CARTESIAN_POINT('',(64.,10.,0.));
#1970=CARTESIAN_POINT('Origin',(64.,7.,0.));
#1971=CARTESIAN_POINT('',(64.,10.,0.));
#1972=CARTESIAN_POINT('Origin',(61.,-56.,0.));
#1973=CARTESIAN_POINT('',(61.,23.,3.));
#1974=CARTESIAN_POINT('',(61.,-20.5,3.));
#1975=CARTESIAN_POINT('',(61.,23.,0.));
#1976=CARTESIAN_POINT('',(61.,23.,0.));
#1977=CARTESIAN_POINT('',(61.,26.,0.));
#1978=CARTESIAN_POINT('',(61.,-56.,0.));
#1979=CARTESIAN_POINT('',(61.,26.,37.));
#1980=CARTESIAN_POINT('',(61.,26.,0.));
#1981=CARTESIAN_POINT('',(61.,-56.,37.));
#1982=CARTESIAN_POINT('',(61.,-56.,37.));
#1983=CARTESIAN_POINT('',(61.,-56.,0.));
#1984=CARTESIAN_POINT('',(61.,-56.,0.));
#1985=CARTESIAN_POINT('',(61.,-53.,0.));
#1986=CARTESIAN_POINT('',(61.,-56.,0.));
#1987=CARTESIAN_POINT('',(61.,-53.,3.));
#1988=CARTESIAN_POINT('',(61.,-53.,0.));
#1989=CARTESIAN_POINT('',(61.,-37.,3.));
#1990=CARTESIAN_POINT('',(61.,-50.5,3.));
#1991=CARTESIAN_POINT('',(61.,-37.,0.));
#1992=CARTESIAN_POINT('',(61.,-37.,0.));
#1993=CARTESIAN_POINT('',(61.,-23.,0.));
#1994=CARTESIAN_POINT('',(61.,-56.,0.));
#1995=CARTESIAN_POINT('',(61.,-23.,3.));
#1996=CARTESIAN_POINT('',(61.,-23.,0.));
#1997=CARTESIAN_POINT('',(61.,-7.,3.));
#1998=CARTESIAN_POINT('',(61.,-35.5,3.));
#1999=CARTESIAN_POINT('',(61.,-7.,0.));
#2000=CARTESIAN_POINT('',(61.,-7.,0.));
#2001=CARTESIAN_POINT('',(61.,-56.,0.));
#2002=CARTESIAN_POINT('Origin',(64.,-23.,0.));
#2003=CARTESIAN_POINT('',(64.,-20.,3.));
#2004=CARTESIAN_POINT('Origin',(64.,-23.,3.));
#2005=CARTESIAN_POINT('',(64.,-20.,0.));
#2006=CARTESIAN_POINT('Origin',(64.,-23.,0.));
#2007=CARTESIAN_POINT('',(64.,-20.,0.));
#2008=CARTESIAN_POINT('Origin',(64.,-53.,0.));
#2009=CARTESIAN_POINT('',(64.,-50.,3.));
#2010=CARTESIAN_POINT('Origin',(64.,-53.,3.));
#2011=CARTESIAN_POINT('',(64.,-50.,0.));
#2012=CARTESIAN_POINT('Origin',(64.,-53.,0.));
#2013=CARTESIAN_POINT('',(64.,-50.,0.));
#2014=CARTESIAN_POINT('Origin',(64.,-37.,0.));
#2015=CARTESIAN_POINT('',(64.,-40.,3.));
#2016=CARTESIAN_POINT('Origin',(64.,-37.,3.));
#2017=CARTESIAN_POINT('',(64.,-40.,0.));
#2018=CARTESIAN_POINT('',(64.,-40.,0.));
#2019=CARTESIAN_POINT('Origin',(64.,-37.,0.));
#2020=CARTESIAN_POINT('Origin',(66.5,-40.,0.));
#2021=CARTESIAN_POINT('',(66.5,-40.,3.));
#2022=CARTESIAN_POINT('',(66.5,-40.,3.));
#2023=CARTESIAN_POINT('',(66.5,-40.,0.));
#2024=CARTESIAN_POINT('',(66.5,-40.,0.));
#2025=CARTESIAN_POINT('',(66.5,-40.,0.));
#2026=CARTESIAN_POINT('Origin',(64.,23.,0.));
#2027=CARTESIAN_POINT('',(64.,20.,3.));
#2028=CARTESIAN_POINT('Origin',(64.,23.,3.));
#2029=CARTESIAN_POINT('',(64.,20.,0.));
#2030=CARTESIAN_POINT('',(64.,20.,0.));
#2031=CARTESIAN_POINT('Origin',(64.,23.,0.));
#2032=CARTESIAN_POINT('Origin',(66.5,20.,0.));
#2033=CARTESIAN_POINT('',(66.5,20.,3.));
#2034=CARTESIAN_POINT('',(66.5,20.,3.));
#2035=CARTESIAN_POINT('',(66.5,20.,0.));
#2036=CARTESIAN_POINT('',(66.5,20.,0.));
#2037=CARTESIAN_POINT('',(66.5,20.,0.));
#2038=CARTESIAN_POINT('Origin',(64.,-7.,0.));
#2039=CARTESIAN_POINT('',(64.,-10.,3.));
#2040=CARTESIAN_POINT('Origin',(64.,-7.,3.));
#2041=CARTESIAN_POINT('',(64.,-10.,0.));
#2042=CARTESIAN_POINT('',(64.,-10.,0.));
#2043=CARTESIAN_POINT('Origin',(64.,-7.,0.));
#2044=CARTESIAN_POINT('Origin',(66.5,-10.,0.));
#2045=CARTESIAN_POINT('',(66.5,-10.,3.));
#2046=CARTESIAN_POINT('',(-56.5,-10.,3.));
#2047=CARTESIAN_POINT('',(66.5,-10.,0.));
#2048=CARTESIAN_POINT('',(66.5,-10.,0.));
#2049=CARTESIAN_POINT('',(-56.5,-10.,0.));
#2050=CARTESIAN_POINT('Origin',(64.0000008046627,-15.0000002235174,3.));
#2051=CARTESIAN_POINT('',(66.5,-11.2583422991057,0.));
#2052=CARTESIAN_POINT('',(66.5,-18.7416581479291,0.));
#2053=CARTESIAN_POINT('Ctrl Pts',(66.5,-11.2583422991057,4.33680868994202E-17));
#2054=CARTESIAN_POINT('Ctrl Pts',(66.5,-11.7006205954588,2.49545538530493E-17));
#2055=CARTESIAN_POINT('Ctrl Pts',(66.5,-12.2244061487626,0.0855992161311613));
#2056=CARTESIAN_POINT('Ctrl Pts',(66.5,-13.3934842159878,0.391285761013763));
#2057=CARTESIAN_POINT('Ctrl Pts',(66.5,-14.2338962165454,0.763932742212666));
#2058=CARTESIAN_POINT('Ctrl Pts',(66.5,-15.0000002235174,0.763932742212666));
#2059=CARTESIAN_POINT('Ctrl Pts',(66.5,-15.7661042304894,0.763932742212666));
#2060=CARTESIAN_POINT('Ctrl Pts',(66.5,-16.606516231047,0.391285761013763));
#2061=CARTESIAN_POINT('Ctrl Pts',(66.5,-17.7755942982722,0.0855992161311613));
#2062=CARTESIAN_POINT('Ctrl Pts',(66.5,-18.299379851576,6.25163573180365E-17));
#2063=CARTESIAN_POINT('Ctrl Pts',(66.5,-18.7416581479291,5.63785129692462E-17));
#2064=CARTESIAN_POINT('',(59.5000008046627,-15.0000002235174,0.));
#2065=CARTESIAN_POINT('Origin',(64.0000008046627,-15.0000002235174,0.));
#2066=CARTESIAN_POINT('',(62.5000008046627,-15.0000002235174,3.));
#2067=CARTESIAN_POINT('Origin',(59.5000008046627,-15.0000002235174,3.));
#2068=CARTESIAN_POINT('Origin',(64.0000008046627,-15.0000002235174,3.));
#2069=CARTESIAN_POINT('Origin',(64.0000008046627,-15.0000002235174,0.));
#2070=CARTESIAN_POINT('Origin',(66.5,-20.,0.));
#2071=CARTESIAN_POINT('',(66.5,-10.,0.));
#2072=CARTESIAN_POINT('',(66.5,-20.,3.));
#2073=CARTESIAN_POINT('',(66.5,-10.,3.));
#2074=CARTESIAN_POINT('',(66.5,-20.,0.));
#2075=CARTESIAN_POINT('',(66.5,-20.,0.));
#2076=CARTESIAN_POINT('',(66.5,-10.,0.));
#2077=CARTESIAN_POINT('Origin',(61.,-20.,0.));
#2078=CARTESIAN_POINT('',(66.5,-20.,0.));
#2079=CARTESIAN_POINT('',(66.5,-20.,3.));
#2080=CARTESIAN_POINT('Origin',(63.75,-15.,3.));
#2081=CARTESIAN_POINT('Origin',(-54.0000008046627,-44.9999997764826,0.));
#2082=CARTESIAN_POINT('',(-55.5000008046627,-44.9999997764826,3.));
#2083=CARTESIAN_POINT('Origin',(-54.0000008046627,-44.9999997764826,3.));
#2084=CARTESIAN_POINT('',(-55.5000008046627,-44.9999997764826,0.));
#2085=CARTESIAN_POINT('',(-55.5000008046627,-44.9999997764826,0.));
#2086=CARTESIAN_POINT('Origin',(-54.0000008046627,-44.9999997764826,0.));
#2087=CARTESIAN_POINT('Origin',(-56.5,-40.,0.));
#2088=CARTESIAN_POINT('',(-56.5,-40.,0.));
#2089=CARTESIAN_POINT('',(-56.5,-40.,0.));
#2090=CARTESIAN_POINT('',(-56.5,-40.,3.));
#2091=CARTESIAN_POINT('',(-56.5,-40.,3.));
#2092=CARTESIAN_POINT('',(-56.5,-40.,0.));
#2093=CARTESIAN_POINT('Origin',(-51.,-40.,0.));
#2094=CARTESIAN_POINT('',(66.5,-40.,0.));
#2095=CARTESIAN_POINT('',(66.5,-40.,3.));
#2096=CARTESIAN_POINT('Origin',(-53.75,-45.,3.));
#2097=CARTESIAN_POINT('Origin',(-54.0000008046627,-15.0000002235174,0.));
#2098=CARTESIAN_POINT('',(-55.5000008046627,-15.0000002235174,3.));
#2099=CARTESIAN_POINT('Origin',(-54.0000008046627,-15.0000002235174,3.));
#2100=CARTESIAN_POINT('',(-55.5000008046627,-15.0000002235174,0.));
#2101=CARTESIAN_POINT('',(-55.5000008046627,-15.0000002235174,0.));
#2102=CARTESIAN_POINT('Origin',(-54.0000008046627,-15.0000002235174,0.));
#2103=CARTESIAN_POINT('Origin',(-56.5,-10.,0.));
#2104=CARTESIAN_POINT('',(-56.5,-10.,0.));
#2105=CARTESIAN_POINT('',(-56.5,-20.,0.));
#2106=CARTESIAN_POINT('',(-56.5,-10.,3.));
#2107=CARTESIAN_POINT('',(-56.5,-20.,3.));
#2108=CARTESIAN_POINT('',(-56.5,-10.,0.));
#2109=CARTESIAN_POINT('Origin',(-51.,-10.,0.));
#2110=CARTESIAN_POINT('',(-56.5,-10.,0.));
#2111=CARTESIAN_POINT('',(-56.5,-10.,3.));
#2112=CARTESIAN_POINT('Origin',(-53.75,-15.,3.));
#2113=CARTESIAN_POINT('Origin',(64.0000008046627,15.0000002235174,0.));
#2114=CARTESIAN_POINT('',(62.5000008046627,15.0000002235174,3.));
#2115=CARTESIAN_POINT('Origin',(64.0000008046627,15.0000002235174,3.));
#2116=CARTESIAN_POINT('',(62.5000008046627,15.0000002235174,0.));
#2117=CARTESIAN_POINT('',(62.5000008046627,15.0000002235174,0.));
#2118=CARTESIAN_POINT('Origin',(64.0000008046627,15.0000002235174,0.));
#2119=CARTESIAN_POINT('Origin',(61.,10.,0.));
#2120=CARTESIAN_POINT('',(66.5,10.,0.));
#2121=CARTESIAN_POINT('',(-56.5,10.,0.));
#2122=CARTESIAN_POINT('',(66.5,10.,3.));
#2123=CARTESIAN_POINT('',(66.5,10.,0.));
#2124=CARTESIAN_POINT('',(-56.5,10.,3.));
#2125=CARTESIAN_POINT('Origin',(66.5,10.,0.));
#2126=CARTESIAN_POINT('',(66.5,10.,0.));
#2127=CARTESIAN_POINT('',(66.5,10.,3.));
#2128=CARTESIAN_POINT('Origin',(63.75,15.,3.));
#2129=CARTESIAN_POINT('Origin',(64.0000008046627,-44.9999997764826,0.));
#2130=CARTESIAN_POINT('',(62.5000008046627,-44.9999997764826,3.));
#2131=CARTESIAN_POINT('Origin',(64.0000008046627,-44.9999997764826,3.));
#2132=CARTESIAN_POINT('',(62.5000008046627,-44.9999997764826,0.));
#2133=CARTESIAN_POINT('',(62.5000008046627,-44.9999997764826,0.));
#2134=CARTESIAN_POINT('Origin',(64.0000008046627,-44.9999997764826,0.));
#2135=CARTESIAN_POINT('Origin',(61.,-50.,0.));
#2136=CARTESIAN_POINT('',(66.5,-50.,0.));
#2137=CARTESIAN_POINT('',(-56.5,-50.,0.));
#2138=CARTESIAN_POINT('',(66.5,-50.,3.));
#2139=CARTESIAN_POINT('',(66.5,-50.,0.));
#2140=CARTESIAN_POINT('',(-56.5,-50.,3.));
#2141=CARTESIAN_POINT('Origin',(66.5,-50.,0.));
#2142=CARTESIAN_POINT('',(66.5,-50.,0.));
#2143=CARTESIAN_POINT('',(66.5,-50.,3.));
#2144=CARTESIAN_POINT('Origin',(63.75,-45.,3.));
#2145=CARTESIAN_POINT('Origin',(-54.0000008046627,15.0000002235174,0.));
#2146=CARTESIAN_POINT('',(-55.5000008046627,15.0000002235174,3.));
#2147=CARTESIAN_POINT('Origin',(-54.0000008046627,15.0000002235174,3.));
#2148=CARTESIAN_POINT('',(-55.5000008046627,15.0000002235174,0.));
#2149=CARTESIAN_POINT('',(-55.5000008046627,15.0000002235174,0.));
#2150=CARTESIAN_POINT('Origin',(-54.0000008046627,15.0000002235174,0.));
#2151=CARTESIAN_POINT('Origin',(-56.5,20.,0.));
#2152=CARTESIAN_POINT('',(-56.5,20.,0.));
#2153=CARTESIAN_POINT('',(-56.5,20.,0.));
#2154=CARTESIAN_POINT('',(-56.5,20.,3.));
#2155=CARTESIAN_POINT('',(-56.5,20.,3.));
#2156=CARTESIAN_POINT('',(-56.5,20.,0.));
#2157=CARTESIAN_POINT('Origin',(-51.,20.,0.));
#2158=CARTESIAN_POINT('',(66.5,20.,0.));
#2159=CARTESIAN_POINT('',(66.5,20.,3.));
#2160=CARTESIAN_POINT('Origin',(-53.75,15.,3.));
#2161=CARTESIAN_POINT('Origin',(59.,-54.,2.));
#2162=CARTESIAN_POINT('',(-49.,-54.,2.));
#2163=CARTESIAN_POINT('',(59.,-54.,2.));
#2164=CARTESIAN_POINT('',(32.,-54.,2.));
#2165=CARTESIAN_POINT('',(-49.,-54.,37.));
#2166=CARTESIAN_POINT('',(-49.,-54.,2.));
#2167=CARTESIAN_POINT('',(59.,-54.,37.));
#2168=CARTESIAN_POINT('',(-49.,-54.,37.));
#2169=CARTESIAN_POINT('',(59.,-54.,2.));
#2170=CARTESIAN_POINT('Origin',(59.,24.,2.));
#2171=CARTESIAN_POINT('',(59.,24.,2.));
#2172=CARTESIAN_POINT('',(59.,4.5,2.));
#2173=CARTESIAN_POINT('',(59.,24.,37.));
#2174=CARTESIAN_POINT('',(59.,-54.,37.));
#2175=CARTESIAN_POINT('',(59.,24.,2.));
#2176=CARTESIAN_POINT('Origin',(-49.,24.,2.));
#2177=CARTESIAN_POINT('',(-49.,24.,2.));
#2178=CARTESIAN_POINT('',(-22.,24.,2.));
#2179=CARTESIAN_POINT('',(-49.,24.,37.));
#2180=CARTESIAN_POINT('',(59.,24.,37.));
#2181=CARTESIAN_POINT('',(-49.,24.,2.));
#2182=CARTESIAN_POINT('Origin',(-49.,-54.,2.));
#2183=CARTESIAN_POINT('',(-49.,-34.5,2.));
#2184=CARTESIAN_POINT('',(-49.,24.,37.));
#2185=CARTESIAN_POINT('Origin',(5.,-15.,37.));
#2186=CARTESIAN_POINT('',(-51.,-56.,37.));
#2187=CARTESIAN_POINT('',(61.,26.,37.));
#2188=CARTESIAN_POINT('Origin',(-51.,-56.,0.));
#2189=CARTESIAN_POINT('',(-51.,-56.,0.));
#2190=CARTESIAN_POINT('Origin',(61.,26.,0.));
#2191=CARTESIAN_POINT('',(61.,26.,0.));
#2192=CARTESIAN_POINT('Origin',(5.,-15.,2.));
#2193=CARTESIAN_POINT('Origin',(5.,-15.,0.));
#2194=CARTESIAN_POINT('Origin',(4.99999999999999,-15.,33.));
#2195=CARTESIAN_POINT('',(63.,28.,33.));
#2196=CARTESIAN_POINT('',(-53.,28.,33.));
#2197=CARTESIAN_POINT('',(34.,28.,33.));
#2198=CARTESIAN_POINT('',(63.,-58.,33.));
#2199=CARTESIAN_POINT('',(63.,-36.5,33.));
#2200=CARTESIAN_POINT('',(-53.,-58.,33.));
#2201=CARTESIAN_POINT('',(-24.,-58.,33.));
#2202=CARTESIAN_POINT('',(-53.,6.49999999999999,33.));
#2203=CARTESIAN_POINT('',(-51.5,26.5,33.));
#2204=CARTESIAN_POINT('',(61.5,26.5,33.));
#2205=CARTESIAN_POINT('',(33.25,26.5,33.));
#2206=CARTESIAN_POINT('',(-51.5,-56.5,33.));
#2207=CARTESIAN_POINT('',(-51.5,5.74999999999999,33.));
#2208=CARTESIAN_POINT('',(61.5,-56.5,33.));
#2209=CARTESIAN_POINT('',(-23.25,-56.5,33.));
#2210=CARTESIAN_POINT('',(61.5,-35.75,33.));
#2211=CARTESIAN_POINT('Origin',(-51.5,26.5,37.));
#2212=CARTESIAN_POINT('',(-51.5,26.5,37.));
#2213=CARTESIAN_POINT('',(-51.5,26.5,37.));
#2214=CARTESIAN_POINT('',(-51.5,-56.5,37.));
#2215=CARTESIAN_POINT('',(-51.5,5.74999999999999,37.));
#2216=CARTESIAN_POINT('',(-51.5,-56.5,37.));
#2217=CARTESIAN_POINT('Origin',(61.5,26.5,37.));
#2218=CARTESIAN_POINT('',(61.5,26.5,37.));
#2219=CARTESIAN_POINT('',(61.5,26.5,37.));
#2220=CARTESIAN_POINT('',(33.25,26.5,37.));
#2221=CARTESIAN_POINT('Origin',(-53.,28.,37.));
#2222=CARTESIAN_POINT('',(-53.,-58.,39.));
#2223=CARTESIAN_POINT('',(-53.,-58.,37.));
#2224=CARTESIAN_POINT('',(-53.,28.,39.));
#2225=CARTESIAN_POINT('',(-53.,-58.,39.));
#2226=CARTESIAN_POINT('',(-53.,28.,37.));
#2227=CARTESIAN_POINT('Origin',(-53.,-58.,37.));
#2228=CARTESIAN_POINT('',(63.,-58.,39.));
#2229=CARTESIAN_POINT('',(63.,-58.,37.));
#2230=CARTESIAN_POINT('',(63.,-58.,39.));
#2231=CARTESIAN_POINT('Origin',(61.5,-56.5,37.));
#2232=CARTESIAN_POINT('',(61.5,-56.5,37.));
#2233=CARTESIAN_POINT('',(61.5,-56.5,37.));
#2234=CARTESIAN_POINT('',(61.5,-35.75,37.));
#2235=CARTESIAN_POINT('Origin',(-51.5,-56.5,37.));
#2236=CARTESIAN_POINT('',(-23.25,-56.5,37.));
#2237=CARTESIAN_POINT('Origin',(63.,28.,37.));
#2238=CARTESIAN_POINT('',(63.,28.,39.));
#2239=CARTESIAN_POINT('',(-53.,28.,39.));
#2240=CARTESIAN_POINT('',(63.,28.,37.));
#2241=CARTESIAN_POINT('Origin',(63.,-58.,37.));
#2242=CARTESIAN_POINT('',(63.,28.,39.));
#2243=CARTESIAN_POINT('Origin',(4.99999999999999,-15.,39.));
#2244=CARTESIAN_POINT('Origin',(4.99999999999999,-15.,37.));
#2245=UNCERTAINTY_MEASURE_WITH_UNIT(LENGTH_MEASURE(0.01),#2249,
'DISTANCE_ACCURACY_VALUE',
'Maximum model space distance between geometric entities at asserted c
onnectivities');
#2246=UNCERTAINTY_MEASURE_WITH_UNIT(LENGTH_MEASURE(0.01),#2249,
'DISTANCE_ACCURACY_VALUE',
'Maximum model space distance between geometric entities at asserted c
onnectivities');
#2247=(
GEOMETRIC_REPRESENTATION_CONTEXT(3)
GLOBAL_UNCERTAINTY_ASSIGNED_CONTEXT((#2245))
GLOBAL_UNIT_ASSIGNED_CONTEXT((#2249,#2251,#2252))
REPRESENTATION_CONTEXT('','3D')
);
#2248=(
GEOMETRIC_REPRESENTATION_CONTEXT(3)
GLOBAL_UNCERTAINTY_ASSIGNED_CONTEXT((#2246))
GLOBAL_UNIT_ASSIGNED_CONTEXT((#2249,#2251,#2252))
REPRESENTATION_CONTEXT('','3D')
);
#2249=(
LENGTH_UNIT()
NAMED_UNIT(*)
SI_UNIT(.MILLI.,.METRE.)
);
#2250=(
LENGTH_UNIT()
NAMED_UNIT(*)
SI_UNIT($,.METRE.)
);
#2251=(
NAMED_UNIT(*)
PLANE_ANGLE_UNIT()
SI_UNIT($,.RADIAN.)
);
#2252=(
NAMED_UNIT(*)
SI_UNIT($,.STERADIAN.)
SOLID_ANGLE_UNIT()
);
#2253=SHAPE_DEFINITION_REPRESENTATION(#2254,#2255);
#2254=PRODUCT_DEFINITION_SHAPE('',$,#2257);
#2255=SHAPE_REPRESENTATION('',(#1372),#2247);
#2256=PRODUCT_DEFINITION_CONTEXT('part definition',#2261,'design');
#2257=PRODUCT_DEFINITION('2026-07-19-20-42-42-354',
'electronics holder2',#2258,#2256);
#2258=PRODUCT_DEFINITION_FORMATION('',$,#2263);
#2259=PRODUCT_RELATED_PRODUCT_CATEGORY('electronics holder2',
'electronics holder2',(#2263));
#2260=APPLICATION_PROTOCOL_DEFINITION('international standard',
'automotive_design',2009,#2261);
#2261=APPLICATION_CONTEXT(
'Core Data for Automotive Mechanical Design Process');
#2262=PRODUCT_CONTEXT('part definition',#2261,'mechanical');
#2263=PRODUCT('2026-07-19-20-42-42-354','electronics holder2',$,(#2262));
#2264=PRESENTATION_STYLE_ASSIGNMENT((#2265));
#2265=SURFACE_STYLE_USAGE(.BOTH.,#2266);
#2266=SURFACE_SIDE_STYLE('',(#2267));
#2267=SURFACE_STYLE_FILL_AREA(#2268);
#2268=FILL_AREA_STYLE('Steel - Satin',(#2269));
#2269=FILL_AREA_STYLE_COLOUR('Steel - Satin',#2270);
#2270=COLOUR_RGB('Steel - Satin',0.627450980392157,0.627450980392157,0.627450980392157);
ENDSEC;
END-ISO-10303-21;
