ISO-10303-21;
HEADER;
FILE_DESCRIPTION(('Open CASCADE Model'),'2;1');
FILE_NAME('Open CASCADE Shape Model','2026-08-13T22:17:06',('Author'),(
    'Open CASCADE'),'Open CASCADE STEP processor 7.9','Open CASCADE 7.9'
  ,'Unknown');
FILE_SCHEMA(('AUTOMOTIVE_DESIGN { 1 0 10303 214 1 1 1 1 }'));
ENDSEC;
DATA;
#1 = APPLICATION_PROTOCOL_DEFINITION('international standard',
  'automotive_design',2000,#2);
#2 = APPLICATION_CONTEXT(
  'core data for automotive mechanical design processes');
#3 = SHAPE_DEFINITION_REPRESENTATION(#4,#10);
#4 = PRODUCT_DEFINITION_SHAPE('','',#5);
#5 = PRODUCT_DEFINITION('design','',#6,#9);
#6 = PRODUCT_DEFINITION_FORMATION('','',#7);
#7 = PRODUCT('Open CASCADE STEP translator 7.9 370',
  'Open CASCADE STEP translator 7.9 370','',(#8));
#8 = PRODUCT_CONTEXT('',#2,'mechanical');
#9 = PRODUCT_DEFINITION_CONTEXT('part definition',#2,'design');
#10 = ADVANCED_BREP_SHAPE_REPRESENTATION('',(#11,#15),#947);
#11 = AXIS2_PLACEMENT_3D('',#12,#13,#14);
#12 = CARTESIAN_POINT('',(0.,0.,0.));
#13 = DIRECTION('',(0.,0.,1.));
#14 = DIRECTION('',(1.,0.,-0.));
#15 = MANIFOLD_SOLID_BREP('',#16);
#16 = CLOSED_SHELL('',(#17,#347,#421,#506,#554,#618,#733,#815,#886,#913,
    #940));
#17 = ADVANCED_FACE('',(#18),#51,.T.);
#18 = FACE_BOUND('',#19,.T.);
#19 = EDGE_LOOP('',(#20,#160,#188,#321));
#20 = ORIENTED_EDGE('',*,*,#21,.T.);
#21 = EDGE_CURVE('',#22,#24,#26,.T.);
#22 = VERTEX_POINT('',#23);
#23 = CARTESIAN_POINT('',(16.,-1.307381,-20.5));
#24 = VERTEX_POINT('',#25);
#25 = CARTESIAN_POINT('',(16.,-1.307381,-23.5));
#26 = SURFACE_CURVE('',#27,(#50,#81),.PCURVE_S1.);
#27 = B_SPLINE_CURVE_WITH_KNOTS('',3,(#28,#29,#30,#31,#32,#33,#34,#35,
    #36,#37,#38,#39,#40,#41,#42,#43,#44,#45,#46,#47,#48,#49),
  .UNSPECIFIED.,.F.,.F.,(4,2,2,2,2,2,2,2,2,2,4),(-0.468129945279,
    -0.436970302364,-0.405872539416,-0.348386506111,-0.291151574661,
    -0.234064972642,-0.176978370622,-0.119743439172,-6.225740586566E-02,
    -3.115964291603E-02,0.),.UNSPECIFIED.);
#28 = CARTESIAN_POINT('',(16.,-1.307381,-20.5));
#29 = CARTESIAN_POINT('',(16.,-1.411246476383,-20.5));
#30 = CARTESIAN_POINT('',(16.,-1.515091011531,-20.51092454791));
#31 = CARTESIAN_POINT('',(16.,-1.718157217065,-20.55370998883));
#32 = CARTESIAN_POINT('',(16.,-1.817549581118,-20.58556337787));
#33 = CARTESIAN_POINT('',(16.,-2.088879341284,-20.70533673739));
#34 = CARTESIAN_POINT('',(16.,-2.250143509545,-20.81736520969));
#35 = CARTESIAN_POINT('',(16.,-2.518421817603,-21.09430845001));
#36 = CARTESIAN_POINT('',(16.,-2.625529307045,-21.25858164454));
#37 = CARTESIAN_POINT('',(16.,-2.76994356394,-21.61552301126));
#38 = CARTESIAN_POINT('',(16.,-2.807380999544,-21.80772521927));
#39 = CARTESIAN_POINT('',(16.,-2.807380999548,-22.19227478068));
#40 = CARTESIAN_POINT('',(16.,-2.769943563948,-22.38447698869));
#41 = CARTESIAN_POINT('',(16.,-2.62552930706,-22.74141835542));
#42 = CARTESIAN_POINT('',(16.,-2.518421817622,-22.90569154995));
#43 = CARTESIAN_POINT('',(16.,-2.250143509567,-23.18263479028));
#44 = CARTESIAN_POINT('',(16.,-2.088879341306,-23.29466326258));
#45 = CARTESIAN_POINT('',(16.,-1.817549581135,-23.41443662212));
#46 = CARTESIAN_POINT('',(16.,-1.71815721708,-23.44629001115));
#47 = CARTESIAN_POINT('',(16.,-1.515091011538,-23.48907545208));
#48 = CARTESIAN_POINT('',(16.,-1.411246476387,-23.5));
#49 = CARTESIAN_POINT('',(16.,-1.307381,-23.5));
#50 = PCURVE('',#51,#56);
#51 = PLANE('',#52);
#52 = AXIS2_PLACEMENT_3D('',#53,#54,#55);
#53 = CARTESIAN_POINT('',(16.,-3.99E-15,-22.));
#54 = DIRECTION('',(1.,0.,0.));
#55 = DIRECTION('',(-0.,1.1E-16,1.));
#56 = DEFINITIONAL_REPRESENTATION('',(#57),#80);
#57 = B_SPLINE_CURVE_WITH_KNOTS('',3,(#58,#59,#60,#61,#62,#63,#64,#65,
    #66,#67,#68,#69,#70,#71,#72,#73,#74,#75,#76,#77,#78,#79),
  .UNSPECIFIED.,.F.,.F.,(4,2,2,2,2,2,2,2,2,2,4),(-0.468129945279,
    -0.436970302364,-0.405872539416,-0.348386506111,-0.291151574661,
    -0.234064972642,-0.176978370622,-0.119743439172,-6.225740586566E-02,
    -3.115964291603E-02,0.),.UNSPECIFIED.);
#58 = CARTESIAN_POINT('',(1.5,1.307381));
#59 = CARTESIAN_POINT('',(1.5,1.411246476383));
#60 = CARTESIAN_POINT('',(1.489075452084,1.515091011531));
#61 = CARTESIAN_POINT('',(1.446290011161,1.718157217065));
#62 = CARTESIAN_POINT('',(1.41443662213,1.817549581118));
#63 = CARTESIAN_POINT('',(1.294663262607,2.088879341284));
#64 = CARTESIAN_POINT('',(1.182634790305,2.250143509545));
#65 = CARTESIAN_POINT('',(0.905691549986,2.518421817603));
#66 = CARTESIAN_POINT('',(0.74141835546,2.625529307045));
#67 = CARTESIAN_POINT('',(0.384476988731,2.76994356394));
#68 = CARTESIAN_POINT('',(0.192274780724,2.807380999544));
#69 = CARTESIAN_POINT('',(-0.192274780685,2.807380999548));
#70 = CARTESIAN_POINT('',(-0.384476988692,2.769943563948));
#71 = CARTESIAN_POINT('',(-0.741418355425,2.62552930706));
#72 = CARTESIAN_POINT('',(-0.905691549953,2.518421817622));
#73 = CARTESIAN_POINT('',(-1.182634790282,2.250143509567));
#74 = CARTESIAN_POINT('',(-1.294663262589,2.088879341306));
#75 = CARTESIAN_POINT('',(-1.414436622121,1.817549581135));
#76 = CARTESIAN_POINT('',(-1.446290011156,1.71815721708));
#77 = CARTESIAN_POINT('',(-1.489075452083,1.515091011538));
#78 = CARTESIAN_POINT('',(-1.5,1.411246476387));
#79 = CARTESIAN_POINT('',(-1.5,1.307381));
#80 = ( GEOMETRIC_REPRESENTATION_CONTEXT(2) 
PARAMETRIC_REPRESENTATION_CONTEXT() REPRESENTATION_CONTEXT('2D SPACE',''
  ) );
#81 = PCURVE('',#82,#155);
#82 = B_SPLINE_SURFACE_WITH_KNOTS('',3,3,(
    (#83,#84,#85,#86)
    ,(#87,#88,#89,#90)
    ,(#91,#92,#93,#94)
    ,(#95,#96,#97,#98)
    ,(#99,#100,#101,#102)
    ,(#103,#104,#105,#106)
    ,(#107,#108,#109,#110)
    ,(#111,#112,#113,#114)
    ,(#115,#116,#117,#118)
    ,(#119,#120,#121,#122)
    ,(#123,#124,#125,#126)
    ,(#127,#128,#129,#130)
    ,(#131,#132,#133,#134)
    ,(#135,#136,#137,#138)
    ,(#139,#140,#141,#142)
    ,(#143,#144,#145,#146)
    ,(#147,#148,#149,#150)
    ,(#151,#152,#153,#154
    )),.UNSPECIFIED.,.F.,.F.,.F.,(4,2,2,2,2,2,2,2,4),(4,4),(
    1.570796326795,1.963495408494,2.356194490192,2.748893571891,
    3.14159265359,3.534291735289,3.926990816987,4.319689898686,
    4.712388980385),(0.,1.),.UNSPECIFIED.);
#83 = CARTESIAN_POINT('',(11.,-1.420077,-20.1));
#84 = CARTESIAN_POINT('',(12.666666666667,-1.382511666667,
    -20.23333333333));
#85 = CARTESIAN_POINT('',(14.333333333333,-1.344946333333,
    -20.36666666666));
#86 = CARTESIAN_POINT('',(16.,-1.307381,-20.5));
#87 = CARTESIAN_POINT('',(11.,-1.668786418409,-20.1));
#88 = CARTESIAN_POINT('',(12.666666666667,-1.613767792556,
    -20.23333333333));
#89 = CARTESIAN_POINT('',(14.333333333333,-1.558749166702,
    -20.36666666666));
#90 = CARTESIAN_POINT('',(16.,-1.503730540849,-20.5));
#91 = CARTESIAN_POINT('',(11.,-1.917397980568,-20.14945190707));
#92 = CARTESIAN_POINT('',(12.666666666667,-1.8449329293,-20.27931493113)
  );
#93 = CARTESIAN_POINT('',(14.333333333333,-1.772467878032,-20.4091779552
    ));
#94 = CARTESIAN_POINT('',(16.,-1.700002826764,-20.53904097926));
#95 = CARTESIAN_POINT('',(11.,-2.37695306374,-20.33980588023));
#96 = CARTESIAN_POINT('',(12.666666666667,-2.272238532951,
    -20.45631073074));
#97 = CARTESIAN_POINT('',(14.333333333333,-2.167524002162,
    -20.57281558125));
#98 = CARTESIAN_POINT('',(16.,-2.062809471373,-20.68932043176));
#99 = CARTESIAN_POINT('',(11.,-2.587715767239,-20.48063300107));
#100 = CARTESIAN_POINT('',(12.666666666667,-2.468210871292,
    -20.58725524661));
#101 = CARTESIAN_POINT('',(14.333333333333,-2.348705975345,
    -20.69387749215));
#102 = CARTESIAN_POINT('',(16.,-2.229201079399,-20.80049973769));
#103 = CARTESIAN_POINT('',(11.,-2.939444000032,-20.83236121792));
#104 = CARTESIAN_POINT('',(12.666666666667,-2.795256421083,
    -20.91430078158));
#105 = CARTESIAN_POINT('',(14.333333333333,-2.651068842133,
    -20.99624034523));
#106 = CARTESIAN_POINT('',(16.,-2.506881263183,-21.07817990889));
#107 = CARTESIAN_POINT('',(11.,-3.080271138547,-21.04312393313));
#108 = CARTESIAN_POINT('',(12.666666666667,-2.926200953385,
    -21.11027313081));
#109 = CARTESIAN_POINT('',(14.333333333333,-2.772130768224,
    -21.17742232848));
#110 = CARTESIAN_POINT('',(16.,-2.618060583063,-21.24457152615));
#111 = CARTESIAN_POINT('',(11.,-3.270625086154,-21.50267903152));
#112 = CARTESIAN_POINT('',(12.666666666667,-3.103196729231,
    -21.53757874861));
#113 = CARTESIAN_POINT('',(14.333333333333,-2.935768372307,
    -21.57247846569));
#114 = CARTESIAN_POINT('',(16.,-2.768340015384,-21.60737818278));
#115 = CARTESIAN_POINT('',(11.,-3.320076999425,-21.75129058997));
#116 = CARTESIAN_POINT('',(12.666666666667,-3.149178332799,
    -21.7687438819));
#117 = CARTESIAN_POINT('',(14.333333333333,-2.978279666172,
    -21.78619717383));
#118 = CARTESIAN_POINT('',(16.,-2.807380999546,-21.80365046576));
#119 = CARTESIAN_POINT('',(11.,-3.320076999425,-22.24870941001));
#120 = CARTESIAN_POINT('',(12.666666666667,-3.149178332799,
    -22.23125611808));
#121 = CARTESIAN_POINT('',(14.333333333333,-2.978279666172,
    -22.21380282615));
#122 = CARTESIAN_POINT('',(16.,-2.807380999546,-22.19634953422));
#123 = CARTESIAN_POINT('',(11.,-3.270625086154,-22.49732096846));
#124 = CARTESIAN_POINT('',(12.666666666667,-3.103196729231,
    -22.46242125138));
#125 = CARTESIAN_POINT('',(14.333333333333,-2.935768372307,
    -22.42752153429));
#126 = CARTESIAN_POINT('',(16.,-2.768340015384,-22.3926218172));
#127 = CARTESIAN_POINT('',(11.,-3.080271138547,-22.95687606685));
#128 = CARTESIAN_POINT('',(12.666666666667,-2.926200953385,
    -22.88972686918));
#129 = CARTESIAN_POINT('',(14.333333333333,-2.772130768224,
    -22.8225776715));
#130 = CARTESIAN_POINT('',(16.,-2.618060583063,-22.75542847383));
#131 = CARTESIAN_POINT('',(11.,-2.939444000032,-23.16763878206));
#132 = CARTESIAN_POINT('',(12.666666666667,-2.795256421083,
    -23.08569921841));
#133 = CARTESIAN_POINT('',(14.333333333333,-2.651068842133,
    -23.00375965475));
#134 = CARTESIAN_POINT('',(16.,-2.506881263183,-22.9218200911));
#135 = CARTESIAN_POINT('',(11.,-2.587715767239,-23.51936699892));
#136 = CARTESIAN_POINT('',(12.666666666667,-2.468210871292,
    -23.41274475338));
#137 = CARTESIAN_POINT('',(14.333333333333,-2.348705975346,
    -23.30612250784));
#138 = CARTESIAN_POINT('',(16.,-2.229201079399,-23.1995002623));
#139 = CARTESIAN_POINT('',(11.,-2.37695306374,-23.66019411976));
#140 = CARTESIAN_POINT('',(12.666666666667,-2.272238532951,
    -23.54368926925));
#141 = CARTESIAN_POINT('',(14.333333333333,-2.167524002162,
    -23.42718441874));
#142 = CARTESIAN_POINT('',(16.,-2.062809471374,-23.31067956822));
#143 = CARTESIAN_POINT('',(11.,-1.917397980568,-23.85054809293));
#144 = CARTESIAN_POINT('',(12.666666666667,-1.8449329293,-23.72068506886
    ));
#145 = CARTESIAN_POINT('',(14.333333333333,-1.772467878032,
    -23.59082204479));
#146 = CARTESIAN_POINT('',(16.,-1.700002826764,-23.46095902073));
#147 = CARTESIAN_POINT('',(11.,-1.668786418409,-23.9));
#148 = CARTESIAN_POINT('',(12.666666666667,-1.613767792556,
    -23.76666666666));
#149 = CARTESIAN_POINT('',(14.333333333333,-1.558749166702,
    -23.63333333333));
#150 = CARTESIAN_POINT('',(16.,-1.503730540849,-23.5));
#151 = CARTESIAN_POINT('',(11.,-1.420077,-23.9));
#152 = CARTESIAN_POINT('',(12.666666666667,-1.382511666667,
    -23.76666666666));
#153 = CARTESIAN_POINT('',(14.333333333333,-1.344946333333,
    -23.63333333333));
#154 = CARTESIAN_POINT('',(16.,-1.307381,-23.5));
#155 = DEFINITIONAL_REPRESENTATION('',(#156),#159);
#156 = B_SPLINE_CURVE_WITH_KNOTS('',1,(#157,#158),.UNSPECIFIED.,.F.,.F.,
  (2,2),(-0.468129945279,0.),.PIECEWISE_BEZIER_KNOTS.);
#157 = CARTESIAN_POINT('',(1.570796326795,1.));
#158 = CARTESIAN_POINT('',(4.712388980385,1.));
#159 = ( GEOMETRIC_REPRESENTATION_CONTEXT(2) 
PARAMETRIC_REPRESENTATION_CONTEXT() REPRESENTATION_CONTEXT('2D SPACE',''
  ) );
#160 = ORIENTED_EDGE('',*,*,#161,.T.);
#161 = EDGE_CURVE('',#24,#162,#164,.T.);
#162 = VERTEX_POINT('',#163);
#163 = CARTESIAN_POINT('',(16.,1.307381,-23.5));
#164 = SURFACE_CURVE('',#165,(#169,#176),.PCURVE_S1.);
#165 = LINE('',#166,#167);
#166 = CARTESIAN_POINT('',(16.,-1.307381,-23.5));
#167 = VECTOR('',#168,1.);
#168 = DIRECTION('',(2.2E-16,1.,1.1E-16));
#169 = PCURVE('',#51,#170);
#170 = DEFINITIONAL_REPRESENTATION('',(#171),#175);
#171 = LINE('',#172,#173);
#172 = CARTESIAN_POINT('',(-1.5,1.307381));
#173 = VECTOR('',#174,1.);
#174 = DIRECTION('',(2.2E-16,-1.));
#175 = ( GEOMETRIC_REPRESENTATION_CONTEXT(2) 
PARAMETRIC_REPRESENTATION_CONTEXT() REPRESENTATION_CONTEXT('2D SPACE',''
  ) );
#176 = PCURVE('',#177,#182);
#177 = PLANE('',#178);
#178 = AXIS2_PLACEMENT_3D('',#179,#180,#181);
#179 = CARTESIAN_POINT('',(11.,-1.420077,-23.9));
#180 = DIRECTION('',(7.974522228289E-02,0.,-0.996815278536));
#181 = DIRECTION('',(0.,1.,0.));
#182 = DEFINITIONAL_REPRESENTATION('',(#183),#187);
#183 = LINE('',#184,#185);
#184 = CARTESIAN_POINT('',(0.112696,5.015974481594));
#185 = VECTOR('',#186,1.);
#186 = DIRECTION('',(1.,2.280713357291E-16));
#187 = ( GEOMETRIC_REPRESENTATION_CONTEXT(2) 
PARAMETRIC_REPRESENTATION_CONTEXT() REPRESENTATION_CONTEXT('2D SPACE',''
  ) );
#188 = ORIENTED_EDGE('',*,*,#189,.T.);
#189 = EDGE_CURVE('',#162,#190,#192,.T.);
#190 = VERTEX_POINT('',#191);
#191 = CARTESIAN_POINT('',(16.,1.307381,-20.5));
#192 = SURFACE_CURVE('',#193,(#216,#242),.PCURVE_S1.);
#193 = B_SPLINE_CURVE_WITH_KNOTS('',3,(#194,#195,#196,#197,#198,#199,
    #200,#201,#202,#203,#204,#205,#206,#207,#208,#209,#210,#211,#212,
    #213,#214,#215),.UNSPECIFIED.,.F.,.F.,(4,2,2,2,2,2,2,2,2,2,4),(
    -0.468129945273,-0.43697030236,-0.405872539413,-0.348386506109,
    -0.291151574659,-0.234064972641,-0.176978370622,-0.119743439172,
    -6.225740586682E-02,-3.115964291667E-02,0.),.UNSPECIFIED.);
#194 = CARTESIAN_POINT('',(16.,1.307381,-23.5));
#195 = CARTESIAN_POINT('',(16.,1.411246476381,-23.5));
#196 = CARTESIAN_POINT('',(16.,1.515091011527,-23.48907545208));
#197 = CARTESIAN_POINT('',(16.,1.718157217058,-23.44629001116));
#198 = CARTESIAN_POINT('',(16.,1.817549581109,-23.41443662213));
#199 = CARTESIAN_POINT('',(16.,2.088879341276,-23.2946632626));
#200 = CARTESIAN_POINT('',(16.,2.25014350954,-23.1826347903));
#201 = CARTESIAN_POINT('',(16.,2.5184218176,-22.90569154998));
#202 = CARTESIAN_POINT('',(16.,2.625529307041,-22.74141835545));
#203 = CARTESIAN_POINT('',(16.,2.769943563938,-22.38447698873));
#204 = CARTESIAN_POINT('',(16.,2.807380999543,-22.19227478072));
#205 = CARTESIAN_POINT('',(16.,2.807380999549,-21.80772521931));
#206 = CARTESIAN_POINT('',(16.,2.76994356395,-21.6155230113));
#207 = CARTESIAN_POINT('',(16.,2.625529307064,-21.25858164457));
#208 = CARTESIAN_POINT('',(16.,2.518421817626,-21.09430845004));
#209 = CARTESIAN_POINT('',(16.,2.250143509574,-20.81736520971));
#210 = CARTESIAN_POINT('',(16.,2.088879341315,-20.70533673741));
#211 = CARTESIAN_POINT('',(16.,1.817549581145,-20.58556337788));
#212 = CARTESIAN_POINT('',(16.,1.718157217088,-20.55370998884));
#213 = CARTESIAN_POINT('',(16.,1.515091011542,-20.51092454791));
#214 = CARTESIAN_POINT('',(16.,1.411246476389,-20.5));
#215 = CARTESIAN_POINT('',(16.,1.307381,-20.5));
#216 = PCURVE('',#51,#217);
#217 = DEFINITIONAL_REPRESENTATION('',(#218),#241);
#218 = B_SPLINE_CURVE_WITH_KNOTS('',3,(#219,#220,#221,#222,#223,#224,
    #225,#226,#227,#228,#229,#230,#231,#232,#233,#234,#235,#236,#237,
    #238,#239,#240),.UNSPECIFIED.,.F.,.F.,(4,2,2,2,2,2,2,2,2,2,4),(
    -0.468129945273,-0.43697030236,-0.405872539413,-0.348386506109,
    -0.291151574659,-0.234064972641,-0.176978370622,-0.119743439172,
    -6.225740586682E-02,-3.115964291667E-02,0.),.UNSPECIFIED.);
#219 = CARTESIAN_POINT('',(-1.5,-1.307381));
#220 = CARTESIAN_POINT('',(-1.5,-1.411246476381));
#221 = CARTESIAN_POINT('',(-1.489075452084,-1.515091011527));
#222 = CARTESIAN_POINT('',(-1.446290011161,-1.718157217058));
#223 = CARTESIAN_POINT('',(-1.41443662213,-1.817549581109));
#224 = CARTESIAN_POINT('',(-1.294663262607,-2.088879341276));
#225 = CARTESIAN_POINT('',(-1.182634790303,-2.25014350954));
#226 = CARTESIAN_POINT('',(-0.905691549983,-2.5184218176));
#227 = CARTESIAN_POINT('',(-0.741418355457,-2.625529307041));
#228 = CARTESIAN_POINT('',(-0.38447698873,-2.769943563938));
#229 = CARTESIAN_POINT('',(-0.192274780724,-2.807380999543));
#230 = CARTESIAN_POINT('',(0.192274780685,-2.807380999549));
#231 = CARTESIAN_POINT('',(0.384476988692,-2.76994356395));
#232 = CARTESIAN_POINT('',(0.741418355426,-2.625529307064));
#233 = CARTESIAN_POINT('',(0.905691549955,-2.518421817626));
#234 = CARTESIAN_POINT('',(1.182634790283,-2.250143509574));
#235 = CARTESIAN_POINT('',(1.294663262588,-2.088879341315));
#236 = CARTESIAN_POINT('',(1.41443662212,-1.817549581145));
#237 = CARTESIAN_POINT('',(1.446290011155,-1.718157217088));
#238 = CARTESIAN_POINT('',(1.489075452083,-1.515091011542));
#239 = CARTESIAN_POINT('',(1.5,-1.411246476389));
#240 = CARTESIAN_POINT('',(1.5,-1.307381));
#241 = ( GEOMETRIC_REPRESENTATION_CONTEXT(2) 
PARAMETRIC_REPRESENTATION_CONTEXT() REPRESENTATION_CONTEXT('2D SPACE',''
  ) );
#242 = PCURVE('',#243,#316);
#243 = B_SPLINE_SURFACE_WITH_KNOTS('',3,3,(
    (#244,#245,#246,#247)
    ,(#248,#249,#250,#251)
    ,(#252,#253,#254,#255)
    ,(#256,#257,#258,#259)
    ,(#260,#261,#262,#263)
    ,(#264,#265,#266,#267)
    ,(#268,#269,#270,#271)
    ,(#272,#273,#274,#275)
    ,(#276,#277,#278,#279)
    ,(#280,#281,#282,#283)
    ,(#284,#285,#286,#287)
    ,(#288,#289,#290,#291)
    ,(#292,#293,#294,#295)
    ,(#296,#297,#298,#299)
    ,(#300,#301,#302,#303)
    ,(#304,#305,#306,#307)
    ,(#308,#309,#310,#311)
    ,(#312,#313,#314,#315
    )),.UNSPECIFIED.,.F.,.F.,.F.,(4,2,2,2,2,2,2,2,4),(4,4),(
    4.712388980385,5.105088062084,5.497787143782,5.890486225481,
    6.28318530718,6.675884388878,7.068583470577,7.461282552275,
    7.853981633974),(0.,1.),.UNSPECIFIED.);
#244 = CARTESIAN_POINT('',(11.,1.420077,-23.9));
#245 = CARTESIAN_POINT('',(12.666666666667,1.382511666667,
    -23.76666666666));
#246 = CARTESIAN_POINT('',(14.333333333333,1.344946333333,
    -23.63333333333));
#247 = CARTESIAN_POINT('',(16.,1.307381,-23.5));
#248 = CARTESIAN_POINT('',(11.,1.668786418409,-23.9));
#249 = CARTESIAN_POINT('',(12.666666666667,1.613767792556,
    -23.76666666666));
#250 = CARTESIAN_POINT('',(14.333333333333,1.558749166702,
    -23.63333333333));
#251 = CARTESIAN_POINT('',(16.,1.503730540849,-23.5));
#252 = CARTESIAN_POINT('',(11.,1.917397980568,-23.85054809293));
#253 = CARTESIAN_POINT('',(12.666666666667,1.8449329293,-23.72068506886)
  );
#254 = CARTESIAN_POINT('',(14.333333333333,1.772467878032,
    -23.59082204479));
#255 = CARTESIAN_POINT('',(16.,1.700002826764,-23.46095902073));
#256 = CARTESIAN_POINT('',(11.,2.37695306374,-23.66019411976));
#257 = CARTESIAN_POINT('',(12.666666666667,2.272238532951,
    -23.54368926925));
#258 = CARTESIAN_POINT('',(14.333333333333,2.167524002162,
    -23.42718441874));
#259 = CARTESIAN_POINT('',(16.,2.062809471373,-23.31067956822));
#260 = CARTESIAN_POINT('',(11.,2.587715767239,-23.51936699892));
#261 = CARTESIAN_POINT('',(12.666666666667,2.468210871292,
    -23.41274475338));
#262 = CARTESIAN_POINT('',(14.333333333333,2.348705975345,
    -23.30612250784));
#263 = CARTESIAN_POINT('',(16.,2.229201079399,-23.1995002623));
#264 = CARTESIAN_POINT('',(11.,2.939444000032,-23.16763878206));
#265 = CARTESIAN_POINT('',(12.666666666667,2.795256421083,
    -23.08569921841));
#266 = CARTESIAN_POINT('',(14.333333333333,2.651068842133,
    -23.00375965475));
#267 = CARTESIAN_POINT('',(16.,2.506881263183,-22.9218200911));
#268 = CARTESIAN_POINT('',(11.,3.080271138547,-22.95687606685));
#269 = CARTESIAN_POINT('',(12.666666666667,2.926200953385,
    -22.88972686918));
#270 = CARTESIAN_POINT('',(14.333333333333,2.772130768224,-22.8225776715
    ));
#271 = CARTESIAN_POINT('',(16.,2.618060583063,-22.75542847383));
#272 = CARTESIAN_POINT('',(11.,3.270625086154,-22.49732096846));
#273 = CARTESIAN_POINT('',(12.666666666667,3.10319672923,-22.46242125138
    ));
#274 = CARTESIAN_POINT('',(14.333333333333,2.935768372307,
    -22.42752153429));
#275 = CARTESIAN_POINT('',(16.,2.768340015384,-22.3926218172));
#276 = CARTESIAN_POINT('',(11.,3.320076999425,-22.24870941001));
#277 = CARTESIAN_POINT('',(12.666666666667,3.149178332799,
    -22.23125611808));
#278 = CARTESIAN_POINT('',(14.333333333333,2.978279666172,
    -22.21380282615));
#279 = CARTESIAN_POINT('',(16.,2.807380999546,-22.19634953422));
#280 = CARTESIAN_POINT('',(11.,3.320076999425,-21.75129058997));
#281 = CARTESIAN_POINT('',(12.666666666667,3.149178332798,-21.7687438819
    ));
#282 = CARTESIAN_POINT('',(14.333333333333,2.978279666172,
    -21.78619717383));
#283 = CARTESIAN_POINT('',(16.,2.807380999546,-21.80365046576));
#284 = CARTESIAN_POINT('',(11.,3.270625086153,-21.50267903152));
#285 = CARTESIAN_POINT('',(12.666666666667,3.10319672923,-21.53757874861
    ));
#286 = CARTESIAN_POINT('',(14.333333333333,2.935768372307,
    -21.57247846569));
#287 = CARTESIAN_POINT('',(16.,2.768340015384,-21.60737818278));
#288 = CARTESIAN_POINT('',(11.,3.080271138546,-21.04312393313));
#289 = CARTESIAN_POINT('',(12.666666666667,2.926200953385,
    -21.11027313081));
#290 = CARTESIAN_POINT('',(14.333333333333,2.772130768224,
    -21.17742232848));
#291 = CARTESIAN_POINT('',(16.,2.618060583063,-21.24457152615));
#292 = CARTESIAN_POINT('',(11.,2.939444000032,-20.83236121792));
#293 = CARTESIAN_POINT('',(12.666666666667,2.795256421082,
    -20.91430078158));
#294 = CARTESIAN_POINT('',(14.333333333333,2.651068842133,
    -20.99624034523));
#295 = CARTESIAN_POINT('',(16.,2.506881263183,-21.07817990889));
#296 = CARTESIAN_POINT('',(11.,2.587715767238,-20.48063300107));
#297 = CARTESIAN_POINT('',(12.666666666667,2.468210871292,
    -20.58725524661));
#298 = CARTESIAN_POINT('',(14.333333333333,2.348705975345,
    -20.69387749215));
#299 = CARTESIAN_POINT('',(16.,2.229201079399,-20.80049973769));
#300 = CARTESIAN_POINT('',(11.,2.37695306374,-20.33980588023));
#301 = CARTESIAN_POINT('',(12.666666666667,2.272238532951,
    -20.45631073074));
#302 = CARTESIAN_POINT('',(14.333333333333,2.167524002162,
    -20.57281558125));
#303 = CARTESIAN_POINT('',(16.,2.062809471373,-20.68932043176));
#304 = CARTESIAN_POINT('',(11.,1.917397980568,-20.14945190707));
#305 = CARTESIAN_POINT('',(12.666666666667,1.8449329293,-20.27931493113)
  );
#306 = CARTESIAN_POINT('',(14.333333333333,1.772467878032,-20.4091779552
    ));
#307 = CARTESIAN_POINT('',(16.,1.700002826764,-20.53904097926));
#308 = CARTESIAN_POINT('',(11.,1.668786418409,-20.1));
#309 = CARTESIAN_POINT('',(12.666666666667,1.613767792556,
    -20.23333333333));
#310 = CARTESIAN_POINT('',(14.333333333333,1.558749166702,
    -20.36666666666));
#311 = CARTESIAN_POINT('',(16.,1.503730540849,-20.5));
#312 = CARTESIAN_POINT('',(11.,1.420077,-20.1));
#313 = CARTESIAN_POINT('',(12.666666666667,1.382511666667,
    -20.23333333333));
#314 = CARTESIAN_POINT('',(14.333333333333,1.344946333333,
    -20.36666666666));
#315 = CARTESIAN_POINT('',(16.,1.307381,-20.5));
#316 = DEFINITIONAL_REPRESENTATION('',(#317),#320);
#317 = B_SPLINE_CURVE_WITH_KNOTS('',1,(#318,#319),.UNSPECIFIED.,.F.,.F.,
  (2,2),(-0.468129945273,0.),.PIECEWISE_BEZIER_KNOTS.);
#318 = CARTESIAN_POINT('',(4.712388980385,1.));
#319 = CARTESIAN_POINT('',(7.853981633974,1.));
#320 = ( GEOMETRIC_REPRESENTATION_CONTEXT(2) 
PARAMETRIC_REPRESENTATION_CONTEXT() REPRESENTATION_CONTEXT('2D SPACE',''
  ) );
#321 = ORIENTED_EDGE('',*,*,#322,.T.);
#322 = EDGE_CURVE('',#190,#22,#323,.T.);
#323 = SURFACE_CURVE('',#324,(#328,#335),.PCURVE_S1.);
#324 = LINE('',#325,#326);
#325 = CARTESIAN_POINT('',(16.,1.307381,-20.5));
#326 = VECTOR('',#327,1.);
#327 = DIRECTION('',(-2.2E-16,-1.,-1.1E-16));
#328 = PCURVE('',#51,#329);
#329 = DEFINITIONAL_REPRESENTATION('',(#330),#334);
#330 = LINE('',#331,#332);
#331 = CARTESIAN_POINT('',(1.5,-1.307381));
#332 = VECTOR('',#333,1.);
#333 = DIRECTION('',(-2.2E-16,1.));
#334 = ( GEOMETRIC_REPRESENTATION_CONTEXT(2) 
PARAMETRIC_REPRESENTATION_CONTEXT() REPRESENTATION_CONTEXT('2D SPACE',''
  ) );
#335 = PCURVE('',#336,#341);
#336 = PLANE('',#337);
#337 = AXIS2_PLACEMENT_3D('',#338,#339,#340);
#338 = CARTESIAN_POINT('',(11.,1.420077,-20.1));
#339 = DIRECTION('',(7.974522228289E-02,0.,0.996815278536));
#340 = DIRECTION('',(0.,-1.,0.));
#341 = DEFINITIONAL_REPRESENTATION('',(#342),#346);
#342 = LINE('',#343,#344);
#343 = CARTESIAN_POINT('',(0.112696,5.015974481594));
#344 = VECTOR('',#345,1.);
#345 = DIRECTION('',(1.,-2.105273868268E-16));
#346 = ( GEOMETRIC_REPRESENTATION_CONTEXT(2) 
PARAMETRIC_REPRESENTATION_CONTEXT() REPRESENTATION_CONTEXT('2D SPACE',''
  ) );
#347 = ADVANCED_FACE('',(#348),#336,.T.);
#348 = FACE_BOUND('',#349,.T.);
#349 = EDGE_LOOP('',(#350,#380,#400,#401));
#350 = ORIENTED_EDGE('',*,*,#351,.T.);
#351 = EDGE_CURVE('',#352,#354,#356,.T.);
#352 = VERTEX_POINT('',#353);
#353 = CARTESIAN_POINT('',(11.,1.420077,-20.1));
#354 = VERTEX_POINT('',#355);
#355 = CARTESIAN_POINT('',(11.,-1.420077,-20.1));
#356 = SURFACE_CURVE('',#357,(#361,#368),.PCURVE_S1.);
#357 = LINE('',#358,#359);
#358 = CARTESIAN_POINT('',(11.,1.420077,-20.1));
#359 = VECTOR('',#360,1.);
#360 = DIRECTION('',(-4.4E-16,-1.,3.3E-16));
#361 = PCURVE('',#336,#362);
#362 = DEFINITIONAL_REPRESENTATION('',(#363),#367);
#363 = LINE('',#364,#365);
#364 = CARTESIAN_POINT('',(0.,0.));
#365 = VECTOR('',#366,1.);
#366 = DIRECTION('',(1.,-4.649146459092E-16));
#367 = ( GEOMETRIC_REPRESENTATION_CONTEXT(2) 
PARAMETRIC_REPRESENTATION_CONTEXT() REPRESENTATION_CONTEXT('2D SPACE',''
  ) );
#368 = PCURVE('',#369,#374);
#369 = PLANE('',#370);
#370 = AXIS2_PLACEMENT_3D('',#371,#372,#373);
#371 = CARTESIAN_POINT('',(11.,-3.1E-16,-22.));
#372 = DIRECTION('',(1.,0.,0.));
#373 = DIRECTION('',(0.,-3.3E-16,1.));
#374 = DEFINITIONAL_REPRESENTATION('',(#375),#379);
#375 = LINE('',#376,#377);
#376 = CARTESIAN_POINT('',(1.9,-1.420077));
#377 = VECTOR('',#378,1.);
#378 = DIRECTION('',(6.6E-16,1.));
#379 = ( GEOMETRIC_REPRESENTATION_CONTEXT(2) 
PARAMETRIC_REPRESENTATION_CONTEXT() REPRESENTATION_CONTEXT('2D SPACE',''
  ) );
#380 = ORIENTED_EDGE('',*,*,#381,.T.);
#381 = EDGE_CURVE('',#354,#22,#382,.T.);
#382 = SURFACE_CURVE('',#383,(#387,#394),.PCURVE_S1.);
#383 = LINE('',#384,#385);
#384 = CARTESIAN_POINT('',(13.5,-1.363729,-20.3));
#385 = VECTOR('',#386,1.);
#386 = DIRECTION('',(0.996563785088,2.246175046485E-02,
    -7.972510280702E-02));
#387 = PCURVE('',#336,#388);
#388 = DEFINITIONAL_REPRESENTATION('',(#389),#393);
#389 = LINE('',#390,#391);
#390 = CARTESIAN_POINT('',(2.783806,2.507987240797));
#391 = VECTOR('',#392,1.);
#392 = DIRECTION('',(-2.246175046485E-02,0.999747703056));
#393 = ( GEOMETRIC_REPRESENTATION_CONTEXT(2) 
PARAMETRIC_REPRESENTATION_CONTEXT() REPRESENTATION_CONTEXT('2D SPACE',''
  ) );
#394 = PCURVE('',#82,#395);
#395 = DEFINITIONAL_REPRESENTATION('',(#396),#399);
#396 = B_SPLINE_CURVE_WITH_KNOTS('',1,(#397,#398),.UNSPECIFIED.,.F.,.F.,
  (2,2),(-2.508620157996,2.508620157996),.PIECEWISE_BEZIER_KNOTS.);
#397 = CARTESIAN_POINT('',(1.570796326795,1.127963459689E-16));
#398 = CARTESIAN_POINT('',(1.570796326795,1.));
#399 = ( GEOMETRIC_REPRESENTATION_CONTEXT(2) 
PARAMETRIC_REPRESENTATION_CONTEXT() REPRESENTATION_CONTEXT('2D SPACE',''
  ) );
#400 = ORIENTED_EDGE('',*,*,#322,.F.);
#401 = ORIENTED_EDGE('',*,*,#402,.F.);
#402 = EDGE_CURVE('',#352,#190,#403,.T.);
#403 = SURFACE_CURVE('',#404,(#408,#415),.PCURVE_S1.);
#404 = LINE('',#405,#406);
#405 = CARTESIAN_POINT('',(13.5,1.363729,-20.3));
#406 = VECTOR('',#407,1.);
#407 = DIRECTION('',(0.996563785088,-2.246175046485E-02,
    -7.972510280702E-02));
#408 = PCURVE('',#336,#409);
#409 = DEFINITIONAL_REPRESENTATION('',(#410),#414);
#410 = LINE('',#411,#412);
#411 = CARTESIAN_POINT('',(5.6348E-02,2.507987240797));
#412 = VECTOR('',#413,1.);
#413 = DIRECTION('',(2.246175046485E-02,0.999747703056));
#414 = ( GEOMETRIC_REPRESENTATION_CONTEXT(2) 
PARAMETRIC_REPRESENTATION_CONTEXT() REPRESENTATION_CONTEXT('2D SPACE',''
  ) );
#415 = PCURVE('',#243,#416);
#416 = DEFINITIONAL_REPRESENTATION('',(#417),#420);
#417 = B_SPLINE_CURVE_WITH_KNOTS('',1,(#418,#419),.UNSPECIFIED.,.F.,.F.,
  (2,2),(-2.508620157996,2.508620157996),.PIECEWISE_BEZIER_KNOTS.);
#418 = CARTESIAN_POINT('',(7.853981633974,1.999770607449E-16));
#419 = CARTESIAN_POINT('',(7.853981633974,1.));
#420 = ( GEOMETRIC_REPRESENTATION_CONTEXT(2) 
PARAMETRIC_REPRESENTATION_CONTEXT() REPRESENTATION_CONTEXT('2D SPACE',''
  ) );
#421 = ADVANCED_FACE('',(#422),#243,.T.);
#422 = FACE_BOUND('',#423,.T.);
#423 = EDGE_LOOP('',(#424,#484,#485,#486));
#424 = ORIENTED_EDGE('',*,*,#425,.F.);
#425 = EDGE_CURVE('',#352,#426,#428,.T.);
#426 = VERTEX_POINT('',#427);
#427 = CARTESIAN_POINT('',(11.,1.420077,-23.9));
#428 = SURFACE_CURVE('',#429,(#452,#458),.PCURVE_S1.);
#429 = B_SPLINE_CURVE_WITH_KNOTS('',3,(#430,#431,#432,#433,#434,#435,
    #436,#437,#438,#439,#440,#441,#442,#443,#444,#445,#446,#447,#448,
    #449,#450,#451),.UNSPECIFIED.,.F.,.F.,(4,2,2,2,2,2,2,2,2,2,4),(0.,
    3.946888102721E-02,7.885938076353E-02,0.15167502295,0.224172602787,
    0.296482298678,0.368791994569,0.441289574406,0.514105216592,
    0.553495716326,0.592964597351),.UNSPECIFIED.);
#430 = CARTESIAN_POINT('',(11.,1.420077,-20.1));
#431 = CARTESIAN_POINT('',(11.,1.551639936757,-20.1));
#432 = CARTESIAN_POINT('',(11.,1.68317634795,-20.11383776069));
#433 = CARTESIAN_POINT('',(11.,1.940393541637,-20.16803265253));
#434 = CARTESIAN_POINT('',(11.,2.066290536108,-20.20838027864));
#435 = CARTESIAN_POINT('',(11.,2.409974898989,-20.36009320071));
#436 = CARTESIAN_POINT('',(11.,2.614242845452,-20.5019959323));
#437 = CARTESIAN_POINT('',(11.,2.954062035654,-20.85279070338));
#438 = CARTESIAN_POINT('',(11.,3.089731522276,-21.06087008312));
#439 = CARTESIAN_POINT('',(11.,3.272656247667,-21.51299581431));
#440 = CARTESIAN_POINT('',(11.,3.320076999427,-21.75645194445));
#441 = CARTESIAN_POINT('',(11.,3.320076999422,-22.24354805557));
#442 = CARTESIAN_POINT('',(11.,3.272656247658,-22.48700418571));
#443 = CARTESIAN_POINT('',(11.,3.089731522258,-22.9391299169));
#444 = CARTESIAN_POINT('',(11.,2.954062035632,-23.14720929664));
#445 = CARTESIAN_POINT('',(11.,2.614242845423,-23.49800406771));
#446 = CARTESIAN_POINT('',(11.,2.409974898957,-23.6399067993));
#447 = CARTESIAN_POINT('',(11.,2.066290536077,-23.79161972136));
#448 = CARTESIAN_POINT('',(11.,1.940393541612,-23.83196734747));
#449 = CARTESIAN_POINT('',(11.,1.683176347936,-23.8861622393));
#450 = CARTESIAN_POINT('',(11.,1.551639936751,-23.9));
#451 = CARTESIAN_POINT('',(11.,1.420077,-23.9));
#452 = PCURVE('',#243,#453);
#453 = DEFINITIONAL_REPRESENTATION('',(#454),#457);
#454 = B_SPLINE_CURVE_WITH_KNOTS('',1,(#455,#456),.UNSPECIFIED.,.F.,.F.,
  (2,2),(0.,0.592964597351),.PIECEWISE_BEZIER_KNOTS.);
#455 = CARTESIAN_POINT('',(7.853981633974,2.564589952251E-16));
#456 = CARTESIAN_POINT('',(4.712388980385,3.525735145072E-16));
#457 = ( GEOMETRIC_REPRESENTATION_CONTEXT(2) 
PARAMETRIC_REPRESENTATION_CONTEXT() REPRESENTATION_CONTEXT('2D SPACE',''
  ) );
#458 = PCURVE('',#369,#459);
#459 = DEFINITIONAL_REPRESENTATION('',(#460),#483);
#460 = B_SPLINE_CURVE_WITH_KNOTS('',3,(#461,#462,#463,#464,#465,#466,
    #467,#468,#469,#470,#471,#472,#473,#474,#475,#476,#477,#478,#479,
    #480,#481,#482),.UNSPECIFIED.,.F.,.F.,(4,2,2,2,2,2,2,2,2,2,4),(0.,
    3.946888102721E-02,7.885938076353E-02,0.15167502295,0.224172602787,
    0.296482298678,0.368791994569,0.441289574406,0.514105216592,
    0.553495716326,0.592964597351),.UNSPECIFIED.);
#461 = CARTESIAN_POINT('',(1.9,-1.420077));
#462 = CARTESIAN_POINT('',(1.9,-1.551639936757));
#463 = CARTESIAN_POINT('',(1.886162239305,-1.68317634795));
#464 = CARTESIAN_POINT('',(1.831967347465,-1.940393541637));
#465 = CARTESIAN_POINT('',(1.791619721355,-2.066290536108));
#466 = CARTESIAN_POINT('',(1.639906799283,-2.409974898989));
#467 = CARTESIAN_POINT('',(1.498004067696,-2.614242845452));
#468 = CARTESIAN_POINT('',(1.147209296616,-2.954062035654));
#469 = CARTESIAN_POINT('',(0.93912991688,-3.089731522276));
#470 = CARTESIAN_POINT('',(0.487004185686,-3.272656247667));
#471 = CARTESIAN_POINT('',(0.243548055544,-3.320076999427));
#472 = CARTESIAN_POINT('',(-0.243548055575,-3.320076999422));
#473 = CARTESIAN_POINT('',(-0.487004185716,-3.272656247658));
#474 = CARTESIAN_POINT('',(-0.939129916907,-3.089731522258));
#475 = CARTESIAN_POINT('',(-1.147209296641,-2.954062035632));
#476 = CARTESIAN_POINT('',(-1.498004067716,-2.614242845423));
#477 = CARTESIAN_POINT('',(-1.639906799301,-2.409974898957));
#478 = CARTESIAN_POINT('',(-1.791619721365,-2.066290536077));
#479 = CARTESIAN_POINT('',(-1.831967347471,-1.940393541612));
#480 = CARTESIAN_POINT('',(-1.886162239306,-1.683176347936));
#481 = CARTESIAN_POINT('',(-1.9,-1.551639936751));
#482 = CARTESIAN_POINT('',(-1.9,-1.420077));
#483 = ( GEOMETRIC_REPRESENTATION_CONTEXT(2) 
PARAMETRIC_REPRESENTATION_CONTEXT() REPRESENTATION_CONTEXT('2D SPACE',''
  ) );
#484 = ORIENTED_EDGE('',*,*,#402,.T.);
#485 = ORIENTED_EDGE('',*,*,#189,.F.);
#486 = ORIENTED_EDGE('',*,*,#487,.F.);
#487 = EDGE_CURVE('',#426,#162,#488,.T.);
#488 = SURFACE_CURVE('',#489,(#493,#499),.PCURVE_S1.);
#489 = LINE('',#490,#491);
#490 = CARTESIAN_POINT('',(13.5,1.363729,-23.7));
#491 = VECTOR('',#492,1.);
#492 = DIRECTION('',(0.996563785088,-2.246175046485E-02,
    7.972510280702E-02));
#493 = PCURVE('',#243,#494);
#494 = DEFINITIONAL_REPRESENTATION('',(#495),#498);
#495 = B_SPLINE_CURVE_WITH_KNOTS('',1,(#496,#497),.UNSPECIFIED.,.F.,.F.,
  (2,2),(-2.508620157996,2.508620157996),.PIECEWISE_BEZIER_KNOTS.);
#496 = CARTESIAN_POINT('',(4.712388980385,3.515977317248E-16));
#497 = CARTESIAN_POINT('',(4.712388980385,1.));
#498 = ( GEOMETRIC_REPRESENTATION_CONTEXT(2) 
PARAMETRIC_REPRESENTATION_CONTEXT() REPRESENTATION_CONTEXT('2D SPACE',''
  ) );
#499 = PCURVE('',#177,#500);
#500 = DEFINITIONAL_REPRESENTATION('',(#501),#505);
#501 = LINE('',#502,#503);
#502 = CARTESIAN_POINT('',(2.783806,2.507987240797));
#503 = VECTOR('',#504,1.);
#504 = DIRECTION('',(-2.246175046485E-02,0.999747703056));
#505 = ( GEOMETRIC_REPRESENTATION_CONTEXT(2) 
PARAMETRIC_REPRESENTATION_CONTEXT() REPRESENTATION_CONTEXT('2D SPACE',''
  ) );
#506 = ADVANCED_FACE('',(#507),#177,.T.);
#507 = FACE_BOUND('',#508,.T.);
#508 = EDGE_LOOP('',(#509,#532,#533,#534));
#509 = ORIENTED_EDGE('',*,*,#510,.T.);
#510 = EDGE_CURVE('',#511,#426,#513,.T.);
#511 = VERTEX_POINT('',#512);
#512 = CARTESIAN_POINT('',(11.,-1.420077,-23.9));
#513 = SURFACE_CURVE('',#514,(#518,#525),.PCURVE_S1.);
#514 = LINE('',#515,#516);
#515 = CARTESIAN_POINT('',(11.,-1.420077,-23.9));
#516 = VECTOR('',#517,1.);
#517 = DIRECTION('',(4.4E-16,1.,-3.3E-16));
#518 = PCURVE('',#177,#519);
#519 = DEFINITIONAL_REPRESENTATION('',(#520),#524);
#520 = LINE('',#521,#522);
#521 = CARTESIAN_POINT('',(0.,0.));
#522 = VECTOR('',#523,1.);
#523 = DIRECTION('',(1.,4.122827992025E-16));
#524 = ( GEOMETRIC_REPRESENTATION_CONTEXT(2) 
PARAMETRIC_REPRESENTATION_CONTEXT() REPRESENTATION_CONTEXT('2D SPACE',''
  ) );
#525 = PCURVE('',#369,#526);
#526 = DEFINITIONAL_REPRESENTATION('',(#527),#531);
#527 = LINE('',#528,#529);
#528 = CARTESIAN_POINT('',(-1.9,1.420077));
#529 = VECTOR('',#530,1.);
#530 = DIRECTION('',(-6.6E-16,-1.));
#531 = ( GEOMETRIC_REPRESENTATION_CONTEXT(2) 
PARAMETRIC_REPRESENTATION_CONTEXT() REPRESENTATION_CONTEXT('2D SPACE',''
  ) );
#532 = ORIENTED_EDGE('',*,*,#487,.T.);
#533 = ORIENTED_EDGE('',*,*,#161,.F.);
#534 = ORIENTED_EDGE('',*,*,#535,.F.);
#535 = EDGE_CURVE('',#511,#24,#536,.T.);
#536 = SURFACE_CURVE('',#537,(#541,#548),.PCURVE_S1.);
#537 = LINE('',#538,#539);
#538 = CARTESIAN_POINT('',(13.5,-1.363729,-23.7));
#539 = VECTOR('',#540,1.);
#540 = DIRECTION('',(0.996563785088,2.246175046485E-02,
    7.972510280702E-02));
#541 = PCURVE('',#177,#542);
#542 = DEFINITIONAL_REPRESENTATION('',(#543),#547);
#543 = LINE('',#544,#545);
#544 = CARTESIAN_POINT('',(5.6348E-02,2.507987240797));
#545 = VECTOR('',#546,1.);
#546 = DIRECTION('',(2.246175046485E-02,0.999747703056));
#547 = ( GEOMETRIC_REPRESENTATION_CONTEXT(2) 
PARAMETRIC_REPRESENTATION_CONTEXT() REPRESENTATION_CONTEXT('2D SPACE',''
  ) );
#548 = PCURVE('',#82,#549);
#549 = DEFINITIONAL_REPRESENTATION('',(#550),#553);
#550 = B_SPLINE_CURVE_WITH_KNOTS('',1,(#551,#552),.UNSPECIFIED.,.F.,.F.,
  (2,2),(-2.508620157996,2.508620157996),.PIECEWISE_BEZIER_KNOTS.);
#551 = CARTESIAN_POINT('',(4.712388980385,3.122795499479E-16));
#552 = CARTESIAN_POINT('',(4.712388980385,1.));
#553 = ( GEOMETRIC_REPRESENTATION_CONTEXT(2) 
PARAMETRIC_REPRESENTATION_CONTEXT() REPRESENTATION_CONTEXT('2D SPACE',''
  ) );
#554 = ADVANCED_FACE('',(#555),#82,.T.);
#555 = FACE_BOUND('',#556,.T.);
#556 = EDGE_LOOP('',(#557,#615,#616,#617));
#557 = ORIENTED_EDGE('',*,*,#558,.F.);
#558 = EDGE_CURVE('',#511,#354,#559,.T.);
#559 = SURFACE_CURVE('',#560,(#583,#589),.PCURVE_S1.);
#560 = B_SPLINE_CURVE_WITH_KNOTS('',3,(#561,#562,#563,#564,#565,#566,
    #567,#568,#569,#570,#571,#572,#573,#574,#575,#576,#577,#578,#579,
    #580,#581,#582),.UNSPECIFIED.,.F.,.F.,(4,2,2,2,2,2,2,2,2,2,4),(0.,
    3.94688810265E-02,7.885938076214E-02,0.151675022949,0.224172602787,
    0.296482298678,0.368791994568,0.441289574405,0.514105216591,
    0.553495716325,0.592964597351),.UNSPECIFIED.);
#561 = CARTESIAN_POINT('',(11.,-1.420077,-23.9));
#562 = CARTESIAN_POINT('',(11.,-1.551639936755,-23.9));
#563 = CARTESIAN_POINT('',(11.,-1.683176347945,-23.8861622393));
#564 = CARTESIAN_POINT('',(11.,-1.940393541628,-23.83196734746));
#565 = CARTESIAN_POINT('',(11.,-2.066290536097,-23.79161972135));
#566 = CARTESIAN_POINT('',(11.,-2.409974898979,-23.63990679928));
#567 = CARTESIAN_POINT('',(11.,-2.614242845444,-23.4980040677));
#568 = CARTESIAN_POINT('',(11.,-2.954062035649,-23.14720929661));
#569 = CARTESIAN_POINT('',(11.,-3.089731522272,-22.93912991688));
#570 = CARTESIAN_POINT('',(11.,-3.272656247666,-22.48700418568));
#571 = CARTESIAN_POINT('',(11.,-3.320076999427,-22.24354805554));
#572 = CARTESIAN_POINT('',(11.,-3.320076999424,-21.75645194442));
#573 = CARTESIAN_POINT('',(11.,-3.27265624766,-21.51299581428));
#574 = CARTESIAN_POINT('',(11.,-3.089731522261,-21.06087008309));
#575 = CARTESIAN_POINT('',(11.,-2.954062035637,-20.85279070336));
#576 = CARTESIAN_POINT('',(11.,-2.614242845431,-20.50199593228));
#577 = CARTESIAN_POINT('',(11.,-2.409974898966,-20.3600932007));
#578 = CARTESIAN_POINT('',(11.,-2.066290536087,-20.20838027863));
#579 = CARTESIAN_POINT('',(11.,-1.94039354162,-20.16803265253));
#580 = CARTESIAN_POINT('',(11.,-1.683176347941,-20.11383776069));
#581 = CARTESIAN_POINT('',(11.,-1.551639936753,-20.1));
#582 = CARTESIAN_POINT('',(11.,-1.420077,-20.1));
#583 = PCURVE('',#82,#584);
#584 = DEFINITIONAL_REPRESENTATION('',(#585),#588);
#585 = B_SPLINE_CURVE_WITH_KNOTS('',1,(#586,#587),.UNSPECIFIED.,.F.,.F.,
  (2,2),(0.,0.592964597351),.PIECEWISE_BEZIER_KNOTS.);
#586 = CARTESIAN_POINT('',(4.712388980385,1.993156809876E-16));
#587 = CARTESIAN_POINT('',(1.570796326795,1.127963459689E-16));
#588 = ( GEOMETRIC_REPRESENTATION_CONTEXT(2) 
PARAMETRIC_REPRESENTATION_CONTEXT() REPRESENTATION_CONTEXT('2D SPACE',''
  ) );
#589 = PCURVE('',#369,#590);
#590 = DEFINITIONAL_REPRESENTATION('',(#591),#614);
#591 = B_SPLINE_CURVE_WITH_KNOTS('',3,(#592,#593,#594,#595,#596,#597,
    #598,#599,#600,#601,#602,#603,#604,#605,#606,#607,#608,#609,#610,
    #611,#612,#613),.UNSPECIFIED.,.F.,.F.,(4,2,2,2,2,2,2,2,2,2,4),(0.,
    3.94688810265E-02,7.885938076214E-02,0.151675022949,0.224172602787,
    0.296482298678,0.368791994568,0.441289574405,0.514105216591,
    0.553495716325,0.592964597351),.UNSPECIFIED.);
#592 = CARTESIAN_POINT('',(-1.9,1.420077));
#593 = CARTESIAN_POINT('',(-1.9,1.551639936755));
#594 = CARTESIAN_POINT('',(-1.886162239305,1.683176347945));
#595 = CARTESIAN_POINT('',(-1.831967347467,1.940393541628));
#596 = CARTESIAN_POINT('',(-1.791619721358,2.066290536097));
#597 = CARTESIAN_POINT('',(-1.639906799287,2.409974898979));
#598 = CARTESIAN_POINT('',(-1.4980040677,2.614242845444));
#599 = CARTESIAN_POINT('',(-1.147209296618,2.954062035649));
#600 = CARTESIAN_POINT('',(-0.939129916881,3.089731522272));
#601 = CARTESIAN_POINT('',(-0.487004185686,3.272656247666));
#602 = CARTESIAN_POINT('',(-0.243548055544,3.320076999427));
#603 = CARTESIAN_POINT('',(0.243548055575,3.320076999424));
#604 = CARTESIAN_POINT('',(0.487004185716,3.27265624766));
#605 = CARTESIAN_POINT('',(0.939129916907,3.089731522261));
#606 = CARTESIAN_POINT('',(1.14720929664,2.954062035637));
#607 = CARTESIAN_POINT('',(1.498004067714,2.614242845431));
#608 = CARTESIAN_POINT('',(1.639906799297,2.409974898966));
#609 = CARTESIAN_POINT('',(1.791619721362,2.066290536087));
#610 = CARTESIAN_POINT('',(1.83196734747,1.94039354162));
#611 = CARTESIAN_POINT('',(1.886162239306,1.683176347941));
#612 = CARTESIAN_POINT('',(1.9,1.551639936753));
#613 = CARTESIAN_POINT('',(1.9,1.420077));
#614 = ( GEOMETRIC_REPRESENTATION_CONTEXT(2) 
PARAMETRIC_REPRESENTATION_CONTEXT() REPRESENTATION_CONTEXT('2D SPACE',''
  ) );
#615 = ORIENTED_EDGE('',*,*,#535,.T.);
#616 = ORIENTED_EDGE('',*,*,#21,.F.);
#617 = ORIENTED_EDGE('',*,*,#381,.F.);
#618 = ADVANCED_FACE('',(#619),#633,.F.);
#619 = FACE_BOUND('',#620,.T.);
#620 = EDGE_LOOP('',(#621,#656,#684,#707));
#621 = ORIENTED_EDGE('',*,*,#622,.T.);
#622 = EDGE_CURVE('',#623,#625,#627,.T.);
#623 = VERTEX_POINT('',#624);
#624 = CARTESIAN_POINT('',(10.2,-3.7,-19.7));
#625 = VERTEX_POINT('',#626);
#626 = CARTESIAN_POINT('',(10.2,-3.7,-24.3));
#627 = SURFACE_CURVE('',#628,(#632,#644),.PCURVE_S1.);
#628 = LINE('',#629,#630);
#629 = CARTESIAN_POINT('',(10.2,-3.7,-19.7));
#630 = VECTOR('',#631,1.);
#631 = DIRECTION('',(6.7E-16,3.3E-16,-1.));
#632 = PCURVE('',#633,#638);
#633 = PLANE('',#634);
#634 = AXIS2_PLACEMENT_3D('',#635,#636,#637);
#635 = CARTESIAN_POINT('',(10.2,-3.7,-19.7));
#636 = DIRECTION('',(0.,1.,0.));
#637 = DIRECTION('',(8.9E-16,0.,-1.));
#638 = DEFINITIONAL_REPRESENTATION('',(#639),#643);
#639 = LINE('',#640,#641);
#640 = CARTESIAN_POINT('',(0.,0.));
#641 = VECTOR('',#642,1.);
#642 = DIRECTION('',(1.,2.2E-16));
#643 = ( GEOMETRIC_REPRESENTATION_CONTEXT(2) 
PARAMETRIC_REPRESENTATION_CONTEXT() REPRESENTATION_CONTEXT('2D SPACE',''
  ) );
#644 = PCURVE('',#645,#650);
#645 = PLANE('',#646);
#646 = AXIS2_PLACEMENT_3D('',#647,#648,#649);
#647 = CARTESIAN_POINT('',(10.2,0.,-22.));
#648 = DIRECTION('',(1.,0.,0.));
#649 = DIRECTION('',(0.,-3.3E-16,1.));
#650 = DEFINITIONAL_REPRESENTATION('',(#651),#655);
#651 = LINE('',#652,#653);
#652 = CARTESIAN_POINT('',(2.3,3.7));
#653 = VECTOR('',#654,1.);
#654 = DIRECTION('',(-1.,0.));
#655 = ( GEOMETRIC_REPRESENTATION_CONTEXT(2) 
PARAMETRIC_REPRESENTATION_CONTEXT() REPRESENTATION_CONTEXT('2D SPACE',''
  ) );
#656 = ORIENTED_EDGE('',*,*,#657,.T.);
#657 = EDGE_CURVE('',#625,#658,#660,.T.);
#658 = VERTEX_POINT('',#659);
#659 = CARTESIAN_POINT('',(11.,-3.7,-24.3));
#660 = SURFACE_CURVE('',#661,(#665,#672),.PCURVE_S1.);
#661 = LINE('',#662,#663);
#662 = CARTESIAN_POINT('',(10.2,-3.7,-24.3));
#663 = VECTOR('',#664,1.);
#664 = DIRECTION('',(1.,-5.6E-16,2.8E-16));
#665 = PCURVE('',#633,#666);
#666 = DEFINITIONAL_REPRESENTATION('',(#667),#671);
#667 = LINE('',#668,#669);
#668 = CARTESIAN_POINT('',(4.6,4.094E-15));
#669 = VECTOR('',#670,1.);
#670 = DIRECTION('',(6.1E-16,-1.));
#671 = ( GEOMETRIC_REPRESENTATION_CONTEXT(2) 
PARAMETRIC_REPRESENTATION_CONTEXT() REPRESENTATION_CONTEXT('2D SPACE',''
  ) );
#672 = PCURVE('',#673,#678);
#673 = PLANE('',#674);
#674 = AXIS2_PLACEMENT_3D('',#675,#676,#677);
#675 = CARTESIAN_POINT('',(10.2,-3.7,-24.3));
#676 = DIRECTION('',(0.,0.,1.));
#677 = DIRECTION('',(-1.1E-16,1.,0.));
#678 = DEFINITIONAL_REPRESENTATION('',(#679),#683);
#679 = LINE('',#680,#681);
#680 = CARTESIAN_POINT('',(0.,0.));
#681 = VECTOR('',#682,1.);
#682 = DIRECTION('',(-6.7E-16,-1.));
#683 = ( GEOMETRIC_REPRESENTATION_CONTEXT(2) 
PARAMETRIC_REPRESENTATION_CONTEXT() REPRESENTATION_CONTEXT('2D SPACE',''
  ) );
#684 = ORIENTED_EDGE('',*,*,#685,.F.);
#685 = EDGE_CURVE('',#686,#658,#688,.T.);
#686 = VERTEX_POINT('',#687);
#687 = CARTESIAN_POINT('',(11.,-3.7,-19.7));
#688 = SURFACE_CURVE('',#689,(#693,#700),.PCURVE_S1.);
#689 = LINE('',#690,#691);
#690 = CARTESIAN_POINT('',(11.,-3.7,-19.7));
#691 = VECTOR('',#692,1.);
#692 = DIRECTION('',(6.7E-16,3.3E-16,-1.));
#693 = PCURVE('',#633,#694);
#694 = DEFINITIONAL_REPRESENTATION('',(#695),#699);
#695 = LINE('',#696,#697);
#696 = CARTESIAN_POINT('',(7.12E-16,-0.8));
#697 = VECTOR('',#698,1.);
#698 = DIRECTION('',(1.,2.2E-16));
#699 = ( GEOMETRIC_REPRESENTATION_CONTEXT(2) 
PARAMETRIC_REPRESENTATION_CONTEXT() REPRESENTATION_CONTEXT('2D SPACE',''
  ) );
#700 = PCURVE('',#369,#701);
#701 = DEFINITIONAL_REPRESENTATION('',(#702),#706);
#702 = LINE('',#703,#704);
#703 = CARTESIAN_POINT('',(2.3,3.7));
#704 = VECTOR('',#705,1.);
#705 = DIRECTION('',(-1.,0.));
#706 = ( GEOMETRIC_REPRESENTATION_CONTEXT(2) 
PARAMETRIC_REPRESENTATION_CONTEXT() REPRESENTATION_CONTEXT('2D SPACE',''
  ) );
#707 = ORIENTED_EDGE('',*,*,#708,.F.);
#708 = EDGE_CURVE('',#623,#686,#709,.T.);
#709 = SURFACE_CURVE('',#710,(#714,#721),.PCURVE_S1.);
#710 = LINE('',#711,#712);
#711 = CARTESIAN_POINT('',(10.2,-3.7,-19.7));
#712 = VECTOR('',#713,1.);
#713 = DIRECTION('',(1.,-5.6E-16,2.8E-16));
#714 = PCURVE('',#633,#715);
#715 = DEFINITIONAL_REPRESENTATION('',(#716),#720);
#716 = LINE('',#717,#718);
#717 = CARTESIAN_POINT('',(0.,0.));
#718 = VECTOR('',#719,1.);
#719 = DIRECTION('',(6.1E-16,-1.));
#720 = ( GEOMETRIC_REPRESENTATION_CONTEXT(2) 
PARAMETRIC_REPRESENTATION_CONTEXT() REPRESENTATION_CONTEXT('2D SPACE',''
  ) );
#721 = PCURVE('',#722,#727);
#722 = PLANE('',#723);
#723 = AXIS2_PLACEMENT_3D('',#724,#725,#726);
#724 = CARTESIAN_POINT('',(10.2,3.7,-19.7));
#725 = DIRECTION('',(0.,0.,-1.));
#726 = DIRECTION('',(1.1E-16,-1.,0.));
#727 = DEFINITIONAL_REPRESENTATION('',(#728),#732);
#728 = LINE('',#729,#730);
#729 = CARTESIAN_POINT('',(7.4,8.14E-16));
#730 = VECTOR('',#731,1.);
#731 = DIRECTION('',(6.7E-16,-1.));
#732 = ( GEOMETRIC_REPRESENTATION_CONTEXT(2) 
PARAMETRIC_REPRESENTATION_CONTEXT() REPRESENTATION_CONTEXT('2D SPACE',''
  ) );
#733 = ADVANCED_FACE('',(#734,#809),#369,.T.);
#734 = FACE_BOUND('',#735,.T.);
#735 = EDGE_LOOP('',(#736,#766,#787,#788));
#736 = ORIENTED_EDGE('',*,*,#737,.T.);
#737 = EDGE_CURVE('',#738,#740,#742,.T.);
#738 = VERTEX_POINT('',#739);
#739 = CARTESIAN_POINT('',(11.,3.7,-24.3));
#740 = VERTEX_POINT('',#741);
#741 = CARTESIAN_POINT('',(11.,3.7,-19.7));
#742 = SURFACE_CURVE('',#743,(#747,#754),.PCURVE_S1.);
#743 = LINE('',#744,#745);
#744 = CARTESIAN_POINT('',(11.,3.7,-24.3));
#745 = VECTOR('',#746,1.);
#746 = DIRECTION('',(-6.7E-16,-3.3E-16,1.));
#747 = PCURVE('',#369,#748);
#748 = DEFINITIONAL_REPRESENTATION('',(#749),#753);
#749 = LINE('',#750,#751);
#750 = CARTESIAN_POINT('',(-2.3,-3.7));
#751 = VECTOR('',#752,1.);
#752 = DIRECTION('',(1.,0.));
#753 = ( GEOMETRIC_REPRESENTATION_CONTEXT(2) 
PARAMETRIC_REPRESENTATION_CONTEXT() REPRESENTATION_CONTEXT('2D SPACE',''
  ) );
#754 = PCURVE('',#755,#760);
#755 = PLANE('',#756);
#756 = AXIS2_PLACEMENT_3D('',#757,#758,#759);
#757 = CARTESIAN_POINT('',(10.2,3.7,-24.3));
#758 = DIRECTION('',(0.,-1.,0.));
#759 = DIRECTION('',(-8.9E-16,0.,1.));
#760 = DEFINITIONAL_REPRESENTATION('',(#761),#765);
#761 = LINE('',#762,#763);
#762 = CARTESIAN_POINT('',(-7.12E-16,-0.8));
#763 = VECTOR('',#764,1.);
#764 = DIRECTION('',(1.,-2.2E-16));
#765 = ( GEOMETRIC_REPRESENTATION_CONTEXT(2) 
PARAMETRIC_REPRESENTATION_CONTEXT() REPRESENTATION_CONTEXT('2D SPACE',''
  ) );
#766 = ORIENTED_EDGE('',*,*,#767,.T.);
#767 = EDGE_CURVE('',#740,#686,#768,.T.);
#768 = SURFACE_CURVE('',#769,(#773,#780),.PCURVE_S1.);
#769 = LINE('',#770,#771);
#770 = CARTESIAN_POINT('',(11.,3.7,-19.7));
#771 = VECTOR('',#772,1.);
#772 = DIRECTION('',(5.6E-16,-1.,5.6E-16));
#773 = PCURVE('',#369,#774);
#774 = DEFINITIONAL_REPRESENTATION('',(#775),#779);
#775 = LINE('',#776,#777);
#776 = CARTESIAN_POINT('',(2.3,-3.7));
#777 = VECTOR('',#778,1.);
#778 = DIRECTION('',(8.9E-16,1.));
#779 = ( GEOMETRIC_REPRESENTATION_CONTEXT(2) 
PARAMETRIC_REPRESENTATION_CONTEXT() REPRESENTATION_CONTEXT('2D SPACE',''
  ) );
#780 = PCURVE('',#722,#781);
#781 = DEFINITIONAL_REPRESENTATION('',(#782),#786);
#782 = LINE('',#783,#784);
#783 = CARTESIAN_POINT('',(8.8E-17,-0.8));
#784 = VECTOR('',#785,1.);
#785 = DIRECTION('',(1.,-4.5E-16));
#786 = ( GEOMETRIC_REPRESENTATION_CONTEXT(2) 
PARAMETRIC_REPRESENTATION_CONTEXT() REPRESENTATION_CONTEXT('2D SPACE',''
  ) );
#787 = ORIENTED_EDGE('',*,*,#685,.T.);
#788 = ORIENTED_EDGE('',*,*,#789,.T.);
#789 = EDGE_CURVE('',#658,#738,#790,.T.);
#790 = SURFACE_CURVE('',#791,(#795,#802),.PCURVE_S1.);
#791 = LINE('',#792,#793);
#792 = CARTESIAN_POINT('',(11.,-3.7,-24.3));
#793 = VECTOR('',#794,1.);
#794 = DIRECTION('',(-5.6E-16,1.,-5.6E-16));
#795 = PCURVE('',#369,#796);
#796 = DEFINITIONAL_REPRESENTATION('',(#797),#801);
#797 = LINE('',#798,#799);
#798 = CARTESIAN_POINT('',(-2.3,3.7));
#799 = VECTOR('',#800,1.);
#800 = DIRECTION('',(-8.9E-16,-1.));
#801 = ( GEOMETRIC_REPRESENTATION_CONTEXT(2) 
PARAMETRIC_REPRESENTATION_CONTEXT() REPRESENTATION_CONTEXT('2D SPACE',''
  ) );
#802 = PCURVE('',#673,#803);
#803 = DEFINITIONAL_REPRESENTATION('',(#804),#808);
#804 = LINE('',#805,#806);
#805 = CARTESIAN_POINT('',(-8.8E-17,-0.8));
#806 = VECTOR('',#807,1.);
#807 = DIRECTION('',(1.,4.5E-16));
#808 = ( GEOMETRIC_REPRESENTATION_CONTEXT(2) 
PARAMETRIC_REPRESENTATION_CONTEXT() REPRESENTATION_CONTEXT('2D SPACE',''
  ) );
#809 = FACE_BOUND('',#810,.T.);
#810 = EDGE_LOOP('',(#811,#812,#813,#814));
#811 = ORIENTED_EDGE('',*,*,#558,.T.);
#812 = ORIENTED_EDGE('',*,*,#351,.F.);
#813 = ORIENTED_EDGE('',*,*,#425,.T.);
#814 = ORIENTED_EDGE('',*,*,#510,.F.);
#815 = ADVANCED_FACE('',(#816),#645,.F.);
#816 = FACE_BOUND('',#817,.T.);
#817 = EDGE_LOOP('',(#818,#841,#842,#865));
#818 = ORIENTED_EDGE('',*,*,#819,.F.);
#819 = EDGE_CURVE('',#625,#820,#822,.T.);
#820 = VERTEX_POINT('',#821);
#821 = CARTESIAN_POINT('',(10.2,3.7,-24.3));
#822 = SURFACE_CURVE('',#823,(#827,#834),.PCURVE_S1.);
#823 = LINE('',#824,#825);
#824 = CARTESIAN_POINT('',(10.2,-3.7,-24.3));
#825 = VECTOR('',#826,1.);
#826 = DIRECTION('',(-5.6E-16,1.,-5.6E-16));
#827 = PCURVE('',#645,#828);
#828 = DEFINITIONAL_REPRESENTATION('',(#829),#833);
#829 = LINE('',#830,#831);
#830 = CARTESIAN_POINT('',(-2.3,3.7));
#831 = VECTOR('',#832,1.);
#832 = DIRECTION('',(-8.9E-16,-1.));
#833 = ( GEOMETRIC_REPRESENTATION_CONTEXT(2) 
PARAMETRIC_REPRESENTATION_CONTEXT() REPRESENTATION_CONTEXT('2D SPACE',''
  ) );
#834 = PCURVE('',#673,#835);
#835 = DEFINITIONAL_REPRESENTATION('',(#836),#840);
#836 = LINE('',#837,#838);
#837 = CARTESIAN_POINT('',(0.,0.));
#838 = VECTOR('',#839,1.);
#839 = DIRECTION('',(1.,4.5E-16));
#840 = ( GEOMETRIC_REPRESENTATION_CONTEXT(2) 
PARAMETRIC_REPRESENTATION_CONTEXT() REPRESENTATION_CONTEXT('2D SPACE',''
  ) );
#841 = ORIENTED_EDGE('',*,*,#622,.F.);
#842 = ORIENTED_EDGE('',*,*,#843,.F.);
#843 = EDGE_CURVE('',#844,#623,#846,.T.);
#844 = VERTEX_POINT('',#845);
#845 = CARTESIAN_POINT('',(10.2,3.7,-19.7));
#846 = SURFACE_CURVE('',#847,(#851,#858),.PCURVE_S1.);
#847 = LINE('',#848,#849);
#848 = CARTESIAN_POINT('',(10.2,3.7,-19.7));
#849 = VECTOR('',#850,1.);
#850 = DIRECTION('',(5.6E-16,-1.,5.6E-16));
#851 = PCURVE('',#645,#852);
#852 = DEFINITIONAL_REPRESENTATION('',(#853),#857);
#853 = LINE('',#854,#855);
#854 = CARTESIAN_POINT('',(2.3,-3.7));
#855 = VECTOR('',#856,1.);
#856 = DIRECTION('',(8.9E-16,1.));
#857 = ( GEOMETRIC_REPRESENTATION_CONTEXT(2) 
PARAMETRIC_REPRESENTATION_CONTEXT() REPRESENTATION_CONTEXT('2D SPACE',''
  ) );
#858 = PCURVE('',#722,#859);
#859 = DEFINITIONAL_REPRESENTATION('',(#860),#864);
#860 = LINE('',#861,#862);
#861 = CARTESIAN_POINT('',(0.,-0.));
#862 = VECTOR('',#863,1.);
#863 = DIRECTION('',(1.,-4.5E-16));
#864 = ( GEOMETRIC_REPRESENTATION_CONTEXT(2) 
PARAMETRIC_REPRESENTATION_CONTEXT() REPRESENTATION_CONTEXT('2D SPACE',''
  ) );
#865 = ORIENTED_EDGE('',*,*,#866,.F.);
#866 = EDGE_CURVE('',#820,#844,#867,.T.);
#867 = SURFACE_CURVE('',#868,(#872,#879),.PCURVE_S1.);
#868 = LINE('',#869,#870);
#869 = CARTESIAN_POINT('',(10.2,3.7,-24.3));
#870 = VECTOR('',#871,1.);
#871 = DIRECTION('',(-6.7E-16,-3.3E-16,1.));
#872 = PCURVE('',#645,#873);
#873 = DEFINITIONAL_REPRESENTATION('',(#874),#878);
#874 = LINE('',#875,#876);
#875 = CARTESIAN_POINT('',(-2.3,-3.7));
#876 = VECTOR('',#877,1.);
#877 = DIRECTION('',(1.,0.));
#878 = ( GEOMETRIC_REPRESENTATION_CONTEXT(2) 
PARAMETRIC_REPRESENTATION_CONTEXT() REPRESENTATION_CONTEXT('2D SPACE',''
  ) );
#879 = PCURVE('',#755,#880);
#880 = DEFINITIONAL_REPRESENTATION('',(#881),#885);
#881 = LINE('',#882,#883);
#882 = CARTESIAN_POINT('',(0.,-0.));
#883 = VECTOR('',#884,1.);
#884 = DIRECTION('',(1.,-2.2E-16));
#885 = ( GEOMETRIC_REPRESENTATION_CONTEXT(2) 
PARAMETRIC_REPRESENTATION_CONTEXT() REPRESENTATION_CONTEXT('2D SPACE',''
  ) );
#886 = ADVANCED_FACE('',(#887),#722,.F.);
#887 = FACE_BOUND('',#888,.T.);
#888 = EDGE_LOOP('',(#889,#890,#891,#892));
#889 = ORIENTED_EDGE('',*,*,#843,.T.);
#890 = ORIENTED_EDGE('',*,*,#708,.T.);
#891 = ORIENTED_EDGE('',*,*,#767,.F.);
#892 = ORIENTED_EDGE('',*,*,#893,.F.);
#893 = EDGE_CURVE('',#844,#740,#894,.T.);
#894 = SURFACE_CURVE('',#895,(#899,#906),.PCURVE_S1.);
#895 = LINE('',#896,#897);
#896 = CARTESIAN_POINT('',(10.2,3.7,-19.7));
#897 = VECTOR('',#898,1.);
#898 = DIRECTION('',(1.,-5.6E-16,2.8E-16));
#899 = PCURVE('',#722,#900);
#900 = DEFINITIONAL_REPRESENTATION('',(#901),#905);
#901 = LINE('',#902,#903);
#902 = CARTESIAN_POINT('',(0.,-0.));
#903 = VECTOR('',#904,1.);
#904 = DIRECTION('',(6.7E-16,-1.));
#905 = ( GEOMETRIC_REPRESENTATION_CONTEXT(2) 
PARAMETRIC_REPRESENTATION_CONTEXT() REPRESENTATION_CONTEXT('2D SPACE',''
  ) );
#906 = PCURVE('',#755,#907);
#907 = DEFINITIONAL_REPRESENTATION('',(#908),#912);
#908 = LINE('',#909,#910);
#909 = CARTESIAN_POINT('',(4.6,-4.094E-15));
#910 = VECTOR('',#911,1.);
#911 = DIRECTION('',(-6.1E-16,-1.));
#912 = ( GEOMETRIC_REPRESENTATION_CONTEXT(2) 
PARAMETRIC_REPRESENTATION_CONTEXT() REPRESENTATION_CONTEXT('2D SPACE',''
  ) );
#913 = ADVANCED_FACE('',(#914),#673,.F.);
#914 = FACE_BOUND('',#915,.T.);
#915 = EDGE_LOOP('',(#916,#917,#938,#939));
#916 = ORIENTED_EDGE('',*,*,#819,.T.);
#917 = ORIENTED_EDGE('',*,*,#918,.T.);
#918 = EDGE_CURVE('',#820,#738,#919,.T.);
#919 = SURFACE_CURVE('',#920,(#924,#931),.PCURVE_S1.);
#920 = LINE('',#921,#922);
#921 = CARTESIAN_POINT('',(10.2,3.7,-24.3));
#922 = VECTOR('',#923,1.);
#923 = DIRECTION('',(1.,-5.6E-16,2.8E-16));
#924 = PCURVE('',#673,#925);
#925 = DEFINITIONAL_REPRESENTATION('',(#926),#930);
#926 = LINE('',#927,#928);
#927 = CARTESIAN_POINT('',(7.4,-8.14E-16));
#928 = VECTOR('',#929,1.);
#929 = DIRECTION('',(-6.7E-16,-1.));
#930 = ( GEOMETRIC_REPRESENTATION_CONTEXT(2) 
PARAMETRIC_REPRESENTATION_CONTEXT() REPRESENTATION_CONTEXT('2D SPACE',''
  ) );
#931 = PCURVE('',#755,#932);
#932 = DEFINITIONAL_REPRESENTATION('',(#933),#937);
#933 = LINE('',#934,#935);
#934 = CARTESIAN_POINT('',(0.,-0.));
#935 = VECTOR('',#936,1.);
#936 = DIRECTION('',(-6.1E-16,-1.));
#937 = ( GEOMETRIC_REPRESENTATION_CONTEXT(2) 
PARAMETRIC_REPRESENTATION_CONTEXT() REPRESENTATION_CONTEXT('2D SPACE',''
  ) );
#938 = ORIENTED_EDGE('',*,*,#789,.F.);
#939 = ORIENTED_EDGE('',*,*,#657,.F.);
#940 = ADVANCED_FACE('',(#941),#755,.F.);
#941 = FACE_BOUND('',#942,.T.);
#942 = EDGE_LOOP('',(#943,#944,#945,#946));
#943 = ORIENTED_EDGE('',*,*,#866,.T.);
#944 = ORIENTED_EDGE('',*,*,#893,.T.);
#945 = ORIENTED_EDGE('',*,*,#737,.F.);
#946 = ORIENTED_EDGE('',*,*,#918,.F.);
#947 = ( GEOMETRIC_REPRESENTATION_CONTEXT(3) 
GLOBAL_UNCERTAINTY_ASSIGNED_CONTEXT((#951)) GLOBAL_UNIT_ASSIGNED_CONTEXT
((#948,#949,#950)) REPRESENTATION_CONTEXT('Context #1',
  '3D Context with UNIT and UNCERTAINTY') );
#948 = ( LENGTH_UNIT() NAMED_UNIT(*) SI_UNIT(.MILLI.,.METRE.) );
#949 = ( NAMED_UNIT(*) PLANE_ANGLE_UNIT() SI_UNIT($,.RADIAN.) );
#950 = ( NAMED_UNIT(*) SI_UNIT($,.STERADIAN.) SOLID_ANGLE_UNIT() );
#951 = UNCERTAINTY_MEASURE_WITH_UNIT(LENGTH_MEASURE(2.E-03),#948,
  'distance_accuracy_value','confusion accuracy');
#952 = PRODUCT_RELATED_PRODUCT_CATEGORY('part',$,(#7));
ENDSEC;
END-ISO-10303-21;
