ISO-10303-21;
HEADER;
FILE_DESCRIPTION(('Open CASCADE Model'),'2;1');
FILE_NAME('Open CASCADE Shape Model','2026-08-13T22:17:09',('Author'),(
    'Open CASCADE'),'Open CASCADE STEP processor 7.9','Open CASCADE 7.9'
  ,'Unknown');
FILE_SCHEMA(('AUTOMOTIVE_DESIGN { 1 0 10303 214 1 1 1 1 }'));
ENDSEC;
DATA;
#1 = APPLICATION_PROTOCOL_DEFINITION('international standard',
  'automotive_design',2000,#2);
#2 = APPLICATION_CONTEXT(
  'core data for automotive mechanical design processes');
#3 = SHAPE_DEFINITION_REPRESENTATION(#4,#10);
#4 = PRODUCT_DEFINITION_SHAPE('','',#5);
#5 = PRODUCT_DEFINITION('design','',#6,#9);
#6 = PRODUCT_DEFINITION_FORMATION('','',#7);
#7 = PRODUCT('Open CASCADE STEP translator 7.9 387',
  'Open CASCADE STEP translator 7.9 387','',(#8));
#8 = PRODUCT_CONTEXT('',#2,'mechanical');
#9 = PRODUCT_DEFINITION_CONTEXT('part definition',#2,'design');
#10 = ADVANCED_BREP_SHAPE_REPRESENTATION('',(#11,#15),#1181);
#11 = AXIS2_PLACEMENT_3D('',#12,#13,#14);
#12 = CARTESIAN_POINT('',(0.,0.,0.));
#13 = DIRECTION('',(0.,0.,1.));
#14 = DIRECTION('',(1.,0.,-0.));
#15 = MANIFOLD_SOLID_BREP('',#16);
#16 = CLOSED_SHELL('',(#17,#137,#321,#479,#637,#769,#846,#895,#945,#994,
    #1044,#1093,#1143,#1170));
#17 = ADVANCED_FACE('',(#18),#32,.F.);
#18 = FACE_BOUND('',#19,.T.);
#19 = EDGE_LOOP('',(#20,#55,#83,#111));
#20 = ORIENTED_EDGE('',*,*,#21,.T.);
#21 = EDGE_CURVE('',#22,#24,#26,.T.);
#22 = VERTEX_POINT('',#23);
#23 = CARTESIAN_POINT('',(12.8,2.,-14.68));
#24 = VERTEX_POINT('',#25);
#25 = CARTESIAN_POINT('',(12.8,2.,-14.78));
#26 = SURFACE_CURVE('',#27,(#31,#43),.PCURVE_S1.);
#27 = LINE('',#28,#29);
#28 = CARTESIAN_POINT('',(12.8,2.,-7.401486830835E-14));
#29 = VECTOR('',#30,1.);
#30 = DIRECTION('',(-5.782411586589E-15,0.,-1.));
#31 = PCURVE('',#32,#37);
#32 = PLANE('',#33);
#33 = AXIS2_PLACEMENT_3D('',#34,#35,#36);
#34 = CARTESIAN_POINT('',(0.,2.,0.));
#35 = DIRECTION('',(0.,-1.,0.));
#36 = DIRECTION('',(0.,0.,-1.));
#37 = DEFINITIONAL_REPRESENTATION('',(#38),#42);
#38 = LINE('',#39,#40);
#39 = CARTESIAN_POINT('',(7.401486830835E-14,12.8));
#40 = VECTOR('',#41,1.);
#41 = DIRECTION('',(1.,-5.782411586589E-15));
#42 = ( GEOMETRIC_REPRESENTATION_CONTEXT(2) 
PARAMETRIC_REPRESENTATION_CONTEXT() REPRESENTATION_CONTEXT('2D SPACE',''
  ) );
#43 = PCURVE('',#44,#49);
#44 = CYLINDRICAL_SURFACE('',#45,0.2);
#45 = AXIS2_PLACEMENT_3D('',#46,#47,#48);
#46 = CARTESIAN_POINT('',(12.8,1.8,-7.401486830835E-14));
#47 = DIRECTION('',(-5.782411586589E-15,0.,-1.));
#48 = DIRECTION('',(-1.,0.,5.782411586589E-15));
#49 = DEFINITIONAL_REPRESENTATION('',(#50),#54);
#50 = LINE('',#51,#52);
#51 = CARTESIAN_POINT('',(1.570796326795,0.));
#52 = VECTOR('',#53,1.);
#53 = DIRECTION('',(0.,1.));
#54 = ( GEOMETRIC_REPRESENTATION_CONTEXT(2) 
PARAMETRIC_REPRESENTATION_CONTEXT() REPRESENTATION_CONTEXT('2D SPACE',''
  ) );
#55 = ORIENTED_EDGE('',*,*,#56,.T.);
#56 = EDGE_CURVE('',#24,#57,#59,.T.);
#57 = VERTEX_POINT('',#58);
#58 = CARTESIAN_POINT('',(12.7,2.,-14.78));
#59 = SURFACE_CURVE('',#60,(#64,#71),.PCURVE_S1.);
#60 = LINE('',#61,#62);
#61 = CARTESIAN_POINT('',(0.,2.,-14.78));
#62 = VECTOR('',#63,1.);
#63 = DIRECTION('',(-1.,0.,0.));
#64 = PCURVE('',#32,#65);
#65 = DEFINITIONAL_REPRESENTATION('',(#66),#70);
#66 = LINE('',#67,#68);
#67 = CARTESIAN_POINT('',(14.78,0.));
#68 = VECTOR('',#69,1.);
#69 = DIRECTION('',(0.,-1.));
#70 = ( GEOMETRIC_REPRESENTATION_CONTEXT(2) 
PARAMETRIC_REPRESENTATION_CONTEXT() REPRESENTATION_CONTEXT('2D SPACE',''
  ) );
#71 = PCURVE('',#72,#77);
#72 = CYLINDRICAL_SURFACE('',#73,0.2);
#73 = AXIS2_PLACEMENT_3D('',#74,#75,#76);
#74 = CARTESIAN_POINT('',(0.,1.8,-14.78));
#75 = DIRECTION('',(-1.,0.,0.));
#76 = DIRECTION('',(0.,0.,1.));
#77 = DEFINITIONAL_REPRESENTATION('',(#78),#82);
#78 = LINE('',#79,#80);
#79 = CARTESIAN_POINT('',(1.570796326795,0.));
#80 = VECTOR('',#81,1.);
#81 = DIRECTION('',(0.,1.));
#82 = ( GEOMETRIC_REPRESENTATION_CONTEXT(2) 
PARAMETRIC_REPRESENTATION_CONTEXT() REPRESENTATION_CONTEXT('2D SPACE',''
  ) );
#83 = ORIENTED_EDGE('',*,*,#84,.T.);
#84 = EDGE_CURVE('',#57,#85,#87,.T.);
#85 = VERTEX_POINT('',#86);
#86 = CARTESIAN_POINT('',(12.7,2.,-14.68));
#87 = SURFACE_CURVE('',#88,(#92,#99),.PCURVE_S1.);
#88 = LINE('',#89,#90);
#89 = CARTESIAN_POINT('',(12.699999999998,2.,1.615605797293E-12));
#90 = VECTOR('',#91,1.);
#91 = DIRECTION('',(-1.27213054905E-13,0.,1.));
#92 = PCURVE('',#32,#93);
#93 = DEFINITIONAL_REPRESENTATION('',(#94),#98);
#94 = LINE('',#95,#96);
#95 = CARTESIAN_POINT('',(-1.615605797293E-12,12.699999999998));
#96 = VECTOR('',#97,1.);
#97 = DIRECTION('',(-1.,-1.27213054905E-13));
#98 = ( GEOMETRIC_REPRESENTATION_CONTEXT(2) 
PARAMETRIC_REPRESENTATION_CONTEXT() REPRESENTATION_CONTEXT('2D SPACE',''
  ) );
#99 = PCURVE('',#100,#105);
#100 = CYLINDRICAL_SURFACE('',#101,0.2);
#101 = AXIS2_PLACEMENT_3D('',#102,#103,#104);
#102 = CARTESIAN_POINT('',(12.699999999998,1.8,1.615605797293E-12));
#103 = DIRECTION('',(-1.27213054905E-13,0.,1.));
#104 = DIRECTION('',(1.,0.,1.27213054905E-13));
#105 = DEFINITIONAL_REPRESENTATION('',(#106),#110);
#106 = LINE('',#107,#108);
#107 = CARTESIAN_POINT('',(1.570796326795,0.));
#108 = VECTOR('',#109,1.);
#109 = DIRECTION('',(0.,1.));
#110 = ( GEOMETRIC_REPRESENTATION_CONTEXT(2) 
PARAMETRIC_REPRESENTATION_CONTEXT() REPRESENTATION_CONTEXT('2D SPACE',''
  ) );
#111 = ORIENTED_EDGE('',*,*,#112,.T.);
#112 = EDGE_CURVE('',#85,#22,#113,.T.);
#113 = SURFACE_CURVE('',#114,(#118,#125),.PCURVE_S1.);
#114 = LINE('',#115,#116);
#115 = CARTESIAN_POINT('',(-1.52794443764E-12,2.,-14.67999999999));
#116 = VECTOR('',#117,1.);
#117 = DIRECTION('',(1.,0.,-1.040834085586E-13));
#118 = PCURVE('',#32,#119);
#119 = DEFINITIONAL_REPRESENTATION('',(#120),#124);
#120 = LINE('',#121,#122);
#121 = CARTESIAN_POINT('',(14.679999999999,-1.52794443764E-12));
#122 = VECTOR('',#123,1.);
#123 = DIRECTION('',(1.040834085586E-13,1.));
#124 = ( GEOMETRIC_REPRESENTATION_CONTEXT(2) 
PARAMETRIC_REPRESENTATION_CONTEXT() REPRESENTATION_CONTEXT('2D SPACE',''
  ) );
#125 = PCURVE('',#126,#131);
#126 = CYLINDRICAL_SURFACE('',#127,0.2);
#127 = AXIS2_PLACEMENT_3D('',#128,#129,#130);
#128 = CARTESIAN_POINT('',(-1.52794443764E-12,1.8,-14.67999999999));
#129 = DIRECTION('',(1.,0.,-1.040834085586E-13));
#130 = DIRECTION('',(-1.040834085586E-13,0.,-1.));
#131 = DEFINITIONAL_REPRESENTATION('',(#132),#136);
#132 = LINE('',#133,#134);
#133 = CARTESIAN_POINT('',(1.570796326795,0.));
#134 = VECTOR('',#135,1.);
#135 = DIRECTION('',(0.,1.));
#136 = ( GEOMETRIC_REPRESENTATION_CONTEXT(2) 
PARAMETRIC_REPRESENTATION_CONTEXT() REPRESENTATION_CONTEXT('2D SPACE',''
  ) );
#137 = ADVANCED_FACE('',(#138),#126,.T.);
#138 = FACE_BOUND('',#139,.T.);
#139 = EDGE_LOOP('',(#140,#170,#225,#245,#246,#268));
#140 = ORIENTED_EDGE('',*,*,#141,.F.);
#141 = EDGE_CURVE('',#142,#144,#146,.T.);
#142 = VERTEX_POINT('',#143);
#143 = CARTESIAN_POINT('',(12.9,1.8,-14.48));
#144 = VERTEX_POINT('',#145);
#145 = CARTESIAN_POINT('',(12.6,1.8,-14.48));
#146 = SURFACE_CURVE('',#147,(#151,#158),.PCURVE_S1.);
#147 = LINE('',#148,#149);
#148 = CARTESIAN_POINT('',(12.6,1.8,-14.48));
#149 = VECTOR('',#150,1.);
#150 = DIRECTION('',(-1.,0.,1.040834085586E-13));
#151 = PCURVE('',#126,#152);
#152 = DEFINITIONAL_REPRESENTATION('',(#153),#157);
#153 = LINE('',#154,#155);
#154 = CARTESIAN_POINT('',(3.14159265359,12.600000000002));
#155 = VECTOR('',#156,1.);
#156 = DIRECTION('',(0.,-1.));
#157 = ( GEOMETRIC_REPRESENTATION_CONTEXT(2) 
PARAMETRIC_REPRESENTATION_CONTEXT() REPRESENTATION_CONTEXT('2D SPACE',''
  ) );
#158 = PCURVE('',#159,#164);
#159 = PLANE('',#160);
#160 = AXIS2_PLACEMENT_3D('',#161,#162,#163);
#161 = CARTESIAN_POINT('',(12.6,2.,-14.48));
#162 = DIRECTION('',(-1.040834085586E-13,0.,-1.));
#163 = DIRECTION('',(-1.,0.,1.040834085586E-13));
#164 = DEFINITIONAL_REPRESENTATION('',(#165),#169);
#165 = LINE('',#166,#167);
#166 = CARTESIAN_POINT('',(0.,-0.2));
#167 = VECTOR('',#168,1.);
#168 = DIRECTION('',(1.,0.));
#169 = ( GEOMETRIC_REPRESENTATION_CONTEXT(2) 
PARAMETRIC_REPRESENTATION_CONTEXT() REPRESENTATION_CONTEXT('2D SPACE',''
  ) );
#170 = ORIENTED_EDGE('',*,*,#171,.F.);
#171 = EDGE_CURVE('',#172,#142,#174,.T.);
#172 = VERTEX_POINT('',#173);
#173 = CARTESIAN_POINT('',(12.95,1.932287565553,-14.53));
#174 = SURFACE_CURVE('',#175,(#180,#209),.PCURVE_S1.);
#175 = ELLIPSE('',#176,0.282842712474,0.2);
#176 = AXIS2_PLACEMENT_3D('',#177,#178,#179);
#177 = CARTESIAN_POINT('',(13.1,1.8,-14.68));
#178 = DIRECTION('',(0.707106781187,-3.185341506925E-14,0.707106781187)
  );
#179 = DIRECTION('',(0.707106781187,1.86328496627E-12,-0.707106781187));
#180 = PCURVE('',#126,#181);
#181 = DEFINITIONAL_REPRESENTATION('',(#182),#208);
#182 = B_SPLINE_CURVE_WITH_KNOTS('',3,(#183,#184,#185,#186,#187,#188,
    #189,#190,#191,#192,#193,#194,#195,#196,#197,#198,#199,#200,#201,
    #202,#203,#204,#205,#206,#207),.UNSPECIFIED.,.F.,.F.,(4,1,1,1,1,1,1,
    1,1,1,1,1,1,1,1,1,1,1,1,1,1,1,4),(2.418858405775,2.451709962494,
    2.484561519213,2.517413075931,2.55026463265,2.583116189369,
    2.615967746088,2.648819302807,2.681670859526,2.714522416245,
    2.747373972963,2.780225529682,2.813077086401,2.84592864312,
    2.878780199839,2.911631756558,2.944483313277,2.977334869995,
    3.010186426714,3.043037983433,3.075889540152,3.108741096871,
    3.14159265359),.QUASI_UNIFORM_KNOTS.);
#183 = CARTESIAN_POINT('',(2.418858405776,12.950000000002));
#184 = CARTESIAN_POINT('',(2.429808924683,12.948551367462));
#185 = CARTESIAN_POINT('',(2.451709962495,12.945708120649));
#186 = CARTESIAN_POINT('',(2.484561519214,12.941609709141));
#187 = CARTESIAN_POINT('',(2.517413075933,12.937682232223));
#188 = CARTESIAN_POINT('',(2.550264632652,12.933929913897));
#189 = CARTESIAN_POINT('',(2.583116189371,12.930356807211));
#190 = CARTESIAN_POINT('',(2.61596774609,12.926966766982));
#191 = CARTESIAN_POINT('',(2.648819302808,12.923763451769));
#192 = CARTESIAN_POINT('',(2.681670859527,12.920750318285));
#193 = CARTESIAN_POINT('',(2.714522416246,12.917930618106));
#194 = CARTESIAN_POINT('',(2.747373972965,12.915307394043));
#195 = CARTESIAN_POINT('',(2.780225529684,12.912883476892));
#196 = CARTESIAN_POINT('',(2.813077086403,12.910661482367));
#197 = CARTESIAN_POINT('',(2.845928643121,12.908643808287));
#198 = CARTESIAN_POINT('',(2.87878019984,12.906832631976));
#199 = CARTESIAN_POINT('',(2.911631756559,12.905229907932));
#200 = CARTESIAN_POINT('',(2.944483313278,12.903837365674));
#201 = CARTESIAN_POINT('',(2.977334869997,12.902656508027));
#202 = CARTESIAN_POINT('',(3.010186426716,12.901688608935));
#203 = CARTESIAN_POINT('',(3.043037983434,12.900934714202));
#204 = CARTESIAN_POINT('',(3.075889540153,12.90039563246));
#205 = CARTESIAN_POINT('',(3.108741096872,12.900071963792));
#206 = CARTESIAN_POINT('',(3.130642134685,12.899999980607));
#207 = CARTESIAN_POINT('',(3.141592653591,12.900000000002));
#208 = ( GEOMETRIC_REPRESENTATION_CONTEXT(2) 
PARAMETRIC_REPRESENTATION_CONTEXT() REPRESENTATION_CONTEXT('2D SPACE',''
  ) );
#209 = PCURVE('',#210,#215);
#210 = PLANE('',#211);
#211 = AXIS2_PLACEMENT_3D('',#212,#213,#214);
#212 = CARTESIAN_POINT('',(12.9,2.,-14.48));
#213 = DIRECTION('',(-0.707106781187,0.,-0.707106781187));
#214 = DIRECTION('',(-0.707106781187,0.,0.707106781187));
#215 = DEFINITIONAL_REPRESENTATION('',(#216),#224);
#216 = ( BOUNDED_CURVE() B_SPLINE_CURVE(2,(#217,#218,#219,#220,#221,#222
,#223),.UNSPECIFIED.,.T.,.F.) B_SPLINE_CURVE_WITH_KNOTS((1,2,2,2,2,1),(
    -2.094395102393,0.,2.094395102393,4.188790204786,6.28318530718,
8.377580409573),.UNSPECIFIED.) CURVE() GEOMETRIC_REPRESENTATION_ITEM() 
RATIONAL_B_SPLINE_CURVE((1.,0.5,1.,0.5,1.,0.5,1.)) REPRESENTATION_ITEM(
  '') );
#217 = CARTESIAN_POINT('',(-0.565685424949,-0.199999999999));
#218 = CARTESIAN_POINT('',(-0.565685424948,0.146410161514));
#219 = CARTESIAN_POINT('',(-0.141421356237,-2.679491924328E-02));
#220 = CARTESIAN_POINT('',(0.282842712474,-0.200000000001));
#221 = CARTESIAN_POINT('',(-0.141421356238,-0.373205080757));
#222 = CARTESIAN_POINT('',(-0.565685424949,-0.546410161513));
#223 = CARTESIAN_POINT('',(-0.565685424949,-0.199999999999));
#224 = ( GEOMETRIC_REPRESENTATION_CONTEXT(2) 
PARAMETRIC_REPRESENTATION_CONTEXT() REPRESENTATION_CONTEXT('2D SPACE',''
  ) );
#225 = ORIENTED_EDGE('',*,*,#226,.F.);
#226 = EDGE_CURVE('',#22,#172,#227,.T.);
#227 = SURFACE_CURVE('',#228,(#233,#239),.PCURVE_S1.);
#228 = ELLIPSE('',#229,0.282842712475,0.2);
#229 = AXIS2_PLACEMENT_3D('',#230,#231,#232);
#230 = CARTESIAN_POINT('',(12.8,1.8,-14.68));
#231 = DIRECTION('',(0.707106781187,6.746528086173E-14,-0.707106781187)
  );
#232 = DIRECTION('',(0.707106781187,1.020113681087E-12,0.707106781187));
#233 = PCURVE('',#126,#234);
#234 = DEFINITIONAL_REPRESENTATION('',(#235),#238);
#235 = B_SPLINE_CURVE_WITH_KNOTS('',1,(#236,#237),.UNSPECIFIED.,.F.,.F.,
  (2,2),(4.712388980385,5.560451059367),.PIECEWISE_BEZIER_KNOTS.);
#236 = CARTESIAN_POINT('',(1.570796326793,12.800000000001));
#237 = CARTESIAN_POINT('',(2.418858405776,12.950000000002));
#238 = ( GEOMETRIC_REPRESENTATION_CONTEXT(2) 
PARAMETRIC_REPRESENTATION_CONTEXT() REPRESENTATION_CONTEXT('2D SPACE',''
  ) );
#239 = PCURVE('',#44,#240);
#240 = DEFINITIONAL_REPRESENTATION('',(#241),#244);
#241 = B_SPLINE_CURVE_WITH_KNOTS('',1,(#242,#243),.UNSPECIFIED.,.F.,.F.,
  (2,2),(4.712388980385,5.560451059367),.PIECEWISE_BEZIER_KNOTS.);
#242 = CARTESIAN_POINT('',(1.570796326794,14.68));
#243 = CARTESIAN_POINT('',(2.418858405776,14.53));
#244 = ( GEOMETRIC_REPRESENTATION_CONTEXT(2) 
PARAMETRIC_REPRESENTATION_CONTEXT() REPRESENTATION_CONTEXT('2D SPACE',''
  ) );
#245 = ORIENTED_EDGE('',*,*,#112,.F.);
#246 = ORIENTED_EDGE('',*,*,#247,.F.);
#247 = EDGE_CURVE('',#248,#85,#250,.T.);
#248 = VERTEX_POINT('',#249);
#249 = CARTESIAN_POINT('',(12.55,1.932287565553,-14.53));
#250 = SURFACE_CURVE('',#251,(#256,#262),.PCURVE_S1.);
#251 = ELLIPSE('',#252,0.282842712474,0.2);
#252 = AXIS2_PLACEMENT_3D('',#253,#254,#255);
#253 = CARTESIAN_POINT('',(12.7,1.8,-14.68));
#254 = DIRECTION('',(-0.707106781187,-2.061439137442E-14,-0.707106781187
    ));
#255 = DIRECTION('',(0.707106781187,1.136422909637E-12,-0.707106781187)
  );
#256 = PCURVE('',#126,#257);
#257 = DEFINITIONAL_REPRESENTATION('',(#258),#261);
#258 = B_SPLINE_CURVE_WITH_KNOTS('',1,(#259,#260),.UNSPECIFIED.,.F.,.F.,
  (2,2),(3.864326901404,4.712388980385),.PIECEWISE_BEZIER_KNOTS.);
#259 = CARTESIAN_POINT('',(2.418858405776,12.550000000002));
#260 = CARTESIAN_POINT('',(1.570796326797,12.700000000001));
#261 = ( GEOMETRIC_REPRESENTATION_CONTEXT(2) 
PARAMETRIC_REPRESENTATION_CONTEXT() REPRESENTATION_CONTEXT('2D SPACE',''
  ) );
#262 = PCURVE('',#100,#263);
#263 = DEFINITIONAL_REPRESENTATION('',(#264),#267);
#264 = B_SPLINE_CURVE_WITH_KNOTS('',1,(#265,#266),.UNSPECIFIED.,.F.,.F.,
  (2,2),(3.864326901404,4.712388980385),.PIECEWISE_BEZIER_KNOTS.);
#265 = CARTESIAN_POINT('',(2.418858405776,-14.53));
#266 = CARTESIAN_POINT('',(1.570796326797,-14.68));
#267 = ( GEOMETRIC_REPRESENTATION_CONTEXT(2) 
PARAMETRIC_REPRESENTATION_CONTEXT() REPRESENTATION_CONTEXT('2D SPACE',''
  ) );
#268 = ORIENTED_EDGE('',*,*,#269,.F.);
#269 = EDGE_CURVE('',#144,#248,#270,.T.);
#270 = SURFACE_CURVE('',#271,(#276,#305),.PCURVE_S1.);
#271 = ELLIPSE('',#272,0.282842712471,0.199999999999);
#272 = AXIS2_PLACEMENT_3D('',#273,#274,#275);
#273 = CARTESIAN_POINT('',(12.400000000002,1.800000000001,
    -14.67999999999));
#274 = DIRECTION('',(-0.707106781187,-9.707107912408E-14,0.707106781186)
  );
#275 = DIRECTION('',(0.707106781186,-5.651765927169E-12,0.707106781187)
  );
#276 = PCURVE('',#126,#277);
#277 = DEFINITIONAL_REPRESENTATION('',(#278),#304);
#278 = B_SPLINE_CURVE_WITH_KNOTS('',3,(#279,#280,#281,#282,#283,#284,
    #285,#286,#287,#288,#289,#290,#291,#292,#293,#294,#295,#296,#297,
    #298,#299,#300,#301,#302,#303),.UNSPECIFIED.,.F.,.F.,(4,1,1,1,1,1,1,
    1,1,1,1,1,1,1,1,1,1,1,1,1,1,1,4),(0.,3.285155671917E-02,
    6.570311343834E-02,9.855467015751E-02,0.131406226877,0.164257783596,
    0.197109340315,0.229960897034,0.262812453753,0.295664010473,
    0.328515567192,0.361367123911,0.39421868063,0.427070237349,
    0.459921794068,0.492773350788,0.525624907507,0.558476464226,
    0.591328020945,0.624179577664,0.657031134383,0.689882691103,
    0.722734247822),.QUASI_UNIFORM_KNOTS.);
#279 = CARTESIAN_POINT('',(3.141592653594,12.600000000002));
#280 = CARTESIAN_POINT('',(3.130642134687,12.600000019396));
#281 = CARTESIAN_POINT('',(3.108741096875,12.599928036211));
#282 = CARTESIAN_POINT('',(3.075889540156,12.599604367544));
#283 = CARTESIAN_POINT('',(3.043037983437,12.599065285802));
#284 = CARTESIAN_POINT('',(3.010186426718,12.598311391068));
#285 = CARTESIAN_POINT('',(2.977334869999,12.597343491976));
#286 = CARTESIAN_POINT('',(2.94448331328,12.596162634329));
#287 = CARTESIAN_POINT('',(2.911631756561,12.594770092071));
#288 = CARTESIAN_POINT('',(2.878780199842,12.593167368027));
#289 = CARTESIAN_POINT('',(2.845928643123,12.591356191716));
#290 = CARTESIAN_POINT('',(2.813077086404,12.589338517636));
#291 = CARTESIAN_POINT('',(2.780225529685,12.587116523112));
#292 = CARTESIAN_POINT('',(2.747373972966,12.58469260596));
#293 = CARTESIAN_POINT('',(2.714522416247,12.582069381897));
#294 = CARTESIAN_POINT('',(2.681670859528,12.579249681718));
#295 = CARTESIAN_POINT('',(2.648819302809,12.576236548235));
#296 = CARTESIAN_POINT('',(2.61596774609,12.573033233021));
#297 = CARTESIAN_POINT('',(2.583116189371,12.569643192792));
#298 = CARTESIAN_POINT('',(2.550264632652,12.566070086106));
#299 = CARTESIAN_POINT('',(2.517413075933,12.56231776778));
#300 = CARTESIAN_POINT('',(2.484561519214,12.558390290862));
#301 = CARTESIAN_POINT('',(2.451709962495,12.554291879354));
#302 = CARTESIAN_POINT('',(2.429808924683,12.551448632541));
#303 = CARTESIAN_POINT('',(2.418858405777,12.550000000002));
#304 = ( GEOMETRIC_REPRESENTATION_CONTEXT(2) 
PARAMETRIC_REPRESENTATION_CONTEXT() REPRESENTATION_CONTEXT('2D SPACE',''
  ) );
#305 = PCURVE('',#306,#311);
#306 = PLANE('',#307);
#307 = AXIS2_PLACEMENT_3D('',#308,#309,#310);
#308 = CARTESIAN_POINT('',(12.5,2.,-14.58));
#309 = DIRECTION('',(0.707106781187,0.,-0.707106781187));
#310 = DIRECTION('',(-0.707106781187,0.,-0.707106781187));
#311 = DEFINITIONAL_REPRESENTATION('',(#312),#320);
#312 = ( BOUNDED_CURVE() B_SPLINE_CURVE(2,(#313,#314,#315,#316,#317,#318
,#319),.UNSPECIFIED.,.T.,.F.) B_SPLINE_CURVE_WITH_KNOTS((1,2,2,2,2,1),(
    -2.094395102393,0.,2.094395102393,4.188790204786,6.28318530718,
8.377580409573),.UNSPECIFIED.) CURVE() GEOMETRIC_REPRESENTATION_ITEM() 
RATIONAL_B_SPLINE_CURVE((1.,0.5,1.,0.5,1.,0.5,1.)) REPRESENTATION_ITEM(
  '') );
#313 = CARTESIAN_POINT('',(-0.141421356237,-0.200000000001));
#314 = CARTESIAN_POINT('',(-0.141421356239,0.146410161511));
#315 = CARTESIAN_POINT('',(0.282842712469,-2.679491924263E-02));
#316 = CARTESIAN_POINT('',(0.707106781177,-0.199999999996));
#317 = CARTESIAN_POINT('',(0.282842712471,-0.373205080754));
#318 = CARTESIAN_POINT('',(-0.141421356235,-0.546410161512));
#319 = CARTESIAN_POINT('',(-0.141421356237,-0.200000000001));
#320 = ( GEOMETRIC_REPRESENTATION_CONTEXT(2) 
PARAMETRIC_REPRESENTATION_CONTEXT() REPRESENTATION_CONTEXT('2D SPACE',''
  ) );
#321 = ADVANCED_FACE('',(#322),#44,.T.);
#322 = FACE_BOUND('',#323,.T.);
#323 = EDGE_LOOP('',(#324,#354,#409,#429,#430,#431));
#324 = ORIENTED_EDGE('',*,*,#325,.F.);
#325 = EDGE_CURVE('',#326,#328,#330,.T.);
#326 = VERTEX_POINT('',#327);
#327 = CARTESIAN_POINT('',(13.,1.8,-14.88));
#328 = VERTEX_POINT('',#329);
#329 = CARTESIAN_POINT('',(13.,1.8,-14.58));
#330 = SURFACE_CURVE('',#331,(#335,#342),.PCURVE_S1.);
#331 = LINE('',#332,#333);
#332 = CARTESIAN_POINT('',(13.,1.8,-14.58));
#333 = VECTOR('',#334,1.);
#334 = DIRECTION('',(5.782411586589E-15,0.,1.));
#335 = PCURVE('',#44,#336);
#336 = DEFINITIONAL_REPRESENTATION('',(#337),#341);
#337 = LINE('',#338,#339);
#338 = CARTESIAN_POINT('',(3.14159265359,14.58));
#339 = VECTOR('',#340,1.);
#340 = DIRECTION('',(0.,-1.));
#341 = ( GEOMETRIC_REPRESENTATION_CONTEXT(2) 
PARAMETRIC_REPRESENTATION_CONTEXT() REPRESENTATION_CONTEXT('2D SPACE',''
  ) );
#342 = PCURVE('',#343,#348);
#343 = PLANE('',#344);
#344 = AXIS2_PLACEMENT_3D('',#345,#346,#347);
#345 = CARTESIAN_POINT('',(13.,2.,-14.58));
#346 = DIRECTION('',(-1.,0.,5.782411586589E-15));
#347 = DIRECTION('',(5.782411586589E-15,0.,1.));
#348 = DEFINITIONAL_REPRESENTATION('',(#349),#353);
#349 = LINE('',#350,#351);
#350 = CARTESIAN_POINT('',(0.,-0.2));
#351 = VECTOR('',#352,1.);
#352 = DIRECTION('',(1.,0.));
#353 = ( GEOMETRIC_REPRESENTATION_CONTEXT(2) 
PARAMETRIC_REPRESENTATION_CONTEXT() REPRESENTATION_CONTEXT('2D SPACE',''
  ) );
#354 = ORIENTED_EDGE('',*,*,#355,.F.);
#355 = EDGE_CURVE('',#356,#326,#358,.T.);
#356 = VERTEX_POINT('',#357);
#357 = CARTESIAN_POINT('',(12.95,1.932287565553,-14.93));
#358 = SURFACE_CURVE('',#359,(#364,#393),.PCURVE_S1.);
#359 = ELLIPSE('',#360,0.282842712481,0.200000000003);
#360 = AXIS2_PLACEMENT_3D('',#361,#362,#363);
#361 = CARTESIAN_POINT('',(12.799999999996,1.799999999998,-15.08));
#362 = DIRECTION('',(0.707106781187,5.413821533511E-14,-0.707106781186)
  );
#363 = DIRECTION('',(0.707106781186,1.111066255473E-11,0.707106781187));
#364 = PCURVE('',#44,#365);
#365 = DEFINITIONAL_REPRESENTATION('',(#366),#392);
#366 = B_SPLINE_CURVE_WITH_KNOTS('',3,(#367,#368,#369,#370,#371,#372,
    #373,#374,#375,#376,#377,#378,#379,#380,#381,#382,#383,#384,#385,
    #386,#387,#388,#389,#390,#391),.UNSPECIFIED.,.F.,.F.,(4,1,1,1,1,1,1,
    1,1,1,1,1,1,1,1,1,1,1,1,1,1,1,4),(5.560451059382,5.5933026161,
    5.626154172818,5.659005729536,5.691857286255,5.724708842973,
    5.757560399691,5.790411956409,5.823263513127,5.856115069845,
    5.888966626563,5.921818183281,5.954669739999,5.987521296717,
    6.020372853435,6.053224410153,6.086075966871,6.118927523589,
    6.151779080307,6.184630637025,6.217482193743,6.250333750462,
    6.28318530718),.QUASI_UNIFORM_KNOTS.);
#367 = CARTESIAN_POINT('',(2.418858405776,14.93));
#368 = CARTESIAN_POINT('',(2.429808924683,14.92855136746));
#369 = CARTESIAN_POINT('',(2.451709962495,14.925708120647));
#370 = CARTESIAN_POINT('',(2.484561519213,14.92160970914));
#371 = CARTESIAN_POINT('',(2.517413075932,14.917682232221));
#372 = CARTESIAN_POINT('',(2.55026463265,14.913929913895));
#373 = CARTESIAN_POINT('',(2.583116189369,14.91035680721));
#374 = CARTESIAN_POINT('',(2.615967746087,14.90696676698));
#375 = CARTESIAN_POINT('',(2.648819302806,14.903763451767));
#376 = CARTESIAN_POINT('',(2.681670859524,14.900750318283));
#377 = CARTESIAN_POINT('',(2.714522416243,14.897930618104));
#378 = CARTESIAN_POINT('',(2.747373972961,14.895307394042));
#379 = CARTESIAN_POINT('',(2.780225529679,14.89288347689));
#380 = CARTESIAN_POINT('',(2.813077086398,14.890661482366));
#381 = CARTESIAN_POINT('',(2.845928643116,14.888643808285));
#382 = CARTESIAN_POINT('',(2.878780199835,14.886832631975));
#383 = CARTESIAN_POINT('',(2.911631756553,14.885229907931));
#384 = CARTESIAN_POINT('',(2.944483313272,14.883837365673));
#385 = CARTESIAN_POINT('',(2.97733486999,14.882656508026));
#386 = CARTESIAN_POINT('',(3.010186426708,14.881688608934));
#387 = CARTESIAN_POINT('',(3.043037983427,14.8809347142));
#388 = CARTESIAN_POINT('',(3.075889540145,14.880395632458));
#389 = CARTESIAN_POINT('',(3.108741096864,14.880071963791));
#390 = CARTESIAN_POINT('',(3.130642134676,14.879999980605));
#391 = CARTESIAN_POINT('',(3.141592653582,14.88));
#392 = ( GEOMETRIC_REPRESENTATION_CONTEXT(2) 
PARAMETRIC_REPRESENTATION_CONTEXT() REPRESENTATION_CONTEXT('2D SPACE',''
  ) );
#393 = PCURVE('',#394,#399);
#394 = PLANE('',#395);
#395 = AXIS2_PLACEMENT_3D('',#396,#397,#398);
#396 = CARTESIAN_POINT('',(12.9,2.,-14.98));
#397 = DIRECTION('',(-0.707106781187,0.,0.707106781187));
#398 = DIRECTION('',(0.707106781187,0.,0.707106781187));
#399 = DEFINITIONAL_REPRESENTATION('',(#400),#408);
#400 = ( BOUNDED_CURVE() B_SPLINE_CURVE(2,(#401,#402,#403,#404,#405,#406
,#407),.UNSPECIFIED.,.T.,.F.) B_SPLINE_CURVE_WITH_KNOTS((1,2,2,2,2,1),(
    -2.094395102393,0.,2.094395102393,4.188790204786,6.28318530718,
8.377580409573),.UNSPECIFIED.) CURVE() GEOMETRIC_REPRESENTATION_ITEM() 
RATIONAL_B_SPLINE_CURVE((1.,0.5,1.,0.5,1.,0.5,1.)) REPRESENTATION_ITEM(
  '') );
#401 = CARTESIAN_POINT('',(0.141421356237,-0.199999999998));
#402 = CARTESIAN_POINT('',(0.141421356241,-0.546410161517));
#403 = CARTESIAN_POINT('',(-0.282842712482,-0.373205080762));
#404 = CARTESIAN_POINT('',(-0.707106781205,-0.200000000008));
#405 = CARTESIAN_POINT('',(-0.282842712486,-2.679491924411E-02));
#406 = CARTESIAN_POINT('',(0.141421356233,0.14641016152));
#407 = CARTESIAN_POINT('',(0.141421356237,-0.199999999998));
#408 = ( GEOMETRIC_REPRESENTATION_CONTEXT(2) 
PARAMETRIC_REPRESENTATION_CONTEXT() REPRESENTATION_CONTEXT('2D SPACE',''
  ) );
#409 = ORIENTED_EDGE('',*,*,#410,.F.);
#410 = EDGE_CURVE('',#24,#356,#411,.T.);
#411 = SURFACE_CURVE('',#412,(#417,#423),.PCURVE_S1.);
#412 = ELLIPSE('',#413,0.282842712474,0.2);
#413 = AXIS2_PLACEMENT_3D('',#414,#415,#416);
#414 = CARTESIAN_POINT('',(12.8,1.8,-14.78));
#415 = DIRECTION('',(-0.707106781187,-1.175957326131E-13,-0.707106781187
    ));
#416 = DIRECTION('',(0.707106781187,-1.883223823654E-12,-0.707106781187)
  );
#417 = PCURVE('',#44,#418);
#418 = DEFINITIONAL_REPRESENTATION('',(#419),#422);
#419 = B_SPLINE_CURVE_WITH_KNOTS('',1,(#420,#421),.UNSPECIFIED.,.F.,.F.,
  (2,2),(4.712388980385,5.560451059364),.PIECEWISE_BEZIER_KNOTS.);
#420 = CARTESIAN_POINT('',(1.570796326798,14.780000000001));
#421 = CARTESIAN_POINT('',(2.418858405776,14.93));
#422 = ( GEOMETRIC_REPRESENTATION_CONTEXT(2) 
PARAMETRIC_REPRESENTATION_CONTEXT() REPRESENTATION_CONTEXT('2D SPACE',''
  ) );
#423 = PCURVE('',#72,#424);
#424 = DEFINITIONAL_REPRESENTATION('',(#425),#428);
#425 = B_SPLINE_CURVE_WITH_KNOTS('',1,(#426,#427),.UNSPECIFIED.,.F.,.F.,
  (2,2),(4.712388980385,5.560451059364),.PIECEWISE_BEZIER_KNOTS.);
#426 = CARTESIAN_POINT('',(1.570796326798,-12.8));
#427 = CARTESIAN_POINT('',(2.418858405776,-12.95));
#428 = ( GEOMETRIC_REPRESENTATION_CONTEXT(2) 
PARAMETRIC_REPRESENTATION_CONTEXT() REPRESENTATION_CONTEXT('2D SPACE',''
  ) );
#429 = ORIENTED_EDGE('',*,*,#21,.F.);
#430 = ORIENTED_EDGE('',*,*,#226,.T.);
#431 = ORIENTED_EDGE('',*,*,#432,.F.);
#432 = EDGE_CURVE('',#328,#172,#433,.T.);
#433 = SURFACE_CURVE('',#434,(#439,#468),.PCURVE_S1.);
#434 = ELLIPSE('',#435,0.282842712479,0.200000000002);
#435 = AXIS2_PLACEMENT_3D('',#436,#437,#438);
#436 = CARTESIAN_POINT('',(12.799999999997,1.799999999999,
    -14.37999999999));
#437 = DIRECTION('',(0.707106781187,0.,0.707106781187));
#438 = DIRECTION('',(0.707106781187,7.688976582439E-12,-0.707106781187)
  );
#439 = PCURVE('',#44,#440);
#440 = DEFINITIONAL_REPRESENTATION('',(#441),#467);
#441 = B_SPLINE_CURVE_WITH_KNOTS('',3,(#442,#443,#444,#445,#446,#447,
    #448,#449,#450,#451,#452,#453,#454,#455,#456,#457,#458,#459,#460,
    #461,#462,#463,#464,#465,#466),.UNSPECIFIED.,.F.,.F.,(4,1,1,1,1,1,1,
    1,1,1,1,1,1,1,1,1,1,1,1,1,1,1,4),(0.,3.285155671829E-02,
    6.570311343659E-02,9.855467015488E-02,0.131406226873,0.164257783591,
    0.19710934031,0.229960897028,0.262812453746,0.295664010465,
    0.328515567183,0.361367123901,0.39421868062,0.427070237338,
    0.459921794056,0.492773350774,0.525624907493,0.558476464211,
    0.591328020929,0.624179577648,0.657031134366,0.689882691084,
    0.722734247802),.QUASI_UNIFORM_KNOTS.);
#442 = CARTESIAN_POINT('',(3.141592653585,14.58));
#443 = CARTESIAN_POINT('',(3.130642134678,14.580000019395));
#444 = CARTESIAN_POINT('',(3.108741096866,14.579928036209));
#445 = CARTESIAN_POINT('',(3.075889540147,14.579604367542));
#446 = CARTESIAN_POINT('',(3.043037983429,14.5790652858));
#447 = CARTESIAN_POINT('',(3.01018642671,14.578311391066));
#448 = CARTESIAN_POINT('',(2.977334869992,14.577343491974));
#449 = CARTESIAN_POINT('',(2.944483313273,14.576162634327));
#450 = CARTESIAN_POINT('',(2.911631756555,14.574770092069));
#451 = CARTESIAN_POINT('',(2.878780199836,14.573167368025));
#452 = CARTESIAN_POINT('',(2.845928643117,14.571356191715));
#453 = CARTESIAN_POINT('',(2.813077086399,14.569338517634));
#454 = CARTESIAN_POINT('',(2.78022552968,14.56711652311));
#455 = CARTESIAN_POINT('',(2.747373972962,14.564692605958));
#456 = CARTESIAN_POINT('',(2.714522416243,14.562069381896));
#457 = CARTESIAN_POINT('',(2.681670859525,14.559249681717));
#458 = CARTESIAN_POINT('',(2.648819302806,14.556236548233));
#459 = CARTESIAN_POINT('',(2.615967746088,14.55303323302));
#460 = CARTESIAN_POINT('',(2.583116189369,14.54964319279));
#461 = CARTESIAN_POINT('',(2.55026463265,14.546070086105));
#462 = CARTESIAN_POINT('',(2.517413075932,14.542317767779));
#463 = CARTESIAN_POINT('',(2.484561519213,14.53839029086));
#464 = CARTESIAN_POINT('',(2.451709962495,14.534291879353));
#465 = CARTESIAN_POINT('',(2.429808924682,14.53144863254));
#466 = CARTESIAN_POINT('',(2.418858405776,14.53));
#467 = ( GEOMETRIC_REPRESENTATION_CONTEXT(2) 
PARAMETRIC_REPRESENTATION_CONTEXT() REPRESENTATION_CONTEXT('2D SPACE',''
  ) );
#468 = PCURVE('',#210,#469);
#469 = DEFINITIONAL_REPRESENTATION('',(#470),#478);
#470 = ( BOUNDED_CURVE() B_SPLINE_CURVE(2,(#471,#472,#473,#474,#475,#476
,#477),.UNSPECIFIED.,.T.,.F.) B_SPLINE_CURVE_WITH_KNOTS((1,2,2,2,2,1),(
    -2.094395102393,0.,2.094395102393,4.188790204786,6.28318530718,
8.377580409573),.UNSPECIFIED.) CURVE() GEOMETRIC_REPRESENTATION_ITEM() 
RATIONAL_B_SPLINE_CURVE((1.,0.5,1.,0.5,1.,0.5,1.)) REPRESENTATION_ITEM(
  '') );
#471 = CARTESIAN_POINT('',(-0.141421356237,-0.199999999999));
#472 = CARTESIAN_POINT('',(-0.141421356235,0.146410161518));
#473 = CARTESIAN_POINT('',(0.282842712482,-2.679491924382E-02));
#474 = CARTESIAN_POINT('',(0.707106781199,-0.200000000005));
#475 = CARTESIAN_POINT('',(0.28284271248,-0.373205080761));
#476 = CARTESIAN_POINT('',(-0.14142135624,-0.546410161516));
#477 = CARTESIAN_POINT('',(-0.141421356237,-0.199999999999));
#478 = ( GEOMETRIC_REPRESENTATION_CONTEXT(2) 
PARAMETRIC_REPRESENTATION_CONTEXT() REPRESENTATION_CONTEXT('2D SPACE',''
  ) );
#479 = ADVANCED_FACE('',(#480),#72,.T.);
#480 = FACE_BOUND('',#481,.T.);
#481 = EDGE_LOOP('',(#482,#532,#560,#615,#635,#636));
#482 = ORIENTED_EDGE('',*,*,#483,.F.);
#483 = EDGE_CURVE('',#484,#356,#486,.T.);
#484 = VERTEX_POINT('',#485);
#485 = CARTESIAN_POINT('',(12.9,1.8,-14.98));
#486 = SURFACE_CURVE('',#487,(#492,#521),.PCURVE_S1.);
#487 = ELLIPSE('',#488,0.282842712472,0.199999999999);
#488 = AXIS2_PLACEMENT_3D('',#489,#490,#491);
#489 = CARTESIAN_POINT('',(13.099999999998,1.800000000001,-14.78));
#490 = DIRECTION('',(0.707106781187,-8.596015469778E-14,-0.707106781186)
  );
#491 = DIRECTION('',(0.707106781186,3.890535488133E-12,0.707106781187));
#492 = PCURVE('',#72,#493);
#493 = DEFINITIONAL_REPRESENTATION('',(#494),#520);
#494 = B_SPLINE_CURVE_WITH_KNOTS('',3,(#495,#496,#497,#498,#499,#500,
    #501,#502,#503,#504,#505,#506,#507,#508,#509,#510,#511,#512,#513,
    #514,#515,#516,#517,#518,#519),.UNSPECIFIED.,.F.,.F.,(4,1,1,1,1,1,1,
    1,1,1,1,1,1,1,1,1,1,1,1,1,1,1,4),(3.14159265359,3.174444210309,
    3.207295767028,3.240147323747,3.272998880466,3.305850437185,
    3.338701993904,3.371553550623,3.404405107342,3.437256664061,
    3.47010822078,3.502959777499,3.535811334219,3.568662890938,
    3.601514447657,3.634366004376,3.667217561095,3.700069117814,
    3.732920674533,3.765772231252,3.798623787971,3.83147534469,
    3.864326901409),.QUASI_UNIFORM_KNOTS.);
#495 = CARTESIAN_POINT('',(3.141592653593,-12.9));
#496 = CARTESIAN_POINT('',(3.130642134686,-12.8999999806));
#497 = CARTESIAN_POINT('',(3.108741096874,-12.90007196379));
#498 = CARTESIAN_POINT('',(3.075889540155,-12.90039563245));
#499 = CARTESIAN_POINT('',(3.043037983436,-12.9009347142));
#500 = CARTESIAN_POINT('',(3.010186426717,-12.90168860893));
#501 = CARTESIAN_POINT('',(2.977334869998,-12.90265650802));
#502 = CARTESIAN_POINT('',(2.944483313279,-12.90383736567));
#503 = CARTESIAN_POINT('',(2.91163175656,-12.90522990793));
#504 = CARTESIAN_POINT('',(2.878780199841,-12.90683263197));
#505 = CARTESIAN_POINT('',(2.845928643122,-12.90864380828));
#506 = CARTESIAN_POINT('',(2.813077086403,-12.91066148236));
#507 = CARTESIAN_POINT('',(2.780225529685,-12.91288347689));
#508 = CARTESIAN_POINT('',(2.747373972966,-12.91530739404));
#509 = CARTESIAN_POINT('',(2.714522416247,-12.9179306181));
#510 = CARTESIAN_POINT('',(2.681670859528,-12.92075031828));
#511 = CARTESIAN_POINT('',(2.648819302809,-12.92376345176));
#512 = CARTESIAN_POINT('',(2.61596774609,-12.92696676698));
#513 = CARTESIAN_POINT('',(2.583116189371,-12.93035680721));
#514 = CARTESIAN_POINT('',(2.550264632652,-12.93392991389));
#515 = CARTESIAN_POINT('',(2.517413075933,-12.93768223222));
#516 = CARTESIAN_POINT('',(2.484561519214,-12.94160970914));
#517 = CARTESIAN_POINT('',(2.451709962495,-12.94570812064));
#518 = CARTESIAN_POINT('',(2.429808924683,-12.94855136746));
#519 = CARTESIAN_POINT('',(2.418858405777,-12.95));
#520 = ( GEOMETRIC_REPRESENTATION_CONTEXT(2) 
PARAMETRIC_REPRESENTATION_CONTEXT() REPRESENTATION_CONTEXT('2D SPACE',''
  ) );
#521 = PCURVE('',#394,#522);
#522 = DEFINITIONAL_REPRESENTATION('',(#523),#531);
#523 = ( BOUNDED_CURVE() B_SPLINE_CURVE(2,(#524,#525,#526,#527,#528,#529
,#530),.UNSPECIFIED.,.T.,.F.) B_SPLINE_CURVE_WITH_KNOTS((1,2,2,2,2,1),(
    -2.094395102393,0.,2.094395102393,4.188790204786,6.28318530718,
8.377580409573),.UNSPECIFIED.) CURVE() GEOMETRIC_REPRESENTATION_ITEM() 
RATIONAL_B_SPLINE_CURVE((1.,0.5,1.,0.5,1.,0.5,1.)) REPRESENTATION_ITEM(
  '') );
#524 = CARTESIAN_POINT('',(0.565685424944,-0.199999999998));
#525 = CARTESIAN_POINT('',(0.565685424946,-0.54641016151));
#526 = CARTESIAN_POINT('',(0.141421356237,-0.373205080756));
#527 = CARTESIAN_POINT('',(-0.282842712472,-0.200000000002));
#528 = CARTESIAN_POINT('',(0.141421356235,-2.679491924393E-02));
#529 = CARTESIAN_POINT('',(0.565685424943,0.146410161514));
#530 = CARTESIAN_POINT('',(0.565685424944,-0.199999999998));
#531 = ( GEOMETRIC_REPRESENTATION_CONTEXT(2) 
PARAMETRIC_REPRESENTATION_CONTEXT() REPRESENTATION_CONTEXT('2D SPACE',''
  ) );
#532 = ORIENTED_EDGE('',*,*,#533,.F.);
#533 = EDGE_CURVE('',#534,#484,#536,.T.);
#534 = VERTEX_POINT('',#535);
#535 = CARTESIAN_POINT('',(12.6,1.8,-14.98));
#536 = SURFACE_CURVE('',#537,(#541,#548),.PCURVE_S1.);
#537 = LINE('',#538,#539);
#538 = CARTESIAN_POINT('',(12.6,1.8,-14.98));
#539 = VECTOR('',#540,1.);
#540 = DIRECTION('',(1.,0.,0.));
#541 = PCURVE('',#72,#542);
#542 = DEFINITIONAL_REPRESENTATION('',(#543),#547);
#543 = LINE('',#544,#545);
#544 = CARTESIAN_POINT('',(3.14159265359,-12.6));
#545 = VECTOR('',#546,1.);
#546 = DIRECTION('',(0.,-1.));
#547 = ( GEOMETRIC_REPRESENTATION_CONTEXT(2) 
PARAMETRIC_REPRESENTATION_CONTEXT() REPRESENTATION_CONTEXT('2D SPACE',''
  ) );
#548 = PCURVE('',#549,#554);
#549 = PLANE('',#550);
#550 = AXIS2_PLACEMENT_3D('',#551,#552,#553);
#551 = CARTESIAN_POINT('',(12.6,2.,-14.98));
#552 = DIRECTION('',(0.,0.,1.));
#553 = DIRECTION('',(1.,0.,-0.));
#554 = DEFINITIONAL_REPRESENTATION('',(#555),#559);
#555 = LINE('',#556,#557);
#556 = CARTESIAN_POINT('',(0.,-0.2));
#557 = VECTOR('',#558,1.);
#558 = DIRECTION('',(1.,0.));
#559 = ( GEOMETRIC_REPRESENTATION_CONTEXT(2) 
PARAMETRIC_REPRESENTATION_CONTEXT() REPRESENTATION_CONTEXT('2D SPACE',''
  ) );
#560 = ORIENTED_EDGE('',*,*,#561,.F.);
#561 = EDGE_CURVE('',#562,#534,#564,.T.);
#562 = VERTEX_POINT('',#563);
#563 = CARTESIAN_POINT('',(12.55,1.932287565553,-14.93));
#564 = SURFACE_CURVE('',#565,(#570,#599),.PCURVE_S1.);
#565 = ELLIPSE('',#566,0.282842712471,0.199999999998);
#566 = AXIS2_PLACEMENT_3D('',#567,#568,#569);
#567 = CARTESIAN_POINT('',(12.400000000003,1.800000000001,-14.78));
#568 = DIRECTION('',(-0.707106781187,-9.707107912411E-14,-0.707106781186
    ));
#569 = DIRECTION('',(0.707106781186,-6.180081862428E-12,-0.707106781187)
  );
#570 = PCURVE('',#72,#571);
#571 = DEFINITIONAL_REPRESENTATION('',(#572),#598);
#572 = B_SPLINE_CURVE_WITH_KNOTS('',3,(#573,#574,#575,#576,#577,#578,
    #579,#580,#581,#582,#583,#584,#585,#586,#587,#588,#589,#590,#591,
    #592,#593,#594,#595,#596,#597),.UNSPECIFIED.,.F.,.F.,(4,1,1,1,1,1,1,
    1,1,1,1,1,1,1,1,1,1,1,1,1,1,1,4),(5.560451059357,5.593302616076,
    5.626154172795,5.659005729514,5.691857286233,5.724708842953,
    5.757560399672,5.790411956391,5.82326351311,5.85611506983,
    5.888966626549,5.921818183268,5.954669739987,5.987521296707,
    6.020372853426,6.053224410145,6.086075966864,6.118927523583,
    6.151779080303,6.184630637022,6.217482193741,6.25033375046,
    6.28318530718),.QUASI_UNIFORM_KNOTS.);
#573 = CARTESIAN_POINT('',(2.418858405776,-12.55));
#574 = CARTESIAN_POINT('',(2.429808924683,-12.55144863254));
#575 = CARTESIAN_POINT('',(2.451709962495,-12.55429187935));
#576 = CARTESIAN_POINT('',(2.484561519214,-12.55839029086));
#577 = CARTESIAN_POINT('',(2.517413075933,-12.56231776777));
#578 = CARTESIAN_POINT('',(2.550264632652,-12.5660700861));
#579 = CARTESIAN_POINT('',(2.583116189371,-12.56964319279));
#580 = CARTESIAN_POINT('',(2.61596774609,-12.57303323302));
#581 = CARTESIAN_POINT('',(2.648819302809,-12.57623654823));
#582 = CARTESIAN_POINT('',(2.681670859528,-12.57924968171));
#583 = CARTESIAN_POINT('',(2.714522416247,-12.58206938189));
#584 = CARTESIAN_POINT('',(2.747373972966,-12.58469260595));
#585 = CARTESIAN_POINT('',(2.780225529685,-12.58711652311));
#586 = CARTESIAN_POINT('',(2.813077086404,-12.58933851763));
#587 = CARTESIAN_POINT('',(2.845928643123,-12.59135619171));
#588 = CARTESIAN_POINT('',(2.878780199842,-12.59316736802));
#589 = CARTESIAN_POINT('',(2.911631756561,-12.59477009207));
#590 = CARTESIAN_POINT('',(2.94448331328,-12.59616263432));
#591 = CARTESIAN_POINT('',(2.977334869999,-12.59734349197));
#592 = CARTESIAN_POINT('',(3.010186426718,-12.59831139106));
#593 = CARTESIAN_POINT('',(3.043037983437,-12.5990652858));
#594 = CARTESIAN_POINT('',(3.075889540156,-12.59960436754));
#595 = CARTESIAN_POINT('',(3.108741096875,-12.59992803621));
#596 = CARTESIAN_POINT('',(3.130642134688,-12.60000001939));
#597 = CARTESIAN_POINT('',(3.141592653594,-12.6));
#598 = ( GEOMETRIC_REPRESENTATION_CONTEXT(2) 
PARAMETRIC_REPRESENTATION_CONTEXT() REPRESENTATION_CONTEXT('2D SPACE',''
  ) );
#599 = PCURVE('',#600,#605);
#600 = PLANE('',#601);
#601 = AXIS2_PLACEMENT_3D('',#602,#603,#604);
#602 = CARTESIAN_POINT('',(12.5,2.,-14.88));
#603 = DIRECTION('',(0.707106781187,0.,0.707106781187));
#604 = DIRECTION('',(0.707106781187,0.,-0.707106781187));
#605 = DEFINITIONAL_REPRESENTATION('',(#606),#614);
#606 = ( BOUNDED_CURVE() B_SPLINE_CURVE(2,(#607,#608,#609,#610,#611,#612
,#613),.UNSPECIFIED.,.T.,.F.) B_SPLINE_CURVE_WITH_KNOTS((1,2,2,2,2,1),(
    -2.094395102393,0.,2.094395102393,4.188790204786,6.28318530718,
8.377580409573),.UNSPECIFIED.) CURVE() GEOMETRIC_REPRESENTATION_ITEM() 
RATIONAL_B_SPLINE_CURVE((1.,0.5,1.,0.5,1.,0.5,1.)) REPRESENTATION_ITEM(
  '') );
#607 = CARTESIAN_POINT('',(0.141421356237,-0.200000000001));
#608 = CARTESIAN_POINT('',(0.141421356235,-0.546410161512));
#609 = CARTESIAN_POINT('',(-0.28284271247,-0.373205080754));
#610 = CARTESIAN_POINT('',(-0.707106781175,-0.199999999996));
#611 = CARTESIAN_POINT('',(-0.282842712468,-2.679491924267E-02));
#612 = CARTESIAN_POINT('',(0.141421356239,0.14641016151));
#613 = CARTESIAN_POINT('',(0.141421356237,-0.200000000001));
#614 = ( GEOMETRIC_REPRESENTATION_CONTEXT(2) 
PARAMETRIC_REPRESENTATION_CONTEXT() REPRESENTATION_CONTEXT('2D SPACE',''
  ) );
#615 = ORIENTED_EDGE('',*,*,#616,.T.);
#616 = EDGE_CURVE('',#562,#57,#617,.T.);
#617 = SURFACE_CURVE('',#618,(#623,#629),.PCURVE_S1.);
#618 = ELLIPSE('',#619,0.282842712474,0.199999999999);
#619 = AXIS2_PLACEMENT_3D('',#620,#621,#622);
#620 = CARTESIAN_POINT('',(12.7,1.800000000001,-14.78));
#621 = DIRECTION('',(0.707106781187,7.589844096943E-14,-0.707106781187)
  );
#622 = DIRECTION('',(0.707106781187,3.005827991575E-12,0.707106781187));
#623 = PCURVE('',#72,#624);
#624 = DEFINITIONAL_REPRESENTATION('',(#625),#628);
#625 = B_SPLINE_CURVE_WITH_KNOTS('',1,(#626,#627),.UNSPECIFIED.,.F.,.F.,
  (2,2),(3.864326901405,4.712388980385),.PIECEWISE_BEZIER_KNOTS.);
#626 = CARTESIAN_POINT('',(2.418858405777,-12.55));
#627 = CARTESIAN_POINT('',(1.570796326799,-12.69999999999));
#628 = ( GEOMETRIC_REPRESENTATION_CONTEXT(2) 
PARAMETRIC_REPRESENTATION_CONTEXT() REPRESENTATION_CONTEXT('2D SPACE',''
  ) );
#629 = PCURVE('',#100,#630);
#630 = DEFINITIONAL_REPRESENTATION('',(#631),#634);
#631 = B_SPLINE_CURVE_WITH_KNOTS('',1,(#632,#633),.UNSPECIFIED.,.F.,.F.,
  (2,2),(3.864326901405,4.712388980385),.PIECEWISE_BEZIER_KNOTS.);
#632 = CARTESIAN_POINT('',(2.418858405776,-14.93));
#633 = CARTESIAN_POINT('',(1.570796326799,-14.78));
#634 = ( GEOMETRIC_REPRESENTATION_CONTEXT(2) 
PARAMETRIC_REPRESENTATION_CONTEXT() REPRESENTATION_CONTEXT('2D SPACE',''
  ) );
#635 = ORIENTED_EDGE('',*,*,#56,.F.);
#636 = ORIENTED_EDGE('',*,*,#410,.T.);
#637 = ADVANCED_FACE('',(#638),#100,.T.);
#638 = FACE_BOUND('',#639,.T.);
#639 = EDGE_LOOP('',(#640,#641,#642,#643,#693,#721));
#640 = ORIENTED_EDGE('',*,*,#247,.T.);
#641 = ORIENTED_EDGE('',*,*,#84,.F.);
#642 = ORIENTED_EDGE('',*,*,#616,.F.);
#643 = ORIENTED_EDGE('',*,*,#644,.F.);
#644 = EDGE_CURVE('',#645,#562,#647,.T.);
#645 = VERTEX_POINT('',#646);
#646 = CARTESIAN_POINT('',(12.5,1.8,-14.88));
#647 = SURFACE_CURVE('',#648,(#653,#682),.PCURVE_S1.);
#648 = ELLIPSE('',#649,0.282842712476,0.200000000001);
#649 = AXIS2_PLACEMENT_3D('',#650,#651,#652);
#650 = CARTESIAN_POINT('',(12.700000000001,1.8,-15.08));
#651 = DIRECTION('',(-0.707106781186,-6.521766405483E-14,-0.707106781187
    ));
#652 = DIRECTION('',(0.707106781187,-2.878762744004E-12,-0.707106781186)
  );
#653 = PCURVE('',#100,#654);
#654 = DEFINITIONAL_REPRESENTATION('',(#655),#681);
#655 = B_SPLINE_CURVE_WITH_KNOTS('',3,(#656,#657,#658,#659,#660,#661,
    #662,#663,#664,#665,#666,#667,#668,#669,#670,#671,#672,#673,#674,
    #675,#676,#677,#678,#679,#680),.UNSPECIFIED.,.F.,.F.,(4,1,1,1,1,1,1,
    1,1,1,1,1,1,1,1,1,1,1,1,1,1,1,4),(3.14159265359,3.174444210308,
    3.207295767027,3.240147323746,3.272998880464,3.305850437183,
    3.338701993901,3.37155355062,3.404405107339,3.437256664057,
    3.470108220776,3.502959777495,3.535811334213,3.568662890932,
    3.60151444765,3.634366004369,3.667217561088,3.700069117806,
    3.732920674525,3.765772231243,3.798623787962,3.831475344681,
    3.864326901399),.QUASI_UNIFORM_KNOTS.);
#656 = CARTESIAN_POINT('',(3.141592653588,-14.88));
#657 = CARTESIAN_POINT('',(3.130642134682,-14.8799999806));
#658 = CARTESIAN_POINT('',(3.108741096869,-14.88007196379));
#659 = CARTESIAN_POINT('',(3.07588954015,-14.88039563246));
#660 = CARTESIAN_POINT('',(3.043037983432,-14.8809347142));
#661 = CARTESIAN_POINT('',(3.010186426713,-14.88168860893));
#662 = CARTESIAN_POINT('',(2.977334869994,-14.88265650802));
#663 = CARTESIAN_POINT('',(2.944483313276,-14.88383736567));
#664 = CARTESIAN_POINT('',(2.911631756557,-14.88522990793));
#665 = CARTESIAN_POINT('',(2.878780199838,-14.88683263197));
#666 = CARTESIAN_POINT('',(2.845928643119,-14.88864380828));
#667 = CARTESIAN_POINT('',(2.813077086401,-14.89066148236));
#668 = CARTESIAN_POINT('',(2.780225529682,-14.89288347689));
#669 = CARTESIAN_POINT('',(2.747373972963,-14.89530739404));
#670 = CARTESIAN_POINT('',(2.714522416245,-14.8979306181));
#671 = CARTESIAN_POINT('',(2.681670859526,-14.90075031828));
#672 = CARTESIAN_POINT('',(2.648819302807,-14.90376345176));
#673 = CARTESIAN_POINT('',(2.615967746089,-14.90696676698));
#674 = CARTESIAN_POINT('',(2.58311618937,-14.91035680721));
#675 = CARTESIAN_POINT('',(2.550264632651,-14.91392991389));
#676 = CARTESIAN_POINT('',(2.517413075933,-14.91768223222));
#677 = CARTESIAN_POINT('',(2.484561519214,-14.92160970914));
#678 = CARTESIAN_POINT('',(2.451709962495,-14.92570812064));
#679 = CARTESIAN_POINT('',(2.429808924683,-14.92855136746));
#680 = CARTESIAN_POINT('',(2.418858405776,-14.93));
#681 = ( GEOMETRIC_REPRESENTATION_CONTEXT(2) 
PARAMETRIC_REPRESENTATION_CONTEXT() REPRESENTATION_CONTEXT('2D SPACE',''
  ) );
#682 = PCURVE('',#600,#683);
#683 = DEFINITIONAL_REPRESENTATION('',(#684),#692);
#684 = ( BOUNDED_CURVE() B_SPLINE_CURVE(2,(#685,#686,#687,#688,#689,#690
,#691),.UNSPECIFIED.,.T.,.F.) B_SPLINE_CURVE_WITH_KNOTS((1,2,2,2,2,1),(
    -2.094395102393,0.,2.094395102393,4.188790204786,6.28318530718,
8.377580409573),.UNSPECIFIED.) CURVE() GEOMETRIC_REPRESENTATION_ITEM() 
RATIONAL_B_SPLINE_CURVE((1.,0.5,1.,0.5,1.,0.5,1.)) REPRESENTATION_ITEM(
  '') );
#685 = CARTESIAN_POINT('',(0.565685424952,-0.200000000001));
#686 = CARTESIAN_POINT('',(0.565685424951,-0.546410161516));
#687 = CARTESIAN_POINT('',(0.141421356238,-0.373205080757));
#688 = CARTESIAN_POINT('',(-0.282842712476,-0.199999999999));
#689 = CARTESIAN_POINT('',(0.141421356239,-2.679491924264E-02));
#690 = CARTESIAN_POINT('',(0.565685424953,0.146410161514));
#691 = CARTESIAN_POINT('',(0.565685424952,-0.200000000001));
#692 = ( GEOMETRIC_REPRESENTATION_CONTEXT(2) 
PARAMETRIC_REPRESENTATION_CONTEXT() REPRESENTATION_CONTEXT('2D SPACE',''
  ) );
#693 = ORIENTED_EDGE('',*,*,#694,.F.);
#694 = EDGE_CURVE('',#695,#645,#697,.T.);
#695 = VERTEX_POINT('',#696);
#696 = CARTESIAN_POINT('',(12.5,1.8,-14.58));
#697 = SURFACE_CURVE('',#698,(#702,#709),.PCURVE_S1.);
#698 = LINE('',#699,#700);
#699 = CARTESIAN_POINT('',(12.5,1.8,-14.58));
#700 = VECTOR('',#701,1.);
#701 = DIRECTION('',(1.27213054905E-13,0.,-1.));
#702 = PCURVE('',#100,#703);
#703 = DEFINITIONAL_REPRESENTATION('',(#704),#708);
#704 = LINE('',#705,#706);
#705 = CARTESIAN_POINT('',(3.14159265359,-14.58));
#706 = VECTOR('',#707,1.);
#707 = DIRECTION('',(0.,-1.));
#708 = ( GEOMETRIC_REPRESENTATION_CONTEXT(2) 
PARAMETRIC_REPRESENTATION_CONTEXT() REPRESENTATION_CONTEXT('2D SPACE',''
  ) );
#709 = PCURVE('',#710,#715);
#710 = PLANE('',#711);
#711 = AXIS2_PLACEMENT_3D('',#712,#713,#714);
#712 = CARTESIAN_POINT('',(12.5,2.,-14.58));
#713 = DIRECTION('',(1.,0.,1.27213054905E-13));
#714 = DIRECTION('',(1.27213054905E-13,0.,-1.));
#715 = DEFINITIONAL_REPRESENTATION('',(#716),#720);
#716 = LINE('',#717,#718);
#717 = CARTESIAN_POINT('',(0.,-0.2));
#718 = VECTOR('',#719,1.);
#719 = DIRECTION('',(1.,0.));
#720 = ( GEOMETRIC_REPRESENTATION_CONTEXT(2) 
PARAMETRIC_REPRESENTATION_CONTEXT() REPRESENTATION_CONTEXT('2D SPACE',''
  ) );
#721 = ORIENTED_EDGE('',*,*,#722,.F.);
#722 = EDGE_CURVE('',#248,#695,#723,.T.);
#723 = SURFACE_CURVE('',#724,(#729,#758),.PCURVE_S1.);
#724 = ELLIPSE('',#725,0.282842712476,0.200000000001);
#725 = AXIS2_PLACEMENT_3D('',#726,#727,#728);
#726 = CARTESIAN_POINT('',(12.700000000001,1.8,-14.37999999999));
#727 = DIRECTION('',(-0.707106781187,3.185341506925E-14,0.707106781187)
  );
#728 = DIRECTION('',(0.707106781187,-2.477143057644E-12,0.707106781187)
  );
#729 = PCURVE('',#100,#730);
#730 = DEFINITIONAL_REPRESENTATION('',(#731),#757);
#731 = B_SPLINE_CURVE_WITH_KNOTS('',3,(#732,#733,#734,#735,#736,#737,
    #738,#739,#740,#741,#742,#743,#744,#745,#746,#747,#748,#749,#750,
    #751,#752,#753,#754,#755,#756),.UNSPECIFIED.,.F.,.F.,(4,1,1,1,1,1,1,
    1,1,1,1,1,1,1,1,1,1,1,1,1,1,1,4),(2.418858405781,2.451709962499,
    2.484561519218,2.517413075936,2.550264632655,2.583116189374,
    2.615967746092,2.648819302811,2.681670859529,2.714522416248,
    2.747373972967,2.780225529685,2.813077086404,2.845928643122,
    2.878780199841,2.91163175656,2.944483313278,2.977334869997,
    3.010186426715,3.043037983434,3.075889540153,3.108741096871,
    3.14159265359),.QUASI_UNIFORM_KNOTS.);
#732 = CARTESIAN_POINT('',(2.418858405776,-14.53));
#733 = CARTESIAN_POINT('',(2.429808924682,-14.53144863254));
#734 = CARTESIAN_POINT('',(2.451709962495,-14.53429187935));
#735 = CARTESIAN_POINT('',(2.484561519214,-14.53839029086));
#736 = CARTESIAN_POINT('',(2.517413075932,-14.54231776778));
#737 = CARTESIAN_POINT('',(2.550264632651,-14.5460700861));
#738 = CARTESIAN_POINT('',(2.58311618937,-14.54964319279));
#739 = CARTESIAN_POINT('',(2.615967746089,-14.55303323302));
#740 = CARTESIAN_POINT('',(2.648819302807,-14.55623654823));
#741 = CARTESIAN_POINT('',(2.681670859526,-14.55924968171));
#742 = CARTESIAN_POINT('',(2.714522416245,-14.56206938189));
#743 = CARTESIAN_POINT('',(2.747373972963,-14.56469260596));
#744 = CARTESIAN_POINT('',(2.780225529682,-14.56711652311));
#745 = CARTESIAN_POINT('',(2.813077086401,-14.56933851763));
#746 = CARTESIAN_POINT('',(2.84592864312,-14.57135619171));
#747 = CARTESIAN_POINT('',(2.878780199838,-14.57316736802));
#748 = CARTESIAN_POINT('',(2.911631756557,-14.57477009207));
#749 = CARTESIAN_POINT('',(2.944483313276,-14.57616263432));
#750 = CARTESIAN_POINT('',(2.977334869994,-14.57734349197));
#751 = CARTESIAN_POINT('',(3.010186426713,-14.57831139106));
#752 = CARTESIAN_POINT('',(3.043037983432,-14.5790652858));
#753 = CARTESIAN_POINT('',(3.075889540151,-14.57960436754));
#754 = CARTESIAN_POINT('',(3.108741096869,-14.57992803621));
#755 = CARTESIAN_POINT('',(3.130642134682,-14.58000001939));
#756 = CARTESIAN_POINT('',(3.141592653588,-14.58));
#757 = ( GEOMETRIC_REPRESENTATION_CONTEXT(2) 
PARAMETRIC_REPRESENTATION_CONTEXT() REPRESENTATION_CONTEXT('2D SPACE',''
  ) );
#758 = PCURVE('',#306,#759);
#759 = DEFINITIONAL_REPRESENTATION('',(#760),#768);
#760 = ( BOUNDED_CURVE() B_SPLINE_CURVE(2,(#761,#762,#763,#764,#765,#766
,#767),.UNSPECIFIED.,.T.,.F.) B_SPLINE_CURVE_WITH_KNOTS((1,2,2,2,2,1),(
    -2.094395102393,0.,2.094395102393,4.188790204786,6.28318530718,
8.377580409573),.UNSPECIFIED.) CURVE() GEOMETRIC_REPRESENTATION_ITEM() 
RATIONAL_B_SPLINE_CURVE((1.,0.5,1.,0.5,1.,0.5,1.)) REPRESENTATION_ITEM(
  '') );
#761 = CARTESIAN_POINT('',(-0.565685424953,-0.200000000001));
#762 = CARTESIAN_POINT('',(-0.565685424954,0.146410161514));
#763 = CARTESIAN_POINT('',(-0.141421356239,-2.679491924251E-02));
#764 = CARTESIAN_POINT('',(0.282842712476,-0.199999999999));
#765 = CARTESIAN_POINT('',(-0.141421356238,-0.373205080757));
#766 = CARTESIAN_POINT('',(-0.565685424952,-0.546410161516));
#767 = CARTESIAN_POINT('',(-0.565685424953,-0.200000000001));
#768 = ( GEOMETRIC_REPRESENTATION_CONTEXT(2) 
PARAMETRIC_REPRESENTATION_CONTEXT() REPRESENTATION_CONTEXT('2D SPACE',''
  ) );
#769 = ADVANCED_FACE('',(#770),#600,.F.);
#770 = FACE_BOUND('',#771,.T.);
#771 = EDGE_LOOP('',(#772,#773,#774,#797,#825));
#772 = ORIENTED_EDGE('',*,*,#644,.T.);
#773 = ORIENTED_EDGE('',*,*,#561,.T.);
#774 = ORIENTED_EDGE('',*,*,#775,.T.);
#775 = EDGE_CURVE('',#534,#776,#778,.T.);
#776 = VERTEX_POINT('',#777);
#777 = CARTESIAN_POINT('',(12.6,1.5,-14.98));
#778 = SURFACE_CURVE('',#779,(#783,#790),.PCURVE_S1.);
#779 = LINE('',#780,#781);
#780 = CARTESIAN_POINT('',(12.6,2.,-14.98));
#781 = VECTOR('',#782,1.);
#782 = DIRECTION('',(0.,-1.,0.));
#783 = PCURVE('',#600,#784);
#784 = DEFINITIONAL_REPRESENTATION('',(#785),#789);
#785 = LINE('',#786,#787);
#786 = CARTESIAN_POINT('',(0.141421356237,0.));
#787 = VECTOR('',#788,1.);
#788 = DIRECTION('',(0.,-1.));
#789 = ( GEOMETRIC_REPRESENTATION_CONTEXT(2) 
PARAMETRIC_REPRESENTATION_CONTEXT() REPRESENTATION_CONTEXT('2D SPACE',''
  ) );
#790 = PCURVE('',#549,#791);
#791 = DEFINITIONAL_REPRESENTATION('',(#792),#796);
#792 = LINE('',#793,#794);
#793 = CARTESIAN_POINT('',(0.,0.));
#794 = VECTOR('',#795,1.);
#795 = DIRECTION('',(0.,-1.));
#796 = ( GEOMETRIC_REPRESENTATION_CONTEXT(2) 
PARAMETRIC_REPRESENTATION_CONTEXT() REPRESENTATION_CONTEXT('2D SPACE',''
  ) );
#797 = ORIENTED_EDGE('',*,*,#798,.T.);
#798 = EDGE_CURVE('',#776,#799,#801,.T.);
#799 = VERTEX_POINT('',#800);
#800 = CARTESIAN_POINT('',(12.5,1.5,-14.88));
#801 = SURFACE_CURVE('',#802,(#806,#813),.PCURVE_S1.);
#802 = LINE('',#803,#804);
#803 = CARTESIAN_POINT('',(12.5,1.5,-14.88));
#804 = VECTOR('',#805,1.);
#805 = DIRECTION('',(-0.707106781187,0.,0.707106781187));
#806 = PCURVE('',#600,#807);
#807 = DEFINITIONAL_REPRESENTATION('',(#808),#812);
#808 = LINE('',#809,#810);
#809 = CARTESIAN_POINT('',(0.,-0.5));
#810 = VECTOR('',#811,1.);
#811 = DIRECTION('',(-1.,0.));
#812 = ( GEOMETRIC_REPRESENTATION_CONTEXT(2) 
PARAMETRIC_REPRESENTATION_CONTEXT() REPRESENTATION_CONTEXT('2D SPACE',''
  ) );
#813 = PCURVE('',#814,#819);
#814 = PLANE('',#815);
#815 = AXIS2_PLACEMENT_3D('',#816,#817,#818);
#816 = CARTESIAN_POINT('',(12.75,1.5,-14.73));
#817 = DIRECTION('',(0.,1.,0.));
#818 = DIRECTION('',(0.,-0.,1.));
#819 = DEFINITIONAL_REPRESENTATION('',(#820),#824);
#820 = LINE('',#821,#822);
#821 = CARTESIAN_POINT('',(-0.15,-0.25));
#822 = VECTOR('',#823,1.);
#823 = DIRECTION('',(0.707106781187,-0.707106781187));
#824 = ( GEOMETRIC_REPRESENTATION_CONTEXT(2) 
PARAMETRIC_REPRESENTATION_CONTEXT() REPRESENTATION_CONTEXT('2D SPACE',''
  ) );
#825 = ORIENTED_EDGE('',*,*,#826,.F.);
#826 = EDGE_CURVE('',#645,#799,#827,.T.);
#827 = SURFACE_CURVE('',#828,(#832,#839),.PCURVE_S1.);
#828 = LINE('',#829,#830);
#829 = CARTESIAN_POINT('',(12.5,2.,-14.88));
#830 = VECTOR('',#831,1.);
#831 = DIRECTION('',(0.,-1.,0.));
#832 = PCURVE('',#600,#833);
#833 = DEFINITIONAL_REPRESENTATION('',(#834),#838);
#834 = LINE('',#835,#836);
#835 = CARTESIAN_POINT('',(0.,0.));
#836 = VECTOR('',#837,1.);
#837 = DIRECTION('',(0.,-1.));
#838 = ( GEOMETRIC_REPRESENTATION_CONTEXT(2) 
PARAMETRIC_REPRESENTATION_CONTEXT() REPRESENTATION_CONTEXT('2D SPACE',''
  ) );
#839 = PCURVE('',#710,#840);
#840 = DEFINITIONAL_REPRESENTATION('',(#841),#845);
#841 = LINE('',#842,#843);
#842 = CARTESIAN_POINT('',(0.3,0.));
#843 = VECTOR('',#844,1.);
#844 = DIRECTION('',(0.,-1.));
#845 = ( GEOMETRIC_REPRESENTATION_CONTEXT(2) 
PARAMETRIC_REPRESENTATION_CONTEXT() REPRESENTATION_CONTEXT('2D SPACE',''
  ) );
#846 = ADVANCED_FACE('',(#847),#549,.F.);
#847 = FACE_BOUND('',#848,.T.);
#848 = EDGE_LOOP('',(#849,#850,#851,#874));
#849 = ORIENTED_EDGE('',*,*,#775,.F.);
#850 = ORIENTED_EDGE('',*,*,#533,.T.);
#851 = ORIENTED_EDGE('',*,*,#852,.T.);
#852 = EDGE_CURVE('',#484,#853,#855,.T.);
#853 = VERTEX_POINT('',#854);
#854 = CARTESIAN_POINT('',(12.9,1.5,-14.98));
#855 = SURFACE_CURVE('',#856,(#860,#867),.PCURVE_S1.);
#856 = LINE('',#857,#858);
#857 = CARTESIAN_POINT('',(12.9,2.,-14.98));
#858 = VECTOR('',#859,1.);
#859 = DIRECTION('',(0.,-1.,0.));
#860 = PCURVE('',#549,#861);
#861 = DEFINITIONAL_REPRESENTATION('',(#862),#866);
#862 = LINE('',#863,#864);
#863 = CARTESIAN_POINT('',(0.3,0.));
#864 = VECTOR('',#865,1.);
#865 = DIRECTION('',(0.,-1.));
#866 = ( GEOMETRIC_REPRESENTATION_CONTEXT(2) 
PARAMETRIC_REPRESENTATION_CONTEXT() REPRESENTATION_CONTEXT('2D SPACE',''
  ) );
#867 = PCURVE('',#394,#868);
#868 = DEFINITIONAL_REPRESENTATION('',(#869),#873);
#869 = LINE('',#870,#871);
#870 = CARTESIAN_POINT('',(0.,0.));
#871 = VECTOR('',#872,1.);
#872 = DIRECTION('',(0.,-1.));
#873 = ( GEOMETRIC_REPRESENTATION_CONTEXT(2) 
PARAMETRIC_REPRESENTATION_CONTEXT() REPRESENTATION_CONTEXT('2D SPACE',''
  ) );
#874 = ORIENTED_EDGE('',*,*,#875,.T.);
#875 = EDGE_CURVE('',#853,#776,#876,.T.);
#876 = SURFACE_CURVE('',#877,(#881,#888),.PCURVE_S1.);
#877 = LINE('',#878,#879);
#878 = CARTESIAN_POINT('',(12.6,1.5,-14.98));
#879 = VECTOR('',#880,1.);
#880 = DIRECTION('',(-1.,0.,0.));
#881 = PCURVE('',#549,#882);
#882 = DEFINITIONAL_REPRESENTATION('',(#883),#887);
#883 = LINE('',#884,#885);
#884 = CARTESIAN_POINT('',(0.,-0.5));
#885 = VECTOR('',#886,1.);
#886 = DIRECTION('',(-1.,0.));
#887 = ( GEOMETRIC_REPRESENTATION_CONTEXT(2) 
PARAMETRIC_REPRESENTATION_CONTEXT() REPRESENTATION_CONTEXT('2D SPACE',''
  ) );
#888 = PCURVE('',#814,#889);
#889 = DEFINITIONAL_REPRESENTATION('',(#890),#894);
#890 = LINE('',#891,#892);
#891 = CARTESIAN_POINT('',(-0.25,-0.15));
#892 = VECTOR('',#893,1.);
#893 = DIRECTION('',(0.,-1.));
#894 = ( GEOMETRIC_REPRESENTATION_CONTEXT(2) 
PARAMETRIC_REPRESENTATION_CONTEXT() REPRESENTATION_CONTEXT('2D SPACE',''
  ) );
#895 = ADVANCED_FACE('',(#896),#394,.F.);
#896 = FACE_BOUND('',#897,.T.);
#897 = EDGE_LOOP('',(#898,#899,#900,#901,#924));
#898 = ORIENTED_EDGE('',*,*,#852,.F.);
#899 = ORIENTED_EDGE('',*,*,#483,.T.);
#900 = ORIENTED_EDGE('',*,*,#355,.T.);
#901 = ORIENTED_EDGE('',*,*,#902,.T.);
#902 = EDGE_CURVE('',#326,#903,#905,.T.);
#903 = VERTEX_POINT('',#904);
#904 = CARTESIAN_POINT('',(13.,1.5,-14.88));
#905 = SURFACE_CURVE('',#906,(#910,#917),.PCURVE_S1.);
#906 = LINE('',#907,#908);
#907 = CARTESIAN_POINT('',(13.,2.,-14.88));
#908 = VECTOR('',#909,1.);
#909 = DIRECTION('',(0.,-1.,0.));
#910 = PCURVE('',#394,#911);
#911 = DEFINITIONAL_REPRESENTATION('',(#912),#916);
#912 = LINE('',#913,#914);
#913 = CARTESIAN_POINT('',(0.141421356237,0.));
#914 = VECTOR('',#915,1.);
#915 = DIRECTION('',(0.,-1.));
#916 = ( GEOMETRIC_REPRESENTATION_CONTEXT(2) 
PARAMETRIC_REPRESENTATION_CONTEXT() REPRESENTATION_CONTEXT('2D SPACE',''
  ) );
#917 = PCURVE('',#343,#918);
#918 = DEFINITIONAL_REPRESENTATION('',(#919),#923);
#919 = LINE('',#920,#921);
#920 = CARTESIAN_POINT('',(-0.3,0.));
#921 = VECTOR('',#922,1.);
#922 = DIRECTION('',(0.,-1.));
#923 = ( GEOMETRIC_REPRESENTATION_CONTEXT(2) 
PARAMETRIC_REPRESENTATION_CONTEXT() REPRESENTATION_CONTEXT('2D SPACE',''
  ) );
#924 = ORIENTED_EDGE('',*,*,#925,.T.);
#925 = EDGE_CURVE('',#903,#853,#926,.T.);
#926 = SURFACE_CURVE('',#927,(#931,#938),.PCURVE_S1.);
#927 = LINE('',#928,#929);
#928 = CARTESIAN_POINT('',(12.9,1.5,-14.98));
#929 = VECTOR('',#930,1.);
#930 = DIRECTION('',(-0.707106781187,0.,-0.707106781187));
#931 = PCURVE('',#394,#932);
#932 = DEFINITIONAL_REPRESENTATION('',(#933),#937);
#933 = LINE('',#934,#935);
#934 = CARTESIAN_POINT('',(0.,-0.5));
#935 = VECTOR('',#936,1.);
#936 = DIRECTION('',(-1.,0.));
#937 = ( GEOMETRIC_REPRESENTATION_CONTEXT(2) 
PARAMETRIC_REPRESENTATION_CONTEXT() REPRESENTATION_CONTEXT('2D SPACE',''
  ) );
#938 = PCURVE('',#814,#939);
#939 = DEFINITIONAL_REPRESENTATION('',(#940),#944);
#940 = LINE('',#941,#942);
#941 = CARTESIAN_POINT('',(-0.25,0.15));
#942 = VECTOR('',#943,1.);
#943 = DIRECTION('',(-0.707106781187,-0.707106781187));
#944 = ( GEOMETRIC_REPRESENTATION_CONTEXT(2) 
PARAMETRIC_REPRESENTATION_CONTEXT() REPRESENTATION_CONTEXT('2D SPACE',''
  ) );
#945 = ADVANCED_FACE('',(#946),#343,.F.);
#946 = FACE_BOUND('',#947,.T.);
#947 = EDGE_LOOP('',(#948,#949,#950,#973));
#948 = ORIENTED_EDGE('',*,*,#902,.F.);
#949 = ORIENTED_EDGE('',*,*,#325,.T.);
#950 = ORIENTED_EDGE('',*,*,#951,.T.);
#951 = EDGE_CURVE('',#328,#952,#954,.T.);
#952 = VERTEX_POINT('',#953);
#953 = CARTESIAN_POINT('',(13.,1.5,-14.58));
#954 = SURFACE_CURVE('',#955,(#959,#966),.PCURVE_S1.);
#955 = LINE('',#956,#957);
#956 = CARTESIAN_POINT('',(13.,2.,-14.58));
#957 = VECTOR('',#958,1.);
#958 = DIRECTION('',(0.,-1.,0.));
#959 = PCURVE('',#343,#960);
#960 = DEFINITIONAL_REPRESENTATION('',(#961),#965);
#961 = LINE('',#962,#963);
#962 = CARTESIAN_POINT('',(0.,0.));
#963 = VECTOR('',#964,1.);
#964 = DIRECTION('',(0.,-1.));
#965 = ( GEOMETRIC_REPRESENTATION_CONTEXT(2) 
PARAMETRIC_REPRESENTATION_CONTEXT() REPRESENTATION_CONTEXT('2D SPACE',''
  ) );
#966 = PCURVE('',#210,#967);
#967 = DEFINITIONAL_REPRESENTATION('',(#968),#972);
#968 = LINE('',#969,#970);
#969 = CARTESIAN_POINT('',(-0.141421356237,0.));
#970 = VECTOR('',#971,1.);
#971 = DIRECTION('',(0.,-1.));
#972 = ( GEOMETRIC_REPRESENTATION_CONTEXT(2) 
PARAMETRIC_REPRESENTATION_CONTEXT() REPRESENTATION_CONTEXT('2D SPACE',''
  ) );
#973 = ORIENTED_EDGE('',*,*,#974,.T.);
#974 = EDGE_CURVE('',#952,#903,#975,.T.);
#975 = SURFACE_CURVE('',#976,(#980,#987),.PCURVE_S1.);
#976 = LINE('',#977,#978);
#977 = CARTESIAN_POINT('',(13.,1.5,-14.58));
#978 = VECTOR('',#979,1.);
#979 = DIRECTION('',(-5.782411586589E-15,0.,-1.));
#980 = PCURVE('',#343,#981);
#981 = DEFINITIONAL_REPRESENTATION('',(#982),#986);
#982 = LINE('',#983,#984);
#983 = CARTESIAN_POINT('',(0.,-0.5));
#984 = VECTOR('',#985,1.);
#985 = DIRECTION('',(-1.,0.));
#986 = ( GEOMETRIC_REPRESENTATION_CONTEXT(2) 
PARAMETRIC_REPRESENTATION_CONTEXT() REPRESENTATION_CONTEXT('2D SPACE',''
  ) );
#987 = PCURVE('',#814,#988);
#988 = DEFINITIONAL_REPRESENTATION('',(#989),#993);
#989 = LINE('',#990,#991);
#990 = CARTESIAN_POINT('',(0.15,0.25));
#991 = VECTOR('',#992,1.);
#992 = DIRECTION('',(-1.,-5.782411586589E-15));
#993 = ( GEOMETRIC_REPRESENTATION_CONTEXT(2) 
PARAMETRIC_REPRESENTATION_CONTEXT() REPRESENTATION_CONTEXT('2D SPACE',''
  ) );
#994 = ADVANCED_FACE('',(#995),#210,.F.);
#995 = FACE_BOUND('',#996,.T.);
#996 = EDGE_LOOP('',(#997,#998,#999,#1000,#1023));
#997 = ORIENTED_EDGE('',*,*,#951,.F.);
#998 = ORIENTED_EDGE('',*,*,#432,.T.);
#999 = ORIENTED_EDGE('',*,*,#171,.T.);
#1000 = ORIENTED_EDGE('',*,*,#1001,.T.);
#1001 = EDGE_CURVE('',#142,#1002,#1004,.T.);
#1002 = VERTEX_POINT('',#1003);
#1003 = CARTESIAN_POINT('',(12.9,1.5,-14.48));
#1004 = SURFACE_CURVE('',#1005,(#1009,#1016),.PCURVE_S1.);
#1005 = LINE('',#1006,#1007);
#1006 = CARTESIAN_POINT('',(12.9,2.,-14.48));
#1007 = VECTOR('',#1008,1.);
#1008 = DIRECTION('',(0.,-1.,0.));
#1009 = PCURVE('',#210,#1010);
#1010 = DEFINITIONAL_REPRESENTATION('',(#1011),#1015);
#1011 = LINE('',#1012,#1013);
#1012 = CARTESIAN_POINT('',(0.,0.));
#1013 = VECTOR('',#1014,1.);
#1014 = DIRECTION('',(0.,-1.));
#1015 = ( GEOMETRIC_REPRESENTATION_CONTEXT(2) 
PARAMETRIC_REPRESENTATION_CONTEXT() REPRESENTATION_CONTEXT('2D SPACE',''
  ) );
#1016 = PCURVE('',#159,#1017);
#1017 = DEFINITIONAL_REPRESENTATION('',(#1018),#1022);
#1018 = LINE('',#1019,#1020);
#1019 = CARTESIAN_POINT('',(-0.3,0.));
#1020 = VECTOR('',#1021,1.);
#1021 = DIRECTION('',(0.,-1.));
#1022 = ( GEOMETRIC_REPRESENTATION_CONTEXT(2) 
PARAMETRIC_REPRESENTATION_CONTEXT() REPRESENTATION_CONTEXT('2D SPACE',''
  ) );
#1023 = ORIENTED_EDGE('',*,*,#1024,.T.);
#1024 = EDGE_CURVE('',#1002,#952,#1025,.T.);
#1025 = SURFACE_CURVE('',#1026,(#1030,#1037),.PCURVE_S1.);
#1026 = LINE('',#1027,#1028);
#1027 = CARTESIAN_POINT('',(12.9,1.5,-14.48));
#1028 = VECTOR('',#1029,1.);
#1029 = DIRECTION('',(0.707106781187,0.,-0.707106781187));
#1030 = PCURVE('',#210,#1031);
#1031 = DEFINITIONAL_REPRESENTATION('',(#1032),#1036);
#1032 = LINE('',#1033,#1034);
#1033 = CARTESIAN_POINT('',(0.,-0.5));
#1034 = VECTOR('',#1035,1.);
#1035 = DIRECTION('',(-1.,0.));
#1036 = ( GEOMETRIC_REPRESENTATION_CONTEXT(2) 
PARAMETRIC_REPRESENTATION_CONTEXT() REPRESENTATION_CONTEXT('2D SPACE',''
  ) );
#1037 = PCURVE('',#814,#1038);
#1038 = DEFINITIONAL_REPRESENTATION('',(#1039),#1043);
#1039 = LINE('',#1040,#1041);
#1040 = CARTESIAN_POINT('',(0.25,0.15));
#1041 = VECTOR('',#1042,1.);
#1042 = DIRECTION('',(-0.707106781187,0.707106781187));
#1043 = ( GEOMETRIC_REPRESENTATION_CONTEXT(2) 
PARAMETRIC_REPRESENTATION_CONTEXT() REPRESENTATION_CONTEXT('2D SPACE',''
  ) );
#1044 = ADVANCED_FACE('',(#1045),#159,.F.);
#1045 = FACE_BOUND('',#1046,.T.);
#1046 = EDGE_LOOP('',(#1047,#1048,#1049,#1072));
#1047 = ORIENTED_EDGE('',*,*,#1001,.F.);
#1048 = ORIENTED_EDGE('',*,*,#141,.T.);
#1049 = ORIENTED_EDGE('',*,*,#1050,.T.);
#1050 = EDGE_CURVE('',#144,#1051,#1053,.T.);
#1051 = VERTEX_POINT('',#1052);
#1052 = CARTESIAN_POINT('',(12.6,1.5,-14.48));
#1053 = SURFACE_CURVE('',#1054,(#1058,#1065),.PCURVE_S1.);
#1054 = LINE('',#1055,#1056);
#1055 = CARTESIAN_POINT('',(12.6,2.,-14.48));
#1056 = VECTOR('',#1057,1.);
#1057 = DIRECTION('',(0.,-1.,0.));
#1058 = PCURVE('',#159,#1059);
#1059 = DEFINITIONAL_REPRESENTATION('',(#1060),#1064);
#1060 = LINE('',#1061,#1062);
#1061 = CARTESIAN_POINT('',(0.,0.));
#1062 = VECTOR('',#1063,1.);
#1063 = DIRECTION('',(0.,-1.));
#1064 = ( GEOMETRIC_REPRESENTATION_CONTEXT(2) 
PARAMETRIC_REPRESENTATION_CONTEXT() REPRESENTATION_CONTEXT('2D SPACE',''
  ) );
#1065 = PCURVE('',#306,#1066);
#1066 = DEFINITIONAL_REPRESENTATION('',(#1067),#1071);
#1067 = LINE('',#1068,#1069);
#1068 = CARTESIAN_POINT('',(-0.141421356237,0.));
#1069 = VECTOR('',#1070,1.);
#1070 = DIRECTION('',(-0.,-1.));
#1071 = ( GEOMETRIC_REPRESENTATION_CONTEXT(2) 
PARAMETRIC_REPRESENTATION_CONTEXT() REPRESENTATION_CONTEXT('2D SPACE',''
  ) );
#1072 = ORIENTED_EDGE('',*,*,#1073,.T.);
#1073 = EDGE_CURVE('',#1051,#1002,#1074,.T.);
#1074 = SURFACE_CURVE('',#1075,(#1079,#1086),.PCURVE_S1.);
#1075 = LINE('',#1076,#1077);
#1076 = CARTESIAN_POINT('',(12.6,1.5,-14.48));
#1077 = VECTOR('',#1078,1.);
#1078 = DIRECTION('',(1.,0.,-1.040834085586E-13));
#1079 = PCURVE('',#159,#1080);
#1080 = DEFINITIONAL_REPRESENTATION('',(#1081),#1085);
#1081 = LINE('',#1082,#1083);
#1082 = CARTESIAN_POINT('',(0.,-0.5));
#1083 = VECTOR('',#1084,1.);
#1084 = DIRECTION('',(-1.,0.));
#1085 = ( GEOMETRIC_REPRESENTATION_CONTEXT(2) 
PARAMETRIC_REPRESENTATION_CONTEXT() REPRESENTATION_CONTEXT('2D SPACE',''
  ) );
#1086 = PCURVE('',#814,#1087);
#1087 = DEFINITIONAL_REPRESENTATION('',(#1088),#1092);
#1088 = LINE('',#1089,#1090);
#1089 = CARTESIAN_POINT('',(0.25,-0.15));
#1090 = VECTOR('',#1091,1.);
#1091 = DIRECTION('',(-1.040834085586E-13,1.));
#1092 = ( GEOMETRIC_REPRESENTATION_CONTEXT(2) 
PARAMETRIC_REPRESENTATION_CONTEXT() REPRESENTATION_CONTEXT('2D SPACE',''
  ) );
#1093 = ADVANCED_FACE('',(#1094),#306,.F.);
#1094 = FACE_BOUND('',#1095,.T.);
#1095 = EDGE_LOOP('',(#1096,#1097,#1098,#1099,#1122));
#1096 = ORIENTED_EDGE('',*,*,#1050,.F.);
#1097 = ORIENTED_EDGE('',*,*,#269,.T.);
#1098 = ORIENTED_EDGE('',*,*,#722,.T.);
#1099 = ORIENTED_EDGE('',*,*,#1100,.T.);
#1100 = EDGE_CURVE('',#695,#1101,#1103,.T.);
#1101 = VERTEX_POINT('',#1102);
#1102 = CARTESIAN_POINT('',(12.5,1.5,-14.58));
#1103 = SURFACE_CURVE('',#1104,(#1108,#1115),.PCURVE_S1.);
#1104 = LINE('',#1105,#1106);
#1105 = CARTESIAN_POINT('',(12.5,2.,-14.58));
#1106 = VECTOR('',#1107,1.);
#1107 = DIRECTION('',(0.,-1.,0.));
#1108 = PCURVE('',#306,#1109);
#1109 = DEFINITIONAL_REPRESENTATION('',(#1110),#1114);
#1110 = LINE('',#1111,#1112);
#1111 = CARTESIAN_POINT('',(0.,0.));
#1112 = VECTOR('',#1113,1.);
#1113 = DIRECTION('',(-0.,-1.));
#1114 = ( GEOMETRIC_REPRESENTATION_CONTEXT(2) 
PARAMETRIC_REPRESENTATION_CONTEXT() REPRESENTATION_CONTEXT('2D SPACE',''
  ) );
#1115 = PCURVE('',#710,#1116);
#1116 = DEFINITIONAL_REPRESENTATION('',(#1117),#1121);
#1117 = LINE('',#1118,#1119);
#1118 = CARTESIAN_POINT('',(0.,0.));
#1119 = VECTOR('',#1120,1.);
#1120 = DIRECTION('',(0.,-1.));
#1121 = ( GEOMETRIC_REPRESENTATION_CONTEXT(2) 
PARAMETRIC_REPRESENTATION_CONTEXT() REPRESENTATION_CONTEXT('2D SPACE',''
  ) );
#1122 = ORIENTED_EDGE('',*,*,#1123,.T.);
#1123 = EDGE_CURVE('',#1101,#1051,#1124,.T.);
#1124 = SURFACE_CURVE('',#1125,(#1129,#1136),.PCURVE_S1.);
#1125 = LINE('',#1126,#1127);
#1126 = CARTESIAN_POINT('',(12.5,1.5,-14.58));
#1127 = VECTOR('',#1128,1.);
#1128 = DIRECTION('',(0.707106781187,0.,0.707106781187));
#1129 = PCURVE('',#306,#1130);
#1130 = DEFINITIONAL_REPRESENTATION('',(#1131),#1135);
#1131 = LINE('',#1132,#1133);
#1132 = CARTESIAN_POINT('',(-0.,-0.5));
#1133 = VECTOR('',#1134,1.);
#1134 = DIRECTION('',(-1.,0.));
#1135 = ( GEOMETRIC_REPRESENTATION_CONTEXT(2) 
PARAMETRIC_REPRESENTATION_CONTEXT() REPRESENTATION_CONTEXT('2D SPACE',''
  ) );
#1136 = PCURVE('',#814,#1137);
#1137 = DEFINITIONAL_REPRESENTATION('',(#1138),#1142);
#1138 = LINE('',#1139,#1140);
#1139 = CARTESIAN_POINT('',(0.15,-0.25));
#1140 = VECTOR('',#1141,1.);
#1141 = DIRECTION('',(0.707106781187,0.707106781187));
#1142 = ( GEOMETRIC_REPRESENTATION_CONTEXT(2) 
PARAMETRIC_REPRESENTATION_CONTEXT() REPRESENTATION_CONTEXT('2D SPACE',''
  ) );
#1143 = ADVANCED_FACE('',(#1144),#710,.F.);
#1144 = FACE_BOUND('',#1145,.T.);
#1145 = EDGE_LOOP('',(#1146,#1147,#1148,#1149));
#1146 = ORIENTED_EDGE('',*,*,#1100,.F.);
#1147 = ORIENTED_EDGE('',*,*,#694,.T.);
#1148 = ORIENTED_EDGE('',*,*,#826,.T.);
#1149 = ORIENTED_EDGE('',*,*,#1150,.T.);
#1150 = EDGE_CURVE('',#799,#1101,#1151,.T.);
#1151 = SURFACE_CURVE('',#1152,(#1156,#1163),.PCURVE_S1.);
#1152 = LINE('',#1153,#1154);
#1153 = CARTESIAN_POINT('',(12.5,1.5,-14.58));
#1154 = VECTOR('',#1155,1.);
#1155 = DIRECTION('',(-1.27213054905E-13,0.,1.));
#1156 = PCURVE('',#710,#1157);
#1157 = DEFINITIONAL_REPRESENTATION('',(#1158),#1162);
#1158 = LINE('',#1159,#1160);
#1159 = CARTESIAN_POINT('',(0.,-0.5));
#1160 = VECTOR('',#1161,1.);
#1161 = DIRECTION('',(-1.,0.));
#1162 = ( GEOMETRIC_REPRESENTATION_CONTEXT(2) 
PARAMETRIC_REPRESENTATION_CONTEXT() REPRESENTATION_CONTEXT('2D SPACE',''
  ) );
#1163 = PCURVE('',#814,#1164);
#1164 = DEFINITIONAL_REPRESENTATION('',(#1165),#1169);
#1165 = LINE('',#1166,#1167);
#1166 = CARTESIAN_POINT('',(0.15,-0.25));
#1167 = VECTOR('',#1168,1.);
#1168 = DIRECTION('',(1.,-1.27213054905E-13));
#1169 = ( GEOMETRIC_REPRESENTATION_CONTEXT(2) 
PARAMETRIC_REPRESENTATION_CONTEXT() REPRESENTATION_CONTEXT('2D SPACE',''
  ) );
#1170 = ADVANCED_FACE('',(#1171),#814,.F.);
#1171 = FACE_BOUND('',#1172,.T.);
#1172 = EDGE_LOOP('',(#1173,#1174,#1175,#1176,#1177,#1178,#1179,#1180));
#1173 = ORIENTED_EDGE('',*,*,#798,.F.);
#1174 = ORIENTED_EDGE('',*,*,#875,.F.);
#1175 = ORIENTED_EDGE('',*,*,#925,.F.);
#1176 = ORIENTED_EDGE('',*,*,#974,.F.);
#1177 = ORIENTED_EDGE('',*,*,#1024,.F.);
#1178 = ORIENTED_EDGE('',*,*,#1073,.F.);
#1179 = ORIENTED_EDGE('',*,*,#1123,.F.);
#1180 = ORIENTED_EDGE('',*,*,#1150,.F.);
#1181 = ( GEOMETRIC_REPRESENTATION_CONTEXT(3) 
GLOBAL_UNCERTAINTY_ASSIGNED_CONTEXT((#1185)) 
GLOBAL_UNIT_ASSIGNED_CONTEXT((#1182,#1183,#1184)) REPRESENTATION_CONTEXT
('Context #1','3D Context with UNIT and UNCERTAINTY') );
#1182 = ( LENGTH_UNIT() NAMED_UNIT(*) SI_UNIT(.MILLI.,.METRE.) );
#1183 = ( NAMED_UNIT(*) PLANE_ANGLE_UNIT() SI_UNIT($,.RADIAN.) );
#1184 = ( NAMED_UNIT(*) SI_UNIT($,.STERADIAN.) SOLID_ANGLE_UNIT() );
#1185 = UNCERTAINTY_MEASURE_WITH_UNIT(LENGTH_MEASURE(2.E-03),#1182,
  'distance_accuracy_value','confusion accuracy');
#1186 = PRODUCT_RELATED_PRODUCT_CATEGORY('part',$,(#7));
ENDSEC;
END-ISO-10303-21;
