ISO-10303-21;
HEADER;
FILE_DESCRIPTION(('Open CASCADE Model'),'2;1');
FILE_NAME('Open CASCADE Shape Model','2026-08-13T22:17:09',('Author'),(
    'Open CASCADE'),'Open CASCADE STEP processor 7.9','Open CASCADE 7.9'
  ,'Unknown');
FILE_SCHEMA(('AUTOMOTIVE_DESIGN { 1 0 10303 214 1 1 1 1 }'));
ENDSEC;
DATA;
#1 = APPLICATION_PROTOCOL_DEFINITION('international standard',
  'automotive_design',2000,#2);
#2 = APPLICATION_CONTEXT(
  'core data for automotive mechanical design processes');
#3 = SHAPE_DEFINITION_REPRESENTATION(#4,#10);
#4 = PRODUCT_DEFINITION_SHAPE('','',#5);
#5 = PRODUCT_DEFINITION('design','',#6,#9);
#6 = PRODUCT_DEFINITION_FORMATION('','',#7);
#7 = PRODUCT('Open CASCADE STEP translator 7.9 405',
  'Open CASCADE STEP translator 7.9 405','',(#8));
#8 = PRODUCT_CONTEXT('',#2,'mechanical');
#9 = PRODUCT_DEFINITION_CONTEXT('part definition',#2,'design');
#10 = ADVANCED_BREP_SHAPE_REPRESENTATION('',(#11,#15),#1181);
#11 = AXIS2_PLACEMENT_3D('',#12,#13,#14);
#12 = CARTESIAN_POINT('',(0.,0.,0.));
#13 = DIRECTION('',(0.,0.,1.));
#14 = DIRECTION('',(1.,0.,-0.));
#15 = MANIFOLD_SOLID_BREP('',#16);
#16 = CLOSED_SHELL('',(#17,#137,#321,#479,#637,#769,#846,#895,#945,#994,
    #1044,#1093,#1143,#1170));
#17 = ADVANCED_FACE('',(#18),#32,.F.);
#18 = FACE_BOUND('',#19,.T.);
#19 = EDGE_LOOP('',(#20,#55,#83,#111));
#20 = ORIENTED_EDGE('',*,*,#21,.T.);
#21 = EDGE_CURVE('',#22,#24,#26,.T.);
#22 = VERTEX_POINT('',#23);
#23 = CARTESIAN_POINT('',(12.8,2.,10.72));
#24 = VERTEX_POINT('',#25);
#25 = CARTESIAN_POINT('',(12.8,2.,10.62));
#26 = SURFACE_CURVE('',#27,(#31,#43),.PCURVE_S1.);
#27 = LINE('',#28,#29);
#28 = CARTESIAN_POINT('',(12.8,2.,-7.401486830835E-14));
#29 = VECTOR('',#30,1.);
#30 = DIRECTION('',(-5.782411586589E-15,0.,-1.));
#31 = PCURVE('',#32,#37);
#32 = PLANE('',#33);
#33 = AXIS2_PLACEMENT_3D('',#34,#35,#36);
#34 = CARTESIAN_POINT('',(0.,2.,0.));
#35 = DIRECTION('',(0.,-1.,0.));
#36 = DIRECTION('',(0.,0.,-1.));
#37 = DEFINITIONAL_REPRESENTATION('',(#38),#42);
#38 = LINE('',#39,#40);
#39 = CARTESIAN_POINT('',(7.401486830835E-14,12.8));
#40 = VECTOR('',#41,1.);
#41 = DIRECTION('',(1.,-5.782411586589E-15));
#42 = ( GEOMETRIC_REPRESENTATION_CONTEXT(2) 
PARAMETRIC_REPRESENTATION_CONTEXT() REPRESENTATION_CONTEXT('2D SPACE',''
  ) );
#43 = PCURVE('',#44,#49);
#44 = CYLINDRICAL_SURFACE('',#45,0.2);
#45 = AXIS2_PLACEMENT_3D('',#46,#47,#48);
#46 = CARTESIAN_POINT('',(12.8,1.8,-7.401486830835E-14));
#47 = DIRECTION('',(-5.782411586589E-15,0.,-1.));
#48 = DIRECTION('',(-1.,0.,5.782411586589E-15));
#49 = DEFINITIONAL_REPRESENTATION('',(#50),#54);
#50 = LINE('',#51,#52);
#51 = CARTESIAN_POINT('',(1.570796326795,0.));
#52 = VECTOR('',#53,1.);
#53 = DIRECTION('',(0.,1.));
#54 = ( GEOMETRIC_REPRESENTATION_CONTEXT(2) 
PARAMETRIC_REPRESENTATION_CONTEXT() REPRESENTATION_CONTEXT('2D SPACE',''
  ) );
#55 = ORIENTED_EDGE('',*,*,#56,.T.);
#56 = EDGE_CURVE('',#24,#57,#59,.T.);
#57 = VERTEX_POINT('',#58);
#58 = CARTESIAN_POINT('',(12.7,2.,10.62));
#59 = SURFACE_CURVE('',#60,(#64,#71),.PCURVE_S1.);
#60 = LINE('',#61,#62);
#61 = CARTESIAN_POINT('',(0.,2.,10.62));
#62 = VECTOR('',#63,1.);
#63 = DIRECTION('',(-1.,0.,0.));
#64 = PCURVE('',#32,#65);
#65 = DEFINITIONAL_REPRESENTATION('',(#66),#70);
#66 = LINE('',#67,#68);
#67 = CARTESIAN_POINT('',(-10.62,0.));
#68 = VECTOR('',#69,1.);
#69 = DIRECTION('',(0.,-1.));
#70 = ( GEOMETRIC_REPRESENTATION_CONTEXT(2) 
PARAMETRIC_REPRESENTATION_CONTEXT() REPRESENTATION_CONTEXT('2D SPACE',''
  ) );
#71 = PCURVE('',#72,#77);
#72 = CYLINDRICAL_SURFACE('',#73,0.2);
#73 = AXIS2_PLACEMENT_3D('',#74,#75,#76);
#74 = CARTESIAN_POINT('',(0.,1.8,10.62));
#75 = DIRECTION('',(-1.,0.,0.));
#76 = DIRECTION('',(0.,0.,1.));
#77 = DEFINITIONAL_REPRESENTATION('',(#78),#82);
#78 = LINE('',#79,#80);
#79 = CARTESIAN_POINT('',(1.570796326795,0.));
#80 = VECTOR('',#81,1.);
#81 = DIRECTION('',(0.,1.));
#82 = ( GEOMETRIC_REPRESENTATION_CONTEXT(2) 
PARAMETRIC_REPRESENTATION_CONTEXT() REPRESENTATION_CONTEXT('2D SPACE',''
  ) );
#83 = ORIENTED_EDGE('',*,*,#84,.T.);
#84 = EDGE_CURVE('',#57,#85,#87,.T.);
#85 = VERTEX_POINT('',#86);
#86 = CARTESIAN_POINT('',(12.7,2.,10.72));
#87 = SURFACE_CURVE('',#88,(#92,#99),.PCURVE_S1.);
#88 = LINE('',#89,#90);
#89 = CARTESIAN_POINT('',(12.700000000002,2.,1.615605797293E-12));
#90 = VECTOR('',#91,1.);
#91 = DIRECTION('',(-1.27213054905E-13,0.,1.));
#92 = PCURVE('',#32,#93);
#93 = DEFINITIONAL_REPRESENTATION('',(#94),#98);
#94 = LINE('',#95,#96);
#95 = CARTESIAN_POINT('',(-1.615605797293E-12,12.700000000002));
#96 = VECTOR('',#97,1.);
#97 = DIRECTION('',(-1.,-1.27213054905E-13));
#98 = ( GEOMETRIC_REPRESENTATION_CONTEXT(2) 
PARAMETRIC_REPRESENTATION_CONTEXT() REPRESENTATION_CONTEXT('2D SPACE',''
  ) );
#99 = PCURVE('',#100,#105);
#100 = CYLINDRICAL_SURFACE('',#101,0.2);
#101 = AXIS2_PLACEMENT_3D('',#102,#103,#104);
#102 = CARTESIAN_POINT('',(12.700000000002,1.8,1.615605797293E-12));
#103 = DIRECTION('',(-1.27213054905E-13,0.,1.));
#104 = DIRECTION('',(1.,0.,1.27213054905E-13));
#105 = DEFINITIONAL_REPRESENTATION('',(#106),#110);
#106 = LINE('',#107,#108);
#107 = CARTESIAN_POINT('',(1.570796326795,0.));
#108 = VECTOR('',#109,1.);
#109 = DIRECTION('',(0.,1.));
#110 = ( GEOMETRIC_REPRESENTATION_CONTEXT(2) 
PARAMETRIC_REPRESENTATION_CONTEXT() REPRESENTATION_CONTEXT('2D SPACE',''
  ) );
#111 = ORIENTED_EDGE('',*,*,#112,.T.);
#112 = EDGE_CURVE('',#85,#22,#113,.T.);
#113 = SURFACE_CURVE('',#114,(#118,#125),.PCURVE_S1.);
#114 = LINE('',#115,#116);
#115 = CARTESIAN_POINT('',(1.115774139748E-12,2.,10.720000000001));
#116 = VECTOR('',#117,1.);
#117 = DIRECTION('',(1.,0.,-1.040834085586E-13));
#118 = PCURVE('',#32,#119);
#119 = DEFINITIONAL_REPRESENTATION('',(#120),#124);
#120 = LINE('',#121,#122);
#121 = CARTESIAN_POINT('',(-10.72,1.115774139748E-12));
#122 = VECTOR('',#123,1.);
#123 = DIRECTION('',(1.040834085586E-13,1.));
#124 = ( GEOMETRIC_REPRESENTATION_CONTEXT(2) 
PARAMETRIC_REPRESENTATION_CONTEXT() REPRESENTATION_CONTEXT('2D SPACE',''
  ) );
#125 = PCURVE('',#126,#131);
#126 = CYLINDRICAL_SURFACE('',#127,0.2);
#127 = AXIS2_PLACEMENT_3D('',#128,#129,#130);
#128 = CARTESIAN_POINT('',(1.115774139748E-12,1.8,10.720000000001));
#129 = DIRECTION('',(1.,0.,-1.040834085586E-13));
#130 = DIRECTION('',(-1.040834085586E-13,0.,-1.));
#131 = DEFINITIONAL_REPRESENTATION('',(#132),#136);
#132 = LINE('',#133,#134);
#133 = CARTESIAN_POINT('',(1.570796326795,0.));
#134 = VECTOR('',#135,1.);
#135 = DIRECTION('',(0.,1.));
#136 = ( GEOMETRIC_REPRESENTATION_CONTEXT(2) 
PARAMETRIC_REPRESENTATION_CONTEXT() REPRESENTATION_CONTEXT('2D SPACE',''
  ) );
#137 = ADVANCED_FACE('',(#138),#126,.T.);
#138 = FACE_BOUND('',#139,.T.);
#139 = EDGE_LOOP('',(#140,#170,#225,#245,#246,#268));
#140 = ORIENTED_EDGE('',*,*,#141,.F.);
#141 = EDGE_CURVE('',#142,#144,#146,.T.);
#142 = VERTEX_POINT('',#143);
#143 = CARTESIAN_POINT('',(12.9,1.8,10.92));
#144 = VERTEX_POINT('',#145);
#145 = CARTESIAN_POINT('',(12.6,1.8,10.92));
#146 = SURFACE_CURVE('',#147,(#151,#158),.PCURVE_S1.);
#147 = LINE('',#148,#149);
#148 = CARTESIAN_POINT('',(12.6,1.8,10.92));
#149 = VECTOR('',#150,1.);
#150 = DIRECTION('',(-1.,0.,1.040834085586E-13));
#151 = PCURVE('',#126,#152);
#152 = DEFINITIONAL_REPRESENTATION('',(#153),#157);
#153 = LINE('',#154,#155);
#154 = CARTESIAN_POINT('',(3.14159265359,12.599999999999));
#155 = VECTOR('',#156,1.);
#156 = DIRECTION('',(0.,-1.));
#157 = ( GEOMETRIC_REPRESENTATION_CONTEXT(2) 
PARAMETRIC_REPRESENTATION_CONTEXT() REPRESENTATION_CONTEXT('2D SPACE',''
  ) );
#158 = PCURVE('',#159,#164);
#159 = PLANE('',#160);
#160 = AXIS2_PLACEMENT_3D('',#161,#162,#163);
#161 = CARTESIAN_POINT('',(12.6,2.,10.92));
#162 = DIRECTION('',(-1.040834085586E-13,0.,-1.));
#163 = DIRECTION('',(-1.,0.,1.040834085586E-13));
#164 = DEFINITIONAL_REPRESENTATION('',(#165),#169);
#165 = LINE('',#166,#167);
#166 = CARTESIAN_POINT('',(0.,-0.2));
#167 = VECTOR('',#168,1.);
#168 = DIRECTION('',(1.,0.));
#169 = ( GEOMETRIC_REPRESENTATION_CONTEXT(2) 
PARAMETRIC_REPRESENTATION_CONTEXT() REPRESENTATION_CONTEXT('2D SPACE',''
  ) );
#170 = ORIENTED_EDGE('',*,*,#171,.F.);
#171 = EDGE_CURVE('',#172,#142,#174,.T.);
#172 = VERTEX_POINT('',#173);
#173 = CARTESIAN_POINT('',(12.95,1.932287565553,10.87));
#174 = SURFACE_CURVE('',#175,(#180,#209),.PCURVE_S1.);
#175 = ELLIPSE('',#176,0.282842712471,0.199999999999);
#176 = AXIS2_PLACEMENT_3D('',#177,#178,#179);
#177 = CARTESIAN_POINT('',(13.099999999998,1.800000000001,
    10.720000000002));
#178 = DIRECTION('',(0.707106781187,1.095354589338E-14,0.707106781187));
#179 = DIRECTION('',(0.707106781187,6.564069365112E-12,-0.707106781187)
  );
#180 = PCURVE('',#126,#181);
#181 = DEFINITIONAL_REPRESENTATION('',(#182),#208);
#182 = B_SPLINE_CURVE_WITH_KNOTS('',3,(#183,#184,#185,#186,#187,#188,
    #189,#190,#191,#192,#193,#194,#195,#196,#197,#198,#199,#200,#201,
    #202,#203,#204,#205,#206,#207),.UNSPECIFIED.,.F.,.F.,(4,1,1,1,1,1,1,
    1,1,1,1,1,1,1,1,1,1,1,1,1,1,1,4),(2.418858405768,2.451709962487,
    2.484561519206,2.517413075925,2.550264632644,2.583116189363,
    2.615967746083,2.648819302802,2.681670859521,2.71452241624,
    2.747373972959,2.780225529679,2.813077086398,2.845928643117,
    2.878780199836,2.911631756555,2.944483313275,2.977334869994,
    3.010186426713,3.043037983432,3.075889540151,3.108741096871,
    3.14159265359),.QUASI_UNIFORM_KNOTS.);
#183 = CARTESIAN_POINT('',(2.418858405777,12.949999999999));
#184 = CARTESIAN_POINT('',(2.429808924683,12.948551367459));
#185 = CARTESIAN_POINT('',(2.451709962496,12.945708120646));
#186 = CARTESIAN_POINT('',(2.484561519215,12.941609709139));
#187 = CARTESIAN_POINT('',(2.517413075934,12.93768223222));
#188 = CARTESIAN_POINT('',(2.550264632653,12.933929913894));
#189 = CARTESIAN_POINT('',(2.583116189371,12.930356807209));
#190 = CARTESIAN_POINT('',(2.61596774609,12.926966766979));
#191 = CARTESIAN_POINT('',(2.648819302809,12.923763451766));
#192 = CARTESIAN_POINT('',(2.681670859528,12.920750318282));
#193 = CARTESIAN_POINT('',(2.714522416247,12.917930618103));
#194 = CARTESIAN_POINT('',(2.747373972966,12.91530739404));
#195 = CARTESIAN_POINT('',(2.780225529685,12.912883476889));
#196 = CARTESIAN_POINT('',(2.813077086404,12.910661482365));
#197 = CARTESIAN_POINT('',(2.845928643123,12.908643808284));
#198 = CARTESIAN_POINT('',(2.878780199842,12.906832631973));
#199 = CARTESIAN_POINT('',(2.911631756561,12.90522990793));
#200 = CARTESIAN_POINT('',(2.94448331328,12.903837365672));
#201 = CARTESIAN_POINT('',(2.977334869999,12.902656508025));
#202 = CARTESIAN_POINT('',(3.010186426718,12.901688608933));
#203 = CARTESIAN_POINT('',(3.043037983437,12.900934714199));
#204 = CARTESIAN_POINT('',(3.075889540156,12.900395632457));
#205 = CARTESIAN_POINT('',(3.108741096875,12.90007196379));
#206 = CARTESIAN_POINT('',(3.130642134688,12.899999980604));
#207 = CARTESIAN_POINT('',(3.141592653594,12.899999999999));
#208 = ( GEOMETRIC_REPRESENTATION_CONTEXT(2) 
PARAMETRIC_REPRESENTATION_CONTEXT() REPRESENTATION_CONTEXT('2D SPACE',''
  ) );
#209 = PCURVE('',#210,#215);
#210 = PLANE('',#211);
#211 = AXIS2_PLACEMENT_3D('',#212,#213,#214);
#212 = CARTESIAN_POINT('',(12.9,2.,10.92));
#213 = DIRECTION('',(-0.707106781187,0.,-0.707106781187));
#214 = DIRECTION('',(-0.707106781187,0.,0.707106781187));
#215 = DEFINITIONAL_REPRESENTATION('',(#216),#224);
#216 = ( BOUNDED_CURVE() B_SPLINE_CURVE(2,(#217,#218,#219,#220,#221,#222
,#223),.UNSPECIFIED.,.T.,.F.) B_SPLINE_CURVE_WITH_KNOTS((1,2,2,2,2,1),(
    -2.094395102393,0.,2.094395102393,4.188790204786,6.28318530718,
8.377580409573),.UNSPECIFIED.) CURVE() GEOMETRIC_REPRESENTATION_ITEM() 
RATIONAL_B_SPLINE_CURVE((1.,0.5,1.,0.5,1.,0.5,1.)) REPRESENTATION_ITEM(
  '') );
#217 = CARTESIAN_POINT('',(-0.565685424943,-0.199999999997));
#218 = CARTESIAN_POINT('',(-0.56568542494,0.146410161514));
#219 = CARTESIAN_POINT('',(-0.141421356235,-2.67949192443E-02));
#220 = CARTESIAN_POINT('',(0.282842712471,-0.200000000003));
#221 = CARTESIAN_POINT('',(-0.141421356237,-0.373205080756));
#222 = CARTESIAN_POINT('',(-0.565685424945,-0.546410161508));
#223 = CARTESIAN_POINT('',(-0.565685424943,-0.199999999997));
#224 = ( GEOMETRIC_REPRESENTATION_CONTEXT(2) 
PARAMETRIC_REPRESENTATION_CONTEXT() REPRESENTATION_CONTEXT('2D SPACE',''
  ) );
#225 = ORIENTED_EDGE('',*,*,#226,.F.);
#226 = EDGE_CURVE('',#22,#172,#227,.T.);
#227 = SURFACE_CURVE('',#228,(#233,#239),.PCURVE_S1.);
#228 = ELLIPSE('',#229,0.282842712473,0.199999999998);
#229 = AXIS2_PLACEMENT_3D('',#230,#231,#232);
#230 = CARTESIAN_POINT('',(12.800000000001,1.800000000002,
    10.720000000001));
#231 = DIRECTION('',(0.707106781186,-1.302454727747E-13,-0.707106781187)
  );
#232 = DIRECTION('',(0.707106781187,-5.844182515264E-12,0.707106781186)
  );
#233 = PCURVE('',#126,#234);
#234 = DEFINITIONAL_REPRESENTATION('',(#235),#238);
#235 = B_SPLINE_CURVE_WITH_KNOTS('',1,(#236,#237),.UNSPECIFIED.,.F.,.F.,
  (2,2),(4.712388980385,5.560451059363),.PIECEWISE_BEZIER_KNOTS.);
#236 = CARTESIAN_POINT('',(1.570796326803,12.800000000001));
#237 = CARTESIAN_POINT('',(2.418858405777,12.949999999999));
#238 = ( GEOMETRIC_REPRESENTATION_CONTEXT(2) 
PARAMETRIC_REPRESENTATION_CONTEXT() REPRESENTATION_CONTEXT('2D SPACE',''
  ) );
#239 = PCURVE('',#44,#240);
#240 = DEFINITIONAL_REPRESENTATION('',(#241),#244);
#241 = B_SPLINE_CURVE_WITH_KNOTS('',1,(#242,#243),.UNSPECIFIED.,.F.,.F.,
  (2,2),(4.712388980385,5.560451059363),.PIECEWISE_BEZIER_KNOTS.);
#242 = CARTESIAN_POINT('',(1.570796326803,-10.72));
#243 = CARTESIAN_POINT('',(2.418858405777,-10.87));
#244 = ( GEOMETRIC_REPRESENTATION_CONTEXT(2) 
PARAMETRIC_REPRESENTATION_CONTEXT() REPRESENTATION_CONTEXT('2D SPACE',''
  ) );
#245 = ORIENTED_EDGE('',*,*,#112,.F.);
#246 = ORIENTED_EDGE('',*,*,#247,.F.);
#247 = EDGE_CURVE('',#248,#85,#250,.T.);
#248 = VERTEX_POINT('',#249);
#249 = CARTESIAN_POINT('',(12.55,1.932287565553,10.87));
#250 = SURFACE_CURVE('',#251,(#256,#262),.PCURVE_S1.);
#251 = ELLIPSE('',#252,0.282842712474,0.199999999999);
#252 = AXIS2_PLACEMENT_3D('',#253,#254,#255);
#253 = CARTESIAN_POINT('',(12.7,1.800000000001,10.72));
#254 = DIRECTION('',(-0.707106781187,-1.532024086235E-13,-0.707106781187
    ));
#255 = DIRECTION('',(0.707106781187,1.808381952925E-12,-0.707106781187)
  );
#256 = PCURVE('',#126,#257);
#257 = DEFINITIONAL_REPRESENTATION('',(#258),#261);
#258 = B_SPLINE_CURVE_WITH_KNOTS('',1,(#259,#260),.UNSPECIFIED.,.F.,.F.,
  (2,2),(3.864326901405,4.712388980385),.PIECEWISE_BEZIER_KNOTS.);
#259 = CARTESIAN_POINT('',(2.418858405776,12.549999999999));
#260 = CARTESIAN_POINT('',(1.570796326798,12.699999999999));
#261 = ( GEOMETRIC_REPRESENTATION_CONTEXT(2) 
PARAMETRIC_REPRESENTATION_CONTEXT() REPRESENTATION_CONTEXT('2D SPACE',''
  ) );
#262 = PCURVE('',#100,#263);
#263 = DEFINITIONAL_REPRESENTATION('',(#264),#267);
#264 = B_SPLINE_CURVE_WITH_KNOTS('',1,(#265,#266),.UNSPECIFIED.,.F.,.F.,
  (2,2),(3.864326901405,4.712388980385),.PIECEWISE_BEZIER_KNOTS.);
#265 = CARTESIAN_POINT('',(2.418858405776,10.869999999998));
#266 = CARTESIAN_POINT('',(1.570796326797,10.719999999999));
#267 = ( GEOMETRIC_REPRESENTATION_CONTEXT(2) 
PARAMETRIC_REPRESENTATION_CONTEXT() REPRESENTATION_CONTEXT('2D SPACE',''
  ) );
#268 = ORIENTED_EDGE('',*,*,#269,.F.);
#269 = EDGE_CURVE('',#144,#248,#270,.T.);
#270 = SURFACE_CURVE('',#271,(#276,#305),.PCURVE_S1.);
#271 = ELLIPSE('',#272,0.282842712472,0.199999999999);
#272 = AXIS2_PLACEMENT_3D('',#273,#274,#275);
#273 = CARTESIAN_POINT('',(12.400000000002,1.800000000001,
    10.720000000002));
#274 = DIRECTION('',(-0.707106781187,0.,0.707106781187));
#275 = DIRECTION('',(0.707106781187,-4.585637951759E-12,0.707106781187)
  );
#276 = PCURVE('',#126,#277);
#277 = DEFINITIONAL_REPRESENTATION('',(#278),#304);
#278 = B_SPLINE_CURVE_WITH_KNOTS('',3,(#279,#280,#281,#282,#283,#284,
    #285,#286,#287,#288,#289,#290,#291,#292,#293,#294,#295,#296,#297,
    #298,#299,#300,#301,#302,#303),.UNSPECIFIED.,.F.,.F.,(4,1,1,1,1,1,1,
    1,1,1,1,1,1,1,1,1,1,1,1,1,1,1,4),(0.,3.285155671909E-02,
    6.570311343817E-02,9.855467015726E-02,0.131406226876,0.164257783595,
    0.197109340315,0.229960897034,0.262812453753,0.295664010472,
    0.328515567191,0.36136712391,0.394218680629,0.427070237348,
    0.459921794067,0.492773350786,0.525624907505,0.558476464224,
    0.591328020944,0.624179577663,0.657031134382,0.689882691101,
    0.72273424782),.QUASI_UNIFORM_KNOTS.);
#279 = CARTESIAN_POINT('',(3.141592653593,12.599999999999));
#280 = CARTESIAN_POINT('',(3.130642134687,12.600000019394));
#281 = CARTESIAN_POINT('',(3.108741096874,12.599928036208));
#282 = CARTESIAN_POINT('',(3.075889540155,12.599604367541));
#283 = CARTESIAN_POINT('',(3.043037983436,12.599065285799));
#284 = CARTESIAN_POINT('',(3.010186426717,12.598311391065));
#285 = CARTESIAN_POINT('',(2.977334869998,12.597343491973));
#286 = CARTESIAN_POINT('',(2.944483313279,12.596162634326));
#287 = CARTESIAN_POINT('',(2.911631756561,12.594770092068));
#288 = CARTESIAN_POINT('',(2.878780199842,12.593167368025));
#289 = CARTESIAN_POINT('',(2.845928643123,12.591356191714));
#290 = CARTESIAN_POINT('',(2.813077086404,12.589338517633));
#291 = CARTESIAN_POINT('',(2.780225529685,12.587116523109));
#292 = CARTESIAN_POINT('',(2.747373972966,12.584692605958));
#293 = CARTESIAN_POINT('',(2.714522416247,12.582069381895));
#294 = CARTESIAN_POINT('',(2.681670859528,12.579249681716));
#295 = CARTESIAN_POINT('',(2.648819302809,12.576236548232));
#296 = CARTESIAN_POINT('',(2.61596774609,12.573033233019));
#297 = CARTESIAN_POINT('',(2.583116189371,12.569643192789));
#298 = CARTESIAN_POINT('',(2.550264632652,12.566070086104));
#299 = CARTESIAN_POINT('',(2.517413075933,12.562317767778));
#300 = CARTESIAN_POINT('',(2.484561519214,12.55839029086));
#301 = CARTESIAN_POINT('',(2.451709962496,12.554291879352));
#302 = CARTESIAN_POINT('',(2.429808924683,12.551448632539));
#303 = CARTESIAN_POINT('',(2.418858405777,12.549999999999));
#304 = ( GEOMETRIC_REPRESENTATION_CONTEXT(2) 
PARAMETRIC_REPRESENTATION_CONTEXT() REPRESENTATION_CONTEXT('2D SPACE',''
  ) );
#305 = PCURVE('',#306,#311);
#306 = PLANE('',#307);
#307 = AXIS2_PLACEMENT_3D('',#308,#309,#310);
#308 = CARTESIAN_POINT('',(12.5,2.,10.82));
#309 = DIRECTION('',(0.707106781187,0.,-0.707106781187));
#310 = DIRECTION('',(-0.707106781187,0.,-0.707106781187));
#311 = DEFINITIONAL_REPRESENTATION('',(#312),#320);
#312 = ( BOUNDED_CURVE() B_SPLINE_CURVE(2,(#313,#314,#315,#316,#317,#318
,#319),.UNSPECIFIED.,.T.,.F.) B_SPLINE_CURVE_WITH_KNOTS((1,2,2,2,2,1),(
    -2.094395102393,0.,2.094395102393,4.188790204786,6.28318530718,
8.377580409573),.UNSPECIFIED.) CURVE() GEOMETRIC_REPRESENTATION_ITEM() 
RATIONAL_B_SPLINE_CURVE((1.,0.5,1.,0.5,1.,0.5,1.)) REPRESENTATION_ITEM(
  '') );
#313 = CARTESIAN_POINT('',(-0.141421356237,-0.200000000001));
#314 = CARTESIAN_POINT('',(-0.141421356239,0.146410161511));
#315 = CARTESIAN_POINT('',(0.28284271247,-2.679491924269E-02));
#316 = CARTESIAN_POINT('',(0.707106781179,-0.199999999997));
#317 = CARTESIAN_POINT('',(0.282842712472,-0.373205080755));
#318 = CARTESIAN_POINT('',(-0.141421356236,-0.546410161513));
#319 = CARTESIAN_POINT('',(-0.141421356237,-0.200000000001));
#320 = ( GEOMETRIC_REPRESENTATION_CONTEXT(2) 
PARAMETRIC_REPRESENTATION_CONTEXT() REPRESENTATION_CONTEXT('2D SPACE',''
  ) );
#321 = ADVANCED_FACE('',(#322),#44,.T.);
#322 = FACE_BOUND('',#323,.T.);
#323 = EDGE_LOOP('',(#324,#354,#409,#429,#430,#431));
#324 = ORIENTED_EDGE('',*,*,#325,.F.);
#325 = EDGE_CURVE('',#326,#328,#330,.T.);
#326 = VERTEX_POINT('',#327);
#327 = CARTESIAN_POINT('',(13.,1.8,10.52));
#328 = VERTEX_POINT('',#329);
#329 = CARTESIAN_POINT('',(13.,1.8,10.82));
#330 = SURFACE_CURVE('',#331,(#335,#342),.PCURVE_S1.);
#331 = LINE('',#332,#333);
#332 = CARTESIAN_POINT('',(13.,1.8,10.82));
#333 = VECTOR('',#334,1.);
#334 = DIRECTION('',(5.782411586589E-15,0.,1.));
#335 = PCURVE('',#44,#336);
#336 = DEFINITIONAL_REPRESENTATION('',(#337),#341);
#337 = LINE('',#338,#339);
#338 = CARTESIAN_POINT('',(3.14159265359,-10.82));
#339 = VECTOR('',#340,1.);
#340 = DIRECTION('',(0.,-1.));
#341 = ( GEOMETRIC_REPRESENTATION_CONTEXT(2) 
PARAMETRIC_REPRESENTATION_CONTEXT() REPRESENTATION_CONTEXT('2D SPACE',''
  ) );
#342 = PCURVE('',#343,#348);
#343 = PLANE('',#344);
#344 = AXIS2_PLACEMENT_3D('',#345,#346,#347);
#345 = CARTESIAN_POINT('',(13.,2.,10.82));
#346 = DIRECTION('',(-1.,0.,5.782411586589E-15));
#347 = DIRECTION('',(5.782411586589E-15,0.,1.));
#348 = DEFINITIONAL_REPRESENTATION('',(#349),#353);
#349 = LINE('',#350,#351);
#350 = CARTESIAN_POINT('',(0.,-0.2));
#351 = VECTOR('',#352,1.);
#352 = DIRECTION('',(1.,0.));
#353 = ( GEOMETRIC_REPRESENTATION_CONTEXT(2) 
PARAMETRIC_REPRESENTATION_CONTEXT() REPRESENTATION_CONTEXT('2D SPACE',''
  ) );
#354 = ORIENTED_EDGE('',*,*,#355,.F.);
#355 = EDGE_CURVE('',#356,#326,#358,.T.);
#356 = VERTEX_POINT('',#357);
#357 = CARTESIAN_POINT('',(12.95,1.932287565553,10.47));
#358 = SURFACE_CURVE('',#359,(#364,#393),.PCURVE_S1.);
#359 = ELLIPSE('',#360,0.282842712477,0.200000000001);
#360 = AXIS2_PLACEMENT_3D('',#361,#362,#363);
#361 = CARTESIAN_POINT('',(12.799999999998,1.799999999999,
    10.319999999998));
#362 = DIRECTION('',(0.707106781187,3.17275122429E-14,-0.707106781187));
#363 = DIRECTION('',(0.707106781187,4.44043450313E-12,0.707106781187));
#364 = PCURVE('',#44,#365);
#365 = DEFINITIONAL_REPRESENTATION('',(#366),#392);
#366 = B_SPLINE_CURVE_WITH_KNOTS('',3,(#367,#368,#369,#370,#371,#372,
    #373,#374,#375,#376,#377,#378,#379,#380,#381,#382,#383,#384,#385,
    #386,#387,#388,#389,#390,#391),.UNSPECIFIED.,.F.,.F.,(4,1,1,1,1,1,1,
    1,1,1,1,1,1,1,1,1,1,1,1,1,1,1,4),(5.560451059373,5.593302616091,
    5.62615417281,5.659005729528,5.691857286247,5.724708842965,
    5.757560399684,5.790411956402,5.823263513121,5.856115069839,
    5.888966626558,5.921818183276,5.954669739995,5.987521296713,
    6.020372853432,6.05322441015,6.086075966869,6.118927523587,
    6.151779080306,6.184630637024,6.217482193743,6.250333750461,
    6.28318530718),.QUASI_UNIFORM_KNOTS.);
#367 = CARTESIAN_POINT('',(2.418858405777,-10.47));
#368 = CARTESIAN_POINT('',(2.429808924683,-10.47144863254));
#369 = CARTESIAN_POINT('',(2.451709962495,-10.47429187935));
#370 = CARTESIAN_POINT('',(2.484561519214,-10.47839029086));
#371 = CARTESIAN_POINT('',(2.517413075933,-10.48231776777));
#372 = CARTESIAN_POINT('',(2.550264632651,-10.4860700861));
#373 = CARTESIAN_POINT('',(2.58311618937,-10.48964319279));
#374 = CARTESIAN_POINT('',(2.615967746088,-10.49303323302));
#375 = CARTESIAN_POINT('',(2.648819302807,-10.49623654823));
#376 = CARTESIAN_POINT('',(2.681670859526,-10.49924968171));
#377 = CARTESIAN_POINT('',(2.714522416244,-10.50206938189));
#378 = CARTESIAN_POINT('',(2.747373972963,-10.50469260595));
#379 = CARTESIAN_POINT('',(2.780225529682,-10.50711652311));
#380 = CARTESIAN_POINT('',(2.8130770864,-10.50933851763));
#381 = CARTESIAN_POINT('',(2.845928643119,-10.51135619171));
#382 = CARTESIAN_POINT('',(2.878780199838,-10.51316736802));
#383 = CARTESIAN_POINT('',(2.911631756556,-10.51477009206));
#384 = CARTESIAN_POINT('',(2.944483313275,-10.51616263432));
#385 = CARTESIAN_POINT('',(2.977334869994,-10.51734349197));
#386 = CARTESIAN_POINT('',(3.010186426712,-10.51831139106));
#387 = CARTESIAN_POINT('',(3.043037983431,-10.5190652858));
#388 = CARTESIAN_POINT('',(3.075889540149,-10.51960436754));
#389 = CARTESIAN_POINT('',(3.108741096868,-10.5199280362));
#390 = CARTESIAN_POINT('',(3.130642134681,-10.52000001939));
#391 = CARTESIAN_POINT('',(3.141592653587,-10.52));
#392 = ( GEOMETRIC_REPRESENTATION_CONTEXT(2) 
PARAMETRIC_REPRESENTATION_CONTEXT() REPRESENTATION_CONTEXT('2D SPACE',''
  ) );
#393 = PCURVE('',#394,#399);
#394 = PLANE('',#395);
#395 = AXIS2_PLACEMENT_3D('',#396,#397,#398);
#396 = CARTESIAN_POINT('',(12.9,2.,10.42));
#397 = DIRECTION('',(-0.707106781187,0.,0.707106781187));
#398 = DIRECTION('',(0.707106781187,0.,0.707106781187));
#399 = DEFINITIONAL_REPRESENTATION('',(#400),#408);
#400 = ( BOUNDED_CURVE() B_SPLINE_CURVE(2,(#401,#402,#403,#404,#405,#406
,#407),.UNSPECIFIED.,.T.,.F.) B_SPLINE_CURVE_WITH_KNOTS((1,2,2,2,2,1),(
    -2.094395102393,0.,2.094395102393,4.188790204786,6.28318530718,
8.377580409573),.UNSPECIFIED.) CURVE() GEOMETRIC_REPRESENTATION_ITEM() 
RATIONAL_B_SPLINE_CURVE((1.,0.5,1.,0.5,1.,0.5,1.)) REPRESENTATION_ITEM(
  '') );
#401 = CARTESIAN_POINT('',(0.141421356237,-0.199999999999));
#402 = CARTESIAN_POINT('',(0.141421356239,-0.546410161515));
#403 = CARTESIAN_POINT('',(-0.282842712477,-0.373205080759));
#404 = CARTESIAN_POINT('',(-0.707106781194,-0.200000000003));
#405 = CARTESIAN_POINT('',(-0.282842712479,-2.679491924353E-02));
#406 = CARTESIAN_POINT('',(0.141421356236,0.146410161516));
#407 = CARTESIAN_POINT('',(0.141421356237,-0.199999999999));
#408 = ( GEOMETRIC_REPRESENTATION_CONTEXT(2) 
PARAMETRIC_REPRESENTATION_CONTEXT() REPRESENTATION_CONTEXT('2D SPACE',''
  ) );
#409 = ORIENTED_EDGE('',*,*,#410,.F.);
#410 = EDGE_CURVE('',#24,#356,#411,.T.);
#411 = SURFACE_CURVE('',#412,(#417,#423),.PCURVE_S1.);
#412 = ELLIPSE('',#413,0.282842712474,0.2);
#413 = AXIS2_PLACEMENT_3D('',#414,#415,#416);
#414 = CARTESIAN_POINT('',(12.8,1.8,10.62));
#415 = DIRECTION('',(-0.707106781187,0.,-0.707106781187));
#416 = DIRECTION('',(0.707106781187,-1.679635490384E-12,-0.707106781187)
  );
#417 = PCURVE('',#44,#418);
#418 = DEFINITIONAL_REPRESENTATION('',(#419),#422);
#419 = B_SPLINE_CURVE_WITH_KNOTS('',1,(#420,#421),.UNSPECIFIED.,.F.,.F.,
  (2,2),(4.712388980385,5.560451059365),.PIECEWISE_BEZIER_KNOTS.);
#420 = CARTESIAN_POINT('',(1.570796326797,-10.62));
#421 = CARTESIAN_POINT('',(2.418858405776,-10.47));
#422 = ( GEOMETRIC_REPRESENTATION_CONTEXT(2) 
PARAMETRIC_REPRESENTATION_CONTEXT() REPRESENTATION_CONTEXT('2D SPACE',''
  ) );
#423 = PCURVE('',#72,#424);
#424 = DEFINITIONAL_REPRESENTATION('',(#425),#428);
#425 = B_SPLINE_CURVE_WITH_KNOTS('',1,(#426,#427),.UNSPECIFIED.,.F.,.F.,
  (2,2),(4.712388980385,5.560451059365),.PIECEWISE_BEZIER_KNOTS.);
#426 = CARTESIAN_POINT('',(1.570796326798,-12.8));
#427 = CARTESIAN_POINT('',(2.418858405777,-12.95));
#428 = ( GEOMETRIC_REPRESENTATION_CONTEXT(2) 
PARAMETRIC_REPRESENTATION_CONTEXT() REPRESENTATION_CONTEXT('2D SPACE',''
  ) );
#429 = ORIENTED_EDGE('',*,*,#21,.F.);
#430 = ORIENTED_EDGE('',*,*,#226,.T.);
#431 = ORIENTED_EDGE('',*,*,#432,.F.);
#432 = EDGE_CURVE('',#328,#172,#433,.T.);
#433 = SURFACE_CURVE('',#434,(#439,#468),.PCURVE_S1.);
#434 = ELLIPSE('',#435,0.282842712474,0.2);
#435 = AXIS2_PLACEMENT_3D('',#436,#437,#438);
#436 = CARTESIAN_POINT('',(12.800000000001,1.8,11.02));
#437 = DIRECTION('',(0.707106781187,0.,0.707106781187));
#438 = DIRECTION('',(0.707106781187,-6.50071687222E-13,-0.707106781187)
  );
#439 = PCURVE('',#44,#440);
#440 = DEFINITIONAL_REPRESENTATION('',(#441),#467);
#441 = B_SPLINE_CURVE_WITH_KNOTS('',3,(#442,#443,#444,#445,#446,#447,
    #448,#449,#450,#451,#452,#453,#454,#455,#456,#457,#458,#459,#460,
    #461,#462,#463,#464,#465,#466),.UNSPECIFIED.,.F.,.F.,(4,1,1,1,1,1,1,
    1,1,1,1,1,1,1,1,1,1,1,1,1,1,1,4),(0.,3.285155671886E-02,
    6.570311343771E-02,9.855467015657E-02,0.131406226875,0.164257783594,
    0.197109340313,0.229960897032,0.262812453751,0.29566401047,
    0.328515567189,0.361367123907,0.394218680626,0.427070237345,
    0.459921794064,0.492773350783,0.525624907502,0.558476464221,
    0.591328020939,0.624179577658,0.657031134377,0.689882691096,
    0.722734247815),.QUASI_UNIFORM_KNOTS.);
#442 = CARTESIAN_POINT('',(3.14159265359,-10.82));
#443 = CARTESIAN_POINT('',(3.130642134684,-10.8199999806));
#444 = CARTESIAN_POINT('',(3.108741096872,-10.82007196379));
#445 = CARTESIAN_POINT('',(3.075889540153,-10.82039563245));
#446 = CARTESIAN_POINT('',(3.043037983434,-10.8209347142));
#447 = CARTESIAN_POINT('',(3.010186426715,-10.82168860893));
#448 = CARTESIAN_POINT('',(2.977334869996,-10.82265650802));
#449 = CARTESIAN_POINT('',(2.944483313277,-10.82383736567));
#450 = CARTESIAN_POINT('',(2.911631756559,-10.82522990793));
#451 = CARTESIAN_POINT('',(2.87878019984,-10.82683263197));
#452 = CARTESIAN_POINT('',(2.845928643121,-10.82864380828));
#453 = CARTESIAN_POINT('',(2.813077086402,-10.83066148236));
#454 = CARTESIAN_POINT('',(2.780225529683,-10.83288347689));
#455 = CARTESIAN_POINT('',(2.747373972965,-10.83530739404));
#456 = CARTESIAN_POINT('',(2.714522416246,-10.8379306181));
#457 = CARTESIAN_POINT('',(2.681670859527,-10.84075031828));
#458 = CARTESIAN_POINT('',(2.648819302808,-10.84376345176));
#459 = CARTESIAN_POINT('',(2.615967746089,-10.84696676698));
#460 = CARTESIAN_POINT('',(2.583116189371,-10.85035680721));
#461 = CARTESIAN_POINT('',(2.550264632652,-10.85392991389));
#462 = CARTESIAN_POINT('',(2.517413075933,-10.85768223222));
#463 = CARTESIAN_POINT('',(2.484561519214,-10.86160970914));
#464 = CARTESIAN_POINT('',(2.451709962495,-10.86570812064));
#465 = CARTESIAN_POINT('',(2.429808924683,-10.86855136746));
#466 = CARTESIAN_POINT('',(2.418858405777,-10.87));
#467 = ( GEOMETRIC_REPRESENTATION_CONTEXT(2) 
PARAMETRIC_REPRESENTATION_CONTEXT() REPRESENTATION_CONTEXT('2D SPACE',''
  ) );
#468 = PCURVE('',#210,#469);
#469 = DEFINITIONAL_REPRESENTATION('',(#470),#478);
#470 = ( BOUNDED_CURVE() B_SPLINE_CURVE(2,(#471,#472,#473,#474,#475,#476
,#477),.UNSPECIFIED.,.T.,.F.) B_SPLINE_CURVE_WITH_KNOTS((1,2,2,2,2,1),(
    -2.094395102393,0.,2.094395102393,4.188790204786,6.28318530718,
8.377580409573),.UNSPECIFIED.) CURVE() GEOMETRIC_REPRESENTATION_ITEM() 
RATIONAL_B_SPLINE_CURVE((1.,0.5,1.,0.5,1.,0.5,1.)) REPRESENTATION_ITEM(
  '') );
#471 = CARTESIAN_POINT('',(-0.141421356237,-0.2));
#472 = CARTESIAN_POINT('',(-0.141421356238,0.146410161513));
#473 = CARTESIAN_POINT('',(0.282842712473,-2.679491924313E-02));
#474 = CARTESIAN_POINT('',(0.707106781184,-0.2));
#475 = CARTESIAN_POINT('',(0.282842712474,-0.373205080757));
#476 = CARTESIAN_POINT('',(-0.141421356237,-0.546410161514));
#477 = CARTESIAN_POINT('',(-0.141421356237,-0.2));
#478 = ( GEOMETRIC_REPRESENTATION_CONTEXT(2) 
PARAMETRIC_REPRESENTATION_CONTEXT() REPRESENTATION_CONTEXT('2D SPACE',''
  ) );
#479 = ADVANCED_FACE('',(#480),#72,.T.);
#480 = FACE_BOUND('',#481,.T.);
#481 = EDGE_LOOP('',(#482,#532,#560,#615,#635,#636));
#482 = ORIENTED_EDGE('',*,*,#483,.F.);
#483 = EDGE_CURVE('',#484,#356,#486,.T.);
#484 = VERTEX_POINT('',#485);
#485 = CARTESIAN_POINT('',(12.9,1.8,10.42));
#486 = SURFACE_CURVE('',#487,(#492,#521),.PCURVE_S1.);
#487 = ELLIPSE('',#488,0.282842712482,0.200000000003);
#488 = AXIS2_PLACEMENT_3D('',#489,#490,#491);
#489 = CARTESIAN_POINT('',(13.100000000006,1.799999999998,
    10.620000000006));
#490 = DIRECTION('',(0.707106781187,-6.518618834825E-14,-0.707106781186)
  );
#491 = DIRECTION('',(0.707106781186,-1.446005210633E-11,0.707106781187)
  );
#492 = PCURVE('',#72,#493);
#493 = DEFINITIONAL_REPRESENTATION('',(#494),#520);
#494 = B_SPLINE_CURVE_WITH_KNOTS('',3,(#495,#496,#497,#498,#499,#500,
    #501,#502,#503,#504,#505,#506,#507,#508,#509,#510,#511,#512,#513,
    #514,#515,#516,#517,#518,#519),.UNSPECIFIED.,.F.,.F.,(4,1,1,1,1,1,1,
    1,1,1,1,1,1,1,1,1,1,1,1,1,1,1,4),(3.14159265359,3.174444210308,
    3.207295767025,3.240147323743,3.272998880461,3.305850437179,
    3.338701993897,3.371553550615,3.404405107333,3.43725666405,
    3.470108220768,3.502959777486,3.535811334204,3.568662890922,
    3.60151444764,3.634366004358,3.667217561075,3.700069117793,
    3.732920674511,3.765772231229,3.798623787947,3.831475344665,
    3.864326901383),.QUASI_UNIFORM_KNOTS.);
#495 = CARTESIAN_POINT('',(3.14159265358,-12.9));
#496 = CARTESIAN_POINT('',(3.130642134674,-12.8999999806));
#497 = CARTESIAN_POINT('',(3.108741096861,-12.90007196379));
#498 = CARTESIAN_POINT('',(3.075889540143,-12.90039563245));
#499 = CARTESIAN_POINT('',(3.043037983425,-12.9009347142));
#500 = CARTESIAN_POINT('',(3.010186426706,-12.90168860893));
#501 = CARTESIAN_POINT('',(2.977334869988,-12.90265650802));
#502 = CARTESIAN_POINT('',(2.94448331327,-12.90383736567));
#503 = CARTESIAN_POINT('',(2.911631756551,-12.90522990793));
#504 = CARTESIAN_POINT('',(2.878780199833,-12.90683263197));
#505 = CARTESIAN_POINT('',(2.845928643115,-12.90864380828));
#506 = CARTESIAN_POINT('',(2.813077086396,-12.91066148236));
#507 = CARTESIAN_POINT('',(2.780225529678,-12.91288347689));
#508 = CARTESIAN_POINT('',(2.74737397296,-12.91530739404));
#509 = CARTESIAN_POINT('',(2.714522416242,-12.9179306181));
#510 = CARTESIAN_POINT('',(2.681670859523,-12.92075031828));
#511 = CARTESIAN_POINT('',(2.648819302805,-12.92376345176));
#512 = CARTESIAN_POINT('',(2.615967746087,-12.92696676698));
#513 = CARTESIAN_POINT('',(2.583116189368,-12.93035680721));
#514 = CARTESIAN_POINT('',(2.55026463265,-12.93392991389));
#515 = CARTESIAN_POINT('',(2.517413075932,-12.93768223222));
#516 = CARTESIAN_POINT('',(2.484561519213,-12.94160970914));
#517 = CARTESIAN_POINT('',(2.451709962495,-12.94570812064));
#518 = CARTESIAN_POINT('',(2.429808924683,-12.94855136746));
#519 = CARTESIAN_POINT('',(2.418858405777,-12.95));
#520 = ( GEOMETRIC_REPRESENTATION_CONTEXT(2) 
PARAMETRIC_REPRESENTATION_CONTEXT() REPRESENTATION_CONTEXT('2D SPACE',''
  ) );
#521 = PCURVE('',#394,#522);
#522 = DEFINITIONAL_REPRESENTATION('',(#523),#531);
#523 = ( BOUNDED_CURVE() B_SPLINE_CURVE(2,(#524,#525,#526,#527,#528,#529
,#530),.UNSPECIFIED.,.T.,.F.) B_SPLINE_CURVE_WITH_KNOTS((1,2,2,2,2,1),(
    -2.094395102393,0.,2.094395102393,4.188790204786,6.28318530718,
8.377580409573),.UNSPECIFIED.) CURVE() GEOMETRIC_REPRESENTATION_ITEM() 
RATIONAL_B_SPLINE_CURVE((1.,0.5,1.,0.5,1.,0.5,1.)) REPRESENTATION_ITEM(
  '') );
#524 = CARTESIAN_POINT('',(0.565685424965,-0.200000000006));
#525 = CARTESIAN_POINT('',(0.56568542496,-0.546410161526));
#526 = CARTESIAN_POINT('',(0.141421356239,-0.37320508076));
#527 = CARTESIAN_POINT('',(-0.282842712482,-0.199999999994));
#528 = CARTESIAN_POINT('',(0.141421356244,-2.679491924038E-02));
#529 = CARTESIAN_POINT('',(0.56568542497,0.146410161513));
#530 = CARTESIAN_POINT('',(0.565685424965,-0.200000000006));
#531 = ( GEOMETRIC_REPRESENTATION_CONTEXT(2) 
PARAMETRIC_REPRESENTATION_CONTEXT() REPRESENTATION_CONTEXT('2D SPACE',''
  ) );
#532 = ORIENTED_EDGE('',*,*,#533,.F.);
#533 = EDGE_CURVE('',#534,#484,#536,.T.);
#534 = VERTEX_POINT('',#535);
#535 = CARTESIAN_POINT('',(12.6,1.8,10.42));
#536 = SURFACE_CURVE('',#537,(#541,#548),.PCURVE_S1.);
#537 = LINE('',#538,#539);
#538 = CARTESIAN_POINT('',(12.6,1.8,10.42));
#539 = VECTOR('',#540,1.);
#540 = DIRECTION('',(1.,0.,0.));
#541 = PCURVE('',#72,#542);
#542 = DEFINITIONAL_REPRESENTATION('',(#543),#547);
#543 = LINE('',#544,#545);
#544 = CARTESIAN_POINT('',(3.14159265359,-12.6));
#545 = VECTOR('',#546,1.);
#546 = DIRECTION('',(0.,-1.));
#547 = ( GEOMETRIC_REPRESENTATION_CONTEXT(2) 
PARAMETRIC_REPRESENTATION_CONTEXT() REPRESENTATION_CONTEXT('2D SPACE',''
  ) );
#548 = PCURVE('',#549,#554);
#549 = PLANE('',#550);
#550 = AXIS2_PLACEMENT_3D('',#551,#552,#553);
#551 = CARTESIAN_POINT('',(12.6,2.,10.42));
#552 = DIRECTION('',(0.,0.,1.));
#553 = DIRECTION('',(1.,0.,-0.));
#554 = DEFINITIONAL_REPRESENTATION('',(#555),#559);
#555 = LINE('',#556,#557);
#556 = CARTESIAN_POINT('',(0.,-0.2));
#557 = VECTOR('',#558,1.);
#558 = DIRECTION('',(1.,0.));
#559 = ( GEOMETRIC_REPRESENTATION_CONTEXT(2) 
PARAMETRIC_REPRESENTATION_CONTEXT() REPRESENTATION_CONTEXT('2D SPACE',''
  ) );
#560 = ORIENTED_EDGE('',*,*,#561,.F.);
#561 = EDGE_CURVE('',#562,#534,#564,.T.);
#562 = VERTEX_POINT('',#563);
#563 = CARTESIAN_POINT('',(12.55,1.932287565553,10.47));
#564 = SURFACE_CURVE('',#565,(#570,#599),.PCURVE_S1.);
#565 = ELLIPSE('',#566,0.282842712478,0.200000000002);
#566 = AXIS2_PLACEMENT_3D('',#567,#568,#569);
#567 = CARTESIAN_POINT('',(12.399999999997,1.799999999999,
    10.620000000003));
#568 = DIRECTION('',(-0.707106781187,-2.089986917588E-14,-0.707106781187
    ));
#569 = DIRECTION('',(0.707106781187,7.256102804397E-12,-0.707106781187)
  );
#570 = PCURVE('',#72,#571);
#571 = DEFINITIONAL_REPRESENTATION('',(#572),#598);
#572 = B_SPLINE_CURVE_WITH_KNOTS('',3,(#573,#574,#575,#576,#577,#578,
    #579,#580,#581,#582,#583,#584,#585,#586,#587,#588,#589,#590,#591,
    #592,#593,#594,#595,#596,#597),.UNSPECIFIED.,.F.,.F.,(4,1,1,1,1,1,1,
    1,1,1,1,1,1,1,1,1,1,1,1,1,1,1,4),(5.560451059377,5.593302616095,
    5.626154172813,5.659005729531,5.69185728625,5.724708842968,
    5.757560399686,5.790411956405,5.823263513123,5.856115069841,
    5.88896662656,5.921818183278,5.954669739996,5.987521296715,
    6.020372853433,6.053224410151,6.08607596687,6.118927523588,
    6.151779080306,6.184630637025,6.217482193743,6.250333750461,
    6.28318530718),.QUASI_UNIFORM_KNOTS.);
#573 = CARTESIAN_POINT('',(2.418858405776,-12.55));
#574 = CARTESIAN_POINT('',(2.429808924683,-12.55144863254));
#575 = CARTESIAN_POINT('',(2.451709962495,-12.55429187935));
#576 = CARTESIAN_POINT('',(2.484561519214,-12.55839029086));
#577 = CARTESIAN_POINT('',(2.517413075932,-12.56231776777));
#578 = CARTESIAN_POINT('',(2.550264632651,-12.5660700861));
#579 = CARTESIAN_POINT('',(2.583116189369,-12.56964319279));
#580 = CARTESIAN_POINT('',(2.615967746088,-12.57303323302));
#581 = CARTESIAN_POINT('',(2.648819302806,-12.57623654823));
#582 = CARTESIAN_POINT('',(2.681670859525,-12.57924968171));
#583 = CARTESIAN_POINT('',(2.714522416244,-12.58206938189));
#584 = CARTESIAN_POINT('',(2.747373972962,-12.58469260595));
#585 = CARTESIAN_POINT('',(2.780225529681,-12.58711652311));
#586 = CARTESIAN_POINT('',(2.813077086399,-12.58933851763));
#587 = CARTESIAN_POINT('',(2.845928643118,-12.59135619171));
#588 = CARTESIAN_POINT('',(2.878780199836,-12.59316736802));
#589 = CARTESIAN_POINT('',(2.911631756555,-12.59477009206));
#590 = CARTESIAN_POINT('',(2.944483313273,-12.59616263432));
#591 = CARTESIAN_POINT('',(2.977334869992,-12.59734349197));
#592 = CARTESIAN_POINT('',(3.010186426711,-12.59831139106));
#593 = CARTESIAN_POINT('',(3.043037983429,-12.5990652858));
#594 = CARTESIAN_POINT('',(3.075889540148,-12.59960436754));
#595 = CARTESIAN_POINT('',(3.108741096866,-12.59992803621));
#596 = CARTESIAN_POINT('',(3.130642134679,-12.60000001939));
#597 = CARTESIAN_POINT('',(3.141592653585,-12.6));
#598 = ( GEOMETRIC_REPRESENTATION_CONTEXT(2) 
PARAMETRIC_REPRESENTATION_CONTEXT() REPRESENTATION_CONTEXT('2D SPACE',''
  ) );
#599 = PCURVE('',#600,#605);
#600 = PLANE('',#601);
#601 = AXIS2_PLACEMENT_3D('',#602,#603,#604);
#602 = CARTESIAN_POINT('',(12.5,2.,10.52));
#603 = DIRECTION('',(0.707106781187,0.,0.707106781187));
#604 = DIRECTION('',(0.707106781187,0.,-0.707106781187));
#605 = DEFINITIONAL_REPRESENTATION('',(#606),#614);
#606 = ( BOUNDED_CURVE() B_SPLINE_CURVE(2,(#607,#608,#609,#610,#611,#612
,#613),.UNSPECIFIED.,.T.,.F.) B_SPLINE_CURVE_WITH_KNOTS((1,2,2,2,2,1),(
    -2.094395102393,0.,2.094395102393,4.188790204786,6.28318530718,
8.377580409573),.UNSPECIFIED.) CURVE() GEOMETRIC_REPRESENTATION_ITEM() 
RATIONAL_B_SPLINE_CURVE((1.,0.5,1.,0.5,1.,0.5,1.)) REPRESENTATION_ITEM(
  '') );
#607 = CARTESIAN_POINT('',(0.141421356237,-0.199999999999));
#608 = CARTESIAN_POINT('',(0.14142135624,-0.546410161516));
#609 = CARTESIAN_POINT('',(-0.282842712479,-0.37320508076));
#610 = CARTESIAN_POINT('',(-0.707106781198,-0.200000000005));
#611 = CARTESIAN_POINT('',(-0.282842712482,-2.679491924383E-02));
#612 = CARTESIAN_POINT('',(0.141421356235,0.146410161518));
#613 = CARTESIAN_POINT('',(0.141421356237,-0.199999999999));
#614 = ( GEOMETRIC_REPRESENTATION_CONTEXT(2) 
PARAMETRIC_REPRESENTATION_CONTEXT() REPRESENTATION_CONTEXT('2D SPACE',''
  ) );
#615 = ORIENTED_EDGE('',*,*,#616,.T.);
#616 = EDGE_CURVE('',#562,#57,#617,.T.);
#617 = SURFACE_CURVE('',#618,(#623,#629),.PCURVE_S1.);
#618 = ELLIPSE('',#619,0.282842712474,0.2);
#619 = AXIS2_PLACEMENT_3D('',#620,#621,#622);
#620 = CARTESIAN_POINT('',(12.7,1.800000000001,10.62));
#621 = DIRECTION('',(0.707106781187,-1.264974016157E-14,-0.707106781187)
  );
#622 = DIRECTION('',(0.707106781187,1.624415335822E-12,0.707106781187));
#623 = PCURVE('',#72,#624);
#624 = DEFINITIONAL_REPRESENTATION('',(#625),#628);
#625 = B_SPLINE_CURVE_WITH_KNOTS('',1,(#626,#627),.UNSPECIFIED.,.F.,.F.,
  (2,2),(3.864326901404,4.712388980385),.PIECEWISE_BEZIER_KNOTS.);
#626 = CARTESIAN_POINT('',(2.418858405776,-12.55));
#627 = CARTESIAN_POINT('',(1.570796326797,-12.7));
#628 = ( GEOMETRIC_REPRESENTATION_CONTEXT(2) 
PARAMETRIC_REPRESENTATION_CONTEXT() REPRESENTATION_CONTEXT('2D SPACE',''
  ) );
#629 = PCURVE('',#100,#630);
#630 = DEFINITIONAL_REPRESENTATION('',(#631),#634);
#631 = B_SPLINE_CURVE_WITH_KNOTS('',1,(#632,#633),.UNSPECIFIED.,.F.,.F.,
  (2,2),(3.864326901404,4.712388980385),.PIECEWISE_BEZIER_KNOTS.);
#632 = CARTESIAN_POINT('',(2.418858405776,10.469999999998));
#633 = CARTESIAN_POINT('',(1.570796326797,10.619999999998));
#634 = ( GEOMETRIC_REPRESENTATION_CONTEXT(2) 
PARAMETRIC_REPRESENTATION_CONTEXT() REPRESENTATION_CONTEXT('2D SPACE',''
  ) );
#635 = ORIENTED_EDGE('',*,*,#56,.F.);
#636 = ORIENTED_EDGE('',*,*,#410,.T.);
#637 = ADVANCED_FACE('',(#638),#100,.T.);
#638 = FACE_BOUND('',#639,.T.);
#639 = EDGE_LOOP('',(#640,#641,#642,#643,#693,#721));
#640 = ORIENTED_EDGE('',*,*,#247,.T.);
#641 = ORIENTED_EDGE('',*,*,#84,.F.);
#642 = ORIENTED_EDGE('',*,*,#616,.F.);
#643 = ORIENTED_EDGE('',*,*,#644,.F.);
#644 = EDGE_CURVE('',#645,#562,#647,.T.);
#645 = VERTEX_POINT('',#646);
#646 = CARTESIAN_POINT('',(12.5,1.8,10.52));
#647 = SURFACE_CURVE('',#648,(#653,#682),.PCURVE_S1.);
#648 = ELLIPSE('',#649,0.282842712472,0.199999999999);
#649 = AXIS2_PLACEMENT_3D('',#650,#651,#652);
#650 = CARTESIAN_POINT('',(12.699999999998,1.800000000001,
    10.320000000002));
#651 = DIRECTION('',(-0.707106781187,-3.191636648244E-14,-0.707106781187
    ));
#652 = DIRECTION('',(0.707106781187,5.262282740123E-12,-0.707106781187)
  );
#653 = PCURVE('',#100,#654);
#654 = DEFINITIONAL_REPRESENTATION('',(#655),#681);
#655 = B_SPLINE_CURVE_WITH_KNOTS('',3,(#656,#657,#658,#659,#660,#661,
    #662,#663,#664,#665,#666,#667,#668,#669,#670,#671,#672,#673,#674,
    #675,#676,#677,#678,#679,#680),.UNSPECIFIED.,.F.,.F.,(4,1,1,1,1,1,1,
    1,1,1,1,1,1,1,1,1,1,1,1,1,1,1,4),(3.14159265359,3.174444210309,
    3.207295767028,3.240147323747,3.272998880466,3.305850437185,
    3.338701993905,3.371553550624,3.404405107343,3.437256664062,
    3.470108220781,3.5029597775,3.535811334219,3.568662890938,
    3.601514447658,3.634366004377,3.667217561096,3.700069117815,
    3.732920674534,3.765772231253,3.798623787972,3.831475344691,
    3.864326901411),.QUASI_UNIFORM_KNOTS.);
#656 = CARTESIAN_POINT('',(3.141592653593,10.519999999998));
#657 = CARTESIAN_POINT('',(3.130642134687,10.520000019393));
#658 = CARTESIAN_POINT('',(3.108741096874,10.519928036208));
#659 = CARTESIAN_POINT('',(3.075889540155,10.51960436754));
#660 = CARTESIAN_POINT('',(3.043037983437,10.519065285798));
#661 = CARTESIAN_POINT('',(3.010186426718,10.518311391065));
#662 = CARTESIAN_POINT('',(2.977334869999,10.517343491973));
#663 = CARTESIAN_POINT('',(2.94448331328,10.516162634326));
#664 = CARTESIAN_POINT('',(2.911631756561,10.514770092068));
#665 = CARTESIAN_POINT('',(2.878780199842,10.513167368024));
#666 = CARTESIAN_POINT('',(2.845928643123,10.511356191713));
#667 = CARTESIAN_POINT('',(2.813077086404,10.509338517633));
#668 = CARTESIAN_POINT('',(2.780225529685,10.507116523108));
#669 = CARTESIAN_POINT('',(2.747373972966,10.504692605957));
#670 = CARTESIAN_POINT('',(2.714522416247,10.502069381894));
#671 = CARTESIAN_POINT('',(2.681670859528,10.499249681715));
#672 = CARTESIAN_POINT('',(2.648819302809,10.496236548231));
#673 = CARTESIAN_POINT('',(2.61596774609,10.493033233018));
#674 = CARTESIAN_POINT('',(2.583116189371,10.489643192789));
#675 = CARTESIAN_POINT('',(2.550264632652,10.486070086103));
#676 = CARTESIAN_POINT('',(2.517413075933,10.482317767777));
#677 = CARTESIAN_POINT('',(2.484561519214,10.478390290859));
#678 = CARTESIAN_POINT('',(2.451709962495,10.474291879351));
#679 = CARTESIAN_POINT('',(2.429808924683,10.471448632538));
#680 = CARTESIAN_POINT('',(2.418858405776,10.469999999998));
#681 = ( GEOMETRIC_REPRESENTATION_CONTEXT(2) 
PARAMETRIC_REPRESENTATION_CONTEXT() REPRESENTATION_CONTEXT('2D SPACE',''
  ) );
#682 = PCURVE('',#600,#683);
#683 = DEFINITIONAL_REPRESENTATION('',(#684),#692);
#684 = ( BOUNDED_CURVE() B_SPLINE_CURVE(2,(#685,#686,#687,#688,#689,#690
,#691),.UNSPECIFIED.,.T.,.F.) B_SPLINE_CURVE_WITH_KNOTS((1,2,2,2,2,1),(
    -2.094395102393,0.,2.094395102393,4.188790204786,6.28318530718,
8.377580409573),.UNSPECIFIED.) CURVE() GEOMETRIC_REPRESENTATION_ITEM() 
RATIONAL_B_SPLINE_CURVE((1.,0.5,1.,0.5,1.,0.5,1.)) REPRESENTATION_ITEM(
  '') );
#685 = CARTESIAN_POINT('',(0.565685424944,-0.199999999998));
#686 = CARTESIAN_POINT('',(0.565685424945,-0.546410161509));
#687 = CARTESIAN_POINT('',(0.141421356237,-0.373205080756));
#688 = CARTESIAN_POINT('',(-0.282842712472,-0.200000000002));
#689 = CARTESIAN_POINT('',(0.141421356235,-2.679491924413E-02));
#690 = CARTESIAN_POINT('',(0.565685424942,0.146410161514));
#691 = CARTESIAN_POINT('',(0.565685424944,-0.199999999998));
#692 = ( GEOMETRIC_REPRESENTATION_CONTEXT(2) 
PARAMETRIC_REPRESENTATION_CONTEXT() REPRESENTATION_CONTEXT('2D SPACE',''
  ) );
#693 = ORIENTED_EDGE('',*,*,#694,.F.);
#694 = EDGE_CURVE('',#695,#645,#697,.T.);
#695 = VERTEX_POINT('',#696);
#696 = CARTESIAN_POINT('',(12.5,1.8,10.82));
#697 = SURFACE_CURVE('',#698,(#702,#709),.PCURVE_S1.);
#698 = LINE('',#699,#700);
#699 = CARTESIAN_POINT('',(12.5,1.8,10.82));
#700 = VECTOR('',#701,1.);
#701 = DIRECTION('',(1.27213054905E-13,0.,-1.));
#702 = PCURVE('',#100,#703);
#703 = DEFINITIONAL_REPRESENTATION('',(#704),#708);
#704 = LINE('',#705,#706);
#705 = CARTESIAN_POINT('',(3.14159265359,10.819999999998));
#706 = VECTOR('',#707,1.);
#707 = DIRECTION('',(0.,-1.));
#708 = ( GEOMETRIC_REPRESENTATION_CONTEXT(2) 
PARAMETRIC_REPRESENTATION_CONTEXT() REPRESENTATION_CONTEXT('2D SPACE',''
  ) );
#709 = PCURVE('',#710,#715);
#710 = PLANE('',#711);
#711 = AXIS2_PLACEMENT_3D('',#712,#713,#714);
#712 = CARTESIAN_POINT('',(12.5,2.,10.82));
#713 = DIRECTION('',(1.,0.,1.27213054905E-13));
#714 = DIRECTION('',(1.27213054905E-13,0.,-1.));
#715 = DEFINITIONAL_REPRESENTATION('',(#716),#720);
#716 = LINE('',#717,#718);
#717 = CARTESIAN_POINT('',(0.,-0.2));
#718 = VECTOR('',#719,1.);
#719 = DIRECTION('',(1.,0.));
#720 = ( GEOMETRIC_REPRESENTATION_CONTEXT(2) 
PARAMETRIC_REPRESENTATION_CONTEXT() REPRESENTATION_CONTEXT('2D SPACE',''
  ) );
#721 = ORIENTED_EDGE('',*,*,#722,.F.);
#722 = EDGE_CURVE('',#248,#695,#723,.T.);
#723 = SURFACE_CURVE('',#724,(#729,#758),.PCURVE_S1.);
#724 = ELLIPSE('',#725,0.282842712477,0.200000000001);
#725 = AXIS2_PLACEMENT_3D('',#726,#727,#728);
#726 = CARTESIAN_POINT('',(12.700000000002,1.799999999999,
    11.020000000002));
#727 = DIRECTION('',(-0.707106781186,-8.599163040435E-14,0.707106781187)
  );
#728 = DIRECTION('',(0.707106781187,-4.235346983326E-12,0.707106781186)
  );
#729 = PCURVE('',#100,#730);
#730 = DEFINITIONAL_REPRESENTATION('',(#731),#757);
#731 = B_SPLINE_CURVE_WITH_KNOTS('',3,(#732,#733,#734,#735,#736,#737,
    #738,#739,#740,#741,#742,#743,#744,#745,#746,#747,#748,#749,#750,
    #751,#752,#753,#754,#755,#756),.UNSPECIFIED.,.F.,.F.,(4,1,1,1,1,1,1,
    1,1,1,1,1,1,1,1,1,1,1,1,1,1,1,4),(2.418858405782,2.451709962501,
    2.484561519219,2.517413075938,2.550264632656,2.583116189375,
    2.615967746094,2.648819302812,2.681670859531,2.714522416249,
    2.747373972968,2.780225529686,2.813077086405,2.845928643123,
    2.878780199842,2.91163175656,2.944483313279,2.977334869997,
    3.010186426716,3.043037983434,3.075889540153,3.108741096871,
    3.14159265359),.QUASI_UNIFORM_KNOTS.);
#732 = CARTESIAN_POINT('',(2.418858405776,10.869999999998));
#733 = CARTESIAN_POINT('',(2.429808924682,10.868551367459));
#734 = CARTESIAN_POINT('',(2.451709962495,10.865708120646));
#735 = CARTESIAN_POINT('',(2.484561519213,10.861609709138));
#736 = CARTESIAN_POINT('',(2.517413075932,10.85768223222));
#737 = CARTESIAN_POINT('',(2.550264632651,10.853929913894));
#738 = CARTESIAN_POINT('',(2.583116189369,10.850356807208));
#739 = CARTESIAN_POINT('',(2.615967746088,10.846966766979));
#740 = CARTESIAN_POINT('',(2.648819302807,10.843763451766));
#741 = CARTESIAN_POINT('',(2.681670859526,10.840750318282));
#742 = CARTESIAN_POINT('',(2.714522416244,10.837930618103));
#743 = CARTESIAN_POINT('',(2.747373972963,10.83530739404));
#744 = CARTESIAN_POINT('',(2.780225529681,10.832883476889));
#745 = CARTESIAN_POINT('',(2.8130770864,10.830661482364));
#746 = CARTESIAN_POINT('',(2.845928643119,10.828643808284));
#747 = CARTESIAN_POINT('',(2.878780199837,10.826832631973));
#748 = CARTESIAN_POINT('',(2.911631756556,10.825229907929));
#749 = CARTESIAN_POINT('',(2.944483313275,10.823837365671));
#750 = CARTESIAN_POINT('',(2.977334869993,10.822656508024));
#751 = CARTESIAN_POINT('',(3.010186426712,10.821688608932));
#752 = CARTESIAN_POINT('',(3.043037983431,10.820934714199));
#753 = CARTESIAN_POINT('',(3.075889540149,10.820395632456));
#754 = CARTESIAN_POINT('',(3.108741096868,10.820071963789));
#755 = CARTESIAN_POINT('',(3.130642134681,10.819999980604));
#756 = CARTESIAN_POINT('',(3.141592653587,10.819999999998));
#757 = ( GEOMETRIC_REPRESENTATION_CONTEXT(2) 
PARAMETRIC_REPRESENTATION_CONTEXT() REPRESENTATION_CONTEXT('2D SPACE',''
  ) );
#758 = PCURVE('',#306,#759);
#759 = DEFINITIONAL_REPRESENTATION('',(#760),#768);
#760 = ( BOUNDED_CURVE() B_SPLINE_CURVE(2,(#761,#762,#763,#764,#765,#766
,#767),.UNSPECIFIED.,.T.,.F.) B_SPLINE_CURVE_WITH_KNOTS((1,2,2,2,2,1),(
    -2.094395102393,0.,2.094395102393,4.188790204786,6.28318530718,
8.377580409573),.UNSPECIFIED.) CURVE() GEOMETRIC_REPRESENTATION_ITEM() 
RATIONAL_B_SPLINE_CURVE((1.,0.5,1.,0.5,1.,0.5,1.)) REPRESENTATION_ITEM(
  '') );
#761 = CARTESIAN_POINT('',(-0.565685424954,-0.200000000002));
#762 = CARTESIAN_POINT('',(-0.565685424956,0.146410161514));
#763 = CARTESIAN_POINT('',(-0.141421356239,-2.679491924225E-02));
#764 = CARTESIAN_POINT('',(0.282842712477,-0.199999999998));
#765 = CARTESIAN_POINT('',(-0.141421356238,-0.373205080758));
#766 = CARTESIAN_POINT('',(-0.565685424953,-0.546410161517));
#767 = CARTESIAN_POINT('',(-0.565685424954,-0.200000000002));
#768 = ( GEOMETRIC_REPRESENTATION_CONTEXT(2) 
PARAMETRIC_REPRESENTATION_CONTEXT() REPRESENTATION_CONTEXT('2D SPACE',''
  ) );
#769 = ADVANCED_FACE('',(#770),#600,.F.);
#770 = FACE_BOUND('',#771,.T.);
#771 = EDGE_LOOP('',(#772,#773,#774,#797,#825));
#772 = ORIENTED_EDGE('',*,*,#644,.T.);
#773 = ORIENTED_EDGE('',*,*,#561,.T.);
#774 = ORIENTED_EDGE('',*,*,#775,.T.);
#775 = EDGE_CURVE('',#534,#776,#778,.T.);
#776 = VERTEX_POINT('',#777);
#777 = CARTESIAN_POINT('',(12.6,1.5,10.42));
#778 = SURFACE_CURVE('',#779,(#783,#790),.PCURVE_S1.);
#779 = LINE('',#780,#781);
#780 = CARTESIAN_POINT('',(12.6,2.,10.42));
#781 = VECTOR('',#782,1.);
#782 = DIRECTION('',(0.,-1.,0.));
#783 = PCURVE('',#600,#784);
#784 = DEFINITIONAL_REPRESENTATION('',(#785),#789);
#785 = LINE('',#786,#787);
#786 = CARTESIAN_POINT('',(0.141421356237,0.));
#787 = VECTOR('',#788,1.);
#788 = DIRECTION('',(0.,-1.));
#789 = ( GEOMETRIC_REPRESENTATION_CONTEXT(2) 
PARAMETRIC_REPRESENTATION_CONTEXT() REPRESENTATION_CONTEXT('2D SPACE',''
  ) );
#790 = PCURVE('',#549,#791);
#791 = DEFINITIONAL_REPRESENTATION('',(#792),#796);
#792 = LINE('',#793,#794);
#793 = CARTESIAN_POINT('',(0.,0.));
#794 = VECTOR('',#795,1.);
#795 = DIRECTION('',(0.,-1.));
#796 = ( GEOMETRIC_REPRESENTATION_CONTEXT(2) 
PARAMETRIC_REPRESENTATION_CONTEXT() REPRESENTATION_CONTEXT('2D SPACE',''
  ) );
#797 = ORIENTED_EDGE('',*,*,#798,.T.);
#798 = EDGE_CURVE('',#776,#799,#801,.T.);
#799 = VERTEX_POINT('',#800);
#800 = CARTESIAN_POINT('',(12.5,1.5,10.52));
#801 = SURFACE_CURVE('',#802,(#806,#813),.PCURVE_S1.);
#802 = LINE('',#803,#804);
#803 = CARTESIAN_POINT('',(12.5,1.5,10.52));
#804 = VECTOR('',#805,1.);
#805 = DIRECTION('',(-0.707106781187,0.,0.707106781187));
#806 = PCURVE('',#600,#807);
#807 = DEFINITIONAL_REPRESENTATION('',(#808),#812);
#808 = LINE('',#809,#810);
#809 = CARTESIAN_POINT('',(0.,-0.5));
#810 = VECTOR('',#811,1.);
#811 = DIRECTION('',(-1.,0.));
#812 = ( GEOMETRIC_REPRESENTATION_CONTEXT(2) 
PARAMETRIC_REPRESENTATION_CONTEXT() REPRESENTATION_CONTEXT('2D SPACE',''
  ) );
#813 = PCURVE('',#814,#819);
#814 = PLANE('',#815);
#815 = AXIS2_PLACEMENT_3D('',#816,#817,#818);
#816 = CARTESIAN_POINT('',(12.75,1.5,10.67));
#817 = DIRECTION('',(0.,1.,0.));
#818 = DIRECTION('',(0.,-0.,1.));
#819 = DEFINITIONAL_REPRESENTATION('',(#820),#824);
#820 = LINE('',#821,#822);
#821 = CARTESIAN_POINT('',(-0.15,-0.249999999999));
#822 = VECTOR('',#823,1.);
#823 = DIRECTION('',(0.707106781187,-0.707106781187));
#824 = ( GEOMETRIC_REPRESENTATION_CONTEXT(2) 
PARAMETRIC_REPRESENTATION_CONTEXT() REPRESENTATION_CONTEXT('2D SPACE',''
  ) );
#825 = ORIENTED_EDGE('',*,*,#826,.F.);
#826 = EDGE_CURVE('',#645,#799,#827,.T.);
#827 = SURFACE_CURVE('',#828,(#832,#839),.PCURVE_S1.);
#828 = LINE('',#829,#830);
#829 = CARTESIAN_POINT('',(12.5,2.,10.52));
#830 = VECTOR('',#831,1.);
#831 = DIRECTION('',(0.,-1.,0.));
#832 = PCURVE('',#600,#833);
#833 = DEFINITIONAL_REPRESENTATION('',(#834),#838);
#834 = LINE('',#835,#836);
#835 = CARTESIAN_POINT('',(0.,0.));
#836 = VECTOR('',#837,1.);
#837 = DIRECTION('',(0.,-1.));
#838 = ( GEOMETRIC_REPRESENTATION_CONTEXT(2) 
PARAMETRIC_REPRESENTATION_CONTEXT() REPRESENTATION_CONTEXT('2D SPACE',''
  ) );
#839 = PCURVE('',#710,#840);
#840 = DEFINITIONAL_REPRESENTATION('',(#841),#845);
#841 = LINE('',#842,#843);
#842 = CARTESIAN_POINT('',(0.3,0.));
#843 = VECTOR('',#844,1.);
#844 = DIRECTION('',(0.,-1.));
#845 = ( GEOMETRIC_REPRESENTATION_CONTEXT(2) 
PARAMETRIC_REPRESENTATION_CONTEXT() REPRESENTATION_CONTEXT('2D SPACE',''
  ) );
#846 = ADVANCED_FACE('',(#847),#549,.F.);
#847 = FACE_BOUND('',#848,.T.);
#848 = EDGE_LOOP('',(#849,#850,#851,#874));
#849 = ORIENTED_EDGE('',*,*,#775,.F.);
#850 = ORIENTED_EDGE('',*,*,#533,.T.);
#851 = ORIENTED_EDGE('',*,*,#852,.T.);
#852 = EDGE_CURVE('',#484,#853,#855,.T.);
#853 = VERTEX_POINT('',#854);
#854 = CARTESIAN_POINT('',(12.9,1.5,10.42));
#855 = SURFACE_CURVE('',#856,(#860,#867),.PCURVE_S1.);
#856 = LINE('',#857,#858);
#857 = CARTESIAN_POINT('',(12.9,2.,10.42));
#858 = VECTOR('',#859,1.);
#859 = DIRECTION('',(0.,-1.,0.));
#860 = PCURVE('',#549,#861);
#861 = DEFINITIONAL_REPRESENTATION('',(#862),#866);
#862 = LINE('',#863,#864);
#863 = CARTESIAN_POINT('',(0.3,0.));
#864 = VECTOR('',#865,1.);
#865 = DIRECTION('',(0.,-1.));
#866 = ( GEOMETRIC_REPRESENTATION_CONTEXT(2) 
PARAMETRIC_REPRESENTATION_CONTEXT() REPRESENTATION_CONTEXT('2D SPACE',''
  ) );
#867 = PCURVE('',#394,#868);
#868 = DEFINITIONAL_REPRESENTATION('',(#869),#873);
#869 = LINE('',#870,#871);
#870 = CARTESIAN_POINT('',(0.,0.));
#871 = VECTOR('',#872,1.);
#872 = DIRECTION('',(0.,-1.));
#873 = ( GEOMETRIC_REPRESENTATION_CONTEXT(2) 
PARAMETRIC_REPRESENTATION_CONTEXT() REPRESENTATION_CONTEXT('2D SPACE',''
  ) );
#874 = ORIENTED_EDGE('',*,*,#875,.T.);
#875 = EDGE_CURVE('',#853,#776,#876,.T.);
#876 = SURFACE_CURVE('',#877,(#881,#888),.PCURVE_S1.);
#877 = LINE('',#878,#879);
#878 = CARTESIAN_POINT('',(12.6,1.5,10.42));
#879 = VECTOR('',#880,1.);
#880 = DIRECTION('',(-1.,0.,0.));
#881 = PCURVE('',#549,#882);
#882 = DEFINITIONAL_REPRESENTATION('',(#883),#887);
#883 = LINE('',#884,#885);
#884 = CARTESIAN_POINT('',(0.,-0.5));
#885 = VECTOR('',#886,1.);
#886 = DIRECTION('',(-1.,0.));
#887 = ( GEOMETRIC_REPRESENTATION_CONTEXT(2) 
PARAMETRIC_REPRESENTATION_CONTEXT() REPRESENTATION_CONTEXT('2D SPACE',''
  ) );
#888 = PCURVE('',#814,#889);
#889 = DEFINITIONAL_REPRESENTATION('',(#890),#894);
#890 = LINE('',#891,#892);
#891 = CARTESIAN_POINT('',(-0.25,-0.149999999999));
#892 = VECTOR('',#893,1.);
#893 = DIRECTION('',(0.,-1.));
#894 = ( GEOMETRIC_REPRESENTATION_CONTEXT(2) 
PARAMETRIC_REPRESENTATION_CONTEXT() REPRESENTATION_CONTEXT('2D SPACE',''
  ) );
#895 = ADVANCED_FACE('',(#896),#394,.F.);
#896 = FACE_BOUND('',#897,.T.);
#897 = EDGE_LOOP('',(#898,#899,#900,#901,#924));
#898 = ORIENTED_EDGE('',*,*,#852,.F.);
#899 = ORIENTED_EDGE('',*,*,#483,.T.);
#900 = ORIENTED_EDGE('',*,*,#355,.T.);
#901 = ORIENTED_EDGE('',*,*,#902,.T.);
#902 = EDGE_CURVE('',#326,#903,#905,.T.);
#903 = VERTEX_POINT('',#904);
#904 = CARTESIAN_POINT('',(13.,1.5,10.52));
#905 = SURFACE_CURVE('',#906,(#910,#917),.PCURVE_S1.);
#906 = LINE('',#907,#908);
#907 = CARTESIAN_POINT('',(13.,2.,10.52));
#908 = VECTOR('',#909,1.);
#909 = DIRECTION('',(0.,-1.,0.));
#910 = PCURVE('',#394,#911);
#911 = DEFINITIONAL_REPRESENTATION('',(#912),#916);
#912 = LINE('',#913,#914);
#913 = CARTESIAN_POINT('',(0.141421356237,0.));
#914 = VECTOR('',#915,1.);
#915 = DIRECTION('',(0.,-1.));
#916 = ( GEOMETRIC_REPRESENTATION_CONTEXT(2) 
PARAMETRIC_REPRESENTATION_CONTEXT() REPRESENTATION_CONTEXT('2D SPACE',''
  ) );
#917 = PCURVE('',#343,#918);
#918 = DEFINITIONAL_REPRESENTATION('',(#919),#923);
#919 = LINE('',#920,#921);
#920 = CARTESIAN_POINT('',(-0.3,0.));
#921 = VECTOR('',#922,1.);
#922 = DIRECTION('',(0.,-1.));
#923 = ( GEOMETRIC_REPRESENTATION_CONTEXT(2) 
PARAMETRIC_REPRESENTATION_CONTEXT() REPRESENTATION_CONTEXT('2D SPACE',''
  ) );
#924 = ORIENTED_EDGE('',*,*,#925,.T.);
#925 = EDGE_CURVE('',#903,#853,#926,.T.);
#926 = SURFACE_CURVE('',#927,(#931,#938),.PCURVE_S1.);
#927 = LINE('',#928,#929);
#928 = CARTESIAN_POINT('',(12.9,1.5,10.42));
#929 = VECTOR('',#930,1.);
#930 = DIRECTION('',(-0.707106781187,0.,-0.707106781187));
#931 = PCURVE('',#394,#932);
#932 = DEFINITIONAL_REPRESENTATION('',(#933),#937);
#933 = LINE('',#934,#935);
#934 = CARTESIAN_POINT('',(0.,-0.5));
#935 = VECTOR('',#936,1.);
#936 = DIRECTION('',(-1.,0.));
#937 = ( GEOMETRIC_REPRESENTATION_CONTEXT(2) 
PARAMETRIC_REPRESENTATION_CONTEXT() REPRESENTATION_CONTEXT('2D SPACE',''
  ) );
#938 = PCURVE('',#814,#939);
#939 = DEFINITIONAL_REPRESENTATION('',(#940),#944);
#940 = LINE('',#941,#942);
#941 = CARTESIAN_POINT('',(-0.25,0.15));
#942 = VECTOR('',#943,1.);
#943 = DIRECTION('',(-0.707106781187,-0.707106781187));
#944 = ( GEOMETRIC_REPRESENTATION_CONTEXT(2) 
PARAMETRIC_REPRESENTATION_CONTEXT() REPRESENTATION_CONTEXT('2D SPACE',''
  ) );
#945 = ADVANCED_FACE('',(#946),#343,.F.);
#946 = FACE_BOUND('',#947,.T.);
#947 = EDGE_LOOP('',(#948,#949,#950,#973));
#948 = ORIENTED_EDGE('',*,*,#902,.F.);
#949 = ORIENTED_EDGE('',*,*,#325,.T.);
#950 = ORIENTED_EDGE('',*,*,#951,.T.);
#951 = EDGE_CURVE('',#328,#952,#954,.T.);
#952 = VERTEX_POINT('',#953);
#953 = CARTESIAN_POINT('',(13.,1.5,10.82));
#954 = SURFACE_CURVE('',#955,(#959,#966),.PCURVE_S1.);
#955 = LINE('',#956,#957);
#956 = CARTESIAN_POINT('',(13.,2.,10.82));
#957 = VECTOR('',#958,1.);
#958 = DIRECTION('',(0.,-1.,0.));
#959 = PCURVE('',#343,#960);
#960 = DEFINITIONAL_REPRESENTATION('',(#961),#965);
#961 = LINE('',#962,#963);
#962 = CARTESIAN_POINT('',(0.,0.));
#963 = VECTOR('',#964,1.);
#964 = DIRECTION('',(0.,-1.));
#965 = ( GEOMETRIC_REPRESENTATION_CONTEXT(2) 
PARAMETRIC_REPRESENTATION_CONTEXT() REPRESENTATION_CONTEXT('2D SPACE',''
  ) );
#966 = PCURVE('',#210,#967);
#967 = DEFINITIONAL_REPRESENTATION('',(#968),#972);
#968 = LINE('',#969,#970);
#969 = CARTESIAN_POINT('',(-0.141421356237,0.));
#970 = VECTOR('',#971,1.);
#971 = DIRECTION('',(0.,-1.));
#972 = ( GEOMETRIC_REPRESENTATION_CONTEXT(2) 
PARAMETRIC_REPRESENTATION_CONTEXT() REPRESENTATION_CONTEXT('2D SPACE',''
  ) );
#973 = ORIENTED_EDGE('',*,*,#974,.T.);
#974 = EDGE_CURVE('',#952,#903,#975,.T.);
#975 = SURFACE_CURVE('',#976,(#980,#987),.PCURVE_S1.);
#976 = LINE('',#977,#978);
#977 = CARTESIAN_POINT('',(13.,1.5,10.82));
#978 = VECTOR('',#979,1.);
#979 = DIRECTION('',(-5.782411586589E-15,0.,-1.));
#980 = PCURVE('',#343,#981);
#981 = DEFINITIONAL_REPRESENTATION('',(#982),#986);
#982 = LINE('',#983,#984);
#983 = CARTESIAN_POINT('',(0.,-0.5));
#984 = VECTOR('',#985,1.);
#985 = DIRECTION('',(-1.,0.));
#986 = ( GEOMETRIC_REPRESENTATION_CONTEXT(2) 
PARAMETRIC_REPRESENTATION_CONTEXT() REPRESENTATION_CONTEXT('2D SPACE',''
  ) );
#987 = PCURVE('',#814,#988);
#988 = DEFINITIONAL_REPRESENTATION('',(#989),#993);
#989 = LINE('',#990,#991);
#990 = CARTESIAN_POINT('',(0.15,0.250000000001));
#991 = VECTOR('',#992,1.);
#992 = DIRECTION('',(-1.,-5.782411586589E-15));
#993 = ( GEOMETRIC_REPRESENTATION_CONTEXT(2) 
PARAMETRIC_REPRESENTATION_CONTEXT() REPRESENTATION_CONTEXT('2D SPACE',''
  ) );
#994 = ADVANCED_FACE('',(#995),#210,.F.);
#995 = FACE_BOUND('',#996,.T.);
#996 = EDGE_LOOP('',(#997,#998,#999,#1000,#1023));
#997 = ORIENTED_EDGE('',*,*,#951,.F.);
#998 = ORIENTED_EDGE('',*,*,#432,.T.);
#999 = ORIENTED_EDGE('',*,*,#171,.T.);
#1000 = ORIENTED_EDGE('',*,*,#1001,.T.);
#1001 = EDGE_CURVE('',#142,#1002,#1004,.T.);
#1002 = VERTEX_POINT('',#1003);
#1003 = CARTESIAN_POINT('',(12.9,1.5,10.92));
#1004 = SURFACE_CURVE('',#1005,(#1009,#1016),.PCURVE_S1.);
#1005 = LINE('',#1006,#1007);
#1006 = CARTESIAN_POINT('',(12.9,2.,10.92));
#1007 = VECTOR('',#1008,1.);
#1008 = DIRECTION('',(0.,-1.,0.));
#1009 = PCURVE('',#210,#1010);
#1010 = DEFINITIONAL_REPRESENTATION('',(#1011),#1015);
#1011 = LINE('',#1012,#1013);
#1012 = CARTESIAN_POINT('',(0.,0.));
#1013 = VECTOR('',#1014,1.);
#1014 = DIRECTION('',(0.,-1.));
#1015 = ( GEOMETRIC_REPRESENTATION_CONTEXT(2) 
PARAMETRIC_REPRESENTATION_CONTEXT() REPRESENTATION_CONTEXT('2D SPACE',''
  ) );
#1016 = PCURVE('',#159,#1017);
#1017 = DEFINITIONAL_REPRESENTATION('',(#1018),#1022);
#1018 = LINE('',#1019,#1020);
#1019 = CARTESIAN_POINT('',(-0.3,0.));
#1020 = VECTOR('',#1021,1.);
#1021 = DIRECTION('',(0.,-1.));
#1022 = ( GEOMETRIC_REPRESENTATION_CONTEXT(2) 
PARAMETRIC_REPRESENTATION_CONTEXT() REPRESENTATION_CONTEXT('2D SPACE',''
  ) );
#1023 = ORIENTED_EDGE('',*,*,#1024,.T.);
#1024 = EDGE_CURVE('',#1002,#952,#1025,.T.);
#1025 = SURFACE_CURVE('',#1026,(#1030,#1037),.PCURVE_S1.);
#1026 = LINE('',#1027,#1028);
#1027 = CARTESIAN_POINT('',(12.9,1.5,10.92));
#1028 = VECTOR('',#1029,1.);
#1029 = DIRECTION('',(0.707106781187,0.,-0.707106781187));
#1030 = PCURVE('',#210,#1031);
#1031 = DEFINITIONAL_REPRESENTATION('',(#1032),#1036);
#1032 = LINE('',#1033,#1034);
#1033 = CARTESIAN_POINT('',(0.,-0.5));
#1034 = VECTOR('',#1035,1.);
#1035 = DIRECTION('',(-1.,0.));
#1036 = ( GEOMETRIC_REPRESENTATION_CONTEXT(2) 
PARAMETRIC_REPRESENTATION_CONTEXT() REPRESENTATION_CONTEXT('2D SPACE',''
  ) );
#1037 = PCURVE('',#814,#1038);
#1038 = DEFINITIONAL_REPRESENTATION('',(#1039),#1043);
#1039 = LINE('',#1040,#1041);
#1040 = CARTESIAN_POINT('',(0.25,0.15));
#1041 = VECTOR('',#1042,1.);
#1042 = DIRECTION('',(-0.707106781187,0.707106781187));
#1043 = ( GEOMETRIC_REPRESENTATION_CONTEXT(2) 
PARAMETRIC_REPRESENTATION_CONTEXT() REPRESENTATION_CONTEXT('2D SPACE',''
  ) );
#1044 = ADVANCED_FACE('',(#1045),#159,.F.);
#1045 = FACE_BOUND('',#1046,.T.);
#1046 = EDGE_LOOP('',(#1047,#1048,#1049,#1072));
#1047 = ORIENTED_EDGE('',*,*,#1001,.F.);
#1048 = ORIENTED_EDGE('',*,*,#141,.T.);
#1049 = ORIENTED_EDGE('',*,*,#1050,.T.);
#1050 = EDGE_CURVE('',#144,#1051,#1053,.T.);
#1051 = VERTEX_POINT('',#1052);
#1052 = CARTESIAN_POINT('',(12.6,1.5,10.92));
#1053 = SURFACE_CURVE('',#1054,(#1058,#1065),.PCURVE_S1.);
#1054 = LINE('',#1055,#1056);
#1055 = CARTESIAN_POINT('',(12.6,2.,10.92));
#1056 = VECTOR('',#1057,1.);
#1057 = DIRECTION('',(0.,-1.,0.));
#1058 = PCURVE('',#159,#1059);
#1059 = DEFINITIONAL_REPRESENTATION('',(#1060),#1064);
#1060 = LINE('',#1061,#1062);
#1061 = CARTESIAN_POINT('',(0.,0.));
#1062 = VECTOR('',#1063,1.);
#1063 = DIRECTION('',(0.,-1.));
#1064 = ( GEOMETRIC_REPRESENTATION_CONTEXT(2) 
PARAMETRIC_REPRESENTATION_CONTEXT() REPRESENTATION_CONTEXT('2D SPACE',''
  ) );
#1065 = PCURVE('',#306,#1066);
#1066 = DEFINITIONAL_REPRESENTATION('',(#1067),#1071);
#1067 = LINE('',#1068,#1069);
#1068 = CARTESIAN_POINT('',(-0.141421356237,0.));
#1069 = VECTOR('',#1070,1.);
#1070 = DIRECTION('',(-0.,-1.));
#1071 = ( GEOMETRIC_REPRESENTATION_CONTEXT(2) 
PARAMETRIC_REPRESENTATION_CONTEXT() REPRESENTATION_CONTEXT('2D SPACE',''
  ) );
#1072 = ORIENTED_EDGE('',*,*,#1073,.T.);
#1073 = EDGE_CURVE('',#1051,#1002,#1074,.T.);
#1074 = SURFACE_CURVE('',#1075,(#1079,#1086),.PCURVE_S1.);
#1075 = LINE('',#1076,#1077);
#1076 = CARTESIAN_POINT('',(12.6,1.5,10.92));
#1077 = VECTOR('',#1078,1.);
#1078 = DIRECTION('',(1.,0.,-1.040834085586E-13));
#1079 = PCURVE('',#159,#1080);
#1080 = DEFINITIONAL_REPRESENTATION('',(#1081),#1085);
#1081 = LINE('',#1082,#1083);
#1082 = CARTESIAN_POINT('',(0.,-0.5));
#1083 = VECTOR('',#1084,1.);
#1084 = DIRECTION('',(-1.,0.));
#1085 = ( GEOMETRIC_REPRESENTATION_CONTEXT(2) 
PARAMETRIC_REPRESENTATION_CONTEXT() REPRESENTATION_CONTEXT('2D SPACE',''
  ) );
#1086 = PCURVE('',#814,#1087);
#1087 = DEFINITIONAL_REPRESENTATION('',(#1088),#1092);
#1088 = LINE('',#1089,#1090);
#1089 = CARTESIAN_POINT('',(0.25,-0.149999999999));
#1090 = VECTOR('',#1091,1.);
#1091 = DIRECTION('',(-1.040834085586E-13,1.));
#1092 = ( GEOMETRIC_REPRESENTATION_CONTEXT(2) 
PARAMETRIC_REPRESENTATION_CONTEXT() REPRESENTATION_CONTEXT('2D SPACE',''
  ) );
#1093 = ADVANCED_FACE('',(#1094),#306,.F.);
#1094 = FACE_BOUND('',#1095,.T.);
#1095 = EDGE_LOOP('',(#1096,#1097,#1098,#1099,#1122));
#1096 = ORIENTED_EDGE('',*,*,#1050,.F.);
#1097 = ORIENTED_EDGE('',*,*,#269,.T.);
#1098 = ORIENTED_EDGE('',*,*,#722,.T.);
#1099 = ORIENTED_EDGE('',*,*,#1100,.T.);
#1100 = EDGE_CURVE('',#695,#1101,#1103,.T.);
#1101 = VERTEX_POINT('',#1102);
#1102 = CARTESIAN_POINT('',(12.5,1.5,10.82));
#1103 = SURFACE_CURVE('',#1104,(#1108,#1115),.PCURVE_S1.);
#1104 = LINE('',#1105,#1106);
#1105 = CARTESIAN_POINT('',(12.5,2.,10.82));
#1106 = VECTOR('',#1107,1.);
#1107 = DIRECTION('',(0.,-1.,0.));
#1108 = PCURVE('',#306,#1109);
#1109 = DEFINITIONAL_REPRESENTATION('',(#1110),#1114);
#1110 = LINE('',#1111,#1112);
#1111 = CARTESIAN_POINT('',(0.,0.));
#1112 = VECTOR('',#1113,1.);
#1113 = DIRECTION('',(-0.,-1.));
#1114 = ( GEOMETRIC_REPRESENTATION_CONTEXT(2) 
PARAMETRIC_REPRESENTATION_CONTEXT() REPRESENTATION_CONTEXT('2D SPACE',''
  ) );
#1115 = PCURVE('',#710,#1116);
#1116 = DEFINITIONAL_REPRESENTATION('',(#1117),#1121);
#1117 = LINE('',#1118,#1119);
#1118 = CARTESIAN_POINT('',(0.,0.));
#1119 = VECTOR('',#1120,1.);
#1120 = DIRECTION('',(0.,-1.));
#1121 = ( GEOMETRIC_REPRESENTATION_CONTEXT(2) 
PARAMETRIC_REPRESENTATION_CONTEXT() REPRESENTATION_CONTEXT('2D SPACE',''
  ) );
#1122 = ORIENTED_EDGE('',*,*,#1123,.T.);
#1123 = EDGE_CURVE('',#1101,#1051,#1124,.T.);
#1124 = SURFACE_CURVE('',#1125,(#1129,#1136),.PCURVE_S1.);
#1125 = LINE('',#1126,#1127);
#1126 = CARTESIAN_POINT('',(12.5,1.5,10.82));
#1127 = VECTOR('',#1128,1.);
#1128 = DIRECTION('',(0.707106781187,0.,0.707106781187));
#1129 = PCURVE('',#306,#1130);
#1130 = DEFINITIONAL_REPRESENTATION('',(#1131),#1135);
#1131 = LINE('',#1132,#1133);
#1132 = CARTESIAN_POINT('',(-0.,-0.5));
#1133 = VECTOR('',#1134,1.);
#1134 = DIRECTION('',(-1.,0.));
#1135 = ( GEOMETRIC_REPRESENTATION_CONTEXT(2) 
PARAMETRIC_REPRESENTATION_CONTEXT() REPRESENTATION_CONTEXT('2D SPACE',''
  ) );
#1136 = PCURVE('',#814,#1137);
#1137 = DEFINITIONAL_REPRESENTATION('',(#1138),#1142);
#1138 = LINE('',#1139,#1140);
#1139 = CARTESIAN_POINT('',(0.15,-0.249999999999));
#1140 = VECTOR('',#1141,1.);
#1141 = DIRECTION('',(0.707106781187,0.707106781187));
#1142 = ( GEOMETRIC_REPRESENTATION_CONTEXT(2) 
PARAMETRIC_REPRESENTATION_CONTEXT() REPRESENTATION_CONTEXT('2D SPACE',''
  ) );
#1143 = ADVANCED_FACE('',(#1144),#710,.F.);
#1144 = FACE_BOUND('',#1145,.T.);
#1145 = EDGE_LOOP('',(#1146,#1147,#1148,#1149));
#1146 = ORIENTED_EDGE('',*,*,#1100,.F.);
#1147 = ORIENTED_EDGE('',*,*,#694,.T.);
#1148 = ORIENTED_EDGE('',*,*,#826,.T.);
#1149 = ORIENTED_EDGE('',*,*,#1150,.T.);
#1150 = EDGE_CURVE('',#799,#1101,#1151,.T.);
#1151 = SURFACE_CURVE('',#1152,(#1156,#1163),.PCURVE_S1.);
#1152 = LINE('',#1153,#1154);
#1153 = CARTESIAN_POINT('',(12.5,1.5,10.82));
#1154 = VECTOR('',#1155,1.);
#1155 = DIRECTION('',(-1.27213054905E-13,0.,1.));
#1156 = PCURVE('',#710,#1157);
#1157 = DEFINITIONAL_REPRESENTATION('',(#1158),#1162);
#1158 = LINE('',#1159,#1160);
#1159 = CARTESIAN_POINT('',(0.,-0.5));
#1160 = VECTOR('',#1161,1.);
#1161 = DIRECTION('',(-1.,0.));
#1162 = ( GEOMETRIC_REPRESENTATION_CONTEXT(2) 
PARAMETRIC_REPRESENTATION_CONTEXT() REPRESENTATION_CONTEXT('2D SPACE',''
  ) );
#1163 = PCURVE('',#814,#1164);
#1164 = DEFINITIONAL_REPRESENTATION('',(#1165),#1169);
#1165 = LINE('',#1166,#1167);
#1166 = CARTESIAN_POINT('',(0.15,-0.249999999999));
#1167 = VECTOR('',#1168,1.);
#1168 = DIRECTION('',(1.,-1.27213054905E-13));
#1169 = ( GEOMETRIC_REPRESENTATION_CONTEXT(2) 
PARAMETRIC_REPRESENTATION_CONTEXT() REPRESENTATION_CONTEXT('2D SPACE',''
  ) );
#1170 = ADVANCED_FACE('',(#1171),#814,.F.);
#1171 = FACE_BOUND('',#1172,.T.);
#1172 = EDGE_LOOP('',(#1173,#1174,#1175,#1176,#1177,#1178,#1179,#1180));
#1173 = ORIENTED_EDGE('',*,*,#798,.F.);
#1174 = ORIENTED_EDGE('',*,*,#875,.F.);
#1175 = ORIENTED_EDGE('',*,*,#925,.F.);
#1176 = ORIENTED_EDGE('',*,*,#974,.F.);
#1177 = ORIENTED_EDGE('',*,*,#1024,.F.);
#1178 = ORIENTED_EDGE('',*,*,#1073,.F.);
#1179 = ORIENTED_EDGE('',*,*,#1123,.F.);
#1180 = ORIENTED_EDGE('',*,*,#1150,.F.);
#1181 = ( GEOMETRIC_REPRESENTATION_CONTEXT(3) 
GLOBAL_UNCERTAINTY_ASSIGNED_CONTEXT((#1185)) 
GLOBAL_UNIT_ASSIGNED_CONTEXT((#1182,#1183,#1184)) REPRESENTATION_CONTEXT
('Context #1','3D Context with UNIT and UNCERTAINTY') );
#1182 = ( LENGTH_UNIT() NAMED_UNIT(*) SI_UNIT(.MILLI.,.METRE.) );
#1183 = ( NAMED_UNIT(*) PLANE_ANGLE_UNIT() SI_UNIT($,.RADIAN.) );
#1184 = ( NAMED_UNIT(*) SI_UNIT($,.STERADIAN.) SOLID_ANGLE_UNIT() );
#1185 = UNCERTAINTY_MEASURE_WITH_UNIT(LENGTH_MEASURE(2.E-03),#1182,
  'distance_accuracy_value','confusion accuracy');
#1186 = PRODUCT_RELATED_PRODUCT_CATEGORY('part',$,(#7));
ENDSEC;
END-ISO-10303-21;
